<svg version="1.1" id="Layer_1" xmlns="http://www.w3.org/2000/svg" x="0" y="0" viewBox="0 0 800 800" style="enable-background:new 0 0 800 800" xml:space="preserve"><style>.st0,.st1{fill-rule:evenodd;clip-rule:evenodd;fill:#0092c9}.st1{fill:#4fc3a0}.st4{fill:#fff}.st6,.st9{fill-rule:evenodd;clip-rule:evenodd;fill:#eaa377}.st9{fill:#fff}.st13{fill:none;stroke:#0090d8;stroke-width:12.8211;stroke-miterlimit:10}</style><path class="st0" d="M331 164.9h225.1c18.4 0 33.6 15.1 33.6 33.6v305.4c0 18.4-15.1 33.6-33.6 33.6H331c-18.4 0-33.6-15.1-33.6-33.6V198.5c.1-18.5 15.2-33.6 33.6-33.6z"/><path class="st1" d="M330.3 196.9h226.5v308.3H330.3V196.9z"/><path class="st1" d="M364.6 196.9h192.2v270.9c-110.4-29-192.4-135.2-192.4-262.1 0-2.9.1-5.8.2-8.8z"/><path d="M398.3 155.3h18.4c-.8-2.6-1.2-5.4-1.2-8.3 0-15.5 12.5-28.1 28-28.1s28.1 12.5 28.1 28.1c0 2.8-.5 5.7-1.2 8.3H489c8.7 0 15.8 7.1 15.8 15.8v16.7c0 8.6-7.1 15.7-15.8 15.7h-90.6c-8.7 0-15.8-7.1-15.8-15.7v-16.7c-.1-8.7 7-15.8 15.7-15.8z" style="fill-rule:evenodd;clip-rule:evenodd;fill:#adadad"/><path d="M398.3 155.3h18.4c-.8-2.6-1.2-5.4-1.2-8.3 0-15.5 12.5-28.1 28-28.1s28.1 12.5 28.1 28.1c0 2.8-.5 5.7-1.2 8.3H489c7.7 0 14.1 5.6 15.5 12.7-1.4 7.2-7.9 12.8-15.5 12.8h-90.6c-7.7 0-14.1-5.6-15.5-12.8 1.3-7.1 7.7-12.7 15.4-12.7z" style="fill-rule:evenodd;clip-rule:evenodd;fill:#dbdbdb"/><path class="st4" d="M401 450c-2.7 2.8-7.2 2.8-9.9 0s-2.8-7.2 0-10c3.3-3.3 6.1-6.5 8.7-9.5-9-13.2-11.6-23.9-10.4-31.7 1.7-11.8 10.6-17.6 19.5-17.6 8.9.1 17.7 6.1 19.2 18.2.8 7.7-1.8 18.1-10.5 31.1 2 2.4 4.3 4.8 6.7 7.4.9.9 1.7 1.7 2.2 2 .2-.4.4-.8.6-1.3 1.5-4 2.1-9.6 2.1-12.7 0-3.9 3.2-7.1 7.1-7.1 3.4 0 6.3 2.5 6.9 5.8 1.5 7.9 3.7 12.7 5.8 14.8 2.1-2.2 4-7.3 5.1-15.4.5-3.9 4-6.6 7.9-6.1 3.5.5 6.1 3.5 6.1 7v29.3c6.3.5 13.2 1.8 20.6 4.4 3.7 1.3 5.7 5.3 4.4 9-1.3 3.7-5.3 5.7-9 4.4-5.8-2.1-11.1-3.2-16-3.7v.6c0 12.4-7.9 12.7-18.2 13l-1.8.1c-7 .2-11.6-1.4-14.2-4.1-3.5-3.7-3.8-8-1.1-12.4 1.5-2.4 4.3-4.7 7.9-6.7 3.3-1.8 7.8-3.2 13.1-4v-1.9c-1.4.6-2.8.9-4.4.9-3.5.1-6.9-1.1-9.8-3.8l-1.8-1.8c-.9 1.3-1.9 2.5-3.2 3.5-3.3 2.6-7.2 3.5-11.8 2-2.8-.9-5.8-2.8-8.9-6.1-1.9-2-3.7-3.9-5.4-5.9-2.2 2.9-4.8 5.6-7.5 8.3zm7.6-31.5c4.4-7.3 5.8-13.1 5.3-17.3-.5-3.7-2.8-5.6-5.2-5.7-2.4 0-4.8 1.8-5.3 5.3-.7 4.3.7 10.1 5.2 17.7zm40.3 21.4s-.1.1 0 0c.1 0 .1 0 0 0zm4.4 29.6c.4.1.6.2.6-.1l-.6.1zM368.9 249.5c-3.9 0-7.1-3.2-7.1-7.1 0-3.9 3.2-7.1 7.1-7.1h149.3c3.9 0 7.1 3.2 7.1 7.1 0 3.9-3.2 7.1-7.1 7.1H368.9zm12.9 84.7c-3.9 0-7.1-3.2-7.1-7.1s3.2-7.1 7.1-7.1h123.7c3.9 0 7.1 3.2 7.1 7.1s-3.2 7.1-7.1 7.1H381.8zm0-42.3c-3.9 0-7.1-3.2-7.1-7.1s3.2-7.1 7.1-7.1h123.7c3.9 0 7.1 3.2 7.1 7.1s-3.2 7.1-7.1 7.1H381.8z"/><path d="m430.2 499.8 56.7 40.1 44.1-26.8c43.2-26.4 105.9-19.5 33.7 35.1l-65.1 49.3c-56.3 42.6-76.3 74.6-218.2 36.5h-59.9V531.8h59.8l73.1-32c26.1-11.5 52.7-16.4 75.8 0z" style="fill-rule:evenodd;clip-rule:evenodd;fill:#eeb491"/><path class="st6" d="m481.1 535.6 6 4.3 6-3.7c1.9 3 1.2 7-1.7 9.2-16.6 13.1-33.9 20.2-52.1 21.6-18.1 1.3-36.9-3.2-56.3-13.6-3.4-1.9-4.7-6.1-3-9.6 1.9-3.4 6.1-4.7 9.6-3 17 9 33.2 13 48.7 11.9 14.9-.9 29.1-6.7 42.8-17.1z"/><path class="st6" d="M568.7 499c30.3-4.7 48.2 9.8-3.9 49.2l-65.1 49.3c-56.3 42.6-76.3 74.6-218.2 36.5h-59.9v-46.1h59.9c142 38.1 162 5.9 218.2-36.6l65.1-49.3c1.4-1.1 2.7-2.1 3.9-3z"/><path d="M168.7 520.1h40.9c6.5 0 11.9 5.3 11.9 11.9v101.8c0 6.5-5.3 11.9-11.9 11.9h-40.9c-6.5 0-11.9-5.3-11.9-11.9V532.1c.1-6.6 5.4-12 11.9-12z" style="fill-rule:evenodd;clip-rule:evenodd;fill:#0086af"/><path class="st0" d="M221.6 582.9v52c0 5.9-5.3 10.8-11.9 10.8h-40.9c-6.5 0-11.9-4.8-11.9-10.8v-52h64.7z"/><path d="M579.1 325.1c37.8 0 68.5 30.6 68.5 68.5s-30.6 68.3-68.5 68.3c-37.8 0-68.5-30.6-68.5-68.5 0-37.7 30.6-68.3 68.5-68.3z" style="fill-rule:evenodd;clip-rule:evenodd;fill:#44a585"/><path class="st1" d="M579.1 325.1c37.8 0 68.5 30.6 68.5 68.5 0 9.9-2.1 19.4-5.9 27.9-9.2 4.6-19.5 7.2-30.5 7.2-37.8 0-68.5-30.6-68.5-68.5 0-9.9 2.1-19.4 5.9-27.9 9.2-4.7 19.5-7.2 30.5-7.2z"/><path class="st4" d="M596.6 349.1c1.9-3.4 6.3-4.6 9.7-2.6 3.4 1.9 4.6 6.3 2.6 9.7L561.6 438c-2 3.3-6.3 4.5-9.7 2.5-3.4-1.9-4.5-6.3-2.6-9.7l47.3-81.7z"/><path class="st9" d="M572.9 348.6c4.6 2.7 6.3 8.6 3.5 13.4-2.7 4.6-8.6 6.3-13.4 3.5-4.6-2.7-6.3-8.6-3.5-13.4 2.8-4.7 8.8-6.2 13.4-3.5zM594.9 421.4c4.6 2.7 6.3 8.6 3.5 13.4s-8.6 6.3-13.4 3.5c-4.7-2.7-6.3-8.6-3.5-13.4 2.8-4.5 8.7-6.2 13.4-3.5z"/><path d="M285.2 365.3c36.8 0 66.6 29.8 66.6 66.6s-29.8 66.6-66.6 66.6-66.6-29.8-66.6-66.6 29.8-66.6 66.6-66.6z" style="fill-rule:evenodd;clip-rule:evenodd;fill:#f7ec13"/><path d="M285.2 383c27.1 0 48.8 21.9 48.8 48.8s-21.8 48.9-48.8 48.9-48.8-21.9-48.8-48.8c-.1-26.9 21.8-48.9 48.8-48.9z" style="fill-rule:evenodd;clip-rule:evenodd;fill:#fba919"/><path class="st4" d="M261.5 444.2c0-3.9 3.2-7.1 7.1-7.1s7.1 3.2 7.1 7.1c0 1.1.7 2.2 2 3.2 1.8 1.4 4.4 2.2 7.4 2.2 3.1 0 5.7-.8 7.4-2.2 1.2-.9 2-2 2-3.2 0-3.3-4.7-4.4-9.7-5.3-.7 0-1.3-.1-2-.4-10.9-2-21.4-4.4-21.4-19.2 0-5.8 3-10.9 7.7-14.5 2.5-1.9 5.4-3.3 8.9-4.1V398c0-3.9 3.2-7.1 7.1-7.1s7.1 3.2 7.1 7.1v2.7c3.3.8 6.4 2.4 8.9 4.1 4.7 3.5 7.7 8.6 7.7 14.5 0 3.9-3.2 7.1-7.1 7.1s-7.1-3.2-7.1-7.1c0-1.1-.7-2.2-2-3.2-1.8-1.4-4.5-2.2-7.4-2.2-3 0-5.7.8-7.4 2.2-1.3.9-2 2-2 3.2 0 3.4 5 4.4 10 5.3.5 0 .8.1 1.3.2 11 2 21.8 4.3 21.8 19.3 0 5.8-3 10.9-7.7 14.5-2.5 1.9-5.6 3.3-8.9 4.1v2.7h-14.2v-2.7c-3.3-.8-6.4-2.4-8.9-4.1-4.7-3.4-7.7-8.6-7.7-14.4z"/><path d="M13.5 316C52.8 139.3 210.5 7.3 399.1 7.3 585 7.3 740.9 135.7 783 308.8" style="fill:none;stroke:#70d7a4;stroke-width:12.8211;stroke-miterlimit:10"/><path class="st13" d="M71.4 583.7c-41.3-76.9-56.6-168.3-37-260.3 16.4-77 54.9-143.6 107.5-194.6"/><path d="M712.3 196.6c93.9 145.8 76.4 341.5-52.7 468.7-20.6 20.3-43 37.9-66.7 52.6" style="fill:none;stroke:#70d7a4;stroke-width:12.7339;stroke-miterlimit:10"/><path class="st13" d="M783 484.9c-39.4 176.6-197.1 308.7-385.6 308.7-185.9 0-341.8-128.4-383.9-301.5"/><circle cx="673.7" cy="118.3" r="43.4" style="fill:#0072ba"/><circle cx="116.8" cy="675.2" r="43.4" style="fill:#70d7a4"/></svg>