<?xml version="1.0" encoding="utf-8"?>
<!-- Generator: Adobe Illustrator 24.1.0, SVG Export Plug-In . SVG Version: 6.00 Build 0)  -->
<svg version="1.1" id="Layer_1" xmlns="http://www.w3.org/2000/svg" xmlns:xlink="http://www.w3.org/1999/xlink" x="0px" y="0px"
	 viewBox="0 0 800 800" style="enable-background:new 0 0 800 800;" xml:space="preserve">
<style type="text/css">
	.st0{fill-rule:evenodd;clip-rule:evenodd;fill:#0092C9;}
	.st1{fill-rule:evenodd;clip-rule:evenodd;fill:#4FC3A0;}
	.st2{fill-rule:evenodd;clip-rule:evenodd;fill:#ADADAD;}
	.st3{fill-rule:evenodd;clip-rule:evenodd;fill:#DBDBDB;}
	.st4{fill:#FFFFFF;}
	.st5{fill-rule:evenodd;clip-rule:evenodd;fill:#EEB491;}
	.st6{fill-rule:evenodd;clip-rule:evenodd;fill:#EAA377;}
	.st7{fill-rule:evenodd;clip-rule:evenodd;fill:#0086AF;}
	.st8{fill-rule:evenodd;clip-rule:evenodd;fill:#44A585;}
	.st9{fill-rule:evenodd;clip-rule:evenodd;fill:#FFFFFF;}
	.st10{fill-rule:evenodd;clip-rule:evenodd;fill:#F7EC13;}
	.st11{fill-rule:evenodd;clip-rule:evenodd;fill:#FBA919;}
	.st12{fill:none;stroke:#70D7A4;stroke-width:8.6825;stroke-miterlimit:10;}
	.st13{fill:none;stroke:#0090D8;stroke-width:8.6825;stroke-miterlimit:10;}
	.st14{fill:#0072BA;}
	.st15{fill:#70D7A4;}
</style>
<g>
	<path class="st0" d="M331,164.9h225.1c18.4,0,33.6,15.1,33.6,33.6v305.4c0,18.4-15.1,33.6-33.6,33.6H331
		c-18.4,0-33.6-15.1-33.6-33.6V198.5C297.5,180,312.6,164.9,331,164.9z"/>
	<path class="st1" d="M330.3,196.9h226.5v308.3H330.3V196.9z"/>
	<path class="st1" d="M364.6,196.9h192.2v270.9c-110.4-29-192.4-135.2-192.4-262.1C364.4,202.8,364.5,199.9,364.6,196.9z"/>
	<path class="st2" d="M398.3,155.3h18.4c-0.8-2.6-1.2-5.4-1.2-8.3c0-15.5,12.5-28.1,28-28.1c15.5,0,28.1,12.5,28.1,28.1
		c0,2.8-0.5,5.7-1.2,8.3H489c8.7,0,15.8,7.1,15.8,15.8v16.7c0,8.6-7.1,15.7-15.8,15.7h-90.6c-8.7,0-15.8-7.1-15.8-15.7v-16.7
		C382.5,162.4,389.6,155.3,398.3,155.3L398.3,155.3z"/>
	<path class="st3" d="M398.3,155.3h18.4c-0.8-2.6-1.2-5.4-1.2-8.3c0-15.5,12.5-28.1,28-28.1c15.5,0,28.1,12.5,28.1,28.1
		c0,2.8-0.5,5.7-1.2,8.3H489c7.7,0,14.1,5.6,15.5,12.7c-1.4,7.2-7.9,12.8-15.5,12.8h-90.6c-7.7,0-14.1-5.6-15.5-12.8
		C384.2,160.9,390.6,155.3,398.3,155.3L398.3,155.3z"/>
	<path class="st4" d="M401,450c-2.7,2.8-7.2,2.8-9.9,0c-2.7-2.8-2.8-7.2,0-10c3.3-3.3,6.1-6.5,8.7-9.5c-9-13.2-11.6-23.9-10.4-31.7
		c1.7-11.8,10.6-17.6,19.5-17.6c8.9,0.1,17.7,6.1,19.2,18.2c0.8,7.7-1.8,18.1-10.5,31.1c2,2.4,4.3,4.8,6.7,7.4
		c0.9,0.9,1.7,1.7,2.2,2c0.2-0.4,0.4-0.8,0.6-1.3c1.5-4,2.1-9.6,2.1-12.7c0-3.9,3.2-7.1,7.1-7.1c3.4,0,6.3,2.5,6.9,5.8l0,0
		c1.5,7.9,3.7,12.7,5.8,14.8c2.1-2.2,4-7.3,5.1-15.4c0.5-3.9,4-6.6,7.9-6.1c3.5,0.5,6.1,3.5,6.1,7l0,0v29.3
		c6.3,0.5,13.2,1.8,20.6,4.4c3.7,1.3,5.7,5.3,4.4,9c-1.3,3.7-5.3,5.7-9,4.4c-5.8-2.1-11.1-3.2-16-3.7v0.6c0,12.4-7.9,12.7-18.2,13
		l-1.8,0.1c-7,0.2-11.6-1.4-14.2-4.1c-3.5-3.7-3.8-8-1.1-12.4c1.5-2.4,4.3-4.7,7.9-6.7c3.3-1.8,7.8-3.2,13.1-4v-1.9
		c-1.4,0.6-2.8,0.9-4.4,0.9c-3.5,0.1-6.9-1.1-9.8-3.8c-0.6-0.6-1.2-1.2-1.8-1.8c-0.9,1.3-1.9,2.5-3.2,3.5c-3.3,2.6-7.2,3.5-11.8,2
		c-2.8-0.9-5.8-2.8-8.9-6.1c-1.9-2-3.7-3.9-5.4-5.9C406.3,444.6,403.7,447.3,401,450L401,450z M408.6,418.5
		c4.4-7.3,5.8-13.1,5.3-17.3c-0.5-3.7-2.8-5.6-5.2-5.7c-2.4,0-4.8,1.8-5.3,5.3C402.7,405.1,404.1,410.9,408.6,418.5z M448.9,439.9
		C448.9,439.9,448.8,440,448.9,439.9C449,439.9,449,439.9,448.9,439.9z M453.3,469.5c0.4,0.1,0.6,0.2,0.6-0.1L453.3,469.5z"/>
	<path class="st4" d="M368.9,249.5c-3.9,0-7.1-3.2-7.1-7.1c0-3.9,3.2-7.1,7.1-7.1h149.3c3.9,0,7.1,3.2,7.1,7.1
		c0,3.9-3.2,7.1-7.1,7.1H368.9z M381.8,334.2c-3.9,0-7.1-3.2-7.1-7.1c0-3.9,3.2-7.1,7.1-7.1h123.7c3.9,0,7.1,3.2,7.1,7.1
		c0,3.9-3.2,7.1-7.1,7.1H381.8z M381.8,291.9c-3.9,0-7.1-3.2-7.1-7.1c0-3.9,3.2-7.1,7.1-7.1h123.7c3.9,0,7.1,3.2,7.1,7.1
		c0,3.9-3.2,7.1-7.1,7.1H381.8z"/>
	<g>
		<path class="st5" d="M430.2,499.8l56.7,40.1l44.1-26.8c43.2-26.4,105.9-19.5,33.7,35.1l-65.1,49.3
			c-56.3,42.6-76.3,74.6-218.2,36.5h-59.9V531.8h59.8l73.1-32C380.5,488.3,407.1,483.4,430.2,499.8L430.2,499.8z"/>
		<path class="st6" d="M481.1,535.6l6,4.3l6-3.7c1.9,3,1.2,7-1.7,9.2c-16.6,13.1-33.9,20.2-52.1,21.6c-18.1,1.3-36.9-3.2-56.3-13.6
			c-3.4-1.9-4.7-6.1-3-9.6c1.9-3.4,6.1-4.7,9.6-3c17,9,33.2,13,48.7,11.9C453.2,551.8,467.4,546,481.1,535.6L481.1,535.6z"/>
		<path class="st6" d="M568.7,499c30.3-4.7,48.2,9.8-3.9,49.2l-65.1,49.3c-56.3,42.6-76.3,74.6-218.2,36.5h-59.9v-46.1h59.9
			c142,38.1,162,5.9,218.2-36.6l65.1-49.3C566.2,500.9,567.5,499.9,568.7,499z"/>
		<path class="st7" d="M168.7,520.1h40.9c6.5,0,11.9,5.3,11.9,11.9v101.8c0,6.5-5.3,11.9-11.9,11.9h-40.9c-6.5,0-11.9-5.3-11.9-11.9
			V532.1C156.9,525.5,162.2,520.1,168.7,520.1z"/>
		<path class="st0" d="M221.6,582.9v52c0,5.9-5.3,10.8-11.9,10.8h-40.9c-6.5,0-11.9-4.8-11.9-10.8v-52H221.6z"/>
		<path class="st8" d="M579.1,325.1c37.8,0,68.5,30.6,68.5,68.5s-30.6,68.3-68.5,68.3c-37.8,0-68.5-30.6-68.5-68.5
			C510.6,355.7,541.2,325.1,579.1,325.1L579.1,325.1z"/>
		<path class="st1" d="M579.1,325.1c37.8,0,68.5,30.6,68.5,68.5c0,9.9-2.1,19.4-5.9,27.9c-9.2,4.6-19.5,7.2-30.5,7.2
			c-37.8,0-68.5-30.6-68.5-68.5c0-9.9,2.1-19.4,5.9-27.9C557.8,327.6,568.1,325.1,579.1,325.1L579.1,325.1z"/>
	</g>
	<path class="st4" d="M596.6,349.1c1.9-3.4,6.3-4.6,9.7-2.6c3.4,1.9,4.6,6.3,2.6,9.7L561.6,438c-2,3.3-6.3,4.5-9.7,2.5
		c-3.4-1.9-4.5-6.3-2.6-9.7L596.6,349.1z"/>
	<path class="st9" d="M572.9,348.6c4.6,2.7,6.3,8.6,3.5,13.4c-2.7,4.6-8.6,6.3-13.4,3.5c-4.6-2.7-6.3-8.6-3.5-13.4
		C562.3,347.4,568.3,345.9,572.9,348.6z"/>
	<path class="st9" d="M594.9,421.4c4.6,2.7,6.3,8.6,3.5,13.4s-8.6,6.3-13.4,3.5c-4.7-2.7-6.3-8.6-3.5-13.4
		C584.3,420.4,590.2,418.7,594.9,421.4z"/>
	<path class="st10" d="M285.2,365.3c36.8,0,66.6,29.8,66.6,66.6s-29.8,66.6-66.6,66.6s-66.6-29.8-66.6-66.6S248.4,365.3,285.2,365.3
		L285.2,365.3z"/>
	<path class="st11" d="M285.2,383c27.1,0,48.8,21.9,48.8,48.8s-21.8,48.9-48.8,48.9c-27,0-48.8-21.9-48.8-48.8
		C236.3,405,258.2,383,285.2,383z"/>
	<path class="st4" d="M261.5,444.2c0-3.9,3.2-7.1,7.1-7.1c3.9,0,7.1,3.2,7.1,7.1c0,1.1,0.7,2.2,2,3.2c1.8,1.4,4.4,2.2,7.4,2.2
		c3.1,0,5.7-0.8,7.4-2.2c1.2-0.9,2-2,2-3.2c0-3.3-4.7-4.4-9.7-5.3c-0.7,0-1.3-0.1-2-0.4c-10.9-2-21.4-4.4-21.4-19.2
		c0-5.8,3-10.9,7.7-14.5c2.5-1.9,5.4-3.3,8.9-4.1V398c0-3.9,3.2-7.1,7.1-7.1c3.9,0,7.1,3.2,7.1,7.1v2.7c3.3,0.8,6.4,2.4,8.9,4.1
		c4.7,3.5,7.7,8.6,7.7,14.5c0,3.9-3.2,7.1-7.1,7.1c-3.9,0-7.1-3.2-7.1-7.1c0-1.1-0.7-2.2-2-3.2c-1.8-1.4-4.5-2.2-7.4-2.2
		c-3,0-5.7,0.8-7.4,2.2c-1.3,0.9-2,2-2,3.2c0,3.4,5,4.4,10,5.3c0.5,0,0.8,0.1,1.3,0.2c11,2,21.8,4.3,21.8,19.3
		c0,5.8-3,10.9-7.7,14.5c-2.5,1.9-5.6,3.3-8.9,4.1v2.7h-14.2v-2.7c-3.3-0.8-6.4-2.4-8.9-4.1C264.5,455.2,261.5,450,261.5,444.2
		L261.5,444.2z"/>
</g>
<g>
	<path class="st12" d="M22.7,317.2c38.5-172.8,192.8-302,377.2-302c181.9,0,334.4,125.6,375.5,294.9"/>
	<path class="st13" d="M86.8,604.8C-5.1,460.2,12.1,266.2,138.3,140C262.7,15.6,453.1-2.8,597,84.8"/>
	<path class="st12" d="M711.2,195.2c91.9,144.6,74.7,338.6-51.5,464.8C535.3,784.4,344.9,802.8,201,715.2"/>
	<path class="st13" d="M775.5,482.4c-38.5,172.8-192.8,302-377.2,302c-181.9,0-334.4-125.6-375.5-294.9"/>
	<circle class="st14" cx="668.6" cy="123.9" r="42.5"/>
	<circle class="st15" cx="123.8" cy="668.6" r="42.5"/>
</g>
</svg>
