<svg id="Layer_1" data-name="Layer 1" xmlns="http://www.w3.org/2000/svg" viewBox="0 0 383.16 363.43"><defs><style>.cls-2{fill:#4fc3a0}</style></defs><path d="M159.86 133.07c3.49 3.37 6.76 6.43 9.92 9.61 3 3 3.15 6.45.6 8.84s-5.55 2.08-8.58-.86c-2.68-2.6-5.41-5.18-7.9-8-1.54-1.71-2.34-1.35-3.66.23a107 107 0 0 0-24.46 54.81c-.44 3.15-2.27 7.18-.29 9.35 1.77 1.95 5.91.42 9 .58 1.74.09 3.5-.06 5.24.07 3.31.25 5.41 2.43 5.44 5.48a5.46 5.46 0 0 1-5.23 5.68h-.06c-4.23.26-8.48.2-12.72.08-1.9-.06-2.2.58-2.13 2.35.8 20.59 12.94 48.28 28.34 63.82 3-3.15 5.89-6.35 8.94-9.42s6.38-3.25 8.83-.65 2.11 5.53-.83 8.57c-2.52 2.59-5.05 5.18-7.7 7.64-1.34 1.24-1.29 2 .12 3.12 18 15 38.5 23.47 61.85 25.18 2.11.16 2.91-.3 2.8-2.54-.17-3.48-.09-7 0-10.47.07-3.81 2.2-6.21 5.43-6.29s5.72 2.46 5.82 6.38c.08 3.36.16 6.74 0 10.1-.13 2.28.44 3 2.85 2.74a107.12 107.12 0 0 0 45.43-14.6 117 117 0 0 0 15.42-11c1.73-1.44 1.59-2.28.05-3.68-2.58-2.35-5-4.86-7.43-7.39-2.59-2.72-2.67-6-.35-8.3s5.67-2.17 8.33.35 5 4.84 7.38 7.43c1.43 1.58 2.25 1.58 3.68-.11a106.85 106.85 0 0 0 24.2-52.17c.52-3.07.64-6.2 1.19-9.26.38-2.13-.44-2.54-2.32-2.49-3.61.1-7.23.1-10.84 0-4-.1-6.36-2.43-6.24-5.9.12-3.31 2.39-5.27 6.33-5.34 3.62-.06 7.24-.11 10.85 0 2.09.08 2.45-.71 2.29-2.64a108.12 108.12 0 0 0-25-61.2c-1.62-2-2.6-2.44-4.46-.29a106.57 106.57 0 0 1-7.64 7.69c-2.64 2.48-5.94 2.63-8.29.24s-2.15-5.56.45-8.28 5.2-5.39 7.95-7.92c1.58-1.44 1.56-2.27-.1-3.69a106.57 106.57 0 0 0-54.26-24.76c-2.59-.39-5.22-.47-7.8-.88-2.08-.33-2.5.52-2.44 2.41.12 3.86.1 7.73 0 11.59s-2.56 6.42-5.92 6.27c-3.19-.14-5.26-2.58-5.32-6.4-.06-3.61-.14-7.24 0-10.84.11-2.36-.39-3.3-3-3a118.78 118.78 0 0 0-17.29 2.86c-2.79.69-5.49.78-7.41-1.93-2.43-3.42-.64-7.76 3.85-8.89a113.71 113.71 0 0 1 32.95-3.65c34.13 1.58 63.08 14.61 85.64 40.45 22.4 25.65 32.34 55.73 28.9 89.73-5.49 54.31-45.44 96.75-99.11 105.85-62.21 10.53-122.89-31.51-135.28-93.73-10.22-51.3 14-103.32 59.44-127.77 1.54-.83 3-1.8 4.86-1.66a5.36 5.36 0 0 1 5.15 4.17c.81 3.12-.72 5.28-3.41 6.73a109.82 109.82 0 0 0-20 13.73c-.51.48-1.06.99-2.05 1.87Z" transform="translate(.05 .06)" style="fill:#0092c9"/><path class="cls-2" d="M368.46 147.67a151.77 151.77 0 0 0-26.29-38.35c-1.42-1.51-2.07-2.51-.23-4.14 2.31-2.06 3.65-6.16 6.39-6.36 2.05-.14 4.37 3.28 6.56 5.11l.28.25c3.32 2.65 6.07 2.59 8.85-.52 3.9-4.36 7.71-8.82 11.44-13.33 2.56-3.09 2.44-5.93-.57-8.54Q354.43 64 333.79 46.42c-3-2.57-5.89-2.29-8.53.68q-5.85 6.56-11.45 13.33c-2.67 3.22-2.3 5.86.68 8.84 2.2 2.2 6.64 3.57 6.21 6.59-.38 2.71-3.87 5-5.88 7.49-1.07 1.36-1.9 1.72-3.57.68a147.5 147.5 0 0 0-53.72-20.31c-1.91-.33-2.45-1-2.4-2.8.11-4 .21-8 0-12-.16-2.53.89-2.8 3-2.75q8.22.18 16.45 0a16.44 16.44 0 0 0 16.52-16.38V17.12C291 7.49 284.54.2 274.94.12q-42.65-.36-85.29 0c-9.47.07-16 7.09-16.25 16.53-.11 4.23-.1 8.48 0 12.71.2 10 7.08 16.76 17.09 16.85 5.37 0 10.73.09 16.09 0 2.06-.05 2.89.46 2.77 2.67a60.71 60.71 0 0 0 0 10.09c.41 3.53-1 4.63-4.27 5.18a140.28 140.28 0 0 0-51.23 19.54c-2.9 1.81-4.6 1.9-6.53-1.08-1.68-2.58-5.24-4.8-5.33-7.27-.07-1.91 4-4 6.14-6 3.19-3 3.48-5.84.75-9.12q-5.38-6.45-11-12.76c-3.13-3.53-5.8-3.73-9.35-.69Q108.35 64 88.26 81.38q-4.87 4.2-.78 9.11 5.51 6.6 11.22 13c2.81 3.15 5.47 3.22 8.84.75 2.53-1.86 4.58-6 7.45-5.26 2.6.72 4.25 4.62 6.52 6.92 1.54 1.56 1.56 2.52 0 4.16a123 123 0 0 0-16 20.63c-1.37 2.22-3 2.86-5.44 2.83-10.6-.12-21.2-.09-31.8 0-4.17 0-6.49 2.15-6.47 5.61s2.41 5.61 6.5 5.64c8.48.08 17 0 25.44 0 1 0 2.18-.44 3.11.46-2 4.87-4.29 9.59-6 14.5-.88 2.53-2 3.37-4.67 3.35-16.84-.13-33.67-.07-50.51-.06a20.08 20.08 0 0 0-4.1.14 5.34 5.34 0 0 0-4.65 5.1 5.25 5.25 0 0 0 3.81 5.74 12.73 12.73 0 0 0 4.08.3c16.08 0 32.17.07 48.26 0 2.54 0 3.1.43 2.39 3.05A89.29 89.29 0 0 0 82.39 195c-.18 2.94-1.14 3.68-4 3.66-23.32-.11-46.64 0-70-.12-3.43 0-6.25.69-8.44 3.38v4.49c2.09 2.81 4.88 3.62 8.35 3.61 23.19-.11 46.38 0 69.58-.13 2.79 0 3.65.66 3.52 3.5a87.16 87.16 0 0 0 1 17.53c.42 2.74-.22 3.23-2.86 3.21-15.47-.13-30.93-.06-46.39-.06h-4.49c-4.65 0-7.17 2.09-7.1 5.75s2.52 5.51 7 5.51c17.71 0 35.41.06 53.12 0 2.4 0 3.44.53 4 3a104.5 104.5 0 0 0 3.64 12.5c.82 2.33.54 3-2 3-8.23-.13-16.46-.09-24.69 0-3.65 0-5.91 2.11-6.07 5.24s2.15 5.68 5.82 6c.87.07 1.75 0 2.62 0 8.85 0 17.71.11 26.56-.07 2.64 0 3.87.85 5 3.2 38.43 79.63 137.81 109.25 213.43 63.63 3-1.8 5.87-3.75 8.74-5.73 3.94-2.73 4.88-5.75 2.87-8.74s-5.27-3.21-9.13-.62l-.93.63c-33.8 22.75-70.73 29.91-110.42 21.11-76-16.88-123.62-95-104.18-170.41A139.81 139.81 0 0 1 267 77.24c.69.17 1.37.35 2.06.54 70.35 19 114.56 90.63 100.08 162a138.94 138.94 0 0 1-37.1 70.3c-3.3 3.41-3.68 6.58-1.18 9.12s5.77 2.25 9.07-1.07c44.19-44.5 55.85-114.13 28.53-170.46ZM268.54 23.28v-9.7c0-1.51.35-2.12 2-2.25 7.21-.51 9.27 1.28 9.27 8.42 0 3 .05 6 0 9-.09 5-6.28 8.63-10.6 6.24-1-.55-.66-1.52-.67-2.33-.02-3.16 0-6.27 0-9.38ZM193.45 35c-7.28.16-8.79-1.22-8.79-8.49 0-3.11-.07-6.23 0-9.35.13-4.63 6.62-8.08 10.62-5.7 1 .58.65 1.53.66 2.35v9.39c0 3.12-.11 6.24 0 9.34.18 2-.58 2.46-2.49 2.5Zm-87.29 55.57c-.64.55-1.31 1.07-2.2 1.79a41.15 41.15 0 0 1-4.12-5c-.75-1.25 1-1.76 1.7-2.4 9.5-8.25 19.14-16.33 28.52-24.71 2.57-2.3 3.44-.66 4.82 1s2.75 2.49.24 4.57c-9.77 8.09-19.33 16.47-29 24.75Zm33.38 2.9a5.09 5.09 0 0 0-.58.46c-2.53 2-5.66 6.07-7.44 5.54-2.82-.83-4.74-4.72-7-7.35-.52-.57-1.52-1.12-.39-2.12 2.55-2.18 5.08-4.38 7.63-6.56a3.81 3.81 0 0 1 .65-.38c.77-.09 1 .59 1.4 1 2 2.25 3.86 4.55 5.86 6.77.88 1 1.27 1.8-.13 2.6Zm90.87-82.15c6.32 0 6.32-.12 6.32 6.24v6c0 3.11-.06 6.22 0 9.32 0 1.57-.48 2.08-2.11 2.19-7.07.48-7.06.54-7.06-6.55 0-4.73.11-9.46-.05-14.18 0-2.26.55-3 2.9-3Zm-16.88 23.74c-6.29-.07-6.29.07-6.29-6.18v-5.6c0-3 .13-6 0-9-.12-2.18.37-3 2.81-3 6.29 0 6.29-.1 6.29 6.21 0 4.85-.1 9.71 0 14.56.08 2.23-.4 3.04-2.81 3.01Zm28.13 26.87c-3.22-.22-6.45-.35-9.59-.52-3.08.17-6.07.27-9 .52-1.59.13-2.57 0-2.49-2 .15-3.85.11-7.72 0-11.57 0-1.62.45-2.13 2.09-2.11q9.71.12 19.41 0c1.47 0 1.92.49 1.89 1.93-.08 4-.11 8 0 11.94.03 1.88-.89 1.88-2.31 1.81Zm6.4-33.42c0-4.73.1-9.46 0-14.18-.07-2.24.54-3 2.9-3 6.34 0 6.34-.12 6.34 6.22v6c0 3.11-.06 6.22 0 9.33 0 1.59-.49 2.09-2.12 2.21-7.12.45-7.12.52-7.12-6.58Zm78.26 34.75a58.84 58.84 0 0 1 4-4.78c.8.63 1.41 1.06 2 1.54 9.81 8.42 19.54 16.94 29.46 25.22 2.53 2.11.58 3.06-.52 4.26s-1.78 3.68-4.45 1.31c-9.57-8.49-19.37-16.75-29-25.15-.71-.6-2.47-1-1.49-2.4Zm11.82 29.17c-2.08 2.11-3.69 5.61-6.09 6.22-2.18.56-4.22-3.16-6.55-4.71-.92-.61-1.74-1.38-2.85-2.28a20 20 0 0 1 1.27-1.61c2.21-2.31 3.89-6.66 6.49-6.59s4.9 3.79 7.43 5.78c1.35 1.06 1.6 1.87.3 3.19Z" transform="translate(.05 .06)"/><path class="cls-2" d="M284 255a24.22 24.22 0 0 0-2.33-2.42q-17.06-17.07-34.13-34.12a4.64 4.64 0 0 1-1.69-4.45 12.61 12.61 0 0 0-5.85-12.83 4.27 4.27 0 0 1-2.15-4.23c.12-4.86 0-9.73 0-14.59v-14.59c0-4.69-2.07-7.12-5.82-7.05-3.55.07-5.43 2.42-5.44 7 0 9.73-.05 19.46 0 29.18a4.42 4.42 0 0 1-2.16 4.25 13.68 13.68 0 0 0 11 24.63 4.24 4.24 0 0 1 4.78 1.39Q257 244 273.78 260.79a26.39 26.39 0 0 0 2.15 2.08 5.58 5.58 0 0 0 7.75-.32c2.18-2.41 2.18-5 .32-7.55Zm-52.13-40.17a2.19 2.19 0 0 1-2.14-2.22 1.63 1.63 0 0 1 0-.31A2.26 2.26 0 0 1 232 210a2.57 2.57 0 0 1 .55.06c1.51.14 2 1.22 2.2 2.46-.39 1.59-1.23 2.48-2.89 2.34Z" transform="translate(.05 .06)"/></svg>