<?xml version="1.0" encoding="utf-8"?>
<!-- Generator: Adobe Illustrator 24.1.0, SVG Export Plug-In . SVG Version: 6.00 Build 0)  -->
<svg version="1.1" id="Layer_1" xmlns="http://www.w3.org/2000/svg" xmlns:xlink="http://www.w3.org/1999/xlink" x="0px" y="0px"
	 viewBox="0 0 800 800" style="enable-background:new 0 0 800 800;" xml:space="preserve">
<style type="text/css">
	.st0{fill:#0092C9;}
	.st1{fill-rule:evenodd;clip-rule:evenodd;fill:#0084AD;}
	.st2{fill-rule:evenodd;clip-rule:evenodd;fill:#4FC3A0;}
	.st3{fill-rule:evenodd;clip-rule:evenodd;fill:#46AA89;}
	.st4{fill:#F5F5F5;}
	.st5{fill-rule:evenodd;clip-rule:evenodd;fill:#FF4B55;}
	.st6{fill-rule:evenodd;clip-rule:evenodd;fill:#41479B;}
	.st7{fill-rule:evenodd;clip-rule:evenodd;fill:#FFFFFF;}
	.st8{fill:none;stroke:#70D7A4;stroke-width:8.6825;stroke-miterlimit:10;}
	.st9{fill:none;stroke:#0090D8;stroke-width:8.6825;stroke-miterlimit:10;}
	.st10{fill:#0072BA;}
	.st11{fill:#70D7A4;}
</style>
<g>
	<circle class="st0" cx="400" cy="400" r="313.3"/>
	<path class="st1" d="M696.9,500.3c-0.7,2.1-1.3,4-2.1,6.1c-34.6,95.7-113.6,168.6-211.7,195.8l-85.7-75.8l5.1-5.5l5.4-6l5.6-6.5
		l5.9-7l6-7.3l6.1-7.7l6.2-8.1l6.4-8.3l6.4-8.7l6.5-8.9l6.5-9.2l6.5-9.3l6.4-9.5l6.4-9.7l6.2-9.8l6.1-9.9l5.9-9.9l5.8-10l5.5-10
		l5.3-10l5-9.9l4.8-9.9l4.4-9.8l4-9.7l3.7-9.5l3.3-9.3l2.8-9.2l2.4-8.9l2-8.7l1.3-8.3l0.9-8.1l0.2-7.7v-0.6v-0.6v-0.6v-0.6V343v-0.6
		v-0.6v-0.6v-0.6v-0.6v-0.6v-0.6v-0.6v-0.6v-0.6v-0.6v-0.1v-0.6v-0.6v-0.6v-0.6v-0.6v-0.6v-0.6v-0.6v-0.6V330v-0.6v-0.6v-0.6v-0.6
		v-0.6v-0.6l0,0l0,0l0,0l0,0l0,0l0,0l0,0l0,0v-0.5v-0.5v-0.5v-0.5v-0.5v-0.5l-0.1-0.5l-0.1-0.5l-0.1-0.5l-0.1-0.5l-0.1-0.5l-0.1-0.5
		l-0.1-0.5l-0.1-0.5l-0.1-0.5l-0.1-0.5l0,0l0,0l0,0l0,0l0,0l0,0l0,0l0,0L551,318l-0.1-0.5l-0.1-0.5l-0.1-0.5l-0.1-0.5l-0.1-0.5
		l-0.1-0.5l-0.1-0.5l-0.1-0.5l-0.1-0.5l-0.1-0.5l-0.1-0.5l-0.1-0.5l-0.1-0.5l-0.1-0.5l-0.1-0.5l0,0l0,0l0,0l0,0l0,0l0,0l0,0l0,0
		l-0.1-0.5l-0.1-0.5l-0.1-0.5l-0.1-0.5l-0.1-0.5l-0.1-0.5l-0.1-0.5l-0.1-0.5l-0.1-0.5l-0.1-0.5l-0.1-0.5l-0.1-0.5l-0.1-0.5l-0.1-0.5
		l-0.1-0.5l-0.1-0.5v-0.1v-0.1v-0.1v-0.1v-0.1v-0.1V302v-0.1l-0.1-0.5l-0.1-0.5l-0.1-0.5l-0.1-0.5l-0.1-0.5l-0.1-0.5l-0.1-0.5
		l-0.1-0.5l-0.1-0.5L546,297l-0.1-0.5l-0.1-0.5l-0.1-0.5l-0.1-0.5l-0.1-0.5l-0.1-0.5v-0.1v-0.1v-0.1v-0.1v-0.1v-0.1v-0.1V293
		l-0.1-0.5l-0.1-0.5l-0.1-0.5l-0.1-0.5l-0.1-0.5l-0.1-0.5l-0.1-0.5l-0.1-0.5l-0.1-0.5l-0.1-0.5l-0.1-0.5l-0.1-0.5l-0.1-0.5l-0.1-0.5
		l-0.1-0.5l-0.1-0.5v-0.1V285v-0.1v-0.1v-0.1v-0.1v-0.1v-0.1l-0.1-0.5l-0.1-0.5l-0.1-0.5l-0.1-0.5l-0.1-0.5l-0.1-0.5l-0.1-0.5
		l-0.1-0.5l-0.1-0.4l-0.1-0.4l-0.1-0.4l-0.1-0.4l-0.1-0.4l-0.1-0.4l-0.1-0.4l-0.1-0.4v-0.1v-0.1V277v-0.1v-0.1v-0.1v-0.1v-0.1
		l-0.1-0.4l-0.1-0.4l-0.1-0.4l-0.1-0.4l-0.1-0.4l-0.2-0.4l-0.2-0.4l-0.2-0.4l-0.2-0.4l-0.2-0.4l-0.2-0.4L539,272l-0.2-0.4l-0.2-0.4
		l-0.2-0.4l-0.2-0.4v-0.1v-0.1v-0.1V270v-0.1v-0.1v-0.1v-0.1l-0.2-0.4l-0.2-0.4l-0.2-0.4l-0.2-0.4l-0.2-0.4l-0.2-0.4l-0.2-0.4
		l-0.2-0.4l-0.2-0.4l-0.2-0.4l-0.2-0.4l-0.2-0.4l-0.2-0.4l-0.2-0.4l-0.2-0.4l-0.2-0.4v-0.1v-0.1v-0.1v-0.1v-0.1v-0.1v-0.1v-0.1
		l-0.2-0.4l-0.2-0.4l-0.2-0.4l-0.2-0.4l-0.2-0.4l-0.2-0.4l-0.2-0.4l-0.2-0.4l-0.2-0.4l-0.2-0.4l-0.2-0.4l-0.2-0.4l-0.2-0.4l-0.2-0.4
		l-0.2-0.4l-0.2-0.4v-0.1v-0.1v-0.1v-0.1v-0.1v-0.1V256v-0.1l-0.2-0.4l-0.2-0.4l-0.2-0.4l-0.2-0.4L529,254l-0.2-0.4l-0.2-0.4
		l-0.2-0.4l-0.2-0.4l-0.2-0.4l-0.2-0.4l-0.2-0.4l-0.2-0.4l-0.2-0.4l-0.2-0.4l-0.2-0.4v-0.1v-0.1v-0.1v-0.1v-0.1v-0.1v-0.1V249
		l-0.2-0.4l-2.4,2.1l-0.2-0.4l-0.2-0.4l-0.2-0.4l-0.2-0.4l-0.2-0.4l-0.2-0.4l-0.2-0.4l-0.2-0.4l-0.2-0.4l-0.2-0.4l-0.2-0.4l-0.2-0.4
		l-0.2-0.4l-0.2-0.4l-0.1-0.1l-0.1-0.1v0.5l-0.1-0.1l-0.1-0.1l-0.1-0.1l-0.1-0.1l-0.1-0.1l-0.2-0.4l-0.2-0.4l-0.2-0.4l-0.2-0.4
		l-0.2-0.4l-0.2-0.4l-0.2-0.4l-0.2-0.4l-0.2-0.4l-0.2-0.4l-0.2-0.4l-0.2-0.4l190.5,220.9v0.1l0,0c0,0.1,0,0.4-0.1,0.5v0.1
		c0,0.2-0.1,0.6-0.2,0.9v0.1c-0.1,0.5-0.2,0.9-0.2,1.3v0.1c-0.1,0.6-0.2,1.2-0.4,1.7v0.2c-0.1,0.7-0.4,1.5-0.5,2.2v0.2
		c-0.2,0.9-0.4,1.7-0.6,2.7l-0.1,0.2c-0.2,1.1-0.5,2.1-0.7,3.1l-0.1,0.2c-0.2,1.2-0.6,2.4-1,3.5l-0.1,0.2c-0.4,1.3-0.7,2.7-1.1,4
		l-0.1,0.2c-0.5,1.6-0.9,3.1-1.3,4.5l-0.1,0.2c-0.5,1.7-1,3.4-1.6,5.1v0.1C698.1,496.6,697.5,498.4,696.9,500.3L696.9,500.3z"/>
	<path class="st2" d="M552.4,346.5c0-3.2-0.1-6.4-0.2-9.4V337c-0.1-3.1-0.4-6.1-0.6-9.1c0-0.1,0-0.1,0-0.2c-0.2-2.9-0.6-5.8-1-8.7
		c0-0.1,0-0.2,0-0.4c-0.4-2.8-0.9-5.5-1.3-8.3c0-0.1,0-0.2-0.1-0.4c-0.5-2.7-1.1-5.3-1.7-7.8c0-0.1-0.1-0.4-0.1-0.5
		c-0.6-2.6-1.3-5-2.1-7.5c0-0.1-0.1-0.4-0.1-0.5c-0.7-2.4-1.6-4.8-2.4-7.2c-0.1-0.2-0.1-0.4-0.2-0.6c-0.9-2.3-1.7-4.7-2.7-6.9
		c-0.1-0.2-0.1-0.4-0.2-0.6c-1-2.2-2-4.4-3.1-6.5c-0.1-0.2-0.2-0.5-0.4-0.6c-1.1-2.1-2.1-4.2-3.3-6.2c-0.1-0.2-0.2-0.4-0.4-0.6
		c-1.1-2-2.3-3.9-3.5-5.9c-0.1-0.2-0.2-0.5-0.4-0.6c-1.2-2-2.4-3.8-3.8-5.6c-0.1-0.2-0.2-0.5-0.5-0.6c-1.3-1.8-2.6-3.5-4-5.3
		c-0.1-0.2-0.4-0.5-0.5-0.6c-1.3-1.7-2.8-3.4-4.2-5c-0.2-0.2-0.4-0.4-0.6-0.6c-1.5-1.6-2.9-3.2-4.4-4.7c-0.2-0.2-0.4-0.4-0.6-0.6
		c-1.5-1.5-3.1-2.9-4.7-4.4c-0.2-0.2-0.4-0.4-0.6-0.6c-1.6-1.5-3.2-2.8-4.8-4.2c-0.2-0.2-0.5-0.4-0.7-0.6c-1.6-1.3-3.3-2.6-5-3.9
		c-0.2-0.2-0.5-0.4-0.7-0.5c-1.7-1.2-3.4-2.4-5.1-3.5c-0.2-0.1-0.5-0.4-0.7-0.5c-1.7-1.1-3.5-2.2-5.3-3.3c-0.2-0.1-0.5-0.4-0.7-0.5
		c-1.8-1.1-3.5-2.1-5.4-3.1c-0.2-0.1-0.5-0.2-0.9-0.4c-1.8-1-3.7-2-5.5-2.8l-0.9-0.4c-1.8-0.9-3.8-1.7-5.6-2.6l-0.9-0.4
		c-2-0.7-3.8-1.6-5.8-2.2c-0.2-0.1-0.6-0.2-0.9-0.4c-2-0.7-3.9-1.3-5.9-2l-0.9-0.2c-2-0.6-3.9-1.2-6-1.7c-0.2-0.1-0.6-0.1-0.9-0.2
		c-2-0.5-4-1-6.1-1.5l-0.9-0.1c-2.1-0.5-4-0.9-6.1-1.2c-0.2,0-0.6-0.1-0.9-0.1c-2.1-0.4-4.2-0.6-6.2-1l-0.9-0.1
		c-2.1-0.2-4.2-0.5-6.2-0.7l-0.9-0.1c-2.1-0.1-4.2-0.4-6.4-0.4c-0.2,0-0.5,0-0.7,0c-2.1-0.1-4.3-0.1-6.4-0.1c-0.2,0-0.5,0-0.7,0
		c-0.7,0-1.5,0-2.2,0l0,0c-75.3,1.2-149.7,53.1-149.7,155.7c0,79.9,96.2,223.3,149.7,279.9C451,569.7,552.4,426.6,552.4,346.5
		L552.4,346.5z"/>
	<path class="st3" d="M397.3,190.7v435.7c53.6-56.7,155-199.8,155-279.9c0-3.2-0.1-6.4-0.2-9.4V337c-0.1-3.1-0.4-6.1-0.6-9.1v-0.2
		c-0.2-2.9-0.6-5.8-1-8.7v-0.4c-0.4-2.8-0.9-5.5-1.3-8.3l-0.1-0.4c-0.5-2.7-1.1-5.3-1.7-7.8l-0.1-0.5c-0.6-2.6-1.3-5-2.1-7.5
		l-0.1-0.5c-0.7-2.4-1.6-4.8-2.4-7.2l-0.2-0.6c-0.9-2.3-1.7-4.7-2.7-6.9l-0.2-0.6c-1-2.2-2-4.4-3.1-6.5l-0.4-0.6
		c-1.1-2.1-2.1-4.2-3.3-6.2l-0.4-0.6c-1.1-2-2.3-3.9-3.5-5.9l-0.4-0.6c-1.2-2-2.4-3.8-3.8-5.6l-0.5-0.6c-1.3-1.8-2.6-3.5-4-5.3
		l-0.5-0.6c-1.3-1.7-2.8-3.4-4.2-5l-0.6-0.6c-1.5-1.6-2.9-3.2-4.4-4.7l-0.6-0.6c-1.5-1.5-3.1-2.9-4.7-4.4l-0.6-0.6
		c-1.6-1.5-3.2-2.8-4.8-4.2l-0.7-0.6c-1.6-1.3-3.3-2.6-5-3.9l-0.7-0.5c-1.7-1.2-3.4-2.4-5.1-3.5l-0.7-0.5c-1.7-1.1-3.5-2.2-5.3-3.3
		l-0.7-0.5c-1.8-1.1-3.5-2.1-5.4-3.1l-0.9-0.4c-1.8-1-3.7-2-5.5-2.8l-0.9-0.4c-1.8-0.9-3.8-1.7-5.6-2.6l-0.9-0.4
		c-2-0.7-3.8-1.6-5.8-2.2l-0.9-0.4c-2-0.7-3.9-1.3-5.9-2l-0.9-0.2c-2-0.6-3.9-1.2-6-1.7l-0.9-0.2c-2-0.5-4-1-6.1-1.5l-0.9-0.1
		c-2.1-0.5-4-0.9-6.1-1.2l-0.9-0.1c-2.1-0.4-4.2-0.6-6.2-1l-0.9-0.1c-2.1-0.2-4.2-0.5-6.2-0.7l-0.9-0.1c-2.1-0.1-4.2-0.4-6.4-0.4
		h-0.7c-2.1-0.1-4.3-0.1-6.4-0.1c-0.2,0-0.5,0-0.7,0C398.8,190.7,398,190.7,397.3,190.7L397.3,190.7z"/>
	
		<ellipse transform="matrix(0.7071 -0.7071 0.7071 0.7071 -120.5807 381.3402)" class="st4" cx="400" cy="336.2" rx="107.9" ry="107.9"/>
	<g>
		<path class="st5" d="M385.2,450.1c-0.9-0.1-1.7-0.2-2.6-0.4C383.5,449.8,384.3,449.9,385.2,450.1z"/>
		<path class="st5" d="M388.1,450.4c-0.9-0.1-1.7-0.2-2.6-0.2C386.4,450.2,387.3,450.3,388.1,450.4z"/>
		<path class="st5" d="M391.1,450.7c-1-0.1-1.8-0.1-2.8-0.2C389.2,450.5,390.2,450.7,391.1,450.7z"/>
		<path class="st5" d="M394,450.9c-0.9,0-1.8-0.1-2.7-0.1C392.2,450.8,393,450.8,394,450.9z"/>
		<path class="st5" d="M396.9,451c-0.9,0-1.7,0-2.7-0.1C395.1,450.9,396,450.9,396.9,451z"/>
		<path class="st5" d="M402.8,451c-1,0-2,0-2.8,0c-1,0-2,0-2.8,0c1,0,2,0,2.8,0C401,451,402,451,402.8,451z"/>
		<path class="st5" d="M405.8,450.9c-0.9,0-1.7,0.1-2.7,0.1C404,450.9,404.9,450.9,405.8,450.9z"/>
		<path class="st5" d="M408.7,450.7c-0.9,0.1-1.8,0.1-2.7,0.1C407,450.8,407.8,450.8,408.7,450.7z"/>
		<path class="st5" d="M411.6,450.4c-1,0.1-1.8,0.1-2.8,0.2C409.8,450.7,410.8,450.5,411.6,450.4z"/>
		<path class="st5" d="M338.7,425.1h122.5C424.4,450.5,375.6,450.5,338.7,425.1L338.7,425.1z"/>
		<path class="st5" d="M461.3,247.4H388V229c4-0.5,8-0.6,12-0.6C421.9,228.3,443.2,234.9,461.3,247.4z"/>
		<path class="st5" d="M303.3,384.1h193.4c-4.9,9.9-11.4,19.1-19.1,27H322.4C314.7,403.2,308.2,394,303.3,384.1L303.3,384.1z"/>
		<path class="st5" d="M502.4,370.3H297.6c-2.9-8.8-4.7-17.9-5.3-27h215.4C507.1,352.4,505.4,361.5,502.4,370.3z"/>
		<path class="st5" d="M388,302.2h114.4c2.9,8.8,4.7,17.9,5.3,27H388V302.2z"/>
		<path class="st5" d="M496.7,288.3H387.9v-27h89.7C485.3,269.3,491.8,278.4,496.7,288.3z"/>
		<path class="st6" d="M374.1,231.5v97.8h-81.7C295.4,282.3,328.4,242.7,374.1,231.5z"/>
		<path class="st7" d="M366,233.8l0.7,2.1c0,0.1,0,0.2-0.1,0.2h-0.1l-2.3-1.7C364.8,234.2,365.4,233.9,366,233.8z"/>
		<path class="st7" d="M353.9,238.6L353.9,238.6c0,0.1,0,0.2,0,0.2l-4.2,3.1c-0.1,0-0.1,0.1-0.1,0.2l1.6,4.9c0,0.1,0,0.1-0.1,0.2
			c-0.1,0-0.1,0-0.2,0l-4.2-3.1c-0.1,0-0.1,0-0.2,0l-4.2,3.1c-0.1,0-0.2,0-0.2,0v-0.1l0.7-2.3C346.4,242.5,350.1,240.4,353.9,238.6z
			"/>
		<path class="st7" d="M335.5,249.6h2.7c0.1,0,0.2,0.1,0.2,0.2c0,0,0,0.1-0.1,0.1l-4.2,3.1c-0.1,0-0.1,0.1-0.1,0.2l1.6,4.9
			c0,0.1,0,0.2-0.1,0.2h-0.1l-4.2-3.1c-0.1,0-0.1,0-0.2,0l-4.2,3.1c-0.1,0-0.2,0-0.2,0v-0.1l0.5-1.3
			C329.8,254.3,332.6,251.9,335.5,249.6L335.5,249.6z"/>
		<path class="st7" d="M318.9,265.1l1.3,4.2c0,0.1,0,0.2-0.1,0.2H320l-2.9-2.2C317.5,266.6,318.1,265.9,318.9,265.1L318.9,265.1z"/>
		<path class="st7" d="M365.9,240.8l1.6,4.9c0,0.1,0.1,0.1,0.1,0.1h5.1c0.1,0,0.2,0.1,0.2,0.2c0,0,0,0.1-0.1,0.1l-4.2,3.1
			c-0.1,0-0.1,0.1-0.1,0.2l1.6,4.9c0,0.1,0,0.2-0.1,0.2h-0.1l-4.2-3.1c-0.1,0-0.1,0-0.2,0l-4.2,3.1c-0.1,0-0.2,0-0.2,0v-0.1l1.6-4.9
			c0-0.1,0-0.1-0.1-0.2l-4.2-3.1c-0.1,0-0.1-0.1,0-0.2l0.1-0.1h5.1c0.1,0,0.1,0,0.1-0.1l1.6-4.9c0-0.1,0.1-0.1,0.2-0.1
			C365.7,240.7,365.7,240.7,365.9,240.8L365.9,240.8z"/>
		<path class="st7" d="M351.7,253.6l1.6,4.9c0,0.1,0.1,0.1,0.1,0.1h5.1c0.1,0,0.1,0,0.1,0.1c0,0.1,0,0.1-0.1,0.2l-4.2,3.1
			c-0.1,0-0.1,0.1-0.1,0.2l1.6,4.9c0,0.1,0,0.2-0.1,0.2h-0.1l-4.2-3.1c-0.1,0-0.1,0-0.2,0l-4.2,3.1c-0.1,0-0.2,0-0.2,0v-0.1l1.6-4.9
			c0-0.1,0-0.1-0.1-0.2l-4.2-3.1c-0.1,0-0.1-0.1,0-0.2l0.1-0.1h5.1c0.1,0,0.1,0,0.1-0.1l1.6-4.9c0-0.1,0.1-0.1,0.1-0.1
			C351.5,253.5,351.5,253.5,351.7,253.6L351.7,253.6z"/>
		<path class="st7" d="M336.2,262.7l1.6,4.9c0,0.1,0.1,0.1,0.1,0.1h5.1c0.1,0,0.1,0,0.1,0.1s0,0.1-0.1,0.2l-4.2,3.1
			c-0.1,0-0.1,0.1-0.1,0.2l1.6,4.9c0,0.1,0,0.1-0.1,0.2c-0.1,0-0.1,0-0.2,0l-4.2-3.1c-0.1,0-0.1,0-0.2,0l-4.2,3.1
			c-0.1,0-0.1,0-0.2,0s-0.1-0.1-0.1-0.2l1.6-4.9c0-0.1,0-0.1-0.1-0.2l-4.2-3.1c-0.1,0-0.1-0.1-0.1-0.2s0.1-0.1,0.1-0.1h5.1
			c0.1,0,0.1,0,0.1-0.1l1.6-4.9C335.9,262.6,336,262.6,336.2,262.7C336.1,262.6,336.2,262.7,336.2,262.7L336.2,262.7z"/>
		<path class="st7" d="M322.2,275.9l1.6,4.9c0,0.1,0.1,0.1,0.1,0.1h5.1c0.1,0,0.1,0,0.1,0.1c0,0.1,0,0.1-0.1,0.2l-4.2,3.1
			c-0.1,0-0.1,0.1-0.1,0.2l1.6,4.9c0,0.1,0,0.2-0.1,0.2h-0.1l-4.2-3.1c-0.1,0-0.1,0-0.2,0l-4.2,3.1c-0.1,0-0.2,0-0.2,0v-0.1l1.6-4.9
			c0-0.1,0-0.1-0.1-0.2l-4.2-3.1c-0.1,0-0.1-0.1,0-0.2l0.1-0.1h5.1c0.1,0,0.1,0,0.1-0.1l1.6-4.9c0-0.1,0.1-0.1,0.1-0.1
			C322,275.8,322.2,275.8,322.2,275.9L322.2,275.9z"/>
		<path class="st7" d="M308.1,288.5l1.6,4.9c0,0.1,0.1,0.1,0.1,0.1h5.1c0.1,0,0.2,0.1,0.2,0.2c0,0,0,0.1-0.1,0.1l-4.2,3.1
			c-0.1,0-0.1,0.1-0.1,0.2l1.6,4.9c0,0.1,0,0.2-0.1,0.2h-0.1l-4.2-3.1c-0.1,0-0.1,0-0.2,0l-4.2,3.1c-0.1,0-0.2,0-0.2,0v-0.1l1.6-4.9
			c0-0.1,0-0.1-0.1-0.2l-4.2-3.1c0-0.1,0.1-0.2,0.1-0.4h5.1c0.1,0,0.1,0,0.1-0.1l1.6-4.9c0-0.1,0.1-0.1,0.1-0.1
			C308,288.4,308.1,288.4,308.1,288.5L308.1,288.5z"/>
		<path class="st7" d="M294.3,314.3l0.2,0.6c0,0.1,0,0.2-0.1,0.2h-0.1l-0.1-0.1C294.1,314.8,294.3,314.6,294.3,314.3z"/>
		<path class="st7" d="M296.2,306.5h0.9c0.1,0,0.2,0.1,0.2,0.2c0,0,0,0.1-0.1,0.1l-1.3,1C296,307.4,296.1,306.9,296.2,306.5z"/>
		<path class="st7" d="M363.2,267.8l1.6,4.9c0,0.1,0.1,0.1,0.1,0.1h5.1c0.1,0,0.2,0.1,0.2,0.2c0,0,0,0.1-0.1,0.1l-4.2,3.1
			c-0.1,0-0.1,0.1-0.1,0.2l1.6,4.9c0,0.1,0,0.2-0.1,0.2h-0.1l-4.2-3.1c-0.1,0-0.1,0-0.2,0l-4.2,3.1c-0.1,0-0.2,0-0.2,0v-0.1l1.6-4.9
			c0-0.1,0-0.1-0.1-0.2l-4.2-3.1c-0.1,0-0.1-0.1,0-0.2l0.1-0.1h5.1c0.1,0,0.1,0,0.1-0.1l1.6-4.9
			C362.8,267.7,362.9,267.6,363.2,267.8C363,267.7,363.2,267.7,363.2,267.8L363.2,267.8z"/>
		<path class="st7" d="M348.2,279.2l1.6,4.9c0,0.1,0.1,0.1,0.1,0.1h5.1c0.1,0,0.2,0.1,0.2,0.2c0,0,0,0.1-0.1,0.1l-4.2,3.1
			c-0.1,0-0.1,0.1-0.1,0.2l1.6,4.9c0,0.1,0,0.2-0.1,0.2h-0.1l-4.2-3.1c-0.1,0-0.1,0-0.2,0l-4.2,3.1c-0.1,0-0.2,0-0.2,0v-0.1l1.6-4.9
			c0-0.1,0-0.1-0.1-0.2l-4.2-3.1c-0.1,0-0.1-0.1-0.1-0.2s0.1-0.1,0.1-0.1h5.1c0.1,0,0.1,0,0.1-0.1l1.6-4.9c0-0.1,0.1-0.1,0.2-0.1
			C348.1,279.1,348.2,279.1,348.2,279.2L348.2,279.2z"/>
		<path class="st7" d="M333.3,290.6l1.6,4.9c0,0.1,0.1,0.1,0.1,0.1h5.1c0.1,0,0.2,0.1,0.2,0.2c0,0,0,0.1-0.1,0.1l-4.2,3.1
			c-0.1,0-0.1,0.1-0.1,0.2l1.6,4.9c0,0.1,0,0.2-0.1,0.2h-0.1l-4.2-3.1c-0.1,0-0.1,0-0.2,0l-4.2,3.1c-0.1,0-0.2,0-0.2,0v-0.1l1.6-4.9
			c0-0.1,0-0.1-0.1-0.2l-4.2-3.1c-0.1-0.1-0.1-0.1,0-0.2l0.1-0.1h5.1c0.1,0,0.1,0,0.1-0.1l1.6-4.9c0-0.1,0.1-0.1,0.2-0.1
			C333.3,290.5,333.3,290.5,333.3,290.6L333.3,290.6z"/>
		<path class="st7" d="M318.5,302l1.6,4.9c0,0.1,0.1,0.1,0.1,0.1h5.1c0.1,0,0.1,0,0.1,0.1s0,0.1-0.1,0.2l-4.2,3.1
			c-0.1,0-0.1,0.1-0.1,0.2l1.6,4.9c0,0.1,0,0.1-0.1,0.2c-0.1,0-0.1,0-0.2,0l-4.2-3.1c-0.1,0-0.1,0-0.2,0l-4.2,3.1
			c-0.1,0-0.1,0-0.2,0s-0.1-0.1-0.1-0.2l1.6-4.9c0-0.1,0-0.1-0.1-0.2l-4.2-3.1c-0.1,0-0.1-0.1-0.1-0.2s0.1-0.1,0.1-0.1h5.1
			c0.1,0,0.1,0,0.1-0.1l1.6-4.9C318.1,301.9,318.3,301.9,318.5,302C318.4,301.9,318.4,302,318.5,302L318.5,302z"/>
		<path class="st7" d="M303.6,313.4l1.6,4.9c0,0.1,0.1,0.1,0.1,0.1h5.1c0.1,0,0.2,0.1,0.2,0.2c0,0,0,0.1-0.1,0.1l-4.2,3.1
			c-0.1,0-0.1,0.1-0.1,0.2l1.6,4.9c0,0.1,0,0.2-0.1,0.2h-0.1l-4.2-3.1c-0.1,0-0.1,0-0.2,0l-4.2,3.1c-0.1,0-0.2,0-0.2,0v-0.1l1.6-4.9
			c0-0.1,0-0.1-0.1-0.2l-4.2-3.1c-0.1,0-0.1-0.1,0-0.2l0.1-0.1h5.1c0.1,0,0.1,0,0.1-0.1l1.6-4.9
			C303.2,313.2,303.3,313.2,303.6,313.4C303.4,313.2,303.6,313.4,303.6,313.4L303.6,313.4z"/>
		<path class="st7" d="M362.9,293.5l1.6,4.9c0,0.1,0.1,0.1,0.1,0.1h5.1c0.1,0,0.1,0,0.1,0.1s0,0.1-0.1,0.2l-4.2,3.1
			c-0.1,0-0.1,0.1-0.1,0.2l1.6,4.9c0,0.1,0,0.2-0.1,0.2h-0.1l-4.2-3.1c-0.1,0-0.1,0-0.2,0l-4.2,3.1c-0.1,0-0.2,0-0.2,0v-0.1l1.6-4.9
			c0-0.1,0-0.1-0.1-0.2l-4.2-3.1c-0.1,0-0.1-0.1,0-0.2l0.1-0.1h5.1c0.1,0,0.1,0,0.1-0.1l1.6-4.9c0-0.1,0.1-0.1,0.2-0.1
			C362.8,293.4,362.9,293.5,362.9,293.5L362.9,293.5z"/>
		<path class="st7" d="M349.1,304.8l1.6,4.9c0,0.1,0.1,0.1,0.1,0.1h5.1c0.1,0,0.1,0,0.1,0.1c0,0.1,0,0.1-0.1,0.2l-4.2,3.1
			c-0.1,0-0.1,0.1-0.1,0.2l1.6,4.9c0,0.1,0,0.2-0.1,0.2H353l-4.2-3.1c-0.1,0-0.1,0-0.2,0l-4.2,3.1c-0.1,0-0.2,0-0.2,0v-0.1l1.6-4.9
			c0-0.1,0-0.1-0.1-0.2l-4.2-3.1c-0.1,0-0.1-0.1-0.1-0.2s0.1-0.1,0.1-0.1h5.1c0.1,0,0.1,0,0.1-0.1l1.6-4.9c0-0.1,0.1-0.1,0.2-0.1
			C349.1,304.8,349.1,304.8,349.1,304.8L349.1,304.8z"/>
		<path class="st7" d="M332.7,312.7l1.6,4.9c0,0.1,0.1,0.1,0.1,0.1h5.1c0.1,0,0.2,0.1,0.2,0.2c0,0,0,0.1-0.1,0.1l-4.2,3.1
			c-0.1,0-0.1,0.1-0.1,0.2l1.6,4.9c0,0.1,0,0.2-0.1,0.2h-0.1l-4.2-3.1c-0.1,0-0.1,0-0.2,0l-4.2,3.1c-0.1,0-0.2,0-0.2,0v-0.1l1.6-4.9
			c0-0.1,0-0.1-0.1-0.2l-4.2-3.1c-0.1,0-0.1-0.1,0-0.2l0.1-0.1h5.1c0.1,0,0.1,0,0.1-0.1l1.6-4.9c0-0.1,0.1-0.1,0.1-0.1
			C332.6,312.6,332.7,312.7,332.7,312.7L332.7,312.7z"/>
		<path class="st7" d="M363.8,312.4l1.6,4.9c0,0.1,0.1,0.1,0.1,0.1h5.1c0.1,0,0.1,0,0.1,0.1s0,0.1-0.1,0.2l-4.2,3.1
			c-0.1,0-0.1,0.1-0.1,0.2l1.6,4.9c0,0.1,0,0.2-0.1,0.2h-0.1l-4.2-3.1c-0.1,0-0.1,0-0.2,0l-4.2,3.1c-0.1,0-0.2,0-0.2,0v-0.1l1.6-4.9
			c0-0.1,0-0.1-0.1-0.2l-4.2-3.1c-0.1,0-0.1-0.1,0-0.2l0.1-0.1h5.1c0.1,0,0.1,0,0.1-0.1l1.6-4.9
			C363.4,312.4,363.5,312.3,363.8,312.4C363.7,312.4,363.7,312.4,363.8,312.4L363.8,312.4z"/>
	</g>
</g>
<g>
	<path class="st8" d="M24,319.4c38.5-172.8,192.8-302,377.2-302c181.9,0,334.4,125.6,375.5,294.9"/>
	<path class="st9" d="M88.1,607c-91.9-144.6-74.7-338.6,51.5-464.8C264,17.8,454.4-0.6,598.3,87"/>
	<path class="st8" d="M712.5,197.4C804.4,342,787.2,536,661,662.2C536.6,786.6,346.2,805,202.3,717.4"/>
	<path class="st9" d="M776.8,484.6c-38.5,172.8-192.8,302-377.2,302C217.7,786.6,65.1,661,24,491.7"/>
	<circle class="st10" cx="669.9" cy="126" r="42.5"/>
	<circle class="st11" cx="125.1" cy="670.8" r="42.5"/>
</g>
</svg>
