<svg version="1.1" id="Layer_1" xmlns="http://www.w3.org/2000/svg" x="0" y="0" viewBox="0 0 800 800" style="enable-background:new 0 0 800 800" xml:space="preserve"><style>.st5,.st7{fill-rule:evenodd;clip-rule:evenodd;fill:#ff4b55}.st7{fill:#fff}.st9{fill:none;stroke:#0090d8;stroke-width:12.6169;stroke-miterlimit:10}</style><circle cx="400" cy="400" r="313.3" style="fill:#0092c9"/><path d="M696.9 500.3c-.7 2.1-1.3 4-2.1 6.1-34.6 95.7-113.6 168.6-211.7 195.8l-85.7-75.8 5.1-5.5 5.4-6 5.6-6.5 5.9-7 6-7.3 6.1-7.7 6.2-8.1 6.4-8.3 6.4-8.7 6.5-8.9 6.5-9.2 6.5-9.3 6.4-9.5 6.4-9.7 6.2-9.8 6.1-9.9 5.9-9.9 5.8-10 5.5-10 5.3-10 5-9.9 4.8-9.9 4.4-9.8 4-9.7 3.7-9.5 3.3-9.3 2.8-9.2 2.4-8.9 2-8.7 1.3-8.3.9-8.1.2-7.7V323.4l-.1-.5-.1-.5-.1-.5-.1-.5-.1-.5-.1-.5-.1-.5-.1-.5-.1-.5-.1-.5-.4-.4-.1-.5-.1-.5-.1-.5-.1-.5-.1-.5-.1-.5-.1-.5-.1-.5-.1-.5-.1-.5-.1-.5-.1-.5-.1-.5-.1-.5-.1-.5-.1-.5-.1-.5-.1-.5-.1-.5-.1-.5-.1-.5-.1-.5-.1-.5-.1-.5-.1-.5-.1-.5-.1-.5-.1-.5-.1-.5-.1-.5-.1-.5v-.6.1-.1l-.1-.5-.1-.5-.1-.5-.1-.5-.1-.5-.1-.5-.1-.5-.1-.5-.1-.5-1-.4-.1-.5-.1-.5-.1-.5-.1-.5-.1-.5-.1-.5v-1l-.1-.5-.1-.5-.1-.5-.1-.5-.1-.5-.1-.5-.1-.5-.1-.5-.1-.5-.1-.5-.1-.5-.1-.5-.1-.5-.1-.5-.1-.5-.1-.5v-.1.1-.6l-.1-.5-.1-.5-.1-.5-.1-.5-.1-.5-.1-.5-.1-.5-.1-.5-.1-.4-.1-.4-.1-.4-.1-.4-.1-.4-.1-.4-.1-.4-.1-.4v-.7l-.1-.4-.1-.4-.1-.4-.1-.4-.1-.4-.2-.4-.2-.4-.2-.4-.2-.4-.2-.4-.2-.4-1.5-.1-.2-.4-.2-.4-.2-.4-.2-.4V269.6l-.2-.4-.2-.4-.2-.4-.2-.4-.2-.4-.2-.4-.2-.4-.2-.4-.2-.4-.2-.4-.2-.4-.2-.4-.2-.4-.2-.4-.2-.4-.2-.4V262.4l-.2-.4-.2-.4-.2-.4-.2-.4-.2-.4-.2-.4-.2-.4-.2-.4-.2-.4-.2-.4-.2-.4-.2-.4-.2-.4-.2-.4-.2-.4-.2-.4v-.6.6-.1l-.2-.4-.2-.4-.2-.4-.2-.4-2-.3-.2-.4-.2-.4-.2-.4-.2-.4-.2-.4-.2-.4-.2-.4-.2-.4-.2-.4-.2-.4-.2-.4v-.7.1l-.2-.4-2.4 2.1-.2-.4-.2-.4-.2-.4-.2-.4-.2-.4-.2-.4-.2-.4-.2-.4-.2-.4-.2-.4-.2-.4-.2-.4-.2-.4-.2-.4-.1-.1-.1-.1v.5l-.1-.1-.1-.1-.1-.1-.1-.1-.1-.1-.2-.4-.2-.4-.2-.4-.2-.4-.2-.4-.2-.4-.2-.4-.2-.4-.2-.4-.2-.4-.2-.4-.2-.4L708.8 461v.1c0 .1 0 .4-.1.5v.1c0 .2-.1.6-.2.9v.1c-.1.5-.2.9-.2 1.3v.1c-.1.6-.2 1.2-.4 1.7v.2c-.1.7-.4 1.5-.5 2.2v.2c-.2.9-.4 1.7-.6 2.7l-.1.2c-.2 1.1-.5 2.1-.7 3.1l-.1.2c-.2 1.2-.6 2.4-1 3.5l-.1.2c-.4 1.3-.7 2.7-1.1 4l-.1.2c-.5 1.6-.9 3.1-1.3 4.5l-.1.2c-.5 1.7-1 3.4-1.6 5.1v.1c-2.5 4.2-3.1 6-3.7 7.9z" style="fill-rule:evenodd;clip-rule:evenodd;fill:#0084ad"/><path d="M552.4 346.5c0-3.2-.1-6.4-.2-9.4v-.1c-.1-3.1-.4-6.1-.6-9.1v-.2c-.2-2.9-.6-5.8-1-8.7v-.4c-.4-2.8-.9-5.5-1.3-8.3 0-.1 0-.2-.1-.4-.5-2.7-1.1-5.3-1.7-7.8 0-.1-.1-.4-.1-.5-.6-2.6-1.3-5-2.1-7.5 0-.1-.1-.4-.1-.5-.7-2.4-1.6-4.8-2.4-7.2-.1-.2-.1-.4-.2-.6-.9-2.3-1.7-4.7-2.7-6.9-.1-.2-.1-.4-.2-.6-1-2.2-2-4.4-3.1-6.5-.1-.2-.2-.5-.4-.6-1.1-2.1-2.1-4.2-3.3-6.2-.1-.2-.2-.4-.4-.6-1.1-2-2.3-3.9-3.5-5.9-.1-.2-.2-.5-.4-.6-1.2-2-2.4-3.8-3.8-5.6-.1-.2-.2-.5-.5-.6-1.3-1.8-2.6-3.5-4-5.3-.1-.2-.4-.5-.5-.6-1.3-1.7-2.8-3.4-4.2-5l-.6-.6c-1.5-1.6-2.9-3.2-4.4-4.7l-.6-.6c-1.5-1.5-3.1-2.9-4.7-4.4l-.6-.6c-1.6-1.5-3.2-2.8-4.8-4.2-.2-.2-.5-.4-.7-.6-1.6-1.3-3.3-2.6-5-3.9-.2-.2-.5-.4-.7-.5-1.7-1.2-3.4-2.4-5.1-3.5-.2-.1-.5-.4-.7-.5-1.7-1.1-3.5-2.2-5.3-3.3-.2-.1-.5-.4-.7-.5-1.8-1.1-3.5-2.1-5.4-3.1-.2-.1-.5-.2-.9-.4-1.8-1-3.7-2-5.5-2.8l-.9-.4c-1.8-.9-3.8-1.7-5.6-2.6l-.9-.4c-2-.7-3.8-1.6-5.8-2.2-.2-.1-.6-.2-.9-.4-2-.7-3.9-1.3-5.9-2l-.9-.2c-2-.6-3.9-1.2-6-1.7-.2-.1-.6-.1-.9-.2-2-.5-4-1-6.1-1.5l-.9-.1c-2.1-.5-4-.9-6.1-1.2-.2 0-.6-.1-.9-.1-2.1-.4-4.2-.6-6.2-1l-.9-.1c-2.1-.2-4.2-.5-6.2-.7l-.9-.1c-2.1-.1-4.2-.4-6.4-.4h-.7c-2.1-.1-4.3-.1-6.4-.1H397.5c-75.3 1.2-149.7 53.1-149.7 155.7 0 79.9 96.2 223.3 149.7 279.9 53.5-57.1 154.9-200.2 154.9-280.3z" style="fill-rule:evenodd;clip-rule:evenodd;fill:#4fc3a0"/><path d="M397.3 190.7v435.7c53.6-56.7 155-199.8 155-279.9 0-3.2-.1-6.4-.2-9.4v-.1c-.1-3.1-.4-6.1-.6-9.1v-.2c-.2-2.9-.6-5.8-1-8.7v-.4c-.4-2.8-.9-5.5-1.3-8.3l-.1-.4c-.5-2.7-1.1-5.3-1.7-7.8l-.1-.5c-.6-2.6-1.3-5-2.1-7.5l-.1-.5c-.7-2.4-1.6-4.8-2.4-7.2l-.2-.6c-.9-2.3-1.7-4.7-2.7-6.9l-.2-.6c-1-2.2-2-4.4-3.1-6.5l-.4-.6c-1.1-2.1-2.1-4.2-3.3-6.2l-.4-.6c-1.1-2-2.3-3.9-3.5-5.9l-.4-.6c-1.2-2-2.4-3.8-3.8-5.6l-.5-.6c-1.3-1.8-2.6-3.5-4-5.3l-.5-.6c-1.3-1.7-2.8-3.4-4.2-5l-.6-.6c-1.5-1.6-2.9-3.2-4.4-4.7l-.6-.6c-1.5-1.5-3.1-2.9-4.7-4.4l-.6-.6c-1.6-1.5-3.2-2.8-4.8-4.2l-.7-.6c-1.6-1.3-3.3-2.6-5-3.9l-.7-.5c-1.7-1.2-3.4-2.4-5.1-3.5l-.7-.5c-1.7-1.1-3.5-2.2-5.3-3.3l-.7-.5c-1.8-1.1-3.5-2.1-5.4-3.1l-.9-.4c-1.8-1-3.7-2-5.5-2.8l-.9-.4c-1.8-.9-3.8-1.7-5.6-2.6l-.9-.4c-2-.7-3.8-1.6-5.8-2.2l-.9-.4c-2-.7-3.9-1.3-5.9-2l-.9-.2c-2-.6-3.9-1.2-6-1.7l-.9-.2c-2-.5-4-1-6.1-1.5l-.9-.1c-2.1-.5-4-.9-6.1-1.2l-.9-.1c-2.1-.4-4.2-.6-6.2-1l-.9-.1c-2.1-.2-4.2-.5-6.2-.7l-.9-.1c-2.1-.1-4.2-.4-6.4-.4h-.7c-2.1-.1-4.3-.1-6.4-.1h-.7c-.8-.5-1.6-.5-2.3-.5z" style="fill-rule:evenodd;clip-rule:evenodd;fill:#46aa89"/><circle cx="400" cy="336.2" style="fill:#f5f5f5" r="107.9"/><path class="st5" d="M385.2 450.1c-.9-.1-1.7-.2-2.6-.4.9.1 1.7.2 2.6.4zM388.1 450.4c-.9-.1-1.7-.2-2.6-.2.9 0 1.8.1 2.6.2zM391.1 450.7c-1-.1-1.8-.1-2.8-.2.9 0 1.9.2 2.8.2zM394 450.9c-.9 0-1.8-.1-2.7-.1.9 0 1.7 0 2.7.1zM396.9 451c-.9 0-1.7 0-2.7-.1.9 0 1.8 0 2.7.1zM402.8 451h-5.6 5.6zM405.8 450.9c-.9 0-1.7.1-2.7.1.9-.1 1.8-.1 2.7-.1zM408.7 450.7c-.9.1-1.8.1-2.7.1 1 0 1.8 0 2.7-.1zM411.6 450.4c-1 .1-1.8.1-2.8.2 1 .1 2-.1 2.8-.2zM338.7 425.1h122.5c-36.8 25.4-85.6 25.4-122.5 0zM461.3 247.4H388V229c4-.5 8-.6 12-.6 21.9-.1 43.2 6.5 61.3 19zM303.3 384.1h193.4c-4.9 9.9-11.4 19.1-19.1 27H322.4c-7.7-7.9-14.2-17.1-19.1-27zM502.4 370.3H297.6c-2.9-8.8-4.7-17.9-5.3-27h215.4c-.6 9.1-2.3 18.2-5.3 27zM388 302.2h114.4c2.9 8.8 4.7 17.9 5.3 27H388v-27zM496.7 288.3H387.9v-27h89.7c7.7 8 14.2 17.1 19.1 27z"/><path d="M374.1 231.5v97.8h-81.7c3-47 36-86.6 81.7-97.8z" style="fill-rule:evenodd;clip-rule:evenodd;fill:#41479b"/><path class="st7" d="m366 233.8.7 2.1c0 .1 0 .2-.1.2h-.1l-2.3-1.7c.6-.2 1.2-.5 1.8-.6zM353.9 238.6v.2l-4.2 3.1c-.1 0-.1.1-.1.2l1.6 4.9c0 .1 0 .1-.1.2h-.2l-4.2-3.1h-.2l-4.2 3.1h-.2v-.1l.7-2.3c3.6-2.3 7.3-4.4 11.1-6.2zM335.5 249.6h2.7c.1 0 .2.1.2.2 0 0 0 .1-.1.1l-4.2 3.1c-.1 0-.1.1-.1.2l1.6 4.9c0 .1 0 .2-.1.2h-.1l-4.2-3.1h-.2l-4.2 3.1h-.2v-.1l.5-1.3c2.7-2.6 5.5-5 8.4-7.3zM318.9 265.1l1.3 4.2c0 .1 0 .2-.1.2h-.1l-2.9-2.2c.4-.7 1-1.4 1.8-2.2zM365.9 240.8l1.6 4.9c0 .1.1.1.1.1h5.1c.1 0 .2.1.2.2 0 0 0 .1-.1.1l-4.2 3.1c-.1 0-.1.1-.1.2l1.6 4.9c0 .1 0 .2-.1.2h-.1l-4.2-3.1h-.2l-4.2 3.1h-.2v-.1l1.6-4.9c0-.1 0-.1-.1-.2l-4.2-3.1c-.1 0-.1-.1 0-.2l.1-.1h5.1c.1 0 .1 0 .1-.1l1.6-4.9c0-.1.1-.1.2-.1.2-.1.2-.1.4 0zM351.7 253.6l1.6 4.9c0 .1.1.1.1.1h5.1c.1 0 .1 0 .1.1s0 .1-.1.2l-4.2 3.1c-.1 0-.1.1-.1.2l1.6 4.9c0 .1 0 .2-.1.2h-.1l-4.2-3.1h-.2l-4.2 3.1h-.2v-.1l1.6-4.9c0-.1 0-.1-.1-.2l-4.2-3.1c-.1 0-.1-.1 0-.2l.1-.1h5.1c.1 0 .1 0 .1-.1l1.6-4.9c0-.1.1-.1.1-.1.4-.1.4-.1.6 0zM336.2 262.7l1.6 4.9c0 .1.1.1.1.1h5.1c.1 0 .1 0 .1.1s0 .1-.1.2l-4.2 3.1c-.1 0-.1.1-.1.2l1.6 4.9c0 .1 0 .1-.1.2h-.2l-4.2-3.1h-.2l-4.2 3.1h-.2c-.1 0-.1-.1-.1-.2l1.6-4.9c0-.1 0-.1-.1-.2l-4.2-3.1c-.1 0-.1-.1-.1-.2s.1-.1.1-.1h5.1c.1 0 .1 0 .1-.1l1.6-4.9c.7-.1.8-.1 1 0-.1-.1 0 0 0 0zM322.2 275.9l1.6 4.9c0 .1.1.1.1.1h5.1c.1 0 .1 0 .1.1s0 .1-.1.2l-4.2 3.1c-.1 0-.1.1-.1.2l1.6 4.9c0 .1 0 .2-.1.2h-.1l-4.2-3.1h-.2l-4.2 3.1h-.2v-.1l1.6-4.9c0-.1 0-.1-.1-.2l-4.2-3.1c-.1 0-.1-.1 0-.2l.1-.1h5.1c.1 0 .1 0 .1-.1l1.6-4.9c0-.1.1-.1.1-.1.4-.1.6-.1.6 0zM308.1 288.5l1.6 4.9c0 .1.1.1.1.1h5.1c.1 0 .2.1.2.2 0 0 0 .1-.1.1l-4.2 3.1c-.1 0-.1.1-.1.2l1.6 4.9c0 .1 0 .2-.1.2h-.1l-4.2-3.1h-.2l-4.2 3.1h-.2v-.1l1.6-4.9c0-.1 0-.1-.1-.2l-4.2-3.1c0-.1.1-.2.1-.4h5.1c.1 0 .1 0 .1-.1l1.6-4.9c0-.1.1-.1.1-.1.4 0 .5 0 .5.1zM294.3 314.3l.2.6c0 .1 0 .2-.1.2h-.1l-.1-.1c-.1-.2.1-.4.1-.7zM296.2 306.5h.9c.1 0 .2.1.2.2 0 0 0 .1-.1.1l-1.3 1c.1-.4.2-.9.3-1.3zM363.2 267.8l1.6 4.9c0 .1.1.1.1.1h5.1c.1 0 .2.1.2.2 0 0 0 .1-.1.1l-4.2 3.1c-.1 0-.1.1-.1.2l1.6 4.9c0 .1 0 .2-.1.2h-.1l-4.2-3.1h-.2l-4.2 3.1h-.2v-.1l1.6-4.9c0-.1 0-.1-.1-.2l-4.2-3.1c-.1 0-.1-.1 0-.2l.1-.1h5.1c.1 0 .1 0 .1-.1l1.6-4.9c.2-.2.3-.3.6-.1-.2-.1 0-.1 0 0zM348.2 279.2l1.6 4.9c0 .1.1.1.1.1h5.1c.1 0 .2.1.2.2 0 0 0 .1-.1.1l-4.2 3.1c-.1 0-.1.1-.1.2l1.6 4.9c0 .1 0 .2-.1.2h-.1l-4.2-3.1h-.2l-4.2 3.1h-.2v-.1l1.6-4.9c0-.1 0-.1-.1-.2l-4.2-3.1c-.1 0-.1-.1-.1-.2s.1-.1.1-.1h5.1c.1 0 .1 0 .1-.1l1.6-4.9c0-.1.1-.1.2-.1.4-.1.5-.1.5 0zM333.3 290.6l1.6 4.9c0 .1.1.1.1.1h5.1c.1 0 .2.1.2.2 0 0 0 .1-.1.1L336 299c-.1 0-.1.1-.1.2l1.6 4.9c0 .1 0 .2-.1.2h-.1l-4.2-3.1h-.2l-4.2 3.1h-.2v-.1l1.6-4.9c0-.1 0-.1-.1-.2l-4.2-3.1c-.1-.1-.1-.1 0-.2l.1-.1h5.1c.1 0 .1 0 .1-.1l1.6-4.9c0-.1.1-.1.2-.1.4-.1.4-.1.4 0zM318.5 302l1.6 4.9c0 .1.1.1.1.1h5.1c.1 0 .1 0 .1.1s0 .1-.1.2l-4.2 3.1c-.1 0-.1.1-.1.2l1.6 4.9c0 .1 0 .1-.1.2h-.2l-4.2-3.1h-.2l-4.2 3.1h-.2c-.1 0-.1-.1-.1-.2l1.6-4.9c0-.1 0-.1-.1-.2l-4.2-3.1c-.1 0-.1-.1-.1-.2s.1-.1.1-.1h5.1c.1 0 .1 0 .1-.1l1.6-4.9c.6-.1.8-.1 1 0-.1-.1-.1 0 0 0zM303.6 313.4l1.6 4.9c0 .1.1.1.1.1h5.1c.1 0 .2.1.2.2 0 0 0 .1-.1.1l-4.2 3.1c-.1 0-.1.1-.1.2l1.6 4.9c0 .1 0 .2-.1.2h-.1l-4.2-3.1h-.2l-4.2 3.1h-.2v-.1l1.6-4.9c0-.1 0-.1-.1-.2l-4.2-3.1c-.1 0-.1-.1 0-.2l.1-.1h5.1c.1 0 .1 0 .1-.1l1.6-4.9c.2-.3.3-.3.6-.1-.2-.2 0 0 0 0zM362.9 293.5l1.6 4.9c0 .1.1.1.1.1h5.1c.1 0 .1 0 .1.1s0 .1-.1.2l-4.2 3.1c-.1 0-.1.1-.1.2l1.6 4.9c0 .1 0 .2-.1.2h-.1l-4.2-3.1h-.2l-4.2 3.1h-.2v-.1l1.6-4.9c0-.1 0-.1-.1-.2l-4.2-3.1c-.1 0-.1-.1 0-.2l.1-.1h5.1c.1 0 .1 0 .1-.1l1.6-4.9c0-.1.1-.1.2-.1.4-.1.5 0 .5 0zM349.1 304.8l1.6 4.9c0 .1.1.1.1.1h5.1c.1 0 .1 0 .1.1s0 .1-.1.2l-4.2 3.1c-.1 0-.1.1-.1.2l1.6 4.9c0 .1 0 .2-.1.2h-.1l-4.2-3.1h-.2l-4.2 3.1h-.2v-.1l1.6-4.9c0-.1 0-.1-.1-.2l-4.2-3.1c-.1 0-.1-.1-.1-.2s.1-.1.1-.1h5.1c.1 0 .1 0 .1-.1l1.6-4.9c0-.1.1-.1.2-.1h.6zM332.7 312.7l1.6 4.9c0 .1.1.1.1.1h5.1c.1 0 .2.1.2.2 0 0 0 .1-.1.1l-4.2 3.1c-.1 0-.1.1-.1.2l1.6 4.9c0 .1 0 .2-.1.2h-.1l-4.2-3.1h-.2l-4.2 3.1h-.2v-.1l1.6-4.9c0-.1 0-.1-.1-.2l-4.2-3.1c-.1 0-.1-.1 0-.2l.1-.1h5.1c.1 0 .1 0 .1-.1l1.6-4.9c0-.1.1-.1.1-.1.4-.1.5 0 .5 0zM363.8 312.4l1.6 4.9c0 .1.1.1.1.1h5.1c.1 0 .1 0 .1.1s0 .1-.1.2l-4.2 3.1c-.1 0-.1.1-.1.2l1.6 4.9c0 .1 0 .2-.1.2h-.1l-4.2-3.1h-.2l-4.2 3.1h-.2v-.1l1.6-4.9c0-.1 0-.1-.1-.2l-4.2-3.1c-.1 0-.1-.1 0-.2l.1-.1h5.1c.1 0 .1 0 .1-.1l1.6-4.9c.3-.1.4-.2.7-.1-.1 0-.1 0 0 0z"/><path d="M19.5 317.7C58.2 143.9 213.4 13.9 399 13.9c182.9 0 336.4 126.4 377.8 296.7" style="fill:none;stroke:#70d7a4;stroke-width:12.6169;stroke-miterlimit:10"/><path class="st9" d="M76.5 581.2C35.8 505.5 20.8 415.6 40.1 325c16.1-75.8 54-141.3 105.7-191.5"/><path d="M707.2 200.2c92.4 143.5 75.2 336-51.8 461.3-20.3 20-42.3 37.3-65.6 51.8" style="fill:none;stroke:#70d7a4;stroke-width:12.5311;stroke-miterlimit:10"/><path class="st9" d="M776.7 484C738 657.8 582.8 787.7 397.2 787.7 214.3 787.7 60.8 661.4 19.4 491"/><circle cx="669.2" cy="123.2" r="42.7" style="fill:#0072ba"/><circle cx="121.1" cy="671.3" r="42.7" style="fill:#70d7a4"/></svg>