<svg version="1.1" id="Layer_1" xmlns="http://www.w3.org/2000/svg" x="0" y="0" viewBox="0 0 800 800" style="enable-background:new 0 0 800 800" xml:space="preserve"><style>.st0{fill:#adadad}.st1{fill:#0092c9}.st2{fill:#4fc3a0}.st4{fill:none;stroke:#0090d8;stroke-width:12.6169;stroke-miterlimit:10}</style><path class="st0" d="M506.5 317.5c-25.9 0-47.1 21.1-47.1 47s21.1 47.1 47.1 47.1c25.9 0 47-21.1 47-47.1.1-25.9-21-47-47-47z"/><path class="st1" d="M549.2 231.1c-.3-.1-.6 0-.9.2-.3.2-.4.5-.4.8v17.8c0 .3.2.6.4.8.2.1.4.2.6.2h.3c6.1-2 10-6 10-10.3.1-5.5-3.6-7.6-10-9.5zM535.6 195.7c-.3-.2-.6-.2-.9-.1-6.1 2-10 6-10 10.3 0 5.5 3.7 7.7 10.1 9.5h.3c.2 0 .4-.1.6-.2.3-.2.4-.5.4-.8v-17.9c-.1-.3-.3-.6-.5-.8z"/><path class="st2" d="M426.6 346.8h-67.1c-3.3 0-6-2.7-6-6v-67.1c0-.6-.4-1-1-1H164.9c-5.7 0-10.3 5.1-10.3 11.4v324.6c0 6.3 4.6 11.4 10.3 11.4h200c.4 0 .7-.2.9-.6l15.4-32.9c.1-.3.1-.7-.1-1s-.5-.5-.8-.5H194.6c-3.3 0-6-2.7-6-6s2.7-6 6-6h192.2c.4 0 .7-.2.9-.6l37.1-79.2c.8-1.7 1.7-3.4 2.7-5.3.1-.1.1-.3.1-.5V347.8c0-.5-.4-1-1-1zm-161.8-12.9h3.5c.6 0 1-.4 1-1v-3.5c0-14.3 11.1-21.8 22-21.8s22 7.5 22 21.8v3.5c0 .6.4 1 1 1h3.5c6.5 0 12.3 2.5 16.3 7.1 3.5 4 5.4 9.3 5.4 14.9 0 10.9-7.4 22-21.6 22h-3.5c-.6 0-1 .4-1 1v3.5c0 14.3-11.1 21.8-22 21.8s-22-7.5-22-21.8v-3.5c0-.6-.4-1-1-1h-3.5c-14.3 0-21.8-11.1-21.8-22-.2-10.9 7.3-22 21.7-22zm122.8 207.2h-193c-3.3 0-6-2.7-6-6s2.7-6 6-6h193c3.3 0 6 2.7 6 6s-2.7 6-6 6zm0-44.2h-193c-3.3 0-6-2.7-6-6s2.7-6 6-6h193c3.3 0 6 2.7 6 6s-2.7 6-6 6zm0-44.2h-193c-3.3 0-6-2.7-6-6s2.7-6 6-6h193c3.3 0 6 2.7 6 6s-2.7 6-6 6z"/><path class="st1" d="M597.3 157.9H341.7c-2.3 0-4.2 1.9-4.2 4.2v97.6c0 .6.4 1 1 1h21c1.6 0 3.1.6 4.2 1.8l74.1 74.1c1.1 1.1 1.8 2.7 1.8 4.2v126.6c0 .4.3.8.6.9.4.1.8 0 1.1-.3 17.2-19.4 40.7-30.1 66-30.1 35.4 0 66.3 20.7 82.5 55.5l4 8.6c.2.4.5.6.9.6h2.5c2.3 0 4.2-1.9 4.2-4.2V162.1c.1-2.3-1.8-4.2-4.1-4.2zm-32 53.9c-3.3 0-6-2.7-6-6 0-4.3-3.9-8.3-10-10.3-.3-.1-.6 0-.9.1-.3.2-.4.5-.4.8v21.1c0 .5.3.9.8 1 11.2 2.7 22.6 7.4 22.6 22 0 10.9-9.3 20.2-22.5 22.8-.5.1-.8.5-.8 1v1.3c0 3.3-2.7 6-6 6s-6-2.7-6-6v-1.3c0-.5-.3-.9-.8-1-13.3-2.5-22.5-11.9-22.5-22.8 0-3.3 2.7-6 6-6s6 2.7 6 6c0 4.3 3.9 8.3 10 10.3.3.1.6 0 .9-.1.3-.2.4-.5.4-.8v-21.1c0-.5-.3-.9-.8-1-11.2-2.7-22.6-7.4-22.6-22 0-10.9 9.3-20.2 22.5-22.8.5-.1.8-.5.8-1v-1.3c0-3.3 2.7-6 6-6s6 2.7 6 6v1.3c0 .5.3.9.8 1 13.3 2.5 22.5 11.9 22.5 22.8 0 3.3-2.7 6-6 6zm-194.9-13.9H483c3.3 0 6 2.7 6 6s-2.7 6-6 6H370.4c-3.3 0-6-2.7-6-6 0-3.4 2.7-6 6-6zm0 50.7c-3.3 0-6-2.7-6-6s2.7-6 6-6H483c3.3 0 6 2.7 6 6s-2.7 6-6 6H370.4zm136.1 175c-32.6 0-59.1-26.5-59.1-59.1s26.5-59 59.1-59 59 26.5 59 59c.1 32.6-26.4 59.1-59 59.1z"/><path class="st0" d="M635.2 618.7 579 498.5c-10.6-22.7-28.3-38.8-49.9-45.4-.3-.1-.7 0-1 .2s-.4.6-.3.9l15.8 86.2c.4 2.1-.4 4.3-2.1 5.7l-30.4 25.3c-2.2 1.8-5.5 1.8-7.7 0L473 546.1c-1.7-1.4-2.4-3.5-2.1-5.7l15.4-86.1c.1-.3-.1-.7-.3-.9-.3-.2-.6-.3-1-.2-21.4 6.6-38.9 22.7-49.5 45.2l-56.3 120.2c-.1.3-.1.7.1 1s.5.5.8.5h56.3c.4 0 .7-.2.9-.6l16.9-36.2c1-2.1 3.1-3.5 5.4-3.5.9 0 1.7.2 2.5.6 1.5.7 2.6 1.9 3.1 3.4s.5 3.1-.2 4.6l-14.2 30.3c-.1.3-.1.7.1 1s.5.5.8.5h110.5c.3 0 .7-.2.8-.5s.2-.7.1-1l-14.2-30.3c-.7-1.5-.8-3.1-.2-4.6.5-1.5 1.6-2.7 3.1-3.4.8-.4 1.7-.6 2.5-.6 2.3 0 4.5 1.4 5.4 3.5l16.9 36.2c.2.4.5.6.9.6h56.3c.3 0 .7-.2.8-.5s.8-.6.6-.9z"/><path class="st1" d="M507.3 450c-2.3 0-4.7.1-7.2.4-.4 0-.8.4-.9.8l-15.7 87.5c-.1.4.1.7.3.9l22.8 19c.2.2.4.2.6.2s.5-.1.6-.2l22.8-19c.3-.2.4-.6.3-.9l-16-87.5c-.1-.4-.4-.8-.9-.8-2.2-.3-4.5-.4-6.7-.4z"/><path class="st2" d="M264.8 365.9h10.5c3.3 0 6 2.7 6 6v10.5c0 7.3 5.4 9.8 10 9.8s10-2.6 10-9.8v-10.5c0-3.3 2.7-6 6-6h10.5c7.1 0 9.6-5.4 9.6-10 0-2.7-.9-5.3-2.4-7.1-1.7-1.9-4.1-2.9-7.2-2.9h-10.5c-3.3 0-6-2.7-6-6v-10.5c0-7.3-5.4-9.8-10-9.8s-10 2.6-10 9.8v10.5c0 3.3-2.7 6-6 6h-10.5c-7.3 0-9.8 5.4-9.8 10-.1 4.6 2.5 10 9.8 10zM366.1 282.7c-.4.2-.6.5-.6.9v50.2c0 .6.4 1 1 1h50.2c.4 0 .8-.2.9-.6.2-.4.1-.8-.2-1.1l-50.2-50.2c-.3-.3-.7-.4-1.1-.2z"/><path d="M27.7 317.1C66.4 143.3 221.6 13.3 407.1 13.3c183 0 336.4 126.4 377.9 296.7" style="fill:none;stroke:#70d7a4;stroke-width:12.6169;stroke-miterlimit:10"/><path class="st4" d="M84.6 580.6C44 504.9 28.9 415 48.2 324.4c16.1-75.8 54-141.3 105.7-191.5"/><path d="M715.4 199.6c92.4 143.5 75.2 336-51.8 461.3-20.3 20-42.3 37.3-65.6 51.8" style="fill:none;stroke:#70d7a4;stroke-width:12.5311;stroke-miterlimit:10"/><path class="st4" d="M784.9 483.3C746.1 657.1 591 787.1 405.4 787.1c-183 0-336.4-126.4-377.8-296.7"/><circle cx="677.3" cy="122.6" r="42.7" style="fill:#0072ba"/><circle cx="129.3" cy="670.6" r="42.7" style="fill:#70d7a4"/></svg>