<?xml version="1.0" encoding="utf-8"?>
<!-- Generator: Adobe Illustrator 24.1.0, SVG Export Plug-In . SVG Version: 6.00 Build 0)  -->
<svg version="1.1" id="Layer_1" xmlns="http://www.w3.org/2000/svg" xmlns:xlink="http://www.w3.org/1999/xlink" x="0px" y="0px"
	 viewBox="0 0 800 800" style="enable-background:new 0 0 800 800;" xml:space="preserve">
<style type="text/css">
	.st0{fill:#ADADAD;}
	.st1{fill:#0092C9;}
	.st2{fill:#4FC3A0;}
	.st3{fill:none;stroke:#70D7A4;stroke-width:8.6825;stroke-miterlimit:10;}
	.st4{fill:none;stroke:#0090D8;stroke-width:8.6825;stroke-miterlimit:10;}
	.st5{fill:#0072BA;}
	.st6{fill:#70D7A4;}
</style>
<g>
	<path class="st0" d="M506.5,317.5c-25.9,0-47.1,21.1-47.1,47s21.1,47.1,47.1,47.1c25.9,0,47-21.1,47-47.1
		C553.6,338.6,532.5,317.5,506.5,317.5L506.5,317.5z"/>
	<path class="st1" d="M549.2,231.1c-0.3-0.1-0.6,0-0.9,0.2c-0.3,0.2-0.4,0.5-0.4,0.8v17.8c0,0.3,0.2,0.6,0.4,0.8
		c0.2,0.1,0.4,0.2,0.6,0.2c0.1,0,0.2,0,0.3,0c6.1-2,10-6,10-10.3C559.3,235.1,555.6,233,549.2,231.1z"/>
	<path class="st1" d="M535.6,195.7c-0.3-0.2-0.6-0.2-0.9-0.1c-6.1,2-10,6-10,10.3c0,5.5,3.7,7.7,10.1,9.5c0.1,0,0.2,0,0.3,0
		c0.2,0,0.4-0.1,0.6-0.2c0.3-0.2,0.4-0.5,0.4-0.8v-17.9C536,196.2,535.8,195.9,535.6,195.7L535.6,195.7z"/>
	<path class="st2" d="M426.6,346.8h-67.1c-3.3,0-6-2.7-6-6v-67.1c0-0.6-0.4-1-1-1H164.9c-5.7,0-10.3,5.1-10.3,11.4v324.6
		c0,6.3,4.6,11.4,10.3,11.4h200c0.4,0,0.7-0.2,0.9-0.6l15.4-32.9c0.1-0.3,0.1-0.7-0.1-1c-0.2-0.3-0.5-0.5-0.8-0.5H194.6
		c-3.3,0-6-2.7-6-6c0-3.3,2.7-6,6-6h192.2c0.4,0,0.7-0.2,0.9-0.6l37.1-79.2c0.8-1.7,1.7-3.4,2.7-5.3c0.1-0.1,0.1-0.3,0.1-0.5V347.8
		C427.6,347.3,427.2,346.8,426.6,346.8z M264.8,333.9h3.5c0.6,0,1-0.4,1-1v-3.5c0-14.3,11.1-21.8,22-21.8c10.9,0,22,7.5,22,21.8v3.5
		c0,0.6,0.4,1,1,1h3.5c6.5,0,12.3,2.5,16.3,7.1c3.5,4,5.4,9.3,5.4,14.9c0,10.9-7.4,22-21.6,22h-3.5c-0.6,0-1,0.4-1,1v3.5
		c0,14.3-11.1,21.8-22,21.8s-22-7.5-22-21.8v-3.5c0-0.6-0.4-1-1-1h-3.5c-14.3,0-21.8-11.1-21.8-22
		C242.9,345,250.4,333.9,264.8,333.9L264.8,333.9z M387.6,541.1h-193c-3.3,0-6-2.7-6-6c0-3.3,2.7-6,6-6h193c3.3,0,6,2.7,6,6
		C393.6,538.4,390.9,541.1,387.6,541.1z M387.6,496.9h-193c-3.3,0-6-2.7-6-6s2.7-6,6-6h193c3.3,0,6,2.7,6,6S390.9,496.9,387.6,496.9
		z M387.6,452.7h-193c-3.3,0-6-2.7-6-6s2.7-6,6-6h193c3.3,0,6,2.7,6,6S390.9,452.7,387.6,452.7z"/>
	<path class="st1" d="M597.3,157.9H341.7c-2.3,0-4.2,1.9-4.2,4.2v97.6c0,0.6,0.4,1,1,1h21c1.6,0,3.1,0.6,4.2,1.8l74.1,74.1
		c1.1,1.1,1.8,2.7,1.8,4.2v126.6c0,0.4,0.3,0.8,0.6,0.9c0.4,0.1,0.8,0,1.1-0.3c17.2-19.4,40.7-30.1,66-30.1
		c35.4,0,66.3,20.7,82.5,55.5l4,8.6c0.2,0.4,0.5,0.6,0.9,0.6h2.5c2.3,0,4.2-1.9,4.2-4.2V162.1C601.5,159.8,599.6,157.9,597.3,157.9
		L597.3,157.9z M565.3,211.8c-3.3,0-6-2.7-6-6c0-4.3-3.9-8.3-10-10.3c-0.3-0.1-0.6,0-0.9,0.1c-0.3,0.2-0.4,0.5-0.4,0.8v21.1
		c0,0.5,0.3,0.9,0.8,1c11.2,2.7,22.6,7.4,22.6,22c0,10.9-9.3,20.2-22.5,22.8c-0.5,0.1-0.8,0.5-0.8,1v1.3c0,3.3-2.7,6-6,6
		c-3.3,0-6-2.7-6-6v-1.3c0-0.5-0.3-0.9-0.8-1c-13.3-2.5-22.5-11.9-22.5-22.8c0-3.3,2.7-6,6-6c3.3,0,6,2.7,6,6c0,4.3,3.9,8.3,10,10.3
		c0.3,0.1,0.6,0,0.9-0.1c0.3-0.2,0.4-0.5,0.4-0.8v-21.1c0-0.5-0.3-0.9-0.8-1c-11.2-2.7-22.6-7.4-22.6-22c0-10.9,9.3-20.2,22.5-22.8
		c0.5-0.1,0.8-0.5,0.8-1v-1.3c0-3.3,2.7-6,6-6s6,2.7,6,6v1.3c0,0.5,0.3,0.9,0.8,1c13.3,2.5,22.5,11.9,22.5,22.8
		C571.3,209.1,568.6,211.8,565.3,211.8z M370.4,197.9H483c3.3,0,6,2.7,6,6c0,3.3-2.7,6-6,6H370.4c-3.3,0-6-2.7-6-6
		C364.4,200.5,367.1,197.9,370.4,197.9z M370.4,248.6c-3.3,0-6-2.7-6-6c0-3.3,2.7-6,6-6H483c3.3,0,6,2.7,6,6c0,3.3-2.7,6-6,6H370.4z
		 M506.5,423.6c-32.6,0-59.1-26.5-59.1-59.1s26.5-59,59.1-59s59,26.5,59,59C565.6,397.1,539.1,423.6,506.5,423.6z"/>
	<path class="st0" d="M635.2,618.7L579,498.5c-10.6-22.7-28.3-38.8-49.9-45.4c-0.3-0.1-0.7,0-1,0.2c-0.3,0.2-0.4,0.6-0.3,0.9
		l15.8,86.2c0.4,2.1-0.4,4.3-2.1,5.7l-30.4,25.3c-2.2,1.8-5.5,1.8-7.7,0L473,546.1c-1.7-1.4-2.4-3.5-2.1-5.7l15.4-86.1
		c0.1-0.3-0.1-0.7-0.3-0.9c-0.3-0.2-0.6-0.3-1-0.2c-21.4,6.6-38.9,22.7-49.5,45.2l-56.3,120.2c-0.1,0.3-0.1,0.7,0.1,1
		s0.5,0.5,0.8,0.5h56.3c0.4,0,0.7-0.2,0.9-0.6l16.9-36.2c1-2.1,3.1-3.5,5.4-3.5c0.9,0,1.7,0.2,2.5,0.6c1.5,0.7,2.6,1.9,3.1,3.4
		s0.5,3.1-0.2,4.6l-14.2,30.3c-0.1,0.3-0.1,0.7,0.1,1s0.5,0.5,0.8,0.5h110.5c0.3,0,0.7-0.2,0.8-0.5s0.2-0.7,0.1-1l-14.2-30.3
		c-0.7-1.5-0.8-3.1-0.2-4.6c0.5-1.5,1.6-2.7,3.1-3.4c0.8-0.4,1.7-0.6,2.5-0.6c2.3,0,4.5,1.4,5.4,3.5l16.9,36.2
		c0.2,0.4,0.5,0.6,0.9,0.6h56.3c0.3,0,0.7-0.2,0.8-0.5S635.4,619,635.2,618.7L635.2,618.7z"/>
	<path class="st1" d="M507.3,450c-2.3,0-4.7,0.1-7.2,0.4c-0.4,0-0.8,0.4-0.9,0.8l-15.7,87.5c-0.1,0.4,0.1,0.7,0.3,0.9l22.8,19
		c0.2,0.2,0.4,0.2,0.6,0.2s0.5-0.1,0.6-0.2l22.8-19c0.3-0.2,0.4-0.6,0.3-0.9l-16-87.5c-0.1-0.4-0.4-0.8-0.9-0.8
		C511.8,450.1,509.5,450,507.3,450L507.3,450z"/>
	<path class="st2" d="M264.8,365.9h10.5c3.3,0,6,2.7,6,6v10.5c0,7.3,5.4,9.8,10,9.8c4.6,0,10-2.6,10-9.8v-10.5c0-3.3,2.7-6,6-6h10.5
		c7.1,0,9.6-5.4,9.6-10c0-2.7-0.9-5.3-2.4-7.1c-1.7-1.9-4.1-2.9-7.2-2.9h-10.5c-3.3,0-6-2.7-6-6v-10.5c0-7.3-5.4-9.8-10-9.8
		s-10,2.6-10,9.8v10.5c0,3.3-2.7,6-6,6h-10.5c-7.3,0-9.8,5.4-9.8,10C254.9,360.5,257.5,365.9,264.8,365.9L264.8,365.9z"/>
	<path class="st2" d="M366.1,282.7c-0.4,0.2-0.6,0.5-0.6,0.9v50.2c0,0.6,0.4,1,1,1h50.2c0.4,0,0.8-0.2,0.9-0.6
		c0.2-0.4,0.1-0.8-0.2-1.1l-50.2-50.2C366.9,282.6,366.5,282.5,366.1,282.7z"/>
</g>
<g>
	<path class="st3" d="M23.2,315.7c38.5-172.8,192.8-302,377.2-302c181.9,0,334.4,125.6,375.5,294.9"/>
	<path class="st4" d="M87.3,603.3c-91.9-144.6-74.7-338.6,51.5-464.8C263.2,14.1,453.6-4.3,597.5,83.3"/>
	<path class="st3" d="M711.7,193.7c91.9,144.6,74.7,338.6-51.5,464.8c-124.5,124.5-314.8,142.9-458.8,55.2"/>
	<path class="st4" d="M776,480.9c-38.5,172.8-192.8,302-377.2,302C216.9,782.9,64.3,657.2,23.2,488"/>
	<circle class="st5" cx="669.1" cy="122.3" r="42.5"/>
	<circle class="st6" cx="124.3" cy="667.1" r="42.5"/>
</g>
</svg>
