<svg id="Layer_1" data-name="Layer 1" xmlns="http://www.w3.org/2000/svg" viewBox="0 0 750.23 750.35"><defs><style>.cls-1{fill:#4fc3a0;}.cls-2{fill:#0092c9;}</style></defs><path class="cls-1" d="M570.4,755c10,0,21.69-3.23,29.43.93,7.41,4,10.75,15.62,15.75,24,10.57,17.62,9.28,27.59-5.35,42.26-10.64,10.67-21.23,21.39-32,31.93-11,10.79-22.37,12.25-35.64,4.58-10.6-6.14-21.14-12.39-31.49-18.93-3.73-2.35-6.59-2.28-10.54-.36a213.91,213.91,0,0,1-24.63,10.2c-4.86,1.64-6.92,4.25-8,9.13-2.38,11.15-5.4,22.17-8.21,33.23-4,15.63-13.35,23.11-29.25,23.17q-24.28.11-48.55,0c-15.91-.06-25.3-7.53-29.25-23.18-2.87-11.33-5.78-22.65-8.4-34-.94-4.11-2.57-6.61-6.93-8.13-8.91-3.09-17.61-6.85-26.19-10.79-3.4-1.56-5.85-1.58-9.06.43q-15.93,9.93-32.26,19.27c-13.38,7.68-24.58,6.23-35.62-4.6q-17.64-17.3-34.93-34.92c-10.78-11-12.22-22.31-4.52-35.63,6.13-10.6,12.38-21.15,18.93-31.5,2.37-3.75,2.22-6.63.32-10.56a239.45,239.45,0,0,1-10.22-24.62c-1.54-4.39-3.6-6.78-8.31-7.8-11.42-2.46-22.72-5.48-34.05-8.34-15.65-4-23.08-13.32-23.15-29.28q-.09-24.27,0-48.55c.06-15.6,7.44-25.21,22.38-29,11.59-3,23.2-5.9,34.86-8.56,4.15-.94,6.58-2.67,8.08-7,3.12-8.9,6.85-17.62,10.8-26.19,1.57-3.39,1.65-5.83-.36-9.05q-9.94-15.94-19.31-32.25c-7.68-13.3-6.22-24.64,4.58-35.62q17.32-17.61,34.93-34.92c11-10.78,22.24-12.22,35.63-4.53q16.31,9.34,32.26,19.27c3.24,2,5.7,2,9.06.37,7.26-3.48,14.56-7.22,22.26-9.35s10.57-6.36,11.94-13.62c1.92-10.1,4.76-20,7.28-30C356.67,386.74,366,379.3,382,379.26c7.77,0,18.2-2.75,22.62,1.16,5.11,4.54,1.22,15.18,1.57,23.15a166.26,166.26,0,0,1-.05,18.41c-.3,4.4,3.23,11-5.52,11.77-.62.05-1.06,2.89-1.47,4.47-2.64,10.24-5.38,20.45-7.84,30.74-2.72,11.36-9.45,18.75-20.84,21.53a174.8,174.8,0,0,0-49.84,20.75C311,517.11,301,516.7,291.32,511c-9.09-5.4-18.3-10.64-27.15-16.42-4-2.61-6.24-2.32-9.78,1-3.92,3.67-2.86,6.21-.58,9.83,5.48,8.72,10.67,17.62,16,26.45,6.17,10.26,6.23,20.5-.05,30.76A159.87,159.87,0,0,0,250,610.15c-2.77,11.93-10.11,19.41-22.29,22.2-10.57,2.42-20.95,5.67-31.56,7.85-4.45.91-4.45,3.32-4.24,6.48s-1.22,6.41,4.07,7.47c10.62,2.13,21,5.43,31.57,7.83q18.25,4.14,22.4,22.08a160.24,160.24,0,0,0,19.7,47.6c6.47,10.58,6.24,21-.22,31.47-5.55,9-10.59,18.34-16.48,27.11-3,4.4-.48,6.19,2,9,2.67,3,4.78,3.48,8.37,1.16,9.11-5.88,18.54-11.29,27.86-16.85,10-6,20.1-6.12,30-.07a165.53,165.53,0,0,0,48.32,20.09q17.93,4.23,21.94,22.53c2.22,10.05,5.37,19.9,7.46,30,.94,4.54,2.76,5.81,7.17,5.65,4-.14,6.41-.42,7.38-5.38,2.08-10.63,5.16-21.07,7.84-31.59,2.79-11,9.5-18.08,20.57-20.79a173.42,173.42,0,0,0,49.85-20.74c9.61-5.9,19.59-5.57,29.3.18,9.34,5.54,18.82,10.87,27.86,16.86,4,2.67,6.08,1.54,9-1.37s3.88-5.05,1.26-9c-6.11-9.3-11.54-19-17.24-28.61-2.93-4.9-2.65-7.38,4.17-7,8.06.51,16.17.12,24.26.12Z" transform="translate(-138.28 -164.83)"/><path class="cls-2" d="M406.24,567.54v1.67c0,7.25,1.93,15.27-.55,21.54-2.62,6.66-12,3.61-18.1,6-22.46,8.86-37,31.44-34.77,55.4,2.3,24.76,21.41,44.73,47,48.07,5.4.71,6.7,2.17,6.57,7.32-.35,13.65-.33,27.33,0,41,.12,4.8-1.28,6-6,5.83-59-1.46-109.06-60.64-100.65-119.29,7.39-51.55,44.51-88.29,95.62-94.63,10.93-1.36,10.93-1.36,10.93,9.52Z" transform="translate(-138.28 -164.83)"/><path class="cls-1" d="M888.49,248.09c0-18.75-10.84-29.57-29.57-29.61-23.72,0-47.44-.15-71.16.1-4.93,0-7-.82-6.55-6.28a197.92,197.92,0,0,0,.1-20.09c-.31-15.61-11.4-27.23-26.82-27.27q-93.76-.23-187.53,0c-15.14,0-26.29,11.41-26.72,26.48-.19,6.69-.5,13.44.1,20.08.56,6.2-1.87,7.17-7.45,7.09-22.88-.32-45.76-.14-68.64-.13-21.07,0-31.21,10.17-31.21,31.3q0,111.36,0,222.71,0,112.18,0,224.38c0,20,10.5,30.7,30.17,30.7q197.57,0,395.13,0c19.44,0,30.15-10.61,30.16-29.88Q888.53,472.89,888.49,248.09ZM613.91,218.47h47.71c20.09,0,40.18.15,60.26-.11,4.74-.07,6,1.26,6,6,.24,20.92.4,20.92-20.24,20.92-35.72,0-71.43-.12-107.14.13-5.46,0-6.89-1.38-6.85-6.84C593.77,218.47,593.55,218.47,613.91,218.47Zm212.75,455.7q-165.75-.4-331.5,0c-6.67,0-8.77-1.13-8.74-8.38.34-64.47.2-128.93.2-193.4,0-63.9.1-127.81-.16-191.71,0-6.6,1-9.19,8.35-8.79,13.35.71,26.78.33,40.17.11,3.71-.06,4.88.78,5.75,4.74,3.18,14.45,13.28,22.11,28.24,22.12q91.66.07,183.33,0c15.52,0,24.9-7.23,28.59-22.67.89-3.71,2.24-4.19,5.4-4.16,14.51.13,29,.19,43.53,0,3.92-.06,5.76.92,5.13,5a22,22,0,0,0,0,3.35q0,192.56.17,385.11C835.1,672.22,833.83,674.19,826.66,674.17Z" transform="translate(-138.28 -164.83)"/><path class="cls-2" d="M660.79,352.45c-81.19,0-147.36,66.13-147.37,147.33s66.17,147.4,147.32,147.4S808.12,581,808.13,499.83,742,352.45,660.79,352.45Zm.39,241.14c-51.42.23-93.86-41.76-94.17-93.16-.32-51.8,42-94.39,93.77-94.39,51.46,0,93.64,42.1,93.76,93.57S712.63,593.36,661.18,593.59Z" transform="translate(-138.28 -164.83)"/><path class="cls-1" d="M702.37,566.82c-8.66-.08-15.17-2.76-20.56-8.14-5.92-5.91-12-11.71-17.7-17.79-2.51-2.66-4.12-2.68-6.65,0-5.73,6.08-11.66,12-17.73,17.75-11.46,10.89-27.59,10.86-38.17.12s-10.35-26.72.67-38.18c5.6-5.83,11.26-11.62,17.18-17.12,2.94-2.73,3.05-4.48,0-7.26-5.73-5.28-11.16-10.91-16.61-16.5-11.58-11.86-12.09-27.82-1.32-38.79,11-11.18,27.22-10.71,39.38,1.19,5.39,5.26,10.86,10.46,15.92,16,2.93,3.23,4.83,3.45,7.86.09,5-5.58,10.53-10.76,15.9-16,12.18-12,28.33-12.48,39.38-1.32s10.29,27.1-1.77,39.39c-5.27,5.38-10.48,10.83-16,15.93-2.95,2.72-3,4.45,0,7.25,6.5,6.11,13,12.32,18.84,19,7.51,8.5,8.94,18.45,4.2,28.79C720.57,561.24,712.2,566.08,702.37,566.82Z" transform="translate(-138.28 -164.83)"/></svg>