<svg id="Layer_1" data-name="Layer 1" xmlns="http://www.w3.org/2000/svg" viewBox="0 0 1067.79 1067.79"><defs><style>.cls-1{fill:#0092c9}.cls-2{fill:#4fc3a0}</style></defs><path class="cls-1" d="M570.8 773.45c10.34 0 22.49-3.27 30.47.91 7.62 4.17 11.07 16.14 16.33 24.85 10.88 18.14 9.61 28.48-5.63 43.71-11.06 11.07-21.94 22.13-33 33-11.43 11.24-23.22 12.69-36.82 4.71-10.88-6.35-21.95-12.88-32.65-19.59-3.81-2.36-6.89-2.36-10.88-.36a220.29 220.29 0 0 1-25.4 10.52c-5.08 1.63-7.07 4.35-8.34 9.43-2.54 11.61-5.63 22.86-8.53 34.28-4.17 16.15-13.78 24-30.29 24H375.8c-16.5 0-26.12-7.8-30.29-24-2.9-11.79-6-23.4-8.71-35.19-.9-4.17-2.72-6.89-7.25-8.34a289.47 289.47 0 0 1-27-11.25c-3.44-1.63-6-1.63-9.43.37-11.07 6.89-22.13 13.42-33.38 20-13.78 8-25.39 6.53-36.82-4.72-12.15-12-24.12-23.94-36.1-36.09-11.06-11.43-12.69-23-4.71-36.82 6.35-10.89 12.88-22 19.59-32.66 2.54-3.8 2.36-6.89.36-10.88-4-8.34-7.44-16.87-10.52-25.39-1.63-4.54-3.81-7.08-8.52-8-11.79-2.54-23.59-5.63-35.19-8.71-16.15-4.17-24-13.79-24-30.29v-50.26c0-16.14 7.62-26.12 23.22-29.93 12-3.08 23.94-6.17 36.1-8.89 4.35-.9 6.89-2.72 8.34-7.25 3.27-9.25 7.08-18.14 11.25-27 1.63-3.45 1.63-6-.37-9.43-6.87-11.1-13.37-22.18-19.93-33.41-8-13.78-6.35-25.39 4.72-36.82 12-12.15 23.94-24.12 36.09-36.1 11.43-11.06 23-12.69 36.83-4.71 11.24 6.53 22.31 13.06 33.37 19.95 3.27 2 6 2 9.43.36 7.44-3.62 15.06-7.43 23-9.61s10.88-6.53 12.34-14.15c2-10.52 4.89-20.68 7.61-31 4.18-16.32 13.79-23.94 30.3-23.94 8 0 18.86-2.9 23.4 1.27 5.26 4.72 1.27 15.78 1.63 23.94a168.15 168.15 0 0 1 0 19.05c-.36 4.53 3.26 11.43-5.62 12.15-.73 0-1.09 2.9-1.46 4.54-2.72 10.52-5.62 21.22-8.16 31.74-2.9 11.79-9.79 19.41-21.58 22.31a177.88 177.88 0 0 0-51.52 21.41c-10 6-20.31 5.62-30.29-.19-9.43-5.62-18.87-11.06-28.12-17.05-4.17-2.72-6.53-2.35-10.15 1.09-4 3.81-2.91 6.35-.55 10.16 5.62 9.07 11.07 18.14 16.51 27.39 6.35 10.7 6.53 21.22 0 31.74a167.26 167.26 0 0 0-20.5 49.16c-2.9 12.33-10.52 20.13-23 23-10.88 2.54-21.58 5.8-32.65 8.16-4.53.91-4.53 3.45-4.35 6.71s-1.27 6.71 4.17 7.8c11.07 2.18 21.77 5.62 32.65 8.16 12.52 2.91 20.32 10.52 23.22 22.86a164.44 164.44 0 0 0 20.32 49.15c6.71 10.89 6.53 21.77-.18 32.47-5.81 9.25-10.89 19.05-17.06 28.12-3.08 4.53-.54 6.35 2 9.25 2.72 3.08 4.9 3.63 8.71 1.27 9.43-6.17 19.22-11.61 28.84-17.41 10.34-6.17 20.86-6.35 31 0a171.35 171.35 0 0 0 50.06 20.86c12.33 2.9 19.95 10.7 22.67 23.21 2.36 10.34 5.63 20.5 7.8 31 .91 4.72 2.91 6 7.44 5.81 4.17-.18 6.71-.37 7.62-5.63 2.18-11.06 5.26-21.76 8.16-32.65 2.9-11.42 9.8-18.68 21.22-21.58a178.16 178.16 0 0 0 51.52-21.41c10-6.16 20.31-5.8 30.29.19 9.61 5.8 19.41 11.24 28.84 17.41 4.17 2.72 6.35 1.63 9.25-1.45 3.09-3.09 4-5.26 1.27-9.25-6.35-9.62-12-19.59-17.77-29.57-3.09-5.08-2.72-7.62 4.35-7.26 8.34.55 16.69.19 25 .19Z" transform="translate(-4.07 -6.1)"/><path class="cls-2" d="M401 579.54v1.82c0 7.43 2 15.78-.55 22.31-2.72 6.89-12.33 3.81-18.68 6.17-23.22 9.25-38.27 32.46-35.92 57.31 2.36 25.58 22.13 46.26 48.62 49.71 5.62.72 6.89 2.17 6.71 7.61q-.54 21.22 0 42.45c.18 4.9-1.27 6.17-6.17 6-60.95-1.46-112.82-62.77-104.12-123.35 7.62-53.33 46.08-91.24 98.86-97.95C401 550.16 401 550.16 401 561.4Z" transform="translate(-4.07 -6.1)"/><path class="cls-1" d="M899.84 249.05c0-19.41-11.24-30.66-30.65-30.66-24.49 0-49.16-.18-73.65.19-5.08 0-7.25-.91-6.71-6.53.36-6.9.36-13.79.18-20.86-.36-16.15-11.79-28.12-27.75-28.12-64.58-.18-129.33-.18-193.91 0-15.6 0-27.21 11.79-27.57 27.39-.18 6.89-.54 14 .18 20.68.55 6.35-2 7.44-7.62 7.25-23.58-.36-47.34-.18-70.92-.18-21.77 0-32.29 10.52-32.29 32.29v462.37c0 20.67 10.89 31.74 31.2 31.74H869c20.14 0 31.2-10.88 31.2-30.84q-.54-232.08-.36-464.72Zm-284.06-30.66h49.34c20.86 0 41.54.19 62.4-.18 4.9 0 6.17 1.27 6.17 6.17.18 21.59.36 21.59-20.86 21.59-37 0-73.83-.19-110.83.18-5.63 0-7.08-1.45-7.08-7.08 0-20.68-.18-20.68 20.86-20.68Zm220 471.44q-171.42-.54-342.83 0c-6.89 0-9.07-1.09-9.07-8.71.37-66.75.18-133.32.18-200.07 0-66 .19-132.24-.18-198.26 0-6.89 1.09-9.43 8.71-9.07 13.79.72 27.75.36 41.54.18 3.81 0 5.08.73 6 4.9 3.27 14.87 13.79 22.85 29.21 22.85H758.9c16 0 25.76-7.43 29.57-23.4.9-3.81 2.36-4.35 5.62-4.35 15.06.18 29.93.18 45 0 4 0 6 .91 5.26 5.26v3.45q0 199.15.18 398.33c0 6.89-1.27 8.89-8.71 8.89Z" transform="translate(-4.07 -6.1)"/><path class="cls-2" d="M664.4 357C580.41 357 512 425.36 512 509.34s68.41 152.37 152.4 152.37 152.36-68.38 152.36-152.37c0-83.8-68.38-152.34-152.36-152.34Zm.36 249.41c-53.15.18-97-43.17-97.41-96.32-.36-53.51 43.35-97.59 97-97.59 53.14 0 96.86 43.54 97 96.86s-43.44 96.85-96.59 97.03Z" transform="translate(-4.07 -6.1)"/><path class="cls-1" d="M707.39 578.82c-8.89 0-15.79-2.9-21.23-8.35-6.16-6.16-12.33-12.15-18.32-18.32-2.54-2.72-4.17-2.72-6.89 0-6 6.35-12 12.34-18.32 18.32-11.79 11.25-28.48 11.25-39.54.18-10.89-11.06-10.71-27.57.72-39.54 5.81-6 11.61-12 17.78-17.77 3.08-2.91 3.08-4.72 0-7.44-6-5.44-11.61-11.25-17.23-17-12-12.34-12.52-28.84-1.46-40.09 11.43-11.66 28.1-11.11 40.82 1.19 5.62 5.44 11.24 10.88 16.5 16.51 3.09 3.26 5.08 3.62 8.17.18 5.26-5.81 10.88-11.07 16.5-16.51 12.52-12.33 29.39-12.88 40.82-1.45 11.42 11.61 10.7 28.12-1.82 40.81-5.44 5.63-10.88 11.25-16.5 16.51-3.09 2.9-3.09 4.53 0 7.44 6.71 6.35 13.42 12.69 19.4 19.59 7.8 8.7 9.26 19 4.36 29.75-5.08 10.17-13.61 15.08-23.76 15.99Z" transform="translate(-4.07 -6.1)"/><circle cx="533.9" cy="533.9" r="526.4" style="stroke:#0092c9;stroke-dasharray:26.67 26.67;fill:none;stroke-linecap:round;stroke-miterlimit:10;stroke-width:15px"/><circle cx="533.9" cy="533.9" r="526.4" style="stroke:#4fc3a0;stroke-dasharray:183.75 183.75;fill:none;stroke-linecap:round;stroke-miterlimit:10;stroke-width:15px"/></svg>