<?xml version="1.0" encoding="utf-8"?>
<!-- Generator: Adobe Illustrator 24.1.0, SVG Export Plug-In . SVG Version: 6.00 Build 0)  -->
<svg version="1.1" id="Layer_1" xmlns="http://www.w3.org/2000/svg" xmlns:xlink="http://www.w3.org/1999/xlink" x="0px" y="0px"
	 viewBox="0 0 512 512" style="enable-background:new 0 0 512 512;" xml:space="preserve">
<style type="text/css">
	.st0{fill:#ADADAD;}
	.st1{fill:#0092C9;}
	.st2{fill:#4FC3A0;}
</style>
<g>
	<path class="st0" d="M367.5,184.5c-25.9,0-47.1,21.1-47.1,47c0,25.9,21.1,47.1,47.1,47.1c25.9,0,47-21.1,47-47.1
		C414.6,205.6,393.5,184.5,367.5,184.5L367.5,184.5z"/>
	<path class="st1" d="M410.2,98.1c-0.3-0.1-0.6,0-0.9,0.2c-0.3,0.2-0.4,0.5-0.4,0.8v17.8c0,0.3,0.2,0.6,0.4,0.8
		c0.2,0.1,0.4,0.2,0.6,0.2c0.1,0,0.2,0,0.3,0c6.1-2,10-6,10-10.3C420.3,102.1,416.6,100,410.2,98.1z"/>
	<path class="st1" d="M396.6,62.7c-0.3-0.2-0.6-0.2-0.9-0.1c-6.1,2-10,6-10,10.3c0,5.5,3.7,7.7,10.1,9.5c0.1,0,0.2,0,0.3,0
		c0.2,0,0.4-0.1,0.6-0.2c0.3-0.2,0.4-0.5,0.4-0.8V63.5C397,63.2,396.8,62.9,396.6,62.7L396.6,62.7z"/>
	<path class="st2" d="M287.6,213.8h-67.1c-3.3,0-6-2.7-6-6v-67.1c0-0.6-0.4-1-1-1H25.9c-5.7,0-10.3,5.1-10.3,11.4v324.6
		c0,6.3,4.6,11.4,10.3,11.4h200c0.4,0,0.7-0.2,0.9-0.6l15.4-32.9c0.1-0.3,0.1-0.7-0.1-1s-0.5-0.5-0.8-0.5H55.6c-3.3,0-6-2.7-6-6
		c0-3.3,2.7-6,6-6h192.2c0.4,0,0.7-0.2,0.9-0.6l37.1-79.2c0.8-1.7,1.7-3.4,2.7-5.3c0.1-0.1,0.1-0.3,0.1-0.5V214.8
		C288.6,214.3,288.2,213.8,287.6,213.8z M125.8,200.9h3.5c0.6,0,1-0.4,1-1v-3.5c0-14.3,11.1-21.8,22-21.8s22,7.5,22,21.8v3.5
		c0,0.6,0.4,1,1,1h3.5c6.5,0,12.3,2.5,16.3,7.1c3.5,4,5.4,9.3,5.4,14.9c0,10.9-7.4,22-21.6,22h-3.5c-0.6,0-1,0.4-1,1v3.5
		c0,14.3-11.1,21.8-22,21.8s-22-7.5-22-21.8v-3.5c0-0.6-0.4-1-1-1h-3.5c-14.3,0-21.8-11.1-21.8-22
		C103.9,212,111.4,200.9,125.8,200.9L125.8,200.9z M248.6,408.1h-193c-3.3,0-6-2.7-6-6c0-3.3,2.7-6,6-6h193c3.3,0,6,2.7,6,6
		S251.9,408.1,248.6,408.1z M248.6,363.9h-193c-3.3,0-6-2.7-6-6s2.7-6,6-6h193c3.3,0,6,2.7,6,6S251.9,363.9,248.6,363.9z
		 M248.6,319.7h-193c-3.3,0-6-2.7-6-6c0-3.3,2.7-6,6-6h193c3.3,0,6,2.7,6,6C254.6,317,251.9,319.7,248.6,319.7z"/>
	<path class="st1" d="M458.3,24.9H202.7c-2.3,0-4.2,1.9-4.2,4.2v97.6c0,0.6,0.4,1,1,1h21c1.6,0,3.1,0.6,4.2,1.8l74.1,74.1
		c1.1,1.1,1.8,2.7,1.8,4.2v126.6c0,0.4,0.3,0.8,0.6,0.9c0.4,0.1,0.8,0,1.1-0.3c17.2-19.4,40.7-30.1,66-30.1
		c35.4,0,66.3,20.7,82.5,55.5l4,8.6c0.2,0.4,0.5,0.6,0.9,0.6h2.5c2.3,0,4.2-1.9,4.2-4.2V29.1C462.5,26.8,460.6,24.9,458.3,24.9
		L458.3,24.9z M426.3,78.8c-3.3,0-6-2.7-6-6c0-4.3-3.9-8.3-10-10.3c-0.3-0.1-0.6,0-0.9,0.1c-0.3,0.2-0.4,0.5-0.4,0.8v21.1
		c0,0.5,0.3,0.9,0.8,1c11.2,2.7,22.6,7.4,22.6,22c0,10.9-9.3,20.2-22.5,22.8c-0.5,0.1-0.8,0.5-0.8,1v1.3c0,3.3-2.7,6-6,6s-6-2.7-6-6
		v-1.3c0-0.5-0.3-0.9-0.8-1c-13.3-2.5-22.5-11.9-22.5-22.8c0-3.3,2.7-6,6-6c3.3,0,6,2.7,6,6c0,4.3,3.9,8.3,10,10.3
		c0.3,0.1,0.6,0,0.9-0.1c0.3-0.2,0.4-0.5,0.4-0.8V95.8c0-0.5-0.3-0.9-0.8-1c-11.2-2.7-22.6-7.4-22.6-22c0-10.9,9.3-20.2,22.5-22.8
		c0.5-0.1,0.8-0.5,0.8-1v-1.3c0-3.3,2.7-6,6-6s6,2.7,6,6v1.3c0,0.5,0.3,0.9,0.8,1c13.3,2.5,22.5,11.9,22.5,22.8
		C432.3,76.1,429.6,78.8,426.3,78.8z M231.4,64.9H344c3.3,0,6,2.7,6,6c0,3.3-2.7,6-6,6H231.4c-3.3,0-6-2.7-6-6
		C225.4,67.5,228.1,64.9,231.4,64.9z M231.4,115.6c-3.3,0-6-2.7-6-6c0-3.3,2.7-6,6-6H344c3.3,0,6,2.7,6,6c0,3.3-2.7,6-6,6H231.4z
		 M367.5,290.6c-32.6,0-59.1-26.5-59.1-59.1c0-32.6,26.5-59,59.1-59c32.6,0,59,26.5,59,59C426.6,264.1,400.1,290.6,367.5,290.6z"/>
	<path class="st0" d="M496.2,485.7L440,365.5c-10.6-22.7-28.3-38.8-49.9-45.4c-0.3-0.1-0.7,0-1,0.2c-0.3,0.2-0.4,0.6-0.3,0.9
		l15.8,86.2c0.4,2.1-0.4,4.3-2.1,5.7l-30.4,25.3c-2.2,1.8-5.5,1.8-7.7,0l-30.4-25.3c-1.7-1.4-2.4-3.5-2.1-5.7l15.4-86.1
		c0.1-0.3-0.1-0.7-0.3-0.9c-0.3-0.2-0.6-0.3-1-0.2c-21.4,6.6-38.9,22.7-49.5,45.2l-56.3,120.2c-0.1,0.3-0.1,0.7,0.1,1
		s0.5,0.5,0.8,0.5h56.3c0.4,0,0.7-0.2,0.9-0.6l16.9-36.2c1-2.1,3.1-3.5,5.4-3.5c0.9,0,1.7,0.2,2.5,0.6c1.5,0.7,2.6,1.9,3.1,3.4
		c0.5,1.5,0.5,3.1-0.2,4.6l-14.2,30.3c-0.1,0.3-0.1,0.7,0.1,1s0.5,0.5,0.8,0.5h110.5c0.3,0,0.7-0.2,0.8-0.5s0.2-0.7,0.1-1
		l-14.2-30.3c-0.7-1.5-0.8-3.1-0.2-4.6c0.5-1.5,1.6-2.7,3.1-3.4c0.8-0.4,1.7-0.6,2.5-0.6c2.3,0,4.5,1.4,5.4,3.5l16.9,36.2
		c0.2,0.4,0.5,0.6,0.9,0.6h56.3c0.3,0,0.7-0.2,0.8-0.5S496.4,486,496.2,485.7L496.2,485.7z"/>
	<path class="st1" d="M368.3,317c-2.3,0-4.7,0.1-7.2,0.4c-0.4,0-0.8,0.4-0.9,0.8l-15.7,87.5c-0.1,0.4,0.1,0.7,0.3,0.9l22.8,19
		c0.2,0.2,0.4,0.2,0.6,0.2s0.5-0.1,0.6-0.2l22.8-19c0.3-0.2,0.4-0.6,0.3-0.9l-16-87.5c-0.1-0.4-0.4-0.8-0.9-0.8
		C372.8,317.1,370.5,317,368.3,317L368.3,317z"/>
	<path class="st2" d="M125.8,232.9h10.5c3.3,0,6,2.7,6,6v10.5c0,7.3,5.4,9.8,10,9.8c4.6,0,10-2.6,10-9.8v-10.5c0-3.3,2.7-6,6-6h10.5
		c7.1,0,9.6-5.4,9.6-10c0-2.7-0.9-5.3-2.4-7.1c-1.7-1.9-4.1-2.9-7.2-2.9h-10.5c-3.3,0-6-2.7-6-6v-10.5c0-7.3-5.4-9.8-10-9.8
		c-4.6,0-10,2.6-10,9.8v10.5c0,3.3-2.7,6-6,6h-10.5c-7.3,0-9.8,5.4-9.8,10C115.9,227.5,118.5,232.9,125.8,232.9L125.8,232.9z"/>
	<path class="st2" d="M227.1,149.7c-0.4,0.2-0.6,0.5-0.6,0.9v50.2c0,0.6,0.4,1,1,1h50.2c0.4,0,0.8-0.2,0.9-0.6
		c0.2-0.4,0.1-0.8-0.2-1.1l-50.2-50.2C227.9,149.6,227.5,149.5,227.1,149.7z"/>
</g>
</svg>
