<svg id="Layer_1" data-name="Layer 1" xmlns="http://www.w3.org/2000/svg" viewBox="0 0 673.79 674.37"><defs><style>.cls-1{fill:#4fc3a0;}.cls-2{fill:#0092c9;}</style></defs><path class="cls-1" d="M846.78,473.78c-5.08-.71-11.87,2-14.85-1.43s-2.59-10.13-3.7-15.38C805.11,347.47,714.5,259,604.39,238.72c-7-1.28-8.54-3.73-8.53-10.57a46.12,46.12,0,0,0-45.93-46.1c-4,.7-8,1.09-11.89,2.15-20.75,5.73-33.68,23.45-33.56,46.42,0,4.91-1.14,7-6.24,7.66a177.23,177.23,0,0,0-34.55,8.56Q308.25,301.43,271.06,462c-2.56,11-2.15,11.14-13.81,11.6-27.08,1.06-47.47,25.75-43.31,52.44,3.75,24,22.51,39.31,48.63,39.09,5.1,0,7.23,1,8.25,6.37A285.06,285.06,0,0,0,493.06,797c11.12,2.29,11.12,2.29,11.3,13.22.39,25,18.86,44.43,43.7,46.07,23.3,1.54,44.37-16.35,47.78-40.41.8-5.67-2.44-13.24,1.7-16.57s11.57-2.56,17.4-4.14q171.84-46.46,214.12-219.43c2.51-10.22,2.23-10.29,12.59-10.53a46.13,46.13,0,0,0,45.49-44.31C888.25,497.73,870.57,477.11,846.78,473.78ZM600.84,254.42Q761,290.85,809.14,447.81c2.17,7.06,3.25,14.44,5.08,21.6.85,3.36-.09,4.2-3.46,4.17-16.19-.15-32.38-.19-48.56,0-3.79.05-4.76-1.47-5.66-4.8Q727.13,359.64,621.45,319.28A179.75,179.75,0,0,0,600.21,313c-3.32-.82-4.28-2.22-4.2-5.48.21-8.32.07-16.64.07-25,0-8.09.18-16.19-.07-24.28C595.89,254.32,596.71,253.48,600.84,254.42Zm-80.08-25.35c.07-15.24,10.2-27.32,24.24-29.6,14.52-2.35,27.72,5.18,32.74,18.71a34.89,34.89,0,0,1,2,12.54c0,15.5,0,31,0,46.49,0,15.94.19,31.89-.06,47.83-.26,17.23-13.27,30-29.94,29.78-16.2-.18-28.86-13.06-29-30.07Q520.5,276.92,520.76,229.07ZM286.34,468.8q26.73-128.73,142.88-190.13c22.12-11.7,45.72-19.38,70.31-24.21,5.07-1,4.94.79,4.87,4.42-.16,8.09,0,16.19,0,24.28s-.16,16.2.08,24.28c.1,3.3-.92,4.61-4.16,5.5q-122.74,33.69-156.5,156.47c-.87,3.2-2.16,4.22-5.48,4.19q-23.94-.28-47.89,0C286.63,473.62,285.45,473.08,286.34,468.8ZM261.2,548.88c-18.26-.11-31.59-12.8-31.41-29.73S243,490,261,489.9q46.81-.13,93.64,0c17.93.06,31,12.57,31,29.37s-13,29.45-30.82,29.6c-15.72.14-31.44,0-47.16,0C292.19,548.9,276.69,549,261.2,548.88ZM504.35,782.17C396.46,763.9,308.19,678.13,287.27,572c-1.08-5.45-.38-7.11,5.67-6.9,14.81.5,29.66.34,44.49,0,4.25-.08,5.47,1.37,6.58,5.34q33.81,120.89,154.71,155c4.24,1.2,5.82,2.4,5.74,6.92C504.18,748.81,504.35,765.21,504.35,782.17Zm75.35,26.14c-.05,18.33-12.64,31.63-29.61,31.53s-29.3-13.38-29.37-31.78c-.06-15.49,0-31,0-46.49s-.07-31,0-46.49C520.84,697.1,533.2,684,550,684c17.13-.08,29.65,13,29.7,31.37Q579.82,761.82,579.7,808.31ZM595,704.83c-4.64-22.47-22.5-37.22-44.66-37.26s-40.33,14.78-44.82,37c-1,4.71-2.32,5.41-6.95,4q-105.78-32.24-137.68-138c-1.37-4.52-.31-5.58,3.92-6.46,22.47-4.64,37.21-22.49,37.24-44.67S387.3,479.18,365,474.67c-4.84-1-5.33-2.48-4-7Q393.2,361.87,499,330.1c1.07-.32,2.13-.68,3.34-1.06,3.76.29,2.55,3.66,3,5.59,4.43,18.51,15.7,30.45,34.07,35.24,24.6,6.42,50.27-9.47,55.17-34.41,1.2-6.12,3-6.79,8.57-5C672.94,352.32,718.46,398,739.53,468.15c1.34,4.47.41,5.57-3.89,6.45-22.46,4.64-37.22,22.52-37.24,44.66s14.77,40.36,37,44.83c4.73.95,5.42,2.33,4,6.95q-32.25,105.8-138,137.69C596.92,710.09,595.86,709.07,595,704.83Zm1.11,77.31c0-17.57,0-35,0-52.53,0-3.8,2.91-3.28,5.14-3.87q86.87-22.95,132.91-100.1a198.09,198.09,0,0,0,22.32-55.25c1-4.15,2.56-5.28,6.67-5.22,16.83.23,33.67.09,50.56.09C799,662.31,716.89,761.67,596.09,782.14ZM851.72,546.76a35.43,35.43,0,0,1-13.18,2.16c-15.27,0-30.54,0-45.81,0-15.49,0-31,.07-46.48,0-18.38-.09-31.52-12.51-31.48-29.61s13.21-29.34,31.7-29.38c31.44-.06,62.88-.13,94.31.05,14.87.09,26.91,10.19,29.27,23.86C872.56,528.34,865.23,541.48,851.72,546.76Z" transform="translate(-213.4 -182.05)"/><path class="cls-2" d="M550.47,635.46q-20.57,0-41.12,0c-27.6,0-44-19.31-39.75-46.71,5.91-38.07,36.37-64.2,75-65.18,23.51-.6,45.16,3.53,62.85,20.29,16,15.13,24.12,33.74,23.88,55.82a36.29,36.29,0,0,1-35.66,35.72C580.58,635.62,565.52,635.46,550.47,635.46Z" transform="translate(-213.4 -182.05)"/><path class="cls-2" d="M550.14,416.52a45.67,45.67,0,0,1,46,45.52c.08,25.49-20.83,46.46-46.14,46.26a46.18,46.18,0,0,1-45.6-46.11A45.65,45.65,0,0,1,550.14,416.52Z" transform="translate(-213.4 -182.05)"/></svg>