<?xml version="1.0" encoding="utf-8"?>
<!-- Generator: Adobe Illustrator 24.1.0, SVG Export Plug-In . SVG Version: 6.00 Build 0)  -->
<svg version="1.1" id="Layer_1" xmlns="http://www.w3.org/2000/svg" xmlns:xlink="http://www.w3.org/1999/xlink" x="0px" y="0px"
	 viewBox="0 0 800 800" style="enable-background:new 0 0 800 800;" xml:space="preserve">
<style type="text/css">
	.st0{fill:#4FC3A0;}
	.st1{fill:#0092C9;}
	.st2{fill:#FFCB5B;}
	.st3{fill:#F4A947;}
	.st4{fill:#E28C37;}
	.st5{fill:#ADADAD;}
	.st6{fill:#FFFFFF;}
	.st7{fill:#C4C4C4;}
	.st8{fill:none;stroke:#70D7A4;stroke-width:8.6825;stroke-miterlimit:10;}
	.st9{fill:none;stroke:#0090D8;stroke-width:8.6825;stroke-miterlimit:10;}
	.st10{fill:#0072BA;}
	.st11{fill:#70D7A4;}
</style>
<g id="Clipboard_Insurance">
	<path class="st0" d="M528.5,157.6H199.6c-19.2,0-34.6,15.5-34.6,34.6v424.2c0,19.2,15.5,34.6,34.6,34.6h354.9
		c4.8,0,8.7-3.9,8.7-8.7l0,0V192.3C563.2,173.1,547.7,157.6,528.5,157.6z"/>
	<path class="st1" d="M208.3,192.3h311.6c4.8,0,8.7,3.9,8.7,8.7v406.8c0,4.8-3.9,8.7-8.7,8.7H208.3c-4.8,0-8.7-3.9-8.7-8.7V200.9
		C199.6,196.1,203.5,192.3,208.3,192.3z"/>
	<path class="st2" d="M658.9,460.6c-33.2-3-64.8-16.3-90.1-38c-3.2-2.7-7.9-2.7-11.1,0c-25.4,21.6-56.9,34.9-90.1,38
		c-4.5,0.3-8.1,4.1-8.1,8.7v75c0.1,62,41.8,116.3,101.6,132.4c1.5,0.4,3,0.4,4.4,0C625.4,660.6,667,606.2,667,544.2v-75
		C667,464.7,663.5,460.9,658.9,460.6L658.9,460.6z"/>
	<path class="st3" d="M634.2,483.3c-23.7-5.4-46.2-15.1-66.2-28.9c-2.9-1.9-6.8-1.9-9.7,0c-20,13.7-42.5,23.6-66.2,28.9
		c-4,0.9-6.8,4.4-6.8,8.4v52.5c0,47.5,30.2,89.8,75.1,105.2c1.8,0.6,3.8,0.6,5.6,0c44.9-15.4,75.1-57.7,75.1-105.2v-52.5
		C641.1,487.8,638.2,484.2,634.2,483.3z"/>
	<path class="st4" d="M554.5,573.4c-2.3,0-4.5-0.9-6.2-2.5L531,553.6c-3.4-3.4-3.5-8.9-0.1-12.2c3.4-3.4,8.9-3.5,12.2-0.1l0.1,0.1
		l11.1,11.1l28.5-28.5c3.4-3.4,8.9-3.4,12.2,0s3.4,8.9,0,12.2l0,0L560.5,571C559,572.5,556.8,573.4,554.5,573.4L554.5,573.4z"/>
	<path class="st5" d="M493.9,157.6h-46.6l-14.8-29.9c-1.5-2.9-4.5-4.8-7.8-4.8H312.1c-3.2,0-6.3,1.8-7.8,4.8l-14.8,29.9h-55.3v69.3
		c0,4.8,3.9,8.7,8.7,8.7h242.4c4.8,0,8.7-3.9,8.7-8.7V157.6z"/>
	<g>
		<path class="st6" d="M242.9,261.5h34.6c4.8,0,8.7,3.9,8.7,8.7v34.6c0,4.8-3.9,8.7-8.7,8.7h-34.6c-4.8,0-8.7-3.9-8.7-8.7v-34.6
			C234.2,265.4,238.1,261.5,242.9,261.5z"/>
		<path class="st6" d="M312.1,278.8h173.1c4.8,0,8.7-3.9,8.7-8.7s-3.9-8.7-8.7-8.7H312.1c-4.8,0-8.7,3.9-8.7,8.7
			S307.4,278.8,312.1,278.8z"/>
		<path class="st6" d="M312.1,313.4H416c4.8,0,8.7-3.9,8.7-8.7s-3.9-8.7-8.7-8.7H312.1c-4.8,0-8.7,3.9-8.7,8.7
			S307.4,313.4,312.1,313.4z"/>
		<path class="st6" d="M242.9,330.8h34.6c4.8,0,8.7,3.9,8.7,8.7V374c0,4.8-3.9,8.7-8.7,8.7h-34.6c-4.8,0-8.7-3.9-8.7-8.7v-34.6
			C234.2,334.6,238.1,330.8,242.9,330.8z"/>
		<path class="st6" d="M485.3,330.8H312.1c-4.8,0-8.7,3.9-8.7,8.7s3.9,8.7,8.7,8.7h173.1c4.8,0,8.7-3.9,8.7-8.7
			S490,330.8,485.3,330.8z"/>
		<path class="st6" d="M312.1,382.7H416c4.8,0,8.7-3.9,8.7-8.7s-3.9-8.7-8.7-8.7H312.1c-4.8,0-8.7,3.9-8.7,8.7
			S307.4,382.7,312.1,382.7z"/>
		<path class="st6" d="M242.9,400h34.6c4.8,0,8.7,3.9,8.7,8.7v34.6c0,4.8-3.9,8.7-8.7,8.7h-34.6c-4.8,0-8.7-3.9-8.7-8.7v-34.6
			C234.2,403.9,238.1,400,242.9,400z"/>
		<path class="st6" d="M485.3,400H312.1c-4.8,0-8.7,3.9-8.7,8.7s3.9,8.7,8.7,8.7h173.1c4.8,0,8.7-3.9,8.7-8.7S490,400,485.3,400z"/>
		<path class="st6" d="M312.1,451.9h60.6c4.8,0,8.7-3.9,8.7-8.7s-3.9-8.7-8.7-8.7h-60.6c-4.8,0-8.7,3.9-8.7,8.7
			S307.4,451.9,312.1,451.9z"/>
		<path class="st6" d="M242.9,469.3h34.6c4.8,0,8.7,3.9,8.7,8.7v34.6c0,4.8-3.9,8.7-8.7,8.7h-34.6c-4.8,0-8.7-3.9-8.7-8.7v-34.6
			C234.2,473.1,238.1,469.3,242.9,469.3z"/>
		<path class="st6" d="M416,469.3H312.1c-4.8,0-8.7,3.9-8.7,8.7s3.9,8.7,8.7,8.7H416c4.8,0,8.7-3.9,8.7-8.7S420.8,469.3,416,469.3z"
			/>
		<path class="st6" d="M312.1,521.2h60.6c4.8,0,8.7-3.9,8.7-8.7s-3.9-8.7-8.7-8.7h-60.6c-4.8,0-8.7,3.9-8.7,8.7
			S307.4,521.2,312.1,521.2z"/>
		<path class="st6" d="M242.9,538.5h34.6c4.8,0,8.7,3.9,8.7,8.7v34.6c0,4.8-3.9,8.7-8.7,8.7h-34.6c-4.8,0-8.7-3.9-8.7-8.7v-34.6
			C234.2,542.4,238.1,538.5,242.9,538.5z"/>
		<path class="st6" d="M416,538.5H312.1c-4.8,0-8.7,3.9-8.7,8.7s3.9,8.7,8.7,8.7H416c4.8,0,8.7-3.9,8.7-8.7S420.8,538.5,416,538.5z"
			/>
		<path class="st6" d="M372.7,573.1h-60.6c-4.8,0-8.7,3.9-8.7,8.7s3.9,8.7,8.7,8.7h60.6c4.8,0,8.7-3.9,8.7-8.7
			S377.5,573.1,372.7,573.1z"/>
	</g>
	<path class="st7" d="M407.3,192.3h-77.9c-4.8,0-8.7-3.9-8.7-8.7s3.9-8.7,8.7-8.7h77.9c4.8,0,8.7,3.9,8.7,8.7
		S412.1,192.3,407.3,192.3z"/>
</g>
<g>
	<path class="st8" d="M17,325.4c38.5-172.8,192.8-302,377.2-302C576,23.4,728.6,149,769.7,318.3"/>
	<path class="st9" d="M81,613c-91.9-144.6-74.7-338.6,51.5-464.8C256.9,23.8,447.3,5.4,591.2,93"/>
	<path class="st8" d="M705.4,203.4C797.3,348,780.2,542,654,668.2C529.5,792.6,339.1,811,195.2,723.4"/>
	<path class="st9" d="M769.7,490.6c-38.5,172.8-192.8,302-377.2,302C210.6,792.6,58.1,667,16.9,497.7"/>
	<circle class="st10" cx="662.8" cy="132" r="42.5"/>
	<circle class="st11" cx="118" cy="676.8" r="42.5"/>
</g>
</svg>
