<svg id="Layer_1" data-name="Layer 1" xmlns="http://www.w3.org/2000/svg" viewBox="0 0 847.47 878.84"><defs><style>.cls-1{fill:#4fc3a0}.cls-2{fill:#0092c9}</style></defs><path class="cls-1" d="M959.45 589.72c-2.48-17.43-9.94-28.36-24.07-38.2-42.58-29.67-88.74-50-140.08-57.8-7.18-1.09-8.75-3.54-8.74-10.34.23-84.83-.81-169.68.55-254.49.69-42.89-30.29-70.64-68.52-68.87-33.91 1.56-68 .27-102 .39-4.37 0-7.06-.56-9.34-5.3-8.1-16.87-23.35-25-42.06-22.62a357.56 357.56 0 0 0-36.85 6.3c-6.36 1.49-7.79-.35-8.94-6a69.3 69.3 0 0 0-136.08.55c-1.11 6-3.15 6.58-8.54 5.48-12.78-2.6-25.67-4.88-38.61-6.45-17.14-2.07-32.42 6.22-40 21.81-2.46 5-5.17 6.37-10.49 6.34-34.57-.26-69.14-.18-103.71-.09-5.5 0-11.12 0-16.46 1.12-30.28 6.2-49.21 30.29-49.24 62.71q-.11 166.47 0 332.93v334.68c0 36.45 25.67 63.56 60.76 63.59q274.53.24 549.07-.13c7.62 0 15.65 1.61 23-1.29 28.94-11.4 57-24.79 81.62-44 105.07-81.71 147.42-188.57 128.73-320.32Zm-348.15-388c.51-16.92.1-16.93 17.32-16.93 31.36 0 62.71-.07 94.07 0 24.78.08 39.49 14.69 39.57 39.48.14 42.39 0 84.78 0 127.18 0 43.55-.16 87.1.18 130.65 0 6.71-1.73 8.18-8.21 7.82-16.72-.91-16.74-.58-16.74-17V228.11c0-15.7-3-18.73-18.7-18.73-33.1 0-66.2-.17-99.3.14-6.13.06-8.4-.97-8.19-7.84Zm-295.63 11.7c.56-12.17.1-24.38.17-36.57.1-16.1 7.06-22.2 23.07-19.66 15.46 2.45 30.83 5.42 46.23 8.2 16.13 2.91 20.81-.85 21-17 .31-26.89 19.89-47.18 45.46-47.1s44.9 20.32 45.07 47.37c.09 15.55 4.92 19.55 20.53 16.8 14.84-2.61 29.66-5.35 44.49-8 18.45-3.3 25.39 2.54 25.41 21.37 0 11.91-.38 23.83.16 35.71.29 6.37-2 7.52-7.83 7.48-42.68-.24-85.35-.13-128-.13-42.39 0-84.78-.16-127.16.17-6.97.06-8.92-1.81-8.6-8.64Zm-9.53 32.93c26.44-.12 52.87 0 79.31 0q104.13 0 208.28.08c8.17 0 15.24-.83 17.53-10.28.85-3.49 3.6-2.27 5.64-2.27 30.21-.07 60.42.06 90.63-.16 4.72 0 5.69 1.48 5.69 5.9q-.19 122.45 0 244.88c0 5.36-1.78 6.85-6.83 7.3a283.22 283.22 0 0 0-67.72 15 53 53 0 0 1-17.85 2.94q-90.2-.15-180.39-.06c-2.33 0-4.66-.1-7 0-8.72.54-13.8 5.25-13.66 12.57.14 7.52 5 11.74 14.14 11.75q66.66.12 133.33 0h10.38c-13.22 9.3-24.55 17.56-36.2 25.35-6.14 4.11-10.87 8.82-11.08 16.55-.14 5.4-3.28 5.58-7.49 5.56q-42.69-.19-85.4 0c-3.45 0-7.12 0-10.29 1.17-5.11 1.83-7.64 6-7.35 11.6s3.1 9.41 8.43 10.81a38.57 38.57 0 0 0 9.51.74c26.72 0 53.45.16 80.17-.07 5.54 0 7.57.93 6.85 7.19a284.21 284.21 0 0 0 1.23 77.34c.92 5.78-1.75 5.92-6.11 5.9-27.89-.13-55.78 0-83.66-.09-4.11 0-8.16 0-11.62 2.65a11.43 11.43 0 0 0-4.31 13.17c1.68 5.55 5.81 8.52 11.75 8.54q22.23.08 44.45.06h48.8c3.27 0 6-.19 7 4.25 3.17 14.39 8.14 28.27 13.37 43H437c-11.67 0-17.31 4.18-17.18 12.53.12 8.12 5.3 11.85 16.71 11.86h113.29c4.33 0 7.38.47 9.71 5.06a316.68 316.68 0 0 0 60 81.73 15 15 0 0 1 1.48 2.13c-2 2.18-4.42 1.08-6.51 1.08q-208.29.09-416.57.24c-7.17 0-8.33-2.25-8.32-8.72q.24-315.9 0-631.81c0-6.34 1.24-8.22 7.93-8.12 29 .43 58.09.25 87.14.1 4.19 0 6.74.47 8.17 5.24 1.83 6.05 7.28 7.34 13.29 7.31ZM537.67 931.1H182.09c-27 0-41.4-14.27-41.4-41.24v-664.1c0-26.58 14.25-40.93 40.69-41 34-.07 68 .14 102-.16 6.19-.06 8.46 1 8.26 7.88-.49 16.87-.08 16.88-17.36 16.88H181.9c-12.71 0-16.53 3.81-16.53 16.59v664.09c0 12.83 3.9 16.41 17.68 16.41q228.78 0 457.55-.13c7.3 0 13.24 1.45 19.14 6 8.41 6.42 17.6 11.82 28.2 18.8Zm329.79-88c-32.28 38.59-72.76 66.14-119.3 85-3.67 1.49-6.45 1.1-9.83-.34C635 883.65 572.07 806.69 551.32 696.12c-6.93-36.91-5.1-74 2.27-110.84a12.64 12.64 0 0 1 5.3-8.32C614 535.2 675.22 514.21 770.07 513.9c42.22 0 103.91 21.81 158.89 63.45a11.75 11.75 0 0 1 4.78 7.82c17.54 96.16-3.27 182.61-66.28 257.93Z" transform="translate(-116.27 -76.89)"/><path class="cls-2" d="M539.6 395.32h101a55.78 55.78 0 0 1 8.68.34c5.89.95 9.16 4.68 9.71 10.58s-2 10.35-7.58 12.23a32.88 32.88 0 0 1-10.27 1.2q-101.83.09-203.67 0a37.19 37.19 0 0 1-6.93-.33c-6.87-1.3-11-5.35-10.6-12.59s4.66-10.94 11.77-11.39c2.89-.19 5.8-.08 8.7-.08ZM539.61 347.86h-101a58.22 58.22 0 0 1-8.67-.35c-6.28-1-9.82-4.86-10.09-11.17-.28-6.72 3.15-11 9.76-12.35a34 34 0 0 1 6.92-.51h205.4a35.36 35.36 0 0 1 7.77.63c6.19 1.42 9.39 5.55 9.25 11.88s-3.48 10.35-9.75 11.45a50.09 50.09 0 0 1-8.67.41q-50.44.04-100.92.01Z" transform="translate(-116.27 -76.89)"/><path class="cls-1" d="M469 143.83A17.86 17.86 0 0 1 451.79 162c-9.5.23-17.78-7.83-18-17.48a17.59 17.59 0 1 1 35.18-.68Z" transform="translate(-116.27 -76.89)"/><path class="cls-2" d="M261.14 450.21q52.73.24 105.45 0c15.86-.06 26.31-10.08 26.46-26.08q.46-52.71 0-105.44c-.16-15.9-10.73-25.69-26.71-25.82-17.43-.15-34.86 0-52.29 0s-34.86-.14-52.28 0c-15.84.16-26.34 10.32-26.44 26.09q-.34 52.72 0 105.44c.1 15.36 10.67 25.73 25.81 25.81Zm-1.6-126.7c0-4.8 1.13-6.42 6.18-6.38q48.31.33 96.64 0c5.81-.05 6.52 2.2 6.49 7.13q-.28 47.44 0 94.9c0 5.34-1.41 7-6.81 6.85-16-.34-31.92-.12-47.88-.12s-31.93-.21-47.89.12c-5.27.11-6.85-1.22-6.8-6.7.31-31.95.26-63.88.07-95.8ZM261.14 636.5q52.73.25 105.45 0c15.86-.06 26.31-10.08 26.46-26.07q.46-52.73 0-105.45c-.16-15.9-10.73-25.69-26.71-25.82-17.43-.15-34.86 0-52.29 0s-34.86-.14-52.28 0c-15.84.17-26.34 10.32-26.44 26.09q-.34 52.72 0 105.45c.1 15.36 10.67 25.73 25.81 25.8Zm-1.6-126.7c0-4.79 1.13-6.41 6.18-6.38 32.21.22 64.43.27 96.64 0 5.81-.06 6.52 2.19 6.49 7.12q-.28 47.46 0 94.9c0 5.35-1.41 7-6.81 6.86-16-.35-31.92-.13-47.88-.13s-31.93-.21-47.89.12c-5.27.12-6.85-1.22-6.8-6.7.31-31.94.26-63.87.07-95.79ZM261.14 822.79q52.73.26 105.45 0c15.86-.06 26.31-10.09 26.46-26.08q.46-52.72 0-105.44c-.16-15.9-10.73-25.69-26.71-25.83-17.43-.14-34.86 0-52.29 0s-34.86-.14-52.28 0c-15.84.16-26.34 10.32-26.44 26.08q-.34 52.73 0 105.45c.1 15.38 10.67 25.75 25.81 25.82Zm-1.6-126.7c0-4.79 1.13-6.41 6.18-6.37q48.31.33 96.64 0c5.81-.05 6.52 2.19 6.49 7.13q-.28 47.45 0 94.9c0 5.34-1.41 7-6.81 6.85-16-.34-31.92-.12-47.88-.12s-31.93-.22-47.89.12c-5.27.11-6.85-1.23-6.8-6.71.31-31.95.26-63.89.07-95.8ZM911.27 602.94c-1-6.18-4.13-10.33-9.25-13.91-47.58-33.24-100.46-49.5-158.31-50.18-57.91.63-110.79 16.91-158.39 50.09-5.4 3.76-8.38 8.16-9.36 14.73-3.88 26-4.91 52.09-1.09 78.13 14.76 100.69 68.5 172.75 160 217 6 2.91 11.2 2.82 17.32.1 113.05-50.17 179.74-174.14 159.08-295.96Zm-77.18 202.8c-22.77 28.55-51 50.57-83.61 67-5 2.5-8.8 2.59-13.65 0-78.1-41-124.28-104.84-137.65-192.23-1.72-11.26-1.75-22.57-2.27-33.56.55-11.34.68-22.36 2.24-33.34.56-3.95 2.27-6.11 5.28-8.22 79.55-55.71 198.67-55.74 278.25-.22 4.55 3.17 5.39 7.22 5.88 11.78 7.44 70.33-10.34 133.45-54.47 188.79Z" transform="translate(-116.27 -76.89)"/><path class="cls-2" d="M302.05 374.62c10.1-10.29 19.59-20 29.11-29.63a57.51 57.51 0 0 1 5.66-5.39c5.65-4.36 11.43-4.24 16.39.86s5.26 11.27.33 16.35q-22.71 23.4-46.09 46.13c-6.08 5.89-14 4.76-18.56-2.41-5.61-8.75-10.76-17.83-15.63-27-3.52-6.63-1.44-13.17 4.7-16.34 6.37-3.29 11.9-1.71 16 4 2.78 3.94 5.04 8.3 8.09 13.43ZM356.9 535.63c-.62 4.23-2.7 7.23-5.46 10-14 13.89-27.84 27.92-41.88 41.77-8.29 8.18-16 7.3-22-2.46-4.81-7.9-9.46-15.91-13.87-24-3.88-7.16-2.16-13.78 4-17.32s12.6-1.48 17.07 5.21c7.57 11.37 7.57 11.36 17.11 1.83 8-8 15.95-16 24.06-23.91 4.16-4 9.11-4.9 14.35-2.15 4.56 2.31 6.43 6.4 6.62 11.03ZM301.94 747.14c11-11.06 21.1-21.4 31.36-31.64 7.15-7.13 14.24-8 19.68-2.73 5.78 5.63 5.16 12.35-2.07 19.64q-20.52 20.69-41.22 41.19c-8.66 8.54-16.17 7.48-22.47-3-4.61-7.69-9.16-15.42-13.44-23.29-3.91-7.2-2.28-13.87 3.79-17.41 5.9-3.44 12.88-1.44 17.11 5.09 2.32 3.61 4.43 7.39 7.26 12.15ZM854.75 637.62c-4.08-13.7-13.7-22.28-27.5-25-14.15-2.81-26.49 1.63-35.69 13-21.66 26.87-43.15 53.87-65.49 81.8-5.05-6.84-9.47-12.94-14-18.94-13.35-17.65-35.52-21.46-52.08-9s-19.3 34.14-6.52 51.77q20.41 28.18 41.25 56.06c15.62 20.86 42.51 22.14 58.85 2.08 32.06-39.36 63.57-79.19 95.19-118.92 7.77-9.75 9.51-21.04 5.99-32.85Zm-24.76 17a30.69 30.69 0 0 1-3 4.25Q782.08 715 737.2 771.1c-3.33 4.16-6.8 8-12.71 8a14 14 0 0 1-10.09-6.1c-13.74-18.71-27.6-37.34-41.24-56.12-4.95-6.83-4.2-13.52 1.36-17.73 5.72-4.34 12.79-2.9 18 4 7.34 9.73 14.38 19.68 21.75 29.39s15.12 9.8 22.78.26q35.19-43.79 70.19-87.73a47.65 47.65 0 0 1 4.52-5.28c5-4.6 10.56-4.94 15.75-.79s5.67 9.81 2.49 15.62Z" transform="translate(-116.27 -76.89)"/></svg>