<svg version="1.1" id="Layer_1" xmlns="http://www.w3.org/2000/svg" x="0" y="0" viewBox="0 0 800 800" style="enable-background:new 0 0 800 800" xml:space="preserve"><style>.st6{fill:#fff}.st9{fill:none;stroke:#0090d8;stroke-width:12.6169;stroke-miterlimit:10}</style><g id="Clipboard_Insurance"><path d="M528.5 157.6H199.6c-19.2 0-34.6 15.5-34.6 34.6v424.2c0 19.2 15.5 34.6 34.6 34.6h354.9c4.8 0 8.7-3.9 8.7-8.7v-450c0-19.2-15.5-34.7-34.7-34.7z" style="fill:#4fc3a0"/><path d="M208.3 192.3h311.6c4.8 0 8.7 3.9 8.7 8.7v406.8c0 4.8-3.9 8.7-8.7 8.7H208.3c-4.8 0-8.7-3.9-8.7-8.7V200.9c0-4.8 3.9-8.6 8.7-8.6z" style="fill:#0092c9"/><path d="M658.9 460.6c-33.2-3-64.8-16.3-90.1-38-3.2-2.7-7.9-2.7-11.1 0-25.4 21.6-56.9 34.9-90.1 38-4.5.3-8.1 4.1-8.1 8.7v75c.1 62 41.8 116.3 101.6 132.4 1.5.4 3 .4 4.4 0C625.4 660.6 667 606.2 667 544.2v-75c0-4.5-3.5-8.3-8.1-8.6z" style="fill:#ffcb5b"/><path d="M634.2 483.3c-23.7-5.4-46.2-15.1-66.2-28.9-2.9-1.9-6.8-1.9-9.7 0-20 13.7-42.5 23.6-66.2 28.9-4 .9-6.8 4.4-6.8 8.4v52.5c0 47.5 30.2 89.8 75.1 105.2 1.8.6 3.8.6 5.6 0 44.9-15.4 75.1-57.7 75.1-105.2v-52.5c0-3.9-2.9-7.5-6.9-8.4z" style="fill:#f4a947"/><path d="M554.5 573.4c-2.3 0-4.5-.9-6.2-2.5L531 553.6c-3.4-3.4-3.5-8.9-.1-12.2 3.4-3.4 8.9-3.5 12.2-.1l.1.1 11.1 11.1 28.5-28.5c3.4-3.4 8.9-3.4 12.2 0s3.4 8.9 0 12.2L560.5 571c-1.5 1.5-3.7 2.4-6 2.4z" style="fill:#e28c37"/><path d="M493.9 157.6h-46.6l-14.8-29.9c-1.5-2.9-4.5-4.8-7.8-4.8H312.1c-3.2 0-6.3 1.8-7.8 4.8l-14.8 29.9h-55.3v69.3c0 4.8 3.9 8.7 8.7 8.7h242.4c4.8 0 8.7-3.9 8.7-8.7v-69.3h-.1z" style="fill:#adadad"/><path class="st6" d="M242.9 261.5h34.6c4.8 0 8.7 3.9 8.7 8.7v34.6c0 4.8-3.9 8.7-8.7 8.7h-34.6c-4.8 0-8.7-3.9-8.7-8.7v-34.6c0-4.8 3.9-8.7 8.7-8.7zM312.1 278.8h173.1c4.8 0 8.7-3.9 8.7-8.7s-3.9-8.7-8.7-8.7H312.1c-4.8 0-8.7 3.9-8.7 8.7s4 8.7 8.7 8.7zM312.1 313.4H416c4.8 0 8.7-3.9 8.7-8.7s-3.9-8.7-8.7-8.7H312.1c-4.8 0-8.7 3.9-8.7 8.7s4 8.7 8.7 8.7zM242.9 330.8h34.6c4.8 0 8.7 3.9 8.7 8.7V374c0 4.8-3.9 8.7-8.7 8.7h-34.6c-4.8 0-8.7-3.9-8.7-8.7v-34.6c0-4.8 3.9-8.6 8.7-8.6zM485.3 330.8H312.1c-4.8 0-8.7 3.9-8.7 8.7s3.9 8.7 8.7 8.7h173.1c4.8 0 8.7-3.9 8.7-8.7s-3.9-8.7-8.6-8.7zM312.1 382.7H416c4.8 0 8.7-3.9 8.7-8.7s-3.9-8.7-8.7-8.7H312.1c-4.8 0-8.7 3.9-8.7 8.7s4 8.7 8.7 8.7zM242.9 400h34.6c4.8 0 8.7 3.9 8.7 8.7v34.6c0 4.8-3.9 8.7-8.7 8.7h-34.6c-4.8 0-8.7-3.9-8.7-8.7v-34.6c0-4.8 3.9-8.7 8.7-8.7zM485.3 400H312.1c-4.8 0-8.7 3.9-8.7 8.7s3.9 8.7 8.7 8.7h173.1c4.8 0 8.7-3.9 8.7-8.7s-3.9-8.7-8.6-8.7zM312.1 451.9h60.6c4.8 0 8.7-3.9 8.7-8.7s-3.9-8.7-8.7-8.7h-60.6c-4.8 0-8.7 3.9-8.7 8.7s4 8.7 8.7 8.7zM242.9 469.3h34.6c4.8 0 8.7 3.9 8.7 8.7v34.6c0 4.8-3.9 8.7-8.7 8.7h-34.6c-4.8 0-8.7-3.9-8.7-8.7V478c0-4.9 3.9-8.7 8.7-8.7zM416 469.3H312.1c-4.8 0-8.7 3.9-8.7 8.7s3.9 8.7 8.7 8.7H416c4.8 0 8.7-3.9 8.7-8.7s-3.9-8.7-8.7-8.7zM312.1 521.2h60.6c4.8 0 8.7-3.9 8.7-8.7s-3.9-8.7-8.7-8.7h-60.6c-4.8 0-8.7 3.9-8.7 8.7 0 4.8 4 8.7 8.7 8.7zM242.9 538.5h34.6c4.8 0 8.7 3.9 8.7 8.7v34.6c0 4.8-3.9 8.7-8.7 8.7h-34.6c-4.8 0-8.7-3.9-8.7-8.7v-34.6c0-4.8 3.9-8.7 8.7-8.7zM416 538.5H312.1c-4.8 0-8.7 3.9-8.7 8.7s3.9 8.7 8.7 8.7H416c4.8 0 8.7-3.9 8.7-8.7s-3.9-8.7-8.7-8.7zM372.7 573.1h-60.6c-4.8 0-8.7 3.9-8.7 8.7s3.9 8.7 8.7 8.7h60.6c4.8 0 8.7-3.9 8.7-8.7s-3.9-8.7-8.7-8.7z"/><path d="M407.3 192.3h-77.9c-4.8 0-8.7-3.9-8.7-8.7s3.9-8.7 8.7-8.7h77.9c4.8 0 8.7 3.9 8.7 8.7s-3.9 8.7-8.7 8.7z" style="fill:#c4c4c4"/></g><path d="M21.4 319.3C60.1 145.5 215.3 15.5 400.9 15.5c182.9 0 336.4 126.4 377.8 296.7" style="fill:none;stroke:#70d7a4;stroke-width:12.6169;stroke-miterlimit:10"/><path class="st9" d="M78.4 582.8C37.7 507.1 22.7 417.2 42 326.6c16.1-75.8 54-141.3 105.7-191.5"/><path d="M709.1 201.8c92.4 143.5 75.2 336-51.8 461.3-20.3 20-42.3 37.3-65.6 51.8" style="fill:none;stroke:#70d7a4;stroke-width:12.5311;stroke-miterlimit:10"/><path class="st9" d="M778.6 485.5c-38.7 173.8-193.9 303.8-379.5 303.8-182.9 0-336.4-126.4-377.8-296.7"/><circle cx="671.1" cy="124.8" r="42.7" style="fill:#0072ba"/><circle cx="123" cy="672.8" r="42.7" style="fill:#70d7a4"/></svg>