<svg id="Layer_1" data-name="Layer 1" xmlns="http://www.w3.org/2000/svg" viewBox="0 0 658.72 658.58"><defs><style>.cls-2{fill:#0092c9}</style></defs><path d="M851.33 565.32c-11-19-25.92-34.47-44.08-46.81-2.87-2-5.37-3.72-5.08-8.06 1.55-22.89 1.64-45.77-2.19-68.47-.83-4.92.58-8 4.32-11 11-8.9 21.86-17.9 32.89-26.73 13.68-11 15.79-20.56 7-35.78-18.78-32.42-37.39-64.93-56.25-97.3-7.37-12.65-16.73-15.81-30.35-10.78l-42.18 15.56c-4.5 1.66-8.1 1-11.86-2-23.32-18.82-48.64-34.26-76.92-44.5-4.23-1.53-5.87-4-6.53-8.36-2.34-15.24-4.93-30.43-7.35-45.66-2.19-13.78-9.28-19.73-23.09-19.73H472.1c-14.19 0-20.77 5.5-23.13 19.56s-5.34 28.2-7.17 42.43c-.81 6.27-3.5 9.76-9.51 12.05A264.06 264.06 0 0 0 358 272.4c-4.33 3.55-8.34 4-13.56 2-14.44-5.6-28.7-11.4-43.27-16.46q-18.32-6.36-27.89 10.22Q243.84 319 214.55 370a25 25 0 0 0-3.25 10.27c-1.1 10.88 6 16.92 13 22.92 9.92 8.48 19.83 17 30.16 25 5.25 4.06 6.09 8.33 5 14.43a250 250 0 0 0-.26 83.66c1.16 6.95-.63 11.22-6 15.3-11.44 8.64-22.15 18.24-33.51 27-7.58 5.83-9.76 13.12-8.89 22 .48 4.82 3 8.87 5.35 12.95 18.34 31.68 36.53 63.45 54.92 95.11 7.47 12.86 16.92 16.71 30.66 11.7 13.48-4.92 27.1-9.46 40.35-14.94 5.93-2.46 10.26-1.78 15.17 2.28a262 262 0 0 0 73.57 42.68c5.47 2.1 8.05 5.31 9 11.08 2.47 15.43 4.53 30.93 7.49 46.28 1.74 9 6.31 15.26 16 16.64h131.04c9.6-1.59 14.13-8 15.76-16.92 2.82-15.57 5.58-31.16 8.18-46.77 1.6-9.59 7.27-11.51 14.73-5.28 31.49 26.32 67.41 39 108.62 34.73 46.68-4.89 82.45-27.8 107.68-67 11.57-18 18.89-37.72 20-59.38v-30.96c-.62-20.78-7.75-39.68-17.99-57.46ZM599.49 708.09c-11.47 2.45-17 9.83-18.51 21.52-1.77 14-4.9 27.79-7 41.73-.56 3.65-1.89 4.47-5.29 4.43-13.49-.17-27-.07-40.47-.07-12.85 0-25.71-.12-38.55.07-3.78.06-5.47-.58-6.07-5-2.08-15.25-4.85-30.41-7.3-45.61-1.36-8.45-6.12-13.89-14.25-16.42a236.51 236.51 0 0 1-92.82-54c-6.38-6-13.64-7.31-21.92-4.19-14.37 5.43-28.88 10.48-43.22 16-3.37 1.3-4.79.55-6.45-2.37q-19.71-34.5-39.74-68.82c-1.94-3.31-1.52-5 1.4-7.27 11.43-9 22.5-18.48 34-27.41 8.42-6.54 10.95-14.38 8.62-24.82a226.54 226.54 0 0 1 .35-102.46c2.42-10.29.06-18.28-8.38-24.94-11.42-9-22.33-18.68-33.67-27.8-3-2.41-3.16-4.11-1.27-7.33q19.92-34 39.42-68.26c2.06-3.64 3.82-4 7.5-2.5 13.87 5.53 28 10.51 41.83 16.05 8.75 3.49 16.22 2.06 23-4.24a233.32 233.32 0 0 1 92.64-53c8-2.4 12.93-7.88 14.35-16.38 2.48-15 5.25-29.9 7.64-44.89.64-4.06 2-5.5 6.43-5.46 25.92.26 51.83.33 77.74 0 5-.07 6 1.87 6.64 5.93 2.11 14.17 4.61 28.28 6.6 42.46 1.4 10 6.42 16.23 16.18 19.25a229.86 229.86 0 0 1 90.58 52.81c7 6.55 14.56 8.07 23.56 4.59 13.93-5.39 28.06-10.26 42-15.6 3.38-1.29 5-1 6.93 2.4q19.57 34.58 39.73 68.81c2 3.47 1.3 4.92-1.48 7.12-11.24 8.9-22.1 18.3-33.5 27-8.91 6.8-11.83 14.91-9.12 25.82 4.83 19.44 5.76 39.29 5.44 59.28-.1 5.6-2.09 5.55-6.31 4.55-11.3-2.67-22.88-4.1-34.39-2.94-6.91.69-7.38-1.58-7.17-7.36a169.23 169.23 0 0 0-16.75-80.84c-29.4-60.55-77.28-97.17-144.15-106.47-102.48-14.26-195.65 58.13-209 161.14C332.8 559.07 401 651.65 496.36 668c29.4 5 58.36 3.88 86.9-4.92 3.84-1.18 5.18-.45 5.89 3.48A121.71 121.71 0 0 0 601.66 702c1.65 3.12 2.61 5.07-2.17 6.09Zm-11.6-92.17c-.61 3.55-1.85 5.57-5.37 6.88a150.81 150.81 0 0 1-52.72 9.66c-75.68.21-139.29-57.7-146.5-133.34-8.61-90.41 65.93-166.84 156.62-160.58 82.15 5.66 144 78.07 136.55 159.79-.45 5-2 8-7.17 10.44-45.39 21.71-72.87 57.35-81.41 107.15Zm139.72 124.84a103.21 103.21 0 1 1 .45-206.41c56.7.13 102.92 46.81 102.74 103.75-.18 56.44-46.8 102.79-103.19 102.66Z" transform="translate(-210.64 -155.67)" style="fill:#4fc3a0"/><path class="cls-2" d="M556.89 446.93c-3.6.28-7.06-1.39-10.48-3.21-6.09-3.23-12.41-5.75-19.4-6-4.89-.16-9.17 1.48-10.86 6.26-1.78 5 1.31 8.66 5.22 11.32 5.9 4 12.82 5.71 19.44 8.07 8.07 2.88 15.93 6.08 22.82 11.35 31.88 24.42 26.91 72.13-9.38 89.38-3 1.41-5.1 2.37-5.35 6.63-.65 11-8.94 18.54-19.14 18.56-10 0-17.71-7-19-17.93-.35-3.06-1.7-3.88-4.14-4.54a79.06 79.06 0 0 1-20.45-8.93c-11-6.67-14.48-18-8.56-27.75 5.79-9.56 17.26-11.83 28.06-5.4a49.27 49.27 0 0 0 16.67 6.3 26 26 0 0 0 13.31-.8c5.7-2 9.5-5.6 10.26-11.85s-1.88-10.81-7.11-13.93c-7-4.17-15-6-22.57-8.87-10.55-4-20.05-9.46-27.46-18.19-20.53-24.19-13.37-59.06 15.16-73 3.92-1.91 6.69-3.45 7.43-8.75 1.21-8.61 10-14.61 18.72-14.43 9.06.17 16.91 6.35 18.3 15.74.75 5 2.91 7.13 7.37 8.68A59.56 59.56 0 0 1 568.3 412a19.11 19.11 0 0 1 7.66 22c-2.46 7.71-10.09 13-19.07 12.93ZM787.23 610.28a18.54 18.54 0 0 1-5.62 13.86C763.77 642.05 746 660 728 677.72c-8.53 8.39-19.51 8.32-28.06.07-8.78-8.47-17.4-17.13-25.89-25.89-8-8.21-7.95-20-.24-27.59s19.3-7.33 27.61.6a121.52 121.52 0 0 1 9.05 9.11c2.56 3 4.15 3 7 .06 12.09-12.44 24.42-24.64 36.74-36.86 6.07-6 13.31-7.49 21.25-4.44a18.55 18.55 0 0 1 11.77 17.5Z" transform="translate(-210.64 -155.67)"/></svg>