<?xml version="1.0" encoding="utf-8"?>
<!-- Generator: Adobe Illustrator 24.1.0, SVG Export Plug-In . SVG Version: 6.00 Build 0)  -->
<svg version="1.1" id="Layer_1" xmlns="http://www.w3.org/2000/svg" xmlns:xlink="http://www.w3.org/1999/xlink" x="0px" y="0px"
	 viewBox="0 0 512 512" style="enable-background:new 0 0 512 512;" xml:space="preserve">
<style type="text/css">
	.st0{fill:#0092C9;}
	.st1{fill-rule:evenodd;clip-rule:evenodd;fill:#0084AD;}
	.st2{fill-rule:evenodd;clip-rule:evenodd;fill:#4FC3A0;}
	.st3{fill-rule:evenodd;clip-rule:evenodd;fill:#46AA89;}
	.st4{fill:#F5F5F5;}
	.st5{fill-rule:evenodd;clip-rule:evenodd;fill:#FF4B55;}
	.st6{fill-rule:evenodd;clip-rule:evenodd;fill:#41479B;}
	.st7{fill-rule:evenodd;clip-rule:evenodd;fill:#FFFFFF;}
</style>
<circle class="st0" cx="256" cy="256" r="256"/>
<path class="st1" d="M498.6,338c-0.6,1.7-1.1,3.3-1.7,5c-28.3,78.2-92.8,137.8-173,160l-70-61.9l4.2-4.5l4.4-4.9l4.6-5.3l4.8-5.7
	l4.9-6l5-6.3l5.1-6.6l5.2-6.8l5.2-7.1l5.3-7.3l5.3-7.5l5.3-7.6l5.2-7.8l5.2-7.9l5.1-8l5-8.1l4.8-8.1l4.7-8.2l4.5-8.2l4.3-8.2
	l4.1-8.1l3.9-8.1l3.6-8l3.3-7.9l3-7.8l2.7-7.6l2.3-7.5l2-7.3l1.6-7.1l1.1-6.8l0.7-6.6l0.2-6.3v-0.5v-0.5v-0.5v-0.5v-0.5v-0.5v-0.5
	v-0.5v-0.5v-0.5v-0.5v-0.5v-0.5v-0.5v-0.5v-0.5v-0.1v-0.5v-0.5v-0.5v-0.5v-0.5v-0.5v-0.5v-0.5v-0.5v-0.5v-0.5v-0.5v-0.5v-0.5v-0.5
	v-0.5l0,0l0,0l0,0l0,0l0,0l0,0l0,0l0,0v-0.4V195v-0.4v-0.4v-0.4v-0.4l-0.1-0.4l-0.1-0.4l-0.1-0.4l-0.1-0.4l-0.1-0.4l-0.1-0.4
	l-0.1-0.4l-0.1-0.4l-0.1-0.4l-0.1-0.4l0,0l0,0l0,0l0,0l0,0l0,0l0,0l0,0l-0.1-0.4l-0.1-0.4l-0.1-0.4l-0.1-0.4l-0.1-0.4l-0.1-0.4
	l-0.1-0.4l-0.1-0.4l-0.1-0.4l-0.1-0.4l-0.1-0.4l-0.1-0.4l-0.1-0.4l-0.1-0.4l-0.1-0.4l-0.1-0.4l0,0l0,0l0,0l0,0l0,0l0,0l0,0l0,0
	l-0.1-0.4l-0.1-0.4l-0.1-0.4l-0.1-0.4l-0.1-0.4l-0.1-0.4l-0.1-0.4l-0.1-0.4l-0.1-0.4l-0.1-0.4l-0.1-0.4l-0.1-0.4l-0.1-0.4l-0.1-0.4
	l-0.1-0.4l-0.1-0.4v-0.1v-0.1v-0.1v-0.1v-0.1V176v-0.1v-0.1l-0.1-0.4l-0.1-0.4l-0.1-0.4l-0.1-0.4l-0.1-0.4l-0.1-0.4l-0.1-0.4
	l-0.1-0.4l-0.1-0.4l-0.1-0.4l-0.1-0.4l-0.1-0.4l-0.1-0.4l-0.1-0.4l-0.1-0.4l-0.1-0.4v-0.1v-0.1v-0.1V169v-0.1v-0.1v-0.1v-0.1
	l-0.1-0.4l-0.1-0.4l-0.1-0.4l-0.1-0.4l-0.1-0.4l-0.1-0.4l-0.1-0.4l-0.1-0.4l-0.1-0.4l-0.1-0.4l-0.1-0.4l-0.1-0.4l-0.1-0.4l-0.1-0.4
	l-0.1-0.4l-0.1-0.4v-0.1V162v-0.1v-0.1v-0.1v-0.1v-0.1v-0.1L373,161l-0.1-0.4l-0.1-0.4l-0.1-0.4l-0.1-0.4l-0.1-0.4l-0.1-0.4
	l-0.1-0.4l-0.1-0.3l-0.1-0.3l-0.1-0.3l-0.1-0.3l-0.1-0.3l-0.1-0.3l-0.1-0.3l-0.1-0.3v-0.1v-0.1v-0.1v-0.1v-0.1v-0.1v-0.1V155
	l-0.1-0.3l-0.1-0.3l-0.1-0.3l-0.1-0.3l-0.1-0.3l-0.2-0.3l-0.2-0.3l-0.2-0.3l-0.2-0.3L370,152l-0.2-0.3l-0.2-0.3l-0.2-0.3l-0.2-0.3
	l-0.2-0.3l-0.2-0.3v-0.1V150v-0.1v-0.1v-0.1v-0.1v-0.1v-0.1l-0.2-0.3l-0.2-0.3l-0.2-0.3l-0.2-0.3l-0.2-0.3l-0.2-0.3l-0.2-0.3
	l-0.2-0.3l-0.2-0.3l-0.2-0.3l-0.2-0.3l-0.2-0.3l-0.2-0.3l-0.2-0.3l-0.2-0.3l-0.2-0.3v-0.1v-0.1v-0.1v-0.1v-0.1V144v-0.1v-0.1
	l-0.2-0.3l-0.2-0.3l-0.2-0.3l-0.2-0.3l-0.2-0.3l-0.2-0.3l-0.2-0.3l-0.2-0.3l-0.2-0.3l-0.2-0.3l-0.2-0.3l-0.2-0.3l-0.2-0.3l-0.2-0.3
	l-0.2-0.3l-0.2-0.3v-0.1v-0.1v-0.1v-0.1v-0.1v-0.1v-0.1v-0.1l-0.2-0.3l-0.2-0.3l-0.2-0.3l-0.2-0.3l-0.2-0.3l-0.2-0.3l-0.2-0.3
	l-0.2-0.3l-0.2-0.3l-0.2-0.3l-0.2-0.3l-0.2-0.3l-0.2-0.3l-0.2-0.3l-0.2-0.3l-0.2-0.3v-0.1v-0.1v-0.1V133v-0.1v-0.1v-0.1v-0.1
	l-0.2-0.3l-2,1.7l-0.2-0.3l-0.2-0.3l-0.2-0.3l-0.2-0.3l-0.2-0.3l-0.2-0.3l-0.2-0.3l-0.2-0.3l-0.2-0.3L355,131l-0.2-0.3l-0.2-0.3
	l-0.2-0.3l-0.2-0.3l-0.1-0.1l-0.1-0.1l0,0.4l-0.1-0.1l-0.1-0.1l-0.1-0.1l-0.1-0.1l-0.1-0.1l-0.2-0.3l-0.2-0.3l-0.2-0.3l-0.2-0.3
	l-0.2-0.3l-0.2-0.3l-0.2-0.3l-0.2-0.3l-0.2-0.3l-0.2-0.3l-0.2-0.3l-0.2-0.3l155.7,180.5v0.1l0,0c0,0.1,0,0.3-0.1,0.4v0.1
	c0,0.2-0.1,0.5-0.2,0.7v0.1c-0.1,0.4-0.2,0.7-0.2,1.1v0.1c-0.1,0.5-0.2,1-0.3,1.4v0.2c-0.1,0.6-0.3,1.2-0.4,1.8v0.2
	c-0.2,0.7-0.3,1.4-0.5,2.2L505,315c-0.2,0.9-0.4,1.7-0.6,2.5l-0.1,0.2c-0.2,1-0.5,2-0.8,2.9l-0.1,0.2c-0.3,1.1-0.6,2.2-0.9,3.3
	l-0.1,0.2c-0.4,1.3-0.7,2.5-1.1,3.7l-0.1,0.2c-0.4,1.4-0.8,2.8-1.3,4.2v0.1C499.6,334.9,499.1,336.4,498.6,338L498.6,338z"/>
<path class="st2" d="M380.5,212.3c0-2.6-0.1-5.2-0.2-7.7v-0.1c-0.1-2.5-0.3-5-0.5-7.4c0-0.1,0-0.1,0-0.2c-0.2-2.4-0.5-4.7-0.8-7.1
	c0-0.1,0-0.2,0-0.3c-0.3-2.3-0.7-4.5-1.1-6.8c0-0.1,0-0.2-0.1-0.3c-0.4-2.2-0.9-4.3-1.4-6.4c0-0.1-0.1-0.3-0.1-0.4
	c-0.5-2.1-1.1-4.1-1.7-6.1c0-0.1-0.1-0.3-0.1-0.4c-0.6-2-1.3-3.9-2-5.9c-0.1-0.2-0.1-0.3-0.2-0.5c-0.7-1.9-1.4-3.8-2.2-5.6
	c-0.1-0.2-0.1-0.3-0.2-0.5c-0.8-1.8-1.6-3.6-2.5-5.3c-0.1-0.2-0.2-0.4-0.3-0.5c-0.9-1.7-1.7-3.4-2.7-5.1c-0.1-0.2-0.2-0.3-0.3-0.5
	c-0.9-1.6-1.9-3.2-2.9-4.8c-0.1-0.2-0.2-0.4-0.3-0.5c-1-1.6-2-3.1-3.1-4.6c-0.1-0.2-0.2-0.4-0.4-0.5c-1.1-1.5-2.1-2.9-3.3-4.3
	c-0.1-0.2-0.3-0.4-0.4-0.5c-1.1-1.4-2.3-2.8-3.4-4.1c-0.2-0.2-0.3-0.3-0.5-0.5c-1.2-1.3-2.4-2.6-3.6-3.8c-0.2-0.2-0.3-0.3-0.5-0.5
	c-1.2-1.2-2.5-2.4-3.8-3.6c-0.2-0.2-0.3-0.3-0.5-0.5c-1.3-1.2-2.6-2.3-3.9-3.4c-0.2-0.2-0.4-0.3-0.6-0.5c-1.3-1.1-2.7-2.1-4.1-3.2
	c-0.2-0.2-0.4-0.3-0.6-0.4c-1.4-1-2.8-2-4.2-2.9c-0.2-0.1-0.4-0.3-0.6-0.4c-1.4-0.9-2.9-1.8-4.3-2.7c-0.2-0.1-0.4-0.3-0.6-0.4
	c-1.5-0.9-2.9-1.7-4.4-2.5c-0.2-0.1-0.4-0.2-0.7-0.3c-1.5-0.8-3-1.6-4.5-2.3l-0.7-0.3c-1.5-0.7-3.1-1.4-4.6-2.1l-0.7-0.3
	c-1.6-0.6-3.1-1.3-4.7-1.8c-0.2-0.1-0.5-0.2-0.7-0.3c-1.6-0.6-3.2-1.1-4.8-1.6l-0.7-0.2c-1.6-0.5-3.2-1-4.9-1.4
	c-0.2-0.1-0.5-0.1-0.7-0.2c-1.6-0.4-3.3-0.8-5-1.2l-0.7-0.1c-1.7-0.4-3.3-0.7-5-1c-0.2,0-0.5-0.1-0.7-0.1c-1.7-0.3-3.4-0.5-5.1-0.8
	l-0.7-0.1c-1.7-0.2-3.4-0.4-5.1-0.6l-0.7-0.1c-1.7-0.1-3.4-0.3-5.2-0.3c-0.2,0-0.4,0-0.6,0c-1.7-0.1-3.5-0.1-5.2-0.1
	c-0.2,0-0.4,0-0.6,0c-0.6,0-1.2,0-1.8,0l0,0c-61.5,1-122.3,43.4-122.3,127.2c0,65.3,78.6,182.5,122.3,228.7
	C297.7,394.7,380.5,277.7,380.5,212.3L380.5,212.3z"/>
<path class="st3" d="M253.8,85v356c43.8-46.3,126.7-163.3,126.7-228.7c0-2.6-0.1-5.2-0.2-7.7v-0.1c-0.1-2.5-0.3-5-0.5-7.4v-0.2
	c-0.2-2.4-0.5-4.7-0.8-7.1v-0.3c-0.3-2.3-0.7-4.5-1.1-6.8l-0.1-0.3c-0.4-2.2-0.9-4.3-1.4-6.4l-0.1-0.4c-0.5-2.1-1.1-4.1-1.7-6.1
	l-0.1-0.4c-0.6-2-1.3-3.9-2-5.9l-0.2-0.5c-0.7-1.9-1.4-3.8-2.2-5.6l-0.2-0.5c-0.8-1.8-1.6-3.6-2.5-5.3l-0.3-0.5
	c-0.9-1.7-1.7-3.4-2.7-5.1l-0.3-0.5c-0.9-1.6-1.9-3.2-2.9-4.8l-0.3-0.5c-1-1.6-2-3.1-3.1-4.6l-0.4-0.5c-1.1-1.5-2.1-2.9-3.3-4.3
	l-0.4-0.5c-1.1-1.4-2.3-2.8-3.4-4.1l-0.5-0.5c-1.2-1.3-2.4-2.6-3.6-3.8l-0.5-0.5c-1.2-1.2-2.5-2.4-3.8-3.6l-0.5-0.5
	c-1.3-1.2-2.6-2.3-3.9-3.4l-0.6-0.5c-1.3-1.1-2.7-2.1-4.1-3.2l-0.6-0.4c-1.4-1-2.8-2-4.2-2.9l-0.6-0.4c-1.4-0.9-2.9-1.8-4.3-2.7
	l-0.6-0.4c-1.5-0.9-2.9-1.7-4.4-2.5l-0.7-0.3c-1.5-0.8-3-1.6-4.5-2.3l-0.7-0.3c-1.5-0.7-3.1-1.4-4.6-2.1l-0.7-0.3
	c-1.6-0.6-3.1-1.3-4.7-1.8l-0.7-0.3c-1.6-0.6-3.2-1.1-4.8-1.6l-0.7-0.2c-1.6-0.5-3.2-1-4.9-1.4l-0.7-0.2c-1.6-0.4-3.3-0.8-5-1.2
	l-0.7-0.1c-1.7-0.4-3.3-0.7-5-1l-0.7-0.1c-1.7-0.3-3.4-0.5-5.1-0.8l-0.7-0.1c-1.7-0.2-3.4-0.4-5.1-0.6l-0.7-0.1
	c-1.7-0.1-3.4-0.3-5.2-0.3h-0.6c-1.7-0.1-3.5-0.1-5.2-0.1c-0.2,0-0.4,0-0.6,0C255,85,254.4,85,253.8,85L253.8,85z"/>
<ellipse transform="matrix(0.7071 -0.7071 0.7071 0.7071 -69.1724 240.7245)" class="st4" cx="256" cy="203.9" rx="88.2" ry="88.2"/>
<g>
	<path class="st5" d="M243.9,296.9c-0.7-0.1-1.4-0.2-2.1-0.3C242.5,296.7,243.2,296.8,243.9,296.9z"/>
	<path class="st5" d="M246.3,297.2c-0.7-0.1-1.4-0.2-2.1-0.2C244.9,297,245.6,297.1,246.3,297.2z"/>
	<path class="st5" d="M248.7,297.4c-0.8-0.1-1.5-0.1-2.3-0.2C247.2,297.3,248,297.4,248.7,297.4z"/>
	<path class="st5" d="M251.1,297.6c-0.7,0-1.5-0.1-2.2-0.1C249.6,297.5,250.3,297.5,251.1,297.6z"/>
	<path class="st5" d="M253.5,297.7c-0.7,0-1.4,0-2.2-0.1C252,297.6,252.7,297.6,253.5,297.7z"/>
	<path class="st5" d="M258.3,297.7c-0.8,0-1.6,0-2.3,0c-0.8,0-1.6,0-2.3,0c0.8,0,1.6,0,2.3,0C256.8,297.7,257.6,297.7,258.3,297.7z"
		/>
	<path class="st5" d="M260.7,297.6c-0.7,0-1.4,0.1-2.2,0.1C259.3,297.6,260,297.6,260.7,297.6z"/>
	<path class="st5" d="M263.1,297.4c-0.7,0.1-1.5,0.1-2.2,0.1C261.7,297.5,262.4,297.5,263.1,297.4z"/>
	<path class="st5" d="M265.5,297.2c-0.8,0.1-1.5,0.1-2.3,0.2C264,297.4,264.8,297.3,265.5,297.2z"/>
	<path class="st5" d="M205.9,276.5H306C275.9,297.3,236.1,297.3,205.9,276.5L205.9,276.5z"/>
	<path class="st5" d="M306.1,131.3h-59.9v-15c3.3-0.4,6.5-0.5,9.8-0.5C273.9,115.7,291.3,121.1,306.1,131.3z"/>
	<path class="st5" d="M177,243h158c-4,8.1-9.3,15.6-15.6,22.1H192.6C186.3,258.6,181,251.1,177,243L177,243z"/>
	<path class="st5" d="M339.7,231.7H172.3c-2.4-7.2-3.8-14.6-4.3-22.1h176C343.5,217.1,342.1,224.5,339.7,231.7z"/>
	<path class="st5" d="M246.2,176.1h93.5c2.4,7.2,3.8,14.6,4.3,22.1h-97.8V176.1z"/>
	<path class="st5" d="M335,164.7h-88.9v-22.1h73.3C325.7,149.2,331,156.6,335,164.7z"/>
	<path class="st6" d="M234.8,118.3v79.9H168C170.5,159.8,197.5,127.5,234.8,118.3z"/>
	<path class="st7" d="M228.2,120.2l0.6,1.7c0,0.1,0,0.2-0.1,0.2h-0.1l-1.9-1.4C227.2,120.5,227.7,120.3,228.2,120.2z"/>
	<path class="st7" d="M218.3,124.1L218.3,124.1c0,0.1,0,0.2,0,0.2l-3.4,2.5c-0.1,0-0.1,0.1-0.1,0.2l1.3,4c0,0.1,0,0.1-0.1,0.2
		c-0.1,0-0.1,0-0.2,0l-3.4-2.5c-0.1,0-0.1,0-0.2,0l-3.4,2.5c-0.1,0-0.2,0-0.2,0v-0.1l0.6-1.9C212.2,127.3,215.2,125.6,218.3,124.1z"
		/>
	<path class="st7" d="M203.3,133.1h2.2c0.1,0,0.2,0.1,0.2,0.2c0,0,0,0.1-0.1,0.1l-3.4,2.5c-0.1,0-0.1,0.1-0.1,0.2l1.3,4
		c0,0.1,0,0.2-0.1,0.2h-0.1l-3.4-2.5c-0.1,0-0.1,0-0.2,0l-3.4,2.5c-0.1,0-0.2,0-0.2,0v-0.1l0.4-1.1
		C198.6,136.9,200.9,135,203.3,133.1L203.3,133.1z"/>
	<path class="st7" d="M189.7,145.8l1.1,3.4c0,0.1,0,0.2-0.1,0.2h-0.1l-2.4-1.8C188.6,147,189.1,146.4,189.7,145.8L189.7,145.8z"/>
	<path class="st7" d="M228.1,125.9l1.3,4c0,0.1,0.1,0.1,0.1,0.1h4.2c0.1,0,0.2,0.1,0.2,0.2c0,0,0,0.1-0.1,0.1l-3.4,2.5
		c-0.1,0-0.1,0.1-0.1,0.2l1.3,4c0,0.1,0,0.2-0.1,0.2h-0.1l-3.4-2.5c-0.1,0-0.1,0-0.2,0l-3.4,2.5c-0.1,0-0.2,0-0.2,0v-0.1l1.3-4
		c0-0.1,0-0.1-0.1-0.2l-3.4-2.5c-0.1,0-0.1-0.1,0-0.2l0.1-0.1h4.2c0.1,0,0.1,0,0.1-0.1l1.3-4c0-0.1,0.1-0.1,0.2-0.1
		C228,125.8,228,125.8,228.1,125.9L228.1,125.9z"/>
	<path class="st7" d="M216.5,136.4l1.3,4c0,0.1,0.1,0.1,0.1,0.1h4.2c0.1,0,0.1,0,0.1,0.1s0,0.1-0.1,0.2l-3.4,2.5
		c-0.1,0-0.1,0.1-0.1,0.2l1.3,4c0,0.1,0,0.2-0.1,0.2h-0.1l-3.4-2.5c-0.1,0-0.1,0-0.2,0l-3.4,2.5c-0.1,0-0.2,0-0.2,0v-0.1l1.3-4
		c0-0.1,0-0.1-0.1-0.2l-3.4-2.5c-0.1,0-0.1-0.1,0-0.2l0.1-0.1h4.2c0.1,0,0.1,0,0.1-0.1l1.3-4c0-0.1,0.1-0.1,0.1-0.1
		C216.4,136.3,216.4,136.3,216.5,136.4L216.5,136.4z"/>
	<path class="st7" d="M203.9,143.8l1.3,4c0,0.1,0.1,0.1,0.1,0.1h4.2c0.1,0,0.1,0,0.1,0.1s0,0.1-0.1,0.2l-3.4,2.5
		c-0.1,0-0.1,0.1-0.1,0.2l1.3,4c0,0.1,0,0.1-0.1,0.2c-0.1,0-0.1,0-0.2,0l-3.4-2.5c-0.1,0-0.1,0-0.2,0l-3.4,2.5c-0.1,0-0.1,0-0.2,0
		c-0.1,0-0.1-0.1-0.1-0.2l1.3-4c0-0.1,0-0.1-0.1-0.2l-3.4-2.5c-0.1,0-0.1-0.1-0.1-0.2c0-0.1,0.1-0.1,0.1-0.1h4.2
		c0.1,0,0.1,0,0.1-0.1l1.3-4C203.6,143.7,203.7,143.7,203.9,143.8C203.8,143.7,203.9,143.8,203.9,143.8L203.9,143.8z"/>
	<path class="st7" d="M192.4,154.6l1.3,4c0,0.1,0.1,0.1,0.1,0.1h4.2c0.1,0,0.1,0,0.1,0.1s0,0.1-0.1,0.2l-3.4,2.5
		c-0.1,0-0.1,0.1-0.1,0.2l1.3,4c0,0.1,0,0.2-0.1,0.2h-0.1l-3.4-2.5c-0.1,0-0.1,0-0.2,0l-3.4,2.5c-0.1,0-0.2,0-0.2,0v-0.1l1.3-4
		c0-0.1,0-0.1-0.1-0.2l-3.4-2.5c-0.1,0-0.1-0.1,0-0.2l0.1-0.1h4.2c0.1,0,0.1,0,0.1-0.1l1.3-4c0-0.1,0.1-0.1,0.1-0.1
		C192.3,154.5,192.4,154.5,192.4,154.6L192.4,154.6z"/>
	<path class="st7" d="M180.9,164.9l1.3,4c0,0.1,0.1,0.1,0.1,0.1h4.2c0.1,0,0.2,0.1,0.2,0.2c0,0,0,0.1-0.1,0.1l-3.4,2.5
		c-0.1,0-0.1,0.1-0.1,0.2l1.3,4c0,0.1,0,0.2-0.1,0.2h-0.1l-3.4-2.5c-0.1,0-0.1,0-0.2,0l-3.4,2.5c-0.1,0-0.2,0-0.2,0v-0.1l1.3-4
		c0-0.1,0-0.1-0.1-0.2l-3.4-2.5c0-0.1,0.1-0.2,0.1-0.3h4.2c0.1,0,0.1,0,0.1-0.1l1.3-4c0-0.1,0.1-0.1,0.1-0.1
		C180.8,164.8,180.9,164.8,180.9,164.9L180.9,164.9z"/>
	<path class="st7" d="M169.6,186l0.2,0.5c0,0.1,0,0.2-0.1,0.2h-0.1l-0.1-0.1C169.5,186.4,169.6,186.2,169.6,186z"/>
	<path class="st7" d="M171.2,179.6h0.7c0.1,0,0.2,0.1,0.2,0.2c0,0,0,0.1-0.1,0.1l-1.1,0.8C171,180.3,171.1,179.9,171.2,179.6z"/>
	<path class="st7" d="M225.9,148l1.3,4c0,0.1,0.1,0.1,0.1,0.1h4.2c0.1,0,0.2,0.1,0.2,0.2c0,0,0,0.1-0.1,0.1l-3.4,2.5
		c-0.1,0-0.1,0.1-0.1,0.2l1.3,4c0,0.1,0,0.2-0.1,0.2h-0.1l-3.4-2.5c-0.1,0-0.1,0-0.2,0l-3.4,2.5c-0.1,0-0.2,0-0.2,0v-0.1l1.3-4
		c0-0.1,0-0.1-0.1-0.2l-3.4-2.5c-0.1,0-0.1-0.1,0-0.2l0.1-0.1h4.2c0.1,0,0.1,0,0.1-0.1l1.3-4C225.6,147.9,225.7,147.8,225.9,148
		C225.8,147.9,225.9,147.9,225.9,148L225.9,148z"/>
	<path class="st7" d="M213.7,157.3l1.3,4c0,0.1,0.1,0.1,0.1,0.1h4.2c0.1,0,0.2,0.1,0.2,0.2c0,0,0,0.1-0.1,0.1l-3.4,2.5
		c-0.1,0-0.1,0.1-0.1,0.2l1.3,4c0,0.1,0,0.2-0.1,0.2H217l-3.4-2.5c-0.1,0-0.1,0-0.2,0l-3.4,2.5c-0.1,0-0.2,0-0.2,0v-0.1l1.3-4
		c0-0.1,0-0.1-0.1-0.2l-3.4-2.5c-0.1,0-0.1-0.1-0.1-0.2c0-0.1,0.1-0.1,0.1-0.1h4.2c0.1,0,0.1,0,0.1-0.1l1.3-4c0-0.1,0.1-0.1,0.2-0.1
		C213.6,157.2,213.7,157.2,213.7,157.3L213.7,157.3z"/>
	<path class="st7" d="M201.5,166.6l1.3,4c0,0.1,0.1,0.1,0.1,0.1h4.2c0.1,0,0.2,0.1,0.2,0.2c0,0,0,0.1-0.1,0.1l-3.4,2.5
		c-0.1,0-0.1,0.1-0.1,0.2l1.3,4c0,0.1,0,0.2-0.1,0.2h-0.1l-3.4-2.5c-0.1,0-0.1,0-0.2,0l-3.4,2.5c-0.1,0-0.2,0-0.2,0v-0.1l1.3-4
		c0-0.1,0-0.1-0.1-0.2l-3.4-2.5c-0.1-0.1-0.1-0.1,0-0.2l0.1-0.1h4.2c0.1,0,0.1,0,0.1-0.1l1.3-4c0-0.1,0.1-0.1,0.2-0.1
		C201.5,166.5,201.5,166.5,201.5,166.6L201.5,166.6z"/>
	<path class="st7" d="M189.4,175.9l1.3,4c0,0.1,0.1,0.1,0.1,0.1h4.2c0.1,0,0.1,0,0.1,0.1s0,0.1-0.1,0.2l-3.4,2.5
		c-0.1,0-0.1,0.1-0.1,0.2l1.3,4c0,0.1,0,0.1-0.1,0.2c-0.1,0-0.1,0-0.2,0l-3.4-2.5c-0.1,0-0.1,0-0.2,0l-3.4,2.5c-0.1,0-0.1,0-0.2,0
		c-0.1,0-0.1-0.1-0.1-0.2l1.3-4c0-0.1,0-0.1-0.1-0.2l-3.4-2.5c-0.1,0-0.1-0.1-0.1-0.2c0-0.1,0.1-0.1,0.1-0.1h4.2
		c0.1,0,0.1,0,0.1-0.1l1.3-4C189.1,175.8,189.2,175.8,189.4,175.9C189.3,175.8,189.3,175.9,189.4,175.9L189.4,175.9z"/>
	<path class="st7" d="M177.2,185.2l1.3,4c0,0.1,0.1,0.1,0.1,0.1h4.2c0.1,0,0.2,0.1,0.2,0.2c0,0,0,0.1-0.1,0.1l-3.4,2.5
		c-0.1,0-0.1,0.1-0.1,0.2l1.3,4c0,0.1,0,0.2-0.1,0.2h-0.1l-3.4-2.5c-0.1,0-0.1,0-0.2,0l-3.4,2.5c-0.1,0-0.2,0-0.2,0v-0.1l1.3-4
		c0-0.1,0-0.1-0.1-0.2l-3.4-2.5c-0.1,0-0.1-0.1,0-0.2l0.1-0.1h4.2c0.1,0,0.1,0,0.1-0.1l1.3-4C176.9,185.1,177,185.1,177.2,185.2
		C177.1,185.1,177.2,185.2,177.2,185.2L177.2,185.2z"/>
	<path class="st7" d="M225.7,169l1.3,4c0,0.1,0.1,0.1,0.1,0.1h4.2c0.1,0,0.1,0,0.1,0.1s0,0.1-0.1,0.2l-3.4,2.5
		c-0.1,0-0.1,0.1-0.1,0.2l1.3,4c0,0.1,0,0.2-0.1,0.2h-0.1l-3.4-2.5c-0.1,0-0.1,0-0.2,0l-3.4,2.5c-0.1,0-0.2,0-0.2,0v-0.1l1.3-4
		c0-0.1,0-0.1-0.1-0.2l-3.4-2.5c-0.1,0-0.1-0.1,0-0.2l0.1-0.1h4.2c0.1,0,0.1,0,0.1-0.1l1.3-4c0-0.1,0.1-0.1,0.2-0.1
		C225.6,168.9,225.7,169,225.7,169L225.7,169z"/>
	<path class="st7" d="M214.4,178.2l1.3,4c0,0.1,0.1,0.1,0.1,0.1h4.2c0.1,0,0.1,0,0.1,0.1s0,0.1-0.1,0.2l-3.4,2.5
		c-0.1,0-0.1,0.1-0.1,0.2l1.3,4c0,0.1,0,0.2-0.1,0.2h-0.1l-3.4-2.5c-0.1,0-0.1,0-0.2,0l-3.4,2.5c-0.1,0-0.2,0-0.2,0v-0.1l1.3-4
		c0-0.1,0-0.1-0.1-0.2l-3.4-2.5c-0.1,0-0.1-0.1-0.1-0.2c0-0.1,0.1-0.1,0.1-0.1h4.2c0.1,0,0.1,0,0.1-0.1l1.3-4c0-0.1,0.1-0.1,0.2-0.1
		C214.4,178.2,214.4,178.2,214.4,178.2L214.4,178.2z"/>
	<path class="st7" d="M201,184.7l1.3,4c0,0.1,0.1,0.1,0.1,0.1h4.2c0.1,0,0.2,0.1,0.2,0.2c0,0,0,0.1-0.1,0.1l-3.4,2.5
		c-0.1,0-0.1,0.1-0.1,0.2l1.3,4c0,0.1,0,0.2-0.1,0.2h-0.1l-3.4-2.5c-0.1,0-0.1,0-0.2,0l-3.4,2.5c-0.1,0-0.2,0-0.2,0v-0.1l1.3-4
		c0-0.1,0-0.1-0.1-0.2l-3.4-2.5c-0.1,0-0.1-0.1,0-0.2l0.1-0.1h4.2c0.1,0,0.1,0,0.1-0.1l1.3-4c0-0.1,0.1-0.1,0.1-0.1
		C200.9,184.6,201,184.7,201,184.7L201,184.7z"/>
	<path class="st7" d="M226.4,184.4l1.3,4c0,0.1,0.1,0.1,0.1,0.1h4.2c0.1,0,0.1,0,0.1,0.1s0,0.1-0.1,0.2l-3.4,2.5
		c-0.1,0-0.1,0.1-0.1,0.2l1.3,4c0,0.1,0,0.2-0.1,0.2h-0.1l-3.4-2.5c-0.1,0-0.1,0-0.2,0l-3.4,2.5c-0.1,0-0.2,0-0.2,0v-0.1l1.3-4
		c0-0.1,0-0.1-0.1-0.2l-3.4-2.5c-0.1,0-0.1-0.1,0-0.2l0.1-0.1h4.2c0.1,0,0.1,0,0.1-0.1l1.3-4C226.1,184.4,226.2,184.3,226.4,184.4
		C226.3,184.4,226.3,184.4,226.4,184.4L226.4,184.4z"/>
</g>
</svg>
