<?xml version="1.0" encoding="utf-8"?>
<!-- Generator: Adobe Illustrator 24.1.0, SVG Export Plug-In . SVG Version: 6.00 Build 0)  -->
<svg version="1.1" id="Layer_1" xmlns="http://www.w3.org/2000/svg" xmlns:xlink="http://www.w3.org/1999/xlink" x="0px" y="0px"
	 viewBox="0 0 512 512" style="enable-background:new 0 0 512 512;" xml:space="preserve">
<style type="text/css">
	.st0{fill-rule:evenodd;clip-rule:evenodd;fill:#0092C9;}
	.st1{fill-rule:evenodd;clip-rule:evenodd;fill:#4FC3A0;}
	.st2{fill-rule:evenodd;clip-rule:evenodd;fill:#ADADAD;}
	.st3{fill-rule:evenodd;clip-rule:evenodd;fill:#DBDBDB;}
	.st4{fill:#FFFFFF;}
	.st5{fill-rule:evenodd;clip-rule:evenodd;fill:#EEB491;}
	.st6{fill-rule:evenodd;clip-rule:evenodd;fill:#EAA377;}
	.st7{fill-rule:evenodd;clip-rule:evenodd;fill:#0086AF;}
	.st8{fill-rule:evenodd;clip-rule:evenodd;fill:#44A585;}
	.st9{fill-rule:evenodd;clip-rule:evenodd;fill:#FFFFFF;}
	.st10{fill-rule:evenodd;clip-rule:evenodd;fill:#F7EC13;}
	.st11{fill-rule:evenodd;clip-rule:evenodd;fill:#FBA919;}
</style>
<path class="st0" d="M193,63.8h190.4c15.6,0,28.4,12.8,28.4,28.4v258.3c0,15.6-12.8,28.4-28.4,28.4H193c-15.6,0-28.4-12.8-28.4-28.4
	V92.2C164.6,76.6,177.4,63.8,193,63.8z"/>
<path class="st1" d="M192.4,90.9H384v260.8H192.4V90.9z"/>
<path class="st1" d="M221.4,90.9H384V320c-93.4-24.5-162.7-114.4-162.7-221.7C221.2,95.9,221.3,93.4,221.4,90.9z"/>
<path class="st2" d="M249.9,55.7h15.6c-0.7-2.2-1-4.6-1-7c0-13.1,10.6-23.8,23.7-23.8S312,35.5,312,48.7c0,2.4-0.4,4.8-1,7h15.6
	c7.4,0,13.4,6,13.4,13.4v14.1c0,7.3-6,13.3-13.4,13.3H250c-7.4,0-13.4-6-13.4-13.3V69.1C236.5,61.7,242.5,55.7,249.9,55.7
	L249.9,55.7z"/>
<path class="st3" d="M249.9,55.7h15.6c-0.7-2.2-1-4.6-1-7c0-13.1,10.6-23.8,23.7-23.8S312,35.5,312,48.7c0,2.4-0.4,4.8-1,7h15.6
	c6.5,0,11.9,4.7,13.1,10.7c-1.2,6.1-6.7,10.8-13.1,10.8H250c-6.5,0-11.9-4.7-13.1-10.8C238,60.4,243.4,55.7,249.9,55.7L249.9,55.7z"
	/>
<path class="st4" d="M252.2,305c-2.3,2.4-6.1,2.4-8.4,0s-2.4-6.1,0-8.5c2.8-2.8,5.2-5.5,7.4-8c-7.6-11.2-9.8-20.2-8.8-26.8
	c1.4-10,9-14.9,16.5-14.9c7.5,0.1,15,5.2,16.2,15.4c0.7,6.5-1.5,15.3-8.9,26.3c1.7,2,3.6,4.1,5.7,6.3c0.8,0.8,1.4,1.4,1.9,1.7
	c0.2-0.3,0.3-0.7,0.5-1.1c1.3-3.4,1.8-8.1,1.8-10.7c0-3.3,2.7-6,6-6c2.9,0,5.3,2.1,5.8,4.9l0,0c1.3,6.7,3.1,10.7,4.9,12.5
	c1.8-1.9,3.4-6.2,4.3-13c0.4-3.3,3.4-5.6,6.7-5.2c3,0.4,5.2,3,5.2,5.9l0,0v24.8c5.3,0.4,11.2,1.5,17.4,3.7c3.1,1.1,4.8,4.5,3.7,7.6
	c-1.1,3.1-4.5,4.8-7.6,3.7c-4.9-1.8-9.4-2.7-13.5-3.1v0.5c0,10.5-6.7,10.7-15.4,11l-1.5,0.1c-5.9,0.2-9.8-1.2-12-3.5
	c-3-3.1-3.2-6.8-0.9-10.5c1.3-2,3.6-4,6.7-5.7c2.8-1.5,6.6-2.7,11.1-3.4v-1.6c-1.2,0.5-2.4,0.8-3.7,0.8c-3,0.1-5.8-0.9-8.3-3.2
	c-0.5-0.5-1-1-1.5-1.5c-0.8,1.1-1.6,2.1-2.7,3c-2.8,2.2-6.1,3-10,1.7c-2.4-0.8-4.9-2.4-7.5-5.2c-1.6-1.7-3.1-3.3-4.6-5
	C256.7,300.4,254.5,302.7,252.2,305L252.2,305z M258.6,278.3c3.7-6.2,4.9-11.1,4.5-14.6c-0.4-3.1-2.4-4.7-4.4-4.8
	c-2,0-4.1,1.5-4.5,4.5C253.6,267,254.8,271.9,258.6,278.3z M292.7,296.4C292.7,296.4,292.6,296.5,292.7,296.4
	C292.8,296.4,292.8,296.4,292.7,296.4z M296.4,321.5c0.3,0.1,0.5,0.2,0.5-0.1L296.4,321.5z"/>
<path class="st4" d="M225,135.4c-3.3,0-6-2.7-6-6s2.7-6,6-6h126.3c3.3,0,6,2.7,6,6s-2.7,6-6,6H225z M235.9,207c-3.3,0-6-2.7-6-6
	s2.7-6,6-6h104.6c3.3,0,6,2.7,6,6s-2.7,6-6,6H235.9z M235.9,171.2c-3.3,0-6-2.7-6-6s2.7-6,6-6h104.6c3.3,0,6,2.7,6,6s-2.7,6-6,6
	H235.9z"/>
<g>
	<path class="st5" d="M276.9,347.1l48,33.9l37.3-22.7c36.5-22.3,89.6-16.5,28.5,29.7l-55.1,41.7c-47.6,36-64.5,63.1-184.6,30.9
		h-50.7v-86.4h50.6l61.8-27.1C234.8,337.4,257.3,333.2,276.9,347.1L276.9,347.1z"/>
	<path class="st6" d="M319.9,377.4l5.1,3.6l5.1-3.1c1.6,2.5,1,5.9-1.4,7.8c-14,11.1-28.7,17.1-44.1,18.3
		c-15.3,1.1-31.2-2.7-47.6-11.5c-2.9-1.6-4-5.2-2.5-8.1c1.6-2.9,5.2-4,8.1-2.5c14.4,7.6,28.1,11,41.2,10.1
		C296.3,391.1,308.3,386.2,319.9,377.4L319.9,377.4z"/>
	<path class="st6" d="M394,346.4c25.6-4,40.8,8.3-3.3,41.6l-55.1,41.7c-47.6,36-64.5,63.1-184.6,30.9h-50.7v-39H151
		c120.1,32.2,137,5,184.6-31l55.1-41.7C391.9,348,393,347.2,394,346.4z"/>
	<path class="st7" d="M55.7,364.3h34.6c5.5,0,10.1,4.5,10.1,10.1v86.1c0,5.5-4.5,10.1-10.1,10.1H55.7c-5.5,0-10.1-4.5-10.1-10.1
		v-86.1C45.7,368.8,50.2,364.3,55.7,364.3z"/>
	<path class="st0" d="M100.4,417.4v44c0,5-4.5,9.1-10.1,9.1H55.7c-5.5,0-10.1-4.1-10.1-9.1v-44H100.4z"/>
	<path class="st8" d="M402.8,199.3c32,0,57.9,25.9,57.9,57.9S434.8,315,402.8,315s-57.9-25.9-57.9-57.9
		C344.9,225.2,370.8,199.3,402.8,199.3L402.8,199.3z"/>
	<path class="st1" d="M402.8,199.3c32,0,57.9,25.9,57.9,57.9c0,8.4-1.8,16.4-5,23.6c-7.8,3.9-16.5,6.1-25.8,6.1
		c-32,0-57.9-25.9-57.9-57.9c0-8.4,1.8-16.4,5-23.6C384.8,201.4,393.5,199.3,402.8,199.3L402.8,199.3z"/>
</g>
<path class="st4" d="M417.6,219.6c1.6-2.9,5.3-3.9,8.2-2.2c2.9,1.6,3.9,5.3,2.2,8.2l-40,69.2c-1.7,2.8-5.3,3.8-8.2,2.1
	c-2.9-1.6-3.8-5.3-2.2-8.2L417.6,219.6z"/>
<path class="st9" d="M397.6,219.2c3.9,2.3,5.3,7.3,3,11.3c-2.3,3.9-7.3,5.3-11.3,3c-3.9-2.3-5.3-7.3-3-11.3S393.7,216.9,397.6,219.2
	z"/>
<path class="st9" d="M416.2,280.8c3.9,2.3,5.3,7.3,3,11.3s-7.3,5.3-11.3,3s-5.3-7.3-3-11.3C407.2,279.9,412.2,278.5,416.2,280.8z"/>
<path class="st10" d="M154.2,233.3c31.1,0,56.3,25.2,56.3,56.3s-25.2,56.3-56.3,56.3s-56.3-25.2-56.3-56.3S123.1,233.3,154.2,233.3
	L154.2,233.3z"/>
<path class="st11" d="M154.2,248.3c22.9,0,41.3,18.5,41.3,41.3S177.1,331,154.2,331c-22.8,0-41.3-18.5-41.3-41.3
	S131.4,248.3,154.2,248.3z"/>
<path class="st4" d="M134.2,300.1c0-3.3,2.7-6,6-6s6,2.7,6,6c0,0.9,0.6,1.9,1.7,2.7c1.5,1.2,3.7,1.9,6.3,1.9s4.8-0.7,6.3-1.9
	c1-0.8,1.7-1.7,1.7-2.7c0-2.8-4-3.7-8.2-4.5c-0.6,0-1.1-0.1-1.7-0.3c-9.2-1.7-18.1-3.7-18.1-16.2c0-4.9,2.5-9.2,6.5-12.3
	c2.1-1.6,4.6-2.8,7.5-3.5V261c0-3.3,2.7-6,6-6s6,2.7,6,6v2.3c2.8,0.7,5.4,2,7.5,3.5c4,3,6.5,7.3,6.5,12.3c0,3.3-2.7,6-6,6
	s-6-2.7-6-6c0-0.9-0.6-1.9-1.7-2.7c-1.5-1.2-3.8-1.9-6.3-1.9s-4.8,0.7-6.3,1.9c-1.1,0.8-1.7,1.7-1.7,2.7c0,2.9,4.2,3.7,8.5,4.5
	c0.4,0,0.7,0.1,1.1,0.2c9.3,1.7,18.4,3.6,18.4,16.3c0,4.9-2.5,9.2-6.5,12.3c-2.1,1.6-4.7,2.8-7.5,3.5v2.3h-12v-2.3
	c-2.8-0.7-5.4-2-7.5-3.5C136.7,309.4,134.2,305,134.2,300.1L134.2,300.1z"/>
</svg>
