<svg id="Layer_1" data-name="Layer 1" xmlns="http://www.w3.org/2000/svg" viewBox="0 0 512 458.7"><defs><style>.cls-1{fill:#0073b9;}.cls-2{fill:#4fc3a0;}</style></defs><path class="cls-1" d="M497,116.8H333.2V58.9a32.35,32.35,0,0,0-32.3-32.3H213.3A32.35,32.35,0,0,0,181,58.9v57.8H15a15,15,0,0,0-15,15V470.3a15,15,0,0,0,15,15H497a15,15,0,0,0,15-15V131.8a15,15,0,0,0-15-15ZM211,58.9a2.26,2.26,0,0,1,2.3-2.3h28.8v65.5a15,15,0,1,0,30,0V56.6h28.8a2.26,2.26,0,0,1,2.3,2.3v66.6a46.1,46.1,0,1,1-92.2,0ZM482,455.4H30V146.7H184.1a76.12,76.12,0,0,0,146.2,0H482Z" transform="translate(0 -26.6)"/><path class="cls-2" d="M307.9,225.4a15,15,0,0,0,0,30H428.3a15,15,0,0,0,0-30Z" transform="translate(0 -26.6)"/><path class="cls-2" d="M428.3,287.8H307.9a15,15,0,0,0,0,30H428.3a15,15,0,0,0,0-30Z" transform="translate(0 -26.6)"/><path class="cls-2" d="M428.3,346.7H307.9a15,15,0,0,0,0,30H428.3a15,15,0,0,0,0-30Z" transform="translate(0 -26.6)"/><path class="cls-2" d="M215.5,259H186.7V230.2a15,15,0,0,0-15-15H117.6a15,15,0,0,0-15,15V259H73.8a15,15,0,0,0-15,15v54.1a15,15,0,0,0,15,15h28.8v28.8a15,15,0,0,0,15,15h54.1a15,15,0,0,0,15-15V343.1h28.8a15,15,0,0,0,15-15V274a15,15,0,0,0-15-15Zm-14.9,54.1H171.8a15,15,0,0,0-15,15v28.8H132.7V328.1a15,15,0,0,0-15-15H88.8V289h28.8a15,15,0,0,0,15-15V245.2h24.1V274a15,15,0,0,0,15,15h28.8l.1,24.1Z" transform="translate(0 -26.6)"/></svg>