<svg id="Outline" xmlns="http://www.w3.org/2000/svg" viewBox="0 0 480 480"><defs><style>.cls-1{fill:#0092c9;}.cls-2{fill:#4fc3a0;}</style></defs><path class="cls-1" d="M285.8,60.9a88.25,88.25,0,1,0,25.7,24,8,8,0,0,0-13.1,9.3,72.38,72.38,0,1,1-21.1-19.6,8,8,0,0,0,11-2.7A7.87,7.87,0,0,0,285.8,60.9Z" transform="translate(-16 -16)"/><path class="cls-1" d="M224,192h32a8,8,0,0,0,8-8V160h24a8,8,0,0,0,8-8V120a8,8,0,0,0-8-8H264V88a8,8,0,0,0-8-8H224a8,8,0,0,0-8,8v24H192a8,8,0,0,0-8,8v32a8,8,0,0,0,8,8h24v24A8,8,0,0,0,224,192Zm-24-48V128h24a8,8,0,0,0,8-8V96h16v24a8,8,0,0,0,8,8h24v16H256a8,8,0,0,0-8,8v24H232V152a8,8,0,0,0-8-8Z" transform="translate(-16 -16)"/><path class="cls-1" d="M216,304H152a8,8,0,0,0,0,16h64a8,8,0,0,0,0-16Z" transform="translate(-16 -16)"/><path class="cls-1" d="M216,336H152a8,8,0,0,0,0,16h64a8,8,0,0,0,0-16Z" transform="translate(-16 -16)"/><path class="cls-1" d="M312,312a8,8,0,0,0-8-8H280a8,8,0,0,0,0,16h24A8,8,0,0,0,312,312Z" transform="translate(-16 -16)"/><path class="cls-1" d="M280,336a8,8,0,0,0,0,16h16a8,8,0,0,0,0-16Z" transform="translate(-16 -16)"/><path class="cls-2" d="M496,336a87.62,87.62,0,0,0-16.4-51.1,8,8,0,1,0-13.1,9.3,72.52,72.52,0,1,1-21.2-19.6,8,8,0,1,0,8.3-13.7,87.58,87.58,0,0,0-37.8-12.4V112h56a8,8,0,0,0,8-8V56a40,40,0,0,0-40-40H120A56,56,0,0,0,64,72V392a8,8,0,0,0,16,0V72a40,40,0,0,1,40-40H408a39.8,39.8,0,0,0-8,24V248.4a87.62,87.62,0,0,0-48,19.8V248a8,8,0,0,0-8-8H120a8,8,0,0,0-8,8V392a8,8,0,0,0,8,8H312a8,8,0,0,0,0-16H256V288h78.3a87.87,87.87,0,0,0,65.6,135.6V456a24,24,0,0,1-48,0V424a8,8,0,0,0-8-8H24a8,8,0,0,0-8,8v32a40,40,0,0,0,40,40H192a8,8,0,0,0,0-16H56a23.94,23.94,0,0,1-24-24V432H336v24a39.8,39.8,0,0,0,8,24H224a8,8,0,0,0,0,16H376a40,40,0,0,0,40-40V423.6A88.1,88.1,0,0,0,496,336ZM440,32a23.94,23.94,0,0,1,24,24V96H416V56A23.94,23.94,0,0,1,440,32ZM128,256H240v16H128Zm0,32H240v96H128Zm128-32h80v16H256Z" transform="translate(-16 -16)"/><path class="cls-1" d="M408,312a8,8,0,0,1,8,8,8,8,0,0,0,16,0,23.9,23.9,0,0,0-16-22.5V288a8,8,0,0,0-16,0v9.5a23.93,23.93,0,0,0,8,46.5,8,8,0,1,1-8,8,8,8,0,0,0-16,0,23.9,23.9,0,0,0,16,22.5V384a8,8,0,0,0,16,0v-9.5a23.93,23.93,0,0,0-8-46.5,8,8,0,0,1,0-16Z" transform="translate(-16 -16)"/></svg>