<svg id="Layer_1" data-name="Layer 1" xmlns="http://www.w3.org/2000/svg" viewBox="0 0 1080 1080"><defs><style>.cls-1{fill:#4fc3a0;}.cls-2{fill:#0092c9;}.cls-3,.cls-4{fill:none;stroke-miterlimit:10;}.cls-3{stroke:#0092c9;stroke-width:6.75px;stroke-dasharray:26.91 26.91;}.cls-4{stroke:#4fc3a0;stroke-linecap:round;stroke-width:18.01px;stroke-dasharray:185.37 185.37;}</style></defs><path class="cls-1" d="M586.4,229.37C522.25,190,438.29,210,398.67,274.16s-19.36,148.12,44.79,187.73,148.12,19.36,187.73-44.79A136.71,136.71,0,0,0,626,266.51a12.43,12.43,0,1,0-20.26,14.41,112.26,112.26,0,1,1-32.64-30.17A12.3,12.3,0,0,0,590,246.7h0a12.28,12.28,0,0,0-3.6-16.88Z" transform="translate(-0.26 0)"/><path class="cls-1" d="M490.73,432h49.53a12.49,12.49,0,0,0,12.38-12.38V382.43h37.14a12.49,12.49,0,0,0,12.38-12.38V320.53a12.49,12.49,0,0,0-12.38-12.38H552.64V271a12.49,12.49,0,0,0-12.38-12.38H490.73A12.49,12.49,0,0,0,478.35,271v37.14H441.21a12.49,12.49,0,0,0-12.38,12.38v49.52a12.49,12.49,0,0,0,12.38,12.38h37.14v37.14A12.34,12.34,0,0,0,490.73,432ZM453.59,357.9V333.14h37.14a12.49,12.49,0,0,0,12.38-12.38V283.62h24.77v37.14a12.49,12.49,0,0,0,12.38,12.38H577.4V357.9H540.26a12.49,12.49,0,0,0-12.38,12.38v37.14H503.11V370.28a12.49,12.49,0,0,0-12.38-12.38Z" transform="translate(-0.26 0)"/><path class="cls-1" d="M478.35,605.28h-99a12.38,12.38,0,1,0,0,24.76h99a12.49,12.49,0,0,0,12.38-12.38A12.2,12.2,0,0,0,478.35,605.28Z" transform="translate(-0.26 0)"/><path class="cls-1" d="M478.35,654.57h-99a12.38,12.38,0,0,0,0,24.76h99A12.48,12.48,0,0,0,490.73,667,12.34,12.34,0,0,0,478.35,654.57Z" transform="translate(-0.26 0)"/><path class="cls-1" d="M626.92,617.66a12.49,12.49,0,0,0-12.38-12.38H577.4a12.38,12.38,0,0,0,0,24.76h37.14A12.49,12.49,0,0,0,626.92,617.66Z" transform="translate(-0.26 0)"/><path class="cls-1" d="M577.4,654.57a12.38,12.38,0,0,0,0,24.76h24.76a12.38,12.38,0,0,0,0-24.76Z" transform="translate(-0.26 0)"/><path class="cls-2" d="M911.21,654.57a134.42,134.42,0,0,0-25.44-79A12.43,12.43,0,1,0,865.52,590c36.24,50.2,24.76,120.2-25.44,156.44S719.88,771.17,683.64,721s-24.76-120.2,25.44-156.44a112.54,112.54,0,0,1,123.8-5,12.47,12.47,0,0,0,12.83-21.38,135.18,135.18,0,0,0-58.53-19.13V308.15h86.66a12.48,12.48,0,0,0,12.38-12.38V221.49a61.86,61.86,0,0,0-61.9-61.9H330a86.7,86.7,0,0,0-86.66,86.66V741a12.38,12.38,0,0,0,24.76,0V246.48a61.86,61.86,0,0,1,61.9-61.9H775.25a61.41,61.41,0,0,0-12.38,37.14V519.07a135.33,135.33,0,0,0-74.28,30.61V518.39A12.49,12.49,0,0,0,676.21,506H330a12.49,12.49,0,0,0-12.38,12.38V741A12.49,12.49,0,0,0,330,753.39h296.9a12.38,12.38,0,0,0,0-24.76H540.26V580.52h121.1c-41,62.8-23.41,147,39.39,188a136.15,136.15,0,0,0,62.12,21.61v50.2a37.14,37.14,0,0,1-74.28,0V790.75a12.49,12.49,0,0,0-12.38-12.38H181.68a12.49,12.49,0,0,0-12.38,12.38v49.53a61.87,61.87,0,0,0,61.9,61.9h210a12.38,12.38,0,0,0,0-24.76H231a37,37,0,0,1-37.14-36.92V803.13h470v37.15a61.94,61.94,0,0,0,12.38,37.14H490.73a12.38,12.38,0,0,0,0,24.76h235a61.86,61.86,0,0,0,61.9-61.9v-50.2A136,136,0,0,0,911.21,654.57ZM824.77,184.8a37,37,0,0,1,37.14,36.92v62.12H787.63V221.72a37,37,0,0,1,37.14-36.92ZM342.4,531H515.5v24.76H342.4Zm0,49.52H515.5V728.85H342.4ZM540.26,531H663.83v24.76H540.26Z" transform="translate(-0.26 0)"/><path class="cls-1" d="M775.25,617.66A12.48,12.48,0,0,1,787.63,630a12.38,12.38,0,0,0,24.76,0,36.87,36.87,0,0,0-24.76-34.89V580.52a12.38,12.38,0,0,0-24.76,0v14.63a37.1,37.1,0,0,0,12.38,72,12.38,12.38,0,1,1-12.38,12.38,12.38,12.38,0,0,0-24.76,0,36.89,36.89,0,0,0,24.76,34.89v14.63a12.38,12.38,0,0,0,24.76,0V714.45a37.1,37.1,0,0,0-12.38-72A12.49,12.49,0,0,1,762.87,630,12.34,12.34,0,0,1,775.25,617.66Z" transform="translate(-0.26 0)"/><circle class="cls-3" cx="540" cy="540" r="531"/><circle class="cls-4" cx="540" cy="540" r="531"/></svg>