<svg id="Layer_1" data-name="Layer 1" xmlns="http://www.w3.org/2000/svg" viewBox="0 0 381.63 376.49"><defs><style>.cls-1{fill:#4fc3a0;}.cls-2{fill:#0073b9;}</style></defs><path class="cls-1" d="M191.09,70.78a137.45,137.45,0,0,1,37.5,6.55c11.51,3.62,23.46,5.94,34.74,10.11,46.9,17.35,83.5,47.87,111.72,88.82,1.7,2.47,3.23,5.05,5,7.48,2.17,3,2,5.83,0,9-15.11,23.63-33.34,44.45-55.41,61.83-27.15,21.39-57.46,36.09-91.41,43.14-9.48,2-18.76,5.1-28.31,6.54-16.62,2.51-33,.61-49.12-4.3-11.3-3.45-23-5.86-34.08-9.76-48.38-17-86-48-115-89.85-1.91-2.76-3.69-5.63-5.54-8.44a6.21,6.21,0,0,1,0-7.34c34.91-54.2,82.37-91,146-105.56,8.24-1.88,16.33-4.48,24.61-6.09C178.13,71.68,184.66,71.48,191.09,70.78ZM295.87,188.3A105,105,0,0,0,191.09,83.21c-58-.28-105.21,46.84-105.28,105A105,105,0,0,0,190.59,293.28C248.53,293.57,295.79,246.42,295.87,188.3Zm-21.28-83.68-.7,1.06c22.07,23.1,33.9,50.47,33.9,82.54s-11.9,59.55-33.83,83a8.91,8.91,0,0,0,2.85-.88c37.57-18.29,67.32-45.43,90.51-80,1.28-1.92.61-3.08-.42-4.62-17.73-26.58-39.73-48.9-66.62-66.22C292,114.1,283.17,109.54,274.59,104.62Zm-166.49.59a7.52,7.52,0,0,0-1.57.22c-38.48,18.29-68.86,45.8-92.28,81.19a4,4,0,0,0,.18,3.56c23.19,34.9,53.19,62.12,91.07,80.39a19.2,19.2,0,0,0,2.68.8A118,118,0,0,1,108.1,105.21Z" transform="translate(0.02 0)"/><path class="cls-2" d="M101,24.38c.82.66,2.92,1.6,3.89,3.21q10.68,18,20.94,36.2a5.81,5.81,0,0,1-1.71,8l-.22.13c-3,1.79-6.41,1-8.35-2.3-7.06-12-14.06-24.08-20.9-36.22C92.22,29.17,95.16,24.29,101,24.38Z" transform="translate(0.02 0)"/><path class="cls-2" d="M288.69,29.39a56.71,56.71,0,0,1-2.3,5.31q-9.75,17-19.6,34c-2.37,4.08-5.67,5.26-8.92,3.35-3.08-1.81-3.72-5.32-1.52-9.15q10-17.49,20.15-34.93c1.52-2.63,3.89-4.42,6.76-3.25C285.37,25.54,286.91,27.78,288.69,29.39Z" transform="translate(0.02 0)"/><path class="cls-2" d="M101.16,352.1c-5.42,0-8.35-3.92-7.1-7.73a14.11,14.11,0,0,1,1.28-2.69q9.69-16.83,19.42-33.63c2.42-4.18,5.56-5.45,8.82-3.7s4,5.41,1.52,9.71c-6.51,11.34-13,22.69-19.67,33.92C104.28,349.91,102.1,351.23,101.16,352.1Z" transform="translate(0.02 0)"/><path class="cls-2" d="M262,303.57c.94.73,3.18,1.71,4.2,3.41,7.07,11.86,13.94,23.86,20.77,35.86,1.88,3.31.92,6.74-2,8.44s-6.36.84-8.3-2.48q-10.5-17.9-20.71-35.9C253.5,308.53,256.16,303.71,262,303.57Z" transform="translate(0.02 0)"/><path class="cls-2" d="M196.79,349.54V369c0,4.73-2.18,7.47-5.89,7.53s-6.07-2.68-6.08-7.32V329.58c0-4.38,2.32-7.14,5.87-7.21s6.1,2.77,6.1,7.41C196.86,336.35,196.79,342.94,196.79,349.54Z" transform="translate(0.02 0)"/><path class="cls-2" d="M196.79,27.33V46.75c0,4.6-2.42,7.45-6.09,7.37s-5.85-2.84-5.86-7.22V7.31c0-4.64,2.35-7.39,6.09-7.31s5.86,2.78,5.86,7.16C196.86,13.88,196.79,20.61,196.79,27.33Z" transform="translate(0.02 0)"/><path class="cls-2" d="M191,92.34a95.91,95.91,0,1,0,95.75,96.07v-.07a95.82,95.82,0,0,0-95.66-96Zm-39.69,170.1c-2.14-1.36-4.08-2.55-5.93-3.74-1-.64-1.95-1.27-2.89-1.92a2,2,0,0,1-.5-.57c0-.06-.07-.13-.11-.2a3.33,3.33,0,0,1-.37-1.42c0-4.65,0-9.29,0-14h0V226.38h9.84ZM197,272h-9.6V206.19H197Zm41.28-14.5c-.85.47-1.68,1-2.55,1.52s-1.78,1.13-2.79,1.75h0V186.08h9.94v48.17q0,7.29.14,14.58c.06,4.22-1.26,6.79-4.74,8.69Zm16.84-15.66c-.11-1.85-.25-3.09-.25-4.34v-55c0-7.18-1.59-8.72-8.86-8.73H228.45c-5.65,0-7.61,2-7.62,7.69,0,26.82-.09,53.64.09,80.46,0,3.76-.82,5.81-4.65,6.41-2.18.34-4.29,1.11-7.05,1.84V202.85c0-7.39-1.57-8.93-9.06-8.94-5.86,0-11.73,0-17.59,0-5.4.07-7.4,2.12-7.4,7.57v68.84a5.65,5.65,0,0,1-1,.17c-10.64-2-10.64-2-10.64-12.77V222.16c0-6.19-1.86-8-8-8s-12.48-.06-18.72,0c-5.19.05-7.26,2.14-7.28,7.28v23.41c-25-24.34-33.52-73.56-3.29-110.17s85.08-40.75,120.27-9.3c36.46,32.61,35.71,85,8.64,116.48Z" transform="translate(0.02 0)"/><path class="cls-1" d="M214.67,153.29,182.14,172l-44,25.41a21.4,21.4,0,0,1-3,1.57c-3.11,1.2-5.76.38-7.4-2.47s-1.08-5.56,1.51-7.65a25.89,25.89,0,0,1,3.54-2.12L204,145.66c1.37-.79,2.71-1.62,4.65-2.78-2.43-.54-4.14-.8-5.78-1.31a6,6,0,0,1-4.38-6.89,5.72,5.72,0,0,1,6.57-4.72h0q11,1.91,22,4.38c3.54.8,5.31,3.63,4.27,7.1-2.19,7.26-4.66,14.45-7.28,21.57a5.6,5.6,0,0,1-7.22,3.29l-.21-.08A6,6,0,0,1,213,159C213.35,157.38,213.88,155.86,214.67,153.29Z" transform="translate(0.02 0)"/></svg>