<svg id="Layer_1" data-name="Layer 1" xmlns="http://www.w3.org/2000/svg" viewBox="0 0 401.39 403.45"><defs><style>.cls-1{fill:#4fc3a0}.cls-2{fill:#0073b9}</style></defs><path class="cls-1" d="M.07 216.48c0-23.54.07-47.08-.07-70.62a13.41 13.41 0 0 1 4.24-10.41Q54.91 85.1 105.37 34.54a12.76 12.76 0 0 1 9.73-4q71.64.13 143.27 0c3.59 0 6.54.86 9.12 3.47 9 9 18.14 17.84 26.91 27 1.83 1.92 3.41 5.34 3.05 7.76s-3 5-5.25 6.36c-3.15 1.88-6.29.16-8.74-2.28-7.59-7.53-15.25-15-22.62-22.72a11 11 0 0 0-8.85-3.6q-65.94.18-131.9 0a9 9 0 0 0-7.09 2.93q-46.83 47-93.84 93.84a9 9 0 0 0-2.95 7.06q.15 66.55 0 133.12A8.59 8.59 0 0 0 19 290.2q47.3 47.12 94.55 94.28a9.83 9.83 0 0 0 6.28 2.55c44.51.14 89 .08 133.52.17a8.69 8.69 0 0 0 6.71-2.88q47-47.16 94-94.28a9.86 9.86 0 0 0 2.66-6.25q.22-67 0-133.94a9.46 9.46 0 0 0-2.44-5.93c-7.39-7.72-15-15.19-22.59-22.76a30.94 30.94 0 0 1-2.24-2.34c-2.93-3.56-2.86-7.91.13-11 3.14-3.26 7.85-3.67 11.27-.33 10.17 9.91 20.23 20 30.07 30.19 1.47 1.54 2.15 4.42 2.16 6.69q.18 72.45-.06 144.89a13 13 0 0 1-3.42 8.2q-50.87 51.3-102 102.31a11.9 11.9 0 0 1-9 3.65q-71.84-.09-143.68 0a12.34 12.34 0 0 1-9.37-3.84Q54.85 348.7 4 298a12.15 12.15 0 0 1-3.89-9.33c.01-24.02-.04-48.1-.04-72.19Z" transform="translate(.01 .02)"/><path class="cls-2" d="M187 69.51a151.05 151.05 0 0 1 74.2 20.71 16.81 16.81 0 0 1 3.9 2.86 7.79 7.79 0 0 1 .25 10.38c-2.62 3.2-6.89 3.92-11 1.48a136 136 0 0 0-34.6-14.59c-73.53-19.56-149.3 29.13-162 104.16-12.6 73.82 37.5 142.14 111.74 152.49 68 9.46 132.89-37.21 145.68-104.92 6.13-32.4.8-62.87-15.66-91.43-.41-.7-.86-1.37-1.23-2.1-2.24-4.41-1-9 2.9-11.28a7.7 7.7 0 0 1 10.61 2.43 7.5 7.5 0 0 1 .48.88c5 9.87 10.44 19.65 13.92 30.07 27.78 83-22.7 171.37-108.28 190.1-80.81 17.69-161.49-36.31-175.69-117.62-14.09-80.76 38.44-156.32 119-170.88 8.46-1.53 17.15-1.84 25.78-2.74Z" transform="translate(.01 .02)"/><path class="cls-1" d="M89.78 216.77c.26-54.36 45.16-98.29 99.08-96.66a95.79 95.79 0 0 1 35 7.6c3 1.3 5.39 3.15 6 6.58 1.11 6.72-5.11 11.21-12 8.44a84.23 84.23 0 0 0-36.09-6c-37.23 1.74-69.57 31.21-74.65 68.24-5.88 42.79 20.42 80.84 62.54 90.49 43.33 9.92 88-19.7 95.84-63.5a80.46 80.46 0 0 0-5-46.48c-.21-.5-.45-1-.63-1.49-1.74-4.65-.06-9.06 4.1-10.85s8.62 0 10.69 4.51a91.76 91.76 0 0 1 8.47 41.75c-1.55 44.7-31.87 81.41-75.39 91.57C153.25 323.72 98.23 285.64 91 230.09c-.61-4.37-.83-8.88-1.22-13.32Z" transform="translate(.01 .02)"/><path class="cls-2" d="M209.18 207c5.71-1.49 11.42-3 17.14-4.48 5.52-1.44 9.72.59 10.93 5.27s-1.32 8.75-6.72 10.14c-13.33 3.45-26.66 6.91-40 10.26-9.75 2.44-18.33-5.53-16-15.25C178 198.53 182 184.22 186 169.91a8 8 0 1 1 15.77 2.73 9.47 9.47 0 0 1-.27 1.08c-1.24 5.81-2.91 11.52-4.38 17.27-.26 1-.44 2.07-.86 4.09 1.64-1.51 2.62-2.34 3.52-3.24Q281.49 110 363.31 28.31c2.13-2.13 2.64-3.9 1.52-6.69a95.59 95.59 0 0 1-3.51-11.2c-1.22-4.69.93-8.61 5.21-10a7.86 7.86 0 0 1 10 4.83c0 .08 0 .16.08.24 1.6 4.3 2.7 8.79 4.42 13a7.51 7.51 0 0 0 3.63 3.66c3.46 1.49 7.15 2.43 10.73 3.65 4.65 1.59 6.94 5.83 5.59 10.21s-5.72 6.4-10.44 5.05l-.39-.11c-4.25-1.21-8.94-4.13-12.63-3.17s-6.52 5.73-9.67 8.88q-78.11 78.26-156.23 156.48c-1 1-2.67 1.34-4 2 .51.65 1.03 1.27 1.56 1.86Z" transform="translate(.01 .02)"/></svg>