<svg version="1.1" id="Layer_1" xmlns="http://www.w3.org/2000/svg" x="0" y="0" viewBox="0 0 800 800" style="enable-background:new 0 0 800 800" xml:space="preserve"><style>.st5{fill:none;stroke:#0090d8;stroke-width:12.6169;stroke-miterlimit:10}</style><g id="Layer_1-2"><g id="_474746272"><path id="_474746032" d="M346.9 513.7c-41.8 0-76.9-8.9-104.3-26.5-36.5-23.4-59.9-37.1-73.1-44.5-21.7-12.1-28.1-30.6-24.7-43.5 3.1-12 13.7-19.5 27.6-19.5 6.5.1 12.8 1.4 18.8 3.9l93 36.5c13.7 4.5 28.1 6.7 42.5 6.7 21.1 0 39.8-5 55.7-15 12.5-7.8 21.3-20.9 22.3-26.4-1.8-.1-5.8 0-13.5 2.5-23.3 7.5-42.9 11.3-58.3 11.3-30.5 0-34.4-15.3-34.9-19.9-1.3-12.6 10.9-24.6 29-28.5 6.2-1.3 46.5-16.8 70.7-26.4 3.2-1.5 27.4-12 62.5-12 36.9 0 72.1 11.3 104.8 33.6l23.3 13.5L509 497c-10.4-2.8-22.2-4.9-33.7-4.9-7.8-.1-15.5 1.1-22.9 3.7-23.4 8.6-63.4 17.9-105.5 17.9z" style="fill-rule:evenodd;clip-rule:evenodd;fill:#eeb491"/><path id="_474746152" d="M584.4 556.8c-1.6 0-3.2-.4-4.5-1.2l-55-31.8c-4.3-2.5-5.8-8.1-3.3-12.4L610.1 358c2.5-4.4 8.1-5.8 12.4-3.3l55 31.8c4.4 2.5 5.8 8.1 3.3 12.4l-88.6 153.4c-1.5 2.8-4.5 4.5-7.8 4.5z" style="fill-rule:evenodd;clip-rule:evenodd;fill:#bcbcbc"/><path id="_474745816" d="M269.7 351.9h-.3c-3.1-.1-5.9-1.8-7.5-4.4L233 298.9h-57.5c-10.4 0-18.8-8.4-18.8-18.8V144.8c0-10.4 8.4-18.7 18.8-18.8h204.9c10.4 0 18.8 8.4 18.8 18.8v135.4c0 10.4-8.4 18.8-18.8 18.8h-68.6l-34.7 49c-1.7 2.4-4.5 3.9-7.4 3.9zm8.2-89.9c-5 0-9.1-4.1-9.1-9.1v-31.5h-31.4c-5 .2-9.2-3.8-9.4-8.8s3.8-9.2 8.8-9.4h32v-31.4c-.2-5 3.8-9.2 8.8-9.4s9.2 3.8 9.4 8.8v32h31.5c5-.2 9.2 3.8 9.4 8.8s-3.8 9.2-8.8 9.4H287v31.5c0 5-4.1 9-9.1 9.1 0-.1 0-.1 0 0z" style="fill-rule:evenodd;clip-rule:evenodd;fill:#4fc3a0"/><path id="_474745864" d="M551.4 708H384.6c-9.4 0-17-7.6-17-17V580.8c0-9.4 7.6-17 17-17h45.8l23.1-38.7c2.6-4.3 8.1-5.7 12.5-3.2 1.1.7 2.1 1.5 2.8 2.6l27.7 39.3h55c9.4 0 17 7.6 17 17V691c-.1 9.4-7.7 17-17.1 17zm-32.8-83H417.4c-5 .2-9.2-3.8-9.4-8.8-.2-5 3.8-9.2 8.8-9.4h101.8c5-.2 9.2 3.8 9.4 8.8s-3.8 9.2-8.8 9.4h-.6zm0 40.1H417.4c-5 0-9.1-4.1-9.1-9.1s4.1-9.1 9.1-9.1h101.2c5 0 9.1 4.1 9.1 9.1s-4.1 9.1-9.1 9.1z" style="fill-rule:evenodd;clip-rule:evenodd;fill:#0092c9"/></g></g><path d="M16.6 314.9C55.4 141.1 210.5 11.1 396.1 11.1c182.9 0 336.4 126.4 377.8 296.7" style="fill:none;stroke:#70d7a4;stroke-width:12.6169;stroke-miterlimit:10"/><path class="st5" d="M73.6 578.4C33 502.7 17.9 412.8 37.2 322.2c16.1-75.8 54-141.3 105.7-191.5"/><path d="M704.4 197.4c92.4 143.5 75.2 336-51.8 461.3-20.3 20-42.3 37.3-65.6 51.8" style="fill:none;stroke:#70d7a4;stroke-width:12.5311;stroke-miterlimit:10"/><path class="st5" d="M773.8 481.1c-38.7 173.8-193.9 303.8-379.5 303.8-182.9 0-336.3-126.4-377.8-296.7"/><circle cx="666.3" cy="120.4" r="42.7" style="fill:#0072ba"/><circle cx="118.3" cy="668.4" r="42.7" style="fill:#70d7a4"/></svg>