<?xml version="1.0" encoding="utf-8"?>
<!-- Generator: Adobe Illustrator 24.1.0, SVG Export Plug-In . SVG Version: 6.00 Build 0)  -->
<svg version="1.1" id="Layer_1" xmlns="http://www.w3.org/2000/svg" xmlns:xlink="http://www.w3.org/1999/xlink" x="0px" y="0px"
	 viewBox="0 0 800 800" style="enable-background:new 0 0 800 800;" xml:space="preserve">
<style type="text/css">
	.st0{fill-rule:evenodd;clip-rule:evenodd;fill:#EEB491;}
	.st1{fill-rule:evenodd;clip-rule:evenodd;fill:#BCBCBC;}
	.st2{fill-rule:evenodd;clip-rule:evenodd;fill:#4FC3A0;}
	.st3{fill-rule:evenodd;clip-rule:evenodd;fill:#0092C9;}
	.st4{fill:none;stroke:#70D7A4;stroke-width:8.6825;stroke-miterlimit:10;}
	.st5{fill:none;stroke:#0090D8;stroke-width:8.6825;stroke-miterlimit:10;}
	.st6{fill:#0072BA;}
	.st7{fill:#70D7A4;}
</style>
<g id="Layer_1-2">
	<g id="_474746272">
		<path id="_474746032" class="st0" d="M346.9,513.7c-41.8,0-76.9-8.9-104.3-26.5c-36.5-23.4-59.9-37.1-73.1-44.5
			c-21.7-12.1-28.1-30.6-24.7-43.5c3.1-12,13.7-19.5,27.6-19.5c6.5,0.1,12.8,1.4,18.8,3.9l93,36.5c13.7,4.5,28.1,6.7,42.5,6.7
			c21.1,0,39.8-5,55.7-15c12.5-7.8,21.3-20.9,22.3-26.4c-1.8-0.1-5.8,0-13.5,2.5c-23.3,7.5-42.9,11.3-58.3,11.3l0,0
			c-30.5,0-34.4-15.3-34.9-19.9c-1.3-12.6,10.9-24.6,29-28.5c6.2-1.3,46.5-16.8,70.7-26.4c3.2-1.5,27.4-12,62.5-12
			c36.9,0,72.1,11.3,104.8,33.6l23.3,13.5l-79.3,137.5c-10.4-2.8-22.2-4.9-33.7-4.9c-7.8-0.1-15.5,1.1-22.9,3.7
			C429,504.4,389,513.7,346.9,513.7L346.9,513.7z"/>
		<path id="_474746152" class="st1" d="M584.4,556.8c-1.6,0-3.2-0.4-4.5-1.2l-55-31.8c-4.3-2.5-5.8-8.1-3.3-12.4c0,0,0,0,0,0
			L610.1,358c2.5-4.4,8.1-5.8,12.4-3.3l55,31.8c4.4,2.5,5.8,8.1,3.3,12.4l-88.6,153.4C590.7,555.1,587.7,556.8,584.4,556.8z"/>
		<path id="_474745816" class="st2" d="M269.7,351.9h-0.3c-3.1-0.1-5.9-1.8-7.5-4.4l-28.9-48.6h-57.5c-10.4,0-18.8-8.4-18.8-18.8
			V144.8c0-10.4,8.4-18.7,18.8-18.8h204.9c10.4,0,18.8,8.4,18.8,18.8v135.4c0,10.4-8.4,18.8-18.8,18.8h-68.6L277.1,348
			C275.4,350.4,272.6,351.9,269.7,351.9L269.7,351.9z M277.9,262c-5,0-9.1-4.1-9.1-9.1c0,0,0,0,0,0v-31.5h-31.4
			c-5,0.2-9.2-3.8-9.4-8.8s3.8-9.2,8.8-9.4c0.2,0,0.4,0,0.6,0h31.4v-31.4c-0.2-5,3.8-9.2,8.8-9.4s9.2,3.8,9.4,8.8c0,0.2,0,0.4,0,0.6
			v31.4h31.5c5-0.2,9.2,3.8,9.4,8.8s-3.8,9.2-8.8,9.4c-0.2,0-0.4,0-0.6,0H287v31.5C287,257.9,282.9,261.9,277.9,262
			C277.9,261.9,277.9,261.9,277.9,262L277.9,262z"/>
		<path id="_474745864" class="st3" d="M551.4,708H384.6c-9.4,0-17-7.6-17-17l0,0V580.8c0-9.4,7.6-17,17-17h45.8l23.1-38.7
			c2.6-4.3,8.1-5.7,12.5-3.2c1.1,0.7,2.1,1.5,2.8,2.6l27.7,39.3h55c9.4,0,17,7.6,17,17l0,0V691C568.4,700.4,560.8,708,551.4,708
			L551.4,708L551.4,708z M518.6,625H417.4c-5,0.2-9.2-3.8-9.4-8.8c-0.2-5,3.8-9.2,8.8-9.4c0.2,0,0.4,0,0.6,0h101.2
			c5-0.2,9.2,3.8,9.4,8.8c0.2,5-3.8,9.2-8.8,9.4C519,625,518.8,625,518.6,625z M518.6,665.1H417.4c-5,0-9.1-4.1-9.1-9.1
			c0-5,4.1-9.1,9.1-9.1l0,0h101.2c5,0,9.1,4.1,9.1,9.1C527.7,661,523.6,665.1,518.6,665.1L518.6,665.1z"/>
	</g>
</g>
<g>
	<path class="st4" d="M18.7,312.4c38.5-172.8,192.8-302,377.2-302c181.9,0,334.4,125.6,375.5,294.9"/>
	<path class="st5" d="M82.8,600C-9.1,455.4,8.1,261.4,134.3,135.2C258.7,10.8,449.1-7.6,593,80"/>
	<path class="st4" d="M707.2,190.4C799.1,335,782,529,655.8,655.2C531.3,779.6,340.9,798,197,710.4"/>
	<path class="st5" d="M771.5,477.6c-38.5,172.8-192.8,302-377.2,302C212.4,779.6,59.9,654,18.7,484.7"/>
	<circle class="st6" cx="664.6" cy="119.1" r="42.5"/>
	<circle class="st7" cx="119.8" cy="663.8" r="42.5"/>
</g>
</svg>
