<?xml version="1.0" encoding="utf-8"?>
<!-- Generator: Adobe Illustrator 24.1.0, SVG Export Plug-In . SVG Version: 6.00 Build 0)  -->
<svg version="1.1" id="Layer_1" xmlns="http://www.w3.org/2000/svg" xmlns:xlink="http://www.w3.org/1999/xlink" x="0px" y="0px"
	 viewBox="0 0 512 512" style="enable-background:new 0 0 512 512;" xml:space="preserve">
<style type="text/css">
	.st0{fill:#4FC3A0;}
	.st1{fill:#0092C9;}
	.st2{fill:#FFCB5B;}
	.st3{fill:#F4A947;}
	.st4{fill:#E28C37;}
	.st5{fill:#ADADAD;}
	.st6{fill:#FFFFFF;}
	.st7{fill:#C4C4C4;}
</style>
<g id="Clipboard_Insurance">
	<path class="st0" d="M360,32H56c-17.7,0-32,14.3-32,32v392c0,17.7,14.3,32,32,32h328c4.4,0,8-3.6,8-8c0,0,0,0,0,0V64
		C392,46.3,377.7,32,360,32z"/>
	<path class="st1" d="M64,64h288c4.4,0,8,3.6,8,8v376c0,4.4-3.6,8-8,8H64c-4.4,0-8-3.6-8-8V72C56,67.6,59.6,64,64,64z"/>
	<path class="st2" d="M480.5,312c-30.7-2.8-59.9-15.1-83.3-35.1c-3-2.5-7.3-2.5-10.3,0c-23.5,20-52.6,32.3-83.3,35.1
		c-4.2,0.3-7.5,3.8-7.5,8v69.3c0.1,57.3,38.6,107.5,93.9,122.4c1.4,0.4,2.8,0.4,4.1,0c55.4-14.9,93.9-65.1,93.9-122.4V320
		C488,315.8,484.7,312.3,480.5,312L480.5,312z"/>
	<path class="st3" d="M457.7,333c-21.9-5-42.7-14-61.2-26.7c-2.7-1.8-6.3-1.8-9,0C369,319,348.2,328.1,326.3,333
		c-3.7,0.8-6.3,4.1-6.3,7.8v48.5c0,43.9,27.9,83,69.4,97.2c1.7,0.6,3.5,0.6,5.2,0c41.5-14.2,69.4-53.3,69.4-97.2v-48.5
		C464,337.1,461.4,333.8,457.7,333z"/>
	<path class="st4" d="M384,416.3c-2.1,0-4.2-0.8-5.7-2.3l-16-16c-3.1-3.1-3.2-8.2-0.1-11.3c3.1-3.1,8.2-3.2,11.3-0.1
		c0,0,0.1,0.1,0.1,0.1l10.3,10.3l26.3-26.3c3.1-3.1,8.2-3.1,11.3,0s3.1,8.2,0,11.3c0,0,0,0,0,0l-32,32
		C388.2,415.4,386.1,416.3,384,416.3L384,416.3z"/>
	<path class="st5" d="M328,32h-43.1L271.2,4.4C269.8,1.7,267,0,264,0H160c-3,0-5.8,1.7-7.2,4.4L139.1,32H88v64c0,4.4,3.6,8,8,8h224
		c4.4,0,8-3.6,8-8V32z"/>
	<g>
		<path class="st6" d="M96,128h32c4.4,0,8,3.6,8,8v32c0,4.4-3.6,8-8,8H96c-4.4,0-8-3.6-8-8v-32C88,131.6,91.6,128,96,128z"/>
		<path class="st6" d="M160,144h160c4.4,0,8-3.6,8-8s-3.6-8-8-8H160c-4.4,0-8,3.6-8,8S155.6,144,160,144z"/>
		<path class="st6" d="M160,176h96c4.4,0,8-3.6,8-8s-3.6-8-8-8h-96c-4.4,0-8,3.6-8,8S155.6,176,160,176z"/>
		<path class="st6" d="M96,192h32c4.4,0,8,3.6,8,8v32c0,4.4-3.6,8-8,8H96c-4.4,0-8-3.6-8-8v-32C88,195.6,91.6,192,96,192z"/>
		<path class="st6" d="M320,192H160c-4.4,0-8,3.6-8,8s3.6,8,8,8h160c4.4,0,8-3.6,8-8S324.4,192,320,192z"/>
		<path class="st6" d="M160,240h96c4.4,0,8-3.6,8-8s-3.6-8-8-8h-96c-4.4,0-8,3.6-8,8S155.6,240,160,240z"/>
		<path class="st6" d="M96,256h32c4.4,0,8,3.6,8,8v32c0,4.4-3.6,8-8,8H96c-4.4,0-8-3.6-8-8v-32C88,259.6,91.6,256,96,256z"/>
		<path class="st6" d="M320,256H160c-4.4,0-8,3.6-8,8s3.6,8,8,8h160c4.4,0,8-3.6,8-8S324.4,256,320,256z"/>
		<path class="st6" d="M160,304h56c4.4,0,8-3.6,8-8s-3.6-8-8-8h-56c-4.4,0-8,3.6-8,8S155.6,304,160,304z"/>
		<path class="st6" d="M96,320h32c4.4,0,8,3.6,8,8v32c0,4.4-3.6,8-8,8H96c-4.4,0-8-3.6-8-8v-32C88,323.6,91.6,320,96,320z"/>
		<path class="st6" d="M256,320h-96c-4.4,0-8,3.6-8,8s3.6,8,8,8h96c4.4,0,8-3.6,8-8S260.4,320,256,320z"/>
		<path class="st6" d="M160,368h56c4.4,0,8-3.6,8-8s-3.6-8-8-8h-56c-4.4,0-8,3.6-8,8S155.6,368,160,368z"/>
		<path class="st6" d="M96,384h32c4.4,0,8,3.6,8,8v32c0,4.4-3.6,8-8,8H96c-4.4,0-8-3.6-8-8v-32C88,387.6,91.6,384,96,384z"/>
		<path class="st6" d="M256,384h-96c-4.4,0-8,3.6-8,8s3.6,8,8,8h96c4.4,0,8-3.6,8-8S260.4,384,256,384z"/>
		<path class="st6" d="M216,416h-56c-4.4,0-8,3.6-8,8s3.6,8,8,8h56c4.4,0,8-3.6,8-8S220.4,416,216,416z"/>
	</g>
	<path class="st7" d="M248,64h-72c-4.4,0-8-3.6-8-8s3.6-8,8-8h72c4.4,0,8,3.6,8,8S252.4,64,248,64z"/>
</g>
</svg>
