<svg id="Layer_1" data-name="Layer 1" xmlns="http://www.w3.org/2000/svg" viewBox="0 0 1079.43 1079.43"><defs><style>.cls-1{fill:#0092c9}.cls-2{fill:#4fc3a0}</style></defs><path class="cls-1" d="M832.72 405.64V218.47c0-28.89-20.53-50.14-48.7-50.14H322.54a45.85 45.85 0 0 0-30.32 10.75c-13.37 10.74-18.38 25.06-18.38 42q.36 311.92 0 623.83v6.44a48.75 48.75 0 0 0 32.23 43.69c2.62 1 5.73.48 7.88 2.87h320.38c18.62-3.59 32-14.81 44.88-27.94C722.9 825.82 766.83 781.65 811 738c14.8-14.56 21.72-31.27 21.48-52q.36-140.46.24-280.36ZM687.33 824.86v-60.4c0-7.4 4.06-12.41 10.75-12.41 21-.24 42 0 62.31 0Zm80.93-97.4c-21.72-.72-43.69-.24-65.41 0-25.07 0-39.63 14.8-39.63 39.87v66.84c0 23.88-15.52 39.16-39.39 39.16H326.36c-18.14 0-27.69-9.32-27.69-27.46V533.36c0-103.85.24-207.94-.24-311.79 0-19.57 13.37-29.12 28.89-28.88q226.32.7 452.88.23c19.82 0 28.89 8.84 28.89 28.41 0 155.18-.24 310.36.24 465.54-.48 22-15.28 41.3-41.07 40.59Z" transform="translate(.4 -.57)"/><path class="cls-1" d="M565.58 338.55A109.22 109.22 0 0 1 674.2 229h.48a109.58 109.58 0 1 1-109.1 111.25v-1.67ZM554.12 618.12h200.06c2.62 0 5.25 0 7.88.23 6 1 9.31 4.54 10 10.27s-1.67 10-7.16 12.65c-3.1 1.44-6.44 1.2-9.79 1.2h-408c-7.64-.48-12.89-6-12.41-12.9.24-6.68 5.25-11.45 12.89-11.45 23.87-.24 48 0 71.86 0Z" transform="translate(.4 -.57)"/><path class="cls-2" d="M498.49 690.93h150.17c10.5 0 16.71 7.88 13.13 16.47-1.91 4.78-5.73 7.4-11 7.64-4.53.24-9.07 0-13.6 0H352.14a35.78 35.78 0 0 1-7.16-.24 12 12 0 0 1 .72-23.87 35.69 35.69 0 0 1 7.16 0Z" transform="translate(.4 -.57)"/><path class="cls-1" d="M474.62 787.86H350c-5 0-9.55-.48-12.66-4.78a12 12 0 0 1 2.39-17 14.81 14.81 0 0 1 5.25-2.38 35.78 35.78 0 0 1 7.16-.24h247.58c8.83.24 14.56 4.77 14.56 12.17 0 7.16-5.49 12.18-14.56 12.18-41.78.05-83.56.29-125.1.05Z" transform="translate(.4 -.57)"/><path class="cls-2" d="M719.56 350.49c11.46 0 22.68.24 34.14 0 3.82 0 5.25.48 4.54 5-10.27 57.78-82.61 87.62-130.35 53.72-3.35-2.39-3.35-3.34-.48-6.21 16.71-16.47 33.18-33.18 49.89-49.89 2.39-2.39 4.54-2.63 7.64-2.63ZM606.88 388.93c-36.53-49.42-10.75-119.13 48.7-133.46 6-1.43 7.64-.24 7.4 6-.48 22-.24 44.17-.24 66.13 0 2.87.24 5.25-2.15 7.88-17.9 17.64-35.59 35.52-53.71 53.45ZM723.14 326.38c-10.5 0-20.77-.24-31.27 0-3.82 0-4.78-1.2-4.78-4.78.24-20.77.24-41.78 0-62.55 0-4.29 1.44-4.53 5-4.05 30.79 4.53 62.55 36.76 66.37 67.08.47 3.82-1 4.3-4.06 4.06-10.49 0-20.99.24-31.26.24Z" transform="translate(.4 -.57)"/><path class="cls-1" d="M407.77 364.81c0-16.47-9.79-26-26-26.5-6-.23-11.94 0-17.91 0-20 0-29.12 9.08-29.12 29.13v186.69c0 17.67 9.55 27.22 27.21 27.46h17.19c19.58 0 28.89-9.07 28.89-28.65v-93.35c-.26-31.75-.26-63.26-.26-94.78ZM377 557.24c-5.73-.48-13.13 1.91-16.47-1-4.06-3.34-1.19-11.22-1.19-16.95 0-56.58 0-112.92-.24-169.5 0-5.49 1.19-7.16 6.92-7.16 17.43.23 17.43 0 17.43 17.9v79c0 30.32-.24 60.64.24 91.2-.03 5.27-1.46 6.98-6.69 6.51Z" transform="translate(.4 -.57)"/><path class="cls-2" d="M504.94 423.78c0-14.32-10.51-24.35-24.83-24.83-7.16-.23-14.33 0-21.25 0-16.71 0-26.5 9.79-26.74 26.27v64.69c0 22.44-.24 44.65 0 66.85 0 14.09 10.27 24.11 24.11 24.35 8.12.24 16.24.24 24.12 0 13.84-.24 24.35-10.5 24.35-24.35.24-44.17.24-88.57.24-132.98Zm-24.12 127c0 4.78-.71 6.92-6 6.45-5.73-.48-13.61 1.67-17.19-1.2-3.82-3.1-1.2-11-1.2-16.95-.24-16.23 0-32.7 0-48.94 0-20 .24-40.34 0-60.4 0-4.53.48-7.16 6-6.44 5.73.71 13.37-2.39 17.19 1.19s1.19 11.22 1.19 16.95c-.23 36.53-.23 73.05 0 109.34Z" transform="translate(.4 -.57)"/><path class="cls-1" d="M601.86 473c-.23-14.56-9.78-24.59-24.35-25.3-8.11-.24-16.23-.24-24.11 0-13.85.47-24.11 10.5-24.11 23.87-.24 28.65-.24 57.3 0 86.18 0 13.14 10.26 23.16 23.63 23.64 8.12.24 16.24.24 24.12 0 14.8-.24 24.82-10.27 24.82-25.07V515c0-14.1.24-28.19 0-42Zm-24.11 41.5c0 12.42-.24 24.59 0 37 0 4.06-.48 6-5.25 5.73-6-.48-14.09 1.91-17.91-1.2s-1.19-11.46-1.19-17.66c-.24-20.06.24-40.35-.24-60.4 0-5 1.43-6.69 6.45-6.21 5.73.72 13.61-2.63 16.95 1.43 2.86 3.34 1 10.74 1 16.47.24 8.36.24 16.72.24 24.83Z" transform="translate(.4 -.57)"/><path class="cls-2" d="M699 533.12v-26.26c-.95-12.65-10.5-22-23.16-22.44-8.35-.24-16.47-.24-24.83 0-14.08.24-24.35 10-24.59 24.11-.23 16-.23 32.23 0 48.23.24 14.32 10.51 24.35 24.83 24.59 7.88.24 15.52.24 23.4 0 14.08-.24 24.11-9.79 24.35-24.11.27-8.12 0-16 0-24.12Zm-24.11-5.73v5.73c0 6.45-.24 12.9 0 19.34.24 3.58-.72 4.78-4.54 4.78-19.81.71-19.81.71-19.81-18.86 0-8.36.24-16.71 0-24.83 0-3.58.95-5.25 4.77-4.78 6.45.48 14.56-2.62 18.62 1.2 3.58 3.1.48 11.46 1 17.42Z" transform="translate(.4 -.57)"/><circle cx="539.71" cy="539.71" r="530.71" style="stroke:#0092c9;stroke-width:6.75px;stroke-dasharray:26.9 26.9;fill:none;stroke-miterlimit:10"/><circle cx="539.71" cy="539.71" r="530.71" style="stroke:#4fc3a0;stroke-linecap:round;stroke-width:18px;stroke-dasharray:185.29 185.29;fill:none;stroke-miterlimit:10"/></svg>