<svg id="Layer_1" data-name="Layer 1" xmlns="http://www.w3.org/2000/svg" viewBox="0 0 625.86 816.38"><defs><style>.cls-1{fill:#4fc3a0;}.cls-2{fill:#0092c9;}</style></defs><path class="cls-1" d="M890.48,383.28c0-69.89.1-139.78-.06-209.67-.07-32.31-23.12-56.05-54.65-56.07q-258.27-.18-516.56-.05a52.42,52.42,0,0,0-33.86,11.92c-14.88,12.07-20.57,28-20.55,47q.27,349.19.12,698.37c0,2.39,0,4.78.1,7.17a54.33,54.33,0,0,0,36.07,48.82c2.91,1,6.34.66,8.75,3.09H668.57c20.81-3.9,35.88-16.57,50.32-31.2q73.35-74.32,147.66-147.71c16.47-16.29,24.19-35.1,24.1-58.35C890.25,592.15,890.48,487.72,890.48,383.28Zm-163,469.32c0-22.05-.08-44.84,0-67.63,0-8.28,4.42-13.84,12.07-14,23.49-.37,47-.13,69.82-.13Zm90.63-109.05c-24.42-.68-48.88-.21-73.32-.12-28.15.11-44.44,16.46-44.49,44.54,0,25,.06,49.95,0,74.93-.09,26.62-17.29,43.76-44,43.77q-166.57.06-333.16,0c-20.4,0-31-10.5-31-30.78q0-175,0-349.93c0-116.37.31-232.75-.28-349.13-.11-21.9,14.91-32.49,32.25-32.45q253.46.63,506.92.25c22.13,0,32.28,10,32.28,31.9,0,173.77-.26,347.54.3,521.3C863.66,722.64,847,744.37,818.08,743.55Z" transform="translate(-264.8 -117.47)"/><path class="cls-2" d="M591.42,308.26A122.11,122.11,0,0,1,713.64,185.67C781,185.48,835.88,240,836.07,307.27a122.33,122.33,0,1,1-244.65,1Z" transform="translate(-264.8 -117.47)"/><path class="cls-2" d="M578.34,621H802.23a62.19,62.19,0,0,1,8.75.23c6.59,1,10.48,5.07,11.3,11.54s-2,11.29-8,14.1c-3.51,1.65-7.26,1.32-11,1.32h-451c-1.86,0-3.72.1-5.57,0-8.56-.63-14.3-6.58-13.93-14.33.35-7.42,6-12.72,14.44-12.76,26.82-.14,53.64-.06,80.47-.07Z" transform="translate(-264.8 -117.47)"/><path class="cls-1" d="M516.24,702.6q84,0,168.07,0c11.85,0,18.68,8.76,14.71,18.5-2.23,5.47-6.45,8.31-12.26,8.56-5,.22-10.08.07-15.13.07H352.22a50.1,50.1,0,0,1-8-.22,13.52,13.52,0,0,1,.72-26.8,72.83,72.83,0,0,1,8-.13Z" transform="translate(-264.8 -117.47)"/><path class="cls-2" d="M489.32,811.27q-69.72,0-139.44.05c-5.53,0-10.61-.58-14.24-5.34a13.58,13.58,0,0,1,8.56-21.59,42.1,42.1,0,0,1,7.95-.29h274.1c1.06,0,2.12,0,3.19,0,9.9.16,16.26,5.47,16.32,13.6s-6.21,13.54-16.2,13.55Q559.45,811.33,489.32,811.27Z" transform="translate(-264.8 -117.47)"/><path class="cls-1" d="M763.72,321.57c12.74,0,25.48.16,38.21-.09,4.4-.08,6,.64,5.11,5.6-11.51,64.71-92.42,98-145.93,60.11-3.63-2.57-3.69-3.85-.64-6.86q28-27.69,55.74-55.75c2.56-2.6,5.2-3.07,8.49-3.05C737.71,321.63,750.71,321.57,763.72,321.57Z" transform="translate(-264.8 -117.47)"/><path class="cls-1" d="M637.58,364.54C596.79,309.2,625.68,231.09,692,215.2c6.6-1.58,8.53-.35,8.4,6.79-.46,24.69-.18,49.38-.18,74.08,0,3.13.22,6-2.52,8.71C677.68,324.49,657.81,344.39,637.58,364.54Z" transform="translate(-264.8 -117.47)"/><path class="cls-1" d="M767.6,294.41c-11.66,0-23.33-.19-35,.1-4.27.11-5.3-1.23-5.27-5.34.19-23.33.23-46.66,0-70-.06-4.75,1.65-5,5.52-4.45C767.2,219.8,803,256,807.22,289.82c.55,4.35-1.08,4.71-4.63,4.66C790.93,294.3,779.26,294.41,767.6,294.41Z" transform="translate(-264.8 -117.47)"/><path class="cls-2" d="M414.49,337.52c-.09-18.34-11-29.18-29.2-29.57-6.64-.15-13.29,0-19.93,0-22.4.05-32.65,10.24-32.66,32.56q0,75.33,0,150.66c0,19.39-.05,38.79,0,58.19.08,19.83,10.8,30.58,30.41,30.67q9.57,0,19.13,0c22,0,32.25-10.15,32.27-32q.06-52.22,0-104.43C414.54,408.2,414.66,372.86,414.49,337.52ZM380,552.94c-6.31-.62-14.78,2.07-18.54-1.13-4.43-3.76-1.4-12.48-1.41-19-.13-63.24,0-126.48-.21-189.72,0-6.13,1.38-8.13,7.84-8,19.62.34,19.62.05,19.62,20v88.48h0c0,34-.17,68,.15,102C387.53,551.62,386,553.53,380,552.94Z" transform="translate(-264.8 -117.47)"/><path class="cls-1" d="M523.28,403.69c-.06-16-11.73-27.38-27.75-27.74-8-.18-15.93-.08-23.89,0-18.77.1-29.75,10.86-29.83,29.51-.11,24.16,0,48.32,0,72.47,0,25-.17,49.91.07,74.86C442,568.65,453.24,579.68,469,580c9,.16,18.05.18,27.07,0,15.55-.33,27.14-11.63,27.21-27.34Q523.6,478.15,523.28,403.69Zm-27,142.12c0,5.32-.89,7.71-6.79,7.13-6.53-.65-15.12,2-19.18-1.3-4.29-3.47-1.22-12.38-1.29-18.89-.21-18.3-.07-36.6-.07-54.89,0-22.54.14-45.08-.11-67.62-.05-5.13.64-7.95,6.7-7.24,6.52.77,15-2.65,19.2,1.25s1.31,12.54,1.33,19.06C496.26,464.14,496.09,505,496.32,545.81Z" transform="translate(-264.8 -117.47)"/><path class="cls-2" d="M632,458.57c-.15-16.27-11.07-27.64-27.22-28.21-9-.32-18.07-.33-27.09,0-15.47.57-26.94,11.75-27,26.74q-.33,48.21,0,96.42c.11,14.76,11.59,26,26.37,26.41,9,.24,18.06.16,27.09,0,16.64-.22,27.75-11.4,27.89-28.16.13-15.41,0-30.82,0-46.22C632,489.92,632.13,474.24,632,458.57Zm-27.13,46.66c0,13.8-.17,27.61.11,41.41.09,4.56-.6,6.79-5.91,6.3-6.81-.62-15.8,2.15-20-1.27-4.4-3.6-1.28-12.91-1.33-19.71-.17-22.56.14-45.13-.21-67.69-.09-5.74,1.65-7.49,7.12-6.83,6.51.79,15.2-2.84,19,1.49,3.21,3.65,1.09,12.1,1.15,18.42C604.92,486.64,604.85,495.94,604.86,505.23Z" transform="translate(-264.8 -117.47)"/><path class="cls-1" d="M740.83,525.92q0-13.53,0-27.06c0-.79-.05-1.59-.11-2.38-1.12-14.14-11.87-24.65-26-25.06-9.28-.27-18.57-.2-27.85-.05-15.7.26-27.23,11.28-27.55,27-.38,18-.31,36.08,0,54.11.26,16.11,11.75,27.26,27.84,27.52q13.13.21,26.26,0c15.83-.27,26.88-11.08,27.39-27C741.06,544,740.82,534.94,740.83,525.92Zm-27.22-6.33c.11,2.12,0,4.25,0,6.37,0,7.18-.2,14.36.1,21.52.16,4-.84,5.34-5.17,5.47-22.17.68-22.16.82-22.16-21.19,0-9.3.2-18.61-.09-27.89-.13-4.13,1-5.78,5.29-5.42,7.09.58,16.19-2.84,20.76,1.31C716.57,503.59,713.24,512.77,713.61,519.59Z" transform="translate(-264.8 -117.47)"/></svg>