<svg id="Layer_1" data-name="Layer 1" xmlns="http://www.w3.org/2000/svg" viewBox="0 0 512 512"><defs><style>.cls-1{fill:#0092c9;}.cls-2{fill:#fff;}.cls-3{fill:#4fc3a0;}</style></defs><path class="cls-1" d="M329,459.9a7.13,7.13,0,0,0-7.9-3.3,197.15,197.15,0,0,1-50.7,6.7,195.93,195.93,0,0,1-196-194.9h26a7.05,7.05,0,0,0,6.1-3.5,6.77,6.77,0,0,0,0-7L83.1,217.5,59.7,177a7.07,7.07,0,0,0-12.2,0L.9,257.8a6.77,6.77,0,0,0,0,7A7.05,7.05,0,0,0,7,268.3H28.7c.2,63,24.5,122.3,68.7,167.7a241.9,241.9,0,0,0,243.9,62.3,7,7,0,0,0,4.5-4.1,6.92,6.92,0,0,0-.5-6.1Z"/><path class="cls-2" d="M270.3,494.9A227.64,227.64,0,0,1,42.8,261.5a7.44,7.44,0,0,0-2-5.1,6.72,6.72,0,0,0-5-2.1H19.1l34.5-59.8,34.6,59.8H67.4a7,7,0,0,0-7,6.8A210.07,210.07,0,0,0,270.3,477.3a212.68,212.68,0,0,0,49.1-5.8l9.2,15.9a227.93,227.93,0,0,1-58.3,7.5Z"/><path class="cls-1" d="M512,267.2A241.35,241.35,0,0,0,383.6,53.7a6.88,6.88,0,0,0-6.1-.2,7.06,7.06,0,0,0-4,4.6l-8.4,31.5a7,7,0,0,0,3.3,7.9,196.83,196.83,0,0,1,98,169.7,194,194,0,0,1-56.8,138l-15-15a6.9,6.9,0,0,0-6.8-1.8,6.77,6.77,0,0,0-4.9,4.9c-7.5,28-14.3,53.3-21.7,80.8A7.07,7.07,0,0,0,368,483a11,11,0,0,0,1.8-.2l80.8-21.7a7,7,0,0,0,5-5,7.13,7.13,0,0,0-1.8-6.8l-11.9-11.9A240.8,240.8,0,0,0,512,267.2Z"/><path class="cls-2" d="M426.9,442.4l8.4,8.3-57.4,15.4c5.2-19.3,10.1-37.8,15.4-57.4L404.6,420a6.91,6.91,0,0,0,9.7.1A209.9,209.9,0,0,0,380,88.1l4.7-17.7A227.52,227.52,0,0,1,427,432.3a6.82,6.82,0,0,0-2.2,5,7.18,7.18,0,0,0,2.1,5.1Z"/><path class="cls-1" d="M61.3,164l31.5,8.4a5.54,5.54,0,0,0,1.8.2,7.05,7.05,0,0,0,6.1-3.5A196.73,196.73,0,0,1,270.4,71.2h4.3V91a7.05,7.05,0,0,0,3.5,6.1,6.77,6.77,0,0,0,7,0l70-40.4a7.07,7.07,0,0,0,0-12.2L285.2,4a6.77,6.77,0,0,0-7,0,7.05,7.05,0,0,0-3.5,6.1V25.6h-4.3A241.45,241.45,0,0,0,56.9,153.9,7.1,7.1,0,0,0,61.3,164Z"/><path class="cls-2" d="M270.3,39.6c3.7,0,7.4.1,11,.2a7.15,7.15,0,0,0,5.2-1.9,6.87,6.87,0,0,0,2.2-5.1V22.2l49,28.3-49,28.3V64.6a7,7,0,0,0-6.6-7q-5.4-.3-11.7-.3a209.68,209.68,0,0,0-179,100.2l-17.7-4.8A227,227,0,0,1,270.3,39.6Z"/><path class="cls-3" d="M379.5,359.1A144.62,144.62,0,0,0,399,328.3a7,7,0,0,0-1.4-8l-14.8-14.5a117.59,117.59,0,0,0,5.1-22.8l20.2-9.2a7,7,0,0,0,4.1-6.4,144.08,144.08,0,0,0-4.4-34,7.15,7.15,0,0,0-6.2-5.3l-20.5-1.6a118.64,118.64,0,0,0-13.2-25.2l9.4-19.6a7,7,0,0,0-1.1-7.7,143.08,143.08,0,0,0-24-21.4,7.07,7.07,0,0,0-8.1,0l-16.8,12a118.4,118.4,0,0,0-29.8-11.4l-5.3-20.5a6.93,6.93,0,0,0-6-5.2,149.8,149.8,0,0,0-31.4,0,6.93,6.93,0,0,0-6,5.2l-5.3,20.5a114.72,114.72,0,0,0-29.8,11.4l-16.8-12a7.07,7.07,0,0,0-8.1,0A143.23,143.23,0,0,0,164.7,174a7,7,0,0,0-1.1,7.7l9.4,19.6a119,119,0,0,0-13.3,25.2l-20.5,1.6a6.8,6.8,0,0,0-6.2,5.3,142.74,142.74,0,0,0-4.4,34,6.94,6.94,0,0,0,4.1,6.4l20.2,9.2a125.45,125.45,0,0,0,5.1,22.8l-14.8,14.5a6.89,6.89,0,0,0-1.4,7.9A139.43,139.43,0,0,0,161.3,359a7.19,7.19,0,0,0,7.3,2.3l21.5-6a103.59,103.59,0,0,0,14.8,11.6l-2.1,21.2a6.87,6.87,0,0,0,3.8,6.9,140.83,140.83,0,0,0,35.8,12.4,6.6,6.6,0,0,0,1.4.1,7.16,7.16,0,0,0,5.8-3L262,386.4a120.57,120.57,0,0,0,17,0l12.4,18.1a7,7,0,0,0,7.2,2.9A142,142,0,0,0,334.4,395a7,7,0,0,0,3.8-6.9l-2.1-21.2a128.14,128.14,0,0,0,14.8-11.6l21.5,6a6.57,6.57,0,0,0,7.1-2.2Z"/><path class="cls-2" d="M350.7,340.9a6.9,6.9,0,0,0-6.8,1.8A100.87,100.87,0,0,1,325,357.6a6.88,6.88,0,0,0-3.3,6.6l2,20.6a120.89,120.89,0,0,1-23.5,8.1l-12.1-17.6a7.06,7.06,0,0,0-6.5-3,105.77,105.77,0,0,1-22.5,0,6.87,6.87,0,0,0-6.5,3l-12.1,17.6a125.66,125.66,0,0,1-23.5-8.1l2-20.6a6.79,6.79,0,0,0-3.3-6.6,100.87,100.87,0,0,1-18.9-14.9,6.9,6.9,0,0,0-6.8-1.8l-20.9,5.8a128.53,128.53,0,0,1-12.6-19.9l14.4-14.1a6.94,6.94,0,0,0,1.6-7.5,102.65,102.65,0,0,1-6.2-27.5,7.14,7.14,0,0,0-4.1-5.8L142.6,263a126.63,126.63,0,0,1,2.7-21.3l19.9-1.6a7,7,0,0,0,6.1-4.7,104.49,104.49,0,0,1,15.3-29.2,7,7,0,0,0,.7-7.2l-9.1-19.1a128,128,0,0,1,14.6-13l16.3,11.7a7.16,7.16,0,0,0,7.7.3A104.12,104.12,0,0,1,250.4,166a6.75,6.75,0,0,0,5.4-5.1l5.1-19.9a116.75,116.75,0,0,1,18.7,0l5.1,19.9a7,7,0,0,0,5.5,5.1,101.88,101.88,0,0,1,33.6,12.9,7.16,7.16,0,0,0,7.7-.3L348,167a128.07,128.07,0,0,1,14.5,13l-9.1,19.1a7.18,7.18,0,0,0,.7,7.2,104.2,104.2,0,0,1,15.2,29.2,7.13,7.13,0,0,0,6.1,4.8l19.9,1.6a126.63,126.63,0,0,1,2.7,21.3l-19.7,8.9a7,7,0,0,0-4.1,5.8,103.52,103.52,0,0,1-6.2,27.5,7.17,7.17,0,0,0,1.6,7.5L384,327a128.53,128.53,0,0,1-12.6,19.9Z"/><path class="cls-3" d="M320,294.5c-1.5,10.3-9.1,19.6-20.5,25a53.09,53.09,0,0,1-18.4,4.7v16.3a7,7,0,0,1-14,0V323.8c-13.6-1.7-28.4-7.1-43.3-16.2a7,7,0,0,1,7.3-11.9c33.9,20.6,55,14.6,62.5,11.1,7.1-3.3,11.8-8.7,12.6-14.3,1.5-10.6-5.7-13.5-29.7-17.2-17.4-2.7-37.1-5.7-45.2-21.2-5.5-10.6-3.1-22.8,6.2-32,6.4-6.2,16.5-11.2,29.7-12.1V193.8a7,7,0,0,1,14,0v16.8c9.8,1.4,20.7,4.9,32.5,11.4a7,7,0,1,1-6.7,12.3c-27.4-15-49.7-11.9-59.6-2.2-4.8,4.7-6.2,10.5-3.6,15.5,4.8,9.2,20.1,11.5,34.9,13.8,10.6,1.6,20.6,3.2,28.3,7.2,10.1,5.4,14.6,14.3,13,25.9Z"/></svg>