<svg id="Layer_1" data-name="Layer 1" xmlns="http://www.w3.org/2000/svg" viewBox="0 0 1078.92 1078.92"><defs><style>.cls-1{fill:#0092c9}.cls-2{fill:#4fc3a0}</style></defs><path class="cls-1" d="M647.41 860a11.76 11.76 0 0 0-13.11-5.46 323.49 323.49 0 0 1-84.3 11.18c-179.3 0-325.18-144.79-326.06-324.31h43.24a11.32 11.32 0 0 0 10.05-5.89 11.07 11.07 0 0 0 0-11.58l-38.87-67.26-38.87-67.48a11.74 11.74 0 0 0-16.16-4.15 10.88 10.88 0 0 0-4.15 4.15l-77.52 134.31a11 11 0 0 0 0 11.57 11.56 11.56 0 0 0 10 5.9h36c.51 104.82 40.92 203.53 114.34 278.88a403.15 403.15 0 0 0 405.72 103.73 11.47 11.47 0 0 0 7.42-6.77 11 11 0 0 0-.87-10Z" transform="translate(.59 -1.08)"/><path class="cls-1" d="M549.79 918.35c-209.22 0-378.69-169.69-378.69-378.9 0-3.06 0-6.33.22-9.39a12.64 12.64 0 0 0-3.27-8.52 12 12 0 0 0-8.3-3.49h-28l57.44-99.59 57.65 99.59h-34.5a11.61 11.61 0 0 0-11.54 11.35C195.13 722.24 346.91 883.19 540 888.87c3.28 0 6.77.22 10 .22a355.47 355.47 0 0 0 81.67-9.61L647 905.9a385 385 0 0 1-97.18 12.45ZM951.84 539.45a401.45 401.45 0 0 0-213.58-355.1 11.61 11.61 0 0 0-10-.44 11 11 0 0 0-6.55 7.65l-14 52.41a11.75 11.75 0 0 0 5.46 13.1 328 328 0 0 1 163.11 282.38A321.87 321.87 0 0 1 781.72 769l-24.9-24.89a11.43 11.43 0 0 0-11.36-3.11 11.23 11.23 0 0 0-8.08 8.08c-12.45 46.52-23.8 88.67-36 134.31a11.65 11.65 0 0 0 8.3 14.41 12.73 12.73 0 0 0 3.05.44 14.58 14.58 0 0 0 3.06-.44l134.31-36a11.42 11.42 0 0 0 8.3-8.3 11.69 11.69 0 0 0-3.06-11.36l-19.87-19.87a399.36 399.36 0 0 0 116.37-282.82Z" transform="translate(.59 -1.08)"/><path class="cls-1" d="m810.32 831 14 13.75-95.65 25.56c8.73-32.11 16.81-62.9 25.55-95.44L773 793.65a11.6 11.6 0 0 0 16.16.22c140.42-132.12 147.19-353.13 15.29-493.56a353.5 353.5 0 0 0-72.29-58.74l7.84-29.48c180.83 105 242.2 336.53 137.37 517.36a374.84 374.84 0 0 1-67 84.73 11.28 11.28 0 0 0-3.71 8.3 12.28 12.28 0 0 0 3.66 8.52ZM202.12 367.8l52.41 14a12.74 12.74 0 0 0 3.06.44 11.29 11.29 0 0 0 10-5.9A327.3 327.3 0 0 1 550 213.4h7.2v33a11.33 11.33 0 0 0 5.9 10.05 11.05 11.05 0 0 0 11.57 0l116.4-67.26a11.75 11.75 0 0 0 4.16-16.19 10.78 10.78 0 0 0-4.15-4.14l-116.61-67.28a11.07 11.07 0 0 0-11.58 0 11.58 11.58 0 0 0-5.9 10v25.82h-7a401.23 401.23 0 0 0-355.1 213.36 11.85 11.85 0 0 0 5 15.94 4.16 4.16 0 0 0 2.23 1.1Z" transform="translate(.59 -1.08)"/><path class="cls-1" d="M549.79 160.77c6.11 0 12.23.21 18.34.43a12.56 12.56 0 0 0 8.74-3.06 11.39 11.39 0 0 0 3.71-8.51v-17.69L662 179.11l-81.68 46.95v-23.58a11.53 11.53 0 0 0-10.92-11.58c-5.89-.43-12.45-.43-19.43-.43A349.66 349.66 0 0 0 252.13 357.1l-29.49-8.1a378.24 378.24 0 0 1 327.15-188.23Z" transform="translate(.59 -1.08)"/><path class="cls-2" d="M731.49 692.32A246.27 246.27 0 0 0 764 641a11.3 11.3 0 0 0-2.41-13.32l-24.67-24a187.56 187.56 0 0 0 8.51-38l33.63-15.29a11.82 11.82 0 0 0 6.77-10.7 236.25 236.25 0 0 0-7.42-56.56 11.88 11.88 0 0 0-10.26-8.74l-34.07-2.62a192.42 192.42 0 0 0-22.06-41.93l15.72-32.54a12.09 12.09 0 0 0-1.74-12.91 237.8 237.8 0 0 0-40-35.59 11.82 11.82 0 0 0-13.54 0l-27.95 19.87a200.53 200.53 0 0 0-49.58-19l-8.73-34.07a11.94 11.94 0 0 0-10-8.73 260.06 260.06 0 0 0-52.19 0 11.61 11.61 0 0 0-10 8.73l-8.73 34.07a184.58 184.58 0 0 0-49.58 19l-28-19.87a11.82 11.82 0 0 0-13.54 0A239.19 239.19 0 0 0 374 384.39a11.62 11.62 0 0 0-1.75 12.89L388 429.82a201.93 201.93 0 0 0-22 41.93l-34.07 2.62a11.16 11.16 0 0 0-10.27 8.74 236.75 236.75 0 0 0-7.42 56.56 11.82 11.82 0 0 0 6.77 10.7l33.63 15.29a227.67 227.67 0 0 0 8.52 38l-24.68 24a11.71 11.71 0 0 0-2.4 13.1 233.53 233.53 0 0 0 32.54 51.32 12.27 12.27 0 0 0 12.14 3.92l35.81-10a174.87 174.87 0 0 0 24.68 19.22l-3.49 35.16a11.61 11.61 0 0 0 6.33 11.57 229.44 229.44 0 0 0 59.62 20.53 8.88 8.88 0 0 0 2.4.22 11.79 11.79 0 0 0 9.61-5l20.53-30.13a203.72 203.72 0 0 0 28.17 0L585 767.66a11.73 11.73 0 0 0 12 4.81 241 241 0 0 0 59.62-20.53 11.61 11.61 0 0 0 6.33-11.57l-3.49-35.16A235.19 235.19 0 0 0 684.1 686l35.81 10a10.59 10.59 0 0 0 11.58-3.71Z" transform="translate(.59 -1.08)"/><path class="cls-2" d="M683.44 662.18a11.69 11.69 0 0 0-11.36 3.06 173.63 173.63 0 0 1-31.44 24.9 11.45 11.45 0 0 0-5.46 10.92l3.27 34.28a201 201 0 0 1-39.09 13.54l-20.09-29.26a11.76 11.76 0 0 0-10.92-5 177.88 177.88 0 0 1-37.34 0 12 12 0 0 0-10.92 5L500 748.88a201.35 201.35 0 0 1-39.1-13.54l3.28-34.28a11.47 11.47 0 0 0-5.46-10.92 164.29 164.29 0 0 1-31.45-24.9 11.41 11.41 0 0 0-11.35-3.06l-34.73 9.61a193 193 0 0 1-21-33.19l24-23.37a11.45 11.45 0 0 0 2.62-12.45 172.84 172.84 0 0 1-10.26-45.64 12.12 12.12 0 0 0-6.77-9.61l-32.48-14.85a190.8 190.8 0 0 1 4.58-35.38l33.2-2.62a11.56 11.56 0 0 0 10-7.86 169.11 169.11 0 0 1 25.56-48.48 11.42 11.42 0 0 0 1.09-12l-15.03-31.68A206 206 0 0 1 420.94 373L448 392.47a11.94 11.94 0 0 0 12.88.44 172.66 172.66 0 0 1 55.91-21.4 11.54 11.54 0 0 0 9-8.52l8.51-33.19a182.46 182.46 0 0 1 31 0l8.51 33.2a11.8 11.8 0 0 0 9.17 8.52 172.49 172.49 0 0 1 55.91 21.4 12 12 0 0 0 12.88-.44l27.52-19.21a203.07 203.07 0 0 1 24 21.62l-15.06 31.66a12.4 12.4 0 0 0 1.09 12A180.3 180.3 0 0 1 714.67 487a12.08 12.08 0 0 0 10.05 8.08l33.19 2.62a242.06 242.06 0 0 1 4.59 35.38L729.74 548a11.25 11.25 0 0 0-6.77 9.61 171.3 171.3 0 0 1-10.26 45.64 11.87 11.87 0 0 0 2.62 12.45l24 23.36a211.92 211.92 0 0 1-21 33.2Z" transform="translate(.59 -1.08)"/><path d="M632.34 584.87c-2.4 17-15.07 32.54-34.07 41.5a92.76 92.76 0 0 1-30.57 7.86v27.08a11.58 11.58 0 0 1-23.15 0v-27.74c-22.72-2.83-47.18-11.79-72.07-26.86a11.57 11.57 0 0 1-2.62-16.16 11.8 11.8 0 0 1 14.85-3.49c56.34 34.28 91.5 24.24 104 18.56 11.79-5.46 19.66-14.41 21-23.8 2.4-17.69-9.39-22.5-49.36-28.61-29-4.59-61.8-9.39-75.12-35.16-9.18-17.69-5.25-38 10.26-53.29 10.7-10.26 27.52-18.56 49.36-20.09v-26.86a11.57 11.57 0 1 1 23.14 0v27.95c16.38 2.4 34.51 8.08 54.16 19a11.58 11.58 0 1 1-11.13 20.31c-45.65-24.9-82.77-19.87-99.15-3.71-8.08 7.86-10.27 17.47-5.9 25.77 8.08 15.28 33.42 19.22 58.09 22.93 17.69 2.62 34.29 5.24 47.17 12 16.38 8.74 24 23.59 21.19 42.8Z" transform="translate(.59 -1.08)" style="fill:#fff"/><circle cx="539.46" cy="539.46" r="530.46" style="stroke:#0092c9;stroke-width:6.75px;stroke-dasharray:26.89 26.89;fill:none;stroke-miterlimit:10"/><circle cx="539.46" cy="539.46" r="530.46" style="stroke:#4fc3a0;stroke-linecap:round;stroke-width:17.99px;stroke-dasharray:185.21 185.21;fill:none;stroke-miterlimit:10"/></svg>