<svg id="Layer_1" data-name="Layer 1" xmlns="http://www.w3.org/2000/svg" viewBox="0 0 538.15 582"><defs><style>.cls-1{fill:#eeb491;}.cls-1,.cls-2,.cls-3,.cls-4{fill-rule:evenodd;}.cls-2{fill:#bcbcbc;}.cls-3{fill:#4fc3a0;}.cls-4{fill:#0092c9;}</style></defs><g id="Layer_1-2" data-name="Layer_1"><g id="_474746272" data-name=" 474746272"><path id="_474746032" data-name=" 474746032" class="cls-1" d="M358.87,521.65c-41.79,0-76.89-8.92-104.33-26.5-36.53-23.41-59.89-37.1-73.06-44.46-21.73-12.15-28.07-30.62-24.71-43.54,3.14-12,13.73-19.52,27.65-19.52a52,52,0,0,1,18.81,3.91l93,36.5a137.31,137.31,0,0,0,42.5,6.73c21.09,0,39.82-5,55.7-15,12.46-7.82,21.27-20.93,22.3-26.36-1.8-.14-5.82,0-13.55,2.52-23.31,7.48-42.94,11.27-58.33,11.27h0c-30.48,0-34.44-15.26-34.93-19.94-1.33-12.65,10.88-24.63,29-28.48,6.22-1.32,46.54-16.83,70.67-26.37,3.19-1.47,27.37-12,62.5-12,36.88,0,72.11,11.31,104.75,33.6l23.3,13.46L520.86,504.92c-10.4-2.75-22.24-4.91-33.71-4.91a65.69,65.69,0,0,0-22.88,3.66c-23.29,8.69-63.23,18-105.4,18Z" transform="translate(-155.92 -134)"/><path id="_474746152" data-name=" 474746152" class="cls-2" d="M596.41,564.79a9,9,0,0,1-4.54-1.22l-55-31.77a9.09,9.09,0,0,1-3.33-12.42L622.08,366a9.1,9.1,0,0,1,12.43-3.33l55,31.76a9.11,9.11,0,0,1,3.34,12.43L604.3,560.24a9.13,9.13,0,0,1-7.89,4.55Z" transform="translate(-155.92 -134)"/><path id="_474745816" data-name=" 474745816" class="cls-3" d="M281.65,359.89h-.34a9.08,9.08,0,0,1-7.47-4.43L244.92,306.9H187.46a18.78,18.78,0,0,1-18.77-18.76V152.76A18.79,18.79,0,0,1,187.46,134H392.33a18.79,18.79,0,0,1,18.77,18.76V288.14a18.78,18.78,0,0,1-18.77,18.76H323.7L289.09,356a9.08,9.08,0,0,1-7.44,3.86ZM289.89,270a9.09,9.09,0,0,1-9.09-9.1V229.4H249.35a9.1,9.1,0,1,1,0-18.19H280.8V179.76a9.1,9.1,0,1,1,18.19,0v31.45h31.46a9.1,9.1,0,1,1,0,18.19H299v31.46a9.09,9.09,0,0,1-9.1,9.09Z" transform="translate(-155.92 -134)"/><path id="_474745864" data-name=" 474745864" class="cls-4" d="M563.39,716H396.56a17,17,0,0,1-17-17V588.79a17,17,0,0,1,17-17h45.82l23.06-38.71a9.09,9.09,0,0,1,15.25-.59l27.69,39.29h55a17,17,0,0,1,17,17V699a17,17,0,0,1-17,17Zm-32.8-83H429.36a9.1,9.1,0,1,1,0-18.19H530.59a9.1,9.1,0,1,1,0,18.19Zm0,40.09H429.36a9.1,9.1,0,0,1,0-18.2H530.6a9.1,9.1,0,0,1,0,18.2Z" transform="translate(-155.92 -134)"/></g></g></svg>