<svg version="1.1" id="Layer_1" xmlns="http://www.w3.org/2000/svg" x="0" y="0" viewBox="0 0 811.6 824.2" style="enable-background:new 0 0 811.6 824.2" xml:space="preserve"><style>.st1{fill:#0072ba}.st2{fill:#0090d8}.st4{fill:#4fc3a0}.st6{fill:#70d7a4}.st7{fill:#35a084}.st10{fill:#f7f5f7}.st13{fill:none;stroke:#0090d8;stroke-width:13;stroke-miterlimit:10}</style><path d="M604.2 450.8c8.9 2.2 27.4-6.3 31.1-14.9 4.5-10.7 10.3-20.9 9.1-33.5-.5-5.2 1.9-11.2 4.7-15.9 4.2-7.1 10.8-11.3 19.8-8.8 4.1 5.2.9 10.8.9 16.1-.2 42.9-19.2 74.9-55.7 97.4-46.2 28.4-91.1 58.8-137 87.7-42.2 26.6-88.1 40.4-138.2 40.1-25.4-.2-50.7 0-76-2.2-3.4-.3-7.1 0-9.5-3.2 0-47.3.1-94.6-.1-141.8-.1-8.8 2.2-13 11.3-9 5.9 2.6 9.8-4.9 14.6-3.2 11.7 4.1 22.9-1.5 34.3-1.6 16.2-.1 33.4-4.4 48.8-12.3 18.2-9.3 35-20.9 51.9-32.4 7-4.8 14.3-8.1 23-6.3 5.5 7.9.6 13.9-4.2 19.3-8.8 9.8-18.6 18.6-27.7 28.2-6.1 6.3-11 13.2-11.3 22.7-.3 10.8 2.3 19.9 12 25.9 2.9 2.2 1.9 7.3 6.3 8.4 13.4 15 29 17.7 46.8 8.7 1.5-.8 3.2-1.4 4.7-2.2 44.8-23.1 91.5-42.1 135.6-66.5 1.4-.9 3-1.5 4.8-.7z" style="fill:#f4e5df"/><path class="st1" d="M220.2 661.4c-16 .1-32 .4-48 .2-9.7-.1-14.8-5.2-14.9-15-.1-67.9-.2-135.8-.1-203.6 0-8.8 5.4-14.3 13.3-14.6 22.9-.8 45.9-.5 68.9-.5 1.2 0 2.4 1.2 3.6 1.8-12.9 2.2-11.7 11.2-11.6 21.2.5 63 .3 125.9.2 188.9 0 9.1.5 18.8-11.4 21.6z"/><path class="st2" d="M458.4 217c18.2-16.6 37.3-5 55.6-.9 46.5 10.4 92.9 21.8 139.2 33.1 3.9 1 8.4-.2 11.8 3 4.4 4.8 4.9 10.2 3.6 16.4-4.2 19.5-9.4 38.9-13.8 58.3-1.6 7-5.3 11.8-12.7 13.1l-183.6-43.3c-6.2 1.2-8.5-3.7-11-7.6-4.3-6.7-7.3-14.1-10.3-21.4-1.4-3.2-2.9-6.3-4.4-9.4-6.3-13-6-14.6 4.3-25.4 7.5-4.9 12.6-12.7 21.3-15.9z"/><path d="M253.3 613.5c28.1.6 56.1 2.5 84.2 2.5 49.2.1 94.6-12.5 136-38.5 50.4-31.7 100.6-63.9 150.1-97 24.3-16.3 39.3-39.6 41.2-70 .7-11 2.6-21.9 4-32.8 9.2-.5 14.4 4.4 14.6 14.8 1.2 48.8-14.1 88.3-59 114.3-39 22.6-76.4 48-114.2 72.6-33 21.6-67.1 40.6-106.6 47.7-19.5 3.5-39.3 7.2-58.8 4.9-23.7-2.9-47.2-.2-70.8-1.6-6.3-4.8-14.5.6-20.9-3.9-.4-.1-.9-.1-1.3-.1-4.5-4.2-4.6-8.4 0-12.7.7 0 1.1-.1 1.5-.2z" style="fill:#fedecf"/><path class="st4" d="M439.2 233.5c-9 7.3-9.7 15.6-3.3 25.1 1.7 2.5 2.3 5.7 3.3 8.5 5 15.2 3.3 31 3.5 46.5.1 14.6.1 29.2 0 43.8-.1 6-.4 11.9-5.7 16.1-10.4 0-20.8-.1-31.2.2-8.2.2-12.3-2.9-12.2-11.5.1-52.8.1-105.6 0-158.4 0-5.3 1.3-11 7-11.2 17.9-.4 35.8-3.2 53.6.9-13.6 2.2-12.3 12.3-11.8 22.1.3 6.2.6 12.5-3.2 17.9z"/><path d="M604.2 450.8c-7.9 7.1-17.6 11.1-26.9 15.6-41.7 19.9-83.3 39.9-125.1 59.4-12.4 5.8-33.9 3.7-40-14.3 50.9-24.8 101.7-49.7 152.7-74.4 11.2-5.4 11.7-15.2 12.2-25.4.5-10 2-19.6 12.5-24.5 13.5-6.3 28.8 2.6 29.1 17.5.3 16.8-1.3 33.4-14.5 46.1z" style="fill:#fecdbe"/><path class="st2" d="M338.9 373.6c-10.1.1-20.2 0-30.3.3-7.8.2-11.5-3.1-11.5-11.1.1-42.4.1-84.9 0-127.3 0-6 1.9-11.2 8.2-11.2 16.9-.1 33.9-2.5 50.8.8-8.5 3.8-9.9 10.6-9.8 19.3.5 37.1.2 74.3.2 111.4 0 6.9.3 14-7.6 17.8z"/><path class="st1" d="M252.1 613.7v12.7c-.2 5.8-.4 11.7-.5 17.5-.3 13.3-4.8 17.9-18 17.9-4.5 0-8.9-.2-13.4-.3 6.4-4.2 8.3-10.2 8.3-17.8-.2-65.7-.2-131.4 0-197.1 0-5.7-.8-10.9-5.8-15.6 7.5-2.3 14-.5 20.4-1.2 7.7 3.4 8.6 9.9 8.6 17.3-.1 51.4-.1 102.8 0 154.2-.1 4 .2 8.2.4 12.4z"/><path class="st4" d="M242.8 373.6c-10.4 0-20.8-.1-31.2.2-7.4.2-10.8-2.6-10.7-10.3.2-32.2.1-64.5 0-96.7 0-5.9 1.2-10.3 8.4-10.4 14.5-.4 29-1 43.5-1.5 2.4-.1 4.9-.3 6.8 1.7-10 3-11.7 10-11.5 19.8.7 27.1.3 54.3.2 81.4 0 5.7.8 12.1-5.5 15.8z"/><path class="st6" d="M395.9 145.4c-6-4.6-11.9-7.7-7.4-14.5 4.2-6.4 9.6-3.3 14.7-.8 25.2 12 25.2 12 13.7 37.4-2.2 4.8-4.1 10.2-11 8.6-5-1.1-6.4-5.4-4.5-15.6-18.5 7.1-36.1 13.8-53.7 20.6-40.2 15.5-80.4 31-120.6 46.6-5.6 2.2-10.6 2.6-13.1-3.6-2.7-6.7 2.4-9.3 7.5-11.3 41.5-16 83-32.1 124.5-48.1 16.2-6.2 32.4-12.5 49.9-19.3z"/><path class="st1" d="M338.9 373.6c3.1-3.9 4.3-8.3 4.3-13.4-.4-43.4-.5-86.7-1-130.1-.1-4.3 1.6-4.6 4.6-4.7 3-.1 6.2-.3 9.3-.4 5.7 1.6 5.7 6.2 5.7 10.9 0 42-.1 84.1.1 126.1 0 9.1-3.9 12.7-12.6 12.1-3.4-.4-6.9-.4-10.4-.5z"/><path class="st7" d="M242.8 373.6c2.1-3.4 2.2-7.2 2.2-11.1 0-32 .4-64-.3-96-.2-8.4 1.8-11.1 9.7-9.9 1.7.3 3.5 0 5.2-.1 6.3 2.4 5.9 7.8 5.9 13.1v87.6c0 15.7-1 16.7-16.4 16.6-2.1.1-4.2-.1-6.3-.2z"/><path d="M405.8 503c-7.8 1.7-10.6-4.2-12.4-9.4-5.3-14.9-3.2-28.6 8.5-40.1 9.2-9 18-18.4 27.4-27.2 5.7-5.4 8.7-11.5 7.8-19.4 10.7-.6 19.5 11.8 15.7 22.5-1.9 5.3-5 10-9.1 13.8-9.5 9.2-19 18.4-28 28.1-8.2 8.8-11.3 19.6-9.9 31.7z" style="fill:#fedfcf"/><path class="st7" d="M437 373.6c1.6-5.3 2.4-10.8 2.3-16.3-.1-30.1 0-60.1 0-90.2 6.9 9.5 7.3 23.2 19.2 29.4-.1 18.9-.2 37.9-.2 56.8-.1 21.3-.1 21.3-21.3 20.3z"/><path class="st1" d="M642 339.9c6.2-3.9 9.2-9.3 10.6-16.8 3-15.9 7-31.7 11.2-47.3 2.1-7.9 3.5-15.6 1.2-23.6 18.9 3.5 20.9 6.5 16.5 25.1-3.7 15.8-7.5 31.6-11.2 47.4-4.9 19.8-8.4 21.7-28.3 15.2z"/><path class="st7" d="M439.2 233.5c0-10.1.7-20.2-.3-30.2-.8-7.8.9-11 9-9.6 2 .4 4.2-.1 6.2-.1 7.9 6.6 2.4 15.7 4.2 23.4-5.1 7-11.8 12-19.1 16.5z"/><path d="M253.4 626.5c6.9 1.7 15.3-4.7 20.9 3.9-6.9-2-15.3 4.4-20.9-3.9z" style="fill:#feede5"/><path class="st10" d="M564.4 292.3c.4 7.8 1 13.2-5.7 14.3-6.2 1.1-8.2-2.7-9.6-8.2-2.2-8.9-17.5-12.2-23.6-5.4-3.6 4-7.3 7.1-12.3 2.9-4.8-4-3.2-8.4-.1-12.9 9-13.2 17.9-26.4 26.8-39.7 2.7-4 6-6.9 11.2-5.7s6.7 5.1 7.3 10c2.1 16 4.3 31.8 6 44.7zM492 224.7c10 .1 16.9 3.9 22.4 10.1 3.1 3.5 3.7 7.8.5 11.3s-7.5 3.2-11.2.3c-4.3-3.3-9.9-9.8-13.8-4.6-3.3 4.5 5.5 7 9.1 9.7 12.9 10 16.2 19.4 9.3 29.9-6.3 9.5-20.9 12.1-32.8 5.5-4.6-2.6-8.2-6.4-11.3-10.6-2.9-3.9-2.8-7.8.9-11.2 3.9-3.5 8.1-2.5 10.9 1.2 3.4 4.3 7.3 7.4 12.6 8.5 2.6.5 5-.3 6.2-2.7 1.1-2.3-.7-4-2.3-5.3-3.5-2.9-7.1-5.6-10.9-8.1-8.6-5.4-11.5-13.1-8.2-22.4 3.3-8.9 10.8-12.2 18.6-11.6zM632 256.8c7.5 1.9 13.9 3.3 20.3 5 5.1 1.4 7.6 4.9 6.2 10.2-1.3 5.1-5.3 5.8-9.9 5.1-1-.2-2-.6-3-.8-3.5-.5-8-3.6-9.7 1.9-1.9 6.3 3.8 6.3 7.5 7.2 5.4 1.3 9.6 3.9 8.2 9.8-1.5 6.4-6.5 6.9-12.4 5.6-3-.6-7.7-4.1-9.5 1.9-1.9 6.7 4 6.2 7.5 7.2 5.6 1.6 11.8 2.7 9.9 10.3-2 8-8.5 6.4-14.5 5-27.3-6.5-22.9-5.8-17.8-28.4 2.4-10.8 5.3-21.5 7.8-32.3 1.5-5.3 4.7-8.1 9.4-7.7z"/><path d="M597.7 259c-1.9 8.4-4.1 19.3-7 29.9-1.8 6.4-1.8 10.6 6.3 11.8 5 .7 8.2 4.5 6.7 9.8-1.5 5-5.5 6.8-10.7 5.4-1.3-.4-2.7-.6-4.1-.8-18.6-3.7-19.6-5.1-15.4-23 2.9-12.4 5.8-24.9 9-37.3 1.2-4.5 3.6-8.7 9.4-7.4 4.7 1 6.8 4.4 5.8 11.6z" style="fill:#f6f5f7"/><path class="st2" d="M542.6 268c2.4-.3 2.9.8 3 2.3.1 2 .4 4.3-2.5 4.7-1.3.1-3.2-.3-2.9-2 .4-1.9 1.7-3.6 2.4-5z"/><path d="M16.5 324.5c39.9-179.1 199.8-313 391-313 188.5 0 346.6 130.2 389.3 305.7" style="fill:none;stroke:#70d7a4;stroke-width:13;stroke-miterlimit:10"/><path class="st13" d="M75.2 596c-41.9-78-57.4-170.6-37.5-264 16.6-78.1 55.7-145.6 109-197.3"/><path d="M725.1 203.4c95.2 147.9 77.5 346.2-53.4 475.3-20.9 20.6-43.6 38.4-67.6 53.3" style="fill:none;stroke:#70d7a4;stroke-width:12.9116;stroke-miterlimit:10"/><path class="st13" d="M796.7 495.8c-39.9 179.1-199.8 313-391 313-188.5 0-346.6-130.2-389.3-305.7"/><circle class="st1" cx="685.9" cy="124.1" r="44"/><circle class="st6" cx="121.2" cy="688.8" r="44"/></svg>