<svg id="Layer_1" data-name="Layer 1" xmlns="http://www.w3.org/2000/svg" viewBox="0 0 1079.23 1079.23"><defs><style>.cls-2{fill:#4fc3a0}</style></defs><path d="M875 316.49C861.9 234.86 790.77 176.85 707.47 180c-80.21 2.86-148.23 67.78-154.2 148.46-1 12.42-4.54 14.09-15.52 14.09-94.76-.48-189.52-.24-284.28-.24-45.35 0-69.46 24.11-69.46 69.22v349.41c0 44.87 24.35 69.22 69.46 69.22h513.19c46.31 0 70.18-23.87 70.18-69.94V460.9a29.15 29.15 0 0 1 6.68-19.57c27.69-37.24 38.67-78.77 31.48-124.84Zm-79.22 450.65c0 14.56-7.87 22-23.15 22.2-25.78.24-51.56 0-77.34 0H253.71c-23.87 0-29.6-5.73-29.6-29.36V412c0-22.92 6-29.12 28.64-29.12h292.64c6.92 0 11.94 0 14.8 8.83 32.94 96.91 135.34 139.63 227.95 95.24a68.76 68.76 0 0 1 7.64-3.35c.22 95.69.22 189.5 0 283.54ZM713.67 464c-66.83-.48-121-55.38-121-122.21.24-67.31 55.38-122 122.93-121.5 66.84.48 121 55.14 121 122.22-.24 67.31-55.38 121.97-122.93 121.49Z" transform="translate(.19 -.77)" style="fill:#0092c9"/><path class="cls-2" d="M653.52 667.37h-75.9c-16 0-25.07-7.4-25.31-19.81s9.08-20.53 24.59-20.77h154.44c14.79 0 23.86 7.64 24.1 19.81.24 12.65-9.07 20.53-24.58 20.77ZM636.1 727.52h-73c-15 0-23.87-7.64-23.63-19.81.23-11.7 8.83-19.1 23.15-19.1 49.41-.24 99.06-.24 148.47 0 15 0 23.87 7.64 23.63 19.81s-9.07 19.1-24.35 19.1ZM572.6 586a20.17 20.17 0 1 1 20-20.28v.71a20.56 20.56 0 0 1-20 19.57ZM673.81 565.69a20.17 20.17 0 1 1-20.29-20.05h.72a19.91 19.91 0 0 1 19.57 20.05ZM734.92 545.4a20.29 20.29 0 1 1-20.29 20.29V565a20.78 20.78 0 0 1 20.29-19.6ZM795.78 300.73c.24 6.93-3.1 12.18-7.64 16.71-25.77 25.78-51.55 51.8-77.57 77.58-11 11-21.72 10.74-32.94-.24a2585.4 2585.4 0 0 1-36.28-36.28c-9.79-10-10.5-21.48-2.39-30.08 8.36-8.83 20.53-8.35 31 1.44 6.21 6 12.65 11.69 18.14 18.14 4.78 5.72 7.88 4.53 12.65-.24 19.58-20.05 39.63-39.63 59.2-59.44 6.68-6.92 14.56-9.07 23.39-5.49 7.91 3.34 11.97 9.79 12.44 17.9ZM468.06 690.52c0-33.18-12.18-60.63-38-81.63-5.49-4.54-5.49-6.92-1.19-12.41 27.45-35.57 24.11-81.87-7.88-111a81.08 81.08 0 0 0-109.56-.23c-32 29.12-35.56 75.66-8.11 111 5 6.44 3.58 8.83-1.91 13.37-17.19 13.6-28.17 31.5-33.66 52.51-5.49 20.29-3.1 41.29-3.1 61.82 0 17.19 7.4 24.35 24.82 24.35 25.3.24 50.61 0 75.67 0 26.25 0 52.27.24 78.53 0 16.47-.24 23.63-7.4 23.87-24.11.52-10.99.52-22.19.52-33.67Zm-101.45-185.7c22.44 0 40.34 18.38 40.34 40.82S388.57 586 366.13 586s-40.34-18.37-40.34-40.81v-.24a40.81 40.81 0 0 1 40.82-40.1ZM409.34 708h-43.45c-17.18 0-34.37-.24-51.55.24-6.93.23-9.07-1.44-9.31-8.84-.72-32.7 11.22-55.61 36-67.07 40.58-18.62 85 10.74 86.17 57.05C428 708 428 708 409.34 708Z" transform="translate(.19 -.77)"/><circle cx="539.62" cy="539.62" r="530.62" style="stroke:#0092c9;stroke-width:6.75px;stroke-dasharray:26.89 26.89;fill:none;stroke-miterlimit:10"/><circle cx="539.62" cy="539.62" r="530.62" style="stroke:#4fc3a0;stroke-linecap:round;stroke-width:18px;stroke-dasharray:185.26 185.26;fill:none;stroke-miterlimit:10"/></svg>