<svg id="Layer_1" data-name="Layer 1" xmlns="http://www.w3.org/2000/svg" viewBox="0 0 712.3 667.61"><defs><style>.cls-1{fill:#0092c9;}.cls-2{fill:#4fc3a0;}</style></defs><path class="cls-1" d="M891.44,306.06C878,222.35,805,162.75,719.31,165.79,637,168.7,567,235.35,560.91,318.24c-.94,12.78-4.75,14.5-16,14.45-97.35-.43-194.7-.29-292-.23-46.49,0-71.41,24.85-71.43,71q0,179.39,0,358.77c0,46.16,24.94,71,71.44,71q132.12.09,264.24,0,131.42,0,262.85,0c47.45,0,72.06-24.49,72.08-71.74q.09-153.66-.12-307.32a30.86,30.86,0,0,1,6.84-20.11C887.51,396.08,899,353.49,891.44,306.06Zm-81.21,462.7c0,15-8.18,22.55-23.79,22.7-26.43.26-52.86.09-79.29.09q-226.74,0-453.49,0c-24.51,0-30.49-5.91-30.5-30.08q0-178.74,0-357.46c0-23.59,6.11-29.82,29.37-29.82q150.24,0,300.47-.09c7.2,0,12.2,0,15.3,9.11,33.75,99.62,139,143.29,234.16,97.68,2-1,4-1.84,7.87-3.55C810.33,575.92,810.42,672.34,810.23,768.76ZM725.85,457.57c-68.56-.44-124.28-56.74-124.15-125.44.13-69.18,56.82-125.27,126.15-124.83C796.4,207.74,852.13,264,852,332.74,851.86,401.92,795.18,458,725.85,457.57Z" transform="translate(-181.41 -165.67)"/><path class="cls-2" d="M664,666.31c-26,0-51.9.09-77.85,0-16.41-.07-25.81-7.57-26.07-20.41s9.24-21.18,25.25-21.21q79.23-.18,158.48,0c15.23,0,24.43,7.93,24.68,20.38.26,13-9.23,21.13-25.25,21.22C716.78,666.42,690.37,666.31,664,666.31Z" transform="translate(-181.41 -165.67)"/><path class="cls-2" d="M663.14,749.79c-25.95,0-51.9.11-77.85,0-16-.09-25.51-8.27-25.26-21.21.25-12.45,9.45-20.35,24.67-20.39q79.24-.2,158.48,0c16,0,25.51,8.27,25.26,21.21s-9.65,20.35-26.06,20.42C716,749.87,689.55,749.79,663.14,749.79Z" transform="translate(-181.41 -165.67)"/><path class="cls-2" d="M580.91,582.73a20.75,20.75,0,1,1,20.58-20.2A20.83,20.83,0,0,1,580.91,582.73Z" transform="translate(-181.41 -165.67)"/><path class="cls-2" d="M685,561.91a20.75,20.75,0,1,1-20.13-20.65A20.85,20.85,0,0,1,685,561.91Z" transform="translate(-181.41 -165.67)"/><path class="cls-2" d="M747.72,541.23A20.76,20.76,0,1,1,727,561.29,20.86,20.86,0,0,1,747.72,541.23Z" transform="translate(-181.41 -165.67)"/><path class="cls-2" d="M810.26,290c.3,7.11-3.11,12.44-7.85,17.18-26.54,26.53-53,53.18-79.67,79.54-11.32,11.17-22.31,10.94-33.88-.31q-18.93-18.4-37.33-37.35c-10-10.38-10.69-21.95-2.33-30.76,8.7-9.18,21.08-8.68,31.85,1.53,6.38,6.06,12.91,12,18.59,18.73,5,5.86,8.11,4.64,12.92-.28,20.08-20.54,40.58-40.66,60.86-61,6.93-7,15.07-9.2,24.1-5.55C805.44,274.94,809.57,281.47,810.26,290Z" transform="translate(-181.41 -165.67)"/><path class="cls-2" d="M473.59,690.25c.06-34-12.52-62.24-38.86-83.8-5.73-4.69-5.59-7-1.18-12.66,28.21-36.55,24.64-84.07-8-114.08a83.1,83.1,0,0,0-112.43-.18c-32.72,29.91-36.54,77.73-8.3,114,5.22,6.71,3.79,9.06-1.94,13.61-17.58,14-28.86,32.38-34.61,54-5.56,20.89-3.15,42.36-3.27,63.59-.1,17.7,7.52,24.94,25.6,25,25.93.16,51.87,0,77.8,0,26.86,0,53.72.16,80.58-.06,17-.14,24.27-7.64,24.54-24.74C473.74,713.4,473.57,701.82,473.59,690.25Zm-104-190.75a41.62,41.62,0,1,1-41.8,41.31A41.56,41.56,0,0,1,369.57,499.5ZM413.3,708.08H368.79c-17.62,0-35.25-.29-52.86.14-7,.17-9.34-1.55-9.52-9.09-.76-33.52,11.6-57.2,37-68.85,41.7-19.13,87.17,11,88.47,58.67C432.39,708.08,432.39,708.08,413.3,708.08Z" transform="translate(-181.41 -165.67)"/></svg>