<?xml version="1.0" encoding="utf-8"?>
<!-- Generator: Adobe Illustrator 24.1.0, SVG Export Plug-In . SVG Version: 6.00 Build 0)  -->
<svg version="1.1" id="Layer_1" xmlns="http://www.w3.org/2000/svg" xmlns:xlink="http://www.w3.org/1999/xlink" x="0px" y="0px"
	 viewBox="0 0 1080 1080" style="enable-background:new 0 0 1080 1080;" xml:space="preserve">
<style type="text/css">
	.st0{fill:#4FC3A0;}
	.st1{fill:#0092C9;}
	.st2{fill:none;stroke:#0092C9;stroke-width:27.7824;stroke-linecap:round;stroke-miterlimit:10;stroke-dasharray:26.6807,26.6807;}
	
		.st3{fill:none;stroke:#4FC3A0;stroke-width:27.7824;stroke-linecap:round;stroke-miterlimit:10;stroke-dasharray:183.7998,183.7998;}
</style>
<path class="st0" d="M585.5,230c-64.1-39.4-148-19.3-187.6,44.8s-19.3,148,44.8,187.6s148,19.3,187.6-44.8
	c28.6-46.6,26.5-105.9-5.2-150.5c-4-5.6-11.7-7-17.3-2.9c-5.6,4-7,11.7-2.9,17.3c36,50.2,24.5,120.1-25.6,156.1
	c-50.2,36-120.1,24.5-156.1-25.6s-24.5-120.1,25.6-156.1c36.4-26.1,85-27.9,123.5-4.5c5.8,3.6,13.5,1.6,16.9-4l0,0
	c3.6-5.6,2-13.3-3.6-16.9C585.5,230.2,585.5,230,585.5,230z"/>
<path class="st0" d="M489.9,432.4h49.5c6.7,0,12.4-5.6,12.4-12.4v-37.1h37.1c6.7,0,12.4-5.6,12.4-12.4v-49.5
	c0-6.7-5.6-12.4-12.4-12.4h-37.1v-37.1c0-6.7-5.6-12.4-12.4-12.4h-49.5c-6.7,0-12.4,5.6-12.4,12.4v37.1h-37.1
	c-6.7,0-12.4,5.6-12.4,12.4v49.5c0,6.7,5.6,12.4,12.4,12.4h37.1V420C477.5,427,483.1,432.4,489.9,432.4z M452.8,358.4v-24.7h37.1
	c6.7,0,12.4-5.6,12.4-12.4v-37.1H527v37.1c0,6.7,5.6,12.4,12.4,12.4h37.1v24.7h-37.1c-6.7,0-12.4,5.6-12.4,12.4v37.1h-24.7v-37.1
	c0-6.7-5.6-12.4-12.4-12.4H452.8z"/>
<path class="st0" d="M477.5,605.6h-99c-6.7,0-12.4,5.6-12.4,12.4c0,6.7,5.6,12.4,12.4,12.4h99c6.7,0,12.4-5.6,12.4-12.4
	C489.9,611,484.5,605.6,477.5,605.6z"/>
<path class="st0" d="M477.5,654.9h-99c-6.7,0-12.4,5.6-12.4,12.4s5.6,12.4,12.4,12.4h99c6.7,0,12.4-5.6,12.4-12.4
	S484.5,654.9,477.5,654.9z"/>
<path class="st0" d="M626,618c0-6.7-5.6-12.4-12.4-12.4h-37.1c-6.7,0-12.4,5.6-12.4,12.4c0,6.7,5.6,12.4,12.4,12.4h37.1
	C620.3,630.4,626,624.7,626,618z"/>
<path class="st0" d="M576.5,654.9c-6.7,0-12.4,5.6-12.4,12.4s5.6,12.4,12.4,12.4h24.7c6.7,0,12.4-5.6,12.4-12.4s-5.6-12.4-12.4-12.4
	H576.5z"/>
<path class="st1" d="M910.1,654.9c0-28.3-8.8-56-25.4-79c-4-5.6-11.7-7-17.3-2.9s-7,11.7-2.9,17.3c36.2,50.2,24.7,120.1-25.4,156.3
	s-120.1,24.7-156.3-25.4c-36.2-50.2-24.7-120.1,25.4-156.3c36.4-26.3,85.2-28.1,123.7-4.9c5.8,3.6,13.5,1.6,17.1-4.3
	c3.6-5.8,1.6-13.5-4.3-17.1c-17.8-10.8-37.8-17.3-58.5-19.1V308.7h86.6c6.7,0,12.4-5.6,12.4-12.4v-74.2c0-34.2-27.7-61.9-61.9-61.9
	h-494c-47.7,0-86.6,38.7-86.6,86.6v494.4c0,6.7,5.6,12.4,12.4,12.4c6.7,0,12.4-5.6,12.4-12.4V247.1c0-34.2,27.7-61.9,61.9-61.9
	h444.9c-8.1,10.8-12.4,23.6-12.4,37.1v297.1c-27.2,2.5-53.1,13-74.2,30.6v-31.3c0-6.7-5.6-12.4-12.4-12.4H329.3
	c-6.7,0-12.4,5.6-12.4,12.4v222.5c0,6.7,5.6,12.4,12.4,12.4H626c6.7,0,12.4-5.6,12.4-12.4s-5.6-12.4-12.4-12.4h-86.6v-148h121
	c-40.9,62.8-23.4,146.9,39.4,187.8c18.7,12.1,39.8,19.6,62.1,21.6v50.2c0,20.5-16.6,37.1-37.1,37.1c-20.5,0-37.1-16.6-37.1-37.1V791
	c0-6.7-5.6-12.4-12.4-12.4H181.1c-6.7,0-12.4,5.6-12.4,12.4v49.5c0,34.2,27.7,61.9,61.9,61.9h209.9c6.7,0,12.4-5.6,12.4-12.4
	s-5.6-12.4-12.4-12.4H230.3c-20.5,0-37.1-16.4-37.1-36.9v-0.2v-37.1h469.7v37.1c0,13.3,4.3,26.3,12.4,37.1H489.9
	c-6.7,0-12.4,5.6-12.4,12.4s5.6,12.4,12.4,12.4h234.8c34.2,0,61.9-27.7,61.9-61.9v-50.2C856.5,783.8,910.1,725.3,910.1,654.9z
	 M823.7,185.4c20.5,0,37.1,16.4,37.1,36.9v0.2v61.9h-74.2v-62.1C786.6,202.1,803,185.4,823.7,185.4
	C823.5,185.4,823.5,185.4,823.7,185.4z M341.7,531.4h173v24.7h-173V531.4z M341.7,580.9h173v148.2h-173V580.9z M539.4,531.4h123.5
	v24.7H539.4V531.4z"/>
<path class="st0" d="M774.2,618c6.7,0,12.4,5.6,12.4,12.4c0,6.7,5.6,12.4,12.4,12.4s12.4-5.6,12.4-12.4c0-15.7-9.9-29.7-24.7-34.9
	v-14.6c0-6.7-5.6-12.4-12.4-12.4s-12.4,5.6-12.4,12.4v14.6c-19.3,6.7-29.5,27.9-22.5,47.2c5.2,14.8,19.3,24.7,34.9,24.7
	c6.7,0,12.4,5.6,12.4,12.4c0,6.7-5.6,12.4-12.4,12.4s-12.4-5.6-12.4-12.4c0-6.7-5.6-12.4-12.4-12.4s-12.4,5.6-12.4,12.4
	c0,15.7,9.9,29.7,24.7,34.9v14.6c0,6.7,5.6,12.4,12.4,12.4s12.4-5.6,12.4-12.4v-14.6c19.3-6.7,29.5-27.9,22.5-47.2
	c-5.2-14.8-19.3-24.7-34.9-24.7c-6.7,0-12.4-5.6-12.4-12.4C761.8,623.4,767.5,618,774.2,618z"/>
<g>
	<circle class="st2" cx="539.4" cy="540.4" r="526.5"/>
</g>
<g>
	<circle class="st3" cx="539.4" cy="540.4" r="526.5"/>
</g>
<g>
</g>
<g>
</g>
<g>
</g>
<g>
</g>
<g>
</g>
<g>
</g>
</svg>
