<?xml version="1.0" encoding="utf-8"?>
<!-- Generator: Adobe Illustrator 24.1.0, SVG Export Plug-In . SVG Version: 6.00 Build 0)  -->
<svg version="1.1" id="Layer_1" xmlns="http://www.w3.org/2000/svg" xmlns:xlink="http://www.w3.org/1999/xlink" x="0px" y="0px"
	 viewBox="0 0 1076.5 1076.3" style="enable-background:new 0 0 1076.5 1076.3;" xml:space="preserve">
<style type="text/css">
	.st0{fill:none;stroke:#0092C9;stroke-width:27.6658;stroke-linecap:round;stroke-miterlimit:10;stroke-dasharray:26.5691,26.5691;}
	
		.st1{fill:none;stroke:#4FC3A0;stroke-width:27.6658;stroke-linecap:round;stroke-miterlimit:10;stroke-dasharray:182.9996,182.9996;}
	.st2{fill:#0092C9;}
	.st3{fill:#4FC3A0;}
</style>
<circle class="st0" cx="538.1" cy="538.1" r="524.3"/>
<circle class="st1" cx="538.3" cy="538.1" r="524.3"/>
<path class="st2" d="M594.3,697.7c-4.1-4-5.4-7.8-5.4-13.3c0.1-88.3,0.2-176.6,0.1-264.9c0-14.4-0.7-28.6-4.1-42.6
	c-21.8-89.6-104.5-144-195.6-128.7c-77.3,13-138.1,83.8-138.5,162.4c-0.4,92-0.2,183.9-0.1,275.9c0,5.1-1.1,8.7-5.2,12.4
	c-24.4,22.1-37.5,49.2-36.9,82.8c0.6,36.4,0.1,72.8,0.1,109.2c0,13.6,3.1,16.7,16.7,16.7h194.3c65.3,0,130.5,0,195.8,0
	c11.3,0,15.3-4,15.3-15.4c0-36.2-0.8-72.3,0.2-108.4C632,748.9,618.7,721,594.3,697.7z M273,414.7c0.3-70.9,48.1-129.3,117.3-144.1
	c81.9-17.6,164.5,42.1,173.7,125.4c0.8,6.3,1.2,12.5,1.2,18.8c0.1,86.2,0.1,172.3,0.1,258.5v5.8c-13.2-6.1-26-11.7-39.7-14.8
	c-1.5-0.3-2.7-2-3.9-3.1c-6.8-6.2-13.1-13.1-20.5-18.5c-9.6-7-13.6-15.3-12-27.1c0.6-4.2,1.1-7.4,4.5-10.7
	c23.3-22.1,36.5-49.4,38.2-81.5c1.5-29.1,2-58.2-8.8-86.2c-8.5-22.1-21-41.4-38.8-57.1c-10.6-9.4-15.5-8.5-22.6,3.4
	c-13.6,22.7-32.6,37.3-60.3,36.3c-41.1-1.5-79.6,29.6-86.3,74.1c-6.4,42.5,6.4,79.5,37.1,109.9c6.5,6.5,6.5,24.3-0.3,30.6
	c-1.6,1.5-3.2,2.9-4.8,4.5c-14.2,13.9-28.3,27.4-49.4,30.7c-7.3,1.1-14.1,6-21.9,9.4c-2.4-43.7-1.7-86.7-2.1-129.6
	C273,504.4,272.8,459.5,273,414.7L273,414.7z M364.5,656.5c13,17.7,26.2,35.3,39.3,53c0.6,0.8,1,1.6,1.7,2.6
	c-1.5,1.9-2.9,3.9-4.4,5.7c-4.6,5.1-7.8,14.6-13.5,14.6c-4.6,0-9.2-8.9-13.6-14c-11.2-12.7-22.2-25.6-33.5-38.2
	c-2.7-3-2.8-4.8,0.5-7.4c6.4-5.2,12.4-10.8,18.5-16.3C361.2,655,362.4,653.6,364.5,656.5z M338.4,486.8
	c7.6-25.7,30.8-43.7,57.6-44.7c38.5-1.8,53.5-9.1,78.5-38.4c16.6,18.2,27.6,39.3,31.4,63.5c4.3,27.4,6.3,55.2-3.3,81.9
	c-11.9,33.3-34.3,56.2-70.2,62.1c-29.4,4.8-53.5-6.9-72.1-28.9C336.8,554.5,327.8,522.3,338.4,486.8z M377.6,636.8
	c-2.9-3.8-1-7.9-2-12.6c30,12.9,59.2,15,89.1,0.3c0.5,4.3,1.3,7.6-1,10.7l-43.1,58.9C406,674.7,391.9,655.8,377.6,636.8L377.6,636.8
	z M436.2,709.1c13.4-17.9,26.8-35.7,40.1-53.6c1.9-2.6,3.1-2.8,5.5-0.6c6.4,5.9,13,11.6,19.6,17.4c1.6,1.4,2.7,2.5,0.7,4.7
	c-16.6,17.4-33.1,34.8-49.6,52.2c-0.5,0.5-1.1,1-1.7,1.4c-0.7-0.3-1.3-0.6-1.9-1.1c-4.6-5.3-9-10.8-13.6-16.1
	C433.6,711.5,435.3,710.3,436.2,709.1L436.2,709.1z M600.2,885c-17.9-0.3-35.9-0.3-53.9,0c-5,0.1-6.6-1.1-6.5-6.3
	c0.4-15.8,0.1-31.5,0.1-47.3c0-5-0.7-9.8-5.3-12.8c-3.7-2.6-8.5-2.9-12.5-0.9c-4.8,2.2-6.3,6.5-6.3,11.4
	c-0.1,16.3-0.3,32.5,0.1,48.8c0.1,5.4-1,7.3-7,7.3c-58-0.3-116-0.3-174,0c-5.7,0-7.3-1.4-7.2-7.2c0.4-15.3,0.2-30.6,0.1-45.9
	c0-9.6-3.6-14-11.5-14.2c-8.1-0.2-12.1,4.5-12.1,14.5c0,16-0.2,32,0.1,48c0.1,4.8-1.2,6.2-6,6.1c-21.1-0.3-42.2-0.2-63.3,0
	c-4,0-5.4-0.8-5.4-5.1c0.2-34-0.9-68,0.4-101.9c1.5-40.7,24.5-67.5,60.1-84.5c6.5-3.1,13.5-5.3,20.2-8c4.2-1.7,6.9-0.7,9.8,2.8
	c16.4,19.5,33.2,38.7,49.7,58c4.8,5.6,10.4,9.5,18,9.4c5.9-0.1,10.6-2.7,14.4-7.3c5.4-6.6,11-13,16.8-19.8
	c4.9,5.3,9.6,10.5,14.3,15.7c10.2,11.4,22.5,11.8,33.3,0.7c17.5-18.2,34.9-36.5,52.1-54.9c3.5-3.8,6.5-4.4,11.2-2.8
	c26.2,8.8,48.6,22.7,64.4,46.1c8.5,12.5,12.9,27.4,12.8,42.5c0,33.7-0.1,67.5,0.2,101.2C607.3,884.2,605.4,885.1,600.2,885
	L600.2,885z"/>
<path class="st2" d="M924,301.8c-3.1-30.2-18.4-53.7-41.2-72.6c-28.8-23.8-62.7-35.3-99.7-37.1c-45.1-2.3-86.6,8.8-122.1,37.5
	c-24.7,20-40.6,45.4-41.9,78.2c-1.2,29.1,10.1,53.4,29.6,74.2c4.8,5.1,5.1,9.3,1.5,14.6c-5,7.4-12.3,11.3-20.8,13.5
	c-5.7,1.5-11.6,3.4-11.7,10.9s4.5,11.4,11,13.7c29.2,10.1,57.2,8,83.3-9.2c2.5-1.9,5.7-2.3,8.6-1.3c16.3,5,33,7.5,53.3,7.5
	c10.5,0.1,23.9-1.5,37.2-4.5c37.7-8.7,70.4-25.9,93.7-57.8C919.5,349.3,926.6,326.8,924,301.8z M900.2,318.3
	c-2.1,23.3-14,41.6-31.5,56.2c-31,25.9-67.5,34.6-107.1,33c-14.8-0.5-29.4-3.2-43.4-8c-5.6-2-10.2-1-14.8,2.6
	c-13.2,10.1-24.1,14.1-42.2,15.8c6.8-7.9,11.4-16.2,12.6-26.2c0.9-8-0.5-14.6-6.5-21.1c-23.8-25.7-34-55.3-19.8-89.3
	c11.7-27.8,34-45.3,61.5-55.4c56.2-20.7,110.1-16.9,158.7,20.6C890.7,264.4,903,288.4,900.2,318.3L900.2,318.3z"/>
<path class="st3" d="M828.4,325.8c-8.4,0-13.1-3.9-13-10.6s4.8-10.3,13.3-10.3c8.8,0,12.9,3.4,12.7,10.5
	C841.4,322.3,837,325.8,828.4,325.8z"/>
<path class="st3" d="M714.1,327.2c-9.4,0-14.9-4.5-14.7-12.1s5.7-11.6,15.3-11.6c9.9,0,14.8,4.1,14.5,12.1
	C729,323.2,723.8,327.2,714.1,327.2z"/>
<path class="st3" d="M772.7,327.2c-10.5-0.1-15.1-3.5-15-10.5c0.1-7.3,5.5-11.7,14.4-11.8c12.2-0.1,18.3,6.2,14.4,15.3
	C783.7,326.5,778,327.6,772.7,327.2z"/>
<polygon class="st3" points="334,679 360.3,649 410.8,710.2 387.8,738.6 "/>
<polygon class="st3" points="507.5,679 481.3,649 430.8,710.2 453.7,738.6 "/>
</svg>
