<?xml version="1.0" encoding="utf-8"?>
<!-- Generator: Adobe Illustrator 24.1.0, SVG Export Plug-In . SVG Version: 6.00 Build 0)  -->
<svg version="1.1" id="Layer_1" xmlns="http://www.w3.org/2000/svg" xmlns:xlink="http://www.w3.org/1999/xlink" x="0px" y="0px"
	 viewBox="0 0 1080 1080" style="enable-background:new 0 0 1080 1080;" xml:space="preserve">
<style type="text/css">
	.st0{fill:#0073B9;}
	.st1{fill:#4FC3A0;}
	
		.st2{fill:none;stroke:#0092C9;stroke-width:27.705;stroke-linecap:round;stroke-linejoin:round;stroke-miterlimit:10;stroke-dasharray:26.6284,26.6284;}
	
		.st3{fill:none;stroke:#4FC3A0;stroke-width:27.705;stroke-linecap:round;stroke-linejoin:round;stroke-miterlimit:10;stroke-dasharray:183.4406,183.4406;}
</style>
<path class="st0" d="M889.2,288.2H650.6v-84.3c0-26-21-47.1-47.1-47.1H476.2c-26,0-47.1,21-47.1,47.1V288H187.4
	c-11.9,0-21.7,9.8-21.7,21.7l0,0v493c0,11.9,9.8,21.7,21.7,21.7H889c11.9,0,21.7-9.8,21.7-21.7V310
	C911,297.8,901.2,288.2,889.2,288.2z M472.9,203.9c0-1.9,1.4-3.3,3.3-3.3l0,0h42v95.3c0,11.9,9.8,21.7,21.7,21.7
	c11.9,0,21.7-9.8,21.7-21.7v-95.3h41.8c1.9,0,3.3,1.4,3.3,3.3l0,0v97c0,37-30.1,67.1-67.1,67.1s-67.1-30.1-67.1-67.1l0,0
	L472.9,203.9z M867.3,781H209.4V331.7h224.3c17,58.8,78.6,92.7,137.4,75.5c36.5-10.5,65-39.2,75.5-75.5h220.7V781z"/>
<path class="st1" d="M613.8,446.1c-11.9,0-21.7,9.8-21.7,21.7c0,11.9,9.8,21.7,21.7,21.7h175.3c11.9,0,21.7-9.8,21.7-21.7
	c0-11.9-9.8-21.7-21.7-21.7H613.8z"/>
<path class="st1" d="M789.2,537.1H613.8c-11.9,0-21.7,9.8-21.7,21.7c0,11.9,9.8,21.7,21.7,21.7h175.3c11.9,0,21.7-9.8,21.7-21.7
	C810.9,546.9,801.1,537.1,789.2,537.1z"/>
<path class="st1" d="M789.2,622.9H613.8c-11.9,0-21.7,9.8-21.7,21.7c0,11.9,9.8,21.7,21.7,21.7h175.3c11.9,0,21.7-9.8,21.7-21.7
	C810.9,632.7,801.1,622.9,789.2,622.9z"/>
<path class="st1" d="M479.3,495.1h-42v-42c0-11.9-9.8-21.7-21.7-21.7l0,0h-78.8c-11.9,0-21.7,9.8-21.7,21.7l0,0v42h-41.8
	c-11.9,0-21.7,9.8-21.7,21.7v78.8c0,11.9,9.8,21.7,21.7,21.7h42v42c0,11.9,9.8,21.7,21.7,21.7h78.8c11.9,0,21.7-9.8,21.7-21.7v-41.8
	h42c11.9,0,21.7-9.8,21.7-21.7v-78.8C501.3,504.9,491.5,495.1,479.3,495.1L479.3,495.1z M457.6,573.9h-42
	c-11.9,0-21.7,9.8-21.7,21.7v41.8h-35.1v-41.8c0-11.9-9.8-21.7-21.7-21.7h-42v-35.1h42c11.9,0,21.7-9.8,21.7-21.7v-42h35.1v42
	c0,11.9,9.8,21.7,21.7,21.7h42V573.9L457.6,573.9z"/>
<g>
	<circle class="st2" cx="540.7" cy="540" r="525.4"/>
</g>
<g>
	<circle class="st3" cx="540.7" cy="540" r="525.4"/>
</g>
<g>
</g>
<g>
</g>
<g>
</g>
<g>
</g>
<g>
</g>
<g>
</g>
</svg>
