<?xml version="1.0" encoding="utf-8"?>
<!-- Generator: Adobe Illustrator 24.1.0, SVG Export Plug-In . SVG Version: 6.00 Build 0)  -->
<svg version="1.1" id="Layer_1" xmlns="http://www.w3.org/2000/svg" xmlns:xlink="http://www.w3.org/1999/xlink" x="0px" y="0px"
	 viewBox="0 0 1080 1080" style="enable-background:new 0 0 1080 1080;" xml:space="preserve">
<style type="text/css">
	.st0{fill:#0092C9;}
	.st1{fill:#4FC3A0;}
	.st2{fill:#FFFFFF;}
	.st3{fill:none;stroke:#0092C9;stroke-width:27.8697;stroke-linecap:round;stroke-miterlimit:10;stroke-dasharray:26.6379,26.6379;}
	
		.st4{fill:none;stroke:#4FC3A0;stroke-width:27.8697;stroke-linecap:round;stroke-miterlimit:10;stroke-dasharray:183.5052,183.5052;}
</style>
<g>
	<path class="st0" d="M649.9,861c-2.6-4.6-8-6.7-13-5.4c-27.4,7.4-55.7,11.1-83.9,11.1c-178.5,0-323.7-144.1-324.6-322.8h43
		c4.1,0,8-2.2,10-5.9c2.2-3.5,2.2-8,0-11.5l-38.7-67l-38.7-67.2c-3.3-5.7-10.4-7.4-16.1-4.1c-1.7,1.1-3.3,2.4-4.1,4.1L106.7,526
		c-2.2,3.5-2.2,8,0,11.5c2.2,3.7,5.9,5.9,10,5.9h35.9C153,647.8,193.2,746,266.2,821C371,928.2,526.9,968,670.2,924.3
		c3.5-1.1,6.1-3.5,7.4-6.7c1.3-3.3,1.1-7-0.9-10L649.9,861z"/>
	<path class="st0" d="M552.8,919.1c-208.3,0-377-168.9-377-377.2c0-3,0-6.3,0.2-9.3c0-3-1.1-6.1-3.3-8.5c-2.2-2.2-5.2-3.5-8.3-3.5
		h-27.8l57.2-99.1l57.4,99.1h-34.3c-6.3,0-11.3,5-11.5,11.3c-5.7,192,145.4,352.2,337.6,357.8c3.3,0,6.7,0.2,10,0.2
		c27.4,0,54.6-3.3,81.3-9.6l15.2,26.3C617.8,915,585.4,919.1,552.8,919.1L552.8,919.1z"/>
	<path class="st0" d="M953,541.9c0.2-148-81.7-284.1-212.6-353.5c-3-1.7-7-1.7-10-0.4c-3.3,1.3-5.7,4.1-6.5,7.6l-13.9,52.2
		c-1.3,5,0.9,10.4,5.4,13c100.2,58.3,162,165.2,162.4,281.1c0.4,85.7-33.5,168-94.1,228.5l-24.8-24.8c-2.8-3-7.2-4.1-11.3-3
		c-3.9,1.1-7.2,4.1-8,8c-12.4,46.3-23.7,88.3-35.9,133.7c-1.7,6.3,2,12.6,8.3,14.3c0.9,0.2,2,0.4,3,0.4c1.1,0,2-0.2,3-0.4
		l133.7-35.9c4.1-1.1,7.2-4.1,8.3-8.3c1.1-3.9,0-8.3-3-11.3l-19.8-19.8C911.5,748.9,953.2,647.6,953,541.9z"/>
	<path class="st0" d="M812.1,832.1l13.9,13.7l-95.2,25.4c8.7-32,16.7-62.6,25.4-95l18.7,18.7c4.3,4.3,11.5,4.6,16.1,0.2
		c139.8-131.5,146.5-351.5,15.2-491.3c-21.3-22.6-45.4-42.2-72-58.5l7.8-29.3c180,104.6,241.1,335,136.7,515
		c-18,31.1-40.4,59.6-66.7,84.3c-2.4,2.2-3.7,5.2-3.7,8.3C808.6,826.9,809.7,830,812.1,832.1z"/>
	<path class="st0" d="M206.7,371l52.2,13.9c0.9,0.2,2,0.4,3,0.4c4.1,0,8-2.2,10-5.9c58.3-100.2,165.2-162,281.1-162.2h7.2v32.8
		c0,4.1,2.2,8,5.9,10c3.5,2.2,8,2.2,11.5,0l115.9-67c5.7-3.3,7.4-10.4,4.1-16.1c-1.1-1.7-2.4-3.3-4.1-4.1l-116.1-67
		c-3.5-2.2-8-2.2-11.5,0c-3.7,2.2-5.9,5.9-5.9,10v25.7h-7c-148-0.2-284.1,81.5-353.5,212.4c-3,5.9-0.7,12.8,5,15.9
		C205.2,370.6,205.8,370.8,206.7,371z"/>
	<path class="st0" d="M552.8,165c6.1,0,12.2,0.2,18.3,0.4c3.3,0.2,6.3-1.1,8.7-3c2.4-2.2,3.7-5.2,3.7-8.5v-17.6l81.1,47L583.2,230
		v-23.5c0-6.1-4.8-11.3-10.9-11.5c-5.9-0.4-12.4-0.4-19.3-0.4c-120.9,0-233.3,62.8-296.5,165.9l-29.3-8
		C294.5,236.3,418.6,165,552.8,165z"/>
	<path class="st1" d="M733.6,694.1c12.8-15.7,23.7-32.6,32.4-51.1c2.2-4.6,1.3-9.8-2.4-13.3l-24.6-23.9c4.1-12.2,7-25,8.5-37.8
		l33.5-15.2c4.1-2,6.7-6.1,6.7-10.7c-0.2-18.9-2.6-37.8-7.4-56.3c-1.3-4.8-5.4-8.3-10.2-8.7l-33.9-2.6c-5.7-14.8-12.8-28.7-22-41.7
		l15.7-32.4c2-4.1,1.3-9.3-1.7-12.8c-12-13.3-25.2-25.2-39.8-35.4c-4.1-2.8-9.3-2.8-13.5,0l-27.8,19.8
		c-15.4-8.5-32.2-14.8-49.3-18.9l-8.7-33.9c-1.1-4.6-5.2-8-10-8.7c-17.4-1.7-34.8-1.7-52,0c-4.8,0.4-8.7,3.9-10,8.7l-8.7,33.9
		c-17.2,3.9-33.9,10.2-49.3,18.9l-27.8-19.8c-4.1-2.8-9.3-2.8-13.5,0c-14.6,10.2-28,22.2-40,35.4c-3,3.5-3.9,8.5-1.7,12.8l15.7,32.4
		c-8.9,13-16.3,27-22,41.7l-33.9,2.6c-5,0.2-9.1,3.9-10.2,8.7c-4.8,18.5-7.2,37.4-7.4,56.3c0,4.6,2.6,8.7,6.7,10.7l33.5,15.2
		c1.7,12.8,4.6,25.4,8.5,37.8l-24.6,23.9c-3.5,3.5-4.3,8.7-2.4,13c8.5,18.3,19.3,35.4,32.4,51.1c3,3.5,7.6,5,12.2,3.9l35.7-10
		c7.6,7.2,15.9,13.5,24.6,19.1l-3.5,35c-0.4,4.8,2,9.3,6.3,11.5c18.7,9.6,38.7,16.3,59.3,20.4c0.9,0.2,1.5,0.2,2.4,0.2
		c3.9,0,7.4-2,9.6-5l20.4-30c9.3,0.7,18.7,0.7,28,0l20.4,30c2.6,3.9,7.4,5.7,12,4.8c20.7-4.1,40.4-11.1,59.3-20.4
		c4.3-2.2,6.7-6.7,6.3-11.5l-3.5-35c8.7-5.9,16.7-12.2,24.6-19.1l35.7,10C726,699.1,730.8,697.8,733.6,694.1L733.6,694.1z"/>
	<path class="st1" d="M685.8,664.1c-3.9-1.1-8.3,0-11.3,3c-9.3,9.3-20,17.8-31.3,24.8c-3.7,2.2-5.9,6.5-5.4,10.9l3.3,34.1
		c-12.4,5.9-25.4,10.2-38.9,13.5l-20-29.1c-2.4-3.5-6.5-5.4-10.9-5c-12.4,1.3-24.8,1.3-37.2,0c-4.1-0.4-8.5,1.5-10.9,5l-20,29.1
		c-13.5-3.3-26.5-7.6-38.9-13.5l3.3-34.1c0.4-4.3-1.7-8.7-5.4-10.9c-11.3-7-22-15.2-31.3-24.8c-2.8-3-7.2-4.1-11.3-3l-34.6,9.6
		c-8-10.2-15-21.3-20.9-33l23.9-23.3c3.3-3.3,4.3-8,2.6-12.4c-5.4-14.6-8.9-30-10.2-45.4c-0.4-4.1-3-7.8-6.7-9.6l-32.4-14.8
		c0.4-12,2-23.7,4.6-35.2l33-2.6c4.6-0.4,8.7-3.5,10-7.8c5.9-17.4,14.3-33.7,25.4-48.3c2.6-3.5,3-8,1.1-12l-15-31.5
		c7.4-7.8,15.7-15,24.1-21.5l27,19.3c3.7,2.6,8.7,2.8,12.8,0.4c17.2-10.2,36.1-17.6,55.7-21.3c4.3-0.9,7.8-4.1,8.9-8.5l8.5-33
		c10.2-0.9,20.7-0.9,30.9,0l8.5,33c1.1,4.3,4.8,7.6,9.1,8.5c19.6,3.7,38.5,11.1,55.7,21.3c3.9,2.4,8.9,2.2,12.8-0.4l27.4-19.1
		c8.5,6.5,16.5,13.7,23.9,21.5l-15,31.5c-1.7,3.9-1.3,8.5,1.1,12c10.9,14.8,19.3,31.1,25.2,48.3c1.5,4.3,5.4,7.6,10,8l33,2.6
		c2.4,11.5,3.9,23.5,4.6,35.2l-32.6,14.8c-3.9,1.7-6.5,5.4-6.7,9.6c-1.3,15.7-4.8,30.9-10.2,45.4c-1.5,4.3-0.7,9.1,2.6,12.4
		l23.9,23.3c-5.9,11.5-12.8,22.6-20.9,33L685.8,664.1z"/>
	<path class="st2" d="M634.9,587.1c-2.4,17-15,32.4-33.9,41.3c-9.6,4.3-20,7-30.4,7.8v27c0,6.3-5.2,11.5-11.5,11.5
		c-6.3,0-11.5-5.2-11.5-11.5v-27.6c-22.6-2.8-47-11.7-71.7-26.7c-5.2-3.7-6.3-11.1-2.6-16.1c3.3-4.6,9.6-6.1,14.8-3.5
		c56.1,34.1,91.1,24.1,103.5,18.5c11.7-5.4,19.6-14.3,20.9-23.7c2.4-17.6-9.3-22.4-49.1-28.5c-28.9-4.6-61.5-9.3-74.8-35
		c-9.1-17.6-5.2-37.8,10.2-53c10.7-10.2,27.4-18.5,49.1-20v-26.7c0-6.3,5.2-11.5,11.5-11.5c6.3,0,11.5,5.2,11.5,11.5v27.8
		c16.3,2.4,34.3,8,53.9,18.9c5.7,3,7.6,10,4.6,15.7c-3,5.7-10,7.6-15.7,4.6c-45.4-24.8-82.4-19.8-98.7-3.7
		c-8,7.8-10.2,17.4-5.9,25.7c8,15.2,33.3,19.1,57.8,22.8c17.6,2.6,34.1,5.2,47,12C630.2,553.2,637.8,568,634.9,587.1L634.9,587.1z"
		/>
</g>
<g>
	<circle class="st3" cx="541.9" cy="540.5" r="525.6"/>
</g>
<g>
	<circle class="st4" cx="541.9" cy="540.5" r="525.6"/>
</g>
</svg>
