<?xml version="1.0" encoding="utf-8"?>
<!-- Generator: Adobe Illustrator 24.1.0, SVG Export Plug-In . SVG Version: 6.00 Build 0)  -->
<svg version="1.1" id="Layer_1" xmlns="http://www.w3.org/2000/svg" xmlns:xlink="http://www.w3.org/1999/xlink" x="0px" y="0px"
	 viewBox="0 0 1077.2 1077" style="enable-background:new 0 0 1077.2 1077;" xml:space="preserve">
<style type="text/css">
	.st0{fill:#4FC3A0;}
	.st1{fill:#0092C9;}
	.st2{fill:none;stroke:#0092C9;stroke-width:27.6661;stroke-linecap:round;stroke-miterlimit:10;stroke-dasharray:26.5792,26.5792;}
	.st3{fill:none;stroke:#4FC3A0;stroke-width:27.6661;stroke-linecap:round;stroke-miterlimit:10;stroke-dasharray:183.13,183.13;}
</style>
<path class="st0" d="M507.4,280.8c28.2,0,51.1-22.9,51.1-51.1c0-28.2-22.9-51.1-51.1-51.1s-51.1,22.9-51.1,51.1
	C456.3,257.9,479.2,280.8,507.4,280.8z M507.4,201.7c15.5,0,28,12.5,28,28s-12.5,28-28,28s-28-12.5-28-28l0,0
	C479.4,214.2,492,201.7,507.4,201.7L507.4,201.7z"/>
<path class="st0" d="M322.9,483.6c6,2.3,12.7-0.7,15-6.6l4.4-11.5H373l4.4,11.5c2.1,6.1,8.7,9.3,14.8,7.2c6.1-2.1,9.3-8.7,7.2-14.8
	c-0.1-0.2-0.1-0.4-0.2-0.6l-28.9-76.5c0-0.1-0.1-0.2-0.2-0.2l0,0c-2.1-5-7-8.2-12.4-8.2l0,0c-5.5,0-10.4,3.3-12.3,8.4
	c0,0.2,0,0.2-0.2,0.2l-29.1,76.5C313.9,474.8,317,481.2,322.9,483.6z M364.1,441.9h-13l6.6-17L364.1,441.9z"/>
<path class="st0" d="M603.7,484.3c6.4,0,11.7-5.2,11.7-11.7v-77.4c0.2-6.5-4.9-11.8-11.3-12c-6.5-0.2-11.8,4.9-12,11.3
	c0,0.2,0,0.5,0,0.7v77.6C592.3,479.1,597.4,484.2,603.7,484.3z"/>
<path class="st0" d="M502.4,472.6c0,6.4,5.2,11.6,11.7,11.7l0,0c0.7,0,16.3,0,22.5-0.2c24.5-0.5,42.1-21.6,42.1-50.3
	c0-30.2-17.2-50.3-42.8-50.3H514c-6.4,0-11.6,5.3-11.7,11.7C502.1,395.2,502.4,472.6,502.4,472.6L502.4,472.6z M535.8,406.9
	c18.1,0,19.6,20.7,19.6,27.1c0,13.2-6,26.7-19.2,26.9c-2.4,0-6.6,0.2-10.6,0.2c0-9-0.2-44.7-0.2-54h10.4V406.9z"/>
<path class="st0" d="M427.2,478.3c6.1,3.9,13.2,6,20.5,6l0,0c6.3,0,12.4-1.4,18-4.2c13.5-6.8,20.9-18.1,20.9-31.7v-53.1
	c0-6.5-5.2-11.7-11.7-11.7s-11.7,5.2-11.7,11.7c0,0,0,0,0,0v53.3c0,3.3-0.9,7.3-8.2,10.8c-2.3,1.1-4.9,1.7-7.5,1.8l0,0
	c-2.9,0.1-5.7-0.7-8.2-2.2c-5.5-3.5-6.8-6.6-6.8-10.1v-53.6c0.2-6.5-4.9-11.8-11.3-12s-11.8,4.9-12,11.3c0,0.2,0,0.5,0,0.7v53.3
	C409.8,460.9,415.5,471,427.2,478.3z"/>
<path class="st0" d="M645,406.9h9.7v65.9c-0.2,6.5,4.9,11.8,11.3,12c6.5,0.2,11.8-4.9,12-11.3c0-0.2,0-0.5,0-0.7v-65.9h9.7
	c6.5,0,11.7-5.2,11.7-11.7c0-6.5-5.2-11.7-11.7-11.7H645c-6.5,0.2-11.5,5.6-11.3,12C633.8,401.7,638.8,406.7,645,406.9L645,406.9z"
	/>
<path class="st1" d="M737.7,516.7H354.2c-6.5,0-11.7,5.2-11.7,11.7s5.2,11.7,11.7,11.7c0,0,0,0,0,0h383.5c6.5,0,11.7-5.2,11.7-11.7
	C749.4,521.9,744.2,516.7,737.7,516.7C737.7,516.7,737.7,516.7,737.7,516.7z"/>
<path class="st1" d="M737.7,572.2H277.1c-6.5,0.2-11.5,5.6-11.3,12c0.2,6.2,5.2,11.2,11.3,11.3h460.6c6.5-0.2,11.5-5.6,11.3-12
	C748.9,577.4,743.9,572.4,737.7,572.2z"/>
<path class="st1" d="M737.7,627.8H277.1c-6.5,0.2-11.5,5.6-11.3,12c0.2,6.2,5.2,11.2,11.3,11.3h460.6c6.4,0,11.7-5.2,11.7-11.6
	C749.3,633.1,744.2,627.9,737.7,627.8z"/>
<path class="st1" d="M737.7,683.3H277.1c-6.5,0-11.7,5.2-11.7,11.7c0,6.4,5.2,11.7,11.7,11.7h460.6c6.5,0,11.7-5.2,11.7-11.7
	C749.4,688.6,744.2,683.3,737.7,683.3C737.7,683.3,737.7,683.3,737.7,683.3z"/>
<path class="st1" d="M737.7,739.1H277.1c-6.5,0.2-11.5,5.6-11.3,12c0.2,6.2,5.2,11.2,11.3,11.3h460.6c6.5-0.2,11.5-5.6,11.3-12
	C748.9,744.2,743.9,739.3,737.7,739.1z"/>
<path class="st1" d="M604.2,794.6H277.1c-6.5,0.2-11.5,5.6-11.3,12c0.2,6.2,5.2,11.2,11.3,11.3h327.1c6.3,0,11.4-5.1,11.5-11.4
	c0-0.1,0-0.2,0-0.3C615.4,799.9,610.6,794.6,604.2,794.6z"/>
<path class="st1" d="M902.4,363.3c-5.6,0-11.2,0.9-16.5,2.9l-5.1-59.3c-1.9-22.9-22-39.8-44.9-37.9c0,0-0.1,0-0.1,0
	c-7.1,0.7-13.9,3.1-19.8,7.1c-18.3-43.7-61-72.2-108.5-72.3h-22.9c-14.4-13.6-33.5-21.2-53.3-21.2h-26.5
	c-26.1-53.9-90.9-76.4-144.8-50.3c-21.9,10.6-39.6,28.3-50.3,50.3h-26.4c-19.8,0-38.9,7.6-53.3,21.2h-22.9
	c-64.9,0.1-117.4,52.6-117.5,117.5v477.4c0.1,64.9,52.6,117.4,117.5,117.5h400.7c42.3,0.2,81.4-22.5,102.3-59.3
	c5.6,3.3,11.7,5.7,18.1,7v13.7c0.2,6.5,5.6,11.5,12,11.3c6.2-0.2,11.2-5.2,11.3-11.3v-13.7c26.7-5.6,45.9-29.1,46.1-56.4V592.7
	c1.8,0.2,3.7,0.3,5.5,0.2c27.4,0,49.6-22.2,49.6-49.6V412.4C951.8,385.1,929.8,363.3,902.4,363.3L902.4,363.3z M798.6,469.7
	c-6.3-0.2-11.3-5.5-11.1-11.8c0.2-6.1,5.1-10.9,11.1-11.1h81.5c6.3-0.2,11.6,4.8,11.8,11.1c0.2,6.3-4.8,11.6-11.1,11.8
	c-0.2,0-0.5,0-0.7,0H798.6z M839.6,291.6c9.5,0,17.5,7.3,18.3,16.8l9.7,114.8h-56.2l9.7-114.8C822,298.8,830,291.6,839.6,291.6z
	 M707.8,892.9H307.1c-52.1-0.1-94.3-42.3-94.3-94.3V320.9c0-52,42.3-94.1,94.3-94.3h6c-14.3,29.8-8.2,65.3,15.2,88.6
	c8,8,17.6,14.1,28.2,18.1c6.2,1.8,12.6-1.8,14.4-8c1.6-5.5-1.1-11.4-6.3-13.8c-28.3-10.4-42.8-41.8-32.4-70.1
	c7.9-21.5,28.4-35.8,51.3-35.7h34c4.8,0,9-2.8,10.8-7.3c17.4-43.7,67-65,110.7-47.6c21.7,8.7,38.9,25.9,47.6,47.6
	c1.8,4.4,6.1,7.3,10.8,7.3h34.2c30.1,0.2,54.5,24.5,54.7,54.7c0,30.2-24.5,54.7-54.6,54.7c0,0,0,0,0,0h-225
	c-6.5-0.2-11.8,4.9-12,11.3s4.9,11.8,11.3,12c0.2,0,0.5,0,0.7,0h225c43.1,0,78-35,78-78.2c0,0,0-0.1,0-0.1c0-11.5-2.6-22.9-7.5-33.3
	h5.7c43.5,0,81.4,29.8,91.7,72.1c-0.7,2.5-1.1,5.1-1.3,7.7L788,425.2c-18.3,5.9-28.3,25.5-22.3,43.8c0,0,0,0.1,0,0.1
	c2.7,8.4,8.5,15.4,16.3,19.6v191.8c0,6.5,5.2,11.7,11.7,11.7c6.5,0,11.7-5.2,11.7-11.7c0,0,0,0,0,0V493.1h68.3v281H851V567.6
	c0.2-6.5-4.9-11.8-11.3-12c-6.5-0.2-11.8,4.9-12,11.3c0,0.2,0,0.5,0,0.7v206.3h-22.7V727c0-6.5-5.2-11.7-11.7-11.7
	c-6.5,0-11.7,5.2-11.7,11.7c0,0,0,0,0,0v80.5c-0.1,11.8,3.6,23.2,10.4,32.8C776.4,872.6,743.6,893.1,707.8,892.9z M839.6,841.8
	c-19,0-34.4-15.4-34.4-34.4v-10.1h68.5v10.1C873.7,826.3,858.5,841.7,839.6,841.8z M928.6,543.6c0,14.4-11.6,26.2-26.1,26.2
	c0,0-0.1,0-0.1,0c-1.9,0-3.7-0.2-5.5-0.7v-80.5c16.8-9.3,22.9-30.5,13.6-47.3c-4.2-7.7-11.2-13.4-19.6-16.2l-2.9-34.4
	c4.2-2.8,9.2-4.3,14.3-4.2c14.4,0,26.2,11.6,26.2,26.1c0,0.1,0,0.1,0,0.2V543.6L928.6,543.6z"/>
<circle class="st2" cx="538.5" cy="538.5" r="524.7"/>
<circle class="st3" cx="538.7" cy="538.5" r="524.7"/>
</svg>
