<?xml version="1.0" encoding="utf-8"?>
<!-- Generator: Adobe Illustrator 24.1.0, SVG Export Plug-In . SVG Version: 6.00 Build 0)  -->
<svg version="1.1" id="Layer_1" xmlns="http://www.w3.org/2000/svg" xmlns:xlink="http://www.w3.org/1999/xlink" x="0px" y="0px"
	 viewBox="0 0 1080 1080" style="enable-background:new 0 0 1080 1080;" xml:space="preserve">
<style type="text/css">
	.st0{fill:#0092C9;}
	.st1{fill:#4FC3A0;}
	
		.st2{fill:none;stroke:#0092C9;stroke-width:27.7004;stroke-linecap:round;stroke-linejoin:round;stroke-miterlimit:10;stroke-dasharray:26.4013,26.4013;}
	
		.st3{fill:none;stroke:#4FC3A0;stroke-width:27.7004;stroke-linecap:round;stroke-linejoin:round;stroke-miterlimit:10;stroke-dasharray:181.8756,181.8756;}
</style>
<path class="st0" d="M829.6,406.4c0-61.8,0-123.9,0-185.7c0-28.7-20.4-49.7-48.3-49.7c-152.5,0-305.1-0.2-457.9,0
	c-10.9-0.2-21.6,3.6-30.1,10.7c-13.3,10.7-18.2,24.9-18.2,41.7c0.2,206.3,0.2,412.6,0,618.9c0,2.1,0,4.3,0,6.4
	c0.9,19.7,13.5,36.7,32,43.3c2.6,0.9,5.7,0.5,7.8,2.8h317.9c18.5-3.6,31.7-14.7,44.5-27.7c43.3-43.8,86.9-87.6,130.8-131
	c14.7-14.4,21.6-31,21.3-51.6C829.6,591.6,829.6,499,829.6,406.4z M685.4,822.4c0-19.4,0-39.8,0-59.9c0-7.3,4-12.3,10.7-12.3
	c20.8-0.2,41.7,0,61.8,0L685.4,822.4z M765.7,725.7c-21.6-0.7-43.3-0.2-64.9,0c-24.9,0-39.3,14.7-39.3,39.6c0,22.3,0,44.3,0,66.3
	c0,23.7-15.4,38.8-39.1,38.8c-98.3,0-196.8,0-295.1,0c-18,0-27.5-9.2-27.5-27.2c0-103.3,0-206.8,0-310.1c0-103,0.2-206.3-0.2-309.4
	c0-19.4,13.3-28.9,28.7-28.7c149.7,0.5,299.4,0.5,449.3,0.2c19.7,0,28.7,8.8,28.7,28.2c0,154-0.2,307.9,0.2,461.9
	C806,707.2,791.3,726.4,765.7,725.7L765.7,725.7z"/>
<path class="st0" d="M564.6,339.8c-0.2-59.7,48.1-108.5,107.8-108.7c0.2,0,0.2,0,0.5,0c59.7-0.2,108.3,48.1,108.5,107.8
	c0.7,59.9-47.1,109-107.1,109.7c-59.9,0.7-109-47.1-109.7-107.1C564.6,341,564.6,340.6,564.6,339.8L564.6,339.8z"/>
<path class="st0" d="M553.2,617.2h198.5c2.6,0,5.2,0,7.8,0.2c5.9,0.9,9.2,4.5,9.9,10.2c0.7,5.7-1.7,9.9-7.1,12.6
	c-3.1,1.4-6.4,1.2-9.7,1.2H352.8c-1.7,0-3.3,0-5,0c-7.6-0.5-12.8-5.9-12.3-12.8c0.2-6.6,5.2-11.4,12.8-11.4c23.7-0.2,47.6,0,71.3,0
	H553.2z"/>
<path class="st1" d="M498,689.5c49.7,0,99.2,0,149,0c10.4,0,16.6,7.8,13,16.3c-1.9,4.7-5.7,7.3-10.9,7.6c-4.5,0.2-9,0-13.5,0H352.8
	c-2.4,0.2-4.7,0-7.1-0.2c-6.6-0.9-10.9-7.1-9.9-13.7c0.9-5.4,5.2-9.5,10.7-9.9c2.4-0.2,4.7-0.2,7.1,0H498z"/>
<path class="st0" d="M474.3,785.6c-41.2,0-82.4,0-123.6,0c-5,0-9.5-0.5-12.6-4.7c-4-5.2-3.1-12.8,2.4-16.8c1.7-1.2,3.3-1.9,5.2-2.4
	c2.4-0.2,4.7-0.5,7.1-0.2h242.8c0.9,0,1.9,0,2.8,0c8.8,0.2,14.4,4.7,14.4,12.1c0,7.1-5.4,12.1-14.4,12.1
	C557,785.6,515.5,785.9,474.3,785.6z"/>
<path class="st1" d="M717.4,351.7c11.4,0,22.5,0.2,33.9,0c3.8,0,5.2,0.5,4.5,5c-10.2,57.3-82,86.9-129.3,53.3
	c-3.3-2.4-3.3-3.3-0.5-6.2c16.6-16.3,32.9-32.9,49.5-49.5c2.4-2.4,4.5-2.6,7.6-2.6C694.4,351.7,705.8,351.7,717.4,351.7z"/>
<path class="st1" d="M605.6,389.8c-36.2-49-10.7-118.2,48.3-132.4c5.9-1.4,7.6-0.2,7.3,5.9c-0.5,21.8-0.2,43.8-0.2,65.6
	c0,2.8,0.2,5.2-2.1,7.8C641.1,354.3,623.6,372.1,605.6,389.8z"/>
<path class="st1" d="M720.9,327.8c-10.4,0-20.6-0.2-31,0c-3.8,0-4.7-1.2-4.7-4.7c0.2-20.6,0.2-41.5,0-62.1c0-4.3,1.4-4.5,5-4
	c30.6,4.5,62.1,36.5,65.9,66.6c0.5,3.8-0.9,4.3-4,4C741.5,327.5,731.1,327.8,720.9,327.8z"/>
<path class="st0" d="M408,365.9c0-16.3-9.7-25.8-25.8-26.3c-5.9-0.2-11.8,0-17.8,0c-19.9,0-28.9,9-28.9,28.9c0,44.5,0,89.1,0,133.6
	c0,17.3,0,34.3,0,51.6c0,17.5,9.5,27,27,27.2c5.7,0,11.4,0,17.1,0c19.4,0,28.7-9,28.7-28.4c0-30.8,0-61.6,0-92.6
	C408,428.4,408,397.2,408,365.9z M377.4,556.8c-5.7-0.5-13,1.9-16.3-0.9c-4-3.3-1.2-11.1-1.2-16.8c0-56.1,0-112-0.2-168.2
	c0-5.4,1.2-7.1,6.9-7.1c17.3,0.2,17.3,0,17.3,17.8v78.4l0,0c0,30.1-0.2,60.2,0.2,90.5C384.1,555.6,382.7,557.3,377.4,556.8z"/>
<path class="st1" d="M504.4,424.4c0-14.2-10.4-24.2-24.6-24.6c-7.1-0.2-14.2,0-21.1,0c-16.6,0-26.3,9.7-26.5,26.1
	c0,21.3,0,42.9,0,64.2c0,22.3-0.2,44.3,0,66.3c0,14,10.2,23.9,23.9,24.2c8.1,0.2,16.1,0.2,23.9,0c13.7-0.2,24.2-10.4,24.2-24.2
	C504.4,512.5,504.4,468.5,504.4,424.4z M480.5,550.4c0,4.7-0.7,6.9-5.9,6.4c-5.7-0.5-13.5,1.7-17.1-1.2c-3.8-3.1-1.2-10.9-1.2-16.8
	c-0.2-16.1,0-32.5,0-48.6c0-19.9,0.2-40,0-59.9c0-4.5,0.5-7.1,5.9-6.4c5.7,0.7,13.3-2.4,17.1,1.2s1.2,11.1,1.2,16.8
	C480.3,478.2,480.3,514.4,480.5,550.4L480.5,550.4z"/>
<path class="st0" d="M600.6,473.2c-0.2-14.4-9.7-24.4-24.2-25.1c-8.1-0.2-16.1-0.2-23.9,0c-13.7,0.5-23.9,10.4-23.9,23.7
	c-0.2,28.4-0.2,56.8,0,85.5c0,13,10.2,23,23.5,23.5c8.1,0.2,16.1,0.2,23.9,0c14.7-0.2,24.6-10.2,24.6-24.9c0-13.7,0-27.2,0-41
	C600.6,500.9,600.8,486.9,600.6,473.2z M576.7,514.4c0,12.3-0.2,24.4,0,36.7c0,4-0.5,5.9-5.2,5.7c-5.9-0.5-14,1.9-17.8-1.2
	c-3.8-3.1-1.2-11.4-1.2-17.5c-0.2-19.9,0.2-40-0.2-59.9c0-5,1.4-6.6,6.4-6.2c5.7,0.7,13.5-2.6,16.8,1.4c2.8,3.3,0.9,10.7,0.9,16.3
	C576.7,498.1,576.7,506.4,576.7,514.4L576.7,514.4z"/>
<path class="st1" d="M697,532.9c0-8.1,0-15.9,0-23.9c0-0.7,0-1.4,0-2.1c-0.9-12.6-10.4-21.8-23-22.3c-8.3-0.2-16.3-0.2-24.6,0
	c-14,0.2-24.2,9.9-24.4,23.9c-0.2,15.9-0.2,32,0,47.8c0.2,14.2,10.4,24.2,24.6,24.4c7.8,0.2,15.4,0.2,23.2,0
	c14-0.2,23.9-9.7,24.2-23.9C697.2,548.8,697,540.9,697,532.9z M673.1,527.2c0,1.9,0,3.8,0,5.7c0,6.4-0.2,12.8,0,19.2
	c0.2,3.6-0.7,4.7-4.5,4.7c-19.7,0.7-19.7,0.7-19.7-18.7c0-8.3,0.2-16.6,0-24.6c0-3.6,0.9-5.2,4.7-4.7c6.4,0.5,14.4-2.6,18.5,1.2
	C675.7,513,672.6,521.3,673.1,527.2L673.1,527.2z"/>
<g>
	<circle class="st2" cx="539.5" cy="541" r="520.9"/>
</g>
<g>
	<circle class="st3" cx="539.5" cy="541" r="520.9"/>
</g>
</svg>
