<?xml version="1.0" encoding="utf-8"?>
<!-- Generator: Adobe Illustrator 24.1.0, SVG Export Plug-In . SVG Version: 6.00 Build 0)  -->
<svg version="1.1" id="Layer_1" xmlns="http://www.w3.org/2000/svg" xmlns:xlink="http://www.w3.org/1999/xlink" x="0px" y="0px"
	 viewBox="0 0 1080 1080" style="enable-background:new 0 0 1080 1080;" xml:space="preserve">
<style type="text/css">
	.st0{fill:#0092C9;}
	.st1{fill:#4FC3A0;}
	.st2{fill:none;stroke:#0092C9;stroke-width:27.6997;stroke-linecap:round;stroke-miterlimit:10;stroke-dasharray:26.6225,26.6225;}
	
		.st3{fill:none;stroke:#4FC3A0;stroke-width:27.6997;stroke-linecap:round;stroke-miterlimit:10;stroke-dasharray:183.3999,183.3999;}
</style>
<path class="st0" d="M876.7,315.9c-13.1-81.7-84.3-139.7-167.7-136.6c-80.3,2.9-148.3,67.8-154.3,148.6c-1,12.4-4.5,14.1-15.5,14.1
	c-94.8-0.5-189.7-0.2-284.5-0.2c-45.4,0-69.5,24.1-69.5,69.3c0,116.6,0,233.1,0,349.7c0,44.9,24.4,69.3,69.5,69.3
	c85.8,0,171.7,0,257.5,0c85.3,0,170.8,0,256.1,0c46.3,0,70.2-23.9,70.2-70c0-99.8,0-199.7,0-299.5c-0.2-7.2,2.1-14.1,6.7-19.6
	C872.9,403.6,883.9,362,876.7,315.9z M797.4,766.9c0,14.6-7.9,22-23.2,22.2c-25.8,0.2-51.6,0-77.4,0c-147.4,0-294.8,0-441.9,0
	c-23.9,0-29.6-5.7-29.6-29.4c0-116.1,0-232.2,0-348.3c0-22.9,6-29.1,28.7-29.1c97.7,0,195.2,0,292.8,0c6.9,0,11.9,0,14.8,8.8
	c33,97,135.4,139.7,228.1,95.3c1.9-1,3.8-1.9,7.6-3.3C797.6,578.9,797.6,672.8,797.4,766.9z M715.2,463.6
	c-66.9-0.5-121.1-55.4-121.1-122.3c0.2-67.4,55.4-122.1,123-121.6c66.9,0.5,121.1,55.2,121.1,122.3C838,409.3,782.8,464,715.2,463.6
	z"/>
<path class="st1" d="M655,667.1c-25.3,0-50.6,0-76,0c-16,0-25.1-7.4-25.3-19.8c-0.2-12.4,9.1-20.5,24.6-20.8c51.6,0,103,0,154.5,0
	c14.8,0,23.9,7.6,24.1,19.8c0.2,12.7-9.1,20.5-24.6,20.8C706.4,667.1,680.6,667.1,655,667.1z"/>
<path class="st1" d="M637.6,727.3c-24.4,0-48.7,0-73.1,0c-15,0-23.9-7.6-23.6-19.8c0.2-11.7,8.8-19.1,23.2-19.1
	c49.4-0.2,99.1-0.2,148.6,0c15,0,23.9,7.6,23.6,19.8s-9.1,19.1-24.4,19.1C687,727.3,662.2,727.3,637.6,727.3z"/>
<path class="st1" d="M574.1,585.6c-11.2,0-20.3-8.8-20.3-20.1c0-11.2,8.8-20.3,20.1-20.3s20.3,8.8,20.3,20.1c0,0.2,0,0.5,0,0.7
	C593.6,576.8,584.8,585.4,574.1,585.6z"/>
<path class="st1" d="M675.3,565.3c0,11.2-9.1,20.3-20.1,20.3c-11.2,0-20.3-9.1-20.3-20.1c0-11.2,9.1-20.3,20.1-20.3
	c0.2,0,0.5,0,0.7,0C666.7,545.5,675.3,554.3,675.3,565.3z"/>
<path class="st1" d="M736.5,545c11.2,0,20.3,9.1,20.3,20.3s-9.1,20.3-20.3,20.3c-11.2,0-20.3-9.1-20.3-20.3c0-0.2,0-0.5,0-0.7
	C716.7,553.9,725.7,545.3,736.5,545z"/>
<path class="st1" d="M797.4,300.2c0.2,6.9-3.1,12.2-7.6,16.7c-25.8,25.8-51.6,51.8-77.6,77.6c-11,11-21.7,10.7-33-0.2
	c-12.2-11.9-24.4-24.1-36.3-36.3c-9.8-10-10.5-21.5-2.4-30.1c8.4-8.8,20.5-8.4,31.1,1.4c6.2,6,12.7,11.7,18.2,18.2
	c4.8,5.7,7.9,4.5,12.7-0.2c19.6-20.1,39.7-39.7,59.2-59.5c6.7-6.9,14.6-9.1,23.4-5.5C792.9,285.6,796.9,292.1,797.4,300.2z"/>
<path class="st1" d="M469.4,690.2c0-33.2-12.2-60.7-38-81.7c-5.5-4.5-5.5-6.9-1.2-12.4c27.5-35.6,24.1-81.9-7.9-111.1
	c-31.1-28.4-78.6-28.7-109.6-0.2c-32,29.1-35.6,75.7-8.1,111.1c5,6.4,3.6,8.8-1.9,13.4c-17.2,13.6-28.2,31.5-33.7,52.6
	c-5.5,20.3-3.1,41.3-3.1,61.9c0,17.2,7.4,24.4,24.8,24.4c25.3,0.2,50.6,0,75.7,0c26.3,0,52.3,0.2,78.6,0
	c16.5-0.2,23.6-7.4,23.9-24.1C469.4,712.9,469.4,701.7,469.4,690.2z M367.9,504.4c22.5,0,40.4,18.4,40.4,40.8s-18.4,40.4-40.8,40.4
	c-22.5,0-40.4-18.4-40.4-40.8c0,0,0,0,0-0.2C327.3,522.3,345.7,504.4,367.9,504.4L367.9,504.4z M410.7,707.7h-43.5
	c-17.2,0-34.4-0.2-51.6,0.2c-6.9,0.2-9.1-1.4-9.3-8.8c-0.7-32.7,11.2-55.7,36.1-67.1c40.6-18.6,85,10.7,86.2,57.1
	C429.3,707.7,429.3,707.7,410.7,707.7z"/>
<g>
	<circle class="st2" cx="540.9" cy="540" r="525.3"/>
</g>
<g>
	<circle class="st3" cx="540.9" cy="540" r="525.3"/>
</g>
</svg>
