<svg id="Layer_1" data-name="Layer 1" xmlns="http://www.w3.org/2000/svg" viewBox="0 0 1067.82 1067.82"><defs><style>.cls-1,.cls-2{fill:none;stroke-linecap:round;stroke-miterlimit:10;stroke-width:28.62px;}.cls-1{stroke:#0092c9;stroke-dasharray:26.32 26.32;}.cls-2{stroke:#4fc3a0;stroke-dasharray:181.37 181.37;}.cls-3{fill:#0092c9;}.cls-4{fill:#4fc3a0;}</style></defs><circle class="cls-1" cx="533.91" cy="533.91" r="519.6"/><circle class="cls-2" cx="533.91" cy="533.91" r="519.6"/><path class="cls-3" d="M610.93,588.46c-4.85,27.2,8.49,40.9,28.36,49.77,26.65,11.9,54.62,21.22,80.18,35a476.92,476.92,0,0,1,74,49c27,22,33.24,53.41,29.09,87-3.08,24.94-18.09,42.84-40.09,51.29-29.53,11.35-60.17,22.64-91.26,26.59C579.13,901.32,466.67,903.3,355,882.77a231.76,231.76,0,0,1-69.68-25.09c-44.89-25-54.4-79.37-22.35-119.89,10.23-12.94,22.85-25.35,36.95-33.62,38.15-22.39,77.66-42.47,116.71-63.33,4.26-2.28,9.07-3.51,13.51-5.51,33.1-14.94,40-39.93,17.63-69-27.35-35.51-50.32-73-60.87-117.11-9.08-38-10.77-76.17-1-114.14,18.73-72.59,77.8-113.83,158.47-111.5,73.11,2.11,127.86,48.74,142,121.25,10.09,51.72,1.85,101.2-19.33,148.89-5,11.34-27.43,16.11-40.9,13.55-20.83-4-42.46-7.06-63.46-5.79-21.39,1.3-35.82,21.92-35.69,43.55s14.56,40.22,36.45,43.09C578.3,590,593.55,588.46,610.93,588.46Z" transform="translate(0.01 0.01)"/><path class="cls-4" d="M712.52,450.81c0-14.07-1.42-28.34.49-42.15,1.33-9.58,5.11-20.63,11.64-27.2,7.68-7.71,8.9-14.72,7.8-24.27C721.33,260.37,634.06,184.32,534,184.43c-99.91.11-187.43,76.86-197.87,173.43-.95,8.79-.41,15.49,7.09,23,6.88,6.88,11.67,18.54,12.33,28.44,1.69,25.33.94,50.85.46,76.29-.44,23.78-17.21,40.12-39.95,40-22.11-.13-38.74-15.86-39.36-38.89-.71-26-.8-52,.22-77.93.32-8.14,2.75-18.91,8.32-23.56,12.23-10.21,13.94-22.63,16-36.82,15.85-110.81,113-197,224.64-199.89C641.48,145.42,742.15,223.82,765,334.85c1.52,7.41,1.45,15.27,3.85,22.33,2.75,8.09,7.68,15.42,11.19,23.28,4.28,9.6,10.87,19.23,11.52,29.17,1.65,25.33,1.18,50.87.39,76.28-.9,29.16-24.37,45-53.05,37.65-5.35-1.37-12.06.16-17.54,2.09-23.82,8.38-47.41,17.43-71.11,26.16C638,556.31,626,562.87,613.39,564.5c-17.23,2.22-35.23,2.39-52.29-.37-5.3-.86-12.42-14.45-11.74-21.54s9.39-18.38,15.7-19.19c18.13-2.35,37.21-7,54.82,5.23,12.53,8.7,87.63-14,92.72-27.76,2.08-5.62-.05-12.75-.1-19.2-.09-10.29,0-20.57,0-30.86Z" transform="translate(0.01 0.01)"/></svg>