<svg id="Layer_1" data-name="Layer 1" xmlns="http://www.w3.org/2000/svg" viewBox="0 0 277.31 277.31"><defs><style>.cls-1{fill:#4fc3a0;}.cls-2{fill:#fff;}</style></defs><circle class="cls-1" cx="138.65" cy="138.65" r="138.65"/><path class="cls-2" d="M515.61,407.4c6.23,1.43,12.2,3.2,18.07,5.08,3,.9,5.83,1.93,8.74,2.9l8.59,3.1c9,7.25,18,14.41,27,21.62l54,43.18L645.29,494l-13.52,10.44L577.85,546l-13.48,10.41c-4.49,3.48-9,6.89-13.41,10.5l-8.58,2.82c-2.91.88-5.77,1.82-8.72,2.65-5.85,1.71-11.78,3.32-17.93,4.63,2.82-5.62,5.88-11,9-16.18,1.54-2.65,3.17-5.17,4.76-7.77l4.9-7.58c4.6-3.34,9.05-6.86,13.55-10.32l13.48-10.41,53.92-41.64-.18,21.1-54-43.18c-9-7.18-18-14.42-27-21.56l-4.91-7.7c-1.58-2.63-3.21-5.19-4.75-7.89C521.41,418.6,518.38,413.16,515.61,407.4Z" transform="translate(-436.69 -353.01)"/></svg>