<svg id="Layer_1" data-name="Layer 1" xmlns="http://www.w3.org/2000/svg" viewBox="0 0 899.05 535.56"><defs><style>.cls-1{fill:#fff;}</style></defs><path class="cls-1" d="M862.7,516.52c-6.89-1.07-9.33-3.65-10.25-9.9-3.56-24.25-11.18-47.31-21.79-69.32C781.75,335.87,676.14,273.1,559.6,287.07,462,298.77,390.94,351,347.59,439.69c-3.43,7-6.55,7.33-13.45,5.44-43.84-12-86.74-8.79-128.38,9.64-74.43,33-123.95,114-110.83,204.9,11.95,82.78,89.36,155.78,172.84,159.52,58.14,2.61,116.33.66,174.5.93l178.75,0c38.32.3,76.64.15,115,.15,15.33,0,30.66.13,46,0,26.8-.28,53.78,2.07,80.37-2,74.89-11.49,129.41-75.6,129.53-151.27C992,592.44,937,528,862.7,516.52ZM549.84,737.27,465,590.38h53.63V444.78H581v145.6h53.63Z" transform="translate(-92.83 -285.14)"/></svg>