<svg id="Layer_1" data-name="Layer 1" xmlns="http://www.w3.org/2000/svg" xmlns:xlink="http://www.w3.org/1999/xlink" viewBox="0 0 312.8 312.8"><defs><style>.cls-1,.cls-4{fill:none;stroke-miterlimit:10;}.cls-1{stroke-width:3.95px;stroke:url(#linear-gradient);}.cls-2{fill:#0072ba;}.cls-3{fill:#4fc3a0;}.cls-4{stroke:#4fc3a0;}</style><linearGradient id="linear-gradient" x1="2" y1="159.6" x2="314.8" y2="159.6" gradientTransform="matrix(1, 0, 0, -1, -2, 316)" gradientUnits="userSpaceOnUse"><stop offset="0" stop-color="#0072ba"/><stop offset="1" stop-color="#4fc3a0"/></linearGradient></defs><circle class="cls-1" cx="156.4" cy="156.4" r="154.43"/><path class="cls-2" d="M155.19,40.21c20.79,0,38.26,3,53.59,13.74,17.57,12.29,25.92,30.05,29.5,50.54.4,2.26.73,4.54.94,6.82.53,5.63-.16,11.26,8.27,12.54,5.42.82,8.49,6.32,10.05,11.67,4.55,15.69,3.9,31.18-2.59,46.26-2.6,6.05-6.62,11-12.63,14.06a3.78,3.78,0,0,0-2.29,3.49c-1.51,14.88-8.69,26.85-19.2,37.12-1.75,1.71-2.78,1.65-4.43-.12-7.52-8-7.5-7.93-.59-16.49,6.14-7.61,9.73-16.17,9.51-26.18-.16-7.33.82-8.39,8.15-10.28,3.75-1,6.05-3.63,7.53-6.91,5.29-11.62,5.85-23.67,2.56-35.89-.8-3-2.45-5.2-5.88-2.22a7,7,0,0,1-8.52,1c-3-1.66-3.93-4.43-3.9-7.75.1-10.45-.49-20.84-3-31-7.08-28.17-24.72-42.69-55.66-45.2-14.12-1.14-28.21-.43-41.58,5.1-18.82,7.78-28.48,22.81-32.8,42a120.61,120.61,0,0,0-2.6,28.3c.06,3.61-.53,6.78-3.95,8.63-3.26,1.77-6.21.91-8.89-1.38-2.34-2-4.18-1.11-4.93,1.39-4.09,13.77-3.73,27.21,3.8,39.87,1.55,2.61,4.13,3.92,7.22,4.36,4.47.63,6.89,3.42,6.66,7.88-.67,13.17,4.54,23.85,13.71,32.81,2.29,2.24,2.19,3.69.18,6.08-7.36,8.79-7.31,8.9-14.75.21a56.79,56.79,0,0,1-13.83-31c-.15-1.33,0-2.6-1.57-3.44-11-5.71-15.17-15.93-17.41-27.21s-2.1-22.58,1.53-33.6c2.38-7.2,7.09-12.2,14.94-13.2,2.44-.3,2.47-1.46,2.59-3.28.7-10.27,2.15-20.42,5.6-30.17,10.11-28.48,30.91-43.48,60.29-47.55A95.64,95.64,0,0,1,155.19,40.21Z" transform="translate(-2 -2)"/><path class="cls-2" d="M156.25,275.65c-5.84-.34-12.69.4-19.56-.9-8.41-1.58-13.38-7.55-18.72-13.21a1.71,1.71,0,0,1,.16-2.77c.23-.2.42-.45.65-.64,2.94-2.42,4.32-7.65,7.83-7.83,3.26-.17,5.17,4.68,7.92,7.06a15.11,15.11,0,0,0,10.2,3.43c7.5,0,15-.21,22.49.07,6.73.26,12.08-1.73,16.57-7,4.83-5.64,4-5.33,8.84.39,5.29,6.29,5.07,6.15-.34,12.2-5.88,6.56-13.34,8.88-21.71,9.15C166.15,275.77,161.71,275.65,156.25,275.65Z" transform="translate(-2 -2)"/><path class="cls-3" d="M176.05,204.27a7.4,7.4,0,0,1,5.54,2.85c9.9,11.85,19.84,23.66,29.62,35.62a6.75,6.75,0,1,1-10.46,8.52c-10-11.8-19.8-23.7-29.66-35.59a6.54,6.54,0,0,1-1-7.67A6.92,6.92,0,0,1,176.05,204.27Z" transform="translate(-2 -2)"/><path class="cls-3" d="M145.54,212.24c.08,1.13-1.13,2.73-2.41,4.27q-14.07,16.94-28.2,33.83c-3.24,3.87-7.28,4.61-10.39,2.12-3.27-2.62-3.34-6.92,0-10.92q14.2-17.11,28.52-34.15c2.13-2.55,4.72-3.92,8.09-2.58C144,206,145.4,208.14,145.54,212.24Z" transform="translate(-2 -2)"/><path class="cls-3" d="M196.4,126.51a19.15,19.15,0,0,1,11.29,3.09c1.69,1.1,2.5,2.72,1.44,4.72s-2.71,2.67-4.61,1.67c-7.31-3.87-14.21-1.53-21.15,1.11-3.41,1.3-6.87,2.47-10.33,3.64-2.57.86-4.72.19-5.39-2.55-.62-2.54,1-3.76,3.38-4.52,6.09-2,12.09-4.16,18.14-6.22A21.26,21.26,0,0,1,196.4,126.51Z" transform="translate(-2 -2)"/><path class="cls-3" d="M118.21,126.48c6.71.06,12.08,2.28,17.49,4.37,2.69,1.05,5.42,2.05,8.19,2.86,2.41.7,4,2,3.31,4.56s-2.63,3.31-5,2.56q-5.24-1.64-10.36-3.6c-7.08-2.71-14.1-5.17-21.59-1.23-1.93,1-3.59.14-4.56-1.76s-.2-3.59,1.53-4.68A19,19,0,0,1,118.21,126.48Z" transform="translate(-2 -2)"/><path class="cls-4" d="M166.72,120.17a9.29,9.29,0,1,1-18.58,0,9.29,9.29,0,0,1,18.58,0Z" transform="translate(-2 -2)"/><path class="cls-4" d="M198.41,195.05a9.31,9.31,0,0,1-9.56-9.09,9.42,9.42,0,0,1,18.83-.29A9.3,9.3,0,0,1,198.41,195.05Z" transform="translate(-2 -2)"/><path class="cls-4" d="M116.44,195.05a9.32,9.32,0,0,1-9.25-9.39A9.41,9.41,0,0,1,126,186,9.33,9.33,0,0,1,116.44,195.05Z" transform="translate(-2 -2)"/><path class="cls-2" d="M155.76,197.79c-4.8-.14-9.48-3-12.51-8.58-1.19-2.18-1.75-4.51.78-6s4.11-.08,5.54,2.18c4.48,7.09,11.21,7,15.85-.21,1.35-2.1,2.88-3.3,5.22-2s2.25,3.34,1.31,5.54C169.59,194.17,163.7,197.87,155.76,197.79Z" transform="translate(-2 -2)"/><path class="cls-2" d="M126.83,147a8.65,8.65,0,0,1,8.27,8.66,8.47,8.47,0,0,1-16.94-.39A8.63,8.63,0,0,1,126.83,147Z" transform="translate(-2 -2)"/><path class="cls-2" d="M196.66,155.68a8.48,8.48,0,0,1-16.95-.35,8.48,8.48,0,0,1,16.95.35Z" transform="translate(-2 -2)"/><path class="cls-3" d="M97.63,268.84a7.15,7.15,0,0,1-7.25,6.8,6.88,6.88,0,0,1-6.49-7,7.12,7.12,0,0,1,7.26-6.78A6.77,6.77,0,0,1,97.63,268.84Z" transform="translate(-2 -2)"/><path class="cls-3" d="M231,268.69a6.86,6.86,0,0,1-6.54,6.95,7.15,7.15,0,0,1-7.21-6.83,6.81,6.81,0,0,1,6.53-6.94A7.17,7.17,0,0,1,231,268.69Z" transform="translate(-2 -2)"/></svg>