<svg id="Layer_1" data-name="Layer 1" xmlns="http://www.w3.org/2000/svg" xmlns:xlink="http://www.w3.org/1999/xlink" viewBox="0 0 316.81 316.81"><defs><style>.cls-1,.cls-13{fill:none;}.cls-2{clip-path:url(#clip-path);}.cls-3{fill:#0072ba;}.cls-4{fill:#46aa89;}.cls-5{fill:#4fc3a0;}.cls-6{fill:#2e92f3;}.cls-7{fill:#fecec4;}.cls-8{fill:#fdcec4;}.cls-9{fill:#fcab99;}.cls-10{fill:#fbab99;}.cls-11{fill:#f9a997;}.cls-12{fill:#f8a896;}.cls-13{stroke-miterlimit:10;stroke-width:4px;stroke:url(#linear-gradient);}</style><clipPath id="clip-path" transform="translate(-1.37 -1.6)"><circle class="cls-1" cx="159.77" cy="160" r="145.38"/></clipPath><linearGradient id="linear-gradient" y1="158.4" x2="316.81" y2="158.4" gradientUnits="userSpaceOnUse"><stop offset="0" stop-color="#0072ba"/><stop offset="1" stop-color="#4fc3a0"/></linearGradient></defs><g class="cls-2"><path d="M173,270l-6.13,0c-1.81-2.08-1.38-4.63-1.38-7q-.06-31.25,0-62.5c0-2.74-.2-5.22-3.41-6.17a1.73,1.73,0,0,0-2.41,1.08c-.49,7.52-.08,15.05-.22,22.57,0,1.87.21,3.77-.66,5.54-5.1,3.25-8.4,1.81-8.83-3.87a14.19,14.19,0,0,0-.36-3.45,4.58,4.58,0,0,0-4.59-3.35c-2.22.17-1.09,2.53-1.22,3.92-.19,2,0,4,0,6.07-.05,6.7-.56,7.37-7,8.69-11.2,2.3-22.48,4.15-33.65,6.58-1.08.24-2.31.06-3.39,1.14a167.19,167.19,0,0,0,36.5,7.76c3.16.3,6.29.89,9.49.93,2.88,0,4.3-1.09,4.24-4.08-.05-2.74-.08-5.5,0-8.24.08-2-.21-4.37,2.11-5.27s4.81-1.24,6.74,1.08c1.06,2.51.59,5.15.61,7.73.06,8.55,0,17.09,0,25.63,0,1.88.15,3.81-1.5,5.23l-6.52-.08c-2.05-1.65-1.36-4-1.41-6.07-.14-6.4-.41-7-6.83-7.25a184.66,184.66,0,0,1-30.51-4.4,111.53,111.53,0,0,1-25.51-8.51,7.93,7.93,0,0,0-8.21.37c-8,4.76-12.61,11.75-13.59,21.06-.17,1.69.22,3.54-1.4,4.82-7.19.35-7.19.35-6.17-6.81C60,247.83,70.71,236.54,86,233.52c15.06-3,30.12-5.94,45.21-8.75,3.25-.6,4.6-1.49,4.81-5.37.44-8.49-.7-15.35-8.55-20.73-6.08-4.17-9.73-11-12.32-18.06a4.08,4.08,0,0,0-3.88-3.15c-6.77-.85-11.57-4.64-13.61-11.17s-.52-12.46,4.7-16.95c2.1-1.81,1-3.1.45-4.82-6.18-18.13-4.56-35.31,6.25-51.41,1.3-1.93,2.46-3.15,4.6-1.16,3.58,2,3.67,2.47,1.2,6.29-7.56,11.69-9.53,24.35-6.58,37.86.65,3,1.94,5.76,2.74,9,.75-8.53,3.34-16.12,8.91-22.43A34.69,34.69,0,0,1,140.79,111c6.61-1.08,13.3-.33,20-.43a30.23,30.23,0,0,0,11.89-2.12C183.22,103.83,189.45,96,190,84.19c1.42-15-9.9-25.92-20-28.11-12.73-2.51-23.19.74-30.93,12.57a72,72,0,0,1,13.34-3.72,30.13,30.13,0,0,1,7.34-.41c2.43.14,3.71,1.36,3.75,3.84,0,2.28-.65,4-3.21,4.34-.29,0-.57.1-.86.13a62.58,62.58,0,0,0-35,14.86c-2,1.66-4.37,3.54-6.35-.22-1.79-1.69-2-3.21.35-4.66,6.41-4,10.14-9.72,13.32-16.66,6-13,20.26-20.09,34.46-18.73a35.36,35.36,0,0,1,30.17,24.67,10,10,0,0,0,4.11,5.71c23.24,16.42,31.22,41.27,21.67,67.58-.74,2-.38,3,1.06,4.42a15.35,15.35,0,0,1,4.17,16.37c-1.95,6.33-6.51,10.18-13.12,11.22-2,.32-3.21.86-4,3-3.55,9.65-9.87,17.3-18,23.44-1.88,1.41-3,2.74-2.82,5.28.3,4.76-1.54,10.82.76,14,2.49,3.4,9,2.54,13.8,3.52,11.64,2.38,23.31,4.56,34.95,6.89,15.39,3.08,26.06,14.33,28.24,29.69,1,7.16,1,7.16-6.18,6.79-1.54-1.14-1.15-2.84-1.27-4.38A26.7,26.7,0,0,0,249.2,246c-4.4-3.52-8.86-4.73-13.79-1.15a147.35,147.35,0,0,1-22.09,7c-3.29.76-5.34-.08-5.73-3.69-.26-3.08,1.54-4.47,4.23-5.07,3.24-.72,6.45-1.6,9.63-2.55,1.09-.57,2.55-.34,3.65-1.87-9.69-1.92-19.13-3.94-28.63-5.65-3.14-.56-6.25-1.24-9.39-1.79-3.45-.6-5-2.58-4.88-6,.07-2.89,0-5.79,0-8.69-.07-4.45-.16-4.5-4.36-2.87-2.88.88-3.55,3.12-3.57,5.77,0,8.1,0,16.21,0,24.31,0,3.3,1.6,4.32,4.57,4.17,6.22-.32,12.37-1.19,18.53-2,2.94-.4,5.21.09,6,3.37.6,3.49-1.2,5.06-4.42,5.58-6.27,1-12.6,1.52-18.92,2.16-5.59.56-5.65.85-5.77,6.38C174.19,265.66,174.68,268.06,173,270Z" transform="translate(-1.37 -1.6)"/><path class="cls-3" d="M118.11,87.47c1.59,1.51,2.74,2.1,4.91.15,10.54-9.48,22.84-15.2,37.18-15.74,3.23-.12,2.29-2.1,2.48-3.8.23-2-.54-2.78-2.66-2.71a64.94,64.94,0,0,0-22.75,5.19c3.19-11.89,20-19.72,32.92-15.43,7.24,3.4,11.33,9.64,14.13,16.67,1.76,4.42,3.37,8.75,7,12,.06,14.8-12.35,27.22-27.82,27.73-5.07.17-10.15,0-15.23.06-20.33.08-34.89,13.87-36,34.1,0,.57-.08,1.14-.19,2.57a39,39,0,0,1-5.87-17.44c-1.32-12.22.87-23.75,8.29-33.8,1.8-2.43,1.17-3.65-.78-5.09Q115.91,89.71,118.11,87.47Z" transform="translate(-1.37 -1.6)"/><path class="cls-3" d="M64,270c-.33-12.66,4.94-22.05,16.29-27.87,1.55-.79,3-1.48,4.9-.57,19.64,9.57,40.76,12.84,62.25,14.25,3.58.24,4.29,1.49,4.06,4.61s0,6.38,0,9.56Z" transform="translate(-1.37 -1.6)"/><path class="cls-3" d="M173,270c0-3.48.28-7,.05-10.43-.2-2.92.92-3.55,3.65-3.75,7.51-.57,15-1.61,22.49-2.28,2.77-.24,3.87-1.33,3.24-4.06a4.7,4.7,0,0,1,6.08-1.09c.42,2.41,1.45,3.23,4.14,2.57,7.75-1.88,15.24-4.54,22.76-7.12C248.65,245.3,256.61,256,256.77,266c0,1.44,0,2.9-1,4.06Z" transform="translate(-1.37 -1.6)"/><path class="cls-4" d="M158.2,194.36c2.27-1.91,4.91-.67,7.3-.59,2.09.07,1.16,2.3,1.16,3.54.07,17.19,0,34.38.05,51.57,0,7.07.12,14.14.17,21.21-4.13.8-5.42-.75-5.38-5,.22-21.88.12-43.76.07-65.65,0-1.65.69-3.5-.82-4.94A1.79,1.79,0,0,1,158.2,194.36Z" transform="translate(-1.37 -1.6)"/><path class="cls-5" d="M158.2,194.36l2.55.09q0,35.6,0,71.17c0,1.92,1,4.77-2.78,4.44q0-19.51.07-39c-2.09-.73-4.76-.58-4.39-4.19.32-3.06,3-1.83,4.36-3Z" transform="translate(-1.37 -1.6)"/><path class="cls-6" d="M255.72,270c.91-14.67-7.8-21.87-20.3-26.13,4.52-4,8.83-2.76,13.19.39,8.78,6.36,12.86,14.93,12.42,25.72Z" transform="translate(-1.37 -1.6)"/><path class="cls-7" d="M179.12,204.27a7.1,7.1,0,0,1-1.85,1.07c-1.34.28-3.25,2.49-3.87.45-.56-1.84-1.64-4.66,1.53-6.39,14.11-7.68,19.36-18.82,17-35.13-.25-1.72-1.18-2.11-2.44-2.52-2.75-.91-5.5-1.82-8.24-2.76-1-.35-2.6-.4-2.26-2s1.89-.91,2.91-.94a84,84,0,0,1,8.69,0c2.57.17,2.79-1.17,2.77-3.18s0-3.82-2.89-3.5c-1.58.17-3.19,0-4.79,0-4.65.26-8.3-.14-11.88-4.58-6.21-7.73-18.21-6.61-24.12,1.55a6.44,6.44,0,0,1-6.43,3.06c-2.74-.19-5.53.15-8.26-.09-2.91-.27-3.29,1.08-3.32,3.56s.82,3.28,3.26,3.14c3-.19,6.09-.06,9.13,0,.82,0,1.88-.2,2.05,1,.14,1-.56,1.48-1.5,1.78-3,1-6,2-9.06,3-1.29.42-2.43.8-2.36,2.57.22,5.77-.55,11.61,1.09,17.29,2.12,7.33,6.37,13.21,13.27,16.37,4.28,2,4.33,4.66,3.55,8.26-17.53-4.8-32.12-23.55-32.25-41.47q-.08-9.13,0-18.27c.16-16.14,12.17-28.2,28.38-28.48,5.36-.1,10.73,0,16.09,0a32.16,32.16,0,0,0,19.51-6.33c2.86-2.11,5.4-2.39,8.38-.81,7.68,4.8,11,11.77,10.86,20.78-.19,11.55-.05,23.11-.05,34.67,0,15.18-7.62,26.21-19.19,35.06C181.59,202.34,180.06,202.92,179.12,204.27Z" transform="translate(-1.37 -1.6)"/><path class="cls-7" d="M158,223.89c-.77,1.5-3.47.69-3.47,3.6s2.83,2,3.5,3.55a8.55,8.55,0,0,0-.86-.14c-5.73-.41-5.73-.41-5.73,5.14,0,3.63-.07,7.25,0,10.87.05,1.75-.3,2.63-2.36,2.52-18.28-1-36.2-3.83-54.69-10.74,3-.69,4.8-1.16,6.63-1.52,12.51-2.42,25-4.89,37.54-7.19,2.83-.52,4.19-1.39,4-4.66-.37-4.9-.1-9.84-.1-15.21a35.5,35.5,0,0,0,5.35,2.2c3.21.71,3.82,2.61,3.73,5.61C151.28,224.3,151.44,224.31,158,223.89Z" transform="translate(-1.37 -1.6)"/><path class="cls-5" d="M173.08,177.05c-2.49-6.65-6.93-9.69-12.67-8.67s-8.94,5.56-9,12.52c0,3.76,0,7.52,0,12-6.87-3.69-10.45-9-11.51-16.11-.06-.43-.08-.87-.1-1.3-.4-8.11-.49-8.44,7.34-10.55,4.58-1.24,6.05-3.32,5.8-8-.37-6.82,3.68-10.43,10.39-10.27,4,2.23,4.65,6,4.7,10,.1,7.41-.56,7.21,6.91,9.73,5.72,1.92,6.47,3.1,6.14,9.18a23.89,23.89,0,0,1-4.85,13.2c-.51.68-1.17,1.5-2.1,1.25-1.09-.3-.69-1.4-.74-2.2C173.2,184.22,173.8,180.61,173.08,177.05Z" transform="translate(-1.37 -1.6)"/><path class="cls-8" d="M208.52,248.43l-6.08,1.09c-.49-2.33-1.56-3.05-4.17-2.55a180.6,180.6,0,0,1-21.54,2.43c-2.85.2-3.74-.49-3.68-3.45.19-9.1.31-18.23,0-27.33-.16-4.08,1.31-5.82,5.1-6.12,1.14,4.68.39,9.43.38,14.14,0,3.59,1.38,5.15,4.84,5.76,11.21,2,22.32,4.53,33.53,6.53,1.74.32,4.27-.31,4.85,2.5a37.21,37.21,0,0,1-10.33,3C208.75,244.92,208,246,208.52,248.43Z" transform="translate(-1.37 -1.6)"/><path class="cls-9" d="M179.12,204.27c.67-2.31,2.88-3.07,4.45-4.49,10.69-9.62,18.08-20.72,17.36-36-.5-10.52-.35-21.1,0-31.64a23.91,23.91,0,0,0-7.77-18.93,26.82,26.82,0,0,1-1.93-2.31c8.52,2.46,14.87,9.59,15.23,18.92.5,12.85.93,25.8-.15,38.57C204.84,185.61,194.07,196.74,179.12,204.27Z" transform="translate(-1.37 -1.6)"/><path class="cls-6" d="M197.63,89.12c.17-1.41.35-2.82.53-4.31,19.69,9.59,28.26,44.87,15.06,63.21V130.93c.31-14.23-2-27.55-13.09-37.85A8.38,8.38,0,0,1,197.63,89.12Z" transform="translate(-1.37 -1.6)"/><path class="cls-10" d="M221.71,241.43,196,236.18c-5.36-1.09-10.71-2.22-16.08-3.31-1.31-.26-2.7-.4-2.6-2.22.33-6.05-.92-12.16.76-18.15a9.73,9.73,0,0,1,5-2.12c0,5.18.19,10.21-.08,15.21-.16,3,1,3.92,3.77,4.42,12.37,2.27,24.71,4.72,37.06,7.12,1.62.32,3.21.77,5.75,1.38A19.9,19.9,0,0,1,221.71,241.43Z" transform="translate(-1.37 -1.6)"/><path class="cls-3" d="M197.63,89.12c12.47,10.21,17.46,23.51,16.24,39.35a14.65,14.65,0,0,1-.65,2.46c-1.1-13.82-8.44-22.72-21.8-27.25A45.29,45.29,0,0,0,197.63,89.12Z" transform="translate(-1.37 -1.6)"/><path class="cls-4" d="M173.08,177.05c1.81,3.86.12,8,1,11.84,4.14-3.31,7.48-14,5.75-18.57a3,3,0,0,0-1.85-1.67c-.8-.34-1.64-.57-2.46-.85-8.48-2.88-8.6-2.88-8.58-11.6,0-3.76-1.89-6.58-3.57-9.59,5.9.8,9.23,4.08,8.74,10.15-.4,5.11,1.41,7.41,6.19,8.16a33.37,33.37,0,0,1,4.93,1.61,2.51,2.51,0,0,1,2.08,1.88c2,7.87-2.52,19.14-9.36,23.27-2.24,1.36-3,1-2.91-1.62C173.13,185.73,173.07,181.39,173.08,177.05Z" transform="translate(-1.37 -1.6)"/><path class="cls-6" d="M191.3,83.82a12.15,12.15,0,0,1-6.84-8.64c-2.1-8.37-7.77-14.6-14.27-20.05C182.82,57.62,192.23,70.41,191.3,83.82Z" transform="translate(-1.37 -1.6)"/><path class="cls-11" d="M112.18,165.55c.12,1.49.13,2.51.31,3.5.3,1.65-.39,2.17-1.89,1.73a9.56,9.56,0,0,1-6.81-6.67c-1.07-3.48-.14-6.53,2.13-9.27.91-1.1,1.58-.81,2.29.26C110.42,158.43,113.5,161.42,112.18,165.55Z" transform="translate(-1.37 -1.6)"/><path class="cls-12" d="M221.68,161.14a9.27,9.27,0,0,1-2.62,6.84c-1.5,1.56-3.43,3.44-5.51,2.6-1.52-.61-.17-3.1-.47-4.71-.68-3.74,1.3-6.46,3.16-9.44,2.06-3.3,3.09-1.87,4.3.35A8.26,8.26,0,0,1,221.68,161.14Z" transform="translate(-1.37 -1.6)"/><path class="cls-4" d="M159.64,175.9c4.18-2,6.71-.67,7.09,3.69,0,.29,0,.58,0,.87.24,7.29-.87,8.09-8.41,6.11C161.93,183.41,160.21,179.58,159.64,175.9Z" transform="translate(-1.37 -1.6)"/><path class="cls-5" d="M159.64,175.9c3.61,2.52,1.65,6.2,1.78,9.37.08,1.76-2,.91-3.09,1.3C158.31,183,156.66,179.15,159.64,175.9Z" transform="translate(-1.37 -1.6)"/></g><circle class="cls-13" cx="158.4" cy="158.4" r="156.4"/></svg>