<svg id="Layer_1" data-name="Layer 1" xmlns="http://www.w3.org/2000/svg" xmlns:xlink="http://www.w3.org/1999/xlink" viewBox="0 0 316.81 316.81"><defs><style>.cls-1{fill:none;stroke-miterlimit:10;stroke-width:4px;stroke:url(#linear-gradient);}.cls-2{fill:#0072ba;}.cls-3{fill:#4fc3a0;}</style><linearGradient id="linear-gradient" y1="158.4" x2="316.81" y2="158.4" gradientUnits="userSpaceOnUse"><stop offset="0" stop-color="#0072ba"/><stop offset="1" stop-color="#4fc3a0"/></linearGradient></defs><circle class="cls-1" cx="158.4" cy="158.4" r="156.4"/><path class="cls-2" d="M155.5,282.67c-13.64,0-27.29-.13-40.93.08-4.21.07-5.67-1.41-5.4-5.51a116.56,116.56,0,0,0,0-12c-.12-3.35,1.08-4.77,4.62-4.75,24.8.1,49.59-.06,74.38.12,9.89.07,17.28,11.68,13.55,20.62-.92,2.2-2.81,1.36-4.31,1.37C183.46,282.7,169.48,282.67,155.5,282.67Z" transform="translate(-1.37 -1.6)"/><path class="cls-3" d="M267.29,192.8c-1.52,2.55-.15,7.06-4.65,7.65-2.17.29-3.43-1.69-2.7-3.65,1-2.84.14-7.19,4.49-7.85C266.5,188.64,267.39,190.58,267.29,192.8Z" transform="translate(-1.37 -1.6)"/><path class="cls-3" d="M155,58.45c-2.33.16-5.17.65-5.2-2.81s2.91-3,5.18-3.14c1-.06,2,0,3-.08,2-.1,3.44.81,3.55,2.69.13,2.16-1.42,3.22-3.54,3.33C157,58.49,156,58.45,155,58.45Z" transform="translate(-1.37 -1.6)"/><path class="cls-3" d="M129.91,62.94c-2.25.05-4-.88-3.71-2.7.79-4.57,5.19-3.68,8.25-4.59a2.49,2.49,0,0,1,3.3,2.64C137.08,63.11,132.31,61.37,129.91,62.94Z" transform="translate(-1.37 -1.6)"/><path class="cls-3" d="M50.07,148.83c1.19-2.17-.36-6.6,4.14-6.91,2.38-.17,3.4,2.11,2.58,4.26-1,2.63.47,7-4.11,7.31C50.14,153.66,49.68,151.43,50.07,148.83Z" transform="translate(-1.37 -1.6)"/><path class="cls-3" d="M238.27,241.59a2.8,2.8,0,0,1-2.46-3.4c.2-2,5.4-7,7.05-6.87a2.81,2.81,0,0,1,2.76,2.88C245.73,236.28,240.39,241.74,238.27,241.59Z" transform="translate(-1.37 -1.6)"/><path class="cls-3" d="M80.08,240.55c-.16,1.71-1.38,2.66-3.25,2.64-1.68,0-6.53-5.83-6.37-7.63a2.85,2.85,0,0,1,3.25-2.91C75.42,232.73,80.11,238.43,80.08,240.55Z" transform="translate(-1.37 -1.6)"/><path class="cls-3" d="M220.4,257.29a2.93,2.93,0,0,1-2.71-3.3c.09-1.59,6-6.39,7.72-6.2a2.94,2.94,0,0,1,2.9,3.29C228.25,252.77,222.42,257.35,220.4,257.29Z" transform="translate(-1.37 -1.6)"/><path class="cls-3" d="M97.55,256.78c-.37,1.6-1.18,2.75-3,2.79-2.29.06-7.89-5.12-7.57-7A2.89,2.89,0,0,1,90.16,250C92.1,250,97.64,255.19,97.55,256.78Z" transform="translate(-1.37 -1.6)"/><path class="cls-3" d="M178.57,53.66c2.17.91,6.26-.48,6.72,3.75.27,2.43-1.88,3.6-4.13,2.8-2.67-.94-7.15.78-7.4-4C173.61,53.47,176,53.36,178.57,53.66Z" transform="translate(-1.37 -1.6)"/><path class="cls-3" d="M263,145.88c-.22-2.7.5-4.58,2.73-4.39,4.63.4,3.13,4.63,3.95,7.31.65,2.15-.26,4.44-2.66,4.26C262,152.69,264.77,147.68,263,145.88Z" transform="translate(-1.37 -1.6)"/><path class="cls-3" d="M54.22,171.37c-.26,1.95.58,3.87-1,5.33a2.65,2.65,0,0,1-3.95-.09c-1.64-1.5-1.64-8.82,0-10.22a2.7,2.7,0,0,1,4,.07C54.77,167.93,53.82,169.89,54.22,171.37Z" transform="translate(-1.37 -1.6)"/><path class="cls-3" d="M252.89,222.46c-1.66-.21-3.39-1.4-2.77-3.07,1.13-3.06,1.66-7,5.62-8,1.8-.43,3,1,3.06,3C258.83,216.73,254.82,222.35,252.89,222.46Z" transform="translate(-1.37 -1.6)"/><path class="cls-3" d="M270.7,171.65a20.42,20.42,0,0,1-.63,3.49,2.5,2.5,0,0,1-3.57,1.68c-3.63-1.68-1.44-5-1.74-7.53-.22-2,.4-3.73,2.74-4a2.72,2.72,0,0,1,3.17,2.46A27.45,27.45,0,0,1,270.7,171.65Z" transform="translate(-1.37 -1.6)"/><path class="cls-3" d="M50.68,193.51c-.11-2.43.64-4.21,2.62-3.95,5,.64,3.41,5.36,4.49,8.32A2.49,2.49,0,0,1,55,201.06C50.34,200.27,52.07,195.73,50.68,193.51Z" transform="translate(-1.37 -1.6)"/><path class="cls-3" d="M66.76,219.89c-.12,2.15-1.22,3.79-3,3.43-4.07-.83-4.44-4.87-5.56-7.94A2.43,2.43,0,0,1,61,212.25C65.32,212.93,64.76,217.51,66.76,219.89Z" transform="translate(-1.37 -1.6)"/><path class="cls-2" d="M108.71,62.26a40.34,40.34,0,0,0-48-1A40.58,40.58,0,0,0,84,135.1c4.34-.08,8.86-.14,12.71-2.12a57.77,57.77,0,0,0,25-24.92C129.64,92.31,122.87,73.1,108.71,62.26Zm-41.5,16.1a32.85,32.85,0,0,1,0-4.44c0-2.06.8-3.7,3-3.77s3.09,1.5,3.06,3.61c0,1.48,0,3,0,4.85C72.36,81,75.27,86.05,70.07,86,65.54,85.9,67.6,81.16,67.21,78.36Zm33.53,25.88a16.85,16.85,0,0,1-33.44-.34c-.2-2.17,0-4.19,2.65-4.52,2.33-.3,2.91,1.32,3.35,3.37,1.48,6.94,5.12,10.19,10.92,10.11,5.6-.08,9.29-3.42,10.54-10,.44-2.3,1.12-4,3.71-3.47S101,102.16,100.74,104.24ZM97.64,86c-4.54-.13-2.33-4.88-2.75-7.67a33.63,33.63,0,0,1,0-4.92c0-2,1.08-3.2,3-3.24s2.94,1.27,3,3.17c.06,1.65,0,3.29,0,5.39C100.08,81,102.83,86.12,97.64,86Z" transform="translate(-1.37 -1.6)"/><path class="cls-2" d="M248.13,57.46c-15.67-6.73-30.52-4.58-43.24,6.62C192,75.42,188.21,90,192.82,106.61a9.72,9.72,0,0,0,4.28,5.78,59.1,59.1,0,0,1,16.46,16.48,11,11,0,0,0,6.68,4.67,40.62,40.62,0,0,0,51.93-39A40,40,0,0,0,248.13,57.46Zm-30.52,12.9c5.28-.18,2.43,5,3.37,7.76-.84,2.8,1.69,7.69-2.9,7.84-5.21.16-3-4.95-3.1-7.81S213.06,70.51,217.61,70.36Zm28.12,48.41c-2.4.32-2.94-1.42-3.4-3.38-1.63-7-5.16-10.22-10.87-10.13s-8.9,3.22-10.56,10.45c-.44,1.87-1.19,3.19-3.2,3.07-2.35-.14-2.84-1.79-2.84-3.87,0-8.29,8-15.75,16.9-15.67,8.56.07,15.85,6.69,16.52,15C248.45,116.33,248.42,118.4,245.73,118.77Zm-.13-32.83c-5.11.08-3-5-3.07-7.84s-1.85-7.66,2.7-7.77c5.15-.11,2.49,5,3.38,7.86C247.79,81,250.24,85.87,245.6,85.94Z" transform="translate(-1.37 -1.6)"/><path class="cls-3" d="M227.72,189.62c-5.91-8.62-9.31-17.81-8.28-28.39a11.14,11.14,0,0,0-.35-2.46c-3.68-27.06-25.54-48.77-52.38-52a60.84,60.84,0,0,0-64.1,37.45c-10.72,26-3.15,54.06,19.29,70.89a7.25,7.25,0,0,1,3.17,6.7c-.13,9.66.09,19.32-.13,29-.07,3.14.84,4,3.9,3.86,6.65-.22,13.31-.07,20-.07h17c6.78,0,6.78,0,6.94-6.69s3.48-10.08,10.21-10.19c5-.08,10,0,15,0,9.84-.15,16.12-6.37,16.38-16.28.12-4.83,0-9.66,0-14.49,0-9.53.43-10,9.85-10.88C228.49,195.6,230.14,193.15,227.72,189.62Zm-70.13,24.43a48.33,48.33,0,1,1,48.54-48.49A48.34,48.34,0,0,1,157.59,214.05Z" transform="translate(-1.37 -1.6)"/><path class="cls-3" d="M174.14,161.63c-12.2.07-12.27,0-12.27-12.42,0-2.9-.21-4.45-3.88-4.48s-4.48,1.48-4.15,4.67a54.38,54.38,0,0,1,0,6c0,6.18-.15,6.3-6.56,6.31h-2.5c-1,0-2,.05-3,0-2.79-.17-4.89-.38-5,3.86-.09,4.53,2.25,4.11,5.18,4.12,13.57.05,11.75-1.62,11.83,12,0,2.69-.55,5.08,3.8,5,3.72-.09,4.26-1.36,4.23-4.63-.09-12.23,0-12.28,12.41-12.32,2.78,0,4.55,0,4.51-3.82S177.38,161.61,174.14,161.63Z" transform="translate(-1.37 -1.6)"/><path class="cls-2" d="M158.14,123.4a42.32,42.32,0,1,0,42,42.84A42.19,42.19,0,0,0,158.14,123.4Zm21.65,52.32c-3.92.08-9.13-1.86-11.39.87-1.9,2.29-.64,7.31-.54,11.11.08,3.37-1.27,5-4.7,4.8-1.82-.1-3.66,0-5.49,0-10.88.07-9.79.59-9.79-10.07,0-6.76,0-6.77-6.82-6.76-10.7,0-10,1-10-9.86s-.86-10.11,10.33-10.09c6.51,0,6.5,0,6.52-6.53,0-10.71-1.36-10.38,10.11-10.3h.5c9.33,0,9.33,0,9.33,9.1,0,7.73,0,7.73,7.78,7.73,1.5,0,3,.06,4.49,0,3.13-.15,4.64,1.23,4.58,4.41-.07,3.66-.1,7.32,0,11C184.78,174.55,183.1,175.65,179.79,175.72Z" transform="translate(-1.37 -1.6)"/></svg>