<svg id="Layer_1" data-name="Layer 1" xmlns="http://www.w3.org/2000/svg" xmlns:xlink="http://www.w3.org/1999/xlink" viewBox="0 0 316.81 316.81"><defs><style>.cls-1{fill:#0072ba;}.cls-2{fill:#4fc3a0;}.cls-3{fill:none;stroke-miterlimit:10;stroke-width:4px;stroke:url(#linear-gradient);}</style><linearGradient id="linear-gradient" y1="158.4" x2="316.81" y2="158.4" gradientUnits="userSpaceOnUse"><stop offset="0" stop-color="#0072ba"/><stop offset="1" stop-color="#4fc3a0"/></linearGradient></defs><path class="cls-1" d="M120.83,200.27c2-20.11,2.22-18.17,20-19.42v-5.91c-5.27-1.15-11.81-.77-15.32-3.86s-3.78-9.54-6-16c-3.75.69-9.1.94-13.87,2.73-7.62,2.85-14.77,1.86-19.46-3.95a15.32,15.32,0,0,1-.21-19c4.68-6.06,12-7.15,19.83-4.12,4.62,1.77,9.83,2,14,2.81,2-6.28,2.1-12.87,5.46-15.93s10-2.81,15.66-4.1v-6.34c-12.76,1.32-21-2.93-19.07-19.14-6.1,1.16-11.56,1.5-16.49,3.29C97.81,94,90.47,92.81,85.93,86.89a15.35,15.35,0,0,1,.26-19c4.58-5.66,11.73-6.75,19-4.1,5,1.79,10.41,2.17,15.37,3.13a16,16,0,0,0,.85-2.21c1.16-14.67,3.3-16.65,18-16.65h52.48c11.12,0,14.82,3.69,15.14,15,0,.83.13,1.65.32,3.94,5.41-1,10.9-1.28,15.81-3.09,7.5-2.76,14.8-1.63,19.38,4.24a15.41,15.41,0,0,1-.12,19c-4.55,5.69-11.72,6.87-19,4.27-5-1.78-10.41-2.2-15.64-3.23-3,17.6-3,17.6-20,19.3v5.83c5.22,1.51,11.37,1.65,14.84,4.77s4.06,9.15,6.52,15.44c4-.83,9.38-1.34,14.33-3.16,7.12-2.61,14.48-1.35,19,4.34a15.36,15.36,0,0,1,0,19c-4.5,5.73-11.83,7-19,4.42-5-1.81-10.39-2.33-16.65-3.64,1.73,15.83-5.74,21-19.21,19.18v7c18.25,3.49,18.25,3.49,19.69,18.4,5.55.62,10.92.9,16.33-1.84a14.89,14.89,0,0,1,18.84,4.25,15.39,15.39,0,0,1-.1,19c-4.55,5.71-11.72,6.88-19,4.24-5-1.8-10.4-2.24-15.64-3.29-3.11,17.55-3.11,17.55-20.4,19.36,0,3,.07,6.07,0,9.15-.17,6.61-3.68,10.22-10.24,10.31-8.5.12-17,.1-25.49,0-6.91-.08-10.4-3.62-10.57-10.5-.06-2.83,0-5.65,0-9.41-13.14,1.61-22.64-1.36-18.94-19.13-6.45,1.24-11.9,1.59-16.82,3.39-7.53,2.77-14.81,1.6-19.38-4.29a15.35,15.35,0,0,1,.15-19c4.58-5.69,11.75-6.86,19-4.26C110.07,198.83,115.51,199.24,120.83,200.27ZM164.46,55.12c-9.64,0-19.29,0-28.94,0-5.47,0-6.9,1.35-6.93,6.67q-.1,15.72,0,31.44c0,5.36,1.49,6.82,6.83,6.83,19.3,0,38.59,0,57.88.05,4.6,0,6.77-1.88,6.74-6.52q-.1-16,0-31.93c0-4.58-1.94-6.67-6.63-6.6C183.76,55.21,174.11,55.12,164.46,55.12Zm-.67,111.63c9.83,0,19.66,0,29.49,0,3.86,0,6.66-1.21,6.69-5.55.08-11.33.21-22.67-.16-34-.06-1.81-2.43-4.79-4.09-5.07-4-.68-8.45-1.63-12,2.47-1.28,1.51-4.16,2.23-6.33,2.29-8.83.25-17.66.2-26.49,0-1.89,0-4.48-.54-5.5-1.82-3.15-4-7.27-3.15-11.34-3.4s-5.68,1.17-5.6,5.4c.21,11.5.19,23,0,34.49-.06,4,1.46,5.27,5.3,5.21C143.79,166.64,153.79,166.75,163.79,166.75Zm0,66.55c9.65,0,19.3,0,29,0,6,0,7.24-1.27,7.27-7.38,0-9.15,0-18.3,0-27.45,0-9.63-1-10.62-10.62-10-1.45.08-2.86,1.13-4.27,1.79-2.34,1.09-4.62,3.1-7,3.19-9.3.37-18.63.22-27.95.07-1.57,0-3.8-.45-4.57-1.53-3.24-4.48-7.8-3.42-12.17-3.64-3.73-.18-5,1.44-4.93,5,.13,11.64.16,23.29,0,34.94-.06,4,1.53,5.16,5.34,5.09C143.82,233.17,153.81,233.3,163.79,233.3ZM148.15,107.39a62.56,62.56,0,0,1,0,6.59c-.5,4.47,1.08,6.41,5.82,6.1,5.12-.35,10.28,0,15.43-.1,11.6-.23,11.4,2.57,10.88-11.66,0-.27-.31-.54-.56-.93Zm0,133.2c0,3.34-.39,6.22.15,8.92.29,1.4,2.17,3.49,3.4,3.53,8.44.31,16.91.27,25.35,0a4.35,4.35,0,0,0,3.16-2.77,72.9,72.9,0,0,0,.15-9.71Zm0-66.57a60.22,60.22,0,0,1,0,6.5c-.54,4.48,1.06,6.39,5.79,6.09,5.3-.34,10.63-.08,16-.08,11.53,0,11.53,0,10.36-11.65,0-.28-.39-.52-.67-.86ZM121.24,74.6c-6.76-1.54-13.07-2.6-19.14-4.47-4.16-1.27-7.61-1.13-10.38,2.22a7.63,7.63,0,0,0-.23,10.13c2.78,3.64,6.37,3.94,10.72,2.45s8.91-2.13,13.42-2.94a34.64,34.64,0,0,1,5.61,0Zm86.12,5.73c7.51,1.88,14.4,4.12,21.47,5.1a10.37,10.37,0,0,0,8.29-3.6c1.42-2,1.43-6.57,0-8.53-1.57-2.17-5.65-4-8.31-3.63-7.06,1-13.95,3.25-21.46,5.15ZM121.29,208.14c-7.6-1.89-14.41-3.61-21.23-5.26-3.85-.92-7.53.23-8.8,3.78a13,13,0,0,0,.48,9.18c1.65,3.39,5.45,4.08,9.18,2.85,3.29-1.09,6.47-2.71,9.84-3.29s6.87-.12,10.53-.12Zm86,5.67c6.81,1.55,13.11,2.64,19.18,4.5,4.15,1.27,7.61,1.12,10.37-2.23a7.63,7.63,0,0,0,.2-10.13c-2.78-3.64-6.4-3.89-10.73-2.42a91.46,91.46,0,0,1-13.41,2.92,33.54,33.54,0,0,1-5.61.05Zm-86-72.53c-6.76-1.48-12.93-2.4-18.82-4.25-4.27-1.35-7.88-1.56-10.82,2-2.61,3.16-2.62,6.75-.24,10.12s6.42,3.87,11.17,2.21a76.5,76.5,0,0,1,12.44-2.79,37.35,37.35,0,0,1,6.27-.06Zm85.88,5.94c6.72,1.45,12.9,2.38,18.79,4.2,4.25,1.32,7.87,1.58,10.82-2,2.62-3.16,2.64-6.74.27-10.11-2.47-3.54-6.39-3.91-11.15-2.22a76.45,76.45,0,0,1-12.43,2.82,37.72,37.72,0,0,1-6.3.06Z" transform="translate(-1.19 -1.97)"/><path class="cls-2" d="M51.82,175.67c-.54-1.22-1.56-2.53-1.6-3.88s.6-3.25,1.53-3.71q9.33-4.59,19-8.52c.92-.37,3,.58,3.64,1.53s.32,3.5-.34,3.85C67.3,168.41,60.43,171.57,51.82,175.67Z" transform="translate(-1.19 -1.97)"/><path class="cls-2" d="M257.13,129.62c-1.14-.93-2.9-1.68-3.09-2.71-.24-1.29.41-3.63,1.38-4.11,6.07-3,12.29-5.83,18.6-8.34,1-.41,3.25.65,4,1.69.56.75,0,3.44-.74,3.84C270.81,123.31,264.17,126.31,257.13,129.62Z" transform="translate(-1.19 -1.97)"/><path class="cls-2" d="M256.62,158.93c2.37,1,4.22,1.69,6,2.49a140,140,0,0,1,13,6c1.37.79,1.76,3.28,2.6,5-1.72.47-3.76,1.77-5.1,1.26A176.06,176.06,0,0,1,256,166c-1.19-.61-2.08-2.8-2.12-4.28C253.86,160.79,255.69,159.82,256.62,158.93Z" transform="translate(-1.19 -1.97)"/><path class="cls-2" d="M76.58,126.64c-3,1-5.14,2.54-6.56,2a166.89,166.89,0,0,1-17.71-7.92c-1.13-.58-1.37-2.9-2-4.43,1.66-.58,3.67-2.06,4.93-1.58,5.89,2.22,11.62,4.91,17.31,7.63C73.71,122.92,74.47,124.36,76.58,126.64Z" transform="translate(-1.19 -1.97)"/><path class="cls-2" d="M61.41,147.73c-3.14,0-6.34.33-9.42-.15-1.37-.21-2.48-2.06-3.71-3.17,1.28-1.2,2.51-3.37,3.87-3.45A162.73,162.73,0,0,1,71,141c1.39.09,2.66,2.2,4,3.38-1.38,1.15-2.64,3-4.18,3.29-3.06.52-6.27.15-9.42.15Z" transform="translate(-1.19 -1.97)"/><path class="cls-2" d="M267.09,140.8c3.15,0,6.34-.31,9.42.15,1.38.21,2.52,2,3.77,3.05-1.26,1.25-2.46,3.49-3.79,3.57a156.15,156.15,0,0,1-18.86,0c-1.42-.08-2.72-2.2-4.07-3.38,1.36-1.15,2.6-3,4.11-3.28,3.06-.52,6.27-.15,9.42-.15Z" transform="translate(-1.19 -1.97)"/><path class="cls-2" d="M164.46,55.12c9.65,0,19.3.09,28.94,0,4.69-.07,6.66,2,6.63,6.6q-.1,16,0,31.93c0,4.64-2.14,6.54-6.74,6.52-19.29-.09-38.58,0-57.88-.05-5.34,0-6.79-1.47-6.83-6.83q-.09-15.72,0-31.44c0-5.32,1.46-6.65,6.93-6.67C145.17,55.09,154.82,55.12,164.46,55.12Z" transform="translate(-1.19 -1.97)"/><path class="cls-2" d="M163.79,166.75c-10,0-20-.11-30,.06-3.84.06-5.36-1.24-5.3-5.21.18-11.49.2-23,0-34.49-.08-4.23,1.56-5.64,5.6-5.4s8.19-.57,11.34,3.4c1,1.28,3.61,1.79,5.5,1.82,8.83.19,17.66.24,26.49,0,2.17-.06,5.05-.78,6.33-2.29,3.52-4.1,7.93-3.15,12-2.47,1.66.28,4,3.26,4.09,5.07.37,11.32.24,22.66.16,34,0,4.34-2.83,5.57-6.69,5.55C183.45,166.72,173.62,166.75,163.79,166.75Z" transform="translate(-1.19 -1.97)"/><path class="cls-2" d="M163.79,233.3c-10,0-20-.13-29.95.07-3.81.07-5.4-1.09-5.34-5.09.18-11.65.15-23.3,0-34.94,0-3.6,1.2-5.22,4.93-5,4.37.22,8.93-.84,12.17,3.64.77,1.08,3,1.51,4.57,1.53,9.32.15,18.65.3,27.95-.07,2.37-.09,4.65-2.1,7-3.19,1.41-.66,2.82-1.71,4.27-1.79,9.64-.58,10.62.41,10.62,10,0,9.15,0,18.3,0,27.45,0,6.11-1.27,7.36-7.27,7.38C183.09,233.33,173.44,233.3,163.79,233.3Z" transform="translate(-1.19 -1.97)"/><path class="cls-2" d="M148.15,107.39h31.54c.25.39.55.66.56.93.52,14.23.72,11.43-10.88,11.66-5.15.1-10.31-.25-15.43.1-4.74.31-6.32-1.63-5.82-6.1A62.56,62.56,0,0,0,148.15,107.39Z" transform="translate(-1.19 -1.97)"/><path class="cls-2" d="M148.17,240.59h32.21a72.9,72.9,0,0,1-.15,9.71,4.35,4.35,0,0,1-3.16,2.77c-8.44.24-16.91.28-25.35,0-1.23,0-3.11-2.13-3.4-3.53C147.78,246.81,148.17,243.93,148.17,240.59Z" transform="translate(-1.19 -1.97)"/><path class="cls-2" d="M148.15,174h31.4c.28.34.64.58.67.86,1.17,11.65,1.17,11.65-10.36,11.65-5.32,0-10.65-.26-16,.08-4.73.3-6.33-1.61-5.79-6.09A60.22,60.22,0,0,0,148.15,174Z" transform="translate(-1.19 -1.97)"/><path class="cls-2" d="M121.24,74.6v7.34a34.64,34.64,0,0,0-5.61,0c-4.51.81-9.12,1.46-13.42,2.94s-7.94,1.19-10.72-2.45a7.63,7.63,0,0,1,.23-10.13c2.77-3.35,6.22-3.49,10.38-2.22C108.17,72,114.48,73.06,121.24,74.6Z" transform="translate(-1.19 -1.97)"/><path class="cls-2" d="M207.36,80.33V74.82c7.51-1.9,14.4-4.15,21.46-5.15,2.66-.37,6.74,1.46,8.31,3.63,1.42,2,1.41,6.57,0,8.53a10.37,10.37,0,0,1-8.29,3.6C221.76,84.45,214.87,82.21,207.36,80.33Z" transform="translate(-1.19 -1.97)"/><path class="cls-2" d="M121.29,208.14v7.14c-3.66,0-7.18-.45-10.53.12s-6.55,2.2-9.84,3.29c-3.73,1.23-7.53.54-9.18-2.85a13,13,0,0,1-.48-9.18c1.27-3.55,4.95-4.7,8.8-3.78C106.88,204.53,113.69,206.25,121.29,208.14Z" transform="translate(-1.19 -1.97)"/><path class="cls-2" d="M207.31,213.81V206.5a33.54,33.54,0,0,0,5.61-.05,91.46,91.46,0,0,0,13.41-2.92c4.33-1.47,7.95-1.22,10.73,2.42a7.63,7.63,0,0,1-.2,10.13c-2.76,3.35-6.22,3.5-10.37,2.23C220.42,216.45,214.12,215.36,207.31,213.81Z" transform="translate(-1.19 -1.97)"/><path class="cls-2" d="M121.35,141.28v7.22a37.35,37.35,0,0,0-6.27.06,76.5,76.5,0,0,0-12.44,2.79c-4.75,1.66-8.71,1.29-11.17-2.21s-2.37-7,.24-10.12c2.94-3.55,6.55-3.34,10.82-2C108.42,138.88,114.59,139.8,121.35,141.28Z" transform="translate(-1.19 -1.97)"/><path class="cls-2" d="M207.23,147.22V140a37.72,37.72,0,0,0,6.3-.06A76.45,76.45,0,0,0,226,137.1c4.76-1.69,8.68-1.32,11.15,2.22,2.37,3.37,2.35,7-.27,10.11-3,3.57-6.57,3.31-10.82,2C220.13,149.6,214,148.67,207.23,147.22Z" transform="translate(-1.19 -1.97)"/><circle class="cls-3" cx="158.4" cy="158.4" r="156.4"/></svg>