<svg id="Layer_1" data-name="Layer 1" xmlns="http://www.w3.org/2000/svg" xmlns:xlink="http://www.w3.org/1999/xlink" viewBox="0 0 312.8 312.8"><defs><style>.cls-1{fill:none;stroke-miterlimit:10;stroke-width:3.95px;stroke:url(#linear-gradient);}.cls-2{fill:#0072ba;}.cls-3{fill:#4fc3a0;}</style><linearGradient id="linear-gradient" x1="2" y1="159.6" x2="314.8" y2="159.6" gradientTransform="matrix(1, 0, 0, -1, -2, 316)" gradientUnits="userSpaceOnUse"><stop offset="0" stop-color="#0072ba"/><stop offset="1" stop-color="#4fc3a0"/></linearGradient></defs><circle class="cls-1" cx="156.4" cy="156.4" r="154.43"/><path class="cls-2" d="M88.17,90.41l.32-6.76h78.8c.15,2.3.3,4.49.37,5.71,5.6,2.79,11.06,4.73,15.59,8,8.25,5.87,12.89,14.31,13,24.51.22,27.28.08,54.55.08,81.83a15.51,15.51,0,0,1-.23,1.68h-6.78V134.13H67.06v86h84c-8.38,15.92-6.45,29.91,6.14,42.72a21.73,21.73,0,0,1-3,.45q-41.14,0-82.29,0c-8,0-12.33-4.27-12.34-12.16q0-64.06,0-128.13A32.92,32.92,0,0,1,83.87,91.51C85.16,91.15,86.48,90.84,88.17,90.41Z" transform="translate(-2 -2)"/><path class="cls-3" d="M127.92,47.38c12.74,0,25.48,0,38.21,0,8,0,12.11,4.25,12.19,12.24,0,1.95.08,3.9,0,5.85-.32,6.08-4.54,10.61-10.58,10.64-26.53.12-53,0-79.57,0a9.88,9.88,0,0,1-2.65-.39C78.91,73.9,76.24,67.49,77.61,57c.74-5.62,5.13-9.5,11.2-9.55C101.85,47.32,114.88,47.38,127.92,47.38Z" transform="translate(-2 -2)"/><path class="cls-3" d="M203.42,212.9v49.83a8.42,8.42,0,0,1-2.06.52c-7.93,0-15.86.2-23.79,0a25.15,25.15,0,0,1,0-50.27C186,212.72,194.53,212.9,203.42,212.9Z" transform="translate(-2 -2)"/><path class="cls-2" d="M211,213c9.29,0,18.28-.43,27.2.11,12.9.77,22.87,12.05,22.87,25s-10,24.21-22.88,25c-8.92.54-17.91.1-27.19.1Z" transform="translate(-2 -2)"/><path class="cls-3" d="M117.12,187.72c-4.79,0-9,0-13.13,0-3.38,0-5-1.5-4.89-4.9.08-4,0-8.09,0-12.13,0-3.2,1.55-4.64,4.7-4.6,4.19,0,8.38,0,13.31,0,0-3.85,0-7.52,0-11.19,0-6.39.43-6.79,7-6.81h7.64c6.56,0,7,.41,7,6.8,0,3.56,0,7.12,0,11.2,4.56,0,8.71.08,12.85,0,3.6-.1,5.26,1.45,5.16,5.09-.11,4,0,8.08,0,12.13,0,2.95-1.52,4.4-4.44,4.41H138.74c0,4.34-.13,8.33,0,12.32s-1.35,5.89-5.48,5.7c-3.59-.17-7.2-.14-10.79,0-3.78.14-5.55-1.42-5.42-5.3S117.12,192.39,117.12,187.72Z" transform="translate(-2 -2)"/></svg>