<svg id="Layer_1" data-name="Layer 1" xmlns="http://www.w3.org/2000/svg" xmlns:xlink="http://www.w3.org/1999/xlink" viewBox="0 0 316.81 316.81"><defs><style>.cls-1{fill:none;stroke-miterlimit:10;stroke-width:4px;stroke:url(#linear-gradient);}.cls-2{fill:#0072ba;}.cls-3{fill:#4fc3a0;}</style><linearGradient id="linear-gradient" y1="158.4" x2="316.81" y2="158.4" gradientUnits="userSpaceOnUse"><stop offset="0" stop-color="#0072ba"/><stop offset="1" stop-color="#4fc3a0"/></linearGradient></defs><circle class="cls-1" cx="158.4" cy="158.4" r="156.4"/><path class="cls-2" d="M243.33,153c-2.14,4.39-3.6,8-5.61,11.34-3.09,5.11-6.49,10-9.87,15a47.15,47.15,0,0,0-8.58,28.52c.21,8.52.53,17.2-.74,25.57C215.06,256.2,196,271.76,173,271.62c-2.84,0-3.83-.84-4.37-3.66-3.25-17.07-6.73-34.08-10.15-51.11-1.25-6.25-4.71-9.56-9.76-9.4-4.53.14-7.87,3.15-8.91,8.28q-5.16,25.53-10.25,51.09c-.3,1.5-.68,3-1,4.41-24.64,2.66-47.25-15.55-49.44-40a224.46,224.46,0,0,1-.36-23.92,45.27,45.27,0,0,0-7.94-27c-3.35-4.95-6.78-9.86-9.93-14.94-10.49-16.9-11.37-34.51-2.19-52,11.35-21.66,28.56-34.88,54.19-34.12a55,55,0,0,1,32.73,12c1.11.86,2.22,1.7,2.79,2.15l21.31-12.18,1.08.71c-4.79,21.53-.53,40.72,15.13,56.32S220.78,158.28,243.33,153Z" transform="translate(-1.99 -2.53)"/><path class="cls-3" d="M226.59,142.43a44.89,44.89,0,1,1,44.92-44.76A45,45,0,0,1,226.59,142.43Zm6.6-25.87V103.77h12.37V91H232.84V78.66H220V91.31H207.67v12.81h12.72v12.44Z" transform="translate(-1.99 -2.53)"/><path class="cls-2" d="M233.19,116.56h-12.8V104.12H207.67V91.31H220V78.66h12.8V91h12.72v12.81H233.19Z" transform="translate(-1.99 -2.53)"/></svg>