<svg id="Layer_1" data-name="Layer 1" xmlns="http://www.w3.org/2000/svg" xmlns:xlink="http://www.w3.org/1999/xlink" viewBox="0 0 316.81 316.81"><defs><style>.cls-1,.cls-2{fill:none;stroke-miterlimit:10;}.cls-1{stroke-width:4px;stroke:url(#linear-gradient);}.cls-2{stroke:#4fc3a0;}.cls-3{fill:#0072ba;}.cls-4{fill:#4fc3a0;}</style><linearGradient id="linear-gradient" y1="158.4" x2="316.81" y2="158.4" gradientUnits="userSpaceOnUse"><stop offset="0" stop-color="#0072ba"/><stop offset="1" stop-color="#4fc3a0"/></linearGradient></defs><circle class="cls-1" cx="158.4" cy="158.4" r="156.4"/><path class="cls-2" d="M218.06,227.47c-10.17,6.78-20,11-30.8,13a4.08,4.08,0,0,0-2.39,3c-1.07,14.55-2.75,16.19-17.21,16.19q-31.59,0-63.17,0c-9.33,0-13.17-3.89-13.18-13.35q0-12.42,0-24.84A30.26,30.26,0,0,0,84.56,202c-8-10.13-15.91-20.34-24-30.42a38.81,38.81,0,0,1-8.88-25.67c.18-10.95.51-21.92-.07-32.84-.83-15.8,7.39-29.29,25.3-33.16,0-4,.08-8.21,0-12.37-.18-8,3-14.26,10.19-17.94s13.87-2.23,20,2.74a2.9,2.9,0,0,0,.74.32c10.22-13.21,25.89-10.55,32.76,2.71,4.85-3.53,10.25-5.07,16.15-3.59s9.77,5.29,12.39,10.9c1-.6,1.75-1.09,2.56-1.56A18,18,0,0,1,199,75.8c.3,5.32.22,10.67,0,16-.09,2.51.84,3.56,3.1,4.56,29.31,12.93,45.26,35.44,47.13,67.43.87,14.93-3.22,28.88-11,41.69-.8,1.31-1.62,2.61-2.6,4.19l19,19.05c3,3,6.05,5.87,8.9,9a14,14,0,0,1,3.2,4.84c2,6.06-1.25,9.81-8.37,15.43-3.85,3-8.68,2.26-12.57-1.57q-12.75-12.57-25.3-25.33A26.27,26.27,0,0,1,218.06,227.47ZM191.63,92.57c0-6,0-12,0-18a6.34,6.34,0,0,0-.74-2.38,10.69,10.69,0,0,0-11.26-6.36c-4.84.61-8.32,4.15-9.08,9.58-.35,2.51-1.1,4.61-3.92,4.48s-3.52-2.32-3.5-4.84a56.62,56.62,0,0,0-.15-7.14,11,11,0,0,0-10.29-9.45,10.73,10.73,0,0,0-10.79,8.79c-.14.68.09,1.61-.29,2.05A45.1,45.1,0,0,1,138,72.69c-1.19-1.3-3-2.44-3.41-4-.6-2.23-.07-4.74-.23-7.12a10.87,10.87,0,0,0-10.74-10.31c-5.79,0-10.18,4.25-10.63,10.32-.11,1.53.23,3.25-.35,4.56s-2.09,2.82-3.08,2.75c-1.3-.1-2.67-1.53-3.65-2.69-.53-.62-.23-1.9-.45-2.85a10.66,10.66,0,0,0-20.86-.14,27.84,27.84,0,0,0-.46,5.85q0,32.42,0,64.83c0,1.27.34,2.74-.19,3.74-.69,1.29-2.24,3.17-3.17,3-1.35-.19-2.86-1.75-3.6-3.1-.6-1.09-.18-2.74-.18-4.14,0-15.14,0-30.28,0-45.59a12.21,12.21,0,0,0-2.37.15C65.4,90.48,59.15,98.82,59,109.14c-.13,12.77,0,25.54,0,38.31a29.71,29.71,0,0,0,6.78,19c7.85,9.89,15.51,19.94,23.47,29.74A39.56,39.56,0,0,1,98.51,223c-.17,7.58,0,15.16,0,22.74,0,6.11.55,6.64,6.82,6.64h47.58c6.59,0,13.19,0,19.78,0,3.33,0,5-1.42,4.82-4.82-.08-1.9,0-3.81,0-5.72-49.75.67-82.76-40.27-78.65-83C102.9,116.54,143.36,82.2,191.63,92.57ZM173.77,234.43a68.24,68.24,0,1,0-68.08-68.51A68.16,68.16,0,0,0,173.77,234.43Zm59-1.15c6.08,6,11.87,11.72,17.58,17.48,2,2.05,3.82,2,5.69-.12.94-1,2.31-1.84,2.85-3s.89-3.32.24-4c-5.94-6.23-12.11-12.24-18.27-18.36Zm2.1-12.64-3.65-5.18.39,1.33-7.72,6.29c1.31,1.82,2.43,3.37,3.64,5Z" transform="translate(-1.19 -1.97)"/><path class="cls-3" d="M191.63,92.57c-48.27-10.37-88.73,24-92.81,66.34-4.11,42.69,28.9,83.63,78.65,83,0,1.91-.07,3.82,0,5.72.15,3.4-1.49,4.85-4.82,4.82-6.59,0-13.19,0-19.78,0H105.3c-6.27,0-6.8-.53-6.82-6.64,0-7.58-.14-15.16,0-22.74a39.56,39.56,0,0,0-9.25-26.8c-8-9.8-15.62-19.85-23.47-29.74a29.71,29.71,0,0,1-6.78-19c0-12.77-.1-25.54,0-38.31C59.15,98.82,65.4,90.48,74.57,88a12.21,12.21,0,0,1,2.37-.15c0,15.31,0,30.45,0,45.59,0,1.4-.42,3.05.18,4.14.74,1.35,2.25,2.91,3.6,3.1.93.13,2.48-1.75,3.17-3,.53-1,.19-2.47.19-3.74q0-32.41,0-64.83a27.84,27.84,0,0,1,.46-5.85,10.66,10.66,0,0,1,20.86.14c.22.95-.08,2.23.45,2.85,1,1.16,2.35,2.59,3.65,2.69,1,.07,2.55-1.54,3.08-2.75s.24-3,.35-4.56c.45-6.07,4.84-10.33,10.63-10.32a10.87,10.87,0,0,1,10.74,10.31c.16,2.38-.37,4.89.23,7.12.41,1.51,2.22,2.65,3.41,4a45.1,45.1,0,0,0,3.61-3.43c.38-.44.15-1.37.29-2.05a10.73,10.73,0,0,1,10.79-8.79,11,11,0,0,1,10.29,9.45,56.62,56.62,0,0,1,.15,7.14c0,2.52.7,4.7,3.5,4.84s3.57-2,3.92-4.48c.76-5.43,4.24-9,9.08-9.58a10.69,10.69,0,0,1,11.26,6.36,6.34,6.34,0,0,1,.74,2.38C191.66,80.53,191.63,86.52,191.63,92.57Z" transform="translate(-1.19 -1.97)"/><path class="cls-4" d="M173.77,234.43a68.24,68.24,0,1,1,68.4-67.73A68.23,68.23,0,0,1,173.77,234.43Zm3.7-14.6c-1.52.1-2.47.21-3.43.22-23.2.4-44.62-15.37-51.57-37.94a53.9,53.9,0,0,1,50.39-69.79c2.54-.06,4.6-.81,4.51-3.74s-2.32-3.52-4.78-3.4-5.06.19-7.55.57c-34,5.2-57.38,37.41-51.33,70.58,6.33,34.8,38.86,56.81,73.23,49.57,27.23-5.73,46.93-29.48,48.11-58,1.13-27-17.46-52.67-43.63-60.23-2.59-.75-5.29-1.36-6.35,1.88-1,3,1.29,4.37,3.82,4.87s3.06,1.82,3,4.14a142.14,142.14,0,0,0,0,16,90,90,0,0,1-10.82,52.22c-2.53,4.69-2.93,10.72-3.5,16.22S177.47,213.88,177.47,219.83Zm8.13-76c-.75-3.55-1.06-6.26-4.5-6.27-3.13,0-3.61,2.5-3.64,5.09s.41,5.64,3.7,5.31C182.76,147.84,184.13,145.31,185.6,143.86Zm-14.35-16.43c-1.49-1.43-2.86-3.89-4.48-4.06-3.37-.36-3.66,2.59-3.68,5.29s.59,5.11,3.64,5.09C170.07,133.72,170.56,131.05,171.25,127.43Zm0,20c-.7-3.61-1.2-6.27-4.54-6.26-3,0-3.62,2.49-3.61,5.13s.4,5.64,3.71,5.27C168.42,151.39,169.77,148.87,171.24,147.42Zm14.36,12.35c-1.48-1.44-2.85-4-4.45-4.11-3.29-.31-3.71,2.6-3.69,5.32s.52,5.09,3.65,5.08C184.55,166.05,184.85,163.33,185.6,159.77ZM142.5,169c-.85-3.5-1-6.26-4.52-6.28-3.18,0-3.59,2.46-3.62,5.06s.34,5.63,3.65,5.3C139.63,173,141,170.48,142.5,169Zm5.41,1.5c.68,3.62,1.17,6.3,4.5,6.33,3,0,3.65-2.44,3.65-5.09s-.38-5.63-3.67-5.33C150.78,166.6,149.4,169.1,147.91,170.54Zm14.37,12.88c1.49,1.44,2.88,4,4.48,4.1,3.27.3,3.71-2.58,3.67-5.33,0-2.6-.49-5.08-3.65-5.06C163.34,177.15,163.06,179.88,162.28,183.42Zm-28.74,3.49c1.46,1.47,2.79,4,4.4,4.19,3.3.39,3.74-2.52,3.75-5.24s-.5-5.14-3.58-5.17C134.76,180.66,134.25,183.31,133.54,186.91Zm37.71,14.26c-.74-3.58-1.3-6.21-4.66-6.1-3.06.1-3.52,2.63-3.5,5.23s.5,5.63,3.82,5.16C168.52,205.23,169.81,202.68,171.25,201.17Zm-23.34-46.44c1.49,1.4,2.89,3.84,4.51,4,3.33.32,3.67-2.61,3.64-5.32s-.51-5.05-3.68-5C148.9,148.44,148.7,151.18,147.91,154.73Zm0-20.13c.78,3.55,1,6.28,4.5,6.3,3.16,0,3.62-2.47,3.65-5.06s-.37-5.63-3.68-5.31C150.77,130.69,149.39,133.17,147.91,134.6Zm-5.39,14.59c-1.44-1.48-2.73-4-4.36-4.24-3.33-.5-3.82,2.34-3.8,5.1,0,2.55.27,5.08,3.47,5.2C141.33,155.38,141.65,152.69,142.52,149.19Zm28.72,14.17c-1.48-1.41-2.85-3.85-4.47-4-3.36-.37-3.69,2.56-3.67,5.26s.46,5,3.63,5C170.19,169.62,170.46,166.92,171.24,163.36Zm-14.35,27.06c-.76-3.58-1.27-6.2-4.67-6.1-3.12.09-3.52,2.61-3.5,5.2s.43,5.63,3.8,5.13C154.15,194.4,155.44,191.9,156.89,190.42Zm28.73-64.67c-.77-3.57-1.19-6.18-4.65-6.08-3.18.08-3.5,2.63-3.5,5.16,0,2.71.41,5.62,3.8,5.1C182.89,129.68,184.18,127.22,185.62,125.75Z" transform="translate(-1.19 -1.97)"/><path class="cls-4" d="M232.81,233.28l8.09-8c6.16,6.12,12.33,12.13,18.27,18.36.65.68.29,2.82-.24,4s-1.91,2-2.85,3c-1.87,2.09-3.65,2.17-5.69.12C244.68,245,238.89,239.32,232.81,233.28Z" transform="translate(-1.19 -1.97)"/><path class="cls-4" d="M234.91,220.64l-7.34,7.47c-1.21-1.66-2.33-3.21-3.64-5l7.72-6.29-.39-1.33Z" transform="translate(-1.19 -1.97)"/><path d="M177.47,219.83c0-6-.44-11.46.13-16.86s1-11.53,3.5-16.22a90,90,0,0,0,10.82-52.22,142.14,142.14,0,0,1,0-16c.06-2.32-.55-3.66-3-4.14s-4.81-1.83-3.82-4.87c1.06-3.24,3.76-2.63,6.35-1.88,26.17,7.56,44.76,33.2,43.63,60.23-1.18,28.54-20.88,52.29-48.11,58-34.37,7.24-66.9-14.77-73.23-49.57-6-33.17,17.35-65.38,51.33-70.58,2.49-.38,5-.44,7.55-.57s4.7.4,4.78,3.4-2,3.68-4.51,3.74a53.9,53.9,0,0,0-50.39,69.79c6.95,22.57,28.37,38.34,51.57,37.94C175,220,176,219.93,177.47,219.83Zm7.49-1.2c22.24-3.12,41.31-25.07,42.75-48.73,1.3-21.36-12.79-46.42-28.57-50.51,0,7.33-.46,14.65.09,21.88,1.15,15-1.42,29-9,42C183.69,194.36,184.54,206.35,185,218.63Z" transform="translate(-1.19 -1.97)"/><path d="M185.6,143.86c-1.47,1.45-2.84,4-4.44,4.13-3.29.33-3.72-2.58-3.7-5.31s.51-5.09,3.64-5.09C184.54,137.6,184.85,140.31,185.6,143.86Z" transform="translate(-1.19 -1.97)"/><path d="M171.25,127.43c-.69,3.62-1.18,6.29-4.52,6.32-3,0-3.66-2.45-3.64-5.09s.31-5.65,3.68-5.29C168.39,123.54,169.76,126,171.25,127.43Z" transform="translate(-1.19 -1.97)"/><path d="M171.24,147.42c-1.47,1.45-2.82,4-4.44,4.14-3.31.37-3.7-2.55-3.71-5.27s.56-5.12,3.61-5.13C170,141.15,170.54,143.81,171.24,147.42Z" transform="translate(-1.19 -1.97)"/><path d="M185.6,159.77c-.75,3.56-1,6.28-4.49,6.29-3.13,0-3.62-2.48-3.65-5.08s.4-5.63,3.69-5.32C182.75,155.81,184.12,158.33,185.6,159.77Z" transform="translate(-1.19 -1.97)"/><path d="M142.5,169c-1.49,1.44-2.87,3.92-4.49,4.08-3.31.33-3.68-2.57-3.65-5.3s.44-5.07,3.62-5.06C141.47,162.78,141.65,165.54,142.5,169Z" transform="translate(-1.19 -1.97)"/><path d="M147.91,170.54c1.49-1.44,2.87-3.94,4.48-4.09,3.29-.3,3.67,2.61,3.67,5.33s-.61,5.12-3.65,5.09C149.08,176.84,148.59,174.16,147.91,170.54Z" transform="translate(-1.19 -1.97)"/><path d="M162.28,183.42c.78-3.54,1.06-6.27,4.5-6.29,3.16,0,3.61,2.46,3.65,5.06,0,2.75-.4,5.63-3.67,5.33C165.16,187.38,163.77,184.86,162.28,183.42Z" transform="translate(-1.19 -1.97)"/><path d="M133.54,186.91c.71-3.6,1.22-6.25,4.57-6.22,3.08,0,3.58,2.56,3.58,5.17s-.45,5.63-3.75,5.24C136.33,190.91,135,188.38,133.54,186.91Z" transform="translate(-1.19 -1.97)"/><path d="M171.25,201.17c-1.44,1.51-2.73,4.06-4.34,4.29-3.32.47-3.8-2.41-3.82-5.16s.44-5.13,3.5-5.23C170,195,170.51,197.59,171.25,201.17Z" transform="translate(-1.19 -1.97)"/><path d="M147.91,154.73c.79-3.55,1-6.29,4.47-6.34,3.17,0,3.64,2.42,3.68,5s-.31,5.64-3.64,5.32C150.8,158.57,149.4,156.13,147.91,154.73Z" transform="translate(-1.19 -1.97)"/><path d="M147.91,134.6c1.48-1.43,2.86-3.91,4.47-4.07,3.31-.32,3.71,2.58,3.68,5.31s-.49,5.07-3.65,5.06C149,140.88,148.69,138.15,147.91,134.6Z" transform="translate(-1.19 -1.97)"/><path d="M142.52,149.19c-.87,3.5-1.19,6.19-4.69,6.06-3.2-.12-3.44-2.65-3.47-5.2,0-2.76.47-5.6,3.8-5.1C139.79,145.19,141.08,147.71,142.52,149.19Z" transform="translate(-1.19 -1.97)"/><path d="M171.24,163.36c-.78,3.56-1.05,6.26-4.51,6.27-3.17,0-3.62-2.46-3.63-5s.31-5.63,3.67-5.26C168.39,159.51,169.76,162,171.24,163.36Z" transform="translate(-1.19 -1.97)"/><path d="M156.89,190.42c-1.45,1.48-2.74,4-4.37,4.23-3.37.5-3.77-2.41-3.8-5.13s.38-5.11,3.5-5.2C155.62,184.22,156.13,186.84,156.89,190.42Z" transform="translate(-1.19 -1.97)"/><path d="M185.62,125.75c-1.44,1.47-2.73,3.93-4.35,4.18-3.39.52-3.8-2.39-3.8-5.1,0-2.53.32-5.08,3.5-5.16C184.43,119.57,184.85,122.18,185.62,125.75Z" transform="translate(-1.19 -1.97)"/></svg>