<svg id="Layer_1" data-name="Layer 1" xmlns="http://www.w3.org/2000/svg" xmlns:xlink="http://www.w3.org/1999/xlink" viewBox="0 0 312.8 312.8"><defs><style>.cls-1{fill:none;stroke-miterlimit:10;stroke-width:3.95px;stroke:url(#linear-gradient);}.cls-2{fill:#0075af;}.cls-3{fill:#4fc3a0;}.cls-4{fill:#0072ba;}</style><linearGradient id="linear-gradient" x1="2" y1="159.6" x2="314.8" y2="159.6" gradientTransform="matrix(1, 0, 0, -1, -2, 316)" gradientUnits="userSpaceOnUse"><stop offset="0" stop-color="#0072ba"/><stop offset="1" stop-color="#4fc3a0"/></linearGradient></defs><circle class="cls-1" cx="156.4" cy="156.4" r="154.43"/><path class="cls-2" d="M161.27,206.84c-30.14,0-60.28-.1-90.42.11-4.87,0-6.3-1.46-6.12-6.23.35-9.14.34-18.32,0-27.46-.17-4.59,1.2-6,5.86-6,41.46.17,82.92.09,124.38.09h40.47c5.92,0,11.84.15,17.75-.05,3.42-.12,4.74,1,4.67,4.53-.19,10-.24,20,0,30,.11,4.09-1.4,5.07-5.22,5.06C222.21,206.79,191.74,206.84,161.27,206.84Z" transform="translate(-2 -2)"/><path class="cls-2" d="M57.9,182.65l4.2,1a5.2,5.2,0,0,1,.43,1.38c0,6,.21,12,0,18-.14,4.58,2,6.27,6.33,6.24,10.33-.08,20.65,0,31,0H251.79c7.68,0,8.26-.58,8.27-8.22,0-4-.08-8,0-12,.07-2.43-1.11-5.36,2.81-6.46.67-.18.71-3.28.74-5,.18-13.57-1.63-12.13,11.89-12.09,15.4,0,13.14-1.92,13.25,13.2.1,14.32-.12,28.65.1,43,.07,4.54-1.41,6.45-6,6.11-3.65-.27-7.33-.05-11-.05-7.66,0-7.66,0-8.62-7.54H58.65c-1.83,7.54-1.83,7.54-10,7.54-3.67,0-7.34-.08-11,0-3.28.08-4.9-1.14-4.89-4.66q.07-53.71,0-107.44c0-3.52,1.65-4.75,4.89-4.72,4.83,0,9.66.17,14.49,0,4.26-.18,5.89,1.43,5.86,5.82-.17,20-.07,40-.07,60Z" transform="translate(-2 -2)"/><path class="cls-3" d="M133.78,123.59c19.69-14.09,35.63-5.82,40,11.23l16-9.85c2.13-1.31,4.32-2.53,6.36-4,4.84-3.4,9.38-3.15,14.31.12,13.19,8.73,26.55,17.2,39.82,25.81,3.86,2.51,5.63,6.06,4.66,10.68-.89,4.2-3.66,7.06-7.78,7.36a15,15,0,0,1-8.35-2.2c-10.77-6.63-21.38-13.53-31.9-20.56-2.72-1.82-4.65-2-7.52-.17-9.92,6.42-20.09,12.45-30.11,18.72a23.53,23.53,0,0,1-15.66,3.36c.93-9.93-.9-11.9-10.81-11.91H111.25c1.91-4.09,3.51-7.31,4.94-10.6,2-4.72.74-8.82-3.24-10.58s-7.55-.15-9.84,4.27c-1.6,3.07-3,6.24-4.79,9.88-2.44-4.6-1-8.25,1.28-11.49,5.49-7.85,13.5-12.58,22.45-14.8C125.05,118.15,129.09,121.59,133.78,123.59Z" transform="translate(-2 -2)"/><path class="cls-4" d="M204.82,108.55l-6.75-7.46L197,102l4.2,5.16c-11.91,2.42-25.59-1.84-34.31,9.76l-16.31-4.49c.93-2.3,1.83-5.13,3.16-7.73,10.25-20,39.93-24.07,54.83-7.47A127.33,127.33,0,0,1,217,108.39c2.09,2.9,2.15,5.88-.38,8.63-2.36,2.56-4.58,1.43-7.09,0-4.21-2.41-8.47-1.91-12.89,0-3.55,1.57-7.43,2.36-11.18,3.47a82.12,82.12,0,0,0-8.54,2.5c-3.37,1.43-5.51.12-7.07-2.59a4.19,4.19,0,0,1,2.46-6.48,123.59,123.59,0,0,1,18.32-4.07c4.4-.63,9-.12,13.45-.12Z" transform="translate(-2 -2)"/><path class="cls-4" d="M169.75,85.77a16.82,16.82,0,1,1,16.92-16.66A16.83,16.83,0,0,1,169.75,85.77Z" transform="translate(-2 -2)"/><path class="cls-3" d="M108.51,153.84h33c1.83,0,4-.59,5.4.22,2.16,1.26,4.93,3.26,5.32,5.35.63,3.33-2.05,5.41-5.6,5.45-6.65.08-13.31,0-20,0-8.48,0-17,.08-25.46,0-6.25-.08-8.41-3.48-5.81-9.14,3-6.5,6.18-12.89,9.2-19.37,1.68-3.61,4.38-5.25,8-3.44,3.47,1.73,3.59,4.84,2,8.14C112.63,145.07,110.75,149.1,108.51,153.84Z" transform="translate(-2 -2)"/><path class="cls-3" d="M79.48,112.26a15.66,15.66,0,1,1,15.73,15.89A15.7,15.7,0,0,1,79.48,112.26Z" transform="translate(-2 -2)"/><path class="cls-4" d="M170.06,164c10.29-6.35,20.55-12.76,30.93-19a5,5,0,0,1,4.34.05c8.46,5.25,16.77,10.74,26.15,16.81-2.37,1.28-4.08,3-5.81,3-18.43.2-36.86.12-55.29.12Z" transform="translate(-2 -2)"/><path class="cls-3" d="M68.09,159.77c7-3.54,6.36-9.22,4.81-15.09-1.15-4.34-2.8-8.56-3.59-13-1.33-7.37,1.18-13.33,9-18.39-.1,4.16-.38,7.28-.17,10.37.09,1.36,1.13,2.68,1.83,4,3.64,6.77,5.89,13.79,3.67,21.53C81.36,157.2,75.2,161.53,68.09,159.77Z" transform="translate(-2 -2)"/><path class="cls-4" d="M186,56.67,169,48.77c.45-3.48,3.06-6.17,7.32-7.08a8.87,8.87,0,0,1,9.9,4.15C188.73,49.76,188.4,53.69,186,56.67Z" transform="translate(-2 -2)"/><path class="cls-4" d="M206.67,223.35h11.89C215.1,228.06,211.16,228.14,206.67,223.35Z" transform="translate(-2 -2)"/><path class="cls-4" d="M181.76,223.49c-3.7,4.46-7,4.56-12.22,0Z" transform="translate(-2 -2)"/><path class="cls-4" d="M173.6,125.77,186,121.94l.61,1.32L176,129.91C175.21,128.57,174.52,127.37,173.6,125.77Z" transform="translate(-2 -2)"/></svg>