<svg id="Layer_1" data-name="Layer 1" xmlns="http://www.w3.org/2000/svg" xmlns:xlink="http://www.w3.org/1999/xlink" viewBox="0 0 312.8 312.8"><defs><style>.cls-1{fill:none;stroke-miterlimit:10;stroke-width:3.95px;stroke:url(#linear-gradient);}.cls-2{fill:#4fc3a0;}.cls-3{fill:#0072ba;}.cls-4{fill:#f6f6f6;}</style><linearGradient id="linear-gradient" x1="2" y1="159.6" x2="314.8" y2="159.6" gradientTransform="matrix(1, 0, 0, -1, -2, 316)" gradientUnits="userSpaceOnUse"><stop offset="0" stop-color="#0072ba"/><stop offset="1" stop-color="#4fc3a0"/></linearGradient></defs><circle class="cls-1" cx="156.4" cy="156.4" r="154.43"/><path class="cls-2" d="M187.38,177.21q-29.31,0-58.63,0c-8.65,0-12-3.33-12-11.82,0-16.26.07-32.52-.08-48.77a7.51,7.51,0,0,1,3.26-6.65c10.15-8.11,18.91-17.35,22.5-30.34,2-7.32,2-7.33,9.9-7.33a15.22,15.22,0,0,1,2.34,0c4.19.67,5.58-.86,5.44-5.25-.32-10.27,3.42-13.78,13.67-13.79,9.86,0,19.71,0,29.56,0,8,0,12,4.18,12,12.24a13.06,13.06,0,0,1,0,2.34c-.72,4,1.31,4.58,4.74,4.5,9.06-.19,18.14-.09,27.2,0,7.72,0,11.3,3.48,11.31,11.07q0,41,0,82.08c0,8.27-3.41,11.74-11.63,11.75Q217.18,177.25,187.38,177.21Z" transform="translate(-2 -2)"/><path class="cls-3" d="M173.31,236.13c6.79-.18,13.81-.38,20.46-3.17,4.71-2,8.46-5,9.73-10.06.66-2.66,2.05-3.8,4.39-4.74a439.6,439.6,0,0,0,49.54-23.36c.41-.22.83-.43,1.26-.64,6.7-3.29,13.13-2.24,16.42,2.67s1.63,12.14-3.84,16.74-11.5,8.08-17.51,11.73c-15.1,9.16-30.69,17.44-46,26.21-18.16,10.39-37.44,11.85-57.66,9-23.64-3.33-47.31-4.6-70.84,1.27-3.7.92-8,4.15-11,2.11-2.56-1.77-3-6.61-4.36-10.1-5.25-13.54-10.4-27.11-15.8-40.59-1.1-2.73-.68-3.76,2.07-4.66a461.65,461.65,0,0,0,45-17.38c8.61-3.85,17.43-3.14,26.08-.07,9.56,3.39,19,7.27,28.55,10.56a112.59,112.59,0,0,0,35.91,6c7.89.05,11.23,2.24,11.74,7.3.56,5.58-3.49,10.79-10.17,12.07-14.62,2.81-28.94,1-43-3.53a13.79,13.79,0,0,1-1.32-.49c-2.63-1.17-5.37-1.92-6.63,1.58s1.46,4.61,4,5.62c7.64,3,15.65,4.35,23.74,5.25C167.11,235.83,170.08,235.91,173.31,236.13Z" transform="translate(-2 -2)"/><path class="cls-3" d="M98.07,59.27c1.43-1.35,2.58-2.41,3.69-3.5,7.24-7.12,15.9-9.12,23.47-5.41C133.06,54.22,138,63.76,137,73.13c-.93,8.81-5.33,15.9-11.07,22.29-7.27,8.11-16.09,14.29-25.32,20a3.52,3.52,0,0,1-4.25.14c-10.84-6.67-21.2-13.92-28.93-24.25C61.82,83.8,58.17,75.63,60.2,66c1.69-8.06,6-14.15,14.11-16.61,7.83-2.36,14.41.58,20.1,5.93C95.76,56.54,96.92,58,98.07,59.27Z" transform="translate(-2 -2)"/><path class="cls-4" d="M151.38,124.33a36.27,36.27,0,1,1,36.36,36.84A36.31,36.31,0,0,1,151.38,124.33Z" transform="translate(-2 -2)"/><path class="cls-4" d="M187.42,72.28c-5.92,0-11.85-.1-17.77,0-2.49.06-3.11-.84-3.18-3.23-.28-8.54.34-9.28,9-9.28h26.65c2.35,0,5-.3,6.08,2.36,1.19,2.95.77,6.18.27,9.22-.24,1.43-2.14.85-3.3.86C199.27,72.31,193.34,72.29,187.42,72.28Z" transform="translate(-2 -2)"/><path class="cls-2" d="M209.86,124.86c0,7.3,0,7.3-7.45,7.3a11.79,11.79,0,0,1-1.88,0c-4.41-.74-5.95.82-5.77,5.51.37,9.7-2,11.33-11.73,9.45-2.28-.43-2.54-1.79-2.63-3.67-.18-3.55,1.51-8-.75-10.42s-6.82-.7-10.36-.81c-2.76-.07-3.92-1.07-3.89-3.91.17-13.32-1.34-10.86,10.38-10.87,3.63,0,5.25-.9,4.66-4.67a21.11,21.11,0,0,1,0-3.28c0-7.11,0-7.11,7.15-7.11,7.31,0,7.31,0,7.31,7.42s0,7.54,7.77,7.54C209.87,117.34,209.87,117.34,209.86,124.86Z" transform="translate(-2 -2)"/></svg>