<svg id="Layer_1" data-name="Layer 1" xmlns="http://www.w3.org/2000/svg" xmlns:xlink="http://www.w3.org/1999/xlink" viewBox="0 0 316.81 316.81"><defs><style>.cls-1{fill:none;stroke-miterlimit:10;stroke-width:4px;stroke:url(#linear-gradient);}.cls-2{fill:#4fc3a0;}.cls-3{fill:#0072ba;}.cls-4{fill:#fff;}</style><linearGradient id="linear-gradient" y1="158.4" x2="316.81" y2="158.4" gradientUnits="userSpaceOnUse"><stop offset="0" stop-color="#0072ba"/><stop offset="1" stop-color="#4fc3a0"/></linearGradient></defs><circle class="cls-1" cx="158.4" cy="158.4" r="156.4"/><path class="cls-2" d="M271.43,152c-.35,25.17-8.24,48.27-22.19,69.26-9.88,14.86-24.36,20.06-39.69,15.27-8-2.51-13.52-7.53-17-15.44a201.28,201.28,0,0,0-11.52-21.71,31.47,31.47,0,0,0-6.66-7.33c-9.09-7.91-19-7.86-28.09.1a55.93,55.93,0,0,0-17.05,26.71c-5.88,20.5-34.36,24.92-49.06,11.83A52.34,52.34,0,0,1,70.82,220c-22-34.6-27.31-71.52-14.09-110.56A55.32,55.32,0,0,1,66.66,92c10-11.86,28.67-13.2,40.63-3.29,3.07,2.55,5.41,6.34,7.2,10,2.71,5.55,4.46,11.56,7,17.22a55.67,55.67,0,0,0,16.27,21c14,11.33,31.58,11.26,45.63-.12,8.65-7,14.46-16,18.51-26.22,1.22-3.08,2.76-6.12,3.43-9.33,3.88-18.79,33.19-26.1,48.07-10.56,5.85,6.11,9.43,13.44,11.85,21.37A146.68,146.68,0,0,1,271.43,152ZM86.57,153.77c.08-1.6.21-2.83.17-4.06-.12-3.47-1.91-5.76-5.28-6.42-3.21-.64-5.6.83-7,3.74-2.39,4.87-.88,11.81,3.42,15.88s11,5.22,15.62,2.76c2.87-1.54,4.22-4,3.46-7.19a6.22,6.22,0,0,0-6.23-5A31.82,31.82,0,0,0,86.57,153.77ZM228.92,120a33.71,33.71,0,0,0-3.81-.37,6.19,6.19,0,0,0-6.33,4.87c-.83,3.16.45,5.66,3.28,7.25,4.64,2.61,11.72,1.31,16-2.86s5.6-11.27,3.1-15.93c-1.54-2.85-4-4.22-7.17-3.47a6.16,6.16,0,0,0-5,6.21C228.87,117,228.92,118.21,228.92,120Zm5.14,42.82c-.74,0-1.42,0-2.1,0-4.82-.19-7.77,1.88-8.12,5.69s2.45,6.67,6.93,7.33a14.54,14.54,0,0,0,16.88-13.72c.26-5.86-2.79-9.94-7.28-9.76s-6.33,3.28-5.92,9.46C234.46,162,234.35,162.09,234.06,162.83ZM104.49,202.27c3.5.15,6.12-1.43,7-5.23.8-3.31-1.22-6.36-4.93-7.5a14.46,14.46,0,0,0-18,18.21c1.16,3.63,4.27,5.5,7.68,4.63,3.59-.91,5.43-3.44,4.93-7C100.82,202.6,101.18,201.37,104.49,202.27Zm13.35-38.83c-1.15,0-1.83,0-2.51,0-4.63-.38-7.45,1.46-8,5.21s1.68,6.59,6,7.63c10.05,2.44,19.63-7,17.38-17.07-1-4.51-4-6.84-7.89-6.16-3.71.64-5.39,3.42-5,8.15C117.88,161.75,117.84,162.31,117.84,163.44ZM88.29,117.86c1.62.12,2.85.32,4.08.28,3.24-.13,5.52-1.76,6.31-4.91s-.56-5.68-3.37-7.25c-4.62-2.58-11.72-1.2-16,3s-5.55,11.29-3,15.94a6.08,6.08,0,0,0,7.23,3.33c3.2-.74,4.82-3,5-6.22C88.55,120.77,88.39,119.52,88.29,117.86ZM197.15,165c1.11,1.29,1.8,2.19,2.6,3,2.46,2.46,5.33,2.84,8.22,1s3.54-4.77,2.36-8c-1.85-4.95-7.7-8.62-13.41-8.53-5.55.08-11.21,3.77-13,8.55-1.17,3.2-.57,6.09,2.38,8s5.77,1.42,8.24-1C195.36,167.15,196,166.25,197.15,165Zm27.51,38.74c1,0,1.71-.13,2.38-.11,5,.15,7.75-1.76,8.05-5.67s-2.28-6.65-6.84-7.35a14.5,14.5,0,0,0-16.59,17.14c.84,4.28,3.63,6.68,7.36,6.33s5.82-3.13,5.64-7.68C224.63,205.65,224.66,205,224.66,203.7Z" transform="translate(-2.19 -1.97)"/><path class="cls-3" d="M160.18,84.74c-3.7.2-7.3.42-10.9.59-9.44.43-14.46-4.14-16.54-13.28-1-4.3-3.85-8.24-6.22-12.13-1.87-3.06-3.82-6-1.94-9.59,2-3.85,5.5-5.33,9.68-5.38,2.89,0,5.79.16,8.66,0,6.12-.44,10.46,1.89,13.55,7.3,2.87,5.06,5.09,5.09,7.9.11,3.15-5.59,7.65-7.89,13.92-7.42,3,.23,6.06,0,9.09.08,7,.18,13.19,7.06,7.32,14.48-3.76,4.74-6.76,9.81-7.44,16.25-.63,5.94-7.47,9.86-15.06,9.63C168.16,85.22,164.13,84.94,160.18,84.74Z" transform="translate(-2.19 -1.97)"/><path class="cls-3" d="M133.78,249.67a103.19,103.19,0,0,0,53.06.08c2.12,8-4.06,16.51-13.41,16.91-8.64.38-17.32.37-26,0C138.39,266.28,132.88,259,133.78,249.67Z" transform="translate(-2.19 -1.97)"/><path class="cls-3" d="M133.82,224.73a99.56,99.56,0,0,0,53.17.07c1,6.28-3.15,13.39-10.55,14.09a172.9,172.9,0,0,1-31.77.05C137.24,238.27,133.22,231.58,133.82,224.73Z" transform="translate(-2.19 -1.97)"/><path class="cls-3" d="M132.94,95.63a135.42,135.42,0,0,0,55,0,13.28,13.28,0,0,1-12.39,13.43,258.37,258.37,0,0,1-30.23,0A13.32,13.32,0,0,1,132.94,95.63Z" transform="translate(-2.19 -1.97)"/><path class="cls-3" d="M145.64,214.56c2.78-5.67,6.07-10.41,10.91-14,2.84-2.09,5.91-2,8.26.41,3.85,3.94,7.29,8.27,10.9,12.44l-.81,1.11Z" transform="translate(-2.19 -1.97)"/><path class="cls-3" d="M141.7,122.23h37.44C171.07,135.31,150.19,135.56,141.7,122.23Z" transform="translate(-2.19 -1.97)"/><path class="cls-4" d="M86.57,153.77a31.82,31.82,0,0,1,4.12-.31,6.22,6.22,0,0,1,6.23,5c.76,3.17-.59,5.65-3.46,7.19-4.6,2.46-11.39,1.24-15.62-2.76S72,151.9,74.42,147c1.44-2.91,3.83-4.38,7-3.74,3.37.66,5.16,3,5.28,6.42C86.78,150.94,86.65,152.17,86.57,153.77Z" transform="translate(-2.19 -1.97)"/><path class="cls-4" d="M228.92,120c0-1.8,0-3.05,0-4.3a6.16,6.16,0,0,1,5-6.21c3.19-.75,5.63.62,7.17,3.47,2.5,4.66,1.08,11.82-3.1,15.93s-11.32,5.47-16,2.86c-2.83-1.59-4.11-4.09-3.28-7.25a6.19,6.19,0,0,1,6.33-4.87A33.71,33.71,0,0,1,228.92,120Z" transform="translate(-2.19 -1.97)"/><path class="cls-4" d="M234.06,162.83c.29-.74.4-.87.39-1-.41-6.18,1.53-9.29,5.92-9.46s7.54,3.9,7.28,9.76a14.54,14.54,0,0,1-16.88,13.72c-4.48-.66-7.27-3.61-6.93-7.33s3.3-5.88,8.12-5.69C232.64,162.85,233.32,162.83,234.06,162.83Z" transform="translate(-2.19 -1.97)"/><path class="cls-4" d="M104.49,202.27c-3.31-.9-3.67.33-3.28,3.08.5,3.59-1.34,6.12-4.93,7-3.41.87-6.52-1-7.68-4.63a14.46,14.46,0,0,1,18-18.21c3.71,1.14,5.73,4.19,4.93,7.5C110.61,200.84,108,202.42,104.49,202.27Z" transform="translate(-2.19 -1.97)"/><path class="cls-4" d="M117.84,163.44c0-1.13,0-1.69,0-2.25-.42-4.73,1.26-7.51,5-8.15,3.9-.68,6.89,1.65,7.89,6.16,2.25,10.1-7.33,19.51-17.38,17.07-4.3-1-6.52-3.88-6-7.63s3.36-5.59,8-5.21C116,163.48,116.69,163.44,117.84,163.44Z" transform="translate(-2.19 -1.97)"/><path class="cls-4" d="M88.29,117.86c.1,1.66.26,2.91.22,4.15-.13,3.25-1.75,5.48-5,6.22a6.08,6.08,0,0,1-7.23-3.33c-2.52-4.65-1.14-11.81,3-15.94s11.33-5.56,16-3c2.81,1.57,4.16,4.07,3.37,7.25s-3.07,4.78-6.31,4.91C91.14,118.18,89.91,118,88.29,117.86Z" transform="translate(-2.19 -1.97)"/><path class="cls-4" d="M197.15,165c-1.11,1.29-1.79,2.19-2.58,3-2.47,2.45-5.35,2.87-8.24,1s-3.55-4.77-2.38-8c1.76-4.78,7.42-8.47,13-8.55,5.71-.09,11.56,3.58,13.41,8.53,1.18,3.19.61,6.07-2.36,8s-5.76,1.47-8.22-1C199,167.15,198.26,166.25,197.15,165Z" transform="translate(-2.19 -1.97)"/><path class="cls-4" d="M224.66,203.7c0,1.25,0,2,0,2.66.18,4.55-1.86,7.34-5.64,7.68s-6.52-2-7.36-6.33a14.5,14.5,0,0,1,16.59-17.14c4.56.7,7.14,3.47,6.84,7.35s-3,5.82-8.05,5.67C226.37,203.57,225.68,203.65,224.66,203.7Z" transform="translate(-2.19 -1.97)"/></svg>