<svg id="Layer_1" data-name="Layer 1" xmlns="http://www.w3.org/2000/svg" xmlns:xlink="http://www.w3.org/1999/xlink" viewBox="0 0 316.81 316.81"><defs><style>.cls-1{fill:none;stroke-miterlimit:10;stroke-width:4px;stroke:url(#linear-gradient);}.cls-2{fill:#4fc3a0;}.cls-3{fill:#0072ba;}</style><linearGradient id="linear-gradient" y1="158.4" x2="316.81" y2="158.4" gradientUnits="userSpaceOnUse"><stop offset="0" stop-color="#0072ba"/><stop offset="1" stop-color="#4fc3a0"/></linearGradient></defs><circle class="cls-1" cx="158.4" cy="158.4" r="156.4"/><path class="cls-2" d="M185.39,224c0,11.65,0,22.44,0,33.24,0,7.6-2.76,10.3-10.42,10.34-6.92,0-13.84.07-20.76,0-6.34-.07-9.31-3-9.36-9.34-.08-11.13,0-22.26,0-34.22h-5c-9.79,0-19.59.06-29.37,0-6,0-9.08-3.07-9.17-9q-.17-11.15,0-22.29c.07-6.25,3.07-9.18,9.45-9.22,11.12-.07,22.24,0,34.1,0V171.71c0-7.76-.09-15.53.05-23.29.1-5.18,3.08-8.38,8.09-8.5q12.15-.28,24.31,0c5.15.13,8,3.47,8.1,9,.09,9.62,0,19.25,0,28.87v5.62h22c4.38,0,8.78-.11,13.16,0,5.11.18,8.28,3.18,8.39,8.22.18,7.76.14,15.53,0,23.3-.08,5.95-3.13,8.93-9.19,9-9.62.09-19.24,0-28.87,0Z" transform="translate(-2.19 -1.97)"/><path class="cls-3" d="M198.29,83.8c.08,12.11-4.49,21.81-15.34,27.68-9.84,5.33-19.87,4.9-29.37-1.06-13.14-8.25-17.68-27.35-10.2-41.92a29,29,0,0,1,36.25-13.84C191.37,59.14,198.27,69.91,198.29,83.8Z" transform="translate(-2.19 -1.97)"/><path class="cls-3" d="M69.81,90.9c0-9.28,8-20.18,21.26-23.28a27.19,27.19,0,0,1,30.76,14.81c6.38,13.31,2.53,30.34-8.91,38.2-9,6.15-18.58,6.93-28.24,1.9C74.23,117.09,69.67,108,69.81,90.9Z" transform="translate(-2.19 -1.97)"/><path class="cls-3" d="M125.72,131.76c8.55-11.63,21.44-14.91,36.07-14.08,8.24.47,16.61-.19,24.73,1,5.1.75,10,3.72,14.63,6.35,1.25.72,1.12,3.85,1.63,5.88-2.08.18-4.79,1.29-6.13.38-6.34-4.28-13.21-5.65-20.67-5.47-7.08.16-14.18,0-21.27,0-15.45.23-26.56,10.42-28,25.73-.28,2.94-.72,5.73-4.34,5.53-4-.22-4.07-3.39-3.8-6.4.19-2,.19-4.2,1-5.95,2.39-5-.47-6.78-4.47-7.69a49,49,0,0,0-9.49-1.23q-11.38-.25-22.79,0c-14.19.3-24.92,11-25.12,25.18-.19,13.84,0,27.69,0,41.53,0,1.18.43,2.65-.11,3.49a37.27,37.27,0,0,1-4.15,4.68c-1.29-1.5-3.66-3-3.69-4.51-.22-16.2-.73-32.45.15-48.61.89-16.43,15.24-29.38,31.68-29.86,9.1-.27,18.26-.49,27.33.12C114.31,128.26,119.62,130.3,125.72,131.76Z" transform="translate(-2.19 -1.97)"/><path class="cls-3" d="M255.17,130.84c0,13.45-9.38,23.29-22.06,23.2s-21.62-9.94-21.55-23.62c.07-13.24,9.26-23,21.71-23C245.9,107.42,255.19,117.35,255.17,130.84Z" transform="translate(-2.19 -1.97)"/><path class="cls-3" d="M270.53,198.21c0,5.74.32,11.51-.18,17.21-.17,1.93-2.18,5-3.75,5.25-3.44.62-4.23-2.34-4.22-5.36q.06-15.7,0-31.41c-.06-12.45-7.4-19.75-19.88-19.84-4.89,0-9.84-.45-14.67.13a53.94,53.94,0,0,0-12.92,3.42c-2.66,1-5.24,2-6.4-1-.58-1.49.61-5,2-5.67,4.46-2.15,9.25-4.24,14.1-4.8,6.83-.79,13.82-.39,20.74-.15a26.06,26.06,0,0,1,25.14,25c.25,5.73,0,11.48,0,17.22Z" transform="translate(-2.19 -1.97)"/></svg>