<svg id="Layer_1" data-name="Layer 1" xmlns="http://www.w3.org/2000/svg" xmlns:xlink="http://www.w3.org/1999/xlink" viewBox="0 0 316.81 316.81"><defs><style>.cls-1{fill:none;stroke-miterlimit:10;stroke-width:4px;stroke:url(#linear-gradient);}.cls-2{fill:#0072ba;}.cls-3{fill:#4fc3a0;}.cls-4{fill:#fff;}</style><linearGradient id="linear-gradient" y1="158.4" x2="316.81" y2="158.4" gradientUnits="userSpaceOnUse"><stop offset="0" stop-color="#0072ba"/><stop offset="1" stop-color="#4fc3a0"/></linearGradient></defs><circle class="cls-1" cx="158.4" cy="158.4" r="156.4"/><path class="cls-2" d="M190.09,84.28c2.6-2,4.81-3.93,7.16-5.62C212.06,68,228.19,67.88,243,78.49a48.59,48.59,0,0,1,9.52,8.44c27.89,34.23,35.73,72.81,20.53,114.16-14,38.14-57.41,67.14-95.91,67.35-16.85.09-31.59-5.67-44.72-15.88-6.36-4.95-12.39-10.34-18.75-15.3-8.78-6.85-16-4.14-18.45,6.84a26.76,26.76,0,0,0-.47,5.67c0,5.64-1.53,7.23-7.28,7.33-7.14.12-14.08-.83-20.41-4.35-8.62-4.8-11.53-11.18-8.35-20.4a108.63,108.63,0,0,1,9.21-20.79c7.32-12.14,18.67-18.92,32.84-18.84,11.52.05,23,2,34.55,3a131.93,131.93,0,0,0,14,.65c9.18-.19,15.9-4.82,18.89-13.3a122.26,122.26,0,0,0,5-21.74,66.73,66.73,0,0,0-8.1-44.54C158.73,105.44,152.48,94,149.77,81a73.39,73.39,0,0,1,.84-32.7c.89-3.67,2.88-5.42,6.82-5.33,7.78.17,15.56,0,23.33.06,5.1,0,6.46,1.88,6.58,7,.22,9.79.8,19.56,1.36,29.33C188.79,80.88,189.53,82.37,190.09,84.28ZM174.51,237.21a74.07,74.07,0,0,0,35.1-10.57,75.63,75.63,0,0,0,9.38-6.49c.78-.64.62-2.46.89-3.73-1.3-.15-2.7-.66-3.87-.35s-2.15,1.48-3.24,2.21c-15.1,10.16-31.19,16.08-49.76,11.9-1.16-.26-2.64.94-4,1.46,1,1.17,1.78,3.08,3,3.38C166.11,236.05,170.34,236.52,174.51,237.21Z" transform="translate(-2.19 -1.97)"/><path class="cls-3" d="M90.13,154.85c-7.17,0-13.62,0-20.06,0-5.69,0-7.23-1.6-7.26-7.38,0-8.21-.05-16.42,0-24.63,0-5.12,1.73-6.75,6.93-6.8,6.3-.06,12.61,0,18.91-.07a8.69,8.69,0,0,0,1.47-.45c0-6.17,0-12.57,0-19s1.37-7.82,7.65-7.84c8.06,0,16.12,0,24.19,0,5.07,0,6.82,1.8,6.87,6.92.06,6.58,0,13.17,0,20.38,6.53,0,12.78,0,19,0s7.79,1.37,7.81,7.69q0,11.88,0,23.75c0,5.83-1.54,7.34-7.26,7.37-6.29,0-12.58,0-19.58,0,0,6.33,0,12.42,0,18.5,0,6.88-1.38,8.27-8.19,8.29q-11.22,0-22.44,0c-6.86,0-8.08-1.3-8.1-8.32C90.12,167.34,90.13,161.37,90.13,154.85Z" transform="translate(-2.19 -1.97)"/><path class="cls-4" d="M174.51,237.21c-4.17-.69-8.4-1.16-12.49-2.19-1.2-.3-2-2.21-3-3.38,1.33-.52,2.81-1.72,4-1.46,18.57,4.18,34.66-1.74,49.76-11.9,1.09-.73,2-1.89,3.24-2.21s2.57.2,3.87.35c-.27,1.27-.11,3.09-.89,3.73a75.63,75.63,0,0,1-9.38,6.49A74.07,74.07,0,0,1,174.51,237.21Z" transform="translate(-2.19 -1.97)"/></svg>