<svg id="Layer_1" data-name="Layer 1" xmlns="http://www.w3.org/2000/svg" xmlns:xlink="http://www.w3.org/1999/xlink" viewBox="0 0 316.81 316.81"><defs><style>.cls-1{fill:none;stroke-miterlimit:10;stroke-width:4px;stroke:url(#linear-gradient);}.cls-2{fill:#010101;}.cls-3{fill:#0072ba;}.cls-4{fill:#4fc3a0;}.cls-5{fill:#010202;}.cls-6{fill:#4aadd9;}.cls-7{fill:#fff;}.cls-8{fill:#050505;}</style><linearGradient id="linear-gradient" y1="158.4" x2="316.81" y2="158.4" gradientUnits="userSpaceOnUse"><stop offset="0" stop-color="#0072ba"/><stop offset="1" stop-color="#4fc3a0"/></linearGradient></defs><circle class="cls-1" cx="158.4" cy="158.4" r="156.4"/><path class="cls-2" d="M265.22,190.64v7c-2.19,1.92-4.75,1.19-7.19.92-21-2.29-38.1-11.9-51.73-27.82a10.4,10.4,0,0,0-8.85-3.83c-11.37.17-22.74.14-34.11,0a11,11,0,0,0-8.67,3.48c-6.15,6.37-12.52,12.53-18.75,18.83-4.83,4.89-5.28,10.2-1.31,14.48s10.6,4.46,15.41-.16c8.51-8.19,16.74-16.66,25.11-25,1-1,2.13-2,3.14-3.12,2.33-2.43,4.44-2.3,6.78.11s1.84,4.33-.27,6.45c-8.75,8.8-17.55,17.54-26.3,26.32a17.3,17.3,0,0,0-4.44,6c-1.6,4.29-.7,8.47,2.5,11.35s7.38,3.38,11.57,1.41a19.29,19.29,0,0,0,5.16-4.13q13-13,26-26c2.19-2.2,4.24-3.05,6.75-.42s2.65,4-.35,7.07c-7.65,7.8-15.43,15.47-23.15,23.2-1.66,1.68-3.41,3.27-5,5.06-4.24,4.9-4.11,11.06.26,15.06,4.22,3.86,9.44,3.45,14.17-1.05,2.79-2.65,5.21-5.62,7.77-8.48,2-2.19,4.25-3.59,6.36,0,1.92,1.61,2.65,3,.32,5.17-3.11,2.92-5.69,6.39-8.69,9.45-5.59,5.7-12.36,7.56-19.84,4.64S166.51,248,166.24,240c-.09-2.66-.59-3.32-3.35-3.4-10.18-.26-17.47-7.83-18-18.16-.07-1.3.74-3-1.85-3-10.47,0-16.62-5.68-19.48-15.63-2.89,1.54-4.05,3.74-3.51,6.78,1.83,10.15-2.35,17.33-9.88,24.1-9.88,8.89-18.76,18.85-31.79,23.38A70.2,70.2,0,0,1,58,258c-3.72.14-5.43-1.23-5.38-5.11.13-9.6.15-19.2,0-28.79,0-2.75,1.36-4.34,3.05-6,14.63-14.61,29.23-29.23,44.15-44.15-4.89-1.34-9.06-3.35-12.09-7.2a18.24,18.24,0,0,1,.85-24c8-8.45,16.52-16.48,24.64-24.86,2-2.06,2.89-.55,4.16.49,3.62,2,3.84,3,.78,6.13-6.37,6.58-12.92,13-19.38,19.45a53.89,53.89,0,0,0-4,4.15c-3.69,4.63-3.5,10.8.41,14.51s9.72,3.64,14.19.08a30.29,30.29,0,0,0,2.27-2.12q29.13-29.11,58.24-58.26c.68-.68,1.7-1.18,1.81-2.6-6.36-.1-12.69-.4-19,.14-7.52.64-13.78,4.08-19.13,9.3a57.75,57.75,0,0,1-4.79,4.6c-2.16,1.68-4,1.83-5.13-1.21-1.91-1.76-1.91-3,0-5.21,10.26-11.66,22.86-17.12,38.42-16,5.42.38,10.9-.11,16.35.12a8.27,8.27,0,0,0,6.87-2.93c5.82-6.06,12-11.78,17.69-17.94,2.2-2.37,3.64-2.06,5.51-.09,2.77.51,2.83,2.19,1.69,4.2A18.79,18.79,0,0,1,207,78.31q-20,20-40,40.05c-1,1-2.29,1.83-3,3.78,8.57-.06,16.91.17,25.26-.18,2.06-.08,3.38-1.61,4.8-2.92,12.9-11.89,25.3-24.3,37.64-36.77,3.42-3.46,7.56-6.14,10.73-9.87,2.24-2.64,4.18-5.41,4-9.08-.52-8.12-8.92-12.17-16-7.64-4.25,2.74-7.26,6.89-11,10.21-3.11,2.74-4.21,2.47-6.11-1.36-.63-1.22-1.89-2.17-.19-3.75,3.46-3.21,6.48-6.91,10-10,8.5-7.39,19.63-7.12,26.67.38s6.35,18.87-1.65,27c-4.21,4.26-8.24,8.71-12.53,13.27h23.11c6.91,0,6.91,0,6.55,7.06-1.67,1.63-3.82,1.33-5.86,1.34-8.7,0-17.41.16-26.11,0A12.64,12.64,0,0,0,223.09,104c-5.66,6-11.62,11.64-17.78,17.92,6.84,0,13,0,19.18,0,6.4.1,7.66,2,5.85,8.37a3.28,3.28,0,0,1-1.31.93,22.77,22.77,0,0,1-6.16.37q-28.53,0-57.06,0a17.84,17.84,0,0,0-5.69.46c-7.26,2.12-11.08,7.26-10.27,13.84s6.41,11.34,13.65,11.44c12.38.17,24.77.2,37.14,0a13.15,13.15,0,0,1,11.44,5.35c12.61,16.08,29.17,24.86,49.48,26.64A5.29,5.29,0,0,1,265.22,190.64Z" transform="translate(-2.19 -1.97)"/><path class="cls-3" d="M206.13,237.44c-2-2.16-3.53-1.62-5.23.53-2.1,2.66-4.49,5.1-6.77,7.61-5.62,6.2-12.31,7-17.35,2.15s-4.71-11.89.93-17.56Q191.3,216.51,205,202.94c1.78-1.76,2.76-2.88.36-5.19s-3.43-2-5.52.14c-9,9.19-18.1,18.23-27.21,27.28-5.56,5.52-12.41,5.9-17.24,1.09s-4.52-11.72,1-17.24c9-9.12,18.1-18.23,27.28-27.22,2-2,2.6-3.11.28-5.52-2.56-2.66-3.69-1.27-5.5.56q-13.86,14-27.89,27.87c-5,4.88-12,4.82-16.58.09a10.77,10.77,0,0,1,0-15.47c7.43-7.39,15-14.64,22.47-22a5.42,5.42,0,0,1,4.3-1.62c12.85.13,25.69.21,38.54.06a8.16,8.16,0,0,1,7.16,3.22c11.73,14.29,26.47,23.77,44.77,27.34a64,64,0,0,0,14.08,1.36l.06,6.87a14,14,0,0,0-6.43,3.47,31.47,31.47,0,0,1-20.81,8.59,78.74,78.74,0,0,1-10.19,0,11.21,11.21,0,0,0-10.39,4.63c-1.74,2.2-3.33,4.59-5.54,6.31-2,1.57-1.25,3.71-1.68,5.6Z" transform="translate(-2.19 -1.97)"/><path class="cls-3" d="M265.22,190.64c-21.16-.42-38.72-8.66-52.13-24.94-4.36-5.29-8.89-7.49-15.78-7.14-11.63.6-23.32.29-35,.09a14.24,14.24,0,0,1-13.85-12.54c-.77-6.93,3.39-13,10.31-14.93,1.57-.66,3.21-.32,4.82-.33q30.78,0,61.57,0c1.56,0,3.25.55,4.71-.54l-.09.08c.34-4,2.8-5.07,6.5-5,8.5.11,17,.06,25.51,0a6.29,6.29,0,0,1,3.41.63Z" transform="translate(-2.19 -1.97)"/><path class="cls-3" d="M123.67,112.56c2,2.28,3.6,1.82,5.55-.42,6.68-7.73,14.65-13.31,25.32-13.58,6.49-.17,13,0,19.5,0,.52,1.6-.92,2-1.63,2.76Q142.08,131.7,111.69,162c-5.75,5.74-12.66,6.17-17.55,1.19S89.8,151.5,95.6,145.67c7.18-7.21,14.26-14.53,21.66-21.52,2.42-2.29,2.52-3.79.12-5.76Z" transform="translate(-2.19 -1.97)"/><path class="cls-4" d="M213.23,64.53c2.26,3.39,4.24,2.6,6.54-.15a68.58,68.58,0,0,1,7.95-8.3c5.87-5,12.59-4.81,17,.14s3.78,11.54-1.71,16.91q-24.69,24.15-49.46,48.23a5.5,5.5,0,0,1-4.19,2c-9.27-.1-18.54,0-28.53,0,1.34-1.47,2.23-2.53,3.21-3.5q22.06-22.09,44.2-44.12c1.89-1.88,2.6-3.28.32-5.16Z" transform="translate(-2.19 -1.97)"/><path class="cls-3" d="M265.22,126c-1.73,1.15-3.69.85-5.59.85-7.83,0-15.65.14-23.47-.06-3-.07-5.45.22-6.36,3.58.29-7.06.29-7.06-6.61-7.07H203l-1-1.17a58.57,58.57,0,0,0,4.62-3.63c6-5.7,11.93-11.39,17.68-17.28a8.71,8.71,0,0,1,7-2.76c11.33.12,22.66,0,34,0Z" transform="translate(-2.19 -1.97)"/><path class="cls-5" d="M210.25,233.13c-2.23-1.78-1.91-3-.18-5.5,6.62-9.42,14.72-13.93,26.73-12.44,9.17,1.13,17.28-3.17,23.53-10.07,1.81-2,3.09-2.18,5-.57,3,1.71,2.5,3.33.3,5.57-7.68,7.79-16.92,12.88-27.78,12.14-9.94-.68-17.3,1.91-22.49,10.38C213.82,235.09,212.15,235.18,210.25,233.13Z" transform="translate(-2.19 -1.97)"/><path class="cls-4" d="M141.16,143.25c.54,9.15,2.18,12.41,8,17.87-10.67,11.51-21.25,23.19-32.19,34.53-2.89,3-4.83,5.85-4.06,10,1.61,8.71-1.75,15.12-8.51,20.52C99.6,230,95.64,235,90.88,238.88c-8,6.64-17.48,10.21-27.8,11.64-2.42.34-3.44.09-3.36-2.71.18-7.08.1-14.17,0-21.25a5.36,5.36,0,0,1,1.69-4.27q39.36-39.22,78.63-78.54A4.8,4.8,0,0,1,141.16,143.25Z" transform="translate(-2.19 -1.97)"/><path class="cls-6" d="M229.89,130.27c-.79,1.2-2,1-3.19,1l-67.91-.08c1.88-1.25,4-.77,6-.78Q197.36,130.3,229.89,130.27Z" transform="translate(-2.19 -1.97)"/><path class="cls-7" d="M227.86,79.29c-1.38-.14-7.44-6.43-7.07-6.86,1.39-1.6,2.52-3.6,4.7-4.27.71-.22,6.84,6.31,6.47,6.75C230.6,76.54,229.07,78,227.86,79.29Z" transform="translate(-2.19 -1.97)"/><path class="cls-7" d="M214.44,78.69c.88,0,7.14,6.06,6.85,6.65a11.6,11.6,0,0,1-4.45,4.53c-.52.33-6.94-6-6.66-6.6C211.13,81.27,213,80,214.44,78.69Z" transform="translate(-2.19 -1.97)"/><path class="cls-8" d="M210.72,96.43c-1.26,1.2-2.75,2.73-4.38,4.09-.43.37-7-5.76-6.75-6.48.68-2.17,2.67-3.3,4.28-4.69C204.3,89,210.58,95,210.72,96.43Z" transform="translate(-2.19 -1.97)"/><path class="cls-7" d="M200.08,106.85c-1.31,1.53-2.59,3.3-4.56,4.28-.58.29-6.93-6.11-6.62-6.64a11.65,11.65,0,0,1,4.52-4.48C194,99.71,200.1,106,200.08,106.85Z" transform="translate(-2.19 -1.97)"/><path class="cls-7" d="M189.45,117.61c-1.46,1.32-2.54,3.33-4.65,4.12-.67.25-6.91-6.22-6.56-6.7,1.29-1.7,2.55-3.54,4.63-4.36C183.53,110.41,189.52,116.7,189.45,117.61Z" transform="translate(-2.19 -1.97)"/><path class="cls-7" d="M108,210.87a13.65,13.65,0,0,1-1.28,1.41c-9.89,8.09-18.47,17.83-29.9,24a40.78,40.78,0,0,1-5.21,2.39c-1.55.58-3.43,2.5-4.42-.79-.74-2.44-2.33-4.49,1.88-5.9,8.71-2.92,15.21-9.36,21.93-15.32,3.41-3,6.83-6.06,10.34-9,.74-.62,1.38-2.38,2.76-1.14A51.12,51.12,0,0,1,108,210.87Z" transform="translate(-2.19 -1.97)"/><path class="cls-7" d="M139.17,167.91c-.89.07-7.19-5.9-6.94-6.58.78-2.1,2.66-3.32,4.34-4.64.46-.37,7,5.85,6.71,6.54C142.52,165.36,140.47,166.41,139.17,167.91Z" transform="translate(-2.19 -1.97)"/><path class="cls-7" d="M128.6,178.53c-1.38-.14-7.44-6.43-7.07-6.86,1.39-1.6,2.52-3.59,4.7-4.27.72-.22,6.85,6.31,6.48,6.75C131.35,175.78,129.81,177.27,128.6,178.53Z" transform="translate(-2.19 -1.97)"/></svg>