<svg id="Layer_1" data-name="Layer 1" xmlns="http://www.w3.org/2000/svg" xmlns:xlink="http://www.w3.org/1999/xlink" viewBox="0 0 316.81 316.81"><defs><style>.cls-1{fill:none;stroke-miterlimit:10;stroke-width:4px;stroke:url(#linear-gradient);}.cls-2{fill:#0072ba;}.cls-3{fill:#feb59e;}.cls-4{fill:#2044b3;}.cls-5{fill:#4fc3a0;}.cls-6{fill:#2145b4;}.cls-7{fill:#fd8b5e;}.cls-8{fill:#fa8d62;}.cls-9{fill:#0f0a0e;}.cls-10{fill:#42a081;}.cls-11{fill:#fdfcfb;}.cls-12{fill:#070b6d;}.cls-13{fill:#090706;}.cls-14{fill:#573022;}.cls-15{fill:#543328;}</style><linearGradient id="linear-gradient" y1="158.4" x2="316.81" y2="158.4" gradientUnits="userSpaceOnUse"><stop offset="0" stop-color="#0072ba"/><stop offset="1" stop-color="#4fc3a0"/></linearGradient></defs><circle class="cls-1" cx="158.4" cy="158.4" r="156.4"/><path class="cls-2" d="M140.6,241.63c-6.4-6.21-12.89-12.31-17.18-20.32-3.75-7-6.75-14.27-7.82-22.22.93-30.86,17.52-51,44.07-64.29,1.18-.59,2.38-1.17,3.6-1.66,3.94-1.59,5.88-4.26,5-8.62a4.4,4.4,0,0,1,.15-2.61c1.52-2.39,4.14-1.83,6.36-2.33a58.78,58.78,0,0,0,7.5-1.78c-12.3.37-22.45-2.83-31.26-10-2.75-6.94-1.4-12,4.47-16,3.38-2.29,7-4.3,10.45-6.43,1.73-1,3.64-1,5.56-1,5.74,0,11.47.17,17.2-.08,10.27-.46,18.67-8.81,19.8-19,.35-3.22-.23-6.81,2.26-9.58l8.84-.12c1.29,1.67,1.14,3.63.92,5.5-1.69,14.75,1.61,27.94,11.92,39a5.36,5.36,0,0,1,1.79,3.9c-1.59,6.56-4,12.89-6.2,19.25-2,5.69-3.26,11.57-5,17.31-1,2-3,2.85-4.86,3.63-10.77,4.46-21,10.12-31.49,15.15A101.5,101.5,0,0,1,162,167.5a17.37,17.37,0,0,0-2.16.5c-1.69.54-3.83,1-3.29,3.35.65,2.78,2.89,1.76,4.72,1.33.72-.17,1.41-.45,2.13-.6,1.35-.29,2.78-.45,3.52,1,.89,1.69-.36,2.89-1.51,3.73-4.41,3.22-8.7,6.59-13,9.89s-9.51,5.5-12.22,10.58c-.1,2.8,1.57,3.73,4,3.77,1.25,0,2.58-.48,3.58.73,0,1.9-1.78,2.6-2.74,3.83s-1.6,2.53-.81,4.07a3.18,3.18,0,0,0,3.69,1.83c7.6-1.82,15.23-3.65,22.36-6.9,3-1.36,5-4.18,6.47-7.11,2.67-5.3,6.95-8.58,12.33-10.83,8-3.36,15.77-7.4,23.79-10.78,4.08-1.72,5.85-4,5.33-8.32a26.36,26.36,0,0,1-.16-4.87c.37-.94.84-1.65,1.91-.71-.92,24.09,5.24,46.55,15,68.34a168.42,168.42,0,0,1,12.2,39.56c.59,3.31-.4,3.74-3.17,3.61-4.11-.19-8.24-.13-12.36-.18-10.32-.46-20.56-1.27-30.14-5.76-5.13-2.4-10-5.18-13.75-9.45a8.68,8.68,0,0,0-6.13-3c-10-1-20.08-1.32-29.47-5.34C147.76,247.93,142.73,246.77,140.6,241.63Z" transform="translate(-2.19 -1.97)"/><path class="cls-3" d="M233.44,103.88a3.5,3.5,0,0,0-1.43-2.61c-11.09-11-14.38-24.48-12.91-39.55.2-2,.32-4.1.48-6.15,5.44,0,10.89.06,16.33-.13,2.42-.09,3.69.64,4.5,3q12.48,36.22,25.11,72.39c.81,2.34,1.64,4.75,0,7.12-5.61,0-10,3.48-14.71,5.64-22.68,10.31-45.22,20.93-67.88,31.29a18.39,18.39,0,0,0-9,8.79c-2.75,5.54-7.23,8.73-13.1,10.32-5.41,1.47-10.78,3.06-16.15,4.67-2.08.62-4.41,1.3-5.8-1.4-.16-2.55,1.89-3.53,3.49-4.72,6.71-5,13.5-9.92,20.22-14.92,1.49-1.11,2.79-2.49,4.52-4.06-2.66-1.26-4.46,0-6.26.61-2.79.93-5.22.71-6-2.47-.68-2.93,1.32-4.25,4-4.7,23.18-3.9,42.56-16.87,63.33-26.54,4.33-4,10-5.61,15-8.33,4.82-2.61,4.87-2.65,3.12-7.79C238,117.54,234.41,111.14,233.44,103.88Z" transform="translate(-2.19 -1.97)"/><path class="cls-4" d="M140.6,241.63c9.07,8,20.33,10,31.77,11.41,3.92.48,7.89.61,11.85.86A3.34,3.34,0,0,1,187,255c8.7,11.22,21.34,14.37,34.36,16.67,3.43.61,6.89,1.08,10.33,1.62-30.36.05-60.72.06-91.08.2-2.67,0-3.16-1-3.08-3.37A167.39,167.39,0,0,1,140.6,241.63Z" transform="translate(-2.19 -1.97)"/><path class="cls-5" d="M130,82.93c-.24,7.68.74,16.56-1.87,25.23-5.06,16.76-16.27,27.62-32.22,34a7.46,7.46,0,0,1-5.59,0C69.43,134.54,56.38,116,56.23,93.71c-.06-9.44,0-18.88,0-28.31,0-6.31,2.11-8.33,8.56-8.38,3.69,0,7.38,0,11.06,0,5.71-.07,10.2-2.32,13.36-7.23,2.82-4.37,5-4.37,7.83,0A15.15,15.15,0,0,0,110.4,57c4,0,8,0,11.95,0,5.29.09,7.55,2.29,7.62,7.51C130.05,70.29,130,76.05,130,82.93Z" transform="translate(-2.19 -1.97)"/><path class="cls-6" d="M168.84,121.91c2,7.63,1.33,9.4-5.91,12.66-9.3,4.19-18,9.37-25.26,16.47-10.44,10.17-16.88,22.68-20.32,36.85-.9,3.73,0,7.67-1.75,11.2-3.36-18.87.39-36.07,12.08-51.43,8.7-11.45,21-17.65,33.74-23.17,1.71-.74,4.19-.74,4.69-3.33C167.29,120.41,168.11,121,168.84,121.91Z" transform="translate(-2.19 -1.97)"/><path class="cls-3" d="M167.08,83.85c7.5-7.62,13.84-16,16.67-26.51.54-2,2-1.85,3.42-1.85l21.6.09c2.39,14.72-6.39,27-19.39,28.61C182,85.09,174.49,85.58,167.08,83.85Z" transform="translate(-2.19 -1.97)"/><path class="cls-7" d="M138.84,197.27a6,6,0,0,0,5.1.45c6.32-2,12.68-3.83,19-5.74,3-.92,6.23-2.16,7.43-5.13,4-9.76,12.56-13.44,21.23-17.37,19.32-8.77,38.54-17.76,57.81-26.66,4.14-1.92,8.27-3.88,12.43-5.76,1.38-.62,3.07-2,3.63.9-1.12,3.53-4.27,4.63-7.19,6l-38.36,18-1.42.55c-1.37,2.38-3.93,3-6.16,4-9,3.94-17.78,8.45-26.85,12.29-5,2.12-8.36,6-10.79,10.6A16.44,16.44,0,0,1,163.59,198c-5.35,1.33-10.38,4.07-16.11,3.68C140.83,202.91,139.52,202.24,138.84,197.27Z" transform="translate(-2.19 -1.97)"/><path class="cls-6" d="M168.84,121.91l-2.74-.75c-7-2.16-12.39-6.25-15.1-13.32,1.56-1.2,2.39.31,3.35,1a40,40,0,0,0,27.06,7.52c1.19-.1,2.65-.69,3,.81.4,1.84-1.33,1.92-2.62,2.17Z" transform="translate(-2.19 -1.97)"/><path class="cls-8" d="M167.08,83.85c7.45-.47,14.91.45,22.37-.78,9.48-1.56,17.84-10.13,18.3-19.68a69.77,69.77,0,0,1,1-7.81l2,.11c-.32,3.36-.62,6.73-1,10.09a21.77,21.77,0,0,1-20.88,19.69c-7.64.25-15.29,0-22.94-.07Z" transform="translate(-2.19 -1.97)"/><path class="cls-5" d="M91,154.35c0-.88,0-1.77,0-2.65.12-1.77.69-3.32,2.82-3.19,1.82.12,2.38,1.47,2.36,3.13,0,.74,0,1.48,0,2.21-.25,5.83,1.67,10.7,6.35,14.34,1.49,1.16,2.86,2.55,1.28,4.4s-3.24.66-4.66-.45C93.45,167.61,91,161.54,91,154.35Z" transform="translate(-2.19 -1.97)"/><path class="cls-4" d="M147.48,201.71c5.35-1.64,10.67-3.37,16.06-4.87,4.37-1.22,7.79-3.53,9.84-7.6,3.14-6.24,8.1-10.15,14.53-12.85,10.33-4.32,20.42-9.21,30.61-13.86,1.49,3.23.54,6.67.79,10,.16,2.07-1.77,2.53-3.2,3.19-9.9,4.57-19.73,9.31-29.77,13.55-4.38,1.85-6.52,5.35-8.6,9-2.93,5.16-6.93,8.51-12.92,9.75a128.86,128.86,0,0,0-15.24,4.44c-3,1-5.34.7-6.85-2-1.64-2.95.22-5,2.38-6.79Z" transform="translate(-2.19 -1.97)"/><path class="cls-9" d="M59.11,81.62c0-5.16-.08-10.32,0-15.48.08-4.45,1.77-6.08,6.23-6.17,3.54-.07,7.09-.1,10.62,0,6.26.18,11.25-2.1,14.57-7.49,1.77-2.86,3.19-3.1,5.08-.07,3.33,5.32,8.24,7.76,14.54,7.56,3.83-.12,7.67-.08,11.51,0,3.32.08,5.4,1.9,5.36,5.21-.16,11.94,1.08,23.93-.63,35.79-2.72,18.88-14.09,30.89-31.33,37.92a5.62,5.62,0,0,1-4.28-.14c-19.36-7.13-31.51-24.44-31.69-45.19C59.08,89.59,59.11,85.61,59.11,81.62Z" transform="translate(-2.19 -1.97)"/><path class="cls-5" d="M90.81,136.76c-20.5-8.61-30.42-24-30-46.27.15-7.95.09-15.9,0-23.85,0-3.57,1.49-5.19,5.05-5,1.62.09,3.24,0,4.86,0,13.71,0,13.71,0,22.78-9.87,4.35,8.8,12,10.58,20.84,9.89,1.61-.12,3.23.07,4.85.11,2.45,3.55,1.14,7.49,1.2,11.29-2,4.72-5.15,8.3-10,10.2-1.76-.53-2.85-2-4.2-3.08a21.07,21.07,0,0,0-16.83-4.63,10.23,10.23,0,0,0-7.16,1.2C69.46,84,66.07,96.4,73.77,107.43A19.82,19.82,0,0,0,82.35,114a12.68,12.68,0,0,0,6.9,1.35c6.77.45,12.92-1,17.93-5.88,6.43-6.22,6.32-13.85,4.51-21.81,1.48-4.53,4.38-7.13,8-7.13,3.59,22.32-3.82,44.14-24.63,54.89A35.26,35.26,0,0,1,90.81,136.76Z" transform="translate(-2.19 -1.97)"/><path class="cls-10" d="M119.2,74.12V61.8c5.61-.19,6.29.32,6.16,5.8-.27,11.62,1.22,23.34-.81,34.85-3,17.18-13.72,28.16-29.54,34.62a4.35,4.35,0,0,1-4.2-.31c4.08-3.38,9.2-5.17,13.13-8.82,10.08-9.35,14.82-21,15.21-34.56.12-4.27,0-8.55,0-12.83-.7-1.12.06-2,.65-2.7C121,76.34,120.35,75.21,119.2,74.12Z" transform="translate(-2.19 -1.97)"/><path class="cls-11" d="M89.2,74.51c8.68-1.36,15.65,1.63,21.13,8.36.36,2.73-1.34,3.67-3.6,4.11-2.11-.55-3.24-2.46-5-3.59-6.54-4.31-15-3.44-19.64,2.13-5.24,6.27-5,14.69.67,20.41,5.11,5.2,13.73,5.6,19.75.75,3.93-3.16,5.5-7.5,5.47-12.46a15.9,15.9,0,0,1-.16-3.52c.87-2.07,1.89-4,4.65-3.61,6,13.28-3.67,31.31-23,29.47-2.42-.53-4.9-.86-7.13-2.08C66.76,107.87,67.13,83,82.5,76.17A14.76,14.76,0,0,1,89.2,74.51Z" transform="translate(-2.19 -1.97)"/><path class="cls-12" d="M106.69,86.53a12.22,12.22,0,0,0,3.64-3.66l8.88-8.75c3.71-.08,4.28,1.33,1.92,4.1l-2,2.32-6.6,6.55-4,4.07c-3.15,5.08-7.81,8.73-12,12.78-1.61,1.54-3.57,1.3-5.2-.15A83.3,83.3,0,0,1,82,94.39c-1.22-1.49-2.31-3.38-.43-5.09s3.57-.54,5.08.77a63.36,63.36,0,0,1,5,4.94c1.94,2.06,3.54,1.91,5.58,0C100.3,92.08,102.69,88.39,106.69,86.53Z" transform="translate(-2.19 -1.97)"/><path class="cls-13" d="M82.94,76.65C68,87,68,104,82.9,114.09c.14.78-.1,1.17-1,.92-8.57-3.64-13.17-10.17-13.24-19.41C68.62,86.17,73.26,79.52,82,75.78,82.84,75.46,83,75.89,82.94,76.65Z" transform="translate(-2.19 -1.97)"/><path class="cls-14" d="M82.94,76.65l-1-.87a8.15,8.15,0,0,1,7.22-1.27Z" transform="translate(-2.19 -1.97)"/><path class="cls-15" d="M82,115l1-.92,6.6,2.47C86.85,116.67,84.23,116.69,82,115Z" transform="translate(-2.19 -1.97)"/><path class="cls-2" d="M106.69,86.53c-3.57,3.68-7.2,7.3-10.69,11.06-1.37,1.46-2.25,1.28-3.52-.09-2.3-2.47-4.75-4.81-7.15-7.18-1-1-2.1-1.78-3.41-.49s-.44,2.42.52,3.4c3.1,3.13,6.29,6.18,9.31,9.38,1.86,2,3.28,1.82,5.12-.07,3.78-3.88,7.74-7.59,11.63-11.38,2.07,8.2-1.84,16.13-9.42,19.13a16.06,16.06,0,1,1,5.59-26.09C105.39,84.92,106,85.75,106.69,86.53Z" transform="translate(-2.19 -1.97)"/></svg>