<svg id="Layer_1" data-name="Layer 1" xmlns="http://www.w3.org/2000/svg" xmlns:xlink="http://www.w3.org/1999/xlink" viewBox="0 0 316.81 316.81"><defs><style>.cls-1{fill:none;stroke-miterlimit:10;stroke-width:4px;stroke:url(#linear-gradient);}.cls-2{fill:#0072ba;}.cls-3{fill:#4fc3a0;}.cls-4{fill:#fff;}</style><linearGradient id="linear-gradient" y1="158.4" x2="316.81" y2="158.4" gradientUnits="userSpaceOnUse"><stop offset="0" stop-color="#0072ba"/><stop offset="1" stop-color="#4fc3a0"/></linearGradient></defs><circle class="cls-1" cx="158.4" cy="158.4" r="156.4"/><path class="cls-2" d="M160.19,256.06H73.71c-6.79,0-7.6-.79-7.6-7.38q0-47.73,0-95.47c0-2.58.18-4.45,2.93-6.11q43.67-26.25,87.07-52.95c3-1.85,5.08-1.72,8,.08C193,112,222.1,129.59,251,147.39a6.89,6.89,0,0,1,2.77,5c.16,32.33.13,64.65.11,97,0,5.79-1,6.71-7.25,6.71Q203.43,256.08,160.19,256.06ZM159,155.23a3.89,3.89,0,0,0-.67-.93c-7.67-7.9-17.25-10.32-26.33-6.68-9.3,3.73-15.16,13-15,23.78.09,9,3.51,16.87,8.6,24.06,8.23,11.63,19.1,20.36,31.32,27.4a7.49,7.49,0,0,0,6.33,0c12.65-7.33,23.88-16.37,32.15-28.65,5.15-7.62,8.29-15.92,7.73-25.31-.93-15.49-15.27-26.37-29.62-21.86C168.57,148.59,164.33,152.13,159,155.23Z" transform="translate(-2.19 -1.97)"/><path class="cls-3" d="M262.38,126.31c0,2.83.07,5.66,0,8.49-.16,5.88-3,7.53-8,4.51-12.83-7.74-25.6-15.58-38.39-23.37-17.35-10.56-34.76-21-52-31.76-3-1.88-5.11-1.65-8,.13q-44.26,27.16-88.75,54c-2.07,1.25-5.47,2.55-7.1,1.67s-2.19-4.43-2.34-6.87a100.16,100.16,0,0,1,.07-16c.22-2.25,1.71-5.21,3.54-6.34q47.4-29.23,95.15-57.9a8.37,8.37,0,0,1,7.2.08q47.74,28.67,95.15,57.89c1.73,1.07,3,3.81,3.37,6C262.8,119.9,262.38,123.14,262.38,126.31Z" transform="translate(-2.19 -1.97)"/><path class="cls-2" d="M241.06,89.92c-8.48-5.16-16-9.64-23.4-14.38a5.7,5.7,0,0,1-2.13-4c-.25-4.79-.06-9.62-.1-14.43,0-3.85,1.61-5.89,5.66-5.82,5,.09,10,0,14.94,0,3.16,0,5,1.53,5,4.84C241.07,67.1,241.06,78,241.06,89.92Z" transform="translate(-2.19 -1.97)"/><path class="cls-3" d="M159,155.23c5.35-3.1,9.59-6.64,14.46-8.17,14.35-4.51,28.69,6.37,29.62,21.86.56,9.39-2.58,17.69-7.73,25.31-8.27,12.28-19.5,21.32-32.15,28.65a7.49,7.49,0,0,1-6.33,0c-12.22-7-23.09-15.77-31.32-27.4-5.09-7.19-8.51-15.05-8.6-24.06-.11-10.8,5.75-20.05,15-23.78,9.08-3.64,18.66-1.22,26.33,6.68A3.89,3.89,0,0,1,159,155.23Zm5.23,34.3h7.11c3,0,5.56-.84,5.62-4.26s-2.44-4.4-5.44-4.41c-2.27,0-4.54,0-7.28,0,0-3.14.54-5.78-.17-8-.57-1.79-2.65-3.1-4.06-4.63-1.39,1.55-3.48,2.89-4,4.68-.7,2.37-.18,5.1-.18,8-2.69,0-4.51,0-6.33,0-3.22,0-6.43.38-6.36,4.47.06,3.73,3.09,4.24,6.14,4.22,2.07,0,4.15,0,6.57,0,0,3.34-.5,6,.16,8.25.48,1.68,2.48,2.93,3.8,4.37,1.47-1.46,3.66-2.68,4.24-4.43C164.77,195.49,164.21,192.83,164.21,189.53Z" transform="translate(-2.19 -1.97)"/><path class="cls-4" d="M164.21,189.53c0,3.3.56,6-.18,8.19-.58,1.75-2.77,3-4.24,4.43-1.32-1.44-3.32-2.69-3.8-4.37-.66-2.29-.16-4.91-.16-8.25-2.42,0-4.5,0-6.57,0-3,0-6.08-.49-6.14-4.22-.07-4.09,3.14-4.52,6.36-4.47,1.82,0,3.64,0,6.33,0,0-2.87-.52-5.6.18-8,.52-1.79,2.61-3.13,4-4.68,1.41,1.53,3.49,2.84,4.06,4.63.71,2.25.17,4.89.17,8,2.74,0,5,0,7.28,0,3,0,5.5,1,5.44,4.41s-2.67,4.25-5.62,4.26Z" transform="translate(-2.19 -1.97)"/></svg>