<svg id="Layer_1" data-name="Layer 1" xmlns="http://www.w3.org/2000/svg" xmlns:xlink="http://www.w3.org/1999/xlink" viewBox="0 0 312.8 312.8"><defs><style>.cls-1{fill:none;stroke-miterlimit:10;stroke-width:3.95px;stroke:url(#linear-gradient);}.cls-2{fill:#4fc3a0;}.cls-3{fill:#0072ba;}.cls-4{fill:#fff;}</style><linearGradient id="linear-gradient" x1="2" y1="159.6" x2="314.8" y2="159.6" gradientTransform="matrix(1, 0, 0, -1, -2, 316)" gradientUnits="userSpaceOnUse"><stop offset="0" stop-color="#0072ba"/><stop offset="1" stop-color="#4fc3a0"/></linearGradient></defs><circle class="cls-1" cx="156.4" cy="156.4" r="154.43"/><path class="cls-2" d="M75.3,100.84c9.24,17,6,29.79-8.81,38.34,4.89,6.58,11.29,11.94,13.11,18.55S78.52,172,77.59,180c16.81.21,26.3,9.45,26.52,28.22,12.45-4.7,24.21-8.86,33.61,4l-10.34,16.69c-3.45-9-9.09-6.06-15-4.06-14.35,4.83-23.39-.1-25.93-15-1.31-7.65-4.22-10.92-12.11-12.2C59.4,195.22,54.16,186,59.41,171.82c2.63-7.1,1.92-11.22-4.24-16.22-12-9.76-11.93-20.61.07-30.47,5.86-4.81,7.95-9.13,4.08-15.76a7.38,7.38,0,0,1-.56-1.64c-3.76-13,1.09-22.14,14.39-24.32C81.62,82,85.39,78.89,86.69,70c2-13.54,11.59-19.08,24.48-14.19,8.21,3.12,12.78,1.84,18.32-5,8.68-10.67,19.6-10.63,28.38,0,5.5,6.61,10,8.26,18.34,5,13-5,22.37.69,24.58,14.6,1.32,8.31,4.74,11.54,13,12.87,13.83,2.23,19.43,11.69,14.44,24.73-3.1,8.08-1.82,12.57,4.84,18,10.4,8.47,10.34,19.73,1.86,26.85-6.17-5.74-12.18-11.5-18.38-17-10.46-9.36-12-15-7.44-28.4.6-1.77,1.17-3.55,1.54-4.67-7-3-15.14-4.49-20-9.31s-6.19-12.85-9.41-20.23c-14.82,8.24-27.68,4.62-36.42-9.91-6.52,4.84-11.89,11.22-18.52,13-6.45,1.78-14.19-1.11-22.1-2C103.86,91.11,94.72,100.71,75.3,100.84Z" transform="translate(-2 -2)"/><path class="cls-3" d="M203.5,265.33c-15.75,0-31.49-.06-47.24,0-6.63,0-11.89-2.37-15.15-8.2s-2.42-11.55,1.07-17.18q23.72-38.28,47.27-76.67c7.44-12.07,21.24-12.17,28.64-.18,15.85,25.67,31.6,51.4,47.48,77.05,3.5,5.66,4.24,11.36.87,17.17-3.26,5.6-8.37,8-14.84,8C235.56,265.28,219.53,265.33,203.5,265.33Zm-8.86-64.63c0,4.47-.09,8.94,0,13.41.14,5.6,3.93,9.5,9.08,9.54a9.14,9.14,0,0,0,9.25-9.39q.21-13.62,0-27.25c-.07-5.61-3.91-9.44-9.12-9.48s-9,3.68-9.21,9.33C194.55,191.47,194.65,196.09,194.64,200.7Zm0,41.5a9.17,9.17,0,0,0,9,9.2,9.28,9.28,0,0,0,9.42-9.22,9.14,9.14,0,0,0-9.44-9.13A9,9,0,0,0,194.66,242.2Z" transform="translate(-2 -2)"/><path class="cls-3" d="M162.9,170.78a22.39,22.39,0,0,1-14.63-21.55,23.3,23.3,0,0,1,16.8-21.79c10.05-2.85,20,1,26.27,10.7C175.74,143.67,171.6,159.22,162.9,170.78Z" transform="translate(-2 -2)"/><path class="cls-3" d="M118.54,119.94a13.86,13.86,0,0,1-13.66,13.95,14.06,14.06,0,0,1-14-14.09,13.86,13.86,0,0,1,14-13.63A13.66,13.66,0,0,1,118.54,119.94Z" transform="translate(-2 -2)"/><path class="cls-3" d="M111.23,172.48c-5.21.51-8.51-1.52-9.11-5.62s2.34-7.47,7.47-8.26A21.7,21.7,0,0,1,134.38,185c-1,4.41-4.06,6.83-7.88,6.24-4-.61-6.3-4-5.73-8.61C121.65,175.44,118.2,171.79,111.23,172.48Z" transform="translate(-2 -2)"/><path class="cls-3" d="M151,110.73a23.49,23.49,0,0,1-15.8-6.1C132.06,101.79,131.64,98,134,95s6.42-3.49,10-1c5.71,4,8.23,4,14.07,0,3.62-2.46,7.66-2,10,1.08s1.83,6.82-1.3,9.67A23.36,23.36,0,0,1,151,110.73Z" transform="translate(-2 -2)"/><path class="cls-4" d="M194.65,200.7c0-4.61-.1-9.23,0-13.84.16-5.65,3.93-9.38,9.21-9.33s9.05,3.87,9.12,9.48q.18,13.62,0,27.25a9.14,9.14,0,0,1-9.25,9.39c-5.15,0-8.94-3.94-9.08-9.54C194.55,209.64,194.64,205.17,194.65,200.7Z" transform="translate(-2 -2)"/><path class="cls-4" d="M194.66,242.2a9,9,0,0,1,8.93-9.15,9.14,9.14,0,0,1,9.44,9.13,9.28,9.28,0,0,1-9.42,9.22A9.17,9.17,0,0,1,194.66,242.2Z" transform="translate(-2 -2)"/></svg>