<svg id="Layer_1" data-name="Layer 1" xmlns="http://www.w3.org/2000/svg" xmlns:xlink="http://www.w3.org/1999/xlink" viewBox="0 0 316.81 316.81"><defs><style>.cls-1{fill:none;stroke-miterlimit:10;stroke-width:4px;stroke:url(#linear-gradient);}.cls-2{fill:#0072ba;}.cls-3{fill:#4fc3a0;}</style><linearGradient id="linear-gradient" y1="158.4" x2="316.81" y2="158.4" gradientUnits="userSpaceOnUse"><stop offset="0" stop-color="#0072ba"/><stop offset="1" stop-color="#4fc3a0"/></linearGradient></defs><circle class="cls-1" cx="158.4" cy="158.4" r="156.4"/><path class="cls-2" d="M75.12,132.72c0-15.27,0-30.4-.08-45.54,0-1.27-1-2.71-1.94-3.77-3.39-3.94-4.44-8.32-2.35-13.07A11.48,11.48,0,0,1,81.81,63c9.86-.06,19.71,0,29.56,0,5.4,0,9.38,2.45,11.48,7.39,2,4.77,1,9.16-2.4,13.08-.83,1-1.84,2.25-1.85,3.39-.12,15.28-.08,30.56-.08,46.13h19.23c.09-1.44.24-2.89.24-4.34,0-13.18.11-26.37-.08-39.56a11,11,0,0,0-2.22-5.93c-3-4-4-8.18-2.05-12.76s5.54-7.26,10.59-7.33q15.45-.18,30.91,0c5,.06,8.64,2.75,10.6,7.3s.92,8.77-2,12.79a11.06,11.06,0,0,0-2.22,5.94c-.19,14.52-.1,29.05-.1,43.88h19.22c.1-1.4.28-2.84.28-4.28,0-13.19.11-26.38-.09-39.56a10.89,10.89,0,0,0-2.21-6c-3-4-4-8.18-2.07-12.76s5.51-7.29,10.56-7.35q15.47-.19,30.92,0c5,.06,8.64,2.72,10.62,7.26s1,8.78-2,12.79a11.08,11.08,0,0,0-2.28,5.9c-.19,14.53-.1,29.07-.1,44.26,5.35,0,10.44,0,15.53,0,6.59,0,9,2.45,9,9.06q0,48.88,0,97.77c0,6.55-2.44,8.95-9.14,8.95q-100,0-200.07,0c-6.67,0-9.11-2.42-9.11-9q0-48.88,0-97.76c0-6.6,2.45-9,9.06-9.05,4.7,0,9.39,0,14.09-.08A7.7,7.7,0,0,0,75.12,132.72ZM58,241.51H261.3V140.79h-17c0,1.84,0,3.47,0,5.1,0,12.73,0,25.46,0,38.19-.06,13.44-9.12,23-21.67,23s-21.55-9.56-21.65-23.08c-.1-12.73,0-25.46,0-38.19v-4.94H181.4c0,14.45.07,28.54-.06,42.63a30.78,30.78,0,0,1-1.24,8.93,21.45,21.45,0,0,1-24,14.42c-10.21-1.56-17.91-10.45-18.07-21.4-.2-13.34,0-26.68-.07-40,0-1.59-.14-3.17-.21-4.6H118.5c0,14.73.1,29.11,0,43.5-.12,13.39-9.43,22.89-22,22.74-12.31-.15-21.26-9.71-21.33-22.93-.06-12.88,0-25.76,0-38.65,0-1.58,0-3.17,0-4.77H58ZM82.79,87.35v22.76c6.12,1.6,11.57,3.13,17.07,4.43a42.26,42.26,0,0,0,8.43,1.17c.93,0,2.71-1.4,2.72-2.19.2-8.71.13-17.42.13-26.17ZM145.5,110c6.35,1.72,11.93,3.36,17.57,4.7a37.74,37.74,0,0,0,8.46,1,3.51,3.51,0,0,0,2.43-2.44c.19-8.57.11-17.14.11-25.77H145.5Zm91.13,5.19V87.34h-28v24.59C218.75,108.38,226.77,118.68,236.63,115.17Zm-14.3-35.44h14.53c3.21,0,5.4-1.48,5.37-4.79,0-3-2.06-4.62-5.08-4.63q-14.52,0-29.06,0c-3,0-5.06,1.58-5.12,4.59-.08,3.29,2.05,4.84,5.29,4.84Zm-125.77,0h14.53c3.24,0,5.36-1.51,5.32-4.82,0-3.06-2-4.59-5.08-4.6q-14.53,0-29.06,0c-3,0-5.07,1.59-5.12,4.6-.06,3.3,2.12,4.81,5.33,4.82Zm62.68,0c4.84,0,9.68,0,14.53,0,3.18,0,5.48-1.29,5.55-4.6s-2.1-4.84-5.33-4.85q-14.3,0-28.6,0c-3.22,0-5.4,1.6-5.33,4.85s2.36,4.64,5.56,4.6C150.16,79.7,154.7,79.73,159.24,79.73Z" transform="translate(-2.19 -1.97)"/><path class="cls-3" d="M82.79,87.35h28.35c0,8.75.07,17.46-.13,26.17,0,.79-1.79,2.21-2.72,2.19a42.26,42.26,0,0,1-8.43-1.17c-5.5-1.3-11-2.83-17.07-4.43Z" transform="translate(-2.19 -1.97)"/><path class="cls-3" d="M145.5,110V87.45h28.57c0,8.63.08,17.2-.11,25.77a3.51,3.51,0,0,1-2.43,2.44,37.74,37.74,0,0,1-8.46-1C157.43,113.34,151.85,111.7,145.5,110Z" transform="translate(-2.19 -1.97)"/><path class="cls-3" d="M236.63,115.17c-9.86,3.51-17.88-6.79-28-3.24V87.34h28Z" transform="translate(-2.19 -1.97)"/><path class="cls-3" d="M222.33,79.73H208.26c-3.24,0-5.37-1.55-5.29-4.84.06-3,2.09-4.58,5.12-4.59q14.53,0,29.06,0c3,0,5,1.59,5.08,4.63,0,3.31-2.16,4.78-5.37,4.79Z" transform="translate(-2.19 -1.97)"/><path class="cls-3" d="M96.56,79.73H82.48c-3.21,0-5.39-1.52-5.33-4.82,0-3,2.11-4.59,5.12-4.6q14.53,0,29.06,0c3,0,5,1.54,5.08,4.6,0,3.31-2.08,4.82-5.32,4.82Z" transform="translate(-2.19 -1.97)"/><path class="cls-3" d="M159.24,79.73c-4.54,0-9.08,0-13.62,0-3.2,0-5.49-1.32-5.56-4.6s2.11-4.84,5.33-4.85q14.31,0,28.6,0c3.23,0,5.39,1.56,5.33,4.85s-2.37,4.62-5.55,4.6C168.92,79.71,164.08,79.73,159.24,79.73Z" transform="translate(-2.19 -1.97)"/></svg>