<?xml version="1.0" encoding="utf-8"?>
<!-- Generator: Adobe Illustrator 24.1.0, SVG Export Plug-In . SVG Version: 6.00 Build 0)  -->
<svg version="1.1" id="Layer_1" xmlns="http://www.w3.org/2000/svg" xmlns:xlink="http://www.w3.org/1999/xlink" x="0px" y="0px"
	 viewBox="0 0 312.8 312.8" style="enable-background:new 0 0 312.8 312.8;" xml:space="preserve">
<style type="text/css">
	.st0{fill:none;stroke:url(#SVGID_1_);stroke-width:3.95;stroke-miterlimit:10;}
	.st1{fill:#4FC3A0;}
	.st2{fill:#0072BA;}
	.st3{fill:#FFFFFF;}
</style>
<linearGradient id="SVGID_1_" gradientUnits="userSpaceOnUse" x1="1.995" y1="1174.4" x2="314.805" y2="1174.4" gradientTransform="matrix(1 0 0 1 -2 -1018)">
	<stop  offset="0" style="stop-color:#0072BA"/>
	<stop  offset="1" style="stop-color:#4FC3A0"/>
</linearGradient>
<circle class="st0" cx="156.4" cy="156.4" r="154.4"/>
<g>
	<path class="st1" d="M204.3,158.3c-8.2,4.6-13.7,11.6-17.7,19.9c-7.9,16.2-10.1,33.6-10.8,51.3c-0.1,2.8,0.4,5.7-0.2,8.4
		c-0.5,2-2.1,4.9-3.6,5.2c-3.3,0.6-4.3-2.3-4.2-5.2c0.3-8.1,0.3-16.2,1.1-24.2c1.4-13.7,4.2-27.1,10.8-39.3
		c3.6-6.5,8.3-12.4,12.3-18.3c-7.2-2.2-15-4.6-23.6-7.3c0.9,7.3,1.7,14.5,2.6,21.7c0.1,1,0.4,1.9,0.5,2.9c0.5,2.8-0.3,5.5-3.3,5.4
		c-1.5,0-3.9-2.4-4.3-4c-1.3-5.6-1.9-11.4-2.5-17.1c-2.3-22.1-2.3-44.1,1.6-66c0.6-3.1,0.3-8.1,5.3-7.3c5.2,0.8,3,5.2,2.6,8.4
		c-1,8.2-1.8,16.4-2.9,24.5c-0.4,3.2,0.4,5.6,3.3,7c5.5,2.7,11.1,5.2,17.1,7.1c-5.6-8.5-8.9-17.2-8.7-27.1
		c0.5-27,24.3-43.6,49.8-34.8c11.7,4.1,20.7,12,28.3,21.5c1.1,1.4,2.2,2.9,3.6,4c17.9,13.8,23.2,32.4,20.3,54
		c-1.3,9.9-1.9,20.1-4.2,29.7c-2.3,9.5-5.4,19.1-10,27.7c-9.1,16.9-24.3,24.1-43.2,22.8c-11-0.7-19-6.8-24.8-15.9
		c-0.4-0.7-0.8-1.4-1.2-2.1c-0.4-0.7-0.8-1.4-2.5-2c-0.7,8.4-1.4,16.9-2.1,25.3c-0.1,1.8-0.1,3.6,0,5.4c0.1,2.8-0.9,5.5-3.9,5
		c-1.6-0.3-3.8-3.2-3.9-5c-0.7-15.6,1.6-30.9,6-45.8c1.6-5.5,2.5-11.3,4.6-16.6c1.8-4.5,5.2-8.3,7.7-12.5c1.1-1.9,1.5-4.1,2.2-6.2
		C205.6,158.7,205,158.5,204.3,158.3z M212.4,154.4c14.4,0,28.3,0,42.3,0c3,0,6-0.3,5.9-4.1c-0.1-3.5-2.9-3.8-5.8-3.8
		c-13,0-26,0-38.9,0c-1.1,0-2.2,0.3-3.5,0.5C212.4,149.4,212.4,151.5,212.4,154.4z M216.4,141.7c5.9-3.2,12.5-5.7,17.6-10
		c4.4-3.7,7.2-9.4,10.3-14.5c1.4-2.3,0.6-5.4-2.4-5.8c-1.5-0.2-4.3,1.7-4.8,3.3c-2.4,7.1-7.3,11.6-13.6,14.8c-3.3,1.7-6.9,3-9.8,4.2
		C214.5,136.1,215.3,138.3,216.4,141.7z M167.4,133.6c0.6,1.6,0.7,4.8,2.2,5.7c10.5,6.2,22,9.4,34.4,9.1c0.4-2.2,0.8-4,1-5.1
		C192.5,140.1,180.4,136.9,167.4,133.6z M213.3,168.3c7.1,4.3,14.3,8.5,21.3,13.1c2.4,1.6,4.3,4.3,7.1,1.4c3-3.1,0.4-5.8-2-7.4
		c-7.3-4.9-14.9-9.3-22.2-13.8C215.6,164.6,214.3,166.6,213.3,168.3z"/>
	<path class="st2" d="M122.7,131.5c2-0.5,3.2-0.7,4.5-1.1c15.5-4.4,17.2-6.6,15.8-22.6c-0.5-5.4-1.4-10.8-2.3-16.1
		c-0.5-3-1.6-6.4,2.5-7.3c4.5-1,4.8,2.9,5.4,6c3.4,17.8,4.2,35.7,2.9,53.7c-0.7,10-2.2,20-3.3,30c-0.3,2.9-1.3,5.5-4.8,4.9
		c-3.4-0.6-3.5-3.3-3.1-6.2c1.1-7.9,2.1-15.9,3.2-24c-8.6,2.6-16.4,5.1-24.3,7.5c0-0.2-0.1,0.3,0,0.5c16.1,15.7,21.2,36,23.7,57.2
		c0.9,7.7,0.8,15.5,1.1,23.2c0.1,2.9-0.2,6.1-4,6.1c-3.9,0-4-3.1-3.9-6.1c0.2-16.9-1.4-33.6-7-49.7c-3.9-11.3-9.5-21.4-19.8-28.2
		c-0.7-0.4-1.4-0.7-2.2-1.1c-0.5,0.2-1,0.4-1.5,0.6c0.7,2.1,0.8,4.6,2.1,6.1c5.2,6,8.5,12.8,10,20.6c2.5,12.9,5.6,25.7,7.9,38.6
		c0.9,5.1,0.8,10.5,0.4,15.8c-0.1,1.9-2.2,4.8-3.8,5.1c-3.4,0.5-3.9-2.4-4-5.3c-0.5-8.9-1.2-17.7-1.9-26.6c-0.1-1.3-0.6-2.5-0.9-3.9
		c-0.5,0.4-0.9,0.5-1,0.8c-13.6,28.5-49.8,22.2-64.2,5.1c-8.8-10.4-13.5-22.6-15.9-35.7c-2.1-11.6-3.9-23.4-4.8-35.2
		c-1.4-19.7,4.4-36.8,20.9-49.1c1.4-1.1,2.5-2.6,3.6-4c6.5-8.1,13.9-14.9,23.3-19.5c16.3-7.9,34.3-5.1,45,6.9
		c11.6,13.1,13,33.3,3.3,48.3C124.8,128.3,124,129.6,122.7,131.5z M99.3,146.5c-14.5,0-28.4,0-42.3,0c-2.8,0-5.7,0.2-5.8,3.7
		c-0.2,3.8,2.8,4.2,5.8,4.2c13,0,26,0,38.9,0c1.1,0,2.2-0.3,3.4-0.5C99.3,151.5,99.3,149.4,99.3,146.5z M98,133.5
		C98.3,133.8,98.2,133.6,98,133.5c-10.6-3.7-20.5-8.2-24.1-20.4c-0.3-0.9-3.7-0.9-5.6-1.3c-0.3,2-1.3,4.2-0.7,5.9
		c4.6,13.6,15.7,19.3,27.9,23.2C96.4,138.2,97.2,136,98,133.5z M143.9,133.7c-12.6,3.2-24.8,6.4-37.2,9.6c0.2,1.1,0.6,3,1,5.1
		c11.2,0,21.6-2.5,31.6-7.2C143.2,139.3,144.9,136.9,143.9,133.7z M98.3,168c-0.8-1.4-2.1-3.4-3.8-6.1c-5.6,3-11.6,6-17.4,9.4
		c-2.6,1.6-5.1,3.7-7,6.1c-0.9,1.1-0.8,4.1,0,5.1c0.9,0.9,3.8,1.1,5.1,0.3C83,178.1,90.6,173,98.3,168z"/>
	<path class="st3" d="M212.4,154.4c0-2.9,0-5,0-7.4c1.3-0.2,2.4-0.5,3.5-0.5c13,0,26,0,38.9,0c2.8,0,5.7,0.3,5.8,3.8
		c0.1,3.8-2.9,4.1-5.9,4.1C240.7,154.3,226.8,154.4,212.4,154.4z"/>
	<path class="st3" d="M216.4,141.7c-1.1-3.3-1.9-5.6-2.7-8c3-1.3,6.5-2.5,9.8-4.2c6.3-3.3,11.2-7.7,13.6-14.8
		c0.5-1.5,3.3-3.5,4.8-3.3c3,0.4,3.8,3.4,2.4,5.8c-3.1,5.1-5.9,10.8-10.3,14.5C228.9,136,222.3,138.5,216.4,141.7z"/>
	<path class="st3" d="M167.4,133.6c12.9,3.3,25.1,6.5,37.6,9.7c-0.2,1.1-0.6,2.9-1,5.1c-12.5,0.2-23.9-2.9-34.4-9.1
		C168.1,138.4,168,135.2,167.4,133.6z"/>
	<path class="st3" d="M213.3,168.3c1-1.7,2.3-3.7,4.2-6.8c7.3,4.5,14.9,9,22.2,13.8c2.4,1.6,4.9,4.2,2,7.4c-2.7,2.9-4.7,0.2-7.1-1.4
		C227.6,176.8,220.4,172.6,213.3,168.3z"/>
	<path class="st3" d="M99.3,146.5c0,2.9,0,5,0,7.4c-1.2,0.2-2.3,0.5-3.4,0.5c-13,0-26,0-38.9,0c-3,0-6-0.4-5.8-4.2
		c0.1-3.5,3-3.7,5.8-3.7C70.9,146.5,84.9,146.5,99.3,146.5z"/>
	<path class="st3" d="M98,133.5c-0.9,2.4-1.6,4.7-2.6,7.3c-12.2-3.9-23.3-9.6-27.9-23.2c-0.6-1.7,0.5-3.9,0.7-5.9
		c2,0.4,5.4,0.4,5.6,1.3C77.5,125.4,87.4,129.8,98,133.5C98.2,133.6,98.3,133.8,98,133.5z"/>
	<path class="st3" d="M143.9,133.7c1,3.2-0.7,5.6-4.6,7.5c-10,4.7-20.3,7.3-31.6,7.2c-0.4-2.1-0.8-4-1-5.1
		C119.2,140.1,131.3,136.9,143.9,133.7z"/>
	<path class="st3" d="M98.3,168c-7.7,5-15.3,10.1-23.1,14.9c-1.3,0.8-4.2,0.6-5.1-0.3c-0.9-1-0.9-4,0-5.1c1.9-2.4,4.4-4.5,7-6.1
		c5.7-3.4,11.8-6.4,17.4-9.4C96.2,164.6,97.4,166.7,98.3,168z"/>
</g>
</svg>
