<svg id="Layer_1" data-name="Layer 1" xmlns="http://www.w3.org/2000/svg" xmlns:xlink="http://www.w3.org/1999/xlink" viewBox="0 0 316.81 316.81"><defs><style>.cls-1{fill:none;stroke-miterlimit:10;stroke-width:4px;stroke:url(#linear-gradient);}.cls-2{fill:#0072ba;}.cls-3{fill:#4fc3a0;}.cls-4{fill:#fff;}</style><linearGradient id="linear-gradient" y1="158.4" x2="316.81" y2="158.4" gradientUnits="userSpaceOnUse"><stop offset="0" stop-color="#0072ba"/><stop offset="1" stop-color="#4fc3a0"/></linearGradient></defs><circle class="cls-1" cx="158.4" cy="158.4" r="156.4"/><path class="cls-2" d="M118.44,275.37c2.44-11.15,4.45-21.78,7.14-32.24,3.46-13.47,1.54-25.38-6.88-36.86-13-17.79-17.29-38.13-13.59-59.81,3.17-18.66,14.23-31.5,31.56-38.68s35.63-8.78,54.07-5.64c22.07,3.77,37.14,19.53,41.68,43,1.18,6.13,1.13,12.48,2.07,18.67.59,3.91,1.3,8.05,3.13,11.46,4.17,7.71,9.07,15,13.66,22.52,3.7,6,2.22,8.85-5,9.33-3.91.26-7.84.46-11.76.46-3.37,0-4.76,1.37-4.69,4.82.12,6.43,0,12.87-.15,19.3-.21,9.52-6.51,15.81-16.07,16.08-3.92.11-7.85.12-11.77,0-9.11-.37-16.65-3.89-22.43-11.15-.93-1.17-2.88-1.54-4.36-2.28.3,1.75,0,4.12,1,5.15,4,4,8.5,7.66,13.1,11.69-7.27,4.55-8.53,13.16-10.55,21.47a4.23,4.23,0,0,1-3,2.6C156.82,275.42,138,275.37,118.44,275.37Zm49.31-160.25-1.85-.85c-13-5.88-22.78-3-30.67,8.81-.66,1-2.49,1.53-3.84,1.68-9.89,1.09-17.68,9.06-18.29,18.51a20.62,20.62,0,0,1-2.07,7.79c-8,15.65,3.9,35.56,21.31,35.79,1.54,0,3.25,1.2,4.57,2.23,5.39,4.22,10.46,8.88,16.08,12.76,2,1.37,5.2,1,7.85,1.37a63.73,63.73,0,0,0-2-7.16c-1.44-3.5-3.83-6.76-2.78-9.58,5.46-.68,10.34-.35,14.3-2.1,2.82-1.24,5.06-2.13,8.16-1.79,10,1.08,17.55-3.13,21.19-12.05,1.29-3.13,3.14-4,6.17-4.58,9.23-1.75,15.64-7,18.3-16.24,4.25-14.69-5.63-28.8-21.31-31a14.5,14.5,0,0,1-7.26-3.32C187,107.71,176.71,107.36,167.75,115.12Z" transform="translate(-2.19 -1.97)"/><path class="cls-3" d="M120.36,79.05c-3.86-6.69-7.5-12.74-10.83-19-.61-1.13,0-2.92.09-4.4,1.33.73,3.19,1.13,3.89,2.25,3.72,6,7.15,12.14,10.93,18.69a96.62,96.62,0,0,1,41.91-11.25c0-7.22-.13-14.08.09-20.94.05-1.55,1.29-3.06,2-4.6.89,1.52,2.49,3,2.55,4.57.28,6.86.12,13.74.12,20.91A98.1,98.1,0,0,1,212.85,76.6c3.57-6.16,6.88-12.19,10.54-18,.85-1.35,2.9-2,4.4-2.89-.16,1.78.19,3.83-.58,5.29-3.13,6-6.61,11.73-10.16,17.91a94.9,94.9,0,0,1,30.53,30.65c6.48-3.73,12.51-7.37,18.72-10.65,1.24-.66,3.18,0,4.79.08-.83,1.3-1.36,3.07-2.54,3.81-6,3.71-12.12,7.15-17.19,10.09,3.13,11.27,6.12,21.91,9,32.59a16.58,16.58,0,0,1,.47,5.61c-.08,1-1.15,1.88-1.77,2.81-.92-.83-2.46-1.53-2.66-2.5-.9-4.29-1.15-8.72-2.09-13-9.1-41.18-47.67-70.5-89.73-68.3a88,88,0,0,0-83,77.4,85.85,85.85,0,0,0,9.83,51.87c1.82,3.37,1.58,5.21-1.87,7.06-6.23,3.32-12.21,7.11-18.45,10.41-1.24.65-3.19,0-4.82-.12.83-1.27,1.37-3,2.54-3.74,6-3.72,12.13-7.18,18.53-10.91a96.46,96.46,0,0,1-11.27-41.77H58.25c-1.41,0-2.91.3-4.21-.09s-2.32-1.47-3.47-2.25c1.13-.79,2.24-2.21,3.39-2.25,6.12-.23,12.25-.12,18.37-.12H76c.84-14.86,4.26-28.74,11.34-41.84C80.9,110,74.75,106.6,68.76,102.9c-1.19-.74-1.76-2.48-2.61-3.75,1.62-.09,3.57-.8,4.8-.15,6.23,3.28,12.27,6.92,18.75,10.64A93.67,93.67,0,0,1,120.36,79.05Z" transform="translate(-2.19 -1.97)"/><path class="cls-4" d="M167.75,115.12c9-7.76,19.28-7.41,27.84.25a14.5,14.5,0,0,0,7.26,3.32c15.68,2.22,25.56,16.33,21.31,31-2.66,9.2-9.07,14.49-18.3,16.24-3,.57-4.88,1.45-6.17,4.58-3.64,8.92-11.21,13.13-21.19,12.05-3.1-.34-5.34.55-8.16,1.79-4,1.75-8.84,1.42-14.3,2.1-1,2.82,1.34,6.08,2.78,9.58a63.73,63.73,0,0,1,2,7.16c-2.65-.41-5.86,0-7.85-1.37-5.62-3.88-10.69-8.54-16.08-12.76-1.32-1-3-2.21-4.57-2.23-17.41-.23-29.26-20.14-21.31-35.79a20.62,20.62,0,0,0,2.07-7.79c.61-9.45,8.4-17.42,18.29-18.51,1.35-.15,3.18-.69,3.84-1.68,7.89-11.8,17.71-14.69,30.67-8.81Zm-15.34,82.09,1.14-.88c-.36-1-.74-2-1.09-3-3.62-10.27-.9-13.65,9.69-12,.16,0,.31.06.47.09,4.51.76,7.22-1.61,8.77-5.43s-.42-6.36-4.63-6.5a20.63,20.63,0,0,1-6.81-1.44c-.87-.35-1.18-2.1-1.74-3.21,1.06-.34,2.2-1.13,3.16-1,9.66,1.79,13.08-.49,14.72-9.75.19-1,1.53-1.9,2.33-2.85.75,1,2.32,2.31,2.1,3.06-1.07,3.65-2.6,7.17-4,10.71-.42,1.06-1.58,2.1-1.47,3,.4,3.16,1.21,6.26,1.91,9.63a19.2,19.2,0,0,0,2.06.34c6.39.39,12-1.19,15.28-7.14,3.1-5.58,5-11.3-.21-16.95-.54-.58,0-2.14,0-3.25,1.23.21,3.12,0,3.56.69,2,3.22,3.67,6.7,5.5,10.19,11.09-1.33,18.14-9.59,17.11-20.37-1-10.45-11-18.69-21.78-18-3.23.19-4.35,2.12-4.5,4.92-.16,3,1.71,3.17,4.19,3.66a32.64,32.64,0,0,1,9.33,3.85c.81.46.69,2.57,1,3.92-1.24-.11-2.74.18-3.66-.41-7.62-4.91-12.17-3.77-16.85,4.19-.55.94-2.09,1.3-3.17,1.92-.38-1.21-1.43-2.78-1-3.55a86,86,0,0,1,4.88-7.51c1.11-5.82,2-10.35,3-15.69a15.58,15.58,0,0,0-11.22-4.45c-4.58,0-9.37,2.77-9.68,6-.42,4.26,1.9,7,5.71,8.8,1,.49,1.44,2.22,2.13,3.38-1.39.24-3,1-4.15.63-4.46-1.58-7.13-4.92-8.18-9.56-.3-1.34-.38-3.27-1.27-3.85a19,19,0,0,0-15.27-2.91c-5.17,1.23-8.94,4.14-10.5,9.4,5.92,3.82,10.08,10.07,17.87,10.23,1.3,0,2.83,1.44,3.78,2.61.73.88.71,2.38,1,3.61-1.34-.09-3,.29-4-.35-7.09-4.64-12.51-3.3-16.65,4.12-.57,1-2.2,1.44-3.34,2.13-.26-1.35-1.18-3.08-.66-4,1.74-3,4-5.77,6.66-9.47-.73-.5-1.9-1.28-3-2.1-4.53-3.23-9.38-4.45-14.59-1.86s-8.6,6.82-8.5,12.59c.1,5.49,3,9.71,8.59,11.75.92.33,1.36,2,2,3-1.22.41-2.8,1.52-3.6,1.11-3.23-1.65-6.22-3.78-9.3-5.73C109.43,163.88,116.88,180.1,129,182c6.8,1.05,9.88-1.91,9.63-8.9,0-1.16,1.19-2.36,1.83-3.54.9.89,2.31,1.65,2.61,2.71,1.32,4.65-.41,8.61-4,12.74Z" transform="translate(-2.19 -1.97)"/><path class="cls-3" d="M152.41,197.21,139,185c3.62-4.13,5.35-8.09,4-12.74-.3-1.06-1.71-1.82-2.61-2.71-.64,1.18-1.87,2.38-1.83,3.54.25,7-2.83,10-9.63,8.9-12.08-1.87-19.53-18.09-13.42-28.34,3.08,2,6.07,4.08,9.3,5.73.8.41,2.38-.7,3.6-1.11-.66-1-1.1-2.68-2-3-5.57-2-8.49-6.26-8.59-11.75-.1-5.77,3.34-10,8.5-12.59s10.06-1.37,14.59,1.86c1.14.82,2.31,1.6,3,2.1-2.67,3.7-4.92,6.44-6.66,9.47-.52.91.4,2.64.66,4,1.14-.69,2.77-1.11,3.34-2.13,4.14-7.42,9.56-8.76,16.65-4.12,1,.64,2.62.26,4,.35-.32-1.23-.3-2.73-1-3.61-.95-1.17-2.48-2.59-3.78-2.61-7.79-.16-11.95-6.41-17.87-10.23,1.56-5.26,5.33-8.17,10.5-9.4A19,19,0,0,1,165,119.48c.89.58,1,2.51,1.27,3.85,1,4.64,3.72,8,8.18,9.56,1.16.41,2.76-.39,4.15-.63-.69-1.16-1.11-2.89-2.13-3.38-3.81-1.83-6.13-4.54-5.71-8.8.31-3.24,5.1-6,9.68-6a15.58,15.58,0,0,1,11.22,4.45c-1,5.34-1.89,9.87-3,15.69a86,86,0,0,0-4.88,7.51c-.42.77.63,2.34,1,3.55,1.08-.62,2.62-1,3.17-1.92,4.68-8,9.23-9.1,16.85-4.19.92.59,2.42.3,3.66.41-.31-1.35-.19-3.46-1-3.92a32.64,32.64,0,0,0-9.33-3.85c-2.48-.49-4.35-.69-4.19-3.66.15-2.8,1.27-4.73,4.5-4.92,10.77-.65,20.77,7.59,21.78,18,1,10.78-6,19-17.11,20.37-1.83-3.49-3.46-7-5.5-10.19-.44-.7-2.33-.48-3.56-.69,0,1.11-.53,2.67,0,3.25,5.21,5.65,3.31,11.37.21,16.95-3.29,6-8.89,7.53-15.28,7.14a19.2,19.2,0,0,1-2.06-.34c-.7-3.37-1.51-6.47-1.91-9.63-.11-.94,1.05-2,1.47-3,1.42-3.54,2.95-7.06,4-10.71.22-.75-1.35-2-2.1-3.06-.8.95-2.14,1.8-2.33,2.85-1.64,9.26-5.06,11.54-14.72,9.75-1-.18-2.1.61-3.16,1,.56,1.11.87,2.86,1.74,3.21a20.63,20.63,0,0,0,6.81,1.44c4.21.14,6.22,2.59,4.63,6.5s-4.26,6.19-8.77,5.43c-.16,0-.31-.07-.47-.09-10.59-1.65-13.31,1.73-9.69,12,.35,1,.73,2,1.09,3Z" transform="translate(-2.19 -1.97)"/></svg>