<svg id="Layer_1" data-name="Layer 1" xmlns="http://www.w3.org/2000/svg" xmlns:xlink="http://www.w3.org/1999/xlink" viewBox="0 0 316.81 316.81"><defs><style>.cls-1{fill:none;stroke-miterlimit:10;stroke-width:4px;stroke:url(#linear-gradient);}.cls-2{fill:#0072ba;}.cls-3{fill:#4fc3a0;}.cls-4{fill:#f6f6f6;}</style><linearGradient id="linear-gradient" y1="158.4" x2="316.81" y2="158.4" gradientUnits="userSpaceOnUse"><stop offset="0" stop-color="#0072ba"/><stop offset="1" stop-color="#4fc3a0"/></linearGradient></defs><circle class="cls-1" cx="158.4" cy="158.4" r="156.4"/><path class="cls-2" d="M144.26,177.78q0,47.54,0,95c0,11.34-2.82,14.11-14.25,13.54-10.33-.51-18.52-5.28-24.89-13.19a111.44,111.44,0,0,1-7-10.28,30,30,0,0,0-12.07-11c-20.85-10.53-33.23-37.51-27.77-60.16,2.28-9.45,7.39-12.57,16.8-10.26,11.74,2.88,19.46,12.52,19.59,24.91A50.13,50.13,0,0,0,104.13,236c3.49,4.84,6.63,5.81,10.43,3.45s4.58-5.67,2.25-10.83a125.52,125.52,0,0,1-5.75-13.88c-2.73-8.7-1.45-16.71,3.54-24.25,3.17-4.8,7.32-8.74,11.11-13,4.22-4.76,4.65-8.83,1.62-12-3.17-3.29-7.44-2.82-12.28,1.77a57.05,57.05,0,0,0-5.92,7.18c-5.41,7.16-9.41,7.64-15.61,1.28-7.74-7.94-17-11-27.83-9.27-4.64.74-6.57-1.24-7.65-5.49-5.58-21.93,7.43-50,28.35-59.91A23.65,23.65,0,0,0,98.14,89.43c5.51-11,13.49-19.64,26.23-22.51a24.19,24.19,0,0,1,10.81.41c5.61,1.28,8.23,4.32,8.54,10.21.28,5.18.17,10.38.18,15.57q0,42.35,0,84.67Z" transform="translate(-2.19 -1.97)"/><path class="cls-3" d="M160.66,176.93c0-31.86.18-63.72-.1-95.58-.1-11.58,5.49-16.2,17.15-14.82,11.38,1.34,20.16,7.79,26.37,17.5,2.59,4,3.3,7.76-1,11.43-3.36,2.84-5.16,7-6.22,11.19-2.81,11.21-1,22,3.55,32.4,1.82,4.12,5.17,5.44,9.42,3.86s6-5.21,4.22-9.61A37.84,37.84,0,0,1,211.17,114c1.3-10.76,8.43-13.74,17.06-7.2C245.48,119.88,252.91,148.54,244,169a17.58,17.58,0,0,0,.1,15.36c7.72,17.38,3.5,40.73-9.44,54.27-12,12.58-26.43,13.9-40.52,3.66-2.1-1.53-4-3.37-6.1-4.84-3.52-2.44-7.24-3.64-10.79-.08-2.9,2.91-2.51,7.18,1.31,11.07a52.37,52.37,0,0,0,22.18,14c4.4,1.34,4.78,2.91,2.37,6.72C195,282,181.28,288.63,168.46,285.65c-5-1.16-7.53-4.06-7.73-9-.17-4.14,0-8.3,0-12.46q0-43.63,0-87.27Z" transform="translate(-2.19 -1.97)"/><path class="cls-3" d="M219.72,88.66c-1.27-5-2.79-9.44-5.61-13.17-1.43-1.9-.7-3,.65-4.36,7.94-8.18,15.75-16.5,23.74-24.64,3.47-3.53,7.9-3.68,11.13-.79a7.54,7.54,0,0,1,.47,11.14C240.21,67.43,230.1,77.81,219.72,88.66Z" transform="translate(-2.19 -1.97)"/><path class="cls-3" d="M201.87,62.58c-4.71-2.77-8.5-5.2-12.77-6.57-2.25-.72-2.26-2.21-2.13-4,.5-7.25.83-14.52,1.49-21.75.47-5.11,4.08-8.19,8.57-7.82,4.27.36,7.2,3.74,6.94,8.7C203.43,41.29,202.63,51.45,201.87,62.58Z" transform="translate(-2.19 -1.97)"/><path class="cls-3" d="M235.88,95.84c11.72-1,22.17-2.08,32.65-2.53,4.29-.19,7,2.81,7.21,7.27s-2.14,7.41-6.46,8c-6,.84-12,1.09-18,1.7a3.37,3.37,0,0,1-3.48-1.62C244.75,104.22,240.9,100.52,235.88,95.84Z" transform="translate(-2.19 -1.97)"/><path class="cls-4" d="M86.53,150.21c-4.44-.05-8.42-.94-9.38-6.15-.76-4.18,2.1-7.25,7.91-8.36,10.56-2,17.2-8.23,20.32-18.4.51-1.65,1-3.31,1.62-4.91,1.44-3.72,4.13-5.48,8.13-4.77,3.82.67,5.48,3.28,5.78,6.94a22.33,22.33,0,0,1,0,2.59C120.34,132,101.44,150.17,86.53,150.21Z" transform="translate(-2.19 -1.97)"/><path class="cls-4" d="M181.54,173.86a33.85,33.85,0,0,0-5.6-19.24c-3.11-4.83-2.72-8.92.8-11.52,3.13-2.31,7.06-1.29,10.8,3A34.19,34.19,0,0,1,196.13,170c-.12,5.71,2.27,8.62,7.57,10.73,15.47,6.16,23.6,18.43,26.86,34.33a13,13,0,0,1,.13,2.58c0,4.16-1.68,7-6.07,7.68s-7-1.22-8.22-5.29a68.93,68.93,0,0,0-5.59-14.46c-3.53-6.36-8.67-10.54-16-12.12C184.48,191.16,180.7,185.85,181.54,173.86Z" transform="translate(-2.19 -1.97)"/></svg>