<svg id="Layer_1" data-name="Layer 1" xmlns="http://www.w3.org/2000/svg" xmlns:xlink="http://www.w3.org/1999/xlink" viewBox="0 0 316.81 316.81"><defs><style>.cls-1{fill:none;stroke-width:4px;stroke:url(#linear-gradient);}.cls-1,.cls-2{stroke-miterlimit:10;}.cls-2,.cls-3{fill:#0072ba;}.cls-2{stroke:#fff;}.cls-4{fill:#4fc3a0;}</style><linearGradient id="linear-gradient" y1="158.4" x2="316.81" y2="158.4" gradientUnits="userSpaceOnUse"><stop offset="0" stop-color="#0072ba"/><stop offset="1" stop-color="#4fc3a0"/></linearGradient></defs><circle class="cls-1" cx="158.4" cy="158.4" r="156.4"/><path class="cls-2" d="M138.23,246.25c-36.25-10.59-61.31-32.2-64.84-71.2C70,137.72,89,111,119.48,91c-1.28-.75-2.65-1.54-4-2.36C102,80.4,99.48,67.29,102,53.92c.26-1.4,2-3,3.48-3.61,12-4.88,22.35-11.75,29.61-22.81a6,6,0,0,1,4.55-2.05c25.46,1.25,50.91,2.7,76.37,4,4.2.22,4.53,2.1,3.18,5.59a208.46,208.46,0,0,0-13.15,60.28c-1.91,26.7,6.17,50.12,21.84,71.48a140,140,0,0,1,14.52,23.79c10.28,22.32,6.8,42.76-10.67,60-7.31,7.22-7.85,14.83-5.93,23.62,1.12,5.11.75,5.85-4.56,5.86-24.17,0-48.33,0-72.49.08-3.34,0-5.13-1.28-6.54-4.18A46,46,0,0,1,138.23,246.25Zm81.07,16.67-6.85-.67a46.11,46.11,0,0,1,4-5.35c5.81-5.9,12.44-11.14,17.49-17.62,7.73-9.91,10-21.59,7.6-34.05-2.47-13-9.11-23.84-17-34.13a120.58,120.58,0,0,1-19.25-35.93c-7.67-23.67-5.42-47.42-.33-71.1,2.12-9.82,5.23-19.43,8-29.4-23.76-1.31-47.37-2.65-71-3.79a6.12,6.12,0,0,0-4.32,2.39c-6.3,8.52-14.48,14.65-23.88,19.27-7.65,3.75-8,4.38-7.21,12.83,1.4,14.3,13,23.33,27.39,21.35a29.91,29.91,0,0,1,8-.13c1.29.17,2.41,1.66,3.61,2.55-1.33.86-2.71,2.51-4,2.43-8.23-.5-15.45,2.33-22.19,6.49a85.4,85.4,0,0,0-35.16,41C70.43,172.52,80.63,208,109.7,227.46a97.09,97.09,0,0,0,47.22,16.18c1.59.13,3.07,1.66,4.61,2.53-1.67.87-3.32,2.45-5,2.47-4.25.06-8.51-.58-12.82-.94-2.23,8.24-.49,15.59,2,22.93,1.07,3.14,2.75,4.24,6.19,4.21,21.33-.18,42.66-.09,64-.11,1.4,0,2.8-.22,4.13-.33C219.77,270.1,219.52,266.29,219.3,262.92Z" transform="translate(-2.19 -1.97)"/><path class="cls-3" d="M219.3,262.92c.22,3.37.47,7.18.75,11.48-1.33.11-2.73.33-4.13.33-21.33,0-42.66-.07-64,.11-3.44,0-5.12-1.07-6.19-4.21-2.51-7.34-4.25-14.69-2-22.93,4.31.36,8.57,1,12.82.94,1.67,0,3.32-1.6,5-2.47-1.54-.87-3-2.4-4.61-2.53a97.09,97.09,0,0,1-47.22-16.18C80.63,208,70.43,172.52,84.18,139.1a85.4,85.4,0,0,1,35.16-41c6.74-4.16,14-7,22.19-6.49,1.27.08,2.65-1.57,4-2.42-1.2-.9-2.32-2.39-3.61-2.56a29.91,29.91,0,0,0-8,.13c-14.34,2-26-7-27.39-21.35-.82-8.45-.44-9.08,7.21-12.83,9.4-4.62,17.58-10.75,23.88-19.27A6.12,6.12,0,0,1,142,30.88c23.63,1.14,47.24,2.48,71,3.79-2.74,10-5.85,19.58-8,29.4-5.09,23.68-7.34,47.43.33,71.1a120.58,120.58,0,0,0,19.25,35.93c7.84,10.29,14.48,21.16,17,34.13,2.37,12.46.13,24.14-7.6,34.05-5,6.48-11.68,11.72-17.49,17.62a46.11,46.11,0,0,0-4,5.35Zm-51.74-48c2.6,3.37,4.52,6.37,6.93,8.89,3.48,3.66,8,6.14,13,4.67,2.82-.83,6.27-3.27,7.19-5.81s0-7.06-1.93-8.84a35.66,35.66,0,0,1-11.16-21.1c-1.43-8.59-6.36-12-15.11-12.19-3.41-.07-6.83,0-11,0a88.63,88.63,0,0,0,6.18-6.69,38.71,38.71,0,0,0,4.34-7.27c2.29-5.13.07-10-5-11.59-5.63-1.77-7.18-5.42-3.24-9.63,8.52-9.13,5.46-24.2-7.79-30.12a36.82,36.82,0,0,0-33.29,1.16c-13.46,7.12-15,25.51-3.38,35.48,6.13,5.29,6.24,6.08.49,12.14-6.83,7.18-9.4,15.69-7.58,25.28,3.3,17.41,15.45,27,30.82,33.18C147.73,226.8,158,226.34,167.56,215Z" transform="translate(-2.19 -1.97)"/><path class="cls-4" d="M167.56,215c-9.6,11.37-19.83,11.83-30.52,7.54-15.37-6.16-27.52-15.77-30.82-33.18-1.82-9.59.75-18.1,7.58-25.28,5.75-6.06,5.64-6.85-.49-12.14-11.58-10-10.08-28.36,3.38-35.48A36.82,36.82,0,0,1,150,115.27c13.25,5.92,16.31,21,7.79,30.12-3.94,4.21-2.39,7.86,3.24,9.63,5.09,1.6,7.31,6.46,5,11.59a38.71,38.71,0,0,1-4.34,7.27,88.63,88.63,0,0,1-6.18,6.69c4.13,0,7.55,0,11,0,8.75.17,13.68,3.6,15.11,12.19a35.66,35.66,0,0,0,11.16,21.1c1.9,1.78,2.83,6.37,1.93,8.84s-4.37,5-7.19,5.81c-5,1.47-9.51-1-13-4.67C172.08,221.34,170.16,218.34,167.56,215Z" transform="translate(-2.19 -1.97)"/></svg>