<svg id="Layer_1" data-name="Layer 1" xmlns="http://www.w3.org/2000/svg" xmlns:xlink="http://www.w3.org/1999/xlink" viewBox="0 0 316.81 316.81"><defs><style>.cls-1{fill:none;stroke-miterlimit:10;stroke-width:4px;stroke:url(#linear-gradient);}.cls-2{fill:#4fc3a0;}.cls-3{fill:#0072ba;}.cls-4{fill:#fff;}</style><linearGradient id="linear-gradient" y1="158.4" x2="316.81" y2="158.4" gradientUnits="userSpaceOnUse"><stop offset="0" stop-color="#0072ba"/><stop offset="1" stop-color="#4fc3a0"/></linearGradient></defs><circle class="cls-1" cx="158.4" cy="158.4" r="156.4"/><path class="cls-2" d="M222.07,164.41A57.39,57.39,0,1,1,165,106.84,57.57,57.57,0,0,1,222.07,164.41Zm-18.72-17.9a6.65,6.65,0,0,0-6.29-6.58,6.44,6.44,0,0,0-6.27,6.07,6.31,6.31,0,0,0,6.22,6.5A6.41,6.41,0,0,0,203.35,146.51Zm-32.44,23.75a6.42,6.42,0,0,0,6.23-6.11,6.65,6.65,0,0,0-6.42-6.46,6.42,6.42,0,0,0-6.15,6.18A6.31,6.31,0,0,0,170.91,170.26Zm-6.22-35.37a6.3,6.3,0,0,0-12.59-.09,6.6,6.6,0,0,0,6.5,6.36A6.48,6.48,0,0,0,164.69,134.89Zm-26.11,30.49A6.3,6.3,0,0,0,132.2,159a6.4,6.4,0,0,0-6.18,6.15,6.63,6.63,0,0,0,6.45,6.41A6.41,6.41,0,0,0,138.58,165.38Zm52,32.45a6.46,6.46,0,0,0,6.38-6,6.31,6.31,0,0,0-6.1-6.61,6.45,6.45,0,0,0-6.47,5.87A6.7,6.7,0,0,0,190.55,197.83Zm-43.77-10.54a6.65,6.65,0,0,0-6.4,6,6.47,6.47,0,0,0,6.26,6.54A6.24,6.24,0,0,0,153,193.9,6.45,6.45,0,0,0,146.78,187.29Z" transform="translate(-2.19 -1.97)"/><path class="cls-3" d="M119.64,110.13l-9,9.09C102.91,111.46,95,103.7,87.31,95.74c-2.24-2.31-4-3.3-7.53-2.23-8,2.41-16.65-1.69-20.84-9.05A19.07,19.07,0,0,1,85,58.53c7.32,4.24,11.34,13,8.9,20.91-1,3.33-.13,5,2.06,7.18C103.94,94.36,111.74,102.25,119.64,110.13Z" transform="translate(-2.19 -1.97)"/><path class="cls-3" d="M114.38,213.17l9.65,8.27c-5.57,6.49-11,13-16.73,19.4-1.82,2-2.15,3.62-1.13,6.29a18.68,18.68,0,0,1-7.14,22,19.08,19.08,0,0,1-28-23.87,18.68,18.68,0,0,1,20.6-10.53c3.06.66,4.59-.2,6.37-2.34C103.26,226,108.74,219.75,114.38,213.17Z" transform="translate(-2.19 -1.97)"/><path class="cls-3" d="M212.6,242.26c-2.14-3-4.19-5.86-6.22-8.72s-4-5.73-6.18-8.74l10.26-7.36c3.59,5,7.17,9.84,10.57,14.79,1.23,1.78,2.37,2.57,4.77,2.33,9.64-1,17.66,4.08,20.6,12.57a19.07,19.07,0,0,1-30.7,20.48c-6.8-6.06-8.22-15-3.78-23.84C212.11,243.39,212.27,243,212.6,242.26Z" transform="translate(-2.19 -1.97)"/><path class="cls-3" d="M204.88,106.68,194,100.39c1.88-3.35,3.57-6.7,5.57-9.85,1.28-2,1.22-3.46-.07-5.6-4.23-7.06-4-14.31.8-21,4.72-6.52,11.4-9.22,19.28-7.5,8.19,1.79,13.26,7.13,14.87,15.43A18.75,18.75,0,0,1,216.3,94c-3.34,0-5.11,1-6.45,3.9S206.69,103.51,204.88,106.68Z" transform="translate(-2.19 -1.97)"/><path class="cls-3" d="M228.56,135l-6.3-10.88c3.15-1.83,6.17-3.82,9.39-5.4,2.46-1.21,3.28-2.69,3.26-5.53a18.86,18.86,0,0,1,17.38-19c9.59-.91,18.64,6.11,20.42,15.83a19.11,19.11,0,0,1-13.62,21.51,17.43,17.43,0,0,1-15-2c-2.24-1.5-3.84-1.4-6,0C235.08,131.51,231.83,133.14,228.56,135Z" transform="translate(-2.19 -1.97)"/><path class="cls-4" d="M203.35,146.51a6.41,6.41,0,0,1-6.34,6,6.31,6.31,0,0,1-6.22-6.5,6.44,6.44,0,0,1,6.27-6.07A6.65,6.65,0,0,1,203.35,146.51Z" transform="translate(-2.19 -1.97)"/><path class="cls-4" d="M170.91,170.26a6.31,6.31,0,0,1-6.34-6.39,6.42,6.42,0,0,1,6.15-6.18,6.65,6.65,0,0,1,6.42,6.46A6.42,6.42,0,0,1,170.91,170.26Z" transform="translate(-2.19 -1.97)"/><path class="cls-4" d="M164.69,134.89a6.48,6.48,0,0,1-6.09,6.27,6.6,6.6,0,0,1-6.5-6.36,6.3,6.3,0,0,1,12.59.09Z" transform="translate(-2.19 -1.97)"/><path class="cls-4" d="M138.58,165.38a6.41,6.41,0,0,1-6.11,6.22,6.63,6.63,0,0,1-6.45-6.41A6.4,6.4,0,0,1,132.2,159,6.3,6.3,0,0,1,138.58,165.38Z" transform="translate(-2.19 -1.97)"/><path class="cls-4" d="M190.55,197.83a6.7,6.7,0,0,1-6.19-6.7,6.45,6.45,0,0,1,6.47-5.87,6.31,6.31,0,0,1,6.1,6.61A6.46,6.46,0,0,1,190.55,197.83Z" transform="translate(-2.19 -1.97)"/><path class="cls-4" d="M146.78,187.29A6.45,6.45,0,0,1,153,193.9a6.24,6.24,0,0,1-6.31,5.95,6.47,6.47,0,0,1-6.26-6.54A6.65,6.65,0,0,1,146.78,187.29Z" transform="translate(-2.19 -1.97)"/></svg>