<?xml version="1.0" encoding="utf-8"?>
<!-- Generator: Adobe Illustrator 24.1.0, SVG Export Plug-In . SVG Version: 6.00 Build 0)  -->
<svg version="1.1" id="Layer_1" xmlns="http://www.w3.org/2000/svg" xmlns:xlink="http://www.w3.org/1999/xlink" x="0px" y="0px"
	 viewBox="0 0 316.8 316.8" style="enable-background:new 0 0 316.8 316.8;" xml:space="preserve">
<style type="text/css">
	.st0{fill:none;stroke:url(#SVGID_1_);stroke-width:3.9486;stroke-miterlimit:10;}
	.st1{fill:#010101;}
	.st2{fill:#EEC6A3;}
	.st3{fill:#E3E7EA;}
	.st4{fill:#D4A788;}
	.st5{fill:#0072BA;}
	.st6{fill:#4FC3A0;}
	.st7{fill:#000101;}
	.st8{fill:#EFF1F3;}
	.st9{fill:#F0F2F4;}
</style>
<linearGradient id="SVGID_1_" gradientUnits="userSpaceOnUse" x1="2.0257" y1="920.4" x2="314.7743" y2="920.4" gradientTransform="matrix(1 0 0 1 0 -762)">
	<stop  offset="0" style="stop-color:#0072BA"/>
	<stop  offset="1" style="stop-color:#4FC3A0"/>
</linearGradient>
<circle class="st0" cx="158.4" cy="158.4" r="154.4"/>
<g>
	<path class="st1" d="M165.4,249.2c-4.8,0.1-9.3-1.6-13.8-2.9c-8.2-2.3-16.5-4.6-24.6-7.2c-8.3-2.6-14.5,2.2-21.1,5.4
		c-1.6,0.8-0.1,2.1,0.3,3c2.7,7.5,0.9,11.8-6.2,14.8c-4.5,1.9-8.9,3.8-13.5,5.5c-5.7,2.2-10.7,0.2-13.1-5.4
		c-8.7-20.6-17.3-41.2-25.8-61.9c-2.4-5.9-0.2-10.7,5.7-13.3c4.6-2,9.2-3.9,13.8-5.8c6.2-2.5,11.1-0.7,13.7,5.5
		c1.2,3,2.4,2.6,4.7,1.5c9.1-4.4,18.3-8.8,27.5-13c10.5-4.9,21.4-5.5,31.4,0.7c8.7,5.4,18.3,7.7,27.9,10.4c3.3,0.9,6.5,1.8,9.8,2.6
		c3.1,0.8,6.2,2.1,7.7,4.8c2.3,4.4,5.2,3.3,8.7,2.3c14-4,27.8-8.8,42.1-11.8c4.7-1,9.4-1,14,0.3c8.3,2.3,12.8,9.5,11,18
		c-1.6,7.7-6,13.5-13.4,16.4c-22.8,8.8-45.6,17.5-68.4,26.2C178,247.5,171.8,249,165.4,249.2z"/>
	<path class="st1" d="M128,93.5c0-8,0.1-15.9,0-23.9c-0.1-3.4,0.9-5.1,4.6-5.4c12-1.3,22.8-5.8,32.6-12.6c2.3-1.6,4.6-2.3,7.4-2.3
		c8.7,0.1,17.4,0.1,26.1,0c2.5,0,4.5,0.6,6.6,2c10.1,7,21.1,11.6,33.4,12.9c3.7,0.4,4.1,2.5,4.1,5.5c0,14.6,0.1,29.2-0.1,43.8
		c0,2.7,0.5,3.8,3.4,3.5c4.1-0.5,5.4,1.5,5.3,5.5c-0.1,9.3,0,9.5,9.2,9.3c4.2-0.1,5.9,1.4,5.6,5.7c-0.3,4.4-0.2,8.8,0,13.3
		c0.1,3.2-1.3,4.6-4.4,4.6c-3.4,0.1-7.7-1.4-9.8,0.6c-2.1,2.1-0.6,6.4-0.6,9.8c0,3-1.2,4.3-4.2,4.3c-5-0.1-10-0.1-15,0
		c-3,0-4.2-1.4-4.1-4.4c0.1-2.5,0.1-5,0-7.5c0-0.9,0.6-2.2-0.8-2.7c-1.3-0.5-2.2,0.3-3.1,1.2c-1.4,1.5-2.9,3-4.4,4.3
		c-9.2,8.3-19.4,14.9-31.2,18.7c-1.7,0.6-3.4,1-5.2,0.4c-26-9.5-45.5-25.7-53.7-53.1c-3.1-10.2-1.2-20.8-1.6-31.2
		C127.9,94.9,128,94.2,128,93.5z"/>
	<path class="st2" d="M132.5,206.9c-0.2,2.4,0.9,3.8,3.3,4.4c12.8,3.4,25.5,7,38.4,10.2c9.7,2.4,19-4.6,20.1-14.8
		c0.2-1.7,0.1-3,2.3-3.6c14.9-4,29.5-9.1,44.6-12.6c3.9-0.9,7.9-1.1,11.8,0.1c5.2,1.6,7.7,5.5,6.6,10.8c-1.2,5.3-4,9.5-9.3,11.5
		c-23.7,9.2-47.5,18.3-71.3,27.3c-7.9,3-15.9,3.5-24.2,0.4c-6.8-2.5-14-3.7-20.7-6.2c-9.7-3.6-18.8-3.2-27.4,2.4
		c-3.1,2-4.5,1.6-5.9-2c-4.7-12-9.8-24-14.9-35.9c-1-2.4-1.1-3.6,1.7-4.9c9.7-4.3,19.1-9.1,28.8-13.5c8.1-3.7,16.7-4.5,24.2,0.4
		c11.3,7.3,24.3,9.4,36.8,13.1c0.8,0.3,1.7,0.4,2.6,0.7c6,1.9,8.4,5.4,8.1,11.9c-1.9,2.6-4.3,1.2-6.4,0.6
		c-16.5-4.3-33-8.9-49.5-13.1c-1.6-0.4-3.5-1.8-4.9,0c-1.2,1.5,0,3.4,0.4,5.1C128.4,202.5,132.3,203.5,132.5,206.9z"/>
	<path class="st3" d="M71.5,186.6c2.1,0.2,3.1,1.3,3.8,2.9c8.5,20.4,16.9,40.7,25.4,61c1.2,2.8,0.3,4.6-2.3,5.7
		c-4.3,1.8-8.7,3.5-13,5.4c-3.5,1.6-5.4,0.6-6.9-2.8c-5.8-14.3-11.8-28.5-17.7-42.8c-2.4-5.7-4.6-11.4-7.1-17.1
		c-1.4-3.2-0.5-5,2.6-6.2c4.4-1.8,8.7-3.6,13.1-5.4C70.1,187.1,70.9,186.8,71.5,186.6z"/>
	<path class="st4" d="M132.5,206.9c-3.8-2.8-6.7-6.1-7.1-11.1c-0.3-3.2,0.6-4.7,4.2-3.7c17.3,4.8,34.7,9.4,52.1,14.1
		c2.1,0.6,4.2,1.2,6.4,0.6c-2,7.2-6.7,10.1-13.9,8.2c-11.9-3.1-23.9-6.3-35.8-9.6C136.1,204.9,134.1,204.8,132.5,206.9z"/>
	<path class="st5" d="M216.2,155.7c-8.6,8-17.9,14-28.6,17.7c-1.3,0.4-2.4,0.8-3.8,0.2c-24.6-9.8-43.1-25.3-48.9-52.4
		c-1.6-7.6-0.5-15.6-0.6-23.4c-0.1-8.1,0-16.2-0.1-24.3c0-2.2,0.3-3.4,2.9-3.8c11-1.6,20.9-6,30.1-12.1c2.3-1.5,4.6-2.3,7.4-2.1
		c1.9,0.1,3.8,0.1,5.7,0c11.7-0.8,22.8,0.1,33,7.5c5.7,4.1,12.9,5.7,20,6.6c2.8,0.4,3.2,1.5,3.2,4c-0.1,13.1-0.2,26.2,0,39.3
		c0,3.1-0.8,4.2-3.9,3.9c-3.3-0.4-4.8,1.3-4.7,4.7c0.1,3.2,1.4,7.3-0.6,9.4c-2,2.1-6.1,0.7-9.3,0.7c-3.6,0-5.1,1.3-5,5
		c0.2,4.3,0.1,8.5,0,12.8C212.9,152.1,213.2,154.4,216.2,155.7z"/>
	<path class="st6" d="M259.9,144.5c1.2,4-1.1,4.7-5.2,4.6c-10.5-0.3-9.7-0.7-9.8,9.7c0,1.6,1,4.2-0.9,4.7c-2.9,0.6-6.2,0.4-9.2,0
		c-1.2-0.2-0.6-2.1-0.6-3.2c-0.2-11-0.2-11.1-11.4-11.2c-2.5,0-3.6-0.4-3.6-3.3c0.1-7.7-0.1-7.7,7.5-7.7c7.5,0,7.5,0,7.5-7.3
		c0-8.5,0-8.4,8.5-7.7c2,0.2,2.5,0.9,2.4,2.7c-0.1,2.6,0,5.3,0,7.9c-0.1,2.9,1.3,4.4,4.3,4.3c1.6-0.1,3.2,0,4.9,0
		C259.9,138,259.9,138,259.9,144.5z"/>
	<path class="st7" d="M185.1,129.1c-14.9-0.3-26-7.9-35.9-17.9c-1.6-1.6-1.6-3.4,0-5.1c16.7-17.3,37.1-24.6,59.8-10.1
		c4.3,2.8,8.3,6,12.1,9.6c1.7,1.6,2.6,3.4,0.6,5.3C211.3,120.9,199.9,128.6,185.1,129.1z"/>
	<path class="st6" d="M197,108.6c0,6.3-5.1,11.5-11.4,11.7c-6.6,0.1-11.9-5-11.9-11.5c0-6.6,5.2-11.7,11.8-11.7
		C191.8,97.1,196.9,102.3,197,108.6z"/>
	<path class="st8" d="M170.8,97.8c-4.2,7.4-4.5,14.2,0.2,21.8c-6-2.6-10.3-6.1-14.5-9.9c-1.2-1.1-0.5-1.7,0.3-2.5
		C160.9,103.6,165.1,100.3,170.8,97.8z"/>
	<path class="st9" d="M200,119c4-7.2,4.1-13.5,0-20.5c5.8,2.3,9.8,5.8,13.8,9.1c1.3,1.1,0.5,1.7-0.4,2.4
		C209.7,113.3,205.7,116.4,200,119z"/>
</g>
</svg>
