<svg id="Layer_1" data-name="Layer 1" xmlns="http://www.w3.org/2000/svg" xmlns:xlink="http://www.w3.org/1999/xlink" viewBox="0 0 316.8 316.8"><defs><style>.cls-1{fill:none;stroke-miterlimit:10;stroke-width:4px;stroke:url(#linear-gradient);}.cls-2{fill:#010101;}.cls-3{fill:#0072ba;}.cls-4{fill:#fecdbe;}.cls-5{fill:#fefefe;}.cls-6{fill:#4fc3a0;}.cls-7{fill:#006ea5;}.cls-8{fill:#ccccc5;}.cls-9{fill:#fdaf9d;}.cls-10{fill:#cbcbc4;}.cls-11{fill:#218d78;}.cls-12{fill:#218d79;}.cls-13{fill:#64bad9;}</style><linearGradient id="linear-gradient" y1="159.6" x2="316.8" y2="159.6" gradientTransform="matrix(1, 0, 0, -1, 0, 318)" gradientUnits="userSpaceOnUse"><stop offset="0" stop-color="#0072ba"/><stop offset="1" stop-color="#4fc3a0"/></linearGradient></defs><circle class="cls-1" cx="158.4" cy="158.4" r="156.4"/><path class="cls-2" d="M233.37,270.57c-3.54,0-7.07-.05-10.61,0-2.34.05-3.32-.95-3.27-3.3.09-4.24-.07-8.49.06-12.73.06-2-.56-2.63-2.61-2.7-5.33-.19-10.7.8-16-.58-.75-.19-1.8.66-2.69,1.08C134.5,282,61.23,242.18,51.63,172.69c-8-58,35.3-111.89,93.66-116.41,64.67-5,117.2,48,111.49,112.54a99,99,0,0,1-8.31,31.85c-1.08,2.4-1.8,4.57-1.22,7.49.75,3.82.46,7.92.11,11.85-.31,3.54,1.09,4.27,4.25,4,3.52-.25,7.07,0,10.61-.08,2.61-.07,3.94.79,3.9,3.64-.1,6.93-.07,13.87,0,20.8,0,2.51-.95,3.6-3.52,3.53-4.1-.11-8.21.09-12.31-.07-2.23-.09-3,.61-2.89,2.85.16,4-.07,7.93.08,11.89.11,2.88-.91,4.16-3.92,4C240.17,270.44,236.77,270.58,233.37,270.57Z"/><path class="cls-3" d="M68.52,130.18,153.34,163c1.51.58,2.58.88,1.83,3.19-4.69,14.35-5.72,29.32-6.89,44.24-1.13,14.5-1.84,29-1.85,43.59,0,3-.8,3.93-3.85,3.4-5.57-1-11.13-1.87-16.45-3.87-36.83-15.06-57.5-42.86-63.63-81.68a91.79,91.79,0,0,1,2.33-37.75C65.3,132.36,65.19,129.54,68.52,130.18Z"/><path class="cls-4" d="M88,92c29.62,16.43,60.08,31.35,88.88,49.27,2.45,1.53,3.71,2.86,3.07,6.29-1,5.63,1.89,10,6.94,13.67-1.91.71-3.41,1.21-4.86,1.82-9.74,4.1-11.74,16.1-3.58,22.74,2.15,1.76,2.1,3,1.3,5.25-7.59,21.13-15.06,42.29-22.59,63.44-.58,1.62-.64,3.64-3.37,3.54-2.16-.08-3.27-.28-3.2-3,.7-26.16,1.36-52.31,6.15-78.15.7-3.75,1.34-7.6,3.18-10.94,2-3.65.5-4.85-2.76-6.1-16.89-6.43-33.72-13-50.55-19.59-12.74-5-25.45-10.07-38.17-15.11-.68-1.66.26-3.06.85-4.43A109.45,109.45,0,0,1,84.11,95.18C85.16,93.86,86.15,92.43,88,92Z"/><path class="cls-3" d="M219.58,206c2.77-10.36,6.73-20.34,10.63-30.29,3.6-9.16,4.61-18.62,4.86-28.22.3-11.14-4.42-20.2-12.69-27.54Q190.67,91.73,159,63.48c-1-.89-2.4-1.49-2.81-3.32a98.11,98.11,0,0,1,43.5,11.07c47.21,24.49,66.61,82.69,43.65,130.59-1.3,2.71-2.81,3.61-5.77,3.6-6,0-12.1-.66-18.1.47Z"/><path class="cls-5" d="M126.29,64.85c13.57,11.53,26.36,23.93,39.49,35.93,10,9.16,19.89,18.48,29.79,27.77,1.61,1.5,3.06,2.46,5.55,2.21,4-.4,7.13,1.56,9,5.17a8.92,8.92,0,0,1-1.1,10.32,123.35,123.35,0,0,1-9,9.62,9.24,9.24,0,0,1-11.7,1.07c-3.62-2.38-5.56-6.7-3.83-10.68,1.5-3.45,0-4.88-2.43-6.52-13.7-9.29-28.35-16.92-42.83-24.87C123.3,106.1,107,98,91.39,88.58c.58-2.91,3.18-4.22,5.07-5.94C105.18,74.72,114.79,68.17,126.29,64.85Z"/><path class="cls-4" d="M131.4,63.07c.39-.31.47-.44.58-.46,15.52-3.69,15.52-3.69,27.38,6.87q29.94,26.68,59.9,53.33c8.56,7.57,12.41,16.84,11.49,28.26a88.36,88.36,0,0,1-5.27,25.16c-5.64,14.62-10.8,29.42-16,44.19-.84,2.35-1.62,4.06-4.6,3.61-3.2-.49-4.19,1.23-4,4.27.18,3.81-.26,7.66.12,11.44.49,5-1.11,8.21-6.1,9.54a25.89,25.89,0,0,0-3.5,1.46c-1.09-1-.16-1.85.07-2.67,6-21.06,12-42.11,17.89-63.19.57-2,1.33-3.49,3.49-4.26,2.59-.92,5-2.71,5.81-5.28,1.61-4.82,4.81-8.72,6.92-13.16,3.86-8.07,2.85-22.8-9.5-26.42a3.88,3.88,0,0,1-2.35-2.2,13.46,13.46,0,0,0-12.18-7.14,5.15,5.15,0,0,1-3.69-1.65q-32.68-30.28-65.4-60.53A14.64,14.64,0,0,1,131.4,63.07Z"/><path class="cls-5" d="M192.38,164.31c4.12-1.45,8.19-3.08,12.38-4.31a8.92,8.92,0,0,1,5.86,16.84c-3.37,1.15-4.48,3.26-5.33,6.28-6.17,22-12.55,43.95-18.61,66-.85,3.09-2.32,4.5-5.21,5.11-4.26.91-8.43,2.34-12.83,2.55-1.36-2,0-3.85.59-5.61q9.84-28,20-56c.34-.93.59-1.9,1-2.79,1.54-3.22,1.06-5.63-1.81-8.17-4.73-4.18-5.13-10.62-1.77-15.74C188.06,166.31,190.36,165.55,192.38,164.31Z"/><path class="cls-6" d="M243.32,227.13c4.25,2.28,8.84,1,13.22,1,4.13-.06,5.93.79,5.41,5.3a76.35,76.35,0,0,0-.05,11.42c.09,2.23-.73,3-2.92,2.89-4.09-.12-8.18,0-12.27-.05-2.51,0-3.59,1-3.53,3.52.1,4.09-.08,8.18.06,12.27.07,2.19-.65,3.06-2.88,2.92-3-.18-5.92-.14-8.88-.2-2-2.56-1.31-5.61-1.22-8.44.11-3.72-.26-6.68-4.93-6.79-.54,0-1-.5-1.38-.89-.53-1.93-1.9-2.44-3.76-2.4-2.46.05-4.93-.09-7.4-.15-2.57-5.67-1.33-11.55-.82-17.37.13-1.57,1.62-1.65,3-1.68,2.39-.05,4.79.25,7.16-.19a3.33,3.33,0,0,0,1.8-1.9c6.19-1.06,6.61-5.32,6.34-10.51-.29-5.81.28-6.06,6.2-6.06,6.47,0,6.4,0,6.51,6.47C243,219.87,242.42,223.53,243.32,227.13Z"/><path class="cls-7" d="M68.52,130.18c-2.15.2-2.15,2.12-2.48,3.47-5.18,21.38-4.29,42.43,4,62.92,10.05,24.77,27.36,42.73,51.42,54.26,1.62.77,3.53,1.11,4.64,2.76-11.9-2.43-22.26-8.23-31.66-15.53C68.21,217.67,55.06,190.62,55,157.37a98.84,98.84,0,0,1,4.06-26.74c.82-2.95,1.85-4.16,4.84-2.42A40,40,0,0,0,68.52,130.18Z"/><path class="cls-8" d="M192.38,164.31c-3.38,3.13-7,5.91-6.92,11.37,0,4.4,2.24,7.27,5.47,9.4,2,1.32,2.17,2.43,1.45,4.44q-9.85,27.4-19.59,54.85c-1.46,4.11-2.77,8.26-4.15,12.39a23.14,23.14,0,0,1-8,.77c1.6-4.64,3.11-9.12,4.69-13.58,6.43-18.09,12.84-36.19,19.38-54.23,1.08-3,1.15-4.81-2.29-6.26s-4.88-4.58-4.74-8.32a8.38,8.38,0,0,1,5.44-7.92C186.13,166,189.11,164.66,192.38,164.31Z"/><path class="cls-9" d="M88,92c-8.5,9.9-14.61,21.2-19.56,33.18-8.51-2.71-6.81-1.92-3.89-8.39,4-8.93,9.68-16.81,16.06-24.24C83.14,89.58,85.26,89.08,88,92Z"/><path class="cls-10" d="M215.4,140.37c8.47,3.59,10.56,15.21,4.5,22.71-4.8-6-4.8-6-12.71-8.48C210.91,150.37,215.57,146.77,215.4,140.37Z"/><path class="cls-11" d="M222.09,228.24c-.93.89-2.1.61-3.19.62-6.72.09-6.09-1-6.12,6.43,0,4.07,0,8.13,0,12.19-7.67.44-7.67.44-7.67-7.23V239c0-10.89,0-10.89,11.06-10.91C218.15,228.07,220.12,228.18,222.09,228.24Z"/><path class="cls-12" d="M243.32,227.13c-1.78-4.2-.65-8.6-.71-12.89,0-3.08-.76-4.23-4-4.12-8.45.3-7-.78-7.12,6.86,0,.57,0,1.13,0,1.7,0,7.57,0,7.57-7.57,7.66,0-4.52,0-9.05-.14-13.58-.08-2.25.46-3.38,3-3.29,4.38.14,8.77.07,13.16-.11,2.52-.11,3.55.65,3.45,3.34C243.2,217.5,243.33,222.32,243.32,227.13Z"/><path class="cls-10" d="M126.29,64.85c-13,5.89-24.83,13.52-34.9,23.73-4.69-2.27-4.69-2.27-.71-5.58a96,96,0,0,1,31.4-17.61C123.37,65,124.72,63.61,126.29,64.85Z"/><path class="cls-11" d="M224,250c7.5.08,7.5.08,7.51,7.68,0,2.81,0,5.63,0,8.44-7.7.44-7.72.44-7.69-7.23C223.8,256,223.9,253,224,250Z"/><path class="cls-13" d="M219.5,205.89c0,4.22,0,8.45,0,12.67,0,6.09,0,6.09-6.75,4.95,2.4-5.85,3.81-12,6.81-17.56Z"/></svg>