<svg id="Layer_1" data-name="Layer 1" xmlns="http://www.w3.org/2000/svg" xmlns:xlink="http://www.w3.org/1999/xlink" viewBox="0 0 312.8 312.8"><defs><style>.cls-1{fill:none;stroke-miterlimit:10;stroke-width:3.95px;stroke:url(#linear-gradient);}.cls-2{fill:#0072ba;}.cls-3{fill:#4fc3a0;}.cls-4{fill:#f5f5f5;}.cls-5{fill:#f1f4f5;}</style><linearGradient id="linear-gradient" x1="2" y1="159.6" x2="314.8" y2="159.6" gradientTransform="matrix(1, 0, 0, -1, -2, 316)" gradientUnits="userSpaceOnUse"><stop offset="0" stop-color="#0072ba"/><stop offset="1" stop-color="#4fc3a0"/></linearGradient></defs><circle class="cls-1" cx="156.4" cy="156.4" r="154.43"/><path class="cls-2" d="M146,204.05c1.05-8.59,2-15.83,2.82-23.08.32-2.78-1.53-4.86-2.64-7.16-2.25-4.61-.71-7.72,4.51-8.12a117.83,117.83,0,0,1,13.29,0c3.11.11,5.91,4.32,4,7.05-5.81,8.29-2.14,16.77-1.46,25.22.17,2.09.46,4.17.78,7.09,7.55-9.47,14.5-18.4,21-27.71,2.44-3.51,5-6.92,7.36-10.5,1.25-1.93,2.38-2.5,4.81-1.86a182.31,182.31,0,0,1,43.44,18c9.67,5.5,15.3,13.58,14.6,25.48-.52,8.84-.17,17.73-.08,26.59a30.86,30.86,0,0,1-3,13.75c-2.77,5.75-7.78,8.25-14.19,8.25Q185,257,128.83,257c-18.65,0-37.3-.14-56,.07-7.78.08-12.65-3.66-15.83-10.25a23.55,23.55,0,0,1-2.58-9.69c-.16-11.3-.39-22.62,0-33.91.35-9.11,5.62-15.8,13.11-20.38,14-8.58,29.18-14.58,44.94-19.16,2.33-.67,3.55.09,4.85,2,7.21,10.8,14.81,21.32,22.94,31.46C142,199.21,143.62,201.16,146,204.05Z" transform="translate(-2 -2)"/><path class="cls-2" d="M114.22,59.74c-1.37-8.4,6-13.1,11.68-19.32,7.12-7.81,15.68-10.53,25.6-10.88,13.36-.47,26.31,1.2,37.6,9,8.24,5.7,11.89,14.08,11.85,24,0,1.59,1,4.24-1.54,4.51s-5.31,1.37-7.32-1.88a20.3,20.3,0,0,0-16.19-9.89c-8.29-.7-14.92,2.69-19.69,9.36A5.55,5.55,0,0,1,151,67.3c-10.38-.1-20.76,0-31.14,0C114,67.26,114,67.25,114.22,59.74Z" transform="translate(-2 -2)"/><path class="cls-2" d="M193.12,87.84c.76-.69.86-.87,1-.87,12.17-.6,10.6-1.46,10.49,9.48-.07,7.32-1.52,14.35-8.39,18.82-2,1.28-2.14,3.59-2.92,5.56-5.17,13.13-13.27,23.46-27.66,27-15.42,3.78-32-4.05-41.26-19a30.73,30.73,0,0,1-2.22-4c-2.08-4.84-4.08-9.39-8.26-13.24-5.44-5-6.14-17-2.76-23.51a2.23,2.23,0,0,1,2.18-1.33c3.43,0,6.86,0,10.49,0-.28.92-.34,1.39-.44,1.4-5.65.61-5.23,4.43-4.7,8.52.61,4.75,1.38,9.16,5.44,12.63,1.77,1.5,2.23,4.58,3.17,7a38.82,38.82,0,0,0,18.3,20.87c14,7.56,29,2.85,38.83-12.41,3.24-5,4.25-11.48,8.09-15.8s4.31-9.17,4.85-14.27C197.65,91.47,197.54,88.5,193.12,87.84Z" transform="translate(-2 -2)"/><path class="cls-3" d="M173.26,94a16.74,16.74,0,0,1-16.83-17.26c.2-9.09,8-16.38,17.43-16.28A16.81,16.81,0,0,1,190.73,77.7C190.52,86.71,182.6,94.1,173.26,94Z" transform="translate(-2 -2)"/><path class="cls-3" d="M133.17,83c-5,0-10.08-.14-15.11.06-2.9.11-4-.68-3.94-3.79.31-9.66-1-7.71,7.58-7.84,9-.13,18,.06,27-.08,2.73,0,3.64.54,3.43,3.56C151.6,83,151.78,83,143.7,83Z" transform="translate(-2 -2)"/><path class="cls-3" d="M195.39,77.05c1.42-1.46-3-5.67,2.62-5.67,1.83,0,2.88.41,2.74,2.51a52.53,52.53,0,0,0,0,5.47c.07,2.09.19,3.79-2.92,3.75-3.4,0-2.57-2-2.44-3.94C195.42,78.57,195.39,78,195.39,77.05Z" transform="translate(-2 -2)"/><path class="cls-4" d="M218,235.74c-3.64,0-6.26-2.74-6.55-6.59-.56-7.58-.56-7.58-7.78-8-4.22-.27-7.05-2.82-6.82-6.42.26-4,2.78-5.86,6.63-6.14h.46c7.22-.34,7.22-.34,7.5-7.38.18-4.47,2.73-7.32,6.48-7.26,3.54.06,6.07,2.85,6.35,7,.49,7.23.49,7.27,7.67,7.61,3.9.18,6.45,2,6.87,5.91.37,3.38-2.77,6.26-6.74,6.67-2.66.28-6.18-1.28-7.76.86-1.26,1.71-.37,5-.53,7.55C223.52,233.34,221.18,235.15,218,235.74Z" transform="translate(-2 -2)"/><path class="cls-5" d="M173.28,82.35c-2.77-.58-4.79-2-4.73-5.13.07-3.28,2.08-5.11,5.25-5a4.57,4.57,0,0,1,4.8,5C178.55,80.41,176.51,82,173.28,82.35Z" transform="translate(-2 -2)"/></svg>