<svg id="Layer_1" data-name="Layer 1" xmlns="http://www.w3.org/2000/svg" xmlns:xlink="http://www.w3.org/1999/xlink" viewBox="0 0 312.8 312.8"><defs><style>.cls-1{fill:none;stroke-miterlimit:10;stroke-width:3.95px;stroke:url(#linear-gradient);}.cls-2{fill:#0072ba;}.cls-3{fill:#fff;}.cls-4{fill:#4fc3a0;}</style><linearGradient id="linear-gradient" x1="2" y1="159.6" x2="314.8" y2="159.6" gradientTransform="matrix(1, 0, 0, -1, -2, 316)" gradientUnits="userSpaceOnUse"><stop offset="0" stop-color="#0072ba"/><stop offset="1" stop-color="#4fc3a0"/></linearGradient></defs><circle class="cls-1" cx="156.4" cy="156.4" r="154.43"/><path class="cls-2" d="M232.57,226.68c-3.41-2.24-6.39-5.17-9.89-7.22C208.12,211,202,196,207.52,179.87q6.12-18,13.54-35.63c7.66-18.28,9.46-36.73,3.75-55.87C217,62.06,198.17,48,172.63,41.72c-37-9-65.5,5.21-84.32,38.5a23.12,23.12,0,0,0-2.66,10.12c-.39,9-.39,18-.08,27.06a17.17,17.17,0,0,0,2.68,8.09c2.31,3.73,3.16,7.19,1,11.21C86,142.83,82.89,149,79.64,155.17c-3,5.6-2.61,6.65,3.17,8.65,8.16,2.82,8.52,3.63,7.25,12.33a6,6,0,0,0,2,4.58c2.92,2.49,5.65,4.65,2.38,8.74a2.17,2.17,0,0,0,0,2c3.11,5,1.78,10.33,1.11,15.57-.82,6.3,2.85,11.09,9.32,11a124.08,124.08,0,0,0,18.95-1.73c3.3-.56,5.5.24,6.49,2.94,4.32,11.77,8.46,23.6,12.34,35.51.23.71,2.07,8.49,3,14H218.4l37.28-21.13C247.34,240.31,233.38,227.21,232.57,226.68Z" transform="translate(-2 -2)"/><path class="cls-3" d="M166.11,72.3c.12,3.9-2.23,4.78-5.77,4.3-6.06-.82-12.34-2.14-18.29-1.37-12.89,1.69-22.06,9.24-27.74,21-.51,1.06-.8,2.47-1.64,3.07-1,.74-3,1.46-3.81,1-1.1-.62-1.8-2.37-2.15-3.76-.21-.83.53-1.93.94-2.88,8.9-20.41,32.75-31.16,53.86-24.16C163.38,70.05,165,71.56,166.11,72.3Z" transform="translate(-2 -2)"/><path class="cls-3" d="M147.8,156.66c-4.6-1-9.22-1.82-13.8-2.91-2.44-.59-4.67-1.87-3.64-4.93s3.35-2.58,5.87-1.81c14.74,4.5,27.82,1.47,38.67-9.49,3-3.07,5.12-7.15,7.37-10.93,1.34-2.26,2.37-4.91,5.55-3.37s1.92,4.13.88,6.51C181.74,145.69,165.54,156.18,147.8,156.66Z" transform="translate(-2 -2)"/><path class="cls-3" d="M149,82.5c.61.54,3.22,1.74,3.5,3.34.58,3.33-2.28,3.69-5,3.87-11.47.76-19.59,8.27-21.15,19.58-.36,2.57-.93,5-4,4.81-3.39-.24-3.45-3-3.21-5.69C120.36,94.51,133.21,82.66,149,82.5Z" transform="translate(-2 -2)"/><path class="cls-3" d="M147,140.89c-.58-.61-2.86-1.91-3.19-3.58-.53-2.74,1.9-3.39,4.38-3.57,12.43-.92,19.78-7.65,21.74-19.84.41-2.52,1.08-5,4.19-4.54s3.14,2.94,2.94,5.47C175.93,128.9,163,140.86,147,140.89Z" transform="translate(-2 -2)"/><path class="cls-4" d="M148.19,97.51a14.21,14.21,0,0,0-.08,28.42,14.21,14.21,0,1,0,.08-28.42ZM148,118.77a7.06,7.06,0,0,1,.23-14.11,7.06,7.06,0,1,1-.23,14.11Z" transform="translate(-2 -2)"/></svg>