<svg id="Layer_1" data-name="Layer 1" xmlns="http://www.w3.org/2000/svg" xmlns:xlink="http://www.w3.org/1999/xlink" viewBox="0 0 312.8 312.8"><defs><style>.cls-1{fill:none;stroke-miterlimit:10;stroke-width:3.95px;stroke:url(#linear-gradient);}.cls-2{fill:#0072ba;}.cls-3{fill:#4fc3a0;}.cls-4{fill:#fff;}</style><linearGradient id="linear-gradient" x1="2" y1="159.6" x2="314.8" y2="159.6" gradientTransform="matrix(1, 0, 0, -1, -2, 316)" gradientUnits="userSpaceOnUse"><stop offset="0" stop-color="#0072ba"/><stop offset="1" stop-color="#4fc3a0"/></linearGradient></defs><circle class="cls-1" cx="156.4" cy="156.4" r="154.43"/><path class="cls-2" d="M153.62,57.58c.89,8.81,2.14,9.91,10.55,9.91h35.16c9.27,0,9.78-.42,11.53-9.88,5.69,0,11.51-.17,17.31.15,1,.06,2.78,2.13,2.79,3.29q.25,30.89,0,61.78a4.51,4.51,0,0,1-2.24,3.45c-16.55,6-27,27.22-16.81,46.22a8.77,8.77,0,0,1,.4,1.84H207.5c-22.81,0-45.63-.13-68.44.11-4.91.05-6.13-1.57-6.11-6.28q.27-52.27,0-104.55c0-4.86,1.42-6.51,6.21-6.13S148.61,57.58,153.62,57.58Zm24.78,71.49c-8.88,0-17.76-.13-26.62.13-1.55.05-3,1.78-4.56,2.73,1.57.94,3.13,2.67,4.7,2.69q26.15.28,52.3,0c1.6,0,4.4-1.53,4.54-2.62.4-3.25-2.51-2.91-4.69-2.92C195.51,129.05,187,129.07,178.4,129.07Zm-4.13,26.72c7.28,0,14.57.19,21.84-.13,1.71-.07,3.35-1.83,5-2.82-1.59-.91-3.16-2.58-4.76-2.6q-22.32-.3-44.65,0c-1.51,0-3,1.83-4.5,2.81,1.58.91,3.12,2.55,4.73,2.61C159.38,156,166.83,155.79,174.27,155.79Zm5.08-53.29c0,2.57-.36,5,.12,7.15.35,1.63,1.8,3,2.75,4.51.93-1.56,2.3-3,2.68-4.69.47-2.06.12-4.31.12-7,3,0,5.54.32,7.95-.12,1.35-.25,2.48-1.73,3.71-2.66-1.19-1-2.27-2.52-3.58-2.74-2.54-.44-5.21-.13-8.09-.13,0-3.11.37-5.56-.13-7.81-.32-1.47-1.9-2.65-2.92-4-.87,1.27-2.26,2.45-2.49,3.84-.41,2.41-.12,4.94-.12,7.92-2.89,0-5.28-.33-7.53.11-1.55.31-2.89,1.67-4.33,2.56,1.5,1,2.88,2.48,4.53,2.88C174.1,102.88,176.4,102.5,179.35,102.5Z" transform="translate(-2 -2)"/><path class="cls-3" d="M130.4,191.94c8.07,0,16.19-.58,24.2.13,14.08,1.25,23.62,10.05,24.61,22.15.82,10-3.55,18.41-9.15,26.34a60.81,60.81,0,0,0-3.79,7.2,76.81,76.81,0,0,0,8.44,1.57c3.47.28,7-.05,10.45.13,5,.25,8.39,3.51,8.42,7.89,0,4.58-3.5,7.88-8.79,7.95-7.13.1-14.26.12-21.38,0-6.87-.12-10.72-4.08-10.86-11.09-.12-5.86-.18-11.73,0-17.58.14-4-1.15-5.73-5.43-5.67-13.61.2-27.24.17-40.86,0-3.41,0-5.15,1.18-6.29,4.35-2.82,7.89-5.89,15.7-8.94,23.51-2.1,5.39-6.19,7.65-10.63,6-4.66-1.7-6.28-6.16-4.13-11.83Q86,227.28,95.91,201.58c2.55-6.67,7.37-10.08,14.53-10.1h20Z" transform="translate(-2 -2)"/><path class="cls-3" d="M240.62,183.57a26.82,26.82,0,1,1,26.68-27A26.79,26.79,0,0,1,240.62,183.57Zm-4.33-22.14c-2.13-2.52-3.42-4.63-5.25-6-1-.77-2.95-.36-4.47-.47.16,1.41-.17,3.23.59,4.17a35.27,35.27,0,0,0,7,6.94,5.37,5.37,0,0,0,5.12-.37c4.92-4.42,9.59-9.14,14.06-14,.93-1,.61-3.21.87-4.85-1.65.36-3.79.19-4.85,1.19C245.14,152,241.22,156.29,236.29,161.43Z" transform="translate(-2 -2)"/><path class="cls-3" d="M71.82,205.21A22.62,22.62,0,1,1,94.75,182.8,22.78,22.78,0,0,1,71.82,205.21Z" transform="translate(-2 -2)"/><path class="cls-3" d="M204.17,61.53H159.9V47.85h44.27Z" transform="translate(-2 -2)"/><path class="cls-4" d="M178.4,129.07c8.55,0,17.11,0,25.67,0,2.18,0,5.09-.33,4.69,2.92-.14,1.09-2.94,2.6-4.54,2.62q-26.15.28-52.3,0c-1.57,0-3.13-1.75-4.7-2.69,1.52-1,3-2.68,4.56-2.73C160.64,128.94,169.52,129.07,178.4,129.07Z" transform="translate(-2 -2)"/><path class="cls-4" d="M174.27,155.79c-7.44,0-14.89.16-22.32-.12-1.61-.06-3.15-1.7-4.73-2.61,1.5-1,3-2.79,4.5-2.81q22.32-.31,44.65,0c1.6,0,3.17,1.69,4.76,2.6-1.67,1-3.31,2.75-5,2.82C188.84,156,181.55,155.79,174.27,155.79Z" transform="translate(-2 -2)"/><path class="cls-4" d="M179.35,102.5c-2.95,0-5.25.38-7.33-.12-1.65-.4-3-1.88-4.53-2.88,1.44-.89,2.78-2.25,4.33-2.56,2.25-.44,4.64-.11,7.53-.11,0-3-.29-5.51.12-7.92.23-1.39,1.62-2.57,2.49-3.84,1,1.31,2.6,2.49,2.92,4,.5,2.25.13,4.7.13,7.81,2.88,0,5.55-.31,8.09.13,1.31.22,2.39,1.78,3.58,2.74-1.23.93-2.36,2.41-3.71,2.66-2.41.44-5,.12-7.95.12,0,2.67.35,4.92-.12,7-.38,1.68-1.75,3.13-2.68,4.69-.95-1.5-2.4-2.88-2.75-4.51C179,107.46,179.35,105.07,179.35,102.5Z" transform="translate(-2 -2)"/><path class="cls-4" d="M236.29,161.43c4.93-5.14,8.85-9.47,13.1-13.44,1.06-1,3.2-.83,4.85-1.19-.26,1.64.06,3.82-.87,4.85-4.47,4.89-9.14,9.61-14.06,14a5.37,5.37,0,0,1-5.12.37,35.27,35.27,0,0,1-7-6.94c-.76-.94-.43-2.76-.59-4.17,1.52.11,3.44-.3,4.47.47C232.87,156.8,234.16,158.91,236.29,161.43Z" transform="translate(-2 -2)"/></svg>