<svg id="Layer_1" data-name="Layer 1" xmlns="http://www.w3.org/2000/svg" xmlns:xlink="http://www.w3.org/1999/xlink" viewBox="0 0 312.8 312.8"><defs><style>.cls-1{fill:none;stroke-miterlimit:10;stroke-width:3.95px;stroke:url(#linear-gradient);}.cls-2{fill:#4fc3a0;}.cls-3{fill:#0072ba;}</style><linearGradient id="linear-gradient" x1="2" y1="159.6" x2="314.8" y2="159.6" gradientTransform="matrix(1, 0, 0, -1, -2, 316)" gradientUnits="userSpaceOnUse"><stop offset="0" stop-color="#0072ba"/><stop offset="1" stop-color="#4fc3a0"/></linearGradient></defs><circle class="cls-1" cx="156.4" cy="156.4" r="154.43"/><path class="cls-2" d="M228.18,256.51c-8.35,0-16.71.09-25.06,0-9.23-.13-12.32-2.66-14.53-11.5-4.64-18.55-9.36-22.28-28.53-22.3q-51,0-102,0c-6,0-6.74-.72-6.75-6.65V182.74c0-5.54,1.88-7.51,7.54-7.17a103.49,103.49,0,0,1,12,1.68,92.61,92.61,0,0,0,27.1,1c3.57-.42,6.86.48,10.14,1.58,10.22,3.44,20.43,6.93,30.65,10.38,12.16,4.12,19.55-1.41,18.81-14.18-.17-2.92,1-4.27,3.83-4.52,21.72-1.89,33.88,2.76,42.82,24.76,4.26,10.46,6.46,21.49,8,32.62.52,3.66,1.31,5.55,5.87,5.59,14.68.11,29.36.91,44,1.46,4.29.16,8,1.47,9.88,5.69,2.6,5.69-1.08,11.49-8,12.08-10.9.93-21.84,1.48-32.76,2.18-1,.07-2,.1-3,.15Z" transform="translate(-2 -2)"/><path class="cls-3" d="M182.65,152.63c0,3.16,0,6.34,0,9.5,0,2.83-1.44,4.31-4.31,4.13-3.15-.21-6.3-.6-9.45-.78-2.73-.16-3.81-1.5-3.7-4.18.17-4,.19-8.06.26-12.1,0-1.32,0-2.91-1.69-3s-1.65,1.62-1.76,2.9c-.29,3.3-.83,6.6-.82,9.9,0,8.36-6.74,8.6-11.75,6.23-11.32-5.35-22.35-11.31-33.5-17l-6.14-3.16c-2-1-4-1.38-5.24.93-1.31,2.5.18,4,2.36,5.12q19.62,10,39.21,20.1a22.74,22.74,0,0,1,4,2.45c2.67,2.18,3.15,5.17,2.06,8.23a6.64,6.64,0,0,1-7.06,4.6,12.9,12.9,0,0,1-3.36-.65c-15.5-4.93-31.06-9.68-46.46-14.89-17.21-5.81-19.29-9.77-15.7-27.45,1.91-9.45,3.72-18.92,5.6-28.37,1.42-7.15,5.38-12.31,12.13-15.2,5.29-2.27,10.66-4.35,15.88-6.78,2.61-1.21,4.41-.59,6,1.44,2.32,3,4.51,6,6.89,8.88,3.22,3.92,5.23,3.86,8.11-.23,2-2.83,3.81-5.76,5.66-8.69s3.88-3.82,7.24-2.42a124.66,124.66,0,0,0,12.27,4.16c11.28,3.38,17.25,11.46,19.74,22.45a132.27,132.27,0,0,1,2.54,15.32c.63,6.15.78,12.35,1.14,18.53Z" transform="translate(-2 -2)"/><path class="cls-3" d="M111.41,227.92c18.14,0,36.28-.06,54.42,0a14.29,14.29,0,0,1,14.26,12c1.1,7.14-3.11,13.7-10.2,16a15.87,15.87,0,0,1-5.12.56H57.23c-5.35,0-5.9-.57-5.91-6q0-8.41,0-16.84c0-5.15.6-5.78,5.67-5.78q27.21,0,54.42,0Z" transform="translate(-2 -2)"/><path class="cls-2" d="M197.54,167.62c.1-19.76,21.41-34.22,38.09-25.86,13.43,6.74,17.78,24.3,8.4,36a200.92,200.92,0,0,1-17.53,18.46c-4.4,4.25-9.51,4.08-14.52.36C205.08,191.51,197.5,176.27,197.54,167.62Z" transform="translate(-2 -2)"/><path class="cls-3" d="M149.1,58.35A35.16,35.16,0,0,1,142,77.92c-7,9.12-18.12,9.51-25.51.73-6-7.19-9.49-15.62-8.5-25.08a20.45,20.45,0,0,1,22.22-18.39C141.09,36,149.18,45.16,149.1,58.35Z" transform="translate(-2 -2)"/></svg>