<svg id="Layer_1" data-name="Layer 1" xmlns="http://www.w3.org/2000/svg" xmlns:xlink="http://www.w3.org/1999/xlink" viewBox="0 0 312.8 312.8"><defs><style>.cls-1{fill:none;stroke-miterlimit:10;stroke-width:3.95px;stroke:url(#linear-gradient);}.cls-2{fill:#4fc3a0;}.cls-3{fill:#0072ba;}</style><linearGradient id="linear-gradient" x1="2" y1="159.6" x2="314.8" y2="159.6" gradientTransform="matrix(1, 0, 0, -1, -2, 316)" gradientUnits="userSpaceOnUse"><stop offset="0" stop-color="#0072ba"/><stop offset="1" stop-color="#4fc3a0"/></linearGradient></defs><circle class="cls-1" cx="156.4" cy="156.4" r="154.43"/><path class="cls-2" d="M115.84,123c20.94,4.23,41.94,8.23,62.8,12.83,7.65,1.69,11.75,9,10.65,17-3.2,23.58-6.53,47.14-9.81,70.71-.42,3-.84,6-1.32,9a35,35,0,0,1-69.34-1q-5.64-44.19-11.17-88.41C96.12,131.2,103,124,115.57,124.37Z" transform="translate(-2 -2)"/><path class="cls-3" d="M201.31,216.27l-2.6-2.78-11.05,6.91c1-7.08,1.63-13.15,2.84-19.11.31-1.58,2.3-2.89,3.66-4.17,22.53-21.22,31.23-47,23.24-77s-28-48.59-58.26-55.41c-33.31-7.51-67.65,9-83.64,39.29s-10,67.69,15.28,91c5,4.65,7.57,9.35,7.7,15.89.06,3,.63,5.91,1,9.13-36-17.61-62.69-68.68-39.6-119,22.13-48.21,81-67.67,127.44-42.35,47,25.66,64.77,87.78,29.78,136.46l3,2.35c.73-.56,1.47-1.1,2.18-1.67,4.19-3.37,7.67-3.41,11.49.34,8.77,8.64,17.62,17.21,26,26.18a23.86,23.86,0,0,1-33.72,33.73c-9-8.43-17.55-17.27-26.17-26.05C195.87,225.85,196.25,222.66,201.31,216.27Z" transform="translate(-2 -2)"/><path class="cls-2" d="M120.36,116.62c-6.71,0-12.91.28-19-.2-1.43-.11-3.66-2.65-3.81-4.25a111.12,111.12,0,0,1-.13-15.27,11.35,11.35,0,0,1,11.1-11,11.58,11.58,0,0,1,11.83,10.79c.07.79,0,1.59,0,2.39Z" transform="translate(-2 -2)"/><path class="cls-2" d="M143.33,118.91l-15.27-2.31c0-5.41-.18-10.64.06-15.85a7.59,7.59,0,0,1,15.14,0C143.54,106.54,143.33,112.41,143.33,118.91Z" transform="translate(-2 -2)"/><path class="cls-2" d="M151.08,122c0-4.88-.17-9.2,0-13.49a7.59,7.59,0,0,1,15.16-.13c.28,5.07.07,10.18.07,15.85Z" transform="translate(-2 -2)"/><path class="cls-2" d="M189.4,122.05c0,11-.19,11.07-10.68,7.8-3.72-1.15-5.26-2.86-4.71-6.73.32-2.19,0-4.47.11-6.7a7.6,7.6,0,0,1,7.31-7.44,7.7,7.7,0,0,1,7.94,7.33C189.55,118.21,189.4,120.14,189.4,122.05Z" transform="translate(-2 -2)"/></svg>