<svg id="Layer_1" data-name="Layer 1" xmlns="http://www.w3.org/2000/svg" xmlns:xlink="http://www.w3.org/1999/xlink" viewBox="0 0 312.8 312.8"><defs><style>.cls-1{fill:none;stroke-miterlimit:10;stroke-width:3.95px;stroke:url(#linear-gradient);}.cls-2{fill:#0072ba;}.cls-3{fill:#4fc3a0;}.cls-4{fill:#fff;}</style><linearGradient id="linear-gradient" x1="2" y1="159.6" x2="314.8" y2="159.6" gradientTransform="matrix(1, 0, 0, -1, -2, 316)" gradientUnits="userSpaceOnUse"><stop offset="0" stop-color="#0072ba"/><stop offset="1" stop-color="#4fc3a0"/></linearGradient></defs><circle class="cls-1" cx="156.4" cy="156.4" r="154.43"/><path class="cls-2" d="M69.83,94.89c12.38,1.08,16.36,5.4,16.39,17.37,0,8.62.13,17.24-.07,25.85a9.26,9.26,0,0,0,3.22,7.49c9.15,8.81,18.08,17.84,27.19,26.69,10.54,10.23,15.86,22.56,15.77,37.29-.11,16.64,0,33.27,0,49.91,0,5.86-1,6.83-6.92,6.85q-13.61,0-27.22,0c-5.67,0-6.81-1.21-6.83-7,0-9.53-.21-19.06.09-28.58.12-3.77-1.19-6-4.08-8.28-9.78-7.61-19.34-15.52-29-23.29-10.84-8.71-16.19-20-16.15-33.92.06-24,0-48.09.07-72.13,0-9.26,4.88-14.83,13.16-15.07,8.07-.22,13.72,5.48,14.23,14.33C69.68,93.13,69.75,93.87,69.83,94.89ZM123.18,257c0-16.36,0-32.23,0-48.09A39.54,39.54,0,0,0,111,179.61q-11.62-11.49-23.27-22.94c-3-3-6-6-9.11-8.86-2.48-2.24-5.31-2.32-7.71.09s-2.21,5.16-.12,7.75c.76.94,1.64,1.78,2.48,2.66q14.27,14.92,28.55,29.84c2.24,2.35,3.42,4.9.68,7.48-2.54,2.41-5,1.26-7.09-1C85,183.71,74.28,173,64.2,161.69A17.5,17.5,0,0,1,60.34,151c-.26-19.21,0-38.42.19-57.62,0-3.43-.93-6.2-4.92-6.16s-4.28,2.82-4.28,6c.05,24.21,0,48.41,0,72.62,0,10.66,4.22,19.32,12.52,26,9.78,7.88,19.32,16.06,29.41,23.52,5.42,4,7.83,8.31,7.33,15.16-.63,8.68-.15,17.44-.15,26.4ZM77.09,136.86c0-7.08,0-13.72,0-20.35,0-2.87.43-5.93-.42-8.54-.51-1.56-3.13-2.43-4.81-3.61-.73,1.39-1.8,2.7-2.12,4.18a26.55,26.55,0,0,0-.09,5.43V137.5Z" transform="translate(-2 -2)"/><path class="cls-3" d="M158.37,168.43c-10.28,7.18-21.05,5.59-29.17-4.14a7.5,7.5,0,0,0-4-2.33c-11.7-2.32-17.93-9.34-18.27-21.28a7.11,7.11,0,0,0-2.88-6C90.93,124,91,100.38,104.07,89.7a7.13,7.13,0,0,0,2.83-6.07c.36-11.9,6.6-18.89,18.34-21.22a7.5,7.5,0,0,0,4-2.36c8-9.66,18.79-11.23,29.19-4.08,10.26-7.19,21.11-5.59,29.17,4.12a7.5,7.5,0,0,0,4,2.33c11.53,2.27,17.81,9.16,18.25,20.82A8.15,8.15,0,0,0,213.13,90c12.62,10.45,12.58,33.84,0,44.37a7.62,7.62,0,0,0-3.22,6.35c-.3,11.92-6.54,18.86-18.31,21.23a7.48,7.48,0,0,0-4,2.37C179.56,174,168.89,175.57,158.37,168.43ZM138.13,63.34c1.66,5.08,3.32,8.77,4,12.63.54,3.21-.3,6.78-4.64,6.82-4.09,0-4.59-2.93-4.44-6.36.17-3.75-1.77-5.5-5.67-5.1-7.91.83-12.29,6-11.25,14.47.56,4.59-.67,7.67-4.7,9.68-10.53,5.27-10.57,28.31.19,33.56,3.87,1.89,5.11,4.92,4.53,9.33-.7,5.33.47,10.36,5.81,13.18,2.94,1.55,5.51,2.14,8.18-1.34,3.53-4.6,8.75-6.26,14.59-5.38,3,.45,5.38,1.81,4.91,5.27s-2.82,4.31-6,3.77a6.85,6.85,0,0,0-7.59,3.61c3,4.93,7.8,7.35,12.53,6,5.08-1.43,4.76-6,5.27-10a17.17,17.17,0,0,0,0-2.27q0-39,0-78a39.48,39.48,0,0,0-.74-7.18c-.77-4.11-3.5-6.06-7.53-5.3C142.74,61.3,140.08,62.64,138.13,63.34Zm42.67,3.55c-3-4.91-7.83-7.35-12.54-6-5.06,1.45-4.77,6-5.25,10A25.74,25.74,0,0,0,163,74q0,16.32,0,32.64c0,15.87-.05,31.74.13,47.61,0,3.57.45,7.49,4.6,9.09,3.77,1.45,8.53-.3,10.77-3-1.44-4.4-3.11-8.08-3.76-11.94-.54-3.21.3-6.78,4.64-6.82,4.08,0,4.56,2.92,4.45,6.35-.14,3.9,1.83,5.48,5.65,5.1,7.92-.78,12.31-6.05,11.26-14.46-.57-4.59.67-7.67,4.7-9.68,10.51-5.25,10.58-28.29-.18-33.56-3.87-1.9-4.86-4.93-4.65-9.32a19.44,19.44,0,0,0-2.67-10.6c-2.93-4.7-7.71-4.62-11.41-.83a15.87,15.87,0,0,1-14.4,5c-3-.45-5.38-1.84-4.9-5.29s2.83-4.28,6-3.76A6.83,6.83,0,0,0,180.8,66.89Z" transform="translate(-2 -2)"/><path class="cls-2" d="M247,94.74c.08-1.11.14-2.28.23-3.46.6-8,6.63-13.52,14.39-13.21s12.95,5.77,13,13.9c0,24.8.12,49.6,0,74.4,0,13.19-5.36,24-15.56,32.36s-20.17,16.43-30.4,24.45a7.6,7.6,0,0,0-3.19,6.87c.16,10,.1,20,.05,29.94,0,4.93-1.32,6.3-6.13,6.33-9.68.07-19.36,0-29,0-3.94,0-5.85-1.68-5.83-5.72.07-18.3-.19-36.6.16-54.89.25-12.47,5.38-23.15,14.16-32q14.1-14.13,28.46-28a9.6,9.6,0,0,0,3.39-7.87c-.24-8.16-.08-16.33-.07-24.5C230.61,100.18,233.78,96.52,247,94.74ZM216.4,256.94c0-10.38.12-20.48-.07-30.57a9.13,9.13,0,0,1,3.87-8.08c11.16-8.8,22.19-17.76,33.21-26.73,7.85-6.39,12-14.72,12.06-24.83.1-24.65,0-49.29,0-73.94,0-3.21-.81-5.51-4.32-5.53-3.68,0-4.88,2.43-4.87,5.74.11,19.19.45,38.39.14,57.59A20.59,20.59,0,0,1,252.29,162c-4.41,5.72-9.88,10.6-14.9,15.84-2.11,2.21-4.56,3.4-7.13,1.1-2.8-2.51-1.69-5.09.58-7.44q6.94-7.17,13.83-14.39c3.43-3.6,3.79-7,1.11-9.44s-5.6-1.92-9.08,1.5q-15.37,15.09-30.7,30.24a39.73,39.73,0,0,0-12.39,29.66c.08,14.51,0,29,0,43.55,0,1.44.12,2.88.18,4.29Zm30.77-119.5c0-9.7.11-19.19-.11-28.67,0-1.49-1.26-4-2.36-4.23-2.75-.66-4.7,1.17-4.82,4-.23,5-.14,10-.15,15,0,4.47,0,9,0,13.39Z" transform="translate(-2 -2)"/><path class="cls-4" d="M123.18,257H100.42c0-9-.48-17.72.15-26.4.5-6.85-1.91-11.16-7.33-15.16C83.15,208,73.61,199.8,63.83,191.92c-8.3-6.69-12.53-15.35-12.52-26,0-24.21.07-48.41,0-72.62,0-3.21.37-6,4.28-6s5,2.73,4.92,6.16c-.14,19.2-.45,38.41-.19,57.62a17.5,17.5,0,0,0,3.86,10.65c10.08,11.27,20.75,22,31.19,33,2.13,2.23,4.55,3.38,7.09,1,2.74-2.58,1.56-5.13-.68-7.48q-14.3-14.9-28.55-29.84c-.84-.88-1.72-1.72-2.48-2.66-2.09-2.59-2.27-5.34.12-7.75s5.23-2.33,7.71-.09c3.14,2.83,6.09,5.89,9.11,8.86Q99.35,168.13,111,179.61a39.54,39.54,0,0,1,12.22,29.3C123.14,224.77,123.18,240.64,123.18,257Z" transform="translate(-2 -2)"/><path class="cls-4" d="M77.09,136.86l-7.45.64V114a26.55,26.55,0,0,1,.09-5.43c.32-1.48,1.39-2.79,2.12-4.18,1.68,1.18,4.3,2,4.81,3.61.85,2.61.4,5.67.42,8.54C77.11,123.14,77.09,129.78,77.09,136.86Z" transform="translate(-2 -2)"/><path class="cls-2" d="M138.13,63.34c2-.7,4.61-2,7.42-2.56,4-.76,6.76,1.19,7.53,5.3a39.48,39.48,0,0,1,.74,7.18q.08,39,0,78a17.17,17.17,0,0,1,0,2.27c-.51,4-.19,8.54-5.27,10-4.73,1.34-9.53-1.08-12.53-6a6.85,6.85,0,0,1,7.59-3.61c3.2.54,5.55-.42,6-3.77s-1.93-4.82-4.91-5.27c-5.84-.88-11.06.78-14.59,5.38-2.67,3.48-5.24,2.89-8.18,1.34-5.34-2.82-6.51-7.85-5.81-13.18.58-4.41-.66-7.44-4.53-9.33-10.76-5.25-10.72-28.29-.19-33.56,4-2,5.26-5.09,4.7-9.68-1-8.44,3.34-13.64,11.25-14.47,3.9-.4,5.84,1.35,5.67,5.1-.15,3.43.35,6.39,4.44,6.36,4.34,0,5.18-3.61,4.64-6.82C141.45,72.11,139.79,68.42,138.13,63.34Zm-19.44,53.34a66.93,66.93,0,0,0,3.86,7.94c1.54,2.36,4,3.44,6.63,1.53s2.45-4.14.82-6.73c-2.6-4.15-1.79-6.22,2.94-7.47,2.95-.78,4.66-2.35,4-5.42s-3-3.88-5.9-3.56C124.43,103.71,119.3,109.59,118.69,116.68Z" transform="translate(-2 -2)"/><path class="cls-2" d="M180.8,66.89a6.83,6.83,0,0,1-7.58,3.63c-3.2-.52-5.56.41-6,3.76s1.94,4.84,4.9,5.29a15.87,15.87,0,0,0,14.4-5c3.7-3.79,8.48-3.87,11.41.83A19.44,19.44,0,0,1,200.57,86c-.21,4.39.78,7.42,4.65,9.32,10.76,5.27,10.69,28.31.18,33.56-4,2-5.27,5.09-4.7,9.68,1.05,8.41-3.34,13.68-11.26,14.46-3.82.38-5.79-1.2-5.65-5.1.11-3.43-.37-6.39-4.45-6.35-4.34,0-5.18,3.61-4.64,6.82.65,3.86,2.32,7.54,3.76,11.94-2.24,2.72-7,4.47-10.77,3-4.15-1.6-4.55-5.52-4.6-9.09-.18-15.87-.11-31.74-.13-47.61q0-16.32,0-32.64a25.74,25.74,0,0,1,0-3.17c.48-4,.19-8.54,5.25-10C173,59.54,177.79,62,180.8,66.89Zm17.49,49.61c-.93-7.37-6.69-13.74-13.29-13.42-1.82.09-4.31,2.12-5,3.85-.41,1,1.74,4.06,3.35,4.73,5.56,2.31,5.73,2.78,3.24,8.47-.69,1.56-.11,4.85,1.08,5.72s4.78.57,5.76-.57C195.58,122.81,196.73,119.48,198.29,116.5Z" transform="translate(-2 -2)"/><path class="cls-4" d="M216.4,256.94H193.82c-.06-1.41-.18-2.85-.18-4.29,0-14.52.05-29,0-43.55A39.73,39.73,0,0,1,206,179.44q15.36-15.12,30.7-30.24c3.48-3.42,6.48-3.87,9.08-1.5s2.32,5.84-1.11,9.44q-6.87,7.23-13.83,14.39c-2.27,2.35-3.38,4.93-.58,7.44,2.57,2.3,5,1.11,7.13-1.1,5-5.24,10.49-10.12,14.9-15.84a20.59,20.59,0,0,0,4.14-11.44c.31-19.2,0-38.4-.14-57.59,0-3.31,1.19-5.77,4.87-5.74,3.51,0,4.33,2.32,4.32,5.53-.05,24.65.09,49.29,0,73.94,0,10.11-4.21,18.44-12.06,24.83-11,9-22,17.93-33.21,26.73a9.13,9.13,0,0,0-3.87,8.08C216.52,236.46,216.4,246.56,216.4,256.94ZM224,191.87l.08-2c-1.58-1.26-3-3.21-4.79-3.63a3.58,3.58,0,0,0-4.63,4c.25,1.72,2.33,4.28,3.82,4.45C220.22,195,222.18,192.93,224,191.87Z" transform="translate(-2 -2)"/><path class="cls-4" d="M247.17,137.44l-7.45-.53c0-4.44,0-8.92,0-13.39,0-5-.08-10,.15-15,.12-2.85,2.07-4.68,4.82-4,1.1.27,2.33,2.74,2.36,4.23C247.28,118.25,247.17,127.74,247.17,137.44Z" transform="translate(-2 -2)"/><path class="cls-4" d="M118.69,116.68c.61-7.09,5.74-13,12.38-13.71,2.88-.32,5.27.48,5.9,3.56s-1.08,4.64-4,5.42c-4.73,1.25-5.54,3.32-2.94,7.47,1.63,2.59,1.71,4.89-.82,6.73s-5.09.83-6.63-1.53A66.93,66.93,0,0,1,118.69,116.68Z" transform="translate(-2 -2)"/><path class="cls-4" d="M198.29,116.5c-1.56,3-2.71,6.31-4.86,8.78-1,1.14-4.53,1.46-5.76.57s-1.77-4.16-1.08-5.72c2.49-5.69,2.32-6.16-3.24-8.47-1.61-.67-3.76-3.7-3.35-4.73.69-1.73,3.18-3.76,5-3.85C191.6,102.76,197.36,109.13,198.29,116.5Z" transform="translate(-2 -2)"/><path class="cls-2" d="M224,191.87c-1.85,1.06-3.81,3.09-5.52,2.9-1.49-.17-3.57-2.73-3.82-4.45a3.58,3.58,0,0,1,4.63-4c1.78.42,3.21,2.37,4.79,3.63Z" transform="translate(-2 -2)"/></svg>