<svg id="Layer_1" data-name="Layer 1" xmlns="http://www.w3.org/2000/svg" xmlns:xlink="http://www.w3.org/1999/xlink" viewBox="0 0 312.8 312.8"><defs><style>.cls-1{fill:none;stroke-miterlimit:10;stroke-width:3.95px;stroke:url(#linear-gradient);}.cls-2{fill:#0072ba;}.cls-3{fill:#4fc3a0;}</style><linearGradient id="linear-gradient" x1="2" y1="159.6" x2="314.8" y2="159.6" gradientTransform="matrix(1, 0, 0, -1, -2, 316)" gradientUnits="userSpaceOnUse"><stop offset="0" stop-color="#0072ba"/><stop offset="1" stop-color="#4fc3a0"/></linearGradient></defs><circle class="cls-1" cx="156.4" cy="156.4" r="154.43"/><path class="cls-2" d="M230.41,171.61c5,4.82,9.83,9.77,15,14.4,1.53,1.38,5,3.1,5.64,2.53,2.87-2.68-.21-4.64-1.9-6.27-7.22-7-14.61-13.78-22.16-20.86,3.67-.63,7.6-1,11.36-2a147.05,147.05,0,0,0,16.17-5.2c1.67-.66,2.7-2.93,4-4.47-2-.15-4.23-1-5.87-.35a85.72,85.72,0,0,1-30.79,6.48,14.68,14.68,0,0,1-6.81-1.81c-8.87-4.72-17.65-9.63-26.35-14.66-1.43-.83-3.29-2.69-3.24-4,.43-11.17,1-22.33,2.07-33.45a27.72,27.72,0,0,1,3.28-9.6c5-9.83,14.13-12.83,25.29-8.2,17.65,7.32,31.27,19.51,41.57,35.47,13.15,20.36,19.4,43.09,22.26,66.83a307.23,307.23,0,0,1,2,31.08,24,24,0,0,1-23.2,24.64c-15.6.58-31.12-.41-46.43-4-11.63-2.74-18.59-9.64-21.48-21.24-4.28-17.16-5.29-34.61-5.38-52.17,0-6.64,0-13.27,0-20.89,5.43,2.87,10.44,5.1,15,8.1,1.51,1,2.31,3.9,2.48,6,.88,11.14,1.46,22.3,2.12,33.46.06,1.12-.42,2.39-.05,3.37a17.19,17.19,0,0,0,2.42,3.53c.93-1.1,2.66-2.21,2.66-3.31,0-10.52-.33-21.05-.65-31.57-.06-2-.53-4-1-7.24,5.25,3.59,9.57,6.38,13.65,9.48.93.7,1.34,2.43,1.49,3.74,2.19,19.62,10.59,35.89,25.89,48.5a11.14,11.14,0,0,0,3.61,2.39c1,.29,2.82-.08,3.3-.8s.1-2.47-.49-3.39-2-1.61-3-2.42c-13.24-10.7-20.49-24.76-23.58-41.16Z" transform="translate(-2 -2)"/><path class="cls-2" d="M87.69,161.44c-7.12,6.55-14,12.89-20.9,19.27A11.31,11.31,0,0,0,63.91,184c-.61,1.4-.51,3.12-.72,4.69,1.53-.33,3.51-.18,4.52-1.1,4-3.57,7.62-7.52,11.46-11.25,1.6-1.56,3.4-2.93,5.82-5a18.83,18.83,0,0,1,0,2.81c-3.39,16.09-10.79,29.8-23.93,40.08-.89.7-2,1.24-2.59,2.15s-.8,2.53-.33,3a4.15,4.15,0,0,0,3.28,1,8.69,8.69,0,0,0,3.25-2c15.55-12.59,24.06-29,26.38-48.75a7,7,0,0,1,2.16-4.38c3.8-3,7.9-5.52,12.68-8.78-.61,6-1.41,11.06-1.57,16.12-.23,7.29-.14,14.6.15,21.88.05,1.34,1.7,2.61,2.6,3.91.87-1.44,2.4-2.85,2.49-4.34.75-11.47,1.21-23,1.79-34.45.25-5.18,2.64-8.7,7.67-10.57,3.28-1.22,6.32-3,10.09-4.91,0,26.21.94,51.7-6.51,76.49A23.39,23.39,0,0,1,106.08,237c-17,5-34.53,6.05-52.09,4.95-11.41-.71-21.22-11-21.31-22.38-.25-31.83,4.19-62.81,19.2-91.47C61.4,109.9,74.93,95.6,93.46,86.37A46,46,0,0,1,102,83c10.25-2.75,18.66.61,22.06,10.6,2.88,8.45,3.82,17.63,4.95,26.57.68,5.43,1.92,12-.43,16.25-2.26,4.07-8.8,5.77-13.48,8.49-4.34,2.53-9,4.69-13,7.65a16.21,16.21,0,0,1-13.73,3.07c-9-2-17.87-4.42-26.85-6.44-1.72-.39-3.66.25-5.5.42,1.11,1.49,1.92,3.69,3.41,4.34a92.51,92.51,0,0,0,13.75,4.8C77.89,160,82.73,160.54,87.69,161.44Z" transform="translate(-2 -2)"/><path class="cls-3" d="M135.23,140.91c-1.31-4.06-.22-6.22,3.54-7.36s7.18-3.08,10.9-4.13,4.94-2.8,4.9-6.81c-.23-23.68-.11-47.37-.11-71,0-1.3-.31-2.74.15-3.86s1.7-2,2.6-2.91c.93.93,2.21,1.7,2.69,2.82s.16,2.55.16,3.85c0,23.85.08,47.7-.08,71.54,0,3.47.89,5.22,4.35,6.18,3.88,1.08,7.48,3.14,11.34,4.32s4.89,3.25,3.68,7.37c-6-2.32-11.83-4.9-17.89-6.79a14.74,14.74,0,0,0-8.3,0C147.16,135.94,141.37,138.51,135.23,140.91Z" transform="translate(-2 -2)"/></svg>