<svg id="Layer_1" data-name="Layer 1" xmlns="http://www.w3.org/2000/svg" xmlns:xlink="http://www.w3.org/1999/xlink" viewBox="0 0 312.8 312.8"><defs><style>.cls-1{fill:none;stroke-miterlimit:10;stroke-width:3.95px;stroke:url(#linear-gradient);}.cls-2{fill:#0072ba;}.cls-3{fill:#4fc3a0;}</style><linearGradient id="linear-gradient" x1="2" y1="159.6" x2="314.8" y2="159.6" gradientTransform="matrix(1, 0, 0, -1, -2, 316)" gradientUnits="userSpaceOnUse"><stop offset="0" stop-color="#0072ba"/><stop offset="1" stop-color="#4fc3a0"/></linearGradient></defs><circle class="cls-1" cx="156.4" cy="156.4" r="154.43"/><path class="cls-2" d="M174.62,47.76h26.44c.09,1.74.21,3.21.23,4.69.6,35.92,1.14,71.84,1.83,107.76.08,3.64-.7,6-4.07,8.08C193,172,189.38,177.6,189.33,185c0,5,2,7.92,6.81,7.14,7.23-1.18,12.32.84,17.85,5.59,6.34,5.44,15.43.09,16-8.74.49-6.94-2.14-13.17-6.07-18.46s-4.84-10.88-4.81-17.26c.17-33.31,0-66.62,0-99.94V48.1h35c-.46,4.92-.86,9.5-1.33,14.07-3.3,32.31-6.66,64.61-9.83,96.92-.2,2,.7,4.29,1.55,6.24,6.94,15.9,13.65,31.91,16.39,49.17a66.21,66.21,0,0,1,.65,17.21c-1.37,12.7-8.23,19.74-20.82,22.22-11.12,2.18-22.21,1.16-33.22-1a12.73,12.73,0,0,1-4.48-2c-16.41-10.86-34.16-12.34-52.65-7.16-12.57,3.53-24.81,8.32-37.49,11.33a97,97,0,0,1-50.16-1.2,23.94,23.94,0,0,1-4.53-2c-5.3-2.82-7.91-7.42-7.11-12.33.91-5.51,4.42-9.06,10.55-10,16.66-2.58,32.15-8.46,46.85-16.5a221.53,221.53,0,0,0,66.82-56.27,11.06,11.06,0,0,0,2.19-6.69c-.84-32.75-1.89-65.49-2.87-98.23C174.59,50.59,174.62,49.25,174.62,47.76Zm57.22,153c-10.56,7.55-16.42,7.19-26-1a7,7,0,0,0-4.66-1.26c-5.2.44-10.12.32-14.48-3.19a4.73,4.73,0,0,0-3.68-.59c-20.47,5.66-40.46,12.53-58.16,24.69a103.09,103.09,0,0,1-30.08,14.16c-7.13,2-14.36,3.77-21.5,5.79A59.21,59.21,0,0,0,66.88,242l.1,1.52c2.49,1,4.9,2.33,7.47,2.84a52.49,52.49,0,0,0,34.44-4.89c6-3,12-6.42,18.46-8,21.23-5.11,42.64-9.45,64-14.08,3.22-.69,5.86.32,8.3,2.53,3.15,2.86,6.21,6,9.85,8.11,6.48,3.73,13.06,8,20.17,9.8,11.72,3,20.07-7.17,16.34-18.74C243.34,212.86,237.79,206.64,231.84,200.75Z" transform="translate(-2 -2)"/><path class="cls-3" d="M159.66,92.54c.84.69,2.28,1.31,2.47,2.18a4.91,4.91,0,0,1-1,3.59c-.7.88-2.11,1.2-3.22,1.75a66.61,66.61,0,0,0-33.87,81.54c.22.65.74,1.38.6,1.94a43.16,43.16,0,0,1-1.6,4.46c-1.4-.77-3.72-1.26-4-2.34-1.75-5.91-3.64-11.89-4.33-18a72.68,72.68,0,0,1,41.16-73.56C157,93.59,158.11,93.18,159.66,92.54Z" transform="translate(-2 -2)"/><path class="cls-3" d="M156.8,146.61c-7.12-2.27-13.57-4.2-19.89-6.47-.95-.34-2.12-2.8-1.75-3.44.64-1.1,2.65-2.39,3.68-2.11,6.36,1.68,12.66,3.65,18.85,5.89,1,.37,2,2.57,1.87,3.83C159.47,145.24,157.59,146,156.8,146.61Z" transform="translate(-2 -2)"/><path class="cls-3" d="M142,157.4c-.63-.72-2.36-1.84-2.47-3.1-.09-1,1.69-2.92,2.88-3.13a90.2,90.2,0,0,1,13.52-1.39c1.15,0,2.35,1.67,3.53,2.57-.95,1.14-1.76,3.07-2.89,3.28C152.09,156.47,147.54,156.78,142,157.4Z" transform="translate(-2 -2)"/><path class="cls-3" d="M164.82,136.36c-.09,2.51-2.91,4.08-4.81,2.43a133.46,133.46,0,0,1-10.83-10.71c-.57-.61-.23-2.72.42-3.58.51-.69,2.68-1.13,3.2-.66,4.06,3.67,7.91,7.57,11.79,11.44C164.83,135.52,164.76,136.07,164.82,136.36Z" transform="translate(-2 -2)"/></svg>