<svg id="Layer_1" data-name="Layer 1" xmlns="http://www.w3.org/2000/svg" xmlns:xlink="http://www.w3.org/1999/xlink" viewBox="0 0 312.8 312.8"><defs><style>.cls-1{fill:none;stroke-miterlimit:10;stroke-width:3.95px;stroke:url(#linear-gradient);}.cls-2{fill:#4fc3a0;}.cls-3{fill:#0072ba;}</style><linearGradient id="linear-gradient" x1="2" y1="159.6" x2="314.8" y2="159.6" gradientTransform="matrix(1, 0, 0, -1, -2, 316)" gradientUnits="userSpaceOnUse"><stop offset="0" stop-color="#0072ba"/><stop offset="1" stop-color="#4fc3a0"/></linearGradient></defs><circle class="cls-1" cx="156.4" cy="156.4" r="154.43"/><path class="cls-2" d="M244.18,186.25h-4.9c-7.87,0-15.76-.32-23.61.08-9.95.5-19.32.44-26.15-8.73-1.85-2.47-5.31-4-8.3-5.29-2.8-1.22-3.54-2.92-3.34-5.72.33-4.53-.15-9.19.68-13.62a33.07,33.07,0,0,1,65.5,4C244.7,166.47,244.18,176,244.18,186.25Z" transform="translate(-2 -2)"/><path class="cls-3" d="M243.71,199c0,11,1.08,21.81-.23,32.26-2.73,21.81-28.12,34.29-47.3,23.74,14-16.56,17.5-35.12,10.31-56Z" transform="translate(-2 -2)"/><path class="cls-3" d="M180.16,251.69c-11.53,10.63-34.67,9.51-48.69-3-15.13-13.5-17.72-36.49-6.29-52Z" transform="translate(-2 -2)"/><path class="cls-2" d="M190.43,241.68l-55-55.08c12.73-11.16,35.89-9.74,49.76,3.3C199.8,203.64,202.07,226.57,190.43,241.68Z" transform="translate(-2 -2)"/><path class="cls-2" d="M206.86,84h19.33V96.36H199.71c-5.72,0-8.54-2-9.78-7.5-.24-1.09.51-2.6,1.2-3.66,5.48-8.46,11.07-16.85,16.61-25.26.07-.1,0-.26.07-.89H189.26V46.43h4.26c8.43,0,16.87.22,25.28-.1,4-.15,4.11,3,5.49,5.1,1.18,1.81,2.17,3.45.43,5.92C218.78,65.79,213.2,74.49,206.86,84Z" transform="translate(-2 -2)"/><path class="cls-3" d="M157,109h19.3v12.28c-10.46,0-20.77.13-31.08-.08-3-.06-6.1-8-4.34-10.67,5.71-8.63,11.47-17.23,17.62-26.46H139.37V71.41c10.35,0,20.54-.12,30.72.07,3.31.06,6.47,8,4.55,10.87-4.95,7.5-9.95,15-14.93,22.43C159,105.9,158.26,107,157,109Z" transform="translate(-2 -2)"/><path class="cls-2" d="M108.67,108.85H89.44V96.67c1.15-.1,2.32-.28,3.49-.29,8.41,0,16.84.22,25.24-.12,3.45-.14,4.54,1.72,5.72,4.14s2.86,4.33.6,7.42c-5.2,7.12-9.89,14.62-14.76,22-.74,1.11-1.37,2.29-2.46,4.12h19.08V146.3c-10.55,0-20.86.14-31.17-.09-3-.07-6-8.05-4.25-10.68C96.63,126.91,102.36,118.32,108.67,108.85Z" transform="translate(-2 -2)"/><path class="cls-2" d="M66,212.51c2.11-24.2,32.46-41,54.33-29.86a54,54,0,0,0-14.25,29.86Z" transform="translate(-2 -2)"/><path class="cls-3" d="M106.05,225.52a53.73,53.73,0,0,0,14.54,29.94c-11,4.7-21.55,4.54-31.89-.16C76,249.55,68.48,239.61,65.61,225.52Z" transform="translate(-2 -2)"/></svg>