<svg id="Layer_1" data-name="Layer 1" xmlns="http://www.w3.org/2000/svg" xmlns:xlink="http://www.w3.org/1999/xlink" viewBox="0 0 312.8 312.8"><defs><style>.cls-1{fill:none;stroke-miterlimit:10;stroke-width:3.95px;stroke:url(#linear-gradient);}.cls-2{fill:#4fc3a0;}.cls-3{fill:#0072ba;}.cls-4{fill:#fff;}</style><linearGradient id="linear-gradient" x1="2" y1="159.6" x2="314.8" y2="159.6" gradientTransform="matrix(1, 0, 0, -1, -2, 316)" gradientUnits="userSpaceOnUse"><stop offset="0" stop-color="#0072ba"/><stop offset="1" stop-color="#4fc3a0"/></linearGradient></defs><circle class="cls-1" cx="156.4" cy="156.4" r="154.43"/><path class="cls-2" d="M224.38,209.17H90.51c0-16.78-.07-33.29,0-49.81,0-6.88-.06-13.82.81-20.61,4.15-32.38,33.08-57.19,66.25-57.16s61.87,24.87,66.19,57.29a34.7,34.7,0,0,1,.55,4.51C224.39,165.15,224.38,186.91,224.38,209.17Zm-105.9-38.72H139V190.7h37.17V170.1h20.2V132.81H176V112.6H138.87v20.56H118.48Z" transform="translate(-2 -2)"/><path class="cls-3" d="M244.83,255.94H70.25c0-6.24-.11-12.29.1-18.32,0-1.08,1.18-2.39,2.17-3.12,5.23-3.82,10.51-7.58,15.91-11.14a9.46,9.46,0,0,1,4.94-1.51q64.09-.12,128.2,0a10.44,10.44,0,0,1,5.31,1.66c5.19,3.39,10.31,6.91,15.2,10.7a7.61,7.61,0,0,1,2.63,4.94C245,244.62,244.83,250.12,244.83,255.94Z" transform="translate(-2 -2)"/><path class="cls-3" d="M151.59,44.52H163.5V67.59H151.59Z" transform="translate(-2 -2)"/><path class="cls-3" d="M75,144.26v12H51.81v-12Z" transform="translate(-2 -2)"/><path class="cls-3" d="M240,156.26V144.4h23.16v11.86Z" transform="translate(-2 -2)"/><path class="cls-3" d="M225.7,103.73,246.09,92c2.11,3.62,4.09,7,6.26,10.71l-20.41,11.8Z" transform="translate(-2 -2)"/><path class="cls-3" d="M99.2,61.67l10.73-6.2,11.83,20.37L111,82.08Z" transform="translate(-2 -2)"/><path class="cls-3" d="M204.06,82.07l-10.73-6.22L205.07,55.5l10.79,6.14C211.9,68.51,208.08,75.12,204.06,82.07Z" transform="translate(-2 -2)"/><path class="cls-3" d="M89.36,103.71l-6.23,10.73L62.79,102.72l6.12-10.81Z" transform="translate(-2 -2)"/><path class="cls-4" d="M118.48,170.45V133.16h20.39V112.6H176v20.21h20.4V170.1h-20.2v20.6H139V170.45Zm32.88-25H130.94V158h20.38v20.27H164v-20.5h20.15V145.32H163.59V125.07H151.36Z" transform="translate(-2 -2)"/><path class="cls-3" d="M151.36,145.44V125.07h12.23v20.25h20.55v12.42H164v20.5H151.32V158H130.94V145.44Z" transform="translate(-2 -2)"/></svg>