<svg id="Layer_1" data-name="Layer 1" xmlns="http://www.w3.org/2000/svg" xmlns:xlink="http://www.w3.org/1999/xlink" viewBox="0 0 312.8 312.8"><defs><style>.cls-1{fill:none;stroke-miterlimit:10;stroke-width:3.95px;stroke:url(#linear-gradient);}.cls-2{fill:#4fc3a0;}.cls-3{fill:#0072ba;}</style><linearGradient id="linear-gradient" x1="2" y1="159.6" x2="314.8" y2="159.6" gradientTransform="matrix(1, 0, 0, -1, -2, 316)" gradientUnits="userSpaceOnUse"><stop offset="0" stop-color="#0072ba"/><stop offset="1" stop-color="#4fc3a0"/></linearGradient></defs><circle class="cls-1" cx="156.4" cy="156.4" r="154.43"/><path class="cls-2" d="M193.08,153.65l-4.21-10.15c-19.41,14.54-39.37,15.37-59.21.45-1.57,3.65-2.88,6.66-4.31,10,4,2.43,8.18,4.9,12.29,7.49,9.65,6.11,14.5,14.23,14.3,26.33-.57,34.76-.2,69.55-.2,104.33,0,1.26.32,2.65-.1,3.76s-1.63,2.2-2.49,3.28a13.9,13.9,0,0,1-2.09-3.21,12.79,12.79,0,0,1-.09-3.77c0-35.57-.14-71.14.1-106.7.05-7.56-2.67-13.24-8.57-17.44a136.75,136.75,0,0,0-14-8.76c-1.6-.87-3.94-.37-5.94-.5l-.27,1.57c1,.7,1.9,1.41,2.88,2.08,10.06,6.93,14.06,18.37,10,30-4.66,13.32-13.73,22.93-26.34,29.09-9.82,4.81-19.38,3.43-28.39-2.31s-15.22-13.91-19.44-23.4c-16.36-36.81-16.33-73.81,0-110.64A54.44,54.44,0,0,1,74,63.3c11.24-8.45,23-9.15,34.9-1.77,10.53,6.52,18.33,15.49,22.3,27.36,3.89,11.61-.11,23.07-10.15,30-.88.61-1.79,1.17-3.1,2,6,4.19,9.9,9.26,11.14,16.18a4.49,4.49,0,0,0,2,2.41c22.61,14.43,33.58,14.23,56.63-.71a4.59,4.59,0,0,0,1.92-2.48c1.44-6.5,5.22-11.34,11-15.35-1.23-.82-2.11-1.39-3-2-10.25-7-14.3-18.61-10.19-30.36C192,75.81,200.58,66.4,212.45,60c9.79-5.27,19.46-4.49,28.86,1.1,7.53,4.49,12.95,11,17.38,18.44,8.17,13.69,12.34,28.7,14,44.4,2.49,24,.28,47.35-9.86,69.55-4,8.71-9.17,16.6-16.63,22.78-11.89,9.85-24.67,10.72-37.61,2.32-9.8-6.36-17.2-14.86-21.05-26.06-4.07-11.84-.13-23.26,10.22-30.33l2.66-1.83-.24-1.57c-2.11.16-4.58-.32-6.27.62a132,132,0,0,0-14.76,9.39c-5.24,3.89-7.61,9.21-7.57,16,.17,35.72.08,71.45.08,107.17,0,1.27.31,2.65-.1,3.77a15,15,0,0,1-2.42,3.38,17.93,17.93,0,0,1-2.17-3.16,7.71,7.71,0,0,1-.08-2.81c0-36.2.1-72.4-.08-108.6,0-7.95,2.76-14.28,8.84-19C181.09,161.36,187,157.74,193.08,153.65Zm75.73-14.28c-.13-18.38-3.31-37.22-12.66-54.63-4.16-7.74-9.35-14.67-17-19.35-6.82-4.17-14.1-5.7-21.7-2.38-12.34,5.4-21,14.53-25.49,27.19A20.94,20.94,0,0,0,207,117.8c1.53.34,3.2.17,4.66.67a3.22,3.22,0,0,1,2,2.18c0,.73-1,1.79-1.87,2.21s-2.16.35-3.24.56a17.26,17.26,0,0,0-14.38,17.89c.21,8.47,6.52,15.23,15.28,16.73,1.55.26,2.91,1.64,4.35,2.5-1.47.82-2.87,2.12-4.44,2.38-14.55,2.43-22.25,15.55-16.89,29.35,3.66,9.43,10.1,16.72,18.49,22.23,11.19,7.35,22.37,7.12,32.08-2.16a78.21,78.21,0,0,0,14.78-20C266.26,176.25,268.71,158.56,268.81,139.37ZM93.17,61l-.63-1c-5.34,2.45-11.4,4-15.83,7.59A61.86,61.86,0,0,0,63.62,82.93c-7.82,12.54-11.42,26.66-12.9,41.24-2.55,25-.22,49.22,11.7,71.84,4.1,7.78,9.35,14.67,17,19.39,8,5,16.32,5.66,24.74,1.13a46.56,46.56,0,0,0,21.89-24c5.62-14-2.14-27.17-17-29.63-1.52-.25-2.85-1.67-4.27-2.55,1.37-.79,2.66-2,4.11-2.28,9.11-1.52,15.41-8.26,15.55-16.95.15-9.16-5.75-16-15-17.92-1.66-.33-3.08-1.8-4.61-2.74,1.55-.77,3-2,4.65-2.24,12.54-1.75,21.13-13.73,17.7-25.91-4.06-14.45-13.7-24.23-27.52-29.86C97.6,61.62,95.32,61.48,93.17,61Z" transform="translate(-2 -2)"/><path class="cls-3" d="M268.81,139.37c-.1,19.19-2.55,36.88-11,53a78.21,78.21,0,0,1-14.78,20c-9.71,9.28-20.89,9.51-32.08,2.16-8.39-5.51-14.83-12.8-18.49-22.23-5.36-13.8,2.34-26.92,16.89-29.35,1.57-.26,3-1.56,4.44-2.38-1.44-.86-2.8-2.24-4.35-2.5-8.76-1.5-15.07-8.26-15.28-16.73a17.26,17.26,0,0,1,14.38-17.89c1.08-.21,2.3-.08,3.24-.56s1.91-1.48,1.87-2.21a3.22,3.22,0,0,0-2-2.18c-1.46-.5-3.13-.33-4.66-.67A20.94,20.94,0,0,1,192,90.2c4.48-12.66,13.15-21.79,25.49-27.19,7.6-3.32,14.88-1.79,21.7,2.38,7.64,4.68,12.83,11.61,17,19.35C265.5,102.15,268.68,121,268.81,139.37Z" transform="translate(-2 -2)"/><path class="cls-3" d="M93.17,61c2.15.45,4.43.59,6.44,1.41,13.82,5.63,23.46,15.41,27.52,29.86,3.43,12.18-5.16,24.16-17.7,25.91-1.62.23-3.1,1.47-4.65,2.24,1.53.94,3,2.41,4.61,2.74,9.27,1.89,15.17,8.76,15,17.92-.14,8.69-6.44,15.43-15.55,16.95-1.45.24-2.74,1.49-4.11,2.28,1.42.88,2.75,2.3,4.27,2.55,14.85,2.46,22.61,15.66,17,29.63a46.56,46.56,0,0,1-21.89,24c-8.42,4.53-16.74,3.83-24.74-1.13-7.61-4.72-12.86-11.61-17-19.39-11.92-22.62-14.25-46.88-11.7-71.84,1.48-14.58,5.08-28.7,12.9-41.24A61.86,61.86,0,0,1,76.71,67.59C81.14,64,87.2,62.45,92.54,60Z" transform="translate(-2 -2)"/></svg>