<svg id="Layer_1" data-name="Layer 1" xmlns="http://www.w3.org/2000/svg" xmlns:xlink="http://www.w3.org/1999/xlink" viewBox="0 0 312.8 312.8"><defs><style>.cls-1{fill:none;stroke-miterlimit:10;stroke-width:3.95px;stroke:url(#linear-gradient);}.cls-2{fill:#0072ba;}.cls-3{fill:#fff;}.cls-4{fill:#4fc3a0;}</style><linearGradient id="linear-gradient" x1="2" y1="159.6" x2="314.8" y2="159.6" gradientTransform="matrix(1, 0, 0, -1, -2, 316)" gradientUnits="userSpaceOnUse"><stop offset="0" stop-color="#0072ba"/><stop offset="1" stop-color="#4fc3a0"/></linearGradient></defs><circle class="cls-1" cx="156.4" cy="156.4" r="154.43"/><path class="cls-2" d="M125.22,241.54c1.53,7.16.69,13.5-4.07,18.94A19.29,19.29,0,0,1,98,265.08a19.53,19.53,0,0,1-10.33-21.7,19.31,19.31,0,0,1,17.81-15c6.59-.25,13.2-.05,20.16-.05V202.45H48.13V138c8.18,0,16.28-.8,24.17.18,13.36,1.65,21.79,10.05,27,25.29H268.67V202.3H191v26c6.56,0,13-.12,19.42,0a19.41,19.41,0,0,1,4.29,38.26c-12.44,3.24-24.69-7-23.91-20,.1-1.57.36-3.13.59-5ZM61,189.06H255.64V176.82H61ZM177.39,228V202.7H139.27V228ZM61.08,151V163.5c7,0,13.69,0,20.42,0,1.1,0,2.2-.12,3.34-.18C82.74,154.2,73.62,149.46,61.08,151ZM113,247.56a6.38,6.38,0,1,0-6.47,6.56A6.49,6.49,0,0,0,113,247.56Zm103.6.17a6.38,6.38,0,1,0-6.64,6.39A6.5,6.5,0,0,0,216.55,247.73Z" transform="translate(-2 -2)"/><path class="cls-2" d="M177.88,137.26V125H165v12.37H151.94V124.91H139.05v12.4H126.18V124.83H113.36c-.93-9.26.08-17.82,4-25.89,6.43-13.22,16.89-21.6,31.19-24.93,2.74-.64,3.42-1.67,3.37-4.26-.14-7.73,0-15.47,0-23.43h13c0,7.28.24,14.57-.1,21.83-.18,3.84.91,5.29,4.78,6.26C192,80,207,102.43,203.17,124.63H190.93v12.63Zm-50.77-25.88h62.53c-2.19-14.32-16.08-25.54-31.27-25.54S129.3,97.06,127.11,111.38Z" transform="translate(-2 -2)"/><path class="cls-3" d="M61,189.06V176.82H255.64v12.24Z" transform="translate(-2 -2)"/><path class="cls-3" d="M177.39,228H139.27V202.7h38.12Z" transform="translate(-2 -2)"/><path class="cls-3" d="M61.08,151c12.54-1.49,21.66,3.25,23.76,12.36-1.14.06-2.24.18-3.34.18-6.73,0-13.45,0-20.42,0Z" transform="translate(-2 -2)"/><path class="cls-3" d="M113,247.56a6.38,6.38,0,1,1-6.29-6.31A6.48,6.48,0,0,1,113,247.56Z" transform="translate(-2 -2)"/><path class="cls-3" d="M216.55,247.73a6.38,6.38,0,1,1-6.12-6.48A6.49,6.49,0,0,1,216.55,247.73Z" transform="translate(-2 -2)"/><path class="cls-4" d="M127.11,111.38c2.19-14.32,16.08-25.53,31.26-25.54s29.08,11.22,31.27,25.54Z" transform="translate(-2 -2)"/></svg>