<svg id="Layer_1" data-name="Layer 1" xmlns="http://www.w3.org/2000/svg" xmlns:xlink="http://www.w3.org/1999/xlink" viewBox="0 0 101.11 118.3"><defs><style>.cls-1{fill:url(#linear-gradient);}.cls-2{fill:#154d90;}.cls-3{fill:#fff;}.cls-4{fill:url(#linear-gradient-2);}.cls-5{fill:url(#linear-gradient-3);}.cls-6{fill:url(#linear-gradient-4);}.cls-7{fill:url(#linear-gradient-5);}.cls-8{fill:url(#linear-gradient-6);}.cls-9{fill:url(#linear-gradient-7);}.cls-10{fill:url(#linear-gradient-8);}.cls-11{fill:url(#linear-gradient-9);}</style><linearGradient id="linear-gradient" x1="2.55" y1="64.85" x2="85.79" y2="64.85" gradientUnits="userSpaceOnUse"><stop offset="0" stop-color="#5ccdfa"/><stop offset="1" stop-color="#0a85e0"/></linearGradient><linearGradient id="linear-gradient-2" x1="54.64" y1="93.16" x2="97.28" y2="93.16" xlink:href="#linear-gradient"/><linearGradient id="linear-gradient-3" x1="532.18" y1="271.89" x2="532.18" y2="308.91" xlink:href="#linear-gradient"/><linearGradient id="linear-gradient-4" x1="42.45" y1="62.71" x2="47.23" y2="62.71" xlink:href="#linear-gradient"/><linearGradient id="linear-gradient-5" x1="27.06" y1="22.98" x2="27.06" y2="26.3" xlink:href="#linear-gradient"/><linearGradient id="linear-gradient-6" x1="63.32" y1="22.98" x2="63.32" y2="26.3" xlink:href="#linear-gradient"/><linearGradient id="linear-gradient-7" x1="45.32" y1="0" x2="45.32" y2="11.74" xlink:href="#linear-gradient"/><linearGradient id="linear-gradient-8" x1="27.99" y1="11.49" x2="27.99" y2="20.11" xlink:href="#linear-gradient"/><linearGradient id="linear-gradient-9" x1="62.46" y1="11.49" x2="62.46" y2="20.11" xlink:href="#linear-gradient"/></defs><path class="cls-1" d="M2.55,30.64H85.79a0,0,0,0,1,0,0V87.57A11.49,11.49,0,0,1,74.3,99.06H14A11.49,11.49,0,0,1,2.55,87.57V30.64A0,0,0,0,1,2.55,30.64Z"/><rect class="cls-2" x="10.72" y="78.13" width="29.11" height="4.09" rx="2.04"/><rect class="cls-2" x="10.72" y="88.09" width="17.74" height="4.09" rx="2.04"/><circle class="cls-3" cx="75.96" cy="93.16" r="25.15"/><circle class="cls-4" cx="75.96" cy="93.16" r="21.32"/><path class="cls-5" d="M488.14,278.15v16.46L529,307.89l8.52,1,38.74-12.64V278.15a6.25,6.25,0,0,0-6.25-6.26H494.39A6.25,6.25,0,0,0,488.14,278.15Z" transform="translate(-488.14 -242.78)"/><circle class="cls-2" cx="76.47" cy="75.03" r="1.79"/><circle class="cls-2" cx="63.5" cy="79.98" r="1.79"/><circle class="cls-2" cx="57.83" cy="92.65" r="1.79"/><circle class="cls-2" cx="62.78" cy="105.61" r="1.79"/><circle class="cls-2" cx="75.45" cy="111.28" r="1.79"/><circle class="cls-2" cx="88.41" cy="106.34" r="1.79"/><circle class="cls-2" cx="94.09" cy="93.67" r="1.79"/><circle class="cls-2" cx="89.14" cy="80.7" r="1.79"/><polygon class="cls-2" points="76.06 84 74.79 96 77.34 96 76.06 84"/><polygon class="cls-2" points="86.89 95 74.89 93.72 74.89 96.28 86.89 95"/><path class="cls-2" d="M489.58,295.19l35.76,11.5a2,2,0,0,1,1.36,1.85v4.11a2,2,0,0,0,1.94,2l8.16.05a2,2,0,0,0,2-1.91l.07-3.43a2,2,0,0,1,1.36-1.82l35-11.23a2,2,0,0,0,1.36-1.86h0a2,2,0,0,0-2.55-1.86l-32.81,10.54a2,2,0,0,1-2.55-1.89l0-2a2,2,0,0,0-1.93-2l-7.75-.11a2,2,0,0,0-2,1.95v1.09a2,2,0,0,1-2.56,1.85l-33.7-11a2,2,0,0,0-2.54,2.11l.06.47A2,2,0,0,0,489.58,295.19Z" transform="translate(-488.14 -242.78)"/><rect class="cls-6" x="42.45" y="58.4" width="4.79" height="8.62" rx="1.34"/><rect class="cls-7" x="16.09" y="22.98" width="21.96" height="3.32"/><rect class="cls-8" x="52.34" y="22.98" width="21.96" height="3.32"/><path class="cls-9" d="M30.38,0H60.26A7.15,7.15,0,0,1,67.4,7.15v4.6a0,0,0,0,1,0,0H23.23a0,0,0,0,1,0,0V7.15A7.15,7.15,0,0,1,30.38,0Z"/><rect class="cls-10" x="23.3" y="11.49" width="9.38" height="8.62"/><rect class="cls-11" x="57.77" y="11.49" width="9.38" height="8.62"/></svg>