<svg id="Layer_1" data-name="Layer 1" xmlns="http://www.w3.org/2000/svg" xmlns:xlink="http://www.w3.org/1999/xlink" viewBox="0 0 118.06 122.76"><defs><style>.cls-1{fill:url(#linear-gradient);}.cls-2{fill:url(#linear-gradient-2);}.cls-3{fill:#0a5ca6;}.cls-4{fill:url(#linear-gradient-3);}.cls-5{fill:#076abc;}.cls-6{fill:url(#linear-gradient-4);}.cls-7{fill:url(#linear-gradient-5);}.cls-8{fill:url(#linear-gradient-6);}.cls-9{fill:url(#linear-gradient-7);}.cls-10{fill:url(#linear-gradient-8);}.cls-11{fill:url(#linear-gradient-9);}.cls-12{fill:url(#linear-gradient-10);}.cls-13{fill:url(#linear-gradient-11);}.cls-14{fill:none;stroke:#1a4d8e;stroke-miterlimit:10;stroke-width:3px;}.cls-15{fill:#164d8f;}</style><linearGradient id="linear-gradient" x1="99.32" x2="99.32" y2="20.07" gradientUnits="userSpaceOnUse"><stop offset="0" stop-color="#5ccdfa"/><stop offset="1" stop-color="#0a85e0"/></linearGradient><linearGradient id="linear-gradient-2" x1="99.34" y1="20.58" x2="99.34" y2="26" xlink:href="#linear-gradient"/><linearGradient id="linear-gradient-3" x1="483.68" y1="436.82" x2="483.68" y2="436.82" xlink:href="#linear-gradient"/><linearGradient id="linear-gradient-4" x1="99.32" y1="46.91" x2="99.32" y2="66.99" xlink:href="#linear-gradient"/><linearGradient id="linear-gradient-5" x1="99.34" y1="67.5" x2="99.34" y2="72.91" xlink:href="#linear-gradient"/><linearGradient id="linear-gradient-6" x1="483.68" y1="483.73" x2="483.68" y2="483.73" xlink:href="#linear-gradient"/><linearGradient id="linear-gradient-7" x1="99.32" y1="90.38" x2="99.32" y2="110.46" xlink:href="#linear-gradient"/><linearGradient id="linear-gradient-8" x1="99.34" y1="110.97" x2="99.34" y2="116.38" xlink:href="#linear-gradient"/><linearGradient id="linear-gradient-9" x1="483.68" y1="527.2" x2="483.68" y2="527.2" xlink:href="#linear-gradient"/><linearGradient id="linear-gradient-10" x1="403.76" y1="443.09" x2="403.76" y2="479.61" xlink:href="#linear-gradient"/><linearGradient id="linear-gradient-11" x1="405.31" y1="479.22" x2="405.31" y2="548.55" xlink:href="#linear-gradient"/></defs><path class="cls-1" d="M82,0H116.6a1.46,1.46,0,0,1,1.46,1.46V20.07a0,0,0,0,1,0,0H80.58a0,0,0,0,1,0,0V1.46A1.46,1.46,0,0,1,82,0Z"/><path class="cls-2" d="M80.62,20.58h37.44a0,0,0,0,1,0,0v4.47a.94.94,0,0,1-.94.94H81.56a.94.94,0,0,1-.94-.94V20.58A0,0,0,0,1,80.62,20.58Z"/><rect class="cls-3" x="80.54" y="19.57" width="37.52" height="1.02"/><path class="cls-4" d="M483.68,436.82" transform="translate(-372.74 -434.73)"/><polygon class="cls-5" points="108 31.33 107.07 29.94 102.78 27.96 104.98 25.76 99.38 25.71 99.38 25.71 99.22 25.71 99.07 25.71 99.07 25.71 93.46 25.76 95.66 27.96 91.37 29.94 90.44 31.33 91.37 32.37 99.22 32.26 107.07 32.37 108 31.33"/><path class="cls-6" d="M82,46.91H116.6a1.46,1.46,0,0,1,1.46,1.46V67a0,0,0,0,1,0,0H80.58a0,0,0,0,1,0,0V48.38A1.46,1.46,0,0,1,82,46.91Z"/><path class="cls-7" d="M80.62,67.5h37.44a0,0,0,0,1,0,0V72a.94.94,0,0,1-.94.94H81.56a.94.94,0,0,1-.94-.94V67.5a0,0,0,0,1,0,0Z"/><rect class="cls-3" x="80.54" y="64.61" width="37.52" height="2.9"/><path class="cls-8" d="M483.68,483.73" transform="translate(-372.74 -434.73)"/><polygon class="cls-5" points="108 78.24 107.07 76.85 102.78 74.88 104.98 72.67 99.38 72.63 99.38 72.63 99.22 72.63 99.07 72.63 99.07 72.63 93.46 72.67 95.66 74.88 91.37 76.85 90.44 78.24 91.37 79.29 99.22 79.17 107.07 79.29 108 78.24"/><path class="cls-9" d="M82,90.38H116.6a1.46,1.46,0,0,1,1.46,1.46v18.61a0,0,0,0,1,0,0H80.58a0,0,0,0,1,0,0V91.85A1.46,1.46,0,0,1,82,90.38Z"/><path class="cls-10" d="M80.62,111h37.44a0,0,0,0,1,0,0v4.47a.94.94,0,0,1-.94.94H81.56a.94.94,0,0,1-.94-.94V111A0,0,0,0,1,80.62,111Z"/><rect class="cls-3" x="80.54" y="109.95" width="37.52" height="1.02"/><path class="cls-11" d="M483.68,527.2" transform="translate(-372.74 -434.73)"/><polygon class="cls-5" points="108 121.71 107.07 120.32 102.78 118.35 104.98 116.14 99.38 116.1 99.38 116.09 99.22 116.09 99.07 116.09 99.07 116.1 93.46 116.14 95.66 118.35 91.37 120.32 90.44 121.71 91.37 122.76 99.22 122.64 107.07 122.76 108 121.71"/><path class="cls-12" d="M372.74,469.66a8.65,8.65,0,0,1,9.11-7.1s-.94-11.79,15.91-8.73c0,0,3.83-11.24,14.3-10.72s14.06,10.23,13.54,14.43-.27,5-.27,5,7.78-.06,8.61,3.93c0,0,4.41,9.86-7.08,12.41a31.77,31.77,0,0,1-20.28-2.15s-4.79-5-8.72-.13S375.8,480.89,372.74,469.66Z" transform="translate(-372.74 -434.73)"/><path class="cls-13" d="M386.4,519.45s-1.28-8.43-4.34-12.26c0,0,.25-2.3,2.93-1.66s7,5,6.13,11.49c0,0,.77,8.68,4.08,7.53,0,0,4.12,2,5.25-8V480.89a1.87,1.87,0,0,1,1.88-1.67c1.68,0,1.81,1.16,1.81,1.16l.43,26.07s-.11,4.09.72,4.12c0,0,1.79,1.6,3.32.71,0,0,.57,1,.64-5.88,0,0-.12-3,1.92-2.53s1.65.62,1.91,2.41.54,6.1.54,6.1,3.85.64,3.7-3.82,0-5.32,1.7-5.46,1.59,2.28,1.84,4.07.78,5.21.78,5.21,2.66.77,3-3.49a1.88,1.88,0,0,1,2.11-1.7c2,0,1.41,5.72,1.41,5.72s1.28,19.15-.64,23.37a79.52,79.52,0,0,1-5.3,9.28s1.22,3.35-1.85,4l-22-.46s-3.65,1.48-3-2.22c0,0-.12-2.81-4.08-10.18S385.89,524.68,386.4,519.45Z" transform="translate(-372.74 -434.73)"/><path class="cls-14" d="M381.43,461.22s4.6,1.55,6.71,8.25" transform="translate(-372.74 -434.73)"/><path class="cls-14" d="M411.3,446.67s4.61,1.54,6.71,8.24" transform="translate(-372.74 -434.73)"/><path class="cls-14" d="M425.34,461s-4.86,0-8.94,5.76" transform="translate(-372.74 -434.73)"/><path class="cls-15" d="M447.05,497.44c2,.3,2.79.37,3-2.08s-3-1.63-3-1.63c-3,.69-4.2-.83-4.72-2.24V459c.7-4.6,6.7-4.47,6.7-4.47s.76,0,.87-1.62-.87-2-.87-2c-11.88-1.59-10.73,4.22-10.73,4.22v36.73a2.81,2.81,0,0,1-3.54,1.75h-2a1.57,1.57,0,0,1-1.58-1.57v-6.58a2,2,0,0,0-4.09,0v4.82a6.88,6.88,0,0,0,6.88,6.88h.76a3.46,3.46,0,0,1,3.53,2.11v34h.1v2.88a4,4,0,0,0,3.75,4h.11l.16,0v0h5.8a1.64,1.64,0,0,0,1.64-1.65v-.67a1.37,1.37,0,0,0-1.36-1.37h-4.08a3.29,3.29,0,0,1-2-2.74v-.54h-.09v-26l.19.63-.14-5.58C442.29,496.62,445.06,497.14,447.05,497.44Z" transform="translate(-372.74 -434.73)"/></svg>