<svg id="Layer_1" data-name="Layer 1" xmlns="http://www.w3.org/2000/svg" xmlns:xlink="http://www.w3.org/1999/xlink" viewBox="0 0 123.7 112.85"><defs><style>.cls-1{fill:url(#linear-gradient);}.cls-2{fill:url(#linear-gradient-2);}.cls-3{fill:url(#linear-gradient-3);}.cls-4{fill:#076abc;}.cls-5{fill:#134688;}.cls-6{fill:url(#linear-gradient-4);}</style><linearGradient id="linear-gradient" x1="61.85" x2="61.85" y2="66.26" gradientUnits="userSpaceOnUse"><stop offset="0" stop-color="#5ccdfa"/><stop offset="1" stop-color="#0a85e0"/></linearGradient><linearGradient id="linear-gradient-2" x1="61.91" y1="73.94" x2="61.91" y2="91.81" xlink:href="#linear-gradient"/><linearGradient id="linear-gradient-3" x1="568.94" y1="373.04" x2="568.94" y2="373.04" xlink:href="#linear-gradient"/><linearGradient id="linear-gradient-4" x1="107.23" y1="16.87" x2="110.81" y2="16.87" xlink:href="#linear-gradient"/></defs><path class="cls-1" d="M10.53,0H113.17A10.53,10.53,0,0,1,123.7,10.53V66.26a0,0,0,0,1,0,0H0a0,0,0,0,1,0,0V10.53A10.53,10.53,0,0,1,10.53,0Z"/><path class="cls-2" d="M.13,73.94H123.7a0,0,0,0,1,0,0v8a9.83,9.83,0,0,1-9.83,9.83H10A9.83,9.83,0,0,1,.13,82v-8A0,0,0,0,1,.13,73.94Z"/><path class="cls-3" d="M568.94,373" transform="translate(-468.72 -366.15)"/><path class="cls-4" d="M556.75,471.84l-.59-.88-7.41-3.41a5.17,5.17,0,0,1-1.5-8.36l2-2-18.5-.15h-1l-18.51.15,2,2a5.17,5.17,0,0,1-1.49,8.36L504.34,471l-.59.88a5.78,5.78,0,0,0,.49,7.05l.1.11,25.91-.38,25.91.38.1-.11A5.78,5.78,0,0,0,556.75,471.84Z" transform="translate(-468.72 -366.15)"/><path class="cls-5" d="M520.76,432.35l-7.21-.08c-1.79-3.15-1.2-6.35-.23-9.56a20.74,20.74,0,0,1,5-7,15.61,15.61,0,0,1,11.4-4.4,16.19,16.19,0,0,1,8.84,2.25,20.82,20.82,0,0,1,5.91,4.54,20.1,20.1,0,0,1,2.51,3.92c1.24,3.43,2,6.85-.11,10.25l-6.13.1c-1.57-1.42-1-3.49-1.65-5.19a15.53,15.53,0,0,0-1-2.39,6.46,6.46,0,0,0-3.1-3c-4.14-2-7.86-1.51-11.13,1.76a8.08,8.08,0,0,0-2,3.75c-.09.42-.2.82-.3,1.23C521.22,429.83,521.88,431.29,520.76,432.35Z" transform="translate(-468.72 -366.15)"/><path class="cls-5" d="M493,429.87l-.11-7.85a2.41,2.41,0,0,1,2.42-2.44H499a2.42,2.42,0,0,0,2.33-1.74l.6-2.07a2.4,2.4,0,0,0-.77-2.5l-1.68-1.4a2.38,2.38,0,0,1-.2-3.49l10.22-10.68a2.43,2.43,0,0,1,3.55,0l2.29,2.49a2.41,2.41,0,0,0,2.56.66l2-.66a2.39,2.39,0,0,0,1.65-2.54l-.27-2.37a2.42,2.42,0,0,1,2.41-2.67l14.85,0a2.42,2.42,0,0,1,2.42,2.42l0,3.4a2.4,2.4,0,0,0,1.17,2.08h0a2.45,2.45,0,0,0,2.66-.11l4.18-2.95a2.44,2.44,0,0,1,3.13.25l10.66,10.56a2.38,2.38,0,0,1-.21,3.58l-2.76,2.17a2.38,2.38,0,0,0-.85,2.46l.36,1.42a2.41,2.41,0,0,0,2.73,1.79l3.64-.57a2.41,2.41,0,0,1,2.8,2.45l-.28,8.38a2.4,2.4,0,0,1-2.35,2.32l-2.91.08a2.41,2.41,0,0,1-2.49-2.48l.07-1.94a2.42,2.42,0,0,0-2.51-2.49l-1.37.05a2.43,2.43,0,0,1-2.32-1.45l-3.43-7.92A2.38,2.38,0,0,1,551,414l1.84-3a2.37,2.37,0,0,0-.51-3.09l-1.78-1.49a2.45,2.45,0,0,0-3-.08L545,408.21a2.44,2.44,0,0,1-2.22.36l-6.64-2.2a2.39,2.39,0,0,1-1.61-1.82l-.89-4.51a2.41,2.41,0,0,0-2.38-2h-2.12a2.42,2.42,0,0,0-2.38,2l-.81,4.17A2.44,2.44,0,0,1,524.5,406l-6.36,2.71a2.46,2.46,0,0,1-2.36-.24L512.34,406a2.42,2.42,0,0,0-3,.17l-1.45,1.28a2.38,2.38,0,0,0-.05,3.53l1.72,1.61a2.37,2.37,0,0,1,.59,2.63l-3.45,8.59a2.41,2.41,0,0,1-1.92,1.5l-3.72.5a2.42,2.42,0,0,0-2.09,2.59l.11,1.19a2.41,2.41,0,0,1-2.39,2.6l-1.18,0A2.41,2.41,0,0,1,493,429.87Z" transform="translate(-468.72 -366.15)"/><circle class="cls-5" cx="109.02" cy="16.61" r="7.66"/><circle class="cls-6" cx="109.02" cy="16.87" r="1.79"/></svg>