<svg id="Layer_1" data-name="Layer 1" xmlns="http://www.w3.org/2000/svg" xmlns:xlink="http://www.w3.org/1999/xlink" viewBox="0 0 121.18 121.18"><defs><style>.cls-1{fill:#134688;}.cls-2{fill:url(#linear-gradient);}.cls-3{fill:url(#linear-gradient-2);}.cls-4{fill:url(#linear-gradient-3);}.cls-5{fill:url(#linear-gradient-4);}.cls-6{fill:url(#linear-gradient-5);}.cls-7{fill:url(#linear-gradient-6);}.cls-8{fill:url(#linear-gradient-7);}.cls-9{fill:url(#linear-gradient-8);}.cls-10{fill:url(#linear-gradient-9);}.cls-11{fill:url(#linear-gradient-10);}</style><linearGradient id="linear-gradient" x1="534.79" y1="430.32" x2="571.04" y2="430.32" gradientUnits="userSpaceOnUse"><stop offset="0" stop-color="#5ccdfa"/><stop offset="1" stop-color="#0a85e0"/></linearGradient><linearGradient id="linear-gradient-2" x1="545.35" y1="461.77" x2="581.6" y2="461.77" gradientTransform="translate(-199.65 530.38) rotate(-45)" xlink:href="#linear-gradient"/><linearGradient id="linear-gradient-3" x1="530.57" y1="491.47" x2="566.83" y2="491.47" gradientTransform="translate(34.21 1046.6) rotate(-90)" xlink:href="#linear-gradient"/><linearGradient id="linear-gradient-4" x1="499.13" y1="502.03" x2="535.38" y2="502.03" gradientTransform="translate(564.6 1246.25) rotate(-135)" xlink:href="#linear-gradient"/><linearGradient id="linear-gradient-5" x1="469.43" y1="487.26" x2="505.68" y2="487.26" gradientTransform="translate(1080.81 1012.38) rotate(180)" xlink:href="#linear-gradient"/><linearGradient id="linear-gradient-6" x1="458.87" y1="455.81" x2="495.12" y2="455.81" gradientTransform="translate(1280.46 482) rotate(135)" xlink:href="#linear-gradient"/><linearGradient id="linear-gradient-7" x1="473.64" y1="426.11" x2="509.89" y2="426.11" gradientTransform="translate(1046.6 -34.21) rotate(90)" xlink:href="#linear-gradient"/><linearGradient id="linear-gradient-8" x1="505.09" y1="415.55" x2="541.34" y2="415.55" gradientTransform="translate(516.21 -233.86) rotate(45)" xlink:href="#linear-gradient"/><linearGradient id="linear-gradient-9" x1="22.81" y1="60.7" x2="97.87" y2="60.7" xlink:href="#linear-gradient"/><linearGradient id="linear-gradient-10" x1="563.38" y1="473.88" x2="584.83" y2="473.88" xlink:href="#linear-gradient"/></defs><circle class="cls-1" cx="61.85" cy="60.89" r="53.57"/><path class="cls-2" d="M534.79,431.51l10,12,5.7-3.39a47.11,47.11,0,0,1,13.46-5.42L571,433l-.51-15.83S551.89,415.17,534.79,431.51Z" transform="translate(-512.49 -417.13)"/><path class="cls-3" d="M513.33,472.13l15.52,1.44,1.63-6.42a47.06,47.06,0,0,1,5.69-13.35l3.88-6.23-11.56-10.83S513.87,448.48,513.33,472.13Z" transform="translate(-512.49 -417.13)"/><path class="cls-4" d="M526.87,516l12-10-3.39-5.69a47.11,47.11,0,0,1-5.42-13.46l-1.66-7.14-15.83.51S510.53,498.91,526.87,516Z" transform="translate(-512.49 -417.13)"/><path class="cls-5" d="M567.49,537.48,568.93,522l-6.42-1.63a47.06,47.06,0,0,1-13.35-5.69l-6.22-3.88L532.1,522.32S543.84,536.94,567.49,537.48Z" transform="translate(-512.49 -417.13)"/><path class="cls-6" d="M611.38,523.94l-10-12-5.7,3.39a47.11,47.11,0,0,1-13.46,5.42l-7.14,1.65.51,15.83S594.28,540.28,611.38,523.94Z" transform="translate(-512.49 -417.13)"/><path class="cls-7" d="M632.84,483.32l-15.52-1.44-1.63,6.42A47.06,47.06,0,0,1,610,501.65l-3.88,6.22,11.56,10.84S632.3,507,632.84,483.32Z" transform="translate(-512.49 -417.13)"/><path class="cls-8" d="M619.3,439.43l-12,9.95,3.39,5.7a47.17,47.17,0,0,1,5.42,13.45l1.66,7.15,15.83-.51S635.64,456.53,619.3,439.43Z" transform="translate(-512.49 -417.13)"/><path class="cls-9" d="M578.68,418l-1.44,15.52,6.42,1.63A47,47,0,0,1,597,440.8l6.22,3.88,10.84-11.55S602.33,418.51,578.68,418Z" transform="translate(-512.49 -417.13)"/><circle class="cls-10" cx="60.34" cy="60.7" r="37.53"/><path class="cls-1" d="M574.87,451.52l4.84,14.91a1.35,1.35,0,0,0,1.28.93h15.68a1.34,1.34,0,0,1,.78,2.42L584.77,479a1.33,1.33,0,0,0-.49,1.49l4.85,14.91a1.34,1.34,0,0,1-2.06,1.5l-12.69-9.21a1.31,1.31,0,0,0-1.57,0l-12.69,9.21a1.34,1.34,0,0,1-2.06-1.5l4.85-14.91a1.33,1.33,0,0,0-.49-1.49l-12.68-9.22a1.34,1.34,0,0,1,.79-2.42H566.2a1.35,1.35,0,0,0,1.28-.93l4.84-14.91A1.34,1.34,0,0,1,574.87,451.52Z" transform="translate(-512.49 -417.13)"/><path class="cls-11" d="M574.67,464.06l2.12,6.55a.6.6,0,0,0,.56.41h6.89a.59.59,0,0,1,.35,1.06L579,476.13a.59.59,0,0,0-.21.66l2.13,6.54a.59.59,0,0,1-.91.66l-5.57-4.05a.59.59,0,0,0-.69,0L568.19,484a.59.59,0,0,1-.91-.66l2.13-6.54a.59.59,0,0,0-.21-.66l-5.57-4.05A.58.58,0,0,1,564,471h6.89a.6.6,0,0,0,.56-.41l2.13-6.55A.59.59,0,0,1,574.67,464.06Z" transform="translate(-512.49 -417.13)"/></svg>