<?xml version="1.0" encoding="UTF-8"?> <svg xmlns="http://www.w3.org/2000/svg" xmlns:xlink="http://www.w3.org/1999/xlink" version="1.1" id="Layer_1" x="0px" y="0px" viewBox="0 0 1285.5 533.2" style="enable-background:new 0 0 1285.5 533.2;" xml:space="preserve"> <style type="text/css"> .st0{fill:#2580C3;} .st1{fill:#52B148;} .st2{fill:#787878;} .st3{fill:#878686;} </style> <g> <g> <g> <path class="st0" d="M709,247.7V221c-0.8-0.1-1.8-0.2-2.9-0.3c-1.1-0.1-2.1-0.1-3-0.1c-3.4,0-7.2,0.9-11.2,2.8 c-4.1,1.9-8.8,4.5-14.3,10.3v-13.4h-25.1v95.4h25.1v-63.9C688.6,242.1,703.1,245.7,709,247.7z"></path> <g> <g> <g> <path class="st0" d="M177.6,283.5c-1.5,1.3-3.1,2.5-4.8,3.7c-2.8,2-5.9,3.6-9.2,4.8c-3.3,1.2-6.7,1.8-10.1,1.8 c-3.6,0-7.2-0.7-10.8-2c-3.7-1.3-7-3.5-9.9-6.7c-2.9-3-5.3-7.2-7.3-12.5c-1.9-5.3-2.9-11.9-2.9-19.8c0-7.6,0.9-14,2.7-19.3 c1.8-5.3,4.1-9.6,7-12.8c3-3.3,6.3-5.7,9.9-7.2c3.6-1.4,7.3-2.2,11.2-2.2c3.6,0,6.9,0.6,10,1.9c3.1,1.2,6,2.8,8.7,4.6 c0.2,0.2,0.5,0.3,0.7,0.5c4.6-6.9,9.5-13.5,14.7-19.9v-1c-2-1.1-4.3-2.4-7-3.7c-2.7-1.3-5.6-2.5-8.9-3.6 c-3.1-1-6.5-1.7-10.2-2.3c-3.7-0.6-7.8-0.9-12.4-0.9c-8.3,0-15.9,1.5-22.9,4.6c-7,3.1-12.8,7.4-17.6,13 c-4.9,5.8-8.7,12.8-11.2,21c-2.6,8.2-3.9,17.3-3.9,27.3c0,10.8,1.4,20.3,4,28.5c2.7,8.2,6.5,15.1,11.4,20.6 c4.9,5.5,10.8,9.6,17.6,12.4c6.8,2.8,14.3,4.2,22.4,4.2c5.5,0,9.7-0.3,12.8-0.9c3.1-0.6,6.4-1.5,10-2.7c2.7-0.9,5.3-2,7.8-3.2 c2.4-1.2,5-2.5,7.6-3.9C184,299.5,180.8,291.5,177.6,283.5z"></path> <path class="st0" d="M279.6,268.1c0,15.7-3.7,28.1-11.2,37.1c-7.5,9-18,13.5-31.5,13.5c-13.5,0-24-4.5-31.5-13.5 c-7.5-9-11.2-21.4-11.2-37.1c0-15.8,3.8-28.2,11.3-37.2c7.5-9,18-13.5,31.4-13.5c13.6,0,24.1,4.5,31.5,13.6 C275.9,240,279.6,252.4,279.6,268.1z M248.9,291.3c1.6-2.4,2.8-5.4,3.6-8.8c0.8-3.4,1.2-8.2,1.2-14.2c0-5.6-0.4-10.3-1.2-14.1 c-0.8-3.8-2-6.8-3.5-9.1c-1.5-2.3-3.3-4-5.3-4.9c-2.1-1-4.3-1.4-6.7-1.4c-2.4,0-4.5,0.4-6.4,1.2c-1.9,0.8-3.7,2.4-5.4,4.8 c-1.5,2.2-2.7,5.2-3.6,9.1c-0.9,3.9-1.4,8.7-1.4,14.5c0,5.2,0.4,9.7,1.2,13.6c0.8,3.8,1.9,6.9,3.5,9.2 c1.5,2.2,3.2,3.8,5.3,4.8c2.1,1,4.4,1.5,7,1.5c2.3,0,4.4-0.5,6.5-1.4C245.7,295.1,247.4,293.5,248.9,291.3z"></path> <path class="st0" d="M316.9,315.8h-25.1V183.6h25.1V315.8z"></path> <path class="st0" d="M359.8,315.8h-25.1V183.6h25.1V315.8z"></path> <path class="st0" d="M440.1,225.7c-6.3-5.4-16.6-8-30.8-8c-6,0-11.9,0.6-17.9,1.7c-5.9,1.2-10.2,2.2-12.9,3 c1.8,3.1,3.6,6.2,5.1,9.5c1.6,3.4,2.9,7.1,5,10.3c0.7-0.3,1.5-0.6,2.3-0.9c4.7-1.8,9.1-2.7,13.2-2.7c6.8,0,12,1,15.5,3 c3.5,2,5.3,5.6,5.3,10.9v0.5c-7.4,0.5-14.5,1.3-21.3,2.4c-6.8,1.1-12.6,2.9-17.2,5.4c-4.7,2.5-8.3,6-10.8,10.5 c-2.5,4.4-3.8,10.1-3.8,17.1c0,8.7,2.5,15.9,7.5,21.5c5,5.6,11.2,8.4,18.6,8.4c3.1,0,6-0.3,8.7-1c2.6-0.7,5.2-1.7,7.6-3 c1.8-1,3.6-2.4,5.6-4.2c2-1.8,3.7-3.3,5-4.5v10.1h24.8v-64.9C449.6,239.4,446.5,231,440.1,225.7z M424.8,290.8 c-1.9,2-4.2,3.7-6.8,4.9c-2.6,1.2-5.1,1.9-7.6,1.9c-3.1,0-5.5-0.3-6.9-0.8c-1.5-0.5-2.8-1.4-3.8-2.5c-1.1-1.1-1.8-2.3-2.1-3.6 c-0.3-1.2-0.4-2.9-0.4-4.8c0-3,0.7-5.4,2-7.2c1.3-1.8,3.2-3.2,5.7-4.2c2-0.8,5-1.5,9-2.1c3.9-0.6,7.6-1.1,11-1.4V290.8z"></path> <path class="st0" d="M780,225.7c-6.3-5.4-16.6-8-30.8-8c-6,0-11.9,0.6-17.9,1.7c-5.9,1.2-10.2,2.2-12.9,3 c1.8,3.1,3.6,6.2,5.1,9.5c1.6,3.4,2.9,7.1,5,10.3c0.7-0.3,1.5-0.6,2.3-0.9c4.7-1.8,9.1-2.7,13.2-2.7c6.8,0,12,1,15.5,3 c3.5,2,5.3,5.6,5.3,10.9v0.5c-7.4,0.5-14.5,1.3-21.3,2.4c-6.8,1.1-12.6,2.9-17.2,5.4c-4.7,2.5-8.3,6-10.8,10.5 c-2.5,4.4-3.8,10.1-3.8,17.1c0,8.7,2.5,15.9,7.5,21.5c5,5.6,11.2,8.4,18.6,8.4c3.1,0,6-0.3,8.7-1c2.6-0.7,5.2-1.7,7.6-3 c1.8-1,3.6-2.4,5.6-4.2c2-1.8,3.7-3.3,5-4.5v10.1h24.8v-64.9C789.4,239.4,786.3,231,780,225.7z M764.7,290.8 c-1.9,2-4.2,3.7-6.8,4.9c-2.6,1.2-5.1,1.9-7.6,1.9c-3.1,0-5.5-0.3-6.9-0.8c-1.5-0.5-2.8-1.4-3.8-2.5c-1.1-1.1-1.8-2.3-2.1-3.6 c-0.3-1.2-0.4-2.9-0.4-4.8c0-3,0.7-5.4,2-7.2c1.3-1.8,3.2-3.2,5.7-4.2c2-0.8,5-1.5,9-2.1c3.9-0.6,7.6-1.1,11-1.4V290.8z"></path> <path class="st0" d="M548.2,266.7c0,15-3.4,27.2-10.2,36.7c-6.8,9.5-15.2,14.2-25.3,14.2c-4.3,0-8.2-0.6-11.4-1.7 c-3.3-1.1-6.4-2.8-9.4-4.9l-1,4.8h-24V183.6H492v46.7c3.8-3.7,7.8-6.8,11.7-9.1c4-2.3,8.6-3.5,13.8-3.5 c9.8,0,17.4,4.4,22.7,13C545.6,239.5,548.2,251.5,548.2,266.7z M522.5,267.4c0-8.5-1.2-15-3.5-19.6c-2.4-4.6-6.6-6.9-12.6-6.9 c-2.4,0-4.8,0.4-7.3,1.3c-2.5,0.9-4.9,2.1-7.1,3.8v47.8c1.8,0.8,3.5,1.3,5.1,1.6c1.6,0.3,3.6,0.4,5.8,0.4 c6.6,0,11.5-2.4,14.8-7.1C520.9,284,522.5,276.9,522.5,267.4z"></path> <path class="st0" d="M640.3,268.1c0,15.7-3.7,28.1-11.2,37.1c-7.5,9-18,13.5-31.5,13.5c-13.5,0-24-4.5-31.5-13.5 c-7.5-9-11.2-21.4-11.2-37.1c0-15.8,3.8-28.2,11.3-37.2c7.5-9,18-13.5,31.4-13.5c13.6,0,24.1,4.5,31.5,13.6 C636.6,240,640.3,252.4,640.3,268.1z M609.5,291.3c1.6-2.4,2.8-5.4,3.6-8.8c0.8-3.4,1.2-8.2,1.2-14.2c0-5.6-0.4-10.3-1.2-14.1 c-0.8-3.8-2-6.8-3.5-9.1c-1.5-2.3-3.3-4-5.3-4.9c-2.1-1-4.3-1.4-6.7-1.4c-2.4,0-4.5,0.4-6.4,1.2c-1.9,0.8-3.7,2.4-5.4,4.8 c-1.5,2.2-2.7,5.2-3.6,9.1c-0.9,3.9-1.4,8.7-1.4,14.5c0,5.2,0.4,9.7,1.2,13.6c0.8,3.8,1.9,6.9,3.5,9.2 c1.5,2.2,3.3,3.8,5.3,4.8c2.1,1,4.4,1.5,7,1.5c2.3,0,4.4-0.5,6.5-1.4C606.4,295.1,608.1,293.5,609.5,291.3z"></path> <path class="st0" d="M856.6,314.9c-2.7,0.8-5.5,1.5-8.5,2c-3,0.5-6.7,0.7-11,0.7c-9.7,0-16.9-2.4-21.7-7.2 c-4.7-4.8-7.1-13.1-7.1-24.7v-44.6h-10.3v-20.7h10.3v-27.3h25.1v27.3h23.3v20.7h-23.3V275c0,3.3,0,6.3,0.1,8.8 c0,2.5,0.4,4.7,1.1,6.7c0.6,2,1.8,3.6,3.4,4.7c1.6,1.2,4,1.7,7.2,1.7c1.3,0,3-0.3,5.1-1c2.1-0.7,3.6-1.3,4.4-1.9h2.1V314.9z"></path> <path class="st0" d="M929,292.1c-0.8,0.4-1.6,0.8-2.4,1.2c-5,2.3-10.1,3.5-15.3,3.5c-8.3,0-14.6-2-18.9-5.9 c-4.3-4-6.6-9.7-7-17.2h57.2V263c0-14.7-3.2-26-9.6-33.9c-6.4-7.8-15.9-11.8-28.6-11.8c-13.7,0-24.6,4.6-32.4,13.8 c-7.9,9.2-11.8,21.7-11.8,37.4c0,15.9,4.2,28.2,12.5,36.8c8.3,8.6,20.3,12.9,36,12.9c6.1,0,11.6-0.6,16.6-1.9 c4.1-1,8.3-2.6,12.8-4.6C934.9,305.3,931.9,298.7,929,292.1z M890.5,241.1c3.1-3.1,7.1-4.6,11.9-4.6c5.2,0,9,1.6,11.5,4.8 c2.5,3.2,3.7,8,3.9,14.4h-32.4C885.7,249,887.4,244.1,890.5,241.1z"></path> </g> </g> <circle class="st1" cx="1003.9" cy="142.7" r="33.3"></circle> <polygon class="st1" points="936.3,141.1 920.7,153.8 947.2,186.7 963.7,171.8 "></polygon> <polygon class="st1" points="1069.2,139.5 1041.7,171.6 1058.1,185.3 1085.2,153 "></polygon> <g> <g> <path class="st1" d="M1055.8,314.3h-24.8v-80.8l-25.6,56.3h-1.8L978,233.6v80.8h-23.5V193.7h28.9l21.7,52.8l21.7-52.8h28.9 V314.3z"></path> <path class="st1" d="M1171.8,254.1c0,11.2-2.1,21.3-6.2,30.2c-4.1,8.9-9.3,15.7-15.6,20.5c-4.7,3.6-9.9,6.1-15.5,7.5 c-5.6,1.4-12.3,2.1-20,2.1h-34.1V193.7h35c7.9,0,14.7,0.8,20.4,2.5c5.7,1.6,10.5,4,14.4,7c6.7,5.1,11.9,11.9,15.7,20.5 C1169.9,232.3,1171.8,242.5,1171.8,254.1z M1146.1,253.9c0-7.9-1.2-14.7-3.5-20.4c-2.3-5.6-6-10.1-11-13.2 c-2.6-1.6-5.2-2.6-7.8-3.2c-2.7-0.6-6.7-0.9-12-0.9h-6.3v75.5h6.3c5.9,0,10.3-0.3,13-1c2.8-0.7,5.5-1.9,8.1-3.7 c4.5-3.2,7.9-7.6,10-13C1145,268.6,1146.1,261.9,1146.1,253.9z"></path> </g> </g> </g> </g> <path class="st0" d="M754.9,330.7l-8,30.9h-4.6l-6.5-25.7l-6.4,25.7h-4.5l-8.2-30.9h4.2l6.5,25.7l6.4-25.7h4.2l6.5,26l6.5-26 H754.9z"></path> <path class="st0" d="M778.4,350c0,3.8-1,6.8-2.9,9c-1.9,2.2-4.5,3.3-7.8,3.3c-3.3,0-5.9-1.1-7.8-3.3c-1.9-2.2-2.9-5.2-2.9-9 c0-3.8,1-6.8,2.9-9c1.9-2.2,4.5-3.3,7.8-3.3c3.3,0,5.9,1.1,7.8,3.3C777.4,343.2,778.4,346.2,778.4,350z M774.3,350 c0-3-0.6-5.2-1.8-6.7c-1.2-1.5-2.8-2.2-4.9-2.2c-2.1,0-3.8,0.7-4.9,2.2c-1.2,1.5-1.8,3.7-1.8,6.7c0,2.9,0.6,5.1,1.8,6.6 c1.2,1.5,2.8,2.3,4.9,2.3c2.1,0,3.7-0.7,4.9-2.2C773.7,355.1,774.3,352.9,774.3,350z"></path> <path class="st0" d="M798.9,342.6h-0.2c-0.6-0.1-1.1-0.2-1.7-0.3c-0.5-0.1-1.2-0.1-1.9-0.1c-1.2,0-2.4,0.3-3.5,0.8 c-1.1,0.5-2.2,1.2-3.2,2.1v16.5h-3.9v-23.2h3.9v3.4c1.6-1.2,2.9-2.1,4.1-2.6c1.2-0.5,2.4-0.8,3.6-0.8c0.7,0,1.2,0,1.5,0.1 c0.3,0,0.8,0.1,1.4,0.2V342.6z"></path> <path class="st0" d="M823.6,361.6h-5.2l-9.3-10.2l-2.5,2.4v7.7h-3.9v-32.3h3.9V350l11.3-11.6h4.9l-10.8,10.7L823.6,361.6z"></path> <path class="st0" d="M862,361.6h-19.6v-30.9h4.1v27.3H862V361.6z"></path> <path class="st0" d="M885.2,350.4h-17.1c0,1.4,0.2,2.7,0.6,3.7c0.4,1.1,1,1.9,1.8,2.6c0.7,0.7,1.6,1.2,2.6,1.5 c1,0.3,2.1,0.5,3.3,0.5c1.6,0,3.2-0.3,4.8-0.9c1.6-0.6,2.7-1.2,3.4-1.9h0.2v4.3c-1.3,0.6-2.7,1-4,1.4c-1.4,0.4-2.8,0.6-4.3,0.6 c-3.9,0-6.9-1-9-3.1c-2.2-2.1-3.2-5-3.2-8.9c0-3.8,1-6.8,3.1-9c2.1-2.2,4.8-3.3,8.2-3.3c3.1,0,5.5,0.9,7.2,2.7 c1.7,1.8,2.5,4.4,2.5,7.8V350.4z M881.4,347.4c0-2.1-0.5-3.6-1.5-4.8c-1-1.1-2.6-1.7-4.6-1.7c-2.1,0-3.8,0.6-5,1.9 c-1.2,1.2-1.9,2.8-2.1,4.6H881.4z"></path> <path class="st0" d="M907.7,354.9c0,2.1-0.9,3.9-2.6,5.2c-1.8,1.4-4.1,2-7.2,2c-1.7,0-3.3-0.2-4.7-0.6c-1.4-0.4-2.6-0.9-3.6-1.3 v-4.4h0.2c1.2,0.9,2.6,1.7,4.1,2.2c1.5,0.5,3,0.8,4.3,0.8c1.7,0,3.1-0.3,4-0.8c1-0.6,1.5-1.4,1.5-2.6c0-0.9-0.3-1.6-0.8-2.1 c-0.5-0.5-1.5-0.9-3-1.2c-0.6-0.1-1.3-0.3-2.2-0.4c-0.9-0.2-1.7-0.3-2.4-0.5c-2-0.5-3.5-1.3-4.3-2.4c-0.9-1-1.3-2.3-1.3-3.9 c0-1,0.2-1.9,0.6-2.7c0.4-0.8,1-1.6,1.8-2.3c0.8-0.7,1.8-1.2,3-1.5c1.2-0.4,2.5-0.6,4-0.6c1.4,0,2.8,0.2,4.2,0.5 c1.4,0.3,2.6,0.8,3.5,1.2v4.2h-0.2c-1-0.7-2.2-1.4-3.6-1.9c-1.4-0.5-2.8-0.8-4.2-0.8c-1.4,0-2.6,0.3-3.6,0.8 c-1,0.5-1.5,1.4-1.5,2.4c0,1,0.3,1.7,0.9,2.2c0.6,0.5,1.5,0.9,2.8,1.2c0.7,0.2,1.5,0.3,2.4,0.5c0.9,0.2,1.6,0.3,2.2,0.5 c1.8,0.4,3.2,1.1,4.2,2.1C907.2,351.9,907.7,353.2,907.7,354.9z"></path> <path class="st0" d="M929.9,354.9c0,2.1-0.9,3.9-2.6,5.2c-1.8,1.4-4.1,2-7.2,2c-1.7,0-3.3-0.2-4.7-0.6c-1.4-0.4-2.6-0.9-3.6-1.3 v-4.4h0.2c1.2,0.9,2.6,1.7,4.1,2.2c1.5,0.5,3,0.8,4.3,0.8c1.7,0,3.1-0.3,4-0.8c1-0.6,1.5-1.4,1.5-2.6c0-0.9-0.3-1.6-0.8-2.1 c-0.5-0.5-1.5-0.9-3-1.2c-0.6-0.1-1.3-0.3-2.2-0.4c-0.9-0.2-1.7-0.3-2.4-0.5c-2-0.5-3.5-1.3-4.3-2.4c-0.9-1-1.3-2.3-1.3-3.9 c0-1,0.2-1.9,0.6-2.7c0.4-0.8,1-1.6,1.8-2.3c0.8-0.7,1.8-1.2,3-1.5c1.2-0.4,2.5-0.6,4-0.6c1.4,0,2.8,0.2,4.2,0.5 c1.4,0.3,2.6,0.8,3.5,1.2v4.2h-0.2c-1-0.7-2.2-1.4-3.6-1.9c-1.4-0.5-2.8-0.8-4.2-0.8c-1.4,0-2.6,0.3-3.6,0.8 c-1,0.5-1.5,1.4-1.5,2.4c0,1,0.3,1.7,0.9,2.2c0.6,0.5,1.5,0.9,2.8,1.2c0.7,0.2,1.5,0.3,2.4,0.5c0.9,0.2,1.6,0.3,2.2,0.5 c1.8,0.4,3.2,1.1,4.2,2.1C929.4,351.9,929.9,353.2,929.9,354.9z"></path> <path class="st0" d="M942.1,355.7l-5.9,13.6h-3l3.6-13.6H942.1z"></path> <path class="st1" d="M975.7,340c0,1.4-0.2,2.6-0.7,3.8c-0.5,1.2-1.1,2.2-2,3c-1.1,1.1-2.3,1.9-3.8,2.4c-1.5,0.5-3.3,0.8-5.5,0.8 h-4.1v11.5h-4.1v-30.9h8.4c1.9,0,3.4,0.2,4.7,0.5c1.3,0.3,2.4,0.8,3.4,1.5c1.2,0.8,2.1,1.8,2.7,2.9 C975.4,336.7,975.7,338.2,975.7,340z M971.5,340.1c0-1.1-0.2-2-0.6-2.8c-0.4-0.8-0.9-1.4-1.7-1.9c-0.7-0.4-1.4-0.7-2.3-0.9 c-0.9-0.2-1.9-0.3-3.2-0.3h-4.1v12.4h3.5c1.7,0,3-0.1,4.1-0.4c1-0.3,1.9-0.8,2.5-1.4c0.7-0.7,1.1-1.4,1.4-2.1 C971.3,341.8,971.5,341,971.5,340.1z"></path> <path class="st1" d="M997.8,361.6H994v-2.5c-0.3,0.2-0.8,0.6-1.4,1c-0.6,0.4-1.2,0.8-1.7,1c-0.7,0.3-1.4,0.6-2.2,0.8 c-0.8,0.2-1.8,0.3-3,0.3c-2.1,0-3.9-0.7-5.3-2.1c-1.5-1.4-2.2-3.1-2.2-5.3c0-1.8,0.4-3.2,1.1-4.3c0.8-1.1,1.8-1.9,3.2-2.6 c1.4-0.6,3.1-1,5.1-1.3c2-0.2,4.1-0.4,6.4-0.5v-0.6c0-0.9-0.2-1.6-0.5-2.2c-0.3-0.6-0.8-1-1.3-1.4c-0.6-0.3-1.2-0.5-2-0.6 c-0.8-0.1-1.6-0.2-2.4-0.2c-1,0-2.2,0.1-3.4,0.4c-1.3,0.3-2.6,0.7-3.9,1.2h-0.2v-4c0.8-0.2,1.9-0.4,3.3-0.7 c1.4-0.2,2.9-0.4,4.3-0.4c1.6,0,3.1,0.1,4.3,0.4c1.2,0.3,2.3,0.7,3.1,1.4c0.9,0.6,1.5,1.5,2,2.5c0.5,1,0.7,2.3,0.7,3.8V361.6z M994,355.9v-6.5c-1.2,0.1-2.6,0.2-4.2,0.3c-1.6,0.1-2.9,0.3-3.8,0.6c-1.1,0.3-2,0.8-2.7,1.5c-0.7,0.7-1,1.6-1,2.8 c0,1.3,0.4,2.3,1.2,3c0.8,0.7,2,1,3.7,1c1.4,0,2.6-0.3,3.8-0.8C991.9,357.3,993,356.6,994,355.9z"></path> <path class="st1" d="M1009.6,334.5h-4.4v-4.1h4.4V334.5z M1009.3,361.6h-3.9v-23.2h3.9V361.6z"></path> <path class="st1" d="M1035.9,361.6h-3.9v-2.4c-1.1,1-2.3,1.7-3.5,2.3c-1.2,0.5-2.5,0.8-4,0.8c-2.8,0-5-1.1-6.6-3.2 c-1.6-2.1-2.4-5.1-2.4-8.9c0-2,0.3-3.7,0.8-5.3c0.6-1.5,1.3-2.8,2.3-3.9c0.9-1.1,2-1.9,3.3-2.4c1.3-0.6,2.6-0.8,3.9-0.8 c1.2,0,2.3,0.1,3.2,0.4c0.9,0.3,1.9,0.7,3,1.2v-10.1h3.9V361.6z M1032,355.9v-13.3c-1.1-0.5-2-0.8-2.8-1c-0.8-0.2-1.7-0.3-2.7-0.3 c-2.2,0-3.9,0.8-5.1,2.3c-1.2,1.5-1.8,3.7-1.8,6.5c0,2.8,0.5,4.9,1.4,6.3c0.9,1.4,2.5,2.1,4.5,2.1c1.1,0,2.2-0.2,3.4-0.7 C1029.9,357.3,1031,356.7,1032,355.9z"></path> <path class="st1" d="M1078.6,334.3h-15.6v8.7h13.4v3.7h-13.4v14.9h-4.1v-30.9h19.8V334.3z"></path> <path class="st1" d="M1098.9,361.6h-3.9v-2.5c-0.3,0.2-0.8,0.6-1.4,1c-0.6,0.4-1.2,0.8-1.7,1c-0.7,0.3-1.4,0.6-2.2,0.8 c-0.8,0.2-1.8,0.3-3,0.3c-2.1,0-3.9-0.7-5.3-2.1c-1.5-1.4-2.2-3.1-2.2-5.3c0-1.8,0.4-3.2,1.1-4.3c0.8-1.1,1.8-1.9,3.2-2.6 c1.4-0.6,3.1-1,5.1-1.3c2-0.2,4.1-0.4,6.4-0.5v-0.6c0-0.9-0.2-1.6-0.5-2.2c-0.3-0.6-0.8-1-1.3-1.4c-0.6-0.3-1.2-0.5-2-0.6 c-0.8-0.1-1.6-0.2-2.4-0.2c-1,0-2.2,0.1-3.4,0.4c-1.3,0.3-2.6,0.7-3.9,1.2h-0.2v-4c0.8-0.2,1.9-0.4,3.3-0.7 c1.4-0.2,2.9-0.4,4.3-0.4c1.6,0,3.1,0.1,4.3,0.4c1.2,0.3,2.3,0.7,3.1,1.4c0.9,0.6,1.5,1.5,2,2.5c0.5,1,0.7,2.3,0.7,3.8V361.6z M1095,355.9v-6.5c-1.2,0.1-2.6,0.2-4.2,0.3c-1.6,0.1-2.9,0.3-3.8,0.6c-1.1,0.3-2,0.8-2.7,1.5c-0.7,0.7-1,1.6-1,2.8 c0,1.3,0.4,2.3,1.2,3c0.8,0.7,2,1,3.7,1c1.4,0,2.6-0.3,3.8-0.8C1093,357.3,1094.1,356.6,1095,355.9z"></path> <path class="st1" d="M1123,354.9c0,2.1-0.9,3.9-2.6,5.2c-1.8,1.4-4.1,2-7.2,2c-1.7,0-3.3-0.2-4.7-0.6c-1.4-0.4-2.6-0.9-3.6-1.3 v-4.4h0.2c1.2,0.9,2.6,1.7,4.1,2.2c1.5,0.5,3,0.8,4.3,0.8c1.7,0,3.1-0.3,4-0.8c1-0.6,1.5-1.4,1.5-2.6c0-0.9-0.3-1.6-0.8-2.1 c-0.5-0.5-1.5-0.9-3-1.2c-0.6-0.1-1.3-0.3-2.2-0.4c-0.9-0.2-1.7-0.3-2.4-0.5c-2-0.5-3.5-1.3-4.3-2.4c-0.9-1-1.3-2.3-1.3-3.9 c0-1,0.2-1.9,0.6-2.7c0.4-0.8,1-1.6,1.8-2.3c0.8-0.7,1.8-1.2,3-1.5c1.2-0.4,2.5-0.6,4-0.6c1.4,0,2.8,0.2,4.2,0.5 c1.4,0.3,2.6,0.8,3.5,1.2v4.2h-0.2c-1-0.7-2.2-1.4-3.6-1.9c-1.4-0.5-2.8-0.8-4.2-0.8c-1.4,0-2.6,0.3-3.6,0.8 c-1,0.5-1.5,1.4-1.5,2.4c0,1,0.3,1.7,0.9,2.2c0.6,0.5,1.5,0.9,2.8,1.2c0.7,0.2,1.5,0.3,2.4,0.5c0.9,0.2,1.6,0.3,2.2,0.5 c1.8,0.4,3.2,1.1,4.2,2.1C1122.5,351.9,1123,353.2,1123,354.9z"></path> <path class="st1" d="M1140.7,361.4c-0.7,0.2-1.5,0.4-2.4,0.5c-0.9,0.1-1.6,0.2-2.3,0.2c-2.4,0-4.2-0.6-5.4-1.9 c-1.2-1.3-1.8-3.3-1.8-6.1v-12.3h-2.6v-3.3h2.6v-6.7h3.9v6.7h8.1v3.3h-8.1v10.6c0,1.2,0,2.2,0.1,2.9c0.1,0.7,0.2,1.3,0.6,1.9 c0.3,0.6,0.7,1,1.3,1.2c0.5,0.3,1.3,0.4,2.4,0.4c0.6,0,1.3-0.1,2-0.3c0.7-0.2,1.2-0.3,1.5-0.5h0.2V361.4z"></path> <path class="st1" d="M1152.2,330.7l-0.5,22.4h-3.5l-0.6-22.4H1152.2z M1152,361.6h-4.2v-4.4h4.2V361.6z"></path> </g> <path class="st2" d="M821.3,424.3c1.9-1.1,4-1.6,6.4-1.6c2.5,0,4.8,0.6,6.9,1.8c2,1.2,3.6,2.9,4.8,5.1c1.2,2.2,1.8,4.7,1.8,7.6 c0,2.9-0.6,5.4-1.8,7.6c-1.2,2.2-2.8,4-4.8,5.2c-2,1.2-4.3,1.9-6.8,1.9c-2.4,0-4.6-0.5-6.4-1.6c-1.8-1.1-3.2-2.4-4.2-4.1v5.2h-4.7 v-38.2h4.7v15.2C818,426.8,819.5,425.4,821.3,424.3 M835,431.7c-0.9-1.6-2-2.8-3.5-3.6c-1.5-0.8-3.1-1.2-4.8-1.2 c-1.7,0-3.3,0.4-4.8,1.3c-1.5,0.8-2.6,2.1-3.5,3.7c-0.9,1.6-1.3,3.5-1.3,5.6c0,2.1,0.4,4,1.3,5.6c0.9,1.6,2,2.8,3.5,3.7 c1.5,0.8,3.1,1.3,4.8,1.3c1.8,0,3.4-0.4,4.8-1.3c1.5-0.8,2.6-2.1,3.5-3.7c0.9-1.6,1.3-3.5,1.3-5.7 C836.3,435.1,835.9,433.2,835,431.7 M866.8,423.2l-8.8,22.9l-8.9-22.9h-5.2l11.4,28l-5.6,13.6h4.9l17-41.6H866.8z M1098.3,438 c0.5-10.7-11.5-19.6-22.3-13.6c-1.8,0.8-7.8,7.6-8.7,8.7c0,0.1-8.2,9-8.2,9c-1.5,1.6-3.4,2.8-5.7,2.7c-4.2,0.2-7.6-3.6-7.4-7.7 c-0.4-5.7,6.1-9.6,11-6.7l-6.4,7.3l4.9,4.4l10.8-12c-6.3-10.1-19.9-10-26-0.4c-7.6,13,7.2,27.5,20.2,20.3c2.7-1.5,9.4-9.5,9.4-9.5 l7.6-8.2c1.5-1.6,3.4-2.8,5.7-2.7c4.2-0.2,7.6,3.6,7.4,7.7c0.4,5.8-6.3,9.7-11.2,6.6c-1.3-0.8-3.2-2.8-4.2-4.9l-4.9,5.4 c4.9,7.8,14.3,9.6,21,5.4v1.4h7.1V438 M974.8,439.7h-19.5c0.4,1.8,1.4,3.1,2.7,4.1c1.4,1,3.1,1.4,5.1,1.4c2.7,0,5.3-0.9,7.8-2.8 l3.1,5.2c-3.3,2.8-7,4.2-11.1,4.2c-2.9,0-5.5-0.6-7.8-1.9c-2.3-1.3-4.1-3-5.4-5.3c-1.3-2.2-2-4.7-2-7.4c0-2.7,0.6-5.2,1.9-7.4 c1.3-2.2,3-4,5.3-5.3c2.2-1.3,4.7-1.9,7.4-1.9c2.5,0,4.8,0.6,6.8,1.7c2,1.1,3.5,2.7,4.6,4.7c1.1,2,1.7,4.1,1.7,6.5 C975.3,436.9,975.2,438.3,974.8,439.7 M957.7,430.3c-1.2,1-2,2.4-2.4,4.1H968c0-1.7-0.6-3.1-1.8-4.1c-1.2-1-2.6-1.5-4.2-1.5 C960.3,428.8,958.9,429.3,957.7,430.3 M915.5,414.1h-24.9v37.1h25.6v-6.9h-18v-9.4h12.8v-6.5h-12.8v-7.5h17.4V414.1z M938.7,423.3 l-7,15.7l-7-15.7h-8l13.8,28.5h2.5l13.8-28.5H938.7z M997.5,423.3c-0.7-0.2-1.5-0.3-2.5-0.3c-1.5,0-3,0.3-4.3,1 c-1.3,0.6-2.4,1.5-3.4,2.7v-3.3h-7v27.8h7.6v-13.9c0-2.4,0.7-4.2,2-5.4c1.3-1.2,3.2-1.8,5.4-1.8h2V423.3 M1033.5,414h-7.6v14.2 h-16.4V414h-7.6v37.1h7.6v-16h16.4v16h7.6V414z M1110.1,414h-7.6v37.2h7.6V414z M1134.7,444.8c-1.9,0.2-3.1,0.2-3.6,0.2 c-1.8,0-3.1-0.3-3.9-1c-0.8-0.7-1.2-1.8-1.2-3.3v-11h7.9v-6.4h-7.9v-7h-7.6v7h-4.4v6.4h4.4v11.6c0,3.5,1,6.1,2.9,7.8 c1.9,1.7,4.7,2.6,8.2,2.6c1.7,0,3.4-0.2,5.2-0.7V444.8 M1162.2,425.8c-1.9-2-4.4-3.1-7.5-3.1c-1.5,0-3,0.3-4.3,0.8 c-1.3,0.5-2.4,1.3-3.4,2.2V414h-7.6v37.2h7.6v-16.2c0-1.6,0.5-2.9,1.5-3.9c1-1,2.3-1.5,3.8-1.5c1.5,0,2.8,0.5,3.7,1.5 c1,1,1.4,2.3,1.4,3.9v16.2h7.5v-17.2C1165,430.5,1164.1,427.8,1162.2,425.8 M1168.4,421c-0.5,0-0.9-0.1-1.3-0.3 c-0.4-0.2-0.8-0.4-1.1-0.7c-0.3-0.3-0.6-0.7-0.7-1.1c-0.2-0.4-0.3-0.9-0.3-1.4c0-0.5,0.1-1,0.3-1.4c0.2-0.4,0.4-0.8,0.7-1.1 c0.3-0.3,0.7-0.6,1.1-0.7c0.4-0.2,0.9-0.3,1.3-0.3c0.5,0,0.9,0.1,1.3,0.3c0.4,0.2,0.8,0.4,1.1,0.7c0.3,0.3,0.6,0.7,0.7,1.1 c0.2,0.4,0.3,0.9,0.3,1.4c0,0.5-0.1,1-0.3,1.4c-0.2,0.4-0.4,0.8-0.7,1.1c-0.3,0.3-0.7,0.6-1.1,0.7 C1169.3,420.9,1168.9,421,1168.4,421 M1168.4,420.3c0.4,0,0.7-0.1,1.1-0.2c0.3-0.2,0.6-0.3,0.8-0.6c0.2-0.2,0.4-0.5,0.6-0.8 c0.1-0.3,0.2-0.7,0.2-1v-0.4c0-0.3-0.1-0.7-0.2-1c-0.1-0.3-0.3-0.6-0.6-0.9c-0.2-0.2-0.5-0.4-0.8-0.6c-0.3-0.1-0.7-0.2-1.1-0.2 c-0.4,0-0.7,0.1-1.1,0.2c-0.3,0.1-0.6,0.3-0.8,0.6c-0.2,0.2-0.4,0.5-0.5,0.9c-0.1,0.3-0.2,0.6-0.2,1v0.4c0,0.3,0.1,0.7,0.2,1 c0.1,0.3,0.3,0.6,0.5,0.8c0.2,0.2,0.5,0.4,0.8,0.6C1167.7,420.3,1168,420.3,1168.4,420.3 M1167.8,419.3h-0.7v-3.6h1.5 c0.3,0,0.6,0.1,0.8,0.3c0.2,0.2,0.3,0.5,0.3,0.8c0,0.3-0.1,0.5-0.2,0.7c-0.1,0.2-0.3,0.3-0.5,0.4l0.8,1.5h-0.8l-0.8-1.4h-0.6V419.3 z M1168.6,417.4c0.3,0,0.4-0.1,0.4-0.4v-0.4c0-0.2-0.1-0.4-0.4-0.4h-0.8v1.1H1168.6z"></path> </g> <path class="st3" d="M1071.4,275.4c0.7,0,1.4-0.4,1.9-0.9c0,0,2.7-2.9,2.7-3"></path> </svg> 