<?xml version="1.0" encoding="utf-8"?>
<!DOCTYPE svg PUBLIC "-//W3C//DTD SVG 1.1//EN" "http://www.w3.org/Graphics/SVG/1.1/DTD/svg11.dtd">
<svg xmlns="http://www.w3.org/2000/svg" xmlns:xlink="http://www.w3.org/1999/xlink" version="1.1" baseProfile="full" width="257.236" height="46.08" viewBox="0 0 257.24 46.08" enable-background="new 0 0 257.24 46.08" xml:space="preserve">
	<g>
		<path fill="#658CB3" fill-opacity="1" stroke-width="0.2" stroke-linejoin="round" d="M 19.8248,26.4L 5.88602,26.4L 2.72025,36L 0,36L 11.6235,1.92L 14.0872,1.92L 25.7108,36L 23.0108,36L 19.8248,26.4 Z M 6.6825,24L 19.0013,24L 12.8452,5.42998L 6.6825,24 Z "/>
		<rect x="29.8351" y="-1.52588e-005" fill="#658CB3" fill-opacity="1" stroke-width="0.2" stroke-linejoin="round" width="2.53125" height="36"/>
		<rect x="39.3391" y="-1.52588e-005" fill="#658CB3" fill-opacity="1" stroke-width="0.2" stroke-linejoin="round" width="2.53125" height="36"/>
		<path fill="#658CB3" fill-opacity="1" stroke-width="0.2" stroke-linejoin="round" d="M 57.4628,36.48C 55.5233,36.48 53.7694,35.9462 52.2012,34.8787C 50.6329,33.8113 49.4123,32.325 48.5393,30.42C 47.6663,28.515 47.2298,26.3775 47.2298,24.0075L 47.2298,22.995C 47.2298,20.55 47.6551,18.3475 48.5056,16.3875C 49.356,14.4275 50.5407,12.8862 52.0594,11.7637C 53.5782,10.6413 55.2241,10.08 56.9971,10.08C 59.7691,10.08 61.9673,11.1387 63.5918,13.2562C 65.2163,15.3738 66.0286,18.2675 66.0286,21.9375L 66.0286,23.52L 49.7408,23.52L 49.7408,24.06C 49.7408,26.925 50.4833,29.3113 51.9683,31.2187C 53.4533,33.1262 55.3208,34.08 57.5708,34.08C 58.9208,34.08 60.1122,33.8075 61.145,33.2625C 62.1777,32.7175 63.1148,31.845 63.9563,30.645L 65.5426,31.9875C 63.6841,34.9825 60.9908,36.48 57.4628,36.48 Z M 56.9971,12.48C 55.0981,12.48 53.4983,13.2612 52.1978,14.8237C 50.8973,16.3862 50.1076,18.485 49.8286,21.12L 63.5176,21.12L 63.5176,20.8125C 63.4456,18.3525 62.819,16.3487 61.6377,14.8013C 60.4565,13.2537 58.9096,12.48 56.9971,12.48 Z "/>
		<path fill="#658CB3" fill-opacity="1" stroke-width="0.2" stroke-linejoin="round" d="M 69.9099,23.0475C 69.9099,19.0625 70.7007,15.905 72.2825,13.575C 73.8642,11.245 76.0119,10.08 78.7254,10.08C 81.8304,10.08 84.1929,11.46 85.8129,14.22L 85.9411,10.56L 88.3036,10.56L 88.3036,35.445C 88.3036,38.715 87.4801,41.305 85.8332,43.215C 84.1861,45.125 81.9564,46.08 79.1439,46.08C 77.5554,46.08 76.0411,45.6875 74.6011,44.9025C 73.1611,44.1175 72.0249,43.07 71.1924,41.76L 72.6099,40.08C 74.3919,42.48 76.5136,43.68 78.9751,43.68C 81.0856,43.68 82.7315,42.9913 83.9128,41.6138C 85.094,40.2363 85.7049,38.3275 85.7454,35.8875L 85.7454,32.715C 84.1299,35.225 81.7764,36.48 78.6849,36.48C 76.0389,36.48 73.9149,35.3038 72.3129,32.9512C 70.7108,30.5987 69.9099,27.4225 69.9099,23.4225L 69.9099,23.0475 Z M 72.4546,23.5425C 72.4546,26.8025 73.0374,29.3738 74.2029,31.2562C 75.3684,33.1387 77.0131,34.08 79.1371,34.08C 82.2466,34.08 84.4471,32.52 85.7386,29.4L 85.7386,17.5125C 85.1491,15.8725 84.2986,14.6238 83.1872,13.7663C 82.0756,12.9087 80.7414,12.48 79.1844,12.48C 77.0604,12.48 75.4077,13.4137 74.2265,15.2812C 73.0453,17.1487 72.4546,19.9025 72.4546,23.5425 Z "/>
		<path fill="#658CB3" fill-opacity="1" stroke-width="0.2" stroke-linejoin="round" d="M 97.5241,36L 94.9929,36L 94.9929,10.56L 97.5241,10.56L 97.5241,36 Z M 94.5541,3.37498C 94.5541,2.83 94.7083,2.37126 95.0165,1.99876C 95.3248,1.62624 95.7466,1.43999 96.2821,1.43999C 96.8177,1.43999 97.2429,1.62624 97.5579,1.99876C 97.8729,2.37126 98.0304,2.82875 98.0304,3.37123C 98.0304,3.91374 97.8729,4.36748 97.5579,4.7325C 97.2429,5.09749 96.8177,5.28001 96.2821,5.28001C 95.7466,5.28001 95.3248,5.09749 95.0165,4.7325C 94.7083,4.36748 94.5541,3.91499 94.5541,3.37498 Z "/>
		<path fill="#658CB3" fill-opacity="1" stroke-width="0.2" stroke-linejoin="round" d="M 118.773,36C 118.521,35.2 118.359,34.015 118.287,32.445C 117.401,33.735 116.272,34.73 114.902,35.43C 113.532,36.13 112.079,36.48 110.545,36.48C 108.353,36.48 106.579,35.7937 105.223,34.4212C 103.866,33.0488 103.187,31.3125 103.187,29.2125C 103.187,26.7225 104.111,24.7512 105.958,23.2988C 107.806,21.8462 110.383,21.12 113.69,21.12L 118.267,21.12L 118.267,18.2625C 118.267,16.4675 117.764,15.055 116.758,14.025C 115.753,12.995 114.287,12.48 112.361,12.48C 110.601,12.48 109.145,12.95 107.993,13.89C 106.841,14.83 106.265,15.96 106.265,17.28L 103.734,17.2575C 103.734,15.3175 104.578,13.6362 106.265,12.2137C 107.953,10.7912 110.027,10.08 112.489,10.08C 115.031,10.08 117.037,10.79 118.507,12.21C 119.976,13.63 120.733,15.61 120.778,18.15L 120.778,30.1875C 120.778,32.6525 121.01,34.495 121.473,35.715L 121.473,36L 118.773,36 Z M 110.842,34.08C 112.529,34.08 114.038,33.6275 115.368,32.7225C 116.698,31.8175 117.664,30.6075 118.267,29.0925L 118.267,23.52L 113.751,23.52C 111.236,23.55 109.268,24.0613 107.848,25.0538C 106.429,26.0462 105.719,27.4075 105.719,29.1375C 105.719,30.5575 106.192,31.7363 107.14,32.6738C 108.087,33.6113 109.321,34.08 110.842,34.08 Z "/>
		<path fill="#658CB3" fill-opacity="1" stroke-width="0.2" stroke-linejoin="round" d="M 130.025,10.56L 130.106,14.9025C 130.966,13.3325 132.036,12.1362 133.316,11.3137C 134.596,10.4913 136.008,10.08 137.552,10.08C 140,10.08 141.821,10.8487 143.016,12.3862C 144.211,13.9238 144.817,16.2275 144.835,19.2975L 144.835,36L 142.324,36L 142.324,19.245C 142.31,16.965 141.877,15.2675 141.025,14.1525C 140.172,13.0375 138.812,12.48 136.944,12.48C 135.383,12.48 134.001,13.0262 132.8,14.1188C 131.598,15.2112 130.707,16.685 130.127,18.54L 130.127,36L 127.622,36L 127.622,10.56L 130.025,10.56 Z "/>
		<path fill="#658CB3" fill-opacity="1" stroke-width="0.2" stroke-linejoin="round" d="M 159.921,34.08C 161.676,34.08 163.148,33.5287 164.336,32.4263C 165.524,31.3237 166.167,29.8975 166.266,28.1475L 168.696,28.1475C 168.624,29.7025 168.188,31.1188 167.387,32.3962C 166.586,33.6738 165.52,34.6738 164.191,35.3962C 162.861,36.1188 161.438,36.48 159.921,36.48C 156.924,36.48 154.551,35.3187 152.8,32.9963C 151.049,30.6738 150.174,27.5525 150.174,23.6325L 150.174,22.785C 150.174,20.275 150.568,18.055 151.355,16.125C 152.143,14.195 153.271,12.705 154.741,11.655C 156.21,10.605 157.928,10.08 159.894,10.08C 162.401,10.08 164.466,10.9112 166.091,12.5737C 167.715,14.2363 168.584,16.425 168.696,19.14L 166.266,19.14C 166.154,17.145 165.51,15.5362 164.336,14.3137C 163.161,13.0912 161.681,12.48 159.894,12.48C 157.617,12.48 155.85,13.3962 154.592,15.2287C 153.334,17.0613 152.706,19.6325 152.706,22.9425L 152.706,23.76C 152.706,27.005 153.334,29.5362 154.592,31.3537C 155.85,33.1712 157.626,34.08 159.921,34.08 Z "/>
		<path fill="#658CB3" fill-opacity="1" stroke-width="0.2" stroke-linejoin="round" d="M 182.743,36.48C 180.804,36.48 179.05,35.9462 177.481,34.8787C 175.913,33.8113 174.693,32.325 173.82,30.42C 172.947,28.515 172.51,26.3775 172.51,24.0075L 172.51,22.995C 172.51,20.55 172.935,18.3475 173.786,16.3875C 174.636,14.4275 175.821,12.8862 177.34,11.7637C 178.858,10.6413 180.504,10.08 182.277,10.08C 185.049,10.08 187.248,11.1387 188.872,13.2562C 190.497,15.3738 191.309,18.2675 191.309,21.9375L 191.309,23.52L 175.021,23.52L 175.021,24.06C 175.021,26.925 175.764,29.3113 177.249,31.2187C 178.734,33.1262 180.601,34.08 182.851,34.08C 184.201,34.08 185.392,33.8075 186.425,33.2625C 187.458,32.7175 188.395,31.845 189.237,30.645L 190.823,31.9875C 188.964,34.9825 186.271,36.48 182.743,36.48 Z M 182.277,12.48C 180.378,12.48 178.779,13.2612 177.478,14.8237C 176.178,16.3862 175.388,18.485 175.109,21.12L 188.798,21.12L 188.798,20.8125C 188.726,18.3525 188.099,16.3487 186.918,14.8013C 185.737,13.2537 184.19,12.48 182.277,12.48 Z "/>
		<path fill="#455056" fill-opacity="1" stroke-width="0.2" stroke-linejoin="round" d="M 204.012,1.92L 211.903,26.64L 219.753,1.92L 228.063,1.92L 228.063,36L 221.711,36L 221.711,26.685L 222.345,10.605L 214.056,36L 209.709,36L 201.441,10.6275L 202.075,26.685L 202.075,36L 195.744,36L 195.744,1.92L 204.012,1.92 Z "/>
		<path fill="#455056" fill-opacity="1" stroke-width="0.2" stroke-linejoin="round" d="M 233.76,36L 233.76,1.92L 243.21,1.92C 245.91,1.92 248.325,2.59499 250.456,3.94499C 252.587,5.295 254.249,7.21373 255.444,9.70125C 256.639,12.1887 257.236,15.0175 257.236,18.1875L 257.236,19.755C 257.236,22.925 256.65,25.7425 255.478,28.2075C 254.306,30.6725 252.651,32.5837 250.513,33.9412C 248.376,35.2988 245.964,35.985 243.277,36L 233.76,36 Z M 240.091,7.2L 240.091,30.72L 243.149,30.72C 245.624,30.72 247.515,29.7925 248.822,27.9375C 250.13,26.0825 250.797,23.43 250.824,19.98L 250.824,18.1125C 250.824,14.5325 250.177,11.8187 248.883,9.97124C 247.589,8.12376 245.698,7.2 243.21,7.2L 240.091,7.2 Z "/>
	</g>
	<path fill="#5AAC6B" fill-opacity="1" fill-rule="evenodd" stroke-width="0.2" stroke-linejoin="round" d="M 244.927,42.6304C 240.582,43.3516 235.475,43.9733 230.12,44.3342C 222.227,44.8661 214.575,44.7945 207.294,44.7126L 191.159,44.5311C 198.353,43.3866 207.455,42.579 216.059,42.3221C 220.67,42.1843 225.073,42.1996 229.514,42.1796C 233.954,42.1595 238.549,42.1007 243.217,41.8252C 245.498,41.6906 247.786,41.5 249.907,41.2542C 251.75,41.0406 253.981,40.6329 255.264,40.4553C 252.539,41.2139 248.821,41.9839 244.927,42.6304 Z "/>
</svg>