<?xml version="1.0" encoding="UTF-8"?><svg id="Layer_2" xmlns="http://www.w3.org/2000/svg" width="447" height="117.93" viewBox="0 0 447 117.93"><g id="Layer_1-2"><path d="m303.66,72.42c2.11,0,3.79,1.68,3.79,3.79s-1.68,3.79-3.79,3.79-3.79-1.68-3.79-3.79,1.68-3.79,3.79-3.79Zm-2.88,11.14h5.76v22.75h-5.76v-22.75Z" fill="#3d276a"/><path d="m332.89,91.57v14.74h-5.76v-13.3c0-3.26-2.02-4.66-4.51-4.66-2.98,0-4.51,2.93-4.51,2.93v15.03h-5.76v-22.75h5.38v3.31s2.02-3.89,6.82-3.89c4.42,0,8.35,3.12,8.35,8.59Z" fill="#3d276a"/><path d="m339.56,98.58s3.02,3.26,6.87,3.26c2.35,0,4.32-.67,4.32-2.06,0-1.49-1.06-1.78-4.51-2.5-4.51-.96-8.45-2.88-8.45-7.2,0-3.55,3.55-7.1,9.79-7.1,5.14,0,8.54,2.78,8.54,2.78l-2.88,4.22s-2.59-1.97-5.67-1.97c-2.16,0-4.13.77-4.13,2.16s1.54,1.73,5.38,2.54c4.51.96,7.73,2.45,7.73,7.15,0,3.89-4.13,7.01-9.94,7.01-6.67,0-10.27-4.13-10.27-4.13l3.22-4.18Z" fill="#3d276a"/><path d="m360.88,111.06s1.54,1.49,3.02,1.49c1.97,0,2.78-.58,3.89-3.36l.91-2.35-11.09-23.28h6.38l7.68,16.66,6-16.66h6.19l-11.04,27.84c-1.97,4.99-5.18,6.53-8.54,6.53s-6.1-2.4-6.1-2.4l2.69-4.46Z" fill="#3d276a"/><path d="m406.52,91.57v14.74h-5.76v-13.3c0-3.26-2.02-4.66-4.51-4.66-2.98,0-4.51,2.93-4.51,2.93v15.03h-5.76v-22.75h5.38v3.31s2.02-3.89,6.82-3.89c4.42,0,8.35,3.12,8.35,8.59Z" fill="#3d276a"/><path d="m427.74,98.73l3.79,3.84s-3.26,4.32-9.41,4.32c-6.82,0-12.24-5.28-12.24-11.95s5.42-11.95,12.24-11.95c6.1,0,9.31,4.22,9.31,4.22l-3.98,3.55s-1.87-2.4-5.33-2.4c-3.89,0-6.38,3.02-6.38,6.58s2.5,6.58,6.38,6.58,5.62-2.78,5.62-2.78Z" fill="#3d276a"/><g id="Symbols"><g id="HD-Desktop-_-Navigation"><g id="Qualifacts_Logo_Trademark_RGB_PrimaryColor"><g id="Group"><path id="Shape" d="m132.04,33.04c0-11.2-7.87-20.08-18.92-20.08s-18.92,8.88-18.92,20.08,7.87,20.08,18.92,20.08c4.87,0,9.13-1.72,12.37-4.61l5.64,5.06,1.75-2.1-5.47-4.94c2.89-3.57,4.64-8.27,4.64-13.49Zm-6.78,11.53l-7.5-6.88-1.79,2.17,7.39,6.71c-2.68,2.34-6.17,3.71-10.23,3.71-9.53,0-15.98-7.7-15.98-17.25s6.45-17.25,15.98-17.25,15.98,7.7,15.98,17.25c0,4.44-1.42,8.48-3.84,11.53Z" fill="#3d276a"/><path id="Path" d="m166.89,37.57c0,7.54-3.17,12.71-10.79,12.71s-10.79-5.15-10.79-12.71V13.61h-2.84v24.24c0,9.05,4.87,15.26,13.63,15.26s13.63-6.21,13.63-15.26V13.61h-2.84v23.96Z" fill="#3d276a"/><path id="Shape-2" d="m193.19,13.61l-15.26,38.84h3.08l4.38-11.32h18.82l4.38,11.32h3.08l-15.31-38.84h-3.17Zm-6.73,24.85l8.32-21.64,8.32,21.64h-16.63Z" fill="#3d276a"/><polygon id="Path-2" points="222.69 13.61 219.82 13.61 219.82 52.46 240.95 52.46 240.95 49.79 222.69 49.79 222.69 13.61" fill="#3d276a"/><rect id="Rectangle" x="250.02" y="13.61" width="2.84" height="38.84" fill="#3d276a"/><polygon id="Path-3" points="265.23 52.46 271.8 52.46 271.8 35.75 286.85 35.75 286.85 29.42 271.8 29.42 271.8 19.95 287.95 19.95 287.95 13.61 265.23 13.61 265.23 52.46" fill="#3d276a"/><path id="Shape-3" d="m305.33,13.61l-14.89,38.84h6.62l3.49-9.21h16.19l3.49,9.21h6.62l-14.89-38.84h-6.64Zm-2.4,23.53l5.75-15.14,5.75,15.14h-11.51Z" fill="#3d276a"/><path id="Path-4" d="m350.78,46.9c-7.55,0-12.74-6.38-12.74-13.87s5.2-13.87,12.74-13.87c6.29,0,9.74,4.28,9.74,4.28l4.43-4.37s-4.99-6.1-14.17-6.1c-11.04,0-19.43,8.6-19.43,20.08s8.36,20.08,19.43,20.08c9.69,0,14.72-6.59,14.72-6.59l-4.38-4.42s-3.61,4.77-10.34,4.77Z" fill="#3d276a"/><polygon id="Path-5" points="369.98 19.95 380.53 19.95 380.53 52.46 387.1 52.46 387.1 19.95 397.66 19.95 397.66 13.61 369.98 13.61 369.98 19.95" fill="#3d276a"/><path id="Path-6" d="m420.3,30.37c-5.24-1.98-8.27-3.05-8.27-6.43,0-2.6,2.56-4.65,5.85-4.65,4.75,0,7.92,4.37,7.92,4.37l4.54-4.56s-4.5-6.17-12.46-6.17-12.53,5.48-12.53,10.99c0,7.21,6.34,10.32,11.98,12.31,4.54,1.61,7.01,2.76,7.01,6.05s-3.4,4.49-6.66,4.49c-5.8,0-9.09-5.84-9.09-5.84l-4.92,4.21s4.43,7.94,14,7.94c7.22,0,13.35-3.78,13.35-10.82s-4.87-9.66-10.72-11.88Z" fill="#3d276a"/><polygon id="Path-7" points="446.09 14.63 443.99 18.1 441.92 14.63 441.01 14.63 441.01 20.82 441.92 20.82 441.92 16.36 443.99 19.85 446.09 16.36 446.09 20.82 447 20.82 447 14.63 446.09 14.63" fill="#3d276a"/><polygon id="Path-8" points="435.63 15.5 437.28 15.5 437.28 20.82 438.19 20.82 438.19 15.5 439.87 15.5 439.87 14.63 435.63 14.63 435.63 15.5" fill="#3d276a"/></g><g id="Group-2"><path id="Shape-4" d="m72.33,26.49C72.33,11.92,60.56,0,46.15,0h-19.95C11.8-.02,0,11.92,0,26.49v20.19c0,14.57,11.78,26.49,26.18,26.49h19.95c14.4,0,26.18-11.92,26.18-26.49v-20.19h.02Zm-36.17,24.37c-7.8,0-14.12-6.39-14.12-14.29s6.32-14.29,14.12-14.29,14.12,6.39,14.12,14.29-6.32,14.29-14.12,14.29Z" fill="#06aa98"/><ellipse id="Oval" cx="81.93" cy="79.91" rx="14.12" ry="14.29" fill="#06aa98"/></g></g></g></g></g></svg>