<svg width="276" height="37" viewBox="0 0 276 37" xmlns="http://www.w3.org/2000/svg" xmlns:xlink="http://www.w3.org/1999/xlink"><title>ChartLogic</title><defs><path d="M27.666.322a1.59 1.59 0 0 0-1.073.465L6.973 20.408a1.592 1.592 0 0 0 2.251 2.25l19.62-19.62A1.594 1.594 0 0 0 27.771.323h-.105zM53.483 4.11l-8.07 8.07a1.592 1.592 0 0 0 2.25 2.25l8.07-8.07a1.59 1.59 0 0 0-1.125-2.715c-.407 0-.814.155-1.125.465zM31.63 5.825l-21.079 21.08a1.591 1.591 0 1 0 2.25 2.25l21.08-21.08a1.591 1.591 0 1 0-2.25-2.25zm26.887 3.319l-1.296 1.295a1.591 1.591 0 1 0 2.251 2.25l1.295-1.296a1.591 1.591 0 1 0-2.25-2.25zm-21.852 1.714l-4.553 4.554a1.59 1.59 0 1 0 2.25 2.25l4.552-4.553a1.59 1.59 0 1 0-2.25-2.25zm16.842 3.295l-3.06 3.06a1.592 1.592 0 0 0 2.25 2.25l3.06-3.06a1.593 1.593 0 0 0-1.125-2.715c-.407 0-.814.155-1.125.465zm10.044.025l-8.07 8.07a1.592 1.592 0 0 0 2.25 2.25l8.07-8.07a1.591 1.591 0 1 0-2.25-2.25zM41.7 15.893l-11.03 11.03a1.59 1.59 0 1 0 2.249 2.251l11.03-11.03a1.59 1.59 0 1 0-2.249-2.251zm-13.301 3.233l-7.678 7.68a1.59 1.59 0 1 0 2.25 2.248l7.679-7.677a1.592 1.592 0 0 0 0-2.251h-.001a1.586 1.586 0 0 0-1.125-.466c-.407 0-.815.155-1.125.466zm40.188.087l-7.411 7.408a1.592 1.592 0 0 0 2.25 2.252l7.411-7.412a1.59 1.59 0 1 0-2.25-2.248zm-21.854 1.714l-6.011 6.014a1.588 1.588 0 0 0 0 2.248 1.59 1.59 0 0 0 2.25 0l6.012-6.011a1.59 1.59 0 1 0-2.25-2.25zM3.26 24.122L.466 26.916a1.591 1.591 0 1 0 2.25 2.25l2.794-2.793a1.592 1.592 0 0 0-2.25-2.25zm70.384.146L70.86 27.05a1.591 1.591 0 1 0 2.25 2.25l2.783-2.781a1.592 1.592 0 0 0-2.25-2.252zm-21.876 1.694l-1.042 1.042a1.592 1.592 0 0 0 2.25 2.25l1.043-1.042a1.592 1.592 0 0 0-2.251-2.25z" id="a"/><linearGradient x1="0%" y1="49.998%" x2="100%" y2="49.998%" id="b"><stop stop-color="#5B2F91" offset="0%"/><stop stop-color="#00B5EF" offset="100%"/></linearGradient><path id="d" d="M0 36.914h275.771V.322H0z"/></defs><g fill="none" fill-rule="evenodd"><g transform="translate(0 -.236)"><mask id="c" fill="#fff"><use xlink:href="#a"/></mask><path d="M27.666.322a1.59 1.59 0 0 0-1.073.465L6.973 20.408a1.592 1.592 0 0 0 2.251 2.25l19.62-19.62A1.594 1.594 0 0 0 27.771.323h-.105zM53.483 4.11l-8.07 8.07a1.592 1.592 0 0 0 2.25 2.25l8.07-8.07a1.59 1.59 0 0 0-1.125-2.715c-.407 0-.814.155-1.125.465zM31.63 5.825l-21.079 21.08a1.591 1.591 0 1 0 2.25 2.25l21.08-21.08a1.591 1.591 0 1 0-2.25-2.25zm26.887 3.319l-1.296 1.295a1.591 1.591 0 1 0 2.251 2.25l1.295-1.296a1.591 1.591 0 1 0-2.25-2.25zm-21.852 1.714l-4.553 4.554a1.59 1.59 0 1 0 2.25 2.25l4.552-4.553a1.59 1.59 0 1 0-2.25-2.25zm16.842 3.295l-3.06 3.06a1.592 1.592 0 0 0 2.25 2.25l3.06-3.06a1.593 1.593 0 0 0-1.125-2.715c-.407 0-.814.155-1.125.465zm10.044.025l-8.07 8.07a1.592 1.592 0 0 0 2.25 2.25l8.07-8.07a1.591 1.591 0 1 0-2.25-2.25zM41.7 15.893l-11.03 11.03a1.59 1.59 0 1 0 2.249 2.251l11.03-11.03a1.59 1.59 0 1 0-2.249-2.251zm-13.301 3.233l-7.678 7.68a1.59 1.59 0 1 0 2.25 2.248l7.679-7.677a1.592 1.592 0 0 0 0-2.251h-.001a1.586 1.586 0 0 0-1.125-.466c-.407 0-.815.155-1.125.466zm40.188.087l-7.411 7.408a1.592 1.592 0 0 0 2.25 2.252l7.411-7.412a1.59 1.59 0 1 0-2.25-2.248zm-21.854 1.714l-6.011 6.014a1.588 1.588 0 0 0 0 2.248 1.59 1.59 0 0 0 2.25 0l6.012-6.011a1.59 1.59 0 1 0-2.25-2.25zM3.26 24.122L.466 26.916a1.591 1.591 0 1 0 2.25 2.25l2.794-2.793a1.592 1.592 0 0 0-2.25-2.25zm70.384.146L70.86 27.05a1.591 1.591 0 1 0 2.25 2.25l2.783-2.781a1.592 1.592 0 0 0-2.25-2.252zm-21.876 1.694l-1.042 1.042a1.592 1.592 0 0 0 2.25 2.25l1.043-1.042a1.592 1.592 0 0 0-2.251-2.25z" fill="url(#b)" mask="url(#c)"/></g><g transform="translate(0 -.236)"><path d="M94.635 3.768c2.384 0 4.519.533 6.402 1.597 1.884 1.063 3.377 2.48 4.48 4.249l-3.077 2.269c-.897-1.386-1.999-2.462-3.306-3.231-1.308-.77-2.808-1.153-4.5-1.153-1.306 0-2.518.236-3.633.71a8.937 8.937 0 0 0-2.903 1.962 8.96 8.96 0 0 0-1.923 2.96c-.462 1.141-.692 2.391-.692 3.75s.23 2.608.692 3.748a8.954 8.954 0 0 0 1.923 2.962A8.917 8.917 0 0 0 91 25.551c1.115.475 2.327.712 3.634.712 1.691 0 3.19-.384 4.499-1.154 1.307-.769 2.41-1.845 3.306-3.229l3.077 2.268c-1.077 1.769-2.563 3.186-4.46 4.25-1.898 1.064-4.038 1.594-6.422 1.594-1.872 0-3.615-.332-5.229-1a13.275 13.275 0 0 1-4.23-2.749 12.699 12.699 0 0 1-2.846-4.152c-.692-1.602-1.039-3.339-1.039-5.21 0-1.846.347-3.57 1.04-5.173a12.956 12.956 0 0 1 2.845-4.171 13.163 13.163 0 0 1 4.23-2.769c1.614-.666 3.357-1 5.229-1m19.535 8.845a6.613 6.613 0 0 1 2.325-1.73c.91-.411 1.954-.615 3.135-.615 1.077 0 2.05.185 2.922.557a6.319 6.319 0 0 1 2.21 1.538c.603.654 1.064 1.442 1.385 2.364.32.924.481 1.936.481 3.038V29.57h-4.076V18.34c0-1.307-.365-2.364-1.096-3.172-.73-.807-1.724-1.21-2.98-1.21-1.257 0-2.288.403-3.096 1.21-.807.808-1.21 1.865-1.21 3.172v11.23h-4.038V.732h4.038v11.88zm24.108 14.265c.667 0 1.295-.109 1.885-.327a4.856 4.856 0 0 0 1.556-.922c.45-.398.802-.872 1.059-1.423a4.207 4.207 0 0 0 .384-1.787v-.348h-4.844c-1.078 0-1.905.193-2.481.577-.577.385-.866.962-.866 1.73 0 .821.32 1.442.962 1.866.64.423 1.423.634 2.345.634m1.193-16.61c1.154 0 2.204.165 3.152.499a6.671 6.671 0 0 1 2.442 1.48c.679.654 1.212 1.475 1.596 2.46.385.988.577 2.135.577 3.443v11.42h-3.768v-2.115c-.667.795-1.513 1.417-2.538 1.864-1.025.449-2.192.674-3.5.674-1 0-1.903-.129-2.71-.385-.808-.256-1.5-.627-2.076-1.115a4.946 4.946 0 0 1-1.327-1.73c-.307-.667-.461-1.41-.461-2.23 0-1.666.627-2.98 1.883-3.942 1.256-.962 2.948-1.441 5.076-1.441h5.345v-1.23c0-1.309-.346-2.309-1.038-3-.693-.692-1.693-1.04-3-1.04-1.102 0-2.064.246-2.883.731-.821.488-1.616 1.18-2.385 2.077l-2.307-2.384c.974-1.383 2.14-2.403 3.5-3.056 1.358-.654 2.832-.98 4.422-.98m22.647.23c.333 0 .621.02.867.058.242.038.466.083.672.134v3.576h-1.23c-.744 0-1.456.109-2.135.326a4.98 4.98 0 0 0-1.769.981c-.5.437-.898.98-1.192 1.635-.295.653-.442 1.416-.442 2.287v10.074h-4.037V10.69h3.729v2.54a6.543 6.543 0 0 1 2.442-2.039 7.064 7.064 0 0 1 3.095-.692m14.68 3.691h-5.652v8.882c0 1.256.327 2.115.98 2.576.654.461 1.583.692 2.789.692.332 0 .704-.019 1.115-.058.41-.038.858-.082 1.345-.135v3.423c-.512.128-1.033.23-1.557.307a12 12 0 0 1-1.75.116c-2.102 0-3.787-.525-5.056-1.576-1.27-1.051-1.904-2.717-1.904-5V5.73h4.038v4.96h5.652v3.5zm9.036 11.727h11.613v3.652h-15.689V4.191h4.076zm24.263-11.959c-.845 0-1.634.16-2.364.48a5.6 5.6 0 0 0-1.866 1.307 5.87 5.87 0 0 0-1.192 1.962 6.923 6.923 0 0 0-.422 2.442c0 .872.14 1.68.422 2.423a5.732 5.732 0 0 0 1.212 1.942 5.63 5.63 0 0 0 1.846 1.287 5.76 5.76 0 0 0 2.326.462c.846 0 1.628-.155 2.345-.462a5.605 5.605 0 0 0 1.866-1.287 6.016 6.016 0 0 0 1.231-1.942 6.55 6.55 0 0 0 .44-2.423c0-.872-.147-1.686-.44-2.442a5.995 5.995 0 0 0-1.231-1.962 5.89 5.89 0 0 0-1.866-1.307 5.595 5.595 0 0 0-2.307-.48m0-3.69c1.385 0 2.679.256 3.884.769a10.294 10.294 0 0 1 3.172 2.094 9.84 9.84 0 0 1 2.153 3.115c.526 1.192.789 2.48.789 3.865a9.612 9.612 0 0 1-.789 3.884 9.764 9.764 0 0 1-2.153 3.133 10.264 10.264 0 0 1-3.19 2.096 9.984 9.984 0 0 1-3.904.77 9.83 9.83 0 0 1-3.883-.77 10.293 10.293 0 0 1-3.173-2.096 9.53 9.53 0 0 1-2.134-3.133c-.514-1.206-.769-2.5-.769-3.884s.255-2.673.769-3.865a9.6 9.6 0 0 1 2.134-3.115 10.214 10.214 0 0 1 3.191-2.094 9.96 9.96 0 0 1 3.903-.77m23.457 3.613c-.822 0-1.578.143-2.27.424a5.772 5.772 0 0 0-1.826 1.174 5.139 5.139 0 0 0-1.23 1.845c-.296.73-.443 1.532-.443 2.403 0 .898.147 1.711.443 2.442a5.34 5.34 0 0 0 1.23 1.865 5.618 5.618 0 0 0 1.827 1.191 5.946 5.946 0 0 0 2.269.424c.716 0 1.415-.116 2.095-.345a5.175 5.175 0 0 0 1.826-1.079c.538-.486.968-1.107 1.289-1.864.32-.756.48-1.647.48-2.672 0-1.026-.167-1.904-.5-2.635-.333-.73-.77-1.332-1.308-1.806a5.088 5.088 0 0 0-1.825-1.038 6.729 6.729 0 0 0-2.057-.328m-.77-3.613c1.435 0 2.73.275 3.883.826 1.155.55 2.09 1.314 2.808 2.287V10.69h3.768v16.919c0 1.513-.23 2.852-.692 4.019-.463 1.165-1.109 2.139-1.942 2.922-.834.781-1.827 1.37-2.98 1.768-1.154.397-2.436.596-3.845.596-2.025 0-3.794-.36-5.307-1.076-1.513-.718-2.769-1.552-3.768-2.5l2.191-2.807a17.633 17.633 0 0 0 3 1.904c1.051.524 2.27.787 3.654.787 1.691 0 3.056-.442 4.094-1.326 1.039-.885 1.558-2.236 1.558-4.057v-1.345c-.744.871-1.673 1.538-2.788 2-1.115.46-2.327.692-3.634.692s-2.518-.231-3.634-.693a8.658 8.658 0 0 1-2.902-1.942c-.82-.833-1.461-1.833-1.924-2.999-.461-1.166-.692-2.441-.692-3.826 0-1.385.23-2.659.692-3.826.463-1.166 1.103-2.166 1.924-2.998a8.642 8.642 0 0 1 2.902-1.943c1.116-.461 2.327-.691 3.634-.691" fill="#FFF"/><path d="M251.124.962c.744 0 1.39.262 1.942.789.551.524.827 1.16.827 1.902 0 .744-.276 1.371-.827 1.885a2.758 2.758 0 0 1-1.942.768c-.77 0-1.423-.256-1.961-.768a2.502 2.502 0 0 1-.807-1.885c0-.743.268-1.378.807-1.902.538-.527 1.192-.79 1.961-.79" fill="#00B5EF"/><mask id="e" fill="#fff"><use xlink:href="#d"/></mask><path fill="#FFF" mask="url(#e)" d="M249.087 29.57h4.038V10.688h-4.038zm18.687-19.303c1.793 0 3.37.398 4.728 1.193a9.278 9.278 0 0 1 3.27 3.19l-2.846 2.23c-.641-.87-1.365-1.57-2.173-2.095-.807-.525-1.787-.788-2.941-.788a5.84 5.84 0 0 0-2.366.48 5.557 5.557 0 0 0-1.863 1.308 6.152 6.152 0 0 0-1.213 1.941 6.426 6.426 0 0 0-.442 2.385c0 .871.148 1.686.442 2.441.296.757.7 1.41 1.213 1.961.511.552 1.133.98 1.863 1.289.732.307 1.52.46 2.366.46 1.154 0 2.128-.255 2.923-.768.793-.512 1.51-1.205 2.153-2.077l2.845 2.193a9.286 9.286 0 0 1-3.269 3.19c-1.36.795-2.922 1.193-4.69 1.193a9.957 9.957 0 0 1-3.903-.769 10.225 10.225 0 0 1-3.192-2.096 9.506 9.506 0 0 1-2.134-3.133 9.816 9.816 0 0 1-.77-3.884c0-1.385.257-2.673.77-3.864a9.557 9.557 0 0 1 2.134-3.115 10.222 10.222 0 0 1 3.192-2.096 9.957 9.957 0 0 1 3.903-.769"/></g></g></svg>