<svg xmlns="http://www.w3.org/2000/svg" viewBox="0 0 176.7 31.98"><defs><style>.cls-1{fill:none;}.cls-2{fill:#9b1b3c;}.cls-3{fill:#d31e47;}</style></defs><g id="Layer_2" data-name="Layer 2"><g id="Header_footer" data-name="Header/footer"><path class="cls-1" d="M168.13,11.81a2.88,2.88,0,0,0-2.75,2.62.26.26,0,0,0,.26.3h4.75a.28.28,0,0,0,.27-.3A2.56,2.56,0,0,0,168.13,11.81Z"/><path class="cls-1" d="M135,17.64c-2.5.06-3.9.8-3.9,2.31A1.64,1.64,0,0,0,133,21.67,2.42,2.42,0,0,0,135.22,20a3.8,3.8,0,0,0,.08-.92V17.91A.28.28,0,0,0,135,17.64Z"/><path class="cls-1" d="M36.63,12.88c-3.13,0-5.13,1.71-5.7,4.36s.72,4.37,3.85,4.37,5.06-1.52,5.67-4.37S39.7,12.88,36.63,12.88Z"/><path class="cls-2" d="M115.7,7.52a6.07,6.07,0,0,0-2.71.63,6.33,6.33,0,0,0-2.11,1.66h-.07V.27a.27.27,0,0,0-.27-.27h-6a.27.27,0,0,0-.26.27V25.54a.27.27,0,0,0,.26.27h6a.27.27,0,0,0,.27-.27V15.29a3,3,0,0,1,.16-1.08,2.16,2.16,0,0,1,2.11-1.41c1.64,0,2.33,1.26,2.33,3.39v9.35a.27.27,0,0,0,.27.27h6a.27.27,0,0,0,.27-.27V15.47C122,10.41,119.73,7.52,115.7,7.52Z"/><path class="cls-2" d="M141.65,15.41c0-4.46-2.12-7.89-8.28-7.89a16.19,16.19,0,0,0-7.21,1.53.24.24,0,0,0-.13.3L127,13a.25.25,0,0,0,.37.17A11.16,11.16,0,0,1,132.16,12c2.38,0,2.93.79,2.93,1.53v.16c-6.08,0-10.38,2.14-10.38,6.94a5.61,5.61,0,0,0,5.91,5.62,6.27,6.27,0,0,0,4.95-2h.13l.3,1.36a.28.28,0,0,0,.26.21h5.36a.27.27,0,0,0,.26-.31,29,29,0,0,1-.23-4ZM135.3,19.1a3.8,3.8,0,0,1-.08.92A2.42,2.42,0,0,1,133,21.67,1.64,1.64,0,0,1,131.12,20c0-1.51,1.4-2.25,3.9-2.31a.28.28,0,0,1,.28.27Z"/><path class="cls-2" d="M151.52,11.15h-.15l-.22-3a.26.26,0,0,0-.26-.25h-5.07a.27.27,0,0,0-.26.29c.08,1.42.12,3.08.12,5.75V25.54a.27.27,0,0,0,.27.27h6a.27.27,0,0,0,.26-.27V17a5.29,5.29,0,0,1,.1-1.12c.34-1.45,1.64-2.26,3.58-2.26a7.29,7.29,0,0,1,1.36.13.27.27,0,0,0,.31-.27V7.63a5.3,5.3,0,0,0-1.31-.11A5.13,5.13,0,0,0,151.52,11.15Z"/><path class="cls-2" d="M168.45,7.52c-6.59,0-9.27,5.37-9.27,9.54,0,5.66,3.56,9.13,9.85,9.13a18.46,18.46,0,0,0,6.49-1,.29.29,0,0,0,.17-.31L175,21a.27.27,0,0,0-.34-.2,16.38,16.38,0,0,1-4.62.6c-2.1,0-4-.65-4.48-1.82a.28.28,0,0,1,.25-.38h10.48a.26.26,0,0,0,.26-.21,12.58,12.58,0,0,0,.19-2.28C176.7,11.77,174.23,7.52,168.45,7.52Zm1.94,7.21h-4.75a.26.26,0,0,1-.26-.3,2.88,2.88,0,0,1,2.75-2.62,2.56,2.56,0,0,1,2.53,2.62A.28.28,0,0,1,170.39,14.73Z"/><path class="cls-2" d="M91.23,10.59l-.22,0-.81,0,.06,1.56c0,.33-.57.52-.92.29l-4.74-3a.3.3,0,0,1,0-.53l4.52-3.35c.34-.24.93-.1.94.24l0,1.54a16.81,16.81,0,0,1,1.89,0c2.33.26,4.48.45,5.34.59a.48.48,0,0,0,.53-.32l1.43-4.25A.5.5,0,0,0,99,2.67C79-5.29,74.55,14.39,88.7,15.5l.52.06,1.63.16.05-1.49c0-.34.6-.49.93-.24l4.53,3.35a.3.3,0,0,1,0,.53l-4.73,3c-.35.22-.93,0-.92-.3l.06-1.68-2,.09s-.27,0-.57,0a20.14,20.14,0,0,1-5.92-.85.48.48,0,0,0-.57.27c-.24.54-.76,1.82-1.86,4.83a.49.49,0,0,0,.25.61c6.24,2.79,19.58,3.67,20.8-5C102.05,10.4,94.36,10.78,91.23,10.59Z"/><polygon class="cls-3" points="56.75 2.64 50.04 2.64 49.18 6.68 55.89 6.68 56.75 2.64"/><path class="cls-3" d="M66.54,12.37c2.55,0,3.75.87,3.91,2.4h7c.22-5-3.85-6.82-10-6.82-6.38,0-11.2,2.3-13.24,6.94l1.33-6.25h-6.7l-1.24,5.81c-.29-4-3.35-6.25-8.29-6.25a10.18,10.18,0,0,0-7.09,2.72h-.06l.48-2.28H26.06L23.45,20.91H8.56l.71-3.85h13.3l1-4.67H10.27L11,8.62H26.07l1-4.87H4.5L0,25.78H22.41L21.1,32h6.7l1.65-7.75h.06c.87,1.26,2.94,2.24,5.91,2.24A11.92,11.92,0,0,0,46.3,20.23l-1.17,5.55h6.7l1.31-6.17c0,4.67,3.76,6.86,10.31,6.86,7.38,0,11.28-2.68,13.37-7.41H69.73a5.34,5.34,0,0,1-5.22,3c-3.22,0-4.69-1.74-4-4.84A5.8,5.8,0,0,1,66.54,12.37ZM40.45,17.24c-.61,2.85-2.61,4.37-5.67,4.37s-4.41-1.71-3.85-4.37,2.57-4.36,5.7-4.36S41.05,14.4,40.45,17.24Z"/></g></g></svg>