<?xml version="1.0" encoding="utf-8"?>
<!-- Generator: Adobe Illustrator 24.1.0, SVG Export Plug-In . SVG Version: 6.00 Build 0)  -->
<svg version="1.1" id="Layer_1" xmlns="http://www.w3.org/2000/svg" xmlns:xlink="http://www.w3.org/1999/xlink" x="0px" y="0px"
	 viewBox="0 0 870.7 874.9" style="enable-background:new 0 0 870.7 874.9;" xml:space="preserve">
<style type="text/css">
	.st0{fill:#70D7A4;}
	.st1{fill:#0072BA;}
	.st2{fill:#0090D8;}
	.st3{fill:#F9F8F9;}
	.st4{fill:#FBFBFB;}
	.st5{fill:#FBFAFA;}
	.st6{fill:#FAFAFA;}
	.st7{fill:#F8F7F7;}
	.st8{fill:#F4F4F4;}
	.st9{fill:#F7F7F7;}
	.st10{fill:#F9F9F9;}
	.st11{fill:none;stroke:#70D7A4;stroke-width:9.4395;stroke-miterlimit:10;}
	.st12{fill:none;stroke:#0090D8;stroke-width:9.4395;stroke-miterlimit:10;}
</style>
<g>
	<path class="st0" d="M600.6,523.3c-2.1,0.2-4.2,0.5-6.2,0.5c-68,0-135.9,0.1-203.9,0c-45.7-0.1-82.6-29.6-92-73.1
		c-0.7-3.1-1.6-6.1-0.9-9.3c2-2.6,1-5.6,1-8.4c0.1-63.6,0-127.2,0.1-190.8c0-2.7-0.5-5.5-0.1-6.7c0,64.8,0,131.1,0,197.5
		c0,2.8,1,5.8-0.9,8.4c-1.8-3.7-1.1-7.7-1.1-11.6c-0.1-62.8-0.1-125.6,0-188.3c0.1-56.1,39.5-95.6,95.7-95.8
		c39.1-0.2,78.3-0.2,117.4,0c53.7,0.2,93.8,40.1,93.9,93.6c0.2,92.5,0.1,184.9,0,277.4c0,2.1,1.4,4.7-1.3,6.4
		c-1.4-2.7-0.7-5.7-0.7-8.5c0-90.9,0-181.8-0.1-272.8c0-2.5,0.3-5.1,0.2-5.8c0.1,0.3-0.2,2.5-0.2,4.6c0,92,0,183.9,0,275.9
		C601.3,518.7,602,521.1,600.6,523.3z"/>
	<path class="st1" d="M215.8,576.7c-16.3-1.8-26.7-14.3-26.7-32.3c0-57.8,0-115.7,0-173.5c0-32.1,0-64.1,0-96.2
		c0-21.8,12.3-34,34.3-34.1c18.7-0.1,37.3,0.1,56-0.1c4.4-0.1,5.7,1.1,5.8,5.7c0.4,19.4,0.5,19.4-18.8,19.4c-12.1,0-24.2-0.1-36.3,0
		c-9.7,0.1-14.1,4.3-14.1,13.9c-0.1,86.5-0.1,173,0,259.4c0,9.1,4.5,13.4,13.6,13.8c1.8,0.1,3.7,0,5.5,0c143.5,0,287,0,430.6,0
		c15.3,0,18.3-3.1,18.3-18.5c0-83.6,0-167.2,0-250.8c0-14.8-3.1-17.9-18-17.9c-15,0-30-0.2-44.9,0.1c-4.7,0.1-6.3-1-6.3-6
		c0-19-0.2-19,18.4-19c15.2,0,30.5-0.1,45.7,0c18.9,0.2,31.9,12.9,31.9,31.7c0.1,91.2,0.1,182.4,0,273.6c0,16.7-10.8,28.8-26.6,30.7
		c-2.7-1.5-5.7-0.7-8.5-0.7c-150.5,0-300.9,0-451.4,0C221.4,575.9,218.5,575.2,215.8,576.7z"/>
	<path class="st2" d="M450,675.1c-48.6,0-97.2,0.1-145.8,0c-14.5,0-23.3-10.9-19.4-23.6c2.5-7.9,8.3-11.8,16.3-12.9
		c2.3-0.3,4.7-0.1,7.1-0.1c94.9,0,189.7,0,284.6,0c2.1,0,4.2-0.1,6.3,0c9.8,0.8,17.2,8.7,17.2,18.3c0,9.5-7.3,17.5-17.2,18.1
		c-7.3,0.4-14.7,0.1-22.1,0.1C534.6,675.1,492.3,675.1,450,675.1C450,675.1,450,675.1,450,675.1z"/>
	<path class="st2" d="M449.2,627.1c-12.9,0-25.8-0.2-38.6,0.1c-5,0.1-7.1-1-6.8-6.5c0.5-8.4,0.3-16.8,0.1-25.2
		c-0.1-3.8,0.7-5.7,5.1-5.7c27.3,0.2,54.7,0.2,82,0c4.4,0,5.3,1.8,5.2,5.7c-0.2,8.7-0.3,17.4,0,26c0.2,4.7-1.6,5.8-5.9,5.7
		C476.5,626.9,462.9,627.1,449.2,627.1z"/>
	<path class="st2" d="M215.8,576.7c2.4-2.5,5.4-1.5,8.2-1.5c150.7-0.1,301.4-0.1,452,0c2.8,0,5.8-1,8.2,1.5
		c-2.9,0.2-5.7,0.6-8.6,0.6c-150.4,0-300.8,0-451.3,0C221.5,577.3,218.6,576.9,215.8,576.7z"/>
	<path class="st2" d="M600.6,523.3c0-96.6,0-193.3,0-289.9c0.5,0,1.1,0,1.6,0c0,96.5,0,193.1,0,289.6
		C601.6,523.1,601.1,523.2,600.6,523.3z"/>
	<path class="st3" d="M453.9,372.8c-32.1,0-64.1,0-96.2,0c-2.4,0-4.8,0.1-7-0.4c-2.5-0.6-4-2.5-4.2-5.1c-0.1-3,1.4-5.2,4.2-5.9
		c2.3-0.5,4.7-0.4,7-0.4c64.1,0,128.2,0,192.4,0c2.1,0,4.2-0.1,6.3,0.2c2.9,0.5,4.7,2.4,4.9,5.3c0.2,3.4-1.8,5.5-5,6.1
		c-2,0.4-4.2,0.2-6.3,0.2C518,372.8,486,372.8,453.9,372.8z"/>
	<path class="st4" d="M453.9,281.8c-32,0-64.1,0-96.1,0c-2.4,0-4.8,0.2-7.1-0.3c-2.9-0.6-4.3-2.9-4.1-5.9c0.2-2.6,1.7-4.5,4.3-4.9
		c2.3-0.4,4.7-0.3,7.1-0.3c64.1,0,128.2,0,192.2,0c2.1,0,4.2-0.1,6.3,0.2c2.9,0.4,4.8,2.2,4.9,5.3c0.1,3.4-1.7,5.5-5.1,5.9
		c-2.1,0.3-4.2,0.1-6.3,0.1C517.9,281.8,485.9,281.8,453.9,281.8z"/>
	<path class="st5" d="M453.1,327.3c-31.8,0-63.6,0-95.3,0c-2.4,0-4.8,0.2-7-0.4c-2.8-0.7-4.4-2.9-4.1-5.9c0.2-2.6,1.8-4.5,4.4-4.9
		c2.3-0.4,4.7-0.3,7.1-0.3c64.1,0,128.2,0,192.2,0c2.1,0,4.2-0.1,6.3,0.2c2.9,0.5,4.8,2.2,4.8,5.3c0,3.4-1.8,5.4-5.1,5.9
		c-2.1,0.3-4.2,0.1-6.3,0.1C517.7,327.3,485.4,327.3,453.1,327.3z"/>
	<path class="st6" d="M456.4,406.5c31.2,0,62.5,0,93.7,0c2.1,0,4.2-0.2,6.3,0.2c3.2,0.6,5.2,2.6,5,6c-0.2,3.1-2,4.8-5,5.1
		c-1.8,0.2-3.7,0.2-5.5,0.2c-63,0-126,0-189,0c-1.8,0-3.7,0-5.5-0.1c-3.4-0.3-5.4-2.2-5.4-5.6c0-3.4,2.1-5.3,5.4-5.6
		c2.1-0.2,4.2-0.1,6.3-0.1C393.9,406.5,425.1,406.5,456.4,406.5z"/>
	<path class="st6" d="M454,463.4c-11,0-22-0.1-33.1,0c-4.2,0-8.5-0.3-8.6-5.6c-0.1-5.3,3.8-6,8.2-5.9c22.3,0.1,44.6,0.1,66.9,0
		c4.4,0,8.4,0.9,8.3,6c-0.2,5.1-4.4,5.6-8.7,5.6C476,463.3,465,463.4,454,463.4z"/>
	<path class="st7" d="M528,210.5c-4.1,0.6-6.9,0.4-10.1-2c-5.2-4-10.5-1.3-11.2,5.2c-0.4,4.4-0.2,8.9,0,13.4
		c0.1,2.9,2.1,4.8,4.8,5.6c2.7,0.8,5.4,0.5,7.2-1.9c1.5-2.1,4.4-5.3-1.4-5.7c-3.1-0.2-3-2.3-3-4.5c0-3,2.1-3.6,4.3-3.1
		c3.4,0.8,8.3-2.7,10.3,2.5c2.1,5.5-1.3,15.2-6,18.5c-9.7,6.9-23.3,1-24.5-10.8c-0.5-4.9-0.4-10,0-15c0.7-8.1,5.9-13.4,13.3-14.2
		C519.7,197.6,525.2,201.6,528,210.5z"/>
	<path class="st8" d="M429,216.1c0.1,5.2-1.6,11.7,0.8,15.3c2.8,4.1,9.7,1.1,14.8,1.5c3.1,0.2,4.8,0.6,4.7,4.4
		c-0.1,3.6-2.2,3.4-4.7,3.5c-23.5,1.5-23.5,1.5-23.5-21.6c0-5.2,0.1-10.5-0.1-15.7c-0.1-3.3,1-4.7,4.5-4.6c3.7,0,3.4,2.4,3.4,4.8
		C429,207.7,429,211.9,429,216.1z"/>
	<path class="st2" d="M297.5,441.3c0.1-16.3,0.3-32.6,0.3-48.8c0-50.7,0-101.4,0-152.1c0-2.9,0-5.7,0-9c2.3,1.9,1.4,3.9,1.4,5.6
		c0.1,65.4,0.1,130.8,0,196.3C299.3,436,300.2,439.1,297.5,441.3C297.5,441.3,297.5,441.3,297.5,441.3z"/>
	<ellipse class="st2" cx="254.2" cy="263.5" rx="38.7" ry="0.4"/>
	<path class="st2" d="M618.4,263.2c18.2,0,36.5,0,54.7,0c0,0.2,0,0.5,0,0.7c-18.3,0-36.6,0-54.8,0
		C618.3,263.7,618.3,263.5,618.4,263.2z"/>
	<path class="st9" d="M402.4,219.1c6.2-3,7.2-7.7,5.6-13c-1.7-5.7-6.6-7-11.9-7.3c-3.4-0.1-6.9,0.2-10.2-0.1c-5.3-0.6-7.6,1-7.2,6.8
		c0.5,6,0.1,12.1,0.1,18.1c0,18,0,18,18,17c5.3-0.3,9.9-1.8,11.7-7.4C410.4,227.5,408.7,222.9,402.4,219.1z M392.6,206.3
		c3.4,0.2,7.6-0.5,7.8,4.3c0.2,5.5-4.3,4.9-8.7,5c-2.8,0.3-5.3,0.1-5.3-4.7C386.5,205.9,389.3,206.2,392.6,206.3z M392.5,233
		c-3.8,0.7-5.9-0.1-6-5.1c0-5.6,3.3-4.8,6.7-4.8c3.8,0,8.1,0,7.8,5.2C400.8,233.4,396.5,233.1,392.5,233z"/>
	<path class="st10" d="M487.6,214.1c-0.4-9.8-5.9-15.5-14.9-15.6c-9.5-0.1-15.2,5.8-15.4,16c-0.1,4.2-0.3,8.4,0,12.6
		c0.6,8.7,6.3,13.8,15,13.9c8.7,0.1,14.4-4.8,15.2-13.5c0.3-2.6,0-5.2,0-7.9c0,0,0.1,0,0.1,0C487.6,217.7,487.7,215.9,487.6,214.1z
		 M472.6,232.9c-8.8,0.1-7.2-7.3-7.2-12.8c0.1-5.7-1.9-13.6,7.3-13.5c8.7,0.1,6.4,7.8,6.8,13.4C479,225.2,481.5,232.8,472.6,232.9z"
		/>
</g>
<g>
	<path class="st11" d="M26.2,344.8C68.1,156.9,235.8,16.4,436.3,16.4C634,16.4,799.8,153,844.5,337"/>
	<path class="st12" d="M95.8,657.5c-99.9-157.2-81.2-368.1,56-505.3C287.1,16.8,494-3.2,650.5,92.1"/>
	<path class="st11" d="M774.7,212.1c99.9,157.2,81.2,368.1-56,505.3c-135.3,135.3-342.3,155.3-498.8,60"/>
	<path class="st12" d="M844.5,524.4c-41.9,187.9-209.6,328.3-410.1,328.3c-197.7,0-363.6-136.6-408.3-320.6"/>
	<circle class="st1" cx="728.3" cy="134.6" r="46.2"/>
	<circle class="st0" cx="136" cy="726.8" r="46.2"/>
</g>
</svg>
