<?xml version="1.0" encoding="utf-8"?>
<!-- Generator: Adobe Illustrator 24.1.0, SVG Export Plug-In . SVG Version: 6.00 Build 0)  -->
<svg version="1.1" id="Layer_1" xmlns="http://www.w3.org/2000/svg" xmlns:xlink="http://www.w3.org/1999/xlink" x="0px" y="0px"
	 viewBox="0 0 858.5 800.4" style="enable-background:new 0 0 858.5 800.4;" xml:space="preserve">
<style type="text/css">
	.st0{fill:#0072BA;}
	.st1{fill:#4FC3A0;}
	.st2{fill:none;stroke:#70D7A4;stroke-width:8.6611;stroke-miterlimit:10;}
	.st3{fill:none;stroke:#0090D8;stroke-width:8.6611;stroke-miterlimit:10;}
	.st4{fill:#70D7A4;}
</style>
<g>
	<path class="st0" d="M468,559.4c-29,0-58,0.2-87-0.1c-17.3-0.2-33.1,3.3-44.9,16.8c-4.6,5.2-7.6,4.8-12.3,0.1
		c-36-36.5-72.2-72.8-108.5-109c-4.8-4.8-4.8-7.7,0.1-12.4c19.8-18.9,39-38.7,59.1-57.3c16.2-15,36.1-21.9,58.2-21.9
		c17.1,0,34.2,0,51.3,0c14.2,0,28.4,2.3,40.1,10.3c14.6,10.1,30.2,11.4,47.1,11.1c30.5-0.6,61.1-0.3,91.7-0.1c24,0.1,40,14.7,40,36
		s-16,35.8-40,35.9c-31.1,0.2-62.1,0.1-93.2,0c-6.2,0-14.4-0.9-14.6,7.4c-0.3,8.5,7.8,7.8,14.1,7.7c32.1,0,64.2,0.2,96.3-0.1
		c27.4-0.3,47.2-17.2,51.8-44.1c1.1-6.4,2.7-11.5,7.2-16.4c20.2-21.5,40-43.4,60.1-65c12.7-13.7,26-15.5,38-5.7
		c13.1,10.6,14.1,23.6,2.6,39.6c-30.2,42-60.5,83.9-90.9,125.8c-20.2,28-47.2,42.3-82.2,41.5C524,558.9,496,559.4,468,559.4z"/>
	<path class="st1" d="M700.2,237.3c-1.5,41.2-20.5,73.2-59.7,90.7c-39.8,17.8-76.8,10.1-109.8-17.9c-2.4-2-4.5-4.3-6.7-6.5
		c-26.8-26.7-26.6-27.9,3.6-52.1c5-4,7.7-3.3,11.5,0.7c7.2,7.5,14.4,14.9,21.9,22c22.6,21.5,55.2,21.4,76.6-0.2
		c21.1-21.2,21.1-55.9,0-77c-21.1-21.1-54.7-21.5-76.8,0.2c-37.3,36.7-73.5,74.5-111,110.9c-54.2,52.5-143.1,30.2-166.2-41.1
		c-13.9-42.7,2.3-90.7,38.9-115.3c38.2-25.7,89.2-22.7,123.9,7.8c9.3,8.2,17.7,17.4,26.5,26.2c0.7,0.7,2,1.5,2.1,2.2
		c0.8,15.9-15.4,19.4-22.2,29.9c-3.1,4.8-7.3,6.9-12.5,1.3c-7-7.6-14.4-14.9-22-21.9c-23.5-21.6-57.2-21.2-78.1,0.7
		c-20.2,21.2-19.9,54.7,0.6,75.8c21.4,22,54.7,22.4,77.8-0.4c37-36.2,73.1-73.3,109.9-109.8c29.9-29.7,73.7-38.3,112-20.4
		C679.3,161.4,699.1,192.7,700.2,237.3z"/>
	<path class="st1" d="M177.1,450.4c2.3,2.1,4.7,3.9,6.8,6.1c50.6,51,101.3,102,152,152.9c5.3,5.3,5.3,8.5-0.1,13.6
		c-13.5,12.8-26.6,26-39.4,39.5c-5.2,5.5-8.7,5-13.8-0.1c-50.9-51.5-101.8-102.9-152.9-154.2c-2.8-2.8-6.7-5.5-2-10.1
		c15.1-14.9,30-30,45-44.9C173.7,452.1,175.2,451.5,177.1,450.4z"/>
</g>
<g>
	<path class="st2" d="M65.4,312.8C103.9,140.4,257.8,11.5,441.7,11.5c181.4,0,333.6,125.3,374.6,294.1"/>
	<path class="st3" d="M129.3,599.7C37.7,455.4,54.8,261.9,180.7,136C304.8,11.9,494.7-6.5,638.3,81"/>
	<path class="st2" d="M752.2,191.1c91.7,144.3,74.5,337.7-51.3,463.6c-124.2,124.2-314.1,142.5-457.6,55.1"/>
	<path class="st3" d="M816.3,477.6C777.9,650,624,778.8,440,778.8c-181.4,0-333.6-125.3-374.6-294.1"/>
	<circle class="st0" cx="709.7" cy="119.9" r="42.3"/>
	<circle class="st4" cx="166.3" cy="663.3" r="42.3"/>
</g>
</svg>
