<?xml version="1.0" encoding="utf-8"?>
<!-- Generator: Adobe Illustrator 24.1.0, SVG Export Plug-In . SVG Version: 6.00 Build 0)  -->
<svg version="1.1" id="Layer_1" xmlns="http://www.w3.org/2000/svg" xmlns:xlink="http://www.w3.org/1999/xlink" x="0px" y="0px"
	 viewBox="0 0 811.6 824.2" style="enable-background:new 0 0 811.6 824.2;" xml:space="preserve">
<style type="text/css">
	.st0{fill:#F4E5DF;}
	.st1{fill:#0072BA;}
	.st2{fill:#0090D8;}
	.st3{fill:#FEDECF;}
	.st4{fill:#4FC3A0;}
	.st5{fill:#FECDBE;}
	.st6{fill:#70D7A4;}
	.st7{fill:#35A084;}
	.st8{fill:#FEDFCF;}
	.st9{fill:#FEEDE5;}
	.st10{fill:#F7F5F7;}
	.st11{fill:#F6F5F7;}
	.st12{fill:none;stroke:#70D7A4;stroke-width:9;stroke-miterlimit:10;}
	.st13{fill:none;stroke:#0090D8;stroke-width:9;stroke-miterlimit:10;}
</style>
<g>
	<path class="st0" d="M604.2,450.8c8.9,2.2,27.4-6.3,31.1-14.9c4.5-10.7,10.3-20.9,9.1-33.5c-0.5-5.2,1.9-11.2,4.7-15.9
		c4.2-7.1,10.8-11.3,19.8-8.8c4.1,5.2,0.9,10.8,0.9,16.1c-0.2,42.9-19.2,74.9-55.7,97.4c-46.2,28.4-91.1,58.8-137,87.7
		c-42.2,26.6-88.1,40.4-138.2,40.1c-25.4-0.2-50.7,0-76-2.2c-3.4-0.3-7.1,0-9.5-3.2c0-47.3,0.1-94.6-0.1-141.8
		c-0.1-8.8,2.2-13,11.3-9c5.9,2.6,9.8-4.9,14.6-3.2c11.7,4.1,22.9-1.5,34.3-1.6c16.2-0.1,33.4-4.4,48.8-12.3
		c18.2-9.3,35-20.9,51.9-32.4c7-4.8,14.3-8.1,23-6.3c5.5,7.9,0.6,13.9-4.2,19.3c-8.8,9.8-18.6,18.6-27.7,28.2
		c-6.1,6.3-11,13.2-11.3,22.7c-0.3,10.8,2.3,19.9,12,25.9c2.9,2.2,1.9,7.3,6.3,8.4c13.4,15,29,17.7,46.8,8.7
		c1.5-0.8,3.2-1.4,4.7-2.2c44.8-23.1,91.5-42.1,135.6-66.5C600.8,450.6,602.4,450,604.2,450.8z"/>
	<path class="st1" d="M220.2,661.4c-16,0.1-32,0.4-48,0.2c-9.7-0.1-14.8-5.2-14.9-15c-0.1-67.9-0.2-135.8-0.1-203.6
		c0-8.8,5.4-14.3,13.3-14.6c22.9-0.8,45.9-0.5,68.9-0.5c1.2,0,2.4,1.2,3.6,1.8c-12.9,2.2-11.7,11.2-11.6,21.2
		c0.5,63,0.3,125.9,0.2,188.9C231.6,648.9,232.1,658.6,220.2,661.4z"/>
	<path class="st2" d="M458.4,217c18.2-16.6,37.3-5,55.6-0.9c46.5,10.4,92.9,21.8,139.2,33.1c3.9,1,8.4-0.2,11.8,3
		c4.4,4.8,4.9,10.2,3.6,16.4c-4.2,19.5-9.4,38.9-13.8,58.3c-1.6,7-5.3,11.8-12.7,13.1l-183.6-43.3c-6.2,1.2-8.5-3.7-11-7.6
		c-4.3-6.7-7.3-14.1-10.3-21.4c-1.4-3.2-2.9-6.3-4.4-9.4c-6.3-13-6-14.6,4.3-25.4C444.6,228,449.7,220.2,458.4,217z"/>
	<path class="st3" d="M253.3,613.5c28.1,0.6,56.1,2.5,84.2,2.5c49.2,0.1,94.6-12.5,136-38.5c50.4-31.7,100.6-63.9,150.1-97
		c24.3-16.3,39.3-39.6,41.2-70c0.7-11,2.6-21.9,4-32.8c9.2-0.5,14.4,4.4,14.6,14.8c1.2,48.8-14.1,88.3-59,114.3
		c-39,22.6-76.4,48-114.2,72.6c-33,21.6-67.1,40.6-106.6,47.7c-19.5,3.5-39.3,7.2-58.8,4.9c-23.7-2.9-47.2-0.2-70.8-1.6
		c-6.3-4.8-14.5,0.6-20.9-3.9c-0.4-0.1-0.9-0.1-1.3-0.1c-4.5-4.2-4.6-8.4,0-12.7C252.5,613.7,252.9,613.6,253.3,613.5z"/>
	<path class="st4" d="M439.2,233.5c-9,7.3-9.7,15.6-3.3,25.1c1.7,2.5,2.3,5.7,3.3,8.5c5,15.2,3.3,31,3.5,46.5
		c0.1,14.6,0.1,29.2,0,43.8c-0.1,6-0.4,11.9-5.7,16.1c-10.4,0-20.8-0.1-31.2,0.2c-8.2,0.2-12.3-2.9-12.2-11.5
		c0.1-52.8,0.1-105.6,0-158.4c0-5.3,1.3-11,7-11.2c17.9-0.4,35.8-3.2,53.6,0.9c-13.6,2.2-12.3,12.3-11.8,22.1
		C442.7,221.8,443,228.1,439.2,233.5z"/>
	<path class="st5" d="M604.2,450.8c-7.9,7.1-17.6,11.1-26.9,15.6c-41.7,19.9-83.3,39.9-125.1,59.4c-12.4,5.8-33.9,3.7-40-14.3
		c50.9-24.8,101.7-49.7,152.7-74.4c11.2-5.4,11.7-15.2,12.2-25.4c0.5-10,2-19.6,12.5-24.5c13.5-6.3,28.8,2.6,29.1,17.5
		C619,421.5,617.4,438.1,604.2,450.8z"/>
	<path class="st2" d="M338.9,373.6c-10.1,0.1-20.2,0-30.3,0.3c-7.8,0.2-11.5-3.1-11.5-11.1c0.1-42.4,0.1-84.9,0-127.3
		c0-6,1.9-11.2,8.2-11.2c16.9-0.1,33.9-2.5,50.8,0.8c-8.5,3.8-9.9,10.6-9.8,19.3c0.5,37.1,0.2,74.3,0.2,111.4
		C346.5,362.7,346.8,369.8,338.9,373.6z"/>
	<path class="st1" d="M252.1,613.7v12.7c-0.2,5.8-0.4,11.7-0.5,17.5c-0.3,13.3-4.8,17.9-18,17.9c-4.5,0-8.9-0.2-13.4-0.3
		c6.4-4.2,8.3-10.2,8.3-17.8c-0.2-65.7-0.2-131.4,0-197.1c0-5.7-0.8-10.9-5.8-15.6c7.5-2.3,14-0.5,20.4-1.2
		c7.7,3.4,8.6,9.9,8.6,17.3c-0.1,51.4-0.1,102.8,0,154.2C251.6,605.3,251.9,609.5,252.1,613.7z"/>
	<path class="st4" d="M242.8,373.6c-10.4,0-20.8-0.1-31.2,0.2c-7.4,0.2-10.8-2.6-10.7-10.3c0.2-32.2,0.1-64.5,0-96.7
		c0-5.9,1.2-10.3,8.4-10.4c14.5-0.4,29-1,43.5-1.5c2.4-0.1,4.9-0.3,6.8,1.7c-10,3-11.7,10-11.5,19.8c0.7,27.1,0.3,54.3,0.2,81.4
		C248.3,363.5,249.1,369.9,242.8,373.6z"/>
	<path class="st6" d="M395.9,145.4c-6-4.6-11.9-7.7-7.4-14.5c4.2-6.4,9.6-3.3,14.7-0.8c25.2,12,25.2,12,13.7,37.4
		c-2.2,4.8-4.1,10.2-11,8.6c-5-1.1-6.4-5.4-4.5-15.6c-18.5,7.1-36.1,13.8-53.7,20.6c-40.2,15.5-80.4,31-120.6,46.6
		c-5.6,2.2-10.6,2.6-13.1-3.6c-2.7-6.7,2.4-9.3,7.5-11.3c41.5-16,83-32.1,124.5-48.1C362.2,158.5,378.4,152.2,395.9,145.4z"/>
	<path class="st1" d="M338.9,373.6c3.1-3.9,4.3-8.3,4.3-13.4c-0.4-43.4-0.5-86.7-1-130.1c-0.1-4.3,1.6-4.6,4.6-4.7
		c3-0.1,6.2-0.3,9.3-0.4c5.7,1.6,5.7,6.2,5.7,10.9c0,42-0.1,84.1,0.1,126.1c0,9.1-3.9,12.7-12.6,12.1
		C345.9,373.7,342.4,373.7,338.9,373.6z"/>
	<path class="st7" d="M242.8,373.6c2.1-3.4,2.2-7.2,2.2-11.1c0-32,0.4-64-0.3-96c-0.2-8.4,1.8-11.1,9.7-9.9c1.7,0.3,3.5,0,5.2-0.1
		c6.3,2.4,5.9,7.8,5.9,13.1c0,29.2,0,58.4,0,87.6c0,15.7-1,16.7-16.4,16.6C247,373.9,244.9,373.7,242.8,373.6z"/>
	<path class="st8" d="M405.8,503c-7.8,1.7-10.6-4.2-12.4-9.4c-5.3-14.9-3.2-28.6,8.5-40.1c9.2-9,18-18.4,27.4-27.2
		c5.7-5.4,8.7-11.5,7.8-19.4c10.7-0.6,19.5,11.8,15.7,22.5c-1.9,5.3-5,10-9.1,13.8c-9.5,9.2-19,18.4-28,28.1
		C407.5,480.1,404.4,490.9,405.8,503z"/>
	<path class="st7" d="M437,373.6c1.6-5.3,2.4-10.8,2.3-16.3c-0.1-30.1,0-60.1,0-90.2c6.9,9.5,7.3,23.2,19.2,29.4
		c-0.1,18.9-0.2,37.9-0.2,56.8C458.2,374.6,458.2,374.6,437,373.6z"/>
	<path class="st1" d="M642,339.9c6.2-3.9,9.2-9.3,10.6-16.8c3-15.9,7-31.7,11.2-47.3c2.1-7.9,3.5-15.6,1.2-23.6
		c18.9,3.5,20.9,6.5,16.5,25.1c-3.7,15.8-7.5,31.6-11.2,47.4C665.4,344.5,661.9,346.4,642,339.9z"/>
	<path class="st7" d="M439.2,233.5c0-10.1,0.7-20.2-0.3-30.2c-0.8-7.8,0.9-11,9-9.6c2,0.4,4.2-0.1,6.2-0.1
		c7.9,6.6,2.4,15.7,4.2,23.4C453.2,224,446.5,229,439.2,233.5z"/>
	<path class="st9" d="M253.4,626.5c6.9,1.7,15.3-4.7,20.9,3.9C267.4,628.4,259,634.8,253.4,626.5z"/>
	<path class="st10" d="M564.4,292.3c0.4,7.8,1,13.2-5.7,14.3c-6.2,1.1-8.2-2.7-9.6-8.2c-2.2-8.9-17.5-12.2-23.6-5.4
		c-3.6,4-7.3,7.1-12.3,2.9c-4.8-4-3.2-8.4-0.1-12.9c9-13.2,17.9-26.4,26.8-39.7c2.7-4,6-6.9,11.2-5.7c5.2,1.2,6.7,5.1,7.3,10
		C560.5,263.6,562.7,279.4,564.4,292.3z"/>
	<path class="st10" d="M492,224.7c10,0.1,16.9,3.9,22.4,10.1c3.1,3.5,3.7,7.8,0.5,11.3c-3.2,3.5-7.5,3.2-11.2,0.3
		c-4.3-3.3-9.9-9.8-13.8-4.6c-3.3,4.5,5.5,7,9.1,9.7c12.9,10,16.2,19.4,9.3,29.9c-6.3,9.5-20.9,12.1-32.8,5.5
		c-4.6-2.6-8.2-6.4-11.3-10.6c-2.9-3.9-2.8-7.8,0.9-11.2c3.9-3.5,8.1-2.5,10.9,1.2c3.4,4.3,7.3,7.4,12.6,8.5c2.6,0.5,5-0.3,6.2-2.7
		c1.1-2.3-0.7-4-2.3-5.3c-3.5-2.9-7.1-5.6-10.9-8.1c-8.6-5.4-11.5-13.1-8.2-22.4C476.7,227.4,484.2,224.1,492,224.7z"/>
	<path class="st10" d="M632,256.8c7.5,1.9,13.9,3.3,20.3,5c5.1,1.4,7.6,4.9,6.2,10.2c-1.3,5.1-5.3,5.8-9.9,5.1c-1-0.2-2-0.6-3-0.8
		c-3.5-0.5-8-3.6-9.7,1.9c-1.9,6.3,3.8,6.3,7.5,7.2c5.4,1.3,9.6,3.9,8.2,9.8c-1.5,6.4-6.5,6.9-12.4,5.6c-3-0.6-7.7-4.1-9.5,1.9
		c-1.9,6.7,4,6.2,7.5,7.2c5.6,1.6,11.8,2.7,9.9,10.3c-2,8-8.5,6.4-14.5,5c-27.3-6.5-22.9-5.8-17.8-28.4c2.4-10.8,5.3-21.5,7.8-32.3
		C624.1,259.2,627.3,256.4,632,256.8z"/>
	<path class="st11" d="M597.7,259c-1.9,8.4-4.1,19.3-7,29.9c-1.8,6.4-1.8,10.6,6.3,11.8c5,0.7,8.2,4.5,6.7,9.8
		c-1.5,5-5.5,6.8-10.7,5.4c-1.3-0.4-2.7-0.6-4.1-0.8c-18.6-3.7-19.6-5.1-15.4-23c2.9-12.4,5.8-24.9,9-37.3c1.2-4.5,3.6-8.7,9.4-7.4
		C596.6,248.4,598.7,251.8,597.7,259z"/>
	<path class="st2" d="M542.6,268c2.4-0.3,2.9,0.8,3,2.3c0.1,2,0.4,4.3-2.5,4.7c-1.3,0.1-3.2-0.3-2.9-2
		C540.6,271.1,541.9,269.4,542.6,268z"/>
</g>
<g>
	<path class="st12" d="M16.5,324.5c39.9-179.1,199.8-313,391-313c188.5,0,346.6,130.2,389.3,305.7"/>
	<path class="st13" d="M82.8,622.7c-95.2-149.9-77.5-351,53.4-481.8c129-129,326.3-148.1,475.6-57.2"/>
	<path class="st12" d="M730.1,198.1c95.2,149.9,77.5,351-53.4,481.8c-129,129-326.3,148.1-475.6,57.2"/>
	<path class="st13" d="M796.7,495.8c-39.9,179.1-199.8,313-391,313c-188.5,0-346.6-130.2-389.3-305.7"/>
	<circle class="st1" cx="685.9" cy="124.1" r="44"/>
	<circle class="st6" cx="121.2" cy="688.8" r="44"/>
</g>
</svg>
