<svg id="Layer_1" data-name="Layer 1" xmlns="http://www.w3.org/2000/svg" xmlns:xlink="http://www.w3.org/1999/xlink" viewBox="0 0 119.77 121.79"><defs><style>.cls-1{fill:url(#linear-gradient);}.cls-2{fill:#086abc;}.cls-3{fill:#0a5ca6;}.cls-4{fill:url(#linear-gradient-2);}.cls-5{fill:#e0e1e1;}.cls-6{fill:#ef5152;}</style><linearGradient id="linear-gradient" x1="517.69" y1="519.09" x2="608.84" y2="519.09" gradientUnits="userSpaceOnUse"><stop offset="0" stop-color="#5ccdfa"/><stop offset="1" stop-color="#0a85e0"/></linearGradient><linearGradient id="linear-gradient-2" x1="0" y1="89.91" x2="62.3" y2="89.91" xlink:href="#linear-gradient"/></defs><path class="cls-1" d="M608.84,483.09V570a10,10,0,0,1-10,10H527.65a10,10,0,0,1-10-10V468.15a10,10,0,0,1,10-10H582Z" transform="translate(-489.07 -458.19)"/><polygon class="cls-2" points="92.96 0 92.96 24.13 119.77 24.13 92.96 0"/><rect class="cls-3" x="48.53" y="43.66" width="52.85" height="6.13"/><rect class="cls-3" x="48.53" y="64.09" width="52.85" height="6.13"/><rect class="cls-3" x="48.53" y="84.51" width="52.85" height="6.13"/><circle class="cls-4" cx="31.15" cy="89.91" r="31.15"/><circle class="cls-5" cx="30.64" cy="89.91" r="27.04"/><polygon class="cls-6" points="43.89 78.62 41.72 76.51 30.91 87.58 20.11 76.51 17.94 78.62 28.8 89.75 17.94 100.87 20.11 102.98 30.91 91.91 41.72 102.98 43.89 100.87 33.03 89.75 43.89 78.62"/></svg>