<svg id="Layer_1" data-name="Layer 1" xmlns="http://www.w3.org/2000/svg" xmlns:xlink="http://www.w3.org/1999/xlink" viewBox="0 0 124.96 120.81"><defs><style>.cls-1{fill:url(#linear-gradient);}.cls-2{fill:#0c5ea8;}.cls-3{fill:url(#linear-gradient-2);}.cls-4{fill:#e2e2e2;}.cls-5{fill:#747475;}</style><linearGradient id="linear-gradient" y1="64.34" x2="118.47" y2="64.34" gradientUnits="userSpaceOnUse"><stop offset="0" stop-color="#5ccdfa"/><stop offset="1" stop-color="#0a85e0"/></linearGradient><linearGradient id="linear-gradient-2" x1="53.21" y1="84.94" x2="124.96" y2="84.94" xlink:href="#linear-gradient"/></defs><rect class="cls-1" y="9.96" width="118.47" height="108.77" rx="21.96"/><rect class="cls-2" x="24" y="36.51" width="8.17" height="8.17"/><rect class="cls-2" x="24" y="57.96" width="8.17" height="8.17"/><rect class="cls-2" x="24" y="79.4" width="8.17" height="8.17"/><rect class="cls-2" x="44.94" y="36.51" width="8.17" height="8.17"/><rect class="cls-2" x="44.94" y="57.96" width="8.17" height="8.17"/><rect class="cls-2" x="44.94" y="79.4" width="8.17" height="8.17"/><rect class="cls-2" x="65.87" y="36.51" width="8.17" height="8.17"/><rect class="cls-2" x="65.87" y="57.96" width="8.17" height="8.17"/><rect class="cls-2" x="65.87" y="79.4" width="8.17" height="8.17"/><rect class="cls-2" x="86.81" y="36.51" width="8.17" height="8.17"/><rect class="cls-2" x="86.81" y="57.96" width="8.17" height="8.17"/><rect class="cls-2" x="86.81" y="79.4" width="8.17" height="8.17"/><circle class="cls-3" cx="89.09" cy="84.94" r="35.87"/><circle class="cls-4" cx="89.11" cy="84.94" r="28.36"/><path class="cls-5" d="M619.24,438.1l.1,19.56h18.8v-7.15h-9.6a5,5,0,0,1-4.95-5l.06-7.26Z" transform="translate(-537.03 -364.47)"/><rect class="cls-5" x="22.47" width="8.43" height="23.74" rx="3.7"/><rect class="cls-5" x="54.64" width="8.43" height="23.74" rx="3.7"/><rect class="cls-5" x="86.81" width="8.43" height="23.74" rx="3.7"/></svg>