<svg id="Layer_1" data-name="Layer 1" xmlns="http://www.w3.org/2000/svg" xmlns:xlink="http://www.w3.org/1999/xlink" viewBox="0 0 123.83 120.38"><defs><style>.cls-1{fill:url(#linear-gradient);}.cls-2{fill:url(#linear-gradient-2);}.cls-3{fill:#0a5ca6;}.cls-4{fill:url(#linear-gradient-3);}.cls-5{fill:url(#linear-gradient-4);}.cls-6{fill:#076abc;}.cls-7{fill:url(#linear-gradient-5);}.cls-8{fill:#e2e3e3;}.cls-9{font-size:28.47px;fill:#757576;font-family:GillSansMT, Gill Sans MT;}</style><linearGradient id="linear-gradient" x1="61.98" y1="13.53" x2="61.98" y2="79.79" gradientUnits="userSpaceOnUse"><stop offset="0" stop-color="#5ccdfa"/><stop offset="1" stop-color="#0a85e0"/></linearGradient><linearGradient id="linear-gradient-2" x1="62.04" y1="81.47" x2="62.04" y2="99.34" xlink:href="#linear-gradient"/><linearGradient id="linear-gradient-3" x1="557.13" y1="344.89" x2="632.19" y2="344.89" xlink:href="#linear-gradient"/><linearGradient id="linear-gradient-4" x1="632.19" y1="326.51" x2="632.19" y2="326.51" xlink:href="#linear-gradient"/><linearGradient id="linear-gradient-5" x1="41.11" y1="52.09" x2="79.91" y2="52.09" xlink:href="#linear-gradient"/></defs><path class="cls-1" d="M10.66,13.53H113.3a10.53,10.53,0,0,1,10.53,10.53V79.79a0,0,0,0,1,0,0H.13a0,0,0,0,1,0,0V24.06A10.53,10.53,0,0,1,10.66,13.53Z"/><path class="cls-2" d="M.26,81.47H123.83a0,0,0,0,1,0,0v8A9.83,9.83,0,0,1,114,99.34H10.09A9.83,9.83,0,0,1,.26,89.51v-8A0,0,0,0,1,.26,81.47Z"/><rect class="cls-3" y="78.13" width="123.83" height="3.38"/><path class="cls-4" d="M632.19,329.32V383.7H557.13V311.77a5.68,5.68,0,0,1,5.68-5.68h42.32Z" transform="translate(-531.85 -306.09)"/><path class="cls-5" d="M632.19,326.51" transform="translate(-531.85 -306.09)"/><polygon class="cls-6" points="74.43 23.11 100.34 23.11 73.28 0 74.43 23.11"/><path class="cls-6" d="M620,419.31l-.59-.88L612,415a5.18,5.18,0,0,1-1.5-8.36l2-2-18.5-.15h-1l-18.5.15,2,2A5.17,5.17,0,0,1,575,415l-7.41,3.41-.59.88a5.77,5.77,0,0,0,.48,7l.11.12,25.91-.38,25.91.38.1-.12A5.78,5.78,0,0,0,620,419.31Z" transform="translate(-531.85 -306.09)"/><circle class="cls-7" cx="60.51" cy="52.09" r="19.4"/><circle class="cls-8" cx="60.19" cy="52.09" r="15.32"/><text class="cls-9" transform="translate(53.11 60.88)">$</text></svg>