<svg id="Layer_1" data-name="Layer 1" xmlns="http://www.w3.org/2000/svg" xmlns:xlink="http://www.w3.org/1999/xlink" viewBox="0 0 123.83 118.27"><defs><style>.cls-1{fill:url(#linear-gradient);}.cls-2{fill:url(#linear-gradient-2);}.cls-3{fill:#076abc;}.cls-4{fill:url(#linear-gradient-3);}.cls-5{fill:#0a5ca6;}.cls-6{fill:url(#linear-gradient-4);}.cls-7{fill:#095aa5;}.cls-8{fill:url(#linear-gradient-5);}.cls-9{fill:#e2e3e3;}.cls-10{fill:#757779;}</style><linearGradient id="linear-gradient" x1="61.98" y1="7.94" x2="61.98" y2="78.87" gradientUnits="userSpaceOnUse"><stop offset="0" stop-color="#5ccdfa"/><stop offset="1" stop-color="#0a85e0"/></linearGradient><linearGradient id="linear-gradient-2" x1="471.31" y1="514.86" x2="546.13" y2="514.86" xlink:href="#linear-gradient"/><linearGradient id="linear-gradient-3" x1="62.04" y1="78.38" x2="62.04" y2="97.07" xlink:href="#linear-gradient"/><linearGradient id="linear-gradient-4" x1="549.47" y1="518.33" x2="549.47" y2="518.33" xlink:href="#linear-gradient"/><linearGradient id="linear-gradient-5" x1="53.59" y1="42.28" x2="95.86" y2="42.28" xlink:href="#linear-gradient"/></defs><path class="cls-1" d="M10.66,7.94H113.3a10.53,10.53,0,0,1,10.53,10.53v60.4a0,0,0,0,1,0,0H.13a0,0,0,0,1,0,0V18.47A10.53,10.53,0,0,1,10.66,7.94Z"/><path class="cls-2" d="M546.13,497.9v59.24H471.31V478.78a5.94,5.94,0,0,1,5.66-6.19h42.18Z" transform="translate(-449.13 -472.59)"/><polygon class="cls-3" points="71.17 25.17 97 25.17 70.02 0 71.17 25.17"/><path class="cls-4" d="M.26,78.38H123.83a0,0,0,0,1,0,0v8.85A9.83,9.83,0,0,1,114,97.07H10.09A9.83,9.83,0,0,1,.26,87.24V78.38A0,0,0,0,1,.26,78.38Z"/><rect class="cls-5" y="86.44" width="123.83" height="3.38"/><path class="cls-6" d="M549.47,518.33" transform="translate(-449.13 -472.59)"/><path class="cls-3" d="M536.77,583.7l-.59-.88-7.41-3.41a5.17,5.17,0,0,1-1.5-8.36l2-2-18.5-.15h-1l-18.5.15,2,2a5.18,5.18,0,0,1-1.5,8.36l-7.42,3.41-.59.88a5.79,5.79,0,0,0,.49,7l.1.11,25.91-.38,25.91.38.11-.11A5.79,5.79,0,0,0,536.77,583.7Z" transform="translate(-449.13 -472.59)"/><rect class="cls-7" x="29.41" y="38.31" width="39.64" height="7.93" rx="3.64"/><rect class="cls-7" x="29.41" y="50" width="39.64" height="7.93" rx="3.64"/><rect class="cls-7" x="29.41" y="61.4" width="39.64" height="7.93" rx="3.64"/><circle class="cls-8" cx="74.72" cy="42.28" r="21.14"/><circle class="cls-9" cx="74.38" cy="42.28" r="16.69"/><polygon class="cls-10" points="67.98 40.75 72.57 40.75 72.57 54.1 77.37 54.1 77.37 40.75 81.33 40.75 75.28 32.2 67.98 40.75"/></svg>