<svg id="Layer_1" data-name="Layer 1" xmlns="http://www.w3.org/2000/svg" xmlns:xlink="http://www.w3.org/1999/xlink" viewBox="0 0 124.85 117.45"><defs><style>.cls-1{fill:url(#linear-gradient);}.cls-2{fill:url(#linear-gradient-2);}.cls-3{fill:url(#linear-gradient-3);}.cls-4{fill:url(#linear-gradient-4);}.cls-5{fill:url(#linear-gradient-5);}.cls-6{fill:#095aa5;}.cls-7{fill:#1b65ab;}.cls-8{fill:url(#linear-gradient-6);}.cls-9{fill:#e2e3e3;}.cls-10{fill:#757779;}</style><linearGradient id="linear-gradient" x1="18.79" y1="60.13" x2="48.66" y2="60.13" gradientUnits="userSpaceOnUse"><stop offset="0" stop-color="#5ccdfa"/><stop offset="1" stop-color="#0a85e0"/></linearGradient><linearGradient id="linear-gradient-2" x1="577.36" y1="437.57" x2="607.23" y2="437.57" xlink:href="#linear-gradient"/><linearGradient id="linear-gradient-3" x1="44.33" y1="63.96" x2="88.99" y2="63.96" xlink:href="#linear-gradient"/><linearGradient id="linear-gradient-4" x1="505.62" y1="462.52" x2="617.7" y2="462.52" xlink:href="#linear-gradient"/><linearGradient id="linear-gradient-5" x1="0" y1="95.49" x2="31.15" y2="95.49" xlink:href="#linear-gradient"/><linearGradient id="linear-gradient-6" x1="47.51" y1="19.4" x2="86.32" y2="19.4" xlink:href="#linear-gradient"/></defs><path class="cls-1" d="M33.72,38.3h0A14.94,14.94,0,0,1,48.66,53.23V82a0,0,0,0,1,0,0H18.79a0,0,0,0,1,0,0V53.23A14.94,14.94,0,0,1,33.72,38.3Z"/><path class="cls-2" d="M607.23,457.68l-29.87,6.13V426.28a14.94,14.94,0,0,1,14.94-14.94h0a14.93,14.93,0,0,1,14.93,14.94Z" transform="translate(-492.85 -373.04)"/><path class="cls-3" d="M64.63,34.47h4.06A20.3,20.3,0,0,1,89,54.77V93.45a0,0,0,0,1,0,0H44.33a0,0,0,0,1,0,0V54.77a20.3,20.3,0,0,1,20.3-20.3Z"/><path class="cls-4" d="M507.28,455.13l17.29-9.92a23.14,23.14,0,0,1,18.38-2l23.69,7.35.31.53a5.18,5.18,0,0,1-2.51,7.48l-.1,0L544.81,454l-1.27.76a2.65,2.65,0,0,0-.73,3.89l.85,1.09s24.25,5.24,27.83,4.85l38-20.68s11.62-3.83,7.15,8.43l-45.94,28.35a14.93,14.93,0,0,1-10.42,2,248.93,248.93,0,0,1-28.1-6.5,17.92,17.92,0,0,0-11.17.23l-1.9.68L505.62,455Z" transform="translate(-492.85 -373.04)"/><polygon class="cls-5" points="0 78.64 9.19 73.53 31.15 111.83 22.98 117.45 0 78.64"/><circle class="cls-6" cx="7.91" cy="81.96" r="2.3"/><circle class="cls-7" cx="32.87" cy="30.11" r="11.49"/><circle class="cls-7" cx="98.74" cy="30.11" r="11.49"/><circle class="cls-8" cx="66.91" cy="19.4" r="19.4"/><circle class="cls-9" cx="66.6" cy="19.4" r="15.32"/><polygon class="cls-10" points="57.28 20.91 60.34 17.6 63.91 22.19 73.11 12.74 76.43 16.06 64.17 28.06 57.28 20.91"/></svg>