<svg id="Layer_1" data-name="Layer 1" xmlns="http://www.w3.org/2000/svg" xmlns:xlink="http://www.w3.org/1999/xlink" viewBox="0 0 118.69 115.46"><defs><style>.cls-1{fill:url(#linear-gradient);}.cls-2{fill:url(#linear-gradient-2);}.cls-3{fill:#0072ba;}.cls-4{fill:url(#linear-gradient-3);}.cls-5{fill:#e2e3e3;}.cls-6{font-size:45.78px;fill:#757576;font-family:GillSansMT, Gill Sans MT;}</style><linearGradient id="linear-gradient" x1="553.95" y1="477.95" x2="625.15" y2="477.95" gradientUnits="userSpaceOnUse"><stop offset="0" stop-color="#5ccdfa"/><stop offset="1" stop-color="#0a85e0"/></linearGradient><linearGradient id="linear-gradient-2" x1="601.44" y1="477.95" x2="672.64" y2="477.95" xlink:href="#linear-gradient"/><linearGradient id="linear-gradient-3" x1="29.07" y1="72.08" x2="91.46" y2="72.08" xlink:href="#linear-gradient"/></defs><path class="cls-1" d="M586.57,421.56l-31.8,39.21a3.63,3.63,0,0,0,2.85,5.92l15.28-.11a3.63,3.63,0,0,1,3.66,3.61l.35,61.88a3.63,3.63,0,0,0,3.63,3.61h18.6a3.64,3.64,0,0,0,3.64-3.63V470.19a3.63,3.63,0,0,1,3.63-3.64h15.1a3.63,3.63,0,0,0,2.81-5.94L592.2,421.54A3.64,3.64,0,0,0,586.57,421.56Z" transform="translate(-553.95 -420.22)"/><path class="cls-2" d="M634.06,421.56l-31.8,39.21a3.63,3.63,0,0,0,2.85,5.92l15.28-.11a3.63,3.63,0,0,1,3.66,3.61l.34,61.88a3.64,3.64,0,0,0,3.64,3.61h18.6a3.64,3.64,0,0,0,3.64-3.63V470.19a3.63,3.63,0,0,1,3.63-3.64H669a3.63,3.63,0,0,0,2.81-5.94l-32.12-39.07A3.64,3.64,0,0,0,634.06,421.56Z" transform="translate(-553.95 -420.22)"/><path class="cls-3" d="M611.08,421.56l-31.8,39.21a3.63,3.63,0,0,0,2.85,5.92l15.28-.11a3.63,3.63,0,0,1,3.66,3.61l.35,61.88a3.63,3.63,0,0,0,3.63,3.61h18.6a3.64,3.64,0,0,0,3.64-3.63V470.19a3.63,3.63,0,0,1,3.63-3.64H646a3.63,3.63,0,0,0,2.81-5.94l-32.12-39.07A3.64,3.64,0,0,0,611.08,421.56Z" transform="translate(-553.95 -420.22)"/><circle class="cls-4" cx="60.27" cy="72.08" r="31.2"/><circle class="cls-5" cx="59.76" cy="72.08" r="24.63"/><text class="cls-6" transform="translate(48.37 86.22)">$</text></svg>