<?xml version="1.0" encoding="UTF-8"?>
<svg id="Layer_1" data-name="Layer 1" xmlns="http://www.w3.org/2000/svg" xmlns:xlink="http://www.w3.org/1999/xlink" viewBox="0 0 294.34 294.3">
  <defs>
    <style>
      .cls-1 {
        fill: url(#linear-gradient);
      }

      .cls-1, .cls-2, .cls-3, .cls-4, .cls-5, .cls-6 {
        stroke-width: 0px;
      }

      .cls-2 {
        fill: #115ba2;
      }

      .cls-3 {
        fill: #757577;
      }

      .cls-4 {
        fill: url(#linear-gradient-2);
      }

      .cls-5 {
        fill: url(#linear-gradient-3);
      }

      .cls-6 {
        fill: url(#linear-gradient-4);
      }
    </style>
    <linearGradient id="linear-gradient" x1="84.11" y1="72.26" x2="140.33" y2="72.26" gradientUnits="userSpaceOnUse">
      <stop offset="0" stop-color="#60c6f1"/>
      <stop offset="1" stop-color="#115ba2"/>
    </linearGradient>
    <linearGradient id="linear-gradient-2" x1="128.76" y1="160.86" x2="178.67" y2="160.86" xlink:href="#linear-gradient"/>
    <linearGradient id="linear-gradient-3" x1="46.09" y1="160.86" x2="95.89" y2="160.86" xlink:href="#linear-gradient"/>
    <linearGradient id="linear-gradient-4" x1="162.36" y1="57.27" x2="294.27" y2="57.27" xlink:href="#linear-gradient"/>
  </defs>
  <path class="cls-2" d="M72.45,44.97c-1.66,4.8-3.05,9.52-3.14,14.52-.03,1.79-1.43,1.25-2.36,1.25-9.05.03-18.1.01-27.14.02-6.78,0-9.53,2.76-9.53,9.55,0,46.02,0,92.05,0,138.07,0,6.77,2.73,9.47,9.56,9.47,70.73,0,141.47,0,212.2,0,6.98,0,9.64-2.68,9.64-9.69,0-35.32.03-70.64-.06-105.96,0-2.66.65-3.47,3.35-3.39,4.55.14,9.15.42,13.67-.56,1.21-.26,1.6.23,1.51,1.36-.03.39,0,.78,0,1.17,0,37.07.02,74.14-.02,111.22-.01,10.58-6.3,18.8-16.09,21.27-2.27.57-4.61.69-6.95.69-8.95,0-17.9.03-26.85-.03-1.63-.01-2.5.17-2.9,2.15-1.53,7.5-6.61,11.51-14.23,11.51-43.98.01-87.95.01-131.93,0-7.61,0-12.72-4.03-14.23-11.51-.4-1.98-1.27-2.16-2.9-2.15-8.95.06-17.9.05-26.85.02-14.33-.04-23.04-8.77-23.04-23.13,0-47.87-.01-95.74,0-143.62,0-11.19,6.23-19.47,16.42-21.88,1.4-.33,2.88-.48,4.33-.48,11.97-.04,23.93-.03,35.9-.03.47,0,.95.09,1.64.16Z"/>
  <path class="cls-2" d="M147.17,294.28c-41.63,0-83.26,0-124.89,0-13.66,0-22.26-8.55-22.26-22.13,0-1.17-.05-2.34.01-3.5.14-2.79,1.89-4.74,4.64-5.15.86-.13,1.75-.07,2.62-.07,26.75,0,53.5.04,80.24-.04,4.45-.01,7.89,1.26,10.35,5.16,1.59,2.53,4.15,3.67,7.21,3.67,28.3-.01,56.61-.01,84.91,0,3.29,0,5.84-1.37,7.59-4.1,2.15-3.36,5.2-4.71,9.1-4.7,26.94.03,53.88.01,80.83.02,5.03,0,6.56,1.79,6.79,6.91.37,8.33-1.96,15.36-9.02,20.31-3.69,2.59-7.84,3.66-12.36,3.65-41.92-.03-83.84-.02-125.76-.02Z"/>
  <path class="cls-1" d="M140.28,69.95c.09,7.2.36,14.38-2.94,21.15-2.81,5.78-6.41,10.87-11.58,14.76-8.78,6.6-18.86,6.62-27.36-.33-9.14-7.47-14.23-17.12-14.16-29.1.04-7.08-.71-14.23.95-21.22,3.26-13.73,16.28-22.82,30.34-21.29,13.72,1.5,24.29,13.01,24.72,26.98.09,3.01.01,6.03.01,9.05Z"/>
  <path class="cls-4" d="M178.66,184.47c.18,7.33-2.81,11.03-9.86,12.39-10.88,2.1-21.86,3.42-32.88,4.43-1.39.13-2.09-.03-2.24-1.71-1.58-18-3.23-35.99-4.9-53.97-.1-1.04.11-1.91.54-2.79,3.31-6.92,6.64-13.82,9.9-20.76.63-1.34,1.3-1.86,2.88-1.61,7.67,1.22,15.27,2.73,22.72,4.98,6.71,2.02,10.58,6.45,11.06,13.37.84,12.21,1.48,24.44,2.21,36.66.18,3.01.38,6.01.57,9.02Z"/>
  <path class="cls-5" d="M95.87,146.27c-.78,8.12-1.62,16.24-2.29,24.38-.14,1.77-.67,2.25-2.42,2.24-4.58-.03-6.39,1.19-6.5,4.02-.12,2.96,1.49,4.26,6.03,4.57,1.46.1,1.81.62,1.68,1.96-.5,5.42-.95,10.84-1.37,16.27-.11,1.45-.81,1.72-2.11,1.61-11.52-.99-22.96-2.54-34.33-4.64-5.1-.95-8.69-5.16-8.46-10.34.58-12.82,1.36-25.63,2.08-38.44.2-3.59.25-7.21.82-10.74.98-6.04,4.71-9.86,10.55-11.59,7.74-2.29,15.6-3.97,23.6-5.09,1.63-.23,2.45.12,3.13,1.66,2.91,6.57,5.91,13.1,8.98,19.6.72,1.52.66,3,.61,4.55Z"/>
  <path class="cls-3" d="M112.33,202.03c-3.01,0-6.03-.09-9.04.03-1.81.07-2.35-.46-2.13-2.32.63-5.3,1.21-10.62,1.53-15.95.12-2.04.92-2.46,2.66-2.32,1.06.08,2.17.13,3.2-.09,2.37-.49,3.82-1.91,3.69-4.48-.13-2.55-1.65-3.83-4.1-4.07-4.61-.45-4.48-.43-3.98-5.19.95-9.08,1.77-18.17,2.59-27.27.23-2.56-1.12-4.59-2.34-6.74-1.27-2.24-4.8-4.07-3.24-6.87,1.5-2.68,5-.99,7.59-1.15,3.97-.24,7.97-.06,11.96-.06,1.18,0,2.41-.07,3.01,1.24.51,1.12.11,2.19-.69,2.94-5.96,5.64-5.1,12.65-4.34,19.82,1.48,13.91,2.64,27.85,3.93,41.77.27,2.9.39,5.83.81,8.7.24,1.65-.25,2.03-1.77,1.99-3.11-.08-6.22-.02-9.33-.02Z"/>
  <path class="cls-6" d="M294.26,7.06c0-5.1-1.95-7.04-7.05-7.04-17.12,0-34.24,0-51.36,0-16.92,0-33.85-.03-50.77.01-11.83.03-21.66,8.59-22.23,20.34-.93,19.14-.27,38.31-.28,57.47,0,3.86,2.24,5.81,6.15,5.85,6.61.06,13.23.02,19.84.02q6.57,0,6.57,6.48c0,6.23,0,12.45.01,18.68,0,2.44.91,4.43,3.3,5.32,2.36.87,4.38.12,5.97-1.81.43-.53.9-1.02,1.34-1.54,7.04-8.31,14.12-16.58,21.08-24.96,1.4-1.68,2.87-2.23,5-2.21,13.23.08,26.46.12,39.68.01,13.3-.11,22.73-9.67,22.74-22.92.03-17.9.01-35.8,0-53.69ZM194.81,52.07c-5.66-.01-10.26-4.53-10.28-10.1-.02-5.69,4.76-10.44,10.42-10.36,5.59.08,10.05,4.68,10.05,10.36,0,5.73-4.42,10.11-10.18,10.1ZM228.43,52.07c-5.79-.03-10.16-4.36-10.17-10.11-.02-5.79,4.61-10.44,10.32-10.36,5.5.07,10.15,4.82,10.14,10.36,0,5.55-4.67,10.13-10.29,10.1ZM260.57,52.07c-5.89-.05-10.24-4.54-10.14-10.46.1-5.59,4.8-10.12,10.4-10.01,5.53.11,10.11,4.84,10.07,10.42-.03,5.56-4.7,10.1-10.33,10.05Z"/>
</svg>