<svg id="Layer_1" data-name="Layer 1" xmlns="http://www.w3.org/2000/svg" viewBox="0 0 778.3 761.29"><defs><style>.cls-1{fill:#fff;}</style></defs><path class="cls-1" d="M764.58,768a206.5,206.5,0,0,0,31.69,7.73c2.33,15.78-7.87,36-29.52,40.6a52.83,52.83,0,0,1-11,.86q-163.07,0-326.13,0-83.26,0-166.52,0c-7.06,0-13.81-1.12-20-4.6-12-6.78-18.57-17.09-19.53-30.89-.11-1.69-.05-3.39-.05-5.08q0-309.29,0-618.58c-.82-15.74,9.87-32,27.13-36.85a33.14,33.14,0,0,1,9.54-1.41c1.23,0,2.46,0,3.69,0q183.58,0,367.18,0c6.46,0,4.38-.85,8.76,3.56q76.7,77.26,153.34,154.57c4.32,4.36,3.46,2.44,3.46,8.35q0,79.35,0,158.68c0,1.67.6,3.54-.37,4.95s-3,1.37-4.57,1.92a116.88,116.88,0,0,0-23.63,11.31c-.77.49-1.55,1-2.36,1.4a.69.69,0,0,1-1-.5c-.1-1.38-.08-2.76-.08-4.15q0-75.18,0-150.37c0-1.39,0-2.77-.06-4.15a1.09,1.09,0,0,0-1.11-1.18c-1.38-.06-2.76-.06-4.14-.06q-53.28,0-106.56,0c-6.56,0-12.87-1.08-18.69-4.2-12.34-6.6-19.16-16.9-20.25-30.89-.16-2-.11-4-.11-6q0-53.05,0-106.1c0-5.68.67-5.11-5.21-5.11H264.31c-1.23,0-2.47-.06-3.69,0a5.1,5.1,0,0,0-5,4.49,13.54,13.54,0,0,0-.14,2.3c0,1.07,0,2.15,0,3.23v613c0,1.54-.07,3.09.06,4.61.3,3.53,2.12,5.27,5.59,5.46,1.07.06,2.15,0,3.22,0H755.57c1.23,0,2.47,0,3.69,0,3.2-.22,5.08-2,5.26-5.25.14-2.6.05-5.22.05-7.84C764.58,770.82,764.58,769.76,764.58,768Z" transform="translate(-159.42 -119.71)"/><path class="cls-1" d="M159.42,532.05q0-155,0-310c0-14.17,6-25.19,17.9-32.85,7-4.47,14.77-5.86,22.93-5.57,1.48.06,1.9.46,1.91,2,0,6.77,0,13.54,0,20.3q0,4.16,0,8.3a1.33,1.33,0,0,1-1.42,1.44c-1.38.06-2.77,0-4.15.09a5.37,5.37,0,0,0-5.09,5,31.6,31.6,0,0,0-.05,3.23V840.73c0,.92,0,1.85,0,2.76.24,3.4,2.1,5.24,5.56,5.54.62.05,1.23,0,1.85,0H690.6a47.56,47.56,0,0,0,5.07-.09,5.34,5.34,0,0,0,5-5.14c.18-1.65-.71-3.71.46-4.87,1.34-1.31,3.52-.5,5.32-.52,7.23-.06,14.46,0,21.68,0,1.08,0,2.15,0,3.23.05A1.39,1.39,0,0,1,732.7,840c1.26,22.57-14,38-32.17,40.74a43.15,43.15,0,0,1-6.44.24H447.3q-125,0-250,0a36.67,36.67,0,0,1-23.53-7.93c-9.38-7.42-14-17.3-14.32-29.2,0-1.54,0-3.08,0-4.61q0-153.61,0-307.21Z" transform="translate(-159.42 -119.71)"/><path class="cls-1" d="M410,368.78q0-15.91,0-31.83c0-1.23,0-2.46-.1-3.68a1.13,1.13,0,0,0-1.2-1.12c-1.38-.06-2.77-.08-4.15-.08H340.88c-4.47,0-4.08.28-4.08-3.86q0-30,0-60c0-.77,0-1.54,0-2.31.08-1.54.46-1.95,1.87-2,1.23-.05,2.46,0,3.69,0h61.81c.92,0,1.84,0,2.76,0,3,0,3-.06,3-3.1q0-32.28,0-64.57c0-6.31-.77-5.43,5.28-5.44,19.22,0,38.44,0,57.66,0,.76,0,1.53,0,2.3,0,2.92.05,2.92.06,3,3.19,0,.92,0,1.85,0,2.77v63.19c0,4.25-.34,4,4,4h64.58c4.8,0,4.54-.43,4.54,4.39v59.51c0,.92,0,1.84,0,2.76s-.42,1.44-1.35,1.46c-1.23,0-2.46,0-3.69,0H484c-1.23,0-2.46,0-3.69,0-1.75.06-2,.33-2.06,2.25,0,1.07,0,2.15,0,3.23v62.73c0,1.23,0,2.46,0,3.69a1.39,1.39,0,0,1-1.42,1.46c-.92.05-1.84.05-2.76.05H414c-.92,0-1.84,0-2.76-.06a1.17,1.17,0,0,1-1.19-1.14c-.07-1.23-.09-2.46-.09-3.68Q410,384.7,410,368.78Z" transform="translate(-159.42 -119.71)"/><path class="cls-1" d="M510.07,449.93q95.91,0,191.82,0c6.35,0,5.39-.89,5.44,5.24,0,6.92,0,13.84,0,20.75,0,3.19-.05,3.2-3.41,3.24h-385c-7,0-6.14.9-6.17-6.05s0-14.14,0-21.21c0-1.66.28-1.91,1.82-2,1.38,0,2.76,0,4.15,0Z" transform="translate(-159.42 -119.71)"/><path class="cls-1" d="M510.2,635.34q-95.93,0-191.85,0c-6.27,0-5.59.88-5.62-5.65,0-6.3,0-12.6,0-18.9,0-1.08,0-2.16,0-3.23a1.38,1.38,0,0,1,1.38-1.5c1.07,0,2.15,0,3.22,0H704.76c2.48.06,2.56.09,2.57,2.64q0,12,0,24c0,2.53-.17,2.65-2.51,2.7-1.23,0-2.46,0-3.69,0Z" transform="translate(-159.42 -119.71)"/><path class="cls-1" d="M510.17,557.11q-96,0-191.9,0c-1.66,0-3.7.72-4.91-.4-1.38-1.28-.59-3.45-.6-5.23-.07-6.3,0-12.61,0-18.91,0-1.08,0-2.15.08-3.23a1.24,1.24,0,0,1,1.1-1.24,10.55,10.55,0,0,1,1.38-.1h4.15q190.74,0,381.49,0c2,0,4-.31,5.91.31,1,2,.44,4.21.47,6.31.09,6.76.05,13.53,0,20.3,0,2-.19,2.14-2,2.19-1.38,0-2.76,0-4.15,0Z" transform="translate(-159.42 -119.71)"/><path class="cls-1" d="M510.62,684.24H701.1c1.38,0,2.77,0,4.15,0,2,0,2.07.1,2.08,2.15q0,12.45,0,24.9c0,1.61-.3,1.87-1.84,1.92-1.22,0-2.45,0-3.68,0H318.55c-.93,0-1.85,0-2.77,0-3-.05-3-.05-3-3.08q0-12,0-24c0-1.63.27-1.86,1.86-1.91,1.39,0,2.77,0,4.15,0Z" transform="translate(-159.42 -119.71)"/><path class="cls-1" d="M937.08,666.33a68.77,68.77,0,0,0-12.91-33.08,84.13,84.13,0,0,0-18.4-18,160.87,160.87,0,0,0-31.25-17.59c-5.9-2.58-11.91-4.93-17.92-7.25a2.38,2.38,0,0,1-1.85-2.7c0-.46,0-.92,0-1.38q0-35.05,0-70.1c0-1.06-.21-2.17.53-3.26a136.78,136.78,0,0,1,21.65,3.75,154.57,154.57,0,0,1,21.44,7c6.78,2.77,13.18,6.35,20,9.85.07-1.65.16-2.85.17-4q0-23.07,0-46.12c0-.77-.05-1.54,0-2.31a2.69,2.69,0,0,0-1.75-2.86,82.49,82.49,0,0,0-15.42-6c-13.8-4-27.95-5.77-42.25-6.57-4.76-.26-4.41.11-4.41-4.69q0-15,0-30c0-2.23-.18-2.43-2.28-2.44-6.92,0-13.84-.07-20.76,0-2.08,0-4.68-1-6.12.63-1.23,1.38-.4,3.83-.41,5.8,0,9.68,0,19.37,0,29,0,1.85-.32,2.16-2,2.41-2.74.39-5.5.66-8.21,1.15-13,2.36-25.25,6.62-36.28,14-14.32,9.56-25.12,22-31.15,38.33-4.76,12.83-5.45,26.06-3.6,39.51q4,29.24,27.18,47.56a141.92,141.92,0,0,0,23.37,14.67A242.53,242.53,0,0,0,822.67,634c1.9.69,2.79,1.65,2.5,3.69a19.54,19.54,0,0,0,0,2.76c0,20.45.06,40.89,0,61.34,0,8.36,1.56,7-7.48,6.35-.16,0-.31-.05-.46-.07a173.34,173.34,0,0,1-30.37-7.46c-13.13-4.44-25.94-9.54-37.27-17.76-.09-.07-.27,0-1,0V733.2a14.7,14.7,0,0,1,0,2.3c-.33,2,.73,3,2.44,3.85a171.27,171.27,0,0,0,26.53,10.47,160.82,160.82,0,0,0,41.27,6.68c1.23,0,2.46.1,3.69.1,2.62,0,2.75.7,2.73,2.6,0,1.08,0,2.15,0,3.23v31.82c0,1.23,0,2.46,0,3.69s.61,1.63,1.73,1.63c8.61,0,17.22,0,25.83,0,1.72,0,2-.32,2-2.28q0-14.29,0-28.59c0-3.69,0-7.38,0-11.07,0-2,.09-2,2-2.3A146.39,146.39,0,0,0,884.6,749,87.09,87.09,0,0,0,912,734.15,66.9,66.9,0,0,0,934.22,701,85.39,85.39,0,0,0,937.08,666.33ZM825.15,517.44V573.6c0,.61,0,1.23,0,1.84,0,1.93-.5,2.27-2.09,1.43-7.25-3.81-14-8.3-19.18-14.78-6.59-8.22-8.51-17.53-6-27.69a23.72,23.72,0,0,1,9.74-14.08c5.11-3.57,10.85-5.53,17.53-6.61Zm56.57,172.94a22.36,22.36,0,0,1-9.09,11.26,38.73,38.73,0,0,1-16.25,6,6.91,6.91,0,0,1-1.46-.14V647.25c.36-.06.7-.23.94-.13a60,60,0,0,1,17.54,10.77,37,37,0,0,1,3.26,3.25C884.23,669.86,885.44,679.72,881.72,690.38Z" transform="translate(-159.42 -119.71)"/></svg>