<?xml version="1.0" encoding="utf-8"?>
<!-- Generator: Adobe Illustrator 24.1.0, SVG Export Plug-In . SVG Version: 6.00 Build 0)  -->
<svg version="1.1" id="Layer_1" xmlns="http://www.w3.org/2000/svg" xmlns:xlink="http://www.w3.org/1999/xlink" x="0px" y="0px"
	 viewBox="0 0 1080.8 1080.8" style="enable-background:new 0 0 1080.8 1080.8;" xml:space="preserve">
<style type="text/css">
	.st0{fill:#FFFFFF;}
</style>
<path class="st0" d="M586.5,230c-64.1-39.4-148-19.3-187.6,44.8s-19.3,148,44.8,187.6s148,19.3,187.6-44.8
	c28.6-46.7,26.5-105.9-5.2-150.5c-4-5.6-11.7-6.9-17.3-2.9c-5.6,4-6.9,11.7-2.9,17.3c36.3,50.2,25.1,120.4-25.2,156.7
	S460.3,463.3,424,413.1s-25.1-120.4,25.2-156.7c36.6-26.5,85.5-28.4,124.1-4.9c5.8,3.5,13.3,1.7,16.9-4l0,0c3.6-5.7,2-13.2-3.6-16.9
	C586.5,230.3,586.5,230.2,586.5,230z"/>
<path class="st0" d="M490.9,432.4h49.5c6.8-0.1,12.3-5.6,12.4-12.4v-37.1h37.1c6.8-0.1,12.3-5.6,12.4-12.4V321
	c-0.1-6.8-5.6-12.3-12.4-12.4h-37.1v-37.1c-0.1-6.8-5.6-12.3-12.4-12.4h-49.5c-6.8,0.1-12.3,5.6-12.4,12.4v37.1h-37.1
	c-6.8,0.1-12.3,5.6-12.4,12.4v49.5c0.1,6.8,5.6,12.3,12.4,12.4h37.1V420c0,6.8,5.5,12.4,12.3,12.4
	C490.8,432.4,490.8,432.4,490.9,432.4z M453.8,358.4v-24.7h37.1c6.8-0.1,12.3-5.6,12.4-12.4v-37.1H528v37.1
	c0.1,6.8,5.6,12.3,12.4,12.4h37.1v24.7h-37.1c-6.8,0.1-12.3,5.6-12.4,12.4v37.1h-24.7v-37.1c-0.1-6.8-5.6-12.3-12.4-12.4H453.8z"/>
<path class="st0" d="M478.5,605.6h-99c-6.8,0-12.4,5.6-12.4,12.4c0,6.8,5.5,12.4,12.4,12.4h99c6.8-0.1,12.3-5.6,12.4-12.4
	c0.1-6.7-5.3-12.3-12-12.4C478.7,605.6,478.6,605.6,478.5,605.6z"/>
<path class="st0" d="M478.5,654.9h-99c-6.8,0-12.4,5.5-12.4,12.4c0,6.8,5.5,12.4,12.4,12.4c0,0,0,0,0,0h99
	c6.8-0.1,12.3-5.6,12.4-12.4c0-6.8-5.5-12.4-12.3-12.4C478.6,654.9,478.5,654.9,478.5,654.9z"/>
<path class="st0" d="M627,618c-0.1-6.8-5.6-12.3-12.4-12.4h-37.1c-6.8,0-12.4,5.6-12.4,12.4c0,6.8,5.5,12.4,12.4,12.4h37.1
	C621.4,630.3,626.9,624.8,627,618z"/>
<path class="st0" d="M577.5,654.9c-6.8,0-12.4,5.5-12.4,12.4c0,6.8,5.5,12.4,12.4,12.4c0,0,0,0,0,0h24.7c6.8,0,12.4-5.5,12.4-12.4
	c0-6.8-5.5-12.4-12.4-12.4c0,0,0,0,0,0H577.5z"/>
<path class="st0" d="M911.1,654.9c0-28.3-8.8-56-25.4-79c-4-5.6-11.7-6.9-17.3-2.9c-5.6,4-6.9,11.7-2.9,17.3
	c36.1,50.2,24.8,120.1-25.4,156.3C790,782.8,720,771.3,683.8,721.2C647.6,671,658.9,601,709,564.8c36.6-26.4,85.4-28.3,123.9-4.8
	c6,3.4,13.6,1.4,17-4.6c3.3-5.8,1.5-13.2-4.2-16.8c-17.8-10.8-37.8-17.3-58.5-19.1V308.7h86.6c6.8-0.1,12.3-5.6,12.4-12.4v-74.2
	c0-34.2-27.7-61.9-61.9-61.9c0,0,0,0,0,0h-494c-47.8,0-86.6,38.8-86.6,86.6v494.4c0,6.8,5.6,12.4,12.4,12.4
	c6.8,0,12.4-5.5,12.4-12.4V247.1c0-34.2,27.7-61.9,61.9-61.9c0,0,0,0,0,0h444.9c-8.1,10.7-12.4,23.7-12.4,37.1v297.1
	c-27.3,2.4-53.1,13.1-74.2,30.6v-31.3c-0.1-6.8-5.6-12.3-12.4-12.4h-346c-6.8,0.1-12.3,5.6-12.4,12.4v222.5
	c0.1,6.8,5.6,12.3,12.4,12.4H627c6.8,0,12.4-5.6,12.4-12.4c0-6.8-5.5-12.4-12.4-12.4h-86.6v-148h121
	c-40.9,62.8-23.4,146.9,39.4,187.8c18.6,12.2,39.9,19.6,62.1,21.6v50.2c0,20.5-16.6,37.1-37.1,37.1c-20.5,0-37.1-16.6-37.1-37.1V791
	c-0.1-6.8-5.6-12.3-12.4-12.4H182.1c-6.8,0.1-12.3,5.6-12.4,12.4v49.5c0,34.2,27.7,61.9,61.9,61.9c0,0,0,0,0,0h209.9
	c6.8,0,12.4-5.6,12.4-12.4c0-6.8-5.5-12.4-12.4-12.4H231.3c-20.4,0.1-37-16.3-37.1-36.7c0-0.1,0-0.1,0-0.2v-37.3h469.7v37.1
	c0,13.4,4.4,26.4,12.4,37.1H490.9c-6.8,0-12.4,5.6-12.4,12.4c0,6.8,5.5,12.4,12.4,12.4h234.8c34.2,0,61.9-27.7,61.9-61.9
	c0,0,0,0,0,0v-50.2C857.6,783.8,911.1,725.1,911.1,654.9z M824.7,185.4c20.4-0.1,37,16.3,37.1,36.7c0,0.1,0,0.1,0,0.2v62.1h-74.2
	v-62.1C787.6,201.9,804.3,185.3,824.7,185.4C824.7,185.4,824.7,185.4,824.7,185.4L824.7,185.4z M342.7,531.4h173v24.7h-173V531.4z
	 M342.7,580.9h173v148.2h-173V580.9z M540.4,531.4h123.5v24.7H540.4V531.4z"/>
<path class="st0" d="M775.2,618c6.8,0.1,12.3,5.6,12.4,12.4c0,6.8,5.6,12.4,12.4,12.4c6.8,0,12.4-5.5,12.4-12.4
	c0-15.7-9.9-29.7-24.7-34.9v-14.6c0-6.8-5.6-12.4-12.4-12.4c-6.8,0-12.4,5.5-12.4,12.4v14.6c-19.3,6.8-29.4,27.9-22.6,47.2
	c5.2,14.8,19.3,24.8,35,24.7c6.8,0,12.4,5.6,12.4,12.4s-5.6,12.4-12.4,12.4s-12.4-5.6-12.4-12.4c0-6.8-5.6-12.4-12.4-12.4
	c-6.8,0-12.4,5.5-12.4,12.4c0,15.7,9.9,29.7,24.7,34.9v14.6c0,6.8,5.5,12.4,12.4,12.4c6.8,0,12.4-5.5,12.4-12.4c0,0,0,0,0,0v-14.6
	c19.3-6.8,29.4-27.9,22.6-47.2c-5.2-14.8-19.3-24.8-35-24.7c-6.8-0.1-12.3-5.6-12.4-12.4C762.8,623.5,768.3,618,775.2,618z"/>
</svg>
