<svg id="Layer_1" data-name="Layer 1" xmlns="http://www.w3.org/2000/svg" viewBox="0 0 909.97 907.44"><defs><style>.cls-1{fill:#fff;}</style></defs><path class="cls-1" d="M288.07,584.56H269.43a31.76,31.76,0,0,0-3.52.08,2.58,2.58,0,0,0-2.29,3.24,34.1,34.1,0,0,0,.84,3.42A297,297,0,0,0,465.33,795.49a265.8,265.8,0,0,0,39.25,8.73,16,16,0,0,1,3.4.84,2.34,2.34,0,0,1,.82,3.43,12.68,12.68,0,0,1-3.51,2.8l-51.06,35c-4,2.75-8.05,5.47-12,8.26s-3.92,4-.07,6.61q19,13.15,38.17,26.23c5.53,3.8,11.08,7.58,16.6,11.4a13.15,13.15,0,0,1,2.66,2.26,2.36,2.36,0,0,1-1.49,3.55,12.57,12.57,0,0,1-3-.11,386.08,386.08,0,0,1-70.45-16.37Q329.7,856.27,260.89,783.54a392.79,392.79,0,0,1-91-157.08c-3.57-11.72-6.48-23.6-8.94-35.6-1.25-6.07-.22-6.35-7.75-6.32-17.46.06-34.92,0-52.39,0-1.5,0-3,0-4.52-.13a2.19,2.19,0,0,1-1.76-3,24.79,24.79,0,0,1,2.31-3.86q23.47-34.26,47-68.5l54.95-80.13c1-1.38,1.89-2.78,3-4.06a2.43,2.43,0,0,1,3.59,0,41.5,41.5,0,0,1,2.66,3.65q35.49,51.68,71,103.35,15.81,23,31.59,46.1a19.81,19.81,0,0,1,2,3.44,2.23,2.23,0,0,1-1.85,3,27.33,27.33,0,0,1-3.51.15Z" transform="translate(-94.35 -57.32)"/><path class="cls-1" d="M807.32,418.69h15.62a27.55,27.55,0,0,0,3.52-.11,2.48,2.48,0,0,0,2.19-3.24c-.17-.65-.39-1.28-.62-1.91-27.26-73.53-75.44-128.71-145-165-25.75-13.44-53.12-22.29-81.67-27.51-5.6-1-11.29-1.6-16.94-2.41a37,37,0,0,1-4.45-.79,2.34,2.34,0,0,1-.91-4,23.38,23.38,0,0,1,2.82-2.09q22-15.1,44-30.18l15.76-10.84c.83-.57,1.7-1.08,2.49-1.71,2.14-1.72,2.12-3.14-.07-4.86-1.06-.83-2.19-1.55-3.3-2.31L586,124.1c-1.11-.76-2.24-1.5-3.26-2.36A2.25,2.25,0,0,1,582,119a2.28,2.28,0,0,1,2.38-1.5c2.68.15,5.37.31,8,.63A410.94,410.94,0,0,1,638.52,126q117.12,27.67,199.77,115.16c43.93,46.64,74.51,101,92.22,162.56,1.16,4,2.28,8.06,3.27,12.13a3.31,3.31,0,0,0,3.55,2.85c1.35,0,2.69,0,4,0h56.42a32.29,32.29,0,0,1,4.51.22,2.28,2.28,0,0,1,1.73,3.41,31.08,31.08,0,0,1-1.9,3Q950.57,500.4,899,575.51a29.19,29.19,0,0,1-2.1,2.83,2.21,2.21,0,0,1-3.51.1,38.27,38.27,0,0,1-2.69-3.63L821.17,473.54l-32.76-47.73a35.32,35.32,0,0,1-2.22-3.35c-.93-1.72,0-3.38,2-3.64a27.55,27.55,0,0,1,3.52-.13Z" transform="translate(-94.35 -57.32)"/><path class="cls-1" d="M656.58,766.46c0,4.87,0,9.74,0,14.61a24.24,24.24,0,0,0,.25,3.5,2,2,0,0,0,2.21,1.61,10.54,10.54,0,0,0,3.8-1.23,288.75,288.75,0,0,0,66.78-38.89c52.06-40.69,87.21-92.77,105-156.48a253.59,253.59,0,0,0,5.83-26,29.36,29.36,0,0,1,.88-3.93,2.37,2.37,0,0,1,4-.83,25.16,25.16,0,0,1,2.1,2.82l28.22,41.09q8,11.63,16,23.23c2.82,4.06,4.08,4,6.93-.09q17.7-25.71,35.34-51.46c.76-1.11,1.48-2.25,2.31-3.3a2.54,2.54,0,0,1,3.09-1,2.46,2.46,0,0,1,1.55,2.84c-.29,2.33-.67,4.65-1.07,7A397.06,397.06,0,0,1,661.62,892c-4.73,1.39-5.07.57-5,6.92q0,29.47,0,58.94c0,1.34.07,2.7-.05,4-.25,2.54-2.08,3.53-4.23,2.31-.87-.49-1.67-1.11-2.5-1.68Q574.88,911.13,500,859.7a33.36,33.36,0,0,1-3.23-2.4,2.22,2.22,0,0,1,.08-3.52,29,29,0,0,1,2.81-2.11L649.9,748.55a25.44,25.44,0,0,1,3-1.89,2.36,2.36,0,0,1,3.49,1.69,21.44,21.44,0,0,1,.23,3.5C656.59,756.72,656.58,761.59,656.58,766.46Z" transform="translate(-94.35 -57.32)"/><path class="cls-1" d="M429.46,96q0-16.11,0-32.23a36.09,36.09,0,0,1,.08-4c.24-2.16,2.11-3.09,4.07-2,1.17.64,2.24,1.47,3.35,2.23l37.35,25.64,110.41,75.75c1.38,1,2.8,1.86,4.11,2.91,1.67,1.33,1.72,2.9.15,4.22-1.15,1-2.43,1.79-3.67,2.64L439.21,271.41c-1.8,1.23-3.56,2.54-5.42,3.67-2.1,1.29-4,.29-4.28-2.15a34.41,34.41,0,0,1-.05-3.52c0-6.55,0-13.1,0-19.65,0-1.17,0-2.35,0-3.52-.17-2.74-1.46-3.58-4-2.57-1.4.56-2.75,1.24-4.11,1.89a297.17,297.17,0,0,0-160,198.73c-.55,2.28-1,4.6-1.43,6.9a2.58,2.58,0,0,1-4.86.86c-.79-1.08-1.53-2.21-2.29-3.31Q230.4,416.16,208,383.57c-.76-1.11-1.48-2.24-2.33-3.28-1.38-1.7-2.84-1.75-4.18-.12-.85,1-1.57,2.17-2.33,3.28q-15.4,22.4-30.82,44.78a32,32,0,0,1-2.74,3.58,2.23,2.23,0,0,1-2.37.37,1.88,1.88,0,0,1-1.36-1.91,24.92,24.92,0,0,1,.61-4.46c9.92-44.08,26.59-85.42,50.75-123.62q69.46-109.81,190-158.56c6.67-2.7,13.52-5,20.3-7.44,1.1-.4,2.21-.79,3.34-1.1a3.12,3.12,0,0,0,2.52-3.29c0-1.17,0-2.35,0-3.52Q429.47,112.16,429.46,96Z" transform="translate(-94.35 -57.32)"/><path class="cls-1" d="M657.45,534.33c-8.66-18.7-23.09-31.45-41.8-39.55C607,491,598,488.43,589,485.71c-4.79-1.45-9.6-2.83-14.31-4.22-.5-5.38-.41-77.36.09-81.4a8.63,8.63,0,0,1,1.92.26c13.37,4.92,22.78,13.86,27.63,27.37.8,2.21,1.43,4.47,2.14,6.71a33.34,33.34,0,0,0,3.84,8.17,21.48,21.48,0,0,0,13.13,9.53,28.42,28.42,0,0,0,12,.46,24.43,24.43,0,0,0,20-25.77,46.29,46.29,0,0,0-3.17-13.67c-5.68-14.21-14.84-25.81-26.68-35.36a64.5,64.5,0,0,0-17.93-10,119.61,119.61,0,0,0-28.79-6.91c-4.94-.56-4.4-.51-4.41-5.19,0-5.54,0-11.08,0-16.63a25.84,25.84,0,0,0-.89-7.46c-1.81-5.89-5.81-8.88-11.94-8.77-5.88.1-9.82,3.12-11.39,8.81a29.27,29.27,0,0,0-1,8c.07,6.05.05,12.09,0,18.14,0,2.49-.19,2.61-2.44,2.89-3.16.39-6.33.71-9.48,1.22-11,1.79-21.62,4.8-31.49,10.05-20.62,11-33.69,27.72-38.53,50.71a97.77,97.77,0,0,0-.46,36.05c2.76,17,11.29,30.66,24.4,41.62a81,81,0,0,0,17.05,10.62A233.79,233.79,0,0,0,546,524.69c3.48,1,3.25,1.49,3.25,4.48v.5q0,42.08,0,84.13c0,1,.3,2-.6,3a9.64,9.64,0,0,1-1.86-.21c-14.31-4.59-25.07-13.26-31.23-27.21-2.57-5.84-4.72-11.83-6.77-17.86-.92-2.7-1.82-5.41-2.9-8a18.9,18.9,0,0,0-9.3-10.2c-9.06-4.43-18.28-4.64-26.88.88s-12.7,13.6-11.93,24a72.64,72.64,0,0,0,9.48,31c11,19.27,27.34,32.4,47.68,40.78A127.85,127.85,0,0,0,544,657.5c1.6.25,3.62-.27,4.71,1.08s.43,3.24.44,4.89q0,23.43,0,46.85a38,38,0,0,0,1.19,10.48c1.3,4.62,4.2,7.45,9.18,8.06a21.21,21.21,0,0,0,7-.42,7.5,7.5,0,0,0,5.34-4.24,21.71,21.71,0,0,0,1.42-4.28,52.55,52.55,0,0,0,1.11-12.51q0-22.17,0-44.33c0-1.66-.28-3.35.31-5a8.23,8.23,0,0,1,1.42-.49c1.49-.23,3-.39,4.49-.59,12.9-1.68,25.31-5,36.92-11,13.68-7.07,25.16-16.66,33.46-29.76a87.11,87.11,0,0,0,13.37-39.65C665.66,561.87,663.66,547.72,657.45,534.33ZM548.78,473.46a4.33,4.33,0,0,1-1.44,0,102.82,102.82,0,0,1-18.49-9c-8.71-5.43-13.61-13.08-14.53-23.37a46.61,46.61,0,0,1,1.39-16.92,25.26,25.26,0,0,1,8.7-13.2c7.16-5.76,15.39-9.27,24-11.8a4.54,4.54,0,0,1,.58.47,1,1,0,0,1,.15.48q0,36.19,0,72.41A3,3,0,0,1,548.78,473.46ZM593,612.51a52.77,52.77,0,0,1-18.26,6.3c-.58-7.15-.41-81.66.15-85.42a2.53,2.53,0,0,1,1-.1c9.31,3,18.19,6.82,26.18,12.57,8.63,6.19,13,14.61,13.77,25.12C617.09,589.74,609,603.33,593,612.51Z" transform="translate(-94.35 -57.32)"/></svg>