<?xml version="1.0" encoding="utf-8"?>
<!-- Generator: Adobe Illustrator 24.1.0, SVG Export Plug-In . SVG Version: 6.00 Build 0)  -->
<svg version="1.1" id="Layer_1" xmlns="http://www.w3.org/2000/svg" xmlns:xlink="http://www.w3.org/1999/xlink" x="0px" y="0px"
	 viewBox="0 0 1078.5 1078.5" style="enable-background:new 0 0 1078.5 1078.5;" xml:space="preserve">
<style type="text/css">
	.st0{fill:#FFFFFF;}
</style>
<path class="st0" d="M887.8,287.5H649.1v-84.3c0-26-21-47.1-47-47.1c0,0-0.1,0-0.1,0H474.8c-26,0-47.1,21-47.1,47c0,0,0,0.1,0,0.1
	v84.1H185.9c-12,0.1-21.6,9.7-21.7,21.7l0,0v493c0.1,12,9.7,21.6,21.7,21.7h701.6c12-0.1,21.6-9.7,21.7-21.7V309.3
	c0.3-11.8-9-21.5-20.8-21.8C888.2,287.4,888,287.4,887.8,287.5z M471.4,203.1c-0.1-1.8,1.3-3.2,3.1-3.3c0.1,0,0.1,0,0.2,0h42v95.3
	c0,12,9.7,21.7,21.7,21.7s21.7-9.7,21.7-21.7v-95.3h41.8c1.8-0.1,3.2,1.3,3.3,3.1c0,0.1,0,0.1,0,0.2l0,0v97
	c0,37.1-30,67.1-67.1,67.1c-37.1,0-67.1-30-67.1-67.1l0,0L471.4,203.1z M865.8,780.3H207.9V331h224.3
	c17.1,58.8,78.6,92.6,137.4,75.5c36.4-10.6,64.9-39.1,75.5-75.5h220.7V780.3z"/>
<path class="st0" d="M612.3,445.4c-12,0-21.7,9.7-21.7,21.7c0,12,9.7,21.7,21.7,21.7c0,0,0,0,0,0h175.3c12,0,21.7-9.7,21.7-21.7
	c0-12-9.7-21.7-21.7-21.7H612.3z"/>
<path class="st0" d="M787.8,536.3H612.3c-12,0-21.7,9.7-21.7,21.7s9.7,21.7,21.7,21.7h175.3c12,0,21.7-9.7,21.8-21.7
	S799.7,536.4,787.8,536.3L787.8,536.3L787.8,536.3z"/>
<path class="st0" d="M787.8,622.2H612.3c-12,0-21.7,9.7-21.7,21.7s9.7,21.7,21.7,21.7h175.3c12,0,21.7-9.7,21.8-21.7
	S799.7,622.2,787.8,622.2L787.8,622.2z"/>
<path class="st0" d="M477.8,494.4h-42v-42c-0.1-12-9.7-21.6-21.7-21.7h-78.8c-12,0.1-21.6,9.7-21.7,21.7l0,0v42h-41.8
	c-12,0.1-21.6,9.7-21.7,21.7v78.8c0.1,12,9.7,21.6,21.7,21.7h42v42c0.1,12,9.7,21.6,21.7,21.7h78.8c12-0.1,21.6-9.7,21.7-21.7v-41.8
	h42c12-0.1,21.6-9.7,21.7-21.7v-78.8c0.1-12-9.6-21.8-21.6-21.9C478,494.3,477.9,494.3,477.8,494.4L477.8,494.4z M456.1,573.2h-42
	c-12,0.1-21.6,9.7-21.7,21.7v41.8h-35.1v-41.8c-0.1-12-9.7-21.6-21.7-21.7h-42V538h42c12-0.1,21.6-9.7,21.7-21.7v-42h35.1v42
	c0.1,12,9.7,21.6,21.7,21.7h42L456.1,573.2L456.1,573.2z"/>
</svg>
