<svg id="Layer_1" data-name="Layer 1" xmlns="http://www.w3.org/2000/svg" viewBox="0 0 921.95 723.49"><defs><style>.cls-1{fill:#fff;}</style></defs><path class="cls-1" d="M750.38,713.12c1.35.75,2.93.63,4.45.73,3.74.24,7.49.4,11.22.73a12.37,12.37,0,0,1,7.72,3.37c4.24,4.08,5.71,9,3.93,14.65A13,13,0,0,1,766,742.2a61.69,61.69,0,0,1-10.16-.2q-27-1.49-54-3.06c-2.14-.12-4.28-.23-6.42-.4-8.1-.62-15-8.87-12.24-17.72a50.6,50.6,0,0,1,2.89-6.9q11.82-24.92,23.72-49.8a20.5,20.5,0,0,1,2.12-3.7,14,14,0,0,1,24.64,11.85,22.05,22.05,0,0,1-1.52,4c-2.28,4.85-4.61,9.67-6.91,14.51a2.27,2.27,0,0,0-.32,2c1.55,0,2.6-1.1,3.78-1.85a205.86,205.86,0,0,0,73.63-80.44,204.16,204.16,0,0,0,22.68-97.66,14.85,14.85,0,0,1,2.05-8.7,14.33,14.33,0,0,1,14.75-6.54,13.74,13.74,0,0,1,10.94,11.77A77.6,77.6,0,0,1,856,520a227.43,227.43,0,0,1-7.69,56.16Q825.82,658,757,707.68c-2.17,1.56-4.35,3.11-6.52,4.68C750.37,712.43,750.42,712.7,750.38,713.12Z" transform="translate(-106.75 -147.9)"/><path class="cls-1" d="M405.38,327.41A173.81,173.81,0,0,0,375,350.11,204.81,204.81,0,0,0,323.08,424a200.17,200.17,0,0,0-14.43,56.37,169.3,169.3,0,0,0-1,26.72,14.12,14.12,0,0,1-12.77,14.64A13.71,13.71,0,0,1,279.7,509a112,112,0,0,1-.25-14.43,227.2,227.2,0,0,1,8.74-56q19.32-66.18,70.91-112a256.54,256.54,0,0,1,25-19.25c.75-2.22-.63-2.07-2.07-1.86-3.74-.23-7.48-.49-11.22-.68A13.9,13.9,0,0,1,362,301.4c-4.43-3.91-6-8.78-4.39-14.5,1.55-5.49,5.28-8.78,10.85-9.87a19.65,19.65,0,0,1,4.79-.15q20.86,1.11,41.72,2.3c7.3.41,14.61.81,21.92,1.25,1.6.09,3.2.31,4.79.54,6.63,1,13.2,8.69,10.54,17.51a23.87,23.87,0,0,1-1.32,3.51c-8.42,17.74-16.9,35.45-25.3,53.19-2.31,4.87-5.83,8-11.26,8.83a14,14,0,0,1-15.72-16.18,19.81,19.81,0,0,1,1.74-5c2-4.18,3.88-8.42,5.81-12.64C407.05,328.9,407.79,327.69,405.38,327.41Z" transform="translate(-106.75 -147.9)"/><path class="cls-1" d="M382.08,305.5a14.76,14.76,0,0,1,2.07-.38c.69,0,1.71.07,1.76.73.08.95-.73,1.51-1.76,1.51C384.19,305.93,382.75,306.14,382.08,305.5Z" transform="translate(-106.75 -147.9)"/><path class="cls-1" d="M405.38,327.41a15,15,0,0,1,1.55-1.21,1,1,0,0,1,.92,0,1.18,1.18,0,0,1,.11.94,4.84,4.84,0,0,1-1.75,3C406,329.2,406.42,328.1,405.38,327.41Z" transform="translate(-106.75 -147.9)"/><path class="cls-1" d="M687.4,808.05c.29-14.86-5.79-27-17.18-36.52-7.12-5.94-15.4-9.67-24.21-12.27a124.6,124.6,0,0,0-31.2-4.6c-12.87-.43-25.7.38-38.55.8q-52.72,1.72-105.44,3.54c-3,.1-6,.48-9.06-.42.56-2,2.17-3,3.29-4.28a44,44,0,0,0,11.11-29.45c-.05-15.13-5.66-27.77-17.51-37.49q-7.65-6.29-15-13c-15.61-14.21-29.9-29.72-44-45.4-7.41-8.24-14.78-16.52-22.35-24.61-11.9-12.71-26.74-20.08-43.74-23.17a137.77,137.77,0,0,0-28.82-2.14q-37.2,1.14-74.41,2.26c-7.67.23-15.34.46-23,.64-1.76,0-2.17-.42-2.24-2.18-.16-4.1-.05-8.23-.46-12.3a30.29,30.29,0,0,0-29.27-27.55c-4.63-.16-9.28.07-13.92.16-8.39.17-16.78.25-25.17.58a29.5,29.5,0,0,0-23,11.88,30.93,30.93,0,0,0-6.49,20.49q1.59,70.68,3.06,141.37c.34,15.88.82,31.76,1.06,47.65a30.75,30.75,0,0,0,31.19,30.22c12.68-.15,25.37-.24,38-.94,11.36-.63,19.82-6.4,25.34-16.42,2.86-5.17,3.7-10.75,3.56-16.56-.1-4.45-.2-8.89-.32-13.91,5.51-.17,10.31-.29,15.11-.48a3.18,3.18,0,0,1,2.42.87l3.14,2.91,64,60.24q20.1,18.9,40.21,37.81A91.61,91.61,0,0,0,366,866.08a93.63,93.63,0,0,0,37.45,5.1c30.64-1.92,61.3-3.61,91.95-5.41q73-4.28,146-8.57a45.9,45.9,0,0,0,14.12-2.8C672.6,847.78,687,829.47,687.4,808.05ZM178,763.37c-1.23.15-2.49.16-3.74.19l-28.38.59c-.54,0-1.07.06-1.61.06-4.75,0-5.3-.47-5.44-5.07-.19-5.89-.28-11.78-.41-17.67q-1.76-83-3.52-166c0-1.43,0-2.86,0-3.93a3,3,0,0,1,2.56-2.79,23.78,23.78,0,0,1,2.67-.17l31.06-.67a17,17,0,0,1,3.2.1,2.45,2.45,0,0,1,2.17,2.07,29.07,29.07,0,0,1,.23,3.73q1.55,70.41,3.07,140.83.44,20.34.92,40.69c0,1.61.13,3.21.1,4.82A2.93,2.93,0,0,1,178,763.37Zm477.64,55.84a23.6,23.6,0,0,1-5.63,6.4,16.67,16.67,0,0,1-9.91,3.53c-10,.53-20,1.15-29.94,1.73q-104,6.06-207.94,12.19c-19.33,1.17-35.8-4.7-49.82-17.95q-38.18-36.06-76.43-72l-33.14-31.24c-.91-.86-1.84-1.69-2.78-2.53a13.88,13.88,0,0,0-10.3-3.62c-6.42.29-12.85.36-19.28.48-2.1,0-2.5-.31-2.56-2.33-.16-5.71-.26-11.42-.38-17.13q-.88-41-1.76-81.92c0-1.25,0-2.5.06-4.32a24.35,24.35,0,0,1,2.83-.45c31.58-1,63.16-2,94.74-2.85a120.27,120.27,0,0,1,24,1.62c12.4,2.15,23,7.41,31.42,16.92q16.56,18.63,33.49,36.93c15.26,16.57,31.23,32.42,48.71,46.68a19.08,19.08,0,0,1,6.85,11.77,17.78,17.78,0,0,1-9.67,19.17,15.54,15.54,0,0,1-12.49.63,30,30,0,0,1-9.6-5.72c-11-9.43-21.4-19.47-31.81-29.51-6.69-6.44-13.35-12.91-20.05-19.35a19.16,19.16,0,0,0-5.63-4,14,14,0,0,0-17,20.93,21.21,21.21,0,0,0,2.52,2.76q18.13,17.49,36.29,34.93a331.6,331.6,0,0,0,33.58,28.26c10.65,7.8,22.23,13.58,35.24,16.25a95,95,0,0,0,22.39,1.73q65.57-2.22,131.12-4.46a141.92,141.92,0,0,1,26.7,1.6,55.1,55.1,0,0,1,18.71,6.27C659.5,796.83,662.66,807.37,655.68,819.21Z" transform="translate(-106.75 -147.9)"/><path class="cls-1" d="M1028.69,445.44q-1.92-85.12-3.64-170.24c-.14-6.42-.27-12.84-.56-19.26a30.57,30.57,0,0,0-31.16-29.05c-4.63.13-9.28.15-13.92.23-7.49.13-15,.11-22.48.44-12.46.56-21.72,6.34-27.42,17.54a27.29,27.29,0,0,0-3,12.92c.07,4.82.21,9.64.26,14.46,0,1.8-.42,2.23-2.16,2.3-3,.11-6.07.08-9.1.24-6.7.37-5.31.17-9.36-3.63q-42.57-40-85.06-80c-7.29-6.85-14.44-13.86-21.93-20.47-17.44-15.41-37.79-23.49-61.19-23-11.77.26-23.53,1.11-35.29,1.8q-104.49,6.14-209,12.25a44.84,44.84,0,0,0-30.8,14.26c-9.43,9.78-14.85,21.5-14.89,35.14,0,18.67,9.06,32.26,24.85,41.57a80.49,80.49,0,0,0,27.19,9.5,141.21,141.21,0,0,0,28.81,2.18c25.86-.78,51.73-1.67,77.59-2.52q30.51-1,61-2.05a18.3,18.3,0,0,1,6.12.57c-.13.56-.12.79-.22.9-.7.8-1.43,1.58-2.14,2.37a43.82,43.82,0,0,0-12,30.71c.12,14.71,5.52,27.11,17,36.64,3.16,2.62,6.3,5.27,9.39,8,16.43,14.37,31.42,30.18,46,46.36q12.93,14.32,25.92,28.59c10.56,11.56,23.61,18.85,38.79,22.5a126,126,0,0,0,32.42,3.39c20.7-.49,41.39-1.16,62.08-1.78,12.49-.38,25-.81,37.46-1.2,1.48,0,2,.41,2,1.81.11,3.75,0,7.5.29,11.24,1.08,16.64,14,29.11,30.58,29.14,12.85,0,25.7-.29,38.54-.86,9.66-.43,17.4-4.93,23.1-12.78C1027.27,459.61,1028.86,452.86,1028.69,445.44Zm-127-35.6c-23.37.72-46.74,1.49-70.12,2.13a109.85,109.85,0,0,1-27.17-2.28,50.58,50.58,0,0,1-27.37-15.77q-18.8-20.94-37.9-41.61a436.44,436.44,0,0,0-44.67-42.39,19.12,19.12,0,0,1-7.27-14.9c-.3-9.38,7.9-17.95,17-17.8,4.25.07,8,1.76,11.47,4.06a46,46,0,0,1,4.22,3.29c10.91,9.24,21.18,19.17,31.43,29.13q10,9.71,20,19.37a16.07,16.07,0,0,0,8.25,4.69,14,14,0,0,0,14.17-21.71,22.65,22.65,0,0,0-2.85-3.19c-13-12.5-26-25-39.06-37.46a304.75,304.75,0,0,0-31.77-26.26,89.35,89.35,0,0,0-37.1-15.95A85.15,85.15,0,0,0,665.44,232q-53,1.75-106,3.51c-12.84.41-25.68,1.26-38.54.82a96.85,96.85,0,0,1-25.83-4.29,38,38,0,0,1-9.67-4.55c-10-6.66-11.49-15.57-6.83-25.66a22.48,22.48,0,0,1,4.29-6.12A17.52,17.52,0,0,1,495.14,190c14.08-.69,28.16-1.57,42.24-2.4l195.13-11.41a78.78,78.78,0,0,1,15,.33,60.46,60.46,0,0,1,31.79,14.29c2.18,1.84,4.29,3.78,6.37,5.74q52.88,49.74,105.75,99.52c.91.86,1.86,1.68,2.73,2.58a15.67,15.67,0,0,0,12.56,4.85c5.88-.25,11.77-.37,17.66-.54.54,0,1.07-.09,1.61-.07a1.3,1.3,0,0,1,1.41,1.26c.09.88.16,1.77.18,2.66q1.08,48.72,2.13,97.45c0,1.42-.07,2.84-.12,4.75Zm96.38,40.47a23.58,23.58,0,0,1-2.66.15l-31.59.77a15.22,15.22,0,0,1-2.14-.06c-2-.2-2.92-1-3-3.06-.22-4.64-.3-9.28-.4-13.92q-1.84-85.41-3.67-170.81c0-1.25,0-2.5,0-3.76,0-2.91.79-3.85,3.77-4,7.49-.25,15-.37,22.49-.53,3.75-.08,7.5-.16,11.25-.2,3.58,0,4.28.59,4.41,4.35.23,6.24.35,12.49.48,18.74q1.77,82.73,3.51,165.46c0,1.6,0,3.21,0,4.38C1000,449.41,999.28,450.14,998.12,450.31Z" transform="translate(-106.75 -147.9)"/><path class="cls-1" d="M757.19,532.41c2.09-8.92.22-13.56-7.38-18.76-.88-.61-1.78-1.2-2.66-1.8l-12.86-8.72a4.62,4.62,0,0,1-2.31-3.89,151.67,151.67,0,0,0-5.14-31.67,5.17,5.17,0,0,1,1.1-4.91c4.14-5.37,8.31-10.72,12.32-16.19s4.48-11.14.85-17q-12.14-19.6-24.28-39.22a16.8,16.8,0,0,0-3-3.73,14,14,0,0,0-12.49-3.23c-6.84,1.3-13.69,2.54-20.51,4a4.41,4.41,0,0,1-4.32-1.2A163.37,163.37,0,0,0,656,370.54c-2.53-1.65-6-2.48-7.39-5.06s-1.17-5.88-1.59-8.88c-.62-4.42-1.13-8.85-1.76-13.27-1-6.91-4.68-11.44-11.65-13-.87-.19-1.74-.41-2.61-.62l-39.68-9.35c-1.57-.37-3.14-.74-4.73-1-5-.69-9.12,1.09-12.44,4.8a30,30,0,0,0-2.14,3.07c-3.53,5.16-7.08,10.3-10.55,15.49a5.15,5.15,0,0,1-4.33,2.55,150.74,150.74,0,0,0-31.64,5.21,4.42,4.42,0,0,1-4.37-1c-5.36-4.17-10.88-8.12-16.17-12.36a14.88,14.88,0,0,0-17.45-.94q-19.26,12.19-38.78,24a15.1,15.1,0,0,0-7.08,16.51c1.31,6.29,2.34,12.65,3.66,18.93a6,6,0,0,1-1.58,5.77,143.33,143.33,0,0,0-17.53,24.27,6.77,6.77,0,0,1-5.76,3.9c-6.57.66-13.09,1.71-19.63,2.65s-10.53,4.83-12.29,11.12c-.09.35-.16.7-.25,1.05q-5,21.4-10.1,42.81a22,22,0,0,0-.7,5.3,13.4,13.4,0,0,0,4.73,10.39,45,45,0,0,0,4.3,3.18c4.57,3.12,9.12,6.28,13.76,9.29a6.31,6.31,0,0,1,3.36,5.54A140.68,140.68,0,0,0,408.48,551a6,6,0,0,1-1.2,5.84c-4,5.05-7.81,10.21-11.72,15.31a16.17,16.17,0,0,0-3.11,6.07,13.49,13.49,0,0,0,1.3,10.45c.62,1.08,1.29,2.14,1.94,3.21q10.59,17.1,21.16,34.22c.57.91,1.13,1.83,1.7,2.73,3.61,5.77,8.71,8.24,15.49,7,6.49-1.21,13-2.31,19.47-3.68a6.43,6.43,0,0,1,6.28,1.65A141.65,141.65,0,0,0,484,651.3a6.48,6.48,0,0,1,3.66,5.35q1.13,9.57,2.53,19.12c1.11,7.56,4.64,11.39,12.06,13.17,9.39,2.26,18.8,4.45,28.19,6.66,5.57,1.32,11.13,2.68,16.72,3.93,6,1.33,10.9-.55,14.67-5.38.55-.7,1-1.46,1.54-2.19,3.23-4.71,6.6-9.33,9.65-14.16,1.66-2.64,3.47-4,6.79-4.1a132,132,0,0,0,15.93-2c4.57-.76,9.11-1.78,13.6-2.94a5.24,5.24,0,0,1,5.38,1.17c1.87,1.65,4,3,6,4.55,3.56,2.7,7.07,5.46,10.68,8.08,4.79,3.46,10.09,4.08,15.13,1q20.93-12.57,41.52-25.66c5-3.17,6.68-8.18,6-14-.2-1.6-.54-3.17-.84-4.75-1-5.44-2-10.88-3.13-16.31a5,5,0,0,1,1.32-4.83,129,129,0,0,0,16.77-22.84c2.15-3.82,4.56-5.76,9-6,5.68-.33,11.32-1.43,17-2.22,7-1,11.23-5,12.94-11.81.09-.34.17-.69.25-1C750.63,560.26,753.94,546.34,757.19,532.41Zm-38.81,28.43c-5.5.66-11,1.47-16.45,2.22a17.63,17.63,0,0,0-8,2.86c-2.43,1.72-3.88,4.17-5.18,6.71a129.2,129.2,0,0,1-16,24c-2.4,2.87-4.9,5.69-7.53,8.35a15.31,15.31,0,0,0-4.38,14.7c1.09,5.43,2,10.9,3.14,16.3.52,2.4.2,3.93-2.11,5.28-6.33,3.69-12.49,7.66-18.74,11.49-2.54,1.56-2.58,1.55-5.1-.35-4.41-3.33-8.88-6.61-13.2-10.06a15.47,15.47,0,0,0-15.55-2.81,131.73,131.73,0,0,1-40,6.54,15.46,15.46,0,0,0-13.82,7.63c-3.08,4.81-6.47,9.41-9.63,14.17a3.23,3.23,0,0,1-4,1.61q-11.19-2.78-22.44-5.29a3.23,3.23,0,0,1-2.88-3.22c-.69-5.66-1.65-11.3-2.29-17-.69-6.24-3.79-10.42-9.41-13.28a131.5,131.5,0,0,1-32-23.08c-2.33-2.26-4.74-4.37-8.17-4.91a13.73,13.73,0,0,0-6.83,0c-6,1.11-11.94,2.18-17.89,3.37a2.53,2.53,0,0,1-3.13-1.2c-4.2-6.86-8.41-13.71-12.69-20.52a3,3,0,0,1,.32-3.88c3.49-4.52,6.94-9.07,10.42-13.6a18.76,18.76,0,0,0,3.5-6.58,16.6,16.6,0,0,0-.68-9.48,126.1,126.1,0,0,1-5-21.89,132.64,132.64,0,0,1-1.33-16.53,33.94,33.94,0,0,0-.48-5.32,13.72,13.72,0,0,0-6.18-9q-6.6-4.57-13.23-9.11c-.88-.61-1.75-1.25-2.65-1.82a2.12,2.12,0,0,1-1.06-2.25,19.11,19.11,0,0,1,.44-2.1c1.63-7,3.41-13.89,4.85-20.89.54-2.63,1.9-3.43,4.31-3.7,5.32-.59,10.61-1.51,15.93-2.08a15.88,15.88,0,0,0,13.37-9.34,124.42,124.42,0,0,1,23-32c4.71-4.75,6.26-10.11,4.7-16.62-1.24-5.2-2-10.51-3.06-15.76-.33-1.7-.17-3,1.56-4,6.74-4,13.42-8.21,20.07-12.4a2.93,2.93,0,0,1,3.85.26c4.37,3.41,8.91,6.58,13.17,10.11,5.15,4.28,10.59,5.21,17,3.07a123.29,123.29,0,0,1,39-6.29c6,0,10.64-2.29,13.95-7.43,3.09-4.8,6.48-9.4,9.63-14.16,1-1.51,2-2.3,3.91-1.82,7.64,1.88,15.3,3.67,23,5.43a3,3,0,0,1,2.6,2.86c.74,6,1.62,12,2.41,18a15.6,15.6,0,0,0,3.5,8.27,15.8,15.8,0,0,0,5.16,3.77,130.5,130.5,0,0,1,32.91,23.68c4.5,4.45,9.49,5.9,15.61,4.53,5.57-1.25,11.23-2.11,16.83-3.24a2.94,2.94,0,0,1,3.55,1.53q6.11,10.08,12.4,20.07a3,3,0,0,1-.13,3.86c-3.37,4.38-6.56,8.92-10.09,13.17-4.28,5.14-5.3,10.6-3.2,17a128.19,128.19,0,0,1,6.31,38.43,19.35,19.35,0,0,0,1,6.86,15.28,15.28,0,0,0,6,7.33c4.9,3.26,9.72,6.66,14.61,9.93,1.66,1.11,2.38,2.3,1.84,4.42-1.83,7.28-3.6,14.58-5.15,21.92C721.9,560,720.55,560.58,718.38,560.84Z" transform="translate(-106.75 -147.9)"/><path class="cls-1" d="M167.24,595.39a11.32,11.32,0,0,1-21.93-5.61,11.32,11.32,0,1,1,21.93,5.61Z" transform="translate(-106.75 -147.9)"/><path class="cls-1" d="M990.12,429.46a11.32,11.32,0,1,1-8.26-14A11.42,11.42,0,0,1,990.12,429.46Z" transform="translate(-106.75 -147.9)"/><path class="cls-1" d="M588.83,415c-53.19-11.78-103.15,22.46-115.1,70.8-13,52.42,18.88,106.37,72.79,118.34,54.43,12.07,104.1-23.37,115.32-71.84A97,97,0,0,0,588.83,415ZM552.05,576.47c-36.37-8.07-60.2-45.58-51.18-83.28,8.1-33.82,43.21-59.64,82.27-50.73,37.67,8.59,60.22,46.28,51.47,83.16C625.81,562.7,588,585.28,552.05,576.47Z" transform="translate(-106.75 -147.9)"/></svg>