<svg id="Layer_1" data-name="Layer 1" xmlns="http://www.w3.org/2000/svg" viewBox="0 0 674.04 664.9"><defs><style>.cls-1{fill:#fff;}</style></defs><path class="cls-1" d="M642.29,545H555c-1.34,0-2.67,0-4-.08a11.54,11.54,0,0,1-1.89-22.66,23.28,23.28,0,0,1,3.23-.47c.84-.07,1.69,0,2.54,0H729.46a22.66,22.66,0,0,1,5.06.31,11.56,11.56,0,0,1-1.68,22.87c-1.21,0-2.42,0-3.63,0Z" transform="translate(-174.03 -182.05)"/><path class="cls-1" d="M641.8,614.71H555.25c-1.33,0-2.67,0-4-.06a11.6,11.6,0,0,1-.22-23.12,25.43,25.43,0,0,1,2.9-.06H730.31a19.07,19.07,0,0,1,5,.47,11.59,11.59,0,0,1-2.27,22.71c-1.32.11-2.66.06-4,.06Z" transform="translate(-174.03 -182.05)"/><path class="cls-1" d="M642.18,475.29H554.89a39.43,39.43,0,0,1-4.35-.14,11.54,11.54,0,0,1-.62-22.78,29.6,29.6,0,0,1,4-.26H730.3c1.09,0,2.18.06,3.27.13,5.09.35,10.29,5.16,10.23,11.72-.06,5.51-4.59,11-10.69,11.26-1.33.06-2.67.07-4,.07Z" transform="translate(-174.03 -182.05)"/><path class="cls-1" d="M487.73,587.13c0,5.57.22,11.16,0,16.72-.69,15-8.11,25.51-21.81,31.55a30,30,0,0,1-12,2.52c-9.82.05-19.63,0-29.45,0a12.81,12.81,0,0,1-3.93-.57,11.59,11.59,0,0,1,2.4-22.62c1.09-.1,2.18,0,3.27,0,8.61,0,17.21,0,25.82,0a12.92,12.92,0,0,0,5.33-.88,11.26,11.26,0,0,0,7.12-9.73c.12-1.2.08-2.42.08-3.63q0-15.09,0-30.17a26.43,26.43,0,0,1,.25-4,11.63,11.63,0,0,1,12.17-9.71,11.47,11.47,0,0,1,10.75,11.24c.16,5.09.05,10.18.06,15.27v4Z" transform="translate(-174.03 -182.05)"/><path class="cls-1" d="M220.56,421.94c0-5.45.07-10.9,0-16.35a34.77,34.77,0,0,1,29.57-34.4,27.29,27.29,0,0,1,4.34-.3c9.94,0,19.88,0,29.81,0A11.13,11.13,0,0,1,294.65,377a11.49,11.49,0,0,1-7.46,16.64,19.37,19.37,0,0,1-4.68.47q-12.36,0-24.72,0c-1.09,0-2.19,0-3.27,0A11.33,11.33,0,0,0,243.84,405c-.1,2.3,0,4.61,0,6.91q0,13.45,0,26.9a17.09,17.09,0,0,1-.57,5,11.49,11.49,0,0,1-12.62,8.1,11.29,11.29,0,0,1-10-10.73c-.14-3-.05-6.06-.05-9.09C220.55,428.73,220.56,425.34,220.56,421.94Z" transform="translate(-174.03 -182.05)"/><path class="cls-1" d="M220.56,586.69c0-6.18,0-12.36,0-18.54a11,11,0,0,1,4.8-9.31c7.43-5.35,17.45-.62,18.37,8.63a32.39,32.39,0,0,1,.06,3.27v28.72c0,.85,0,1.7,0,2.54a11.92,11.92,0,0,0,12.61,12.77c6.29-.28,12.61-.06,18.91-.06,3.15,0,6.3-.08,9.45,0a11.6,11.6,0,0,1,.87,23.13,15.73,15.73,0,0,1-1.82.08c-9.69,0-19.4.24-29.08-.07-13.11-.41-23.11-6.47-29.75-17.81a32.05,32.05,0,0,1-4.42-16.29c0-5.7,0-11.39,0-17.09Z" transform="translate(-174.03 -182.05)"/><path class="cls-1" d="M487.75,421.58c0,5.94,0,11.88,0,17.81a17.59,17.59,0,0,1-.31,4,11.6,11.6,0,0,1-22.43.12,20,20,0,0,1-.49-5.05q0-15.09,0-30.17c0-1.21,0-2.42-.07-3.63a11.36,11.36,0,0,0-10.64-10.5c-1.09,0-2.18,0-3.27,0q-12.36,0-24.72,0a19.39,19.39,0,0,1-5-.56A11.54,11.54,0,0,1,423,370.91c.48,0,1-.05,1.45-.05,9.7,0,19.39,0,29.08,0a33.36,33.36,0,0,1,22.8,8.95,33,33,0,0,1,11.35,23.94c.24,5.93.05,11.88.05,17.81Z" transform="translate(-174.03 -182.05)"/><path class="cls-1" d="M174.06,509.85c0-3.87-.09-7.75,0-11.62a11.42,11.42,0,0,1,8.92-11,11.6,11.6,0,0,1,14.2,10,7.73,7.73,0,0,1,.08,1.08c0,8,.16,16-.05,24a11.58,11.58,0,0,1-23.15-.08c-.08-4.11,0-8.22,0-12.34Z" transform="translate(-174.03 -182.05)"/><path class="cls-1" d="M238,696.06c1.94,0,3.88,0,5.81,0a11.57,11.57,0,0,1,.8,23.12,100.32,100.32,0,0,1-13.43,0,11.38,11.38,0,0,1-10.56-10.24,11.63,11.63,0,0,1,8-12.38,10,10,0,0,1,3.21-.48c2.06,0,4.11,0,6.17,0Z" transform="translate(-174.03 -182.05)"/><path class="cls-1" d="M737,296.69c3.57,35.12-18.14,80.34-65.66,95.65a95.79,95.79,0,0,1-86-168.36c37.71-27.88,88.49-23.47,120.54,5.73l-53.05,53a7.76,7.76,0,0,1-2.52-2.11q-16.6-16.56-33.18-33.16a14,14,0,0,0-5.65-3.82,11.4,11.4,0,0,0-10.95,2,19.07,19.07,0,0,0-1.85,1.75q-15.42,15.42-30.86,30.85a14.41,14.41,0,0,0-3.6,4.95,11.24,11.24,0,0,0,1.6,11.34,23,23,0,0,0,2.48,2.65q20.94,21,41.91,41.92,16.61,16.56,33.24,33.09a13.87,13.87,0,0,0,6.36,4A11.33,11.33,0,0,0,660,374a28.41,28.41,0,0,0,2.64-2.51l71.74-71.74C735.31,298.79,736.11,297.71,737,296.69Z" transform="translate(-174.03 -182.05)"/><path class="cls-1" d="M848,362.39a53.55,53.55,0,0,0-.24-5.81c-1.49-13.65-8.41-23.46-20.86-29.3a33.35,33.35,0,0,0-14.48-2.92q-24.91.06-49.83,0c-1.15,0-2.36.25-3.56-.38A110.15,110.15,0,0,0,761,309.85a119,119,0,0,0-1.84-31.12c-.63-3.09-.6-3.1,1.67-5.38q18.13-18.12,36.27-36.26a34.06,34.06,0,0,0,2.72-2.92,11.17,11.17,0,0,0,2.29-8.88,12.44,12.44,0,0,0-3.94-7.18q-15.71-15.66-31.38-31.36a17,17,0,0,0-1.88-1.72,11.41,11.41,0,0,0-10.65-1.83,14,14,0,0,0-5.67,3.8q-12.06,12.1-24.17,24.17c-.66.65-1.15,1.57-2.24,1.65a119.35,119.35,0,0,0-138.66-15.36c-39,22.08-68.67,68.65-58.3,126.92H212.54c-1.45,0-2.91,0-4.36,0a33.6,33.6,0,0,0-23.75,10.23,34.61,34.61,0,0,0-10.37,25.2q0,51.29,0,102.56c0,.73,0,1.46,0,2.18a11.6,11.6,0,0,0,22.7,2.38,17.94,17.94,0,0,0,.5-5.4q0-49.47,0-98.93c0-1.33-.05-2.67.06-4a11.77,11.77,0,0,1,11.48-11c.84,0,1.69,0,2.54,0H528.54c1.31,0,2.87-.52,3.88.37.84.73,1.15,2.08,1.66,3.18a119.1,119.1,0,0,0,101,68.74,113.33,113.33,0,0,0,33.22-2.65q50.49-12,77.08-56.73a98,98,0,0,0,5.76-11.33,2.16,2.16,0,0,1,2.46-1.6,13.81,13.81,0,0,0,1.82,0H811c.85,0,1.7,0,2.54,0a11.55,11.55,0,0,1,10.88,9.52,31.59,31.59,0,0,1,.38,5.42q0,23.1,0,46.19v248q0,1.63-.06,3.27a1.06,1.06,0,0,1-1.16,1.1c-1,0-1.94,0-2.91,0H781.07c-1.09,0-2.18,0-3.27,0a11.57,11.57,0,0,0-2.61,22.69,17.51,17.51,0,0,0,5,.53H821c1,0,1.93,0,2.9.06a1,1,0,0,1,.92.93c.05.6.06,1.21.06,1.82,0,9.94,0,19.88,0,29.82a18.44,18.44,0,0,1-.41,4.33c-1.19,4.89-4.17,8.08-9.17,9.24a20.68,20.68,0,0,1-4.71.28h-599c-1,0-1.95,0-2.91,0a11.81,11.81,0,0,1-10.69-8.47,15.27,15.27,0,0,1-.6-5q0-14.73,0-29.46c0-3.85-.43-3.47,3.5-3.49H729.65a25.46,25.46,0,0,0,3.27-.09,11.59,11.59,0,0,0-1-23.14c-1.33,0-2.66,0-4,0H202.35c-1.09,0-2.18,0-3.27,0-1.58,0-1.73-.17-1.77-1.59,0-1,0-1.94,0-2.91V559.58c0-1.33,0-2.67-.09-4A11.59,11.59,0,0,0,174.37,554a18.94,18.94,0,0,0-.31,4.33q0,27.65,0,55.28V716.88a40,40,0,0,0,.63,8.32c2.62,12.54,9.71,21.41,21.56,26.41,4.89,2.07,10,2.57,15.3,2.56H436.32c1,0,1.94,0,2.91,0,2,0,2,0,2,2,0,.6,0,1.21,0,1.81v61.83c0,.73,0,1.46,0,2.18,0,1.58-.12,1.69-1.66,1.69-6.43,0-12.86,0-19.28,0A27.29,27.29,0,0,0,416,824a11.54,11.54,0,0,0,1.18,22.86c1.21.08,2.42.05,3.63.05H601.21c1.21,0,2.43,0,3.63-.06a11.92,11.92,0,0,0,2.85-.51A11.55,11.55,0,0,0,605.81,824a25.3,25.3,0,0,0-4-.24c-5.81,0-11.63,0-17.45,0-.85,0-1.7,0-2.55-.05a1.06,1.06,0,0,1-1.05-1.19c0-.85,0-1.7,0-2.55V757.75c0-.73,0-1.46,0-2.18,0-.88.36-1.37,1.26-1.39H809.33c1.34,0,2.67,0,4,0,13.85-.67,24.2-7,30.78-19.25,3.11-5.81,4-12.11,3.95-18.63Q848,539.32,848,362.39ZM655.62,345.62c-.93.92-1.9,1.81-2.66,2.53L637,332.28l-.18.16c-2.11-1.51-16.58-15.71-24.6-24-6.92-6.71-16.5-16.33-20.49-20.71,1.3-2.06,12-13,16.08-16.34l17,17.06,0,0,27.59,27.69L754.73,213.69c.94-.93,1.91-1.84,3.11-3l15.42,15.44c.59.59.76,1.18.06,1.83s-1.2,1.2-1.8,1.8ZM557.5,758.13v61.79c0,.85,0,1.7,0,2.54s-.51,1.26-1.36,1.26-1.7,0-2.55,0H468.53c-4.55,0-4,.37-4-4.15q0-30.72,0-61.43c0-4.26-.5-4,3.81-4h87.24c1.88.05,1.89.06,1.93,1.78C557.51,756.68,557.5,757.4,557.5,758.13Z" transform="translate(-174.03 -182.05)"/><path class="cls-1" d="M439.16,573.12c-6.62-26.61-22.56-45.63-47.07-57.64-1.07-.52-2.16-1-3.55-1.68,31.64-23.78,31.52-65.12,9.29-89a59.68,59.68,0,0,0-95.66,11.37,56.74,56.74,0,0,0-2.73,5.53,59.51,59.51,0,0,0-3.69,11.75,52.71,52.71,0,0,0-.87,6.12c-.16,2.05-.16,4.11-.12,6.17s.14,4.37.39,6.53a54.35,54.35,0,0,0,1.09,6.07,60.91,60.91,0,0,0,1.65,6,59.89,59.89,0,0,0,2.3,5.72,58.32,58.32,0,0,0,6.33,10.58,59.41,59.41,0,0,0,3.94,4.75c1.4,1.51,2.9,2.93,4.43,4.31s3.1,2.61,4.91,4.13c-1.59.75-2.87,1.33-4.13,2-21.56,10.63-36.59,27.12-44.47,49.9A77.16,77.16,0,0,0,267,591.7a11.63,11.63,0,0,0,11.39,11.36H426.82c.84,0,1.7,0,2.54,0a11.58,11.58,0,0,0,11.9-11.94A83.29,83.29,0,0,0,439.16,573.12ZM317.93,464.43c.24-18.44,15.55-35.63,36.29-35.51a36.16,36.16,0,1,1-36.29,35.51ZM291.79,579.69a8.44,8.44,0,0,1,.49-3.65c5.24-18,16.52-31,33.27-39.22a63.78,63.78,0,0,1,32.08-6.45c25,1.35,46.05,16.25,55.31,37.21a52.8,52.8,0,0,1,3.83,12.11Z" transform="translate(-174.03 -182.05)"/></svg>