<?xml version="1.0" encoding="utf-8"?>
<!-- Generator: Adobe Illustrator 24.1.0, SVG Export Plug-In . SVG Version: 6.00 Build 0)  -->
<svg version="1.1" id="Layer_1" xmlns="http://www.w3.org/2000/svg" xmlns:xlink="http://www.w3.org/1999/xlink" x="0px" y="0px"
	 viewBox="0 0 1069.6 1069.6" style="enable-background:new 0 0 1069.6 1069.6;" xml:space="preserve">
<style type="text/css">
	.st0{fill:#FFFFFF;}
</style>
<path class="st0" d="M824.9,400.2V214.5c0-28.7-20.4-49.8-48.3-49.8c-152.6,0-305.2,0-457.9,0c-11-0.2-21.7,3.6-30.1,10.7
	c-13.3,10.7-18.2,24.9-18.2,41.7c0.2,206.3,0.2,412.7,0,619v6.4c0.9,19.6,13.5,36.7,32,43.3c2.6,1,5.7,0.5,7.8,2.8h317.9
	c18.5-3.6,31.7-14.7,44.5-27.7c43.3-43.8,86.9-87.6,130.8-131c14.7-14.5,21.6-31,21.3-51.6C824.9,585.4,825,492.7,824.9,400.2z
	 M680.6,816.2v-60c0-7.3,4-12.3,10.7-12.3c20.8-0.2,41.7,0,61.8,0L680.6,816.2z M760.9,719.5c-21.5-0.7-43.3-0.2-64.9,0
	c-24.9,0-39.3,14.7-39.3,39.6v66.3c0,23.7-15.4,38.8-39.1,38.8H322.5c-18,0-27.5-9.2-27.5-27.2V526.9c0-103,0.2-206.3-0.2-309.4
	c0-19.4,13.3-28.9,28.7-28.7c149.7,0.5,299.5,0.6,449.4,0.2c19.7,0,28.7,8.8,28.7,28.2c0,154-0.2,307.9,0.2,461.9
	C801.2,701,786.5,720.2,760.9,719.5L760.9,719.5z"/>
<path class="st0" d="M559.8,333.6c-0.2-59.7,48.1-108.5,107.8-108.7h0.5c60-0.3,108.9,48.2,109.2,108.3S729.1,442.1,669,442.4
	c-59.6,0.3-108.3-47.5-109.2-107.1V333.6z"/>
<path class="st0" d="M548.5,611H747c2.6,0,5.2,0,7.8,0.2c5.9,0.9,9.2,4.5,10,10.2s-1.7,10-7.1,12.6c-3.1,1.4-6.4,1.2-9.7,1.2H343.1
	c-7.6-0.5-12.8-5.9-12.3-12.8c0.2-6.6,5.2-11.4,12.8-11.4c23.7-0.2,47.6,0,71.3,0H548.5z"/>
<path class="st0" d="M493.3,683.3h149c10.4,0,16.6,7.8,13,16.3c-1.9,4.7-5.7,7.3-10.9,7.6c-4.5,0.2-9,0-13.5,0H348.1
	c-2.4,0.2-4.7,0.1-7.1-0.2c-6.5-1-11-7.1-9.9-13.7c0.8-5.4,5.2-9.5,10.7-10c2.4-0.2,4.7-0.2,7.1,0L493.3,683.3z"/>
<path class="st0" d="M469.6,779.4H345.9c-5,0-9.5-0.5-12.5-4.7c-4-5.2-3.1-12.6,2.1-16.6c0.1-0.1,0.2-0.1,0.2-0.2
	c1.6-1.1,3.3-1.9,5.2-2.4c2.4-0.3,4.7-0.4,7.1-0.2h245.6c8.8,0.2,14.5,4.7,14.5,12.1c0,7.1-5.5,12.1-14.5,12.1
	C552.3,779.4,510.8,779.7,469.6,779.4z"/>
<path class="st0" d="M403.3,359.7c0-16.4-9.7-25.8-25.8-26.3c-5.9-0.2-11.8,0-17.8,0c-19.9,0-28.9,9-28.9,28.9v185.2
	c0,17.5,9.5,27,27,27.2h17.1c19.4,0,28.7-9,28.7-28.4v-92.6C403.3,422.2,403.3,391,403.3,359.7z M372.7,550.6
	c-5.7-0.5-13,1.9-16.4-1c-4-3.3-1.2-11.1-1.2-16.8c0-56.1,0-112-0.2-168.2c0-5.5,1.2-7.1,6.9-7.1c17.3,0.2,17.3,0,17.3,17.8v78.4
	l0,0c0,30.1-0.2,60.2,0.2,90.5C379.3,549.4,377.9,551.1,372.7,550.6z"/>
<path class="st0" d="M499.7,418.2c0-14.2-10.4-24.2-24.6-24.6c-7.1-0.2-14.2,0-21.1,0c-16.6,0-26.3,9.7-26.5,26.1v64.2
	c0,22.3-0.2,44.3,0,66.3c0,14,10.2,23.9,23.9,24.2c8,0.2,16.1,0.2,23.9,0c13.7-0.2,24.2-10.4,24.2-24.2
	C499.7,506.3,499.7,462.2,499.7,418.2z M475.8,544.2c0,4.7-0.7,6.9-5.9,6.4c-5.7-0.5-13.5,1.7-17.1-1.2c-3.8-3.1-1.2-10.9-1.2-16.8
	c-0.2-16.1,0-32.5,0-48.6c0-19.9,0.2-40,0-59.9c0-4.5,0.5-7.1,5.9-6.4c5.7,0.7,13.3-2.4,17,1.2s1.2,11.1,1.2,16.8
	C475.5,472,475.5,508.2,475.8,544.2L475.8,544.2z"/>
<path class="st0" d="M595.8,467c-0.2-14.5-9.7-24.4-24.2-25.1c-8-0.2-16.1-0.2-23.9,0c-13.7,0.5-23.9,10.4-23.9,23.7
	c-0.2,28.4-0.2,56.9,0,85.5c0,13,10.2,23,23.5,23.5c8.1,0.2,16.1,0.2,23.9,0c14.7-0.2,24.6-10.2,24.6-24.9v-41
	C595.8,494.7,596.1,480.7,595.8,467z M571.9,508.2c0,12.3-0.2,24.4,0,36.7c0,4-0.5,5.9-5.2,5.7c-5.9-0.5-14,1.9-17.8-1.2
	s-1.2-11.4-1.2-17.5c-0.2-19.9,0.2-40-0.2-59.9c0-5,1.4-6.6,6.4-6.2c5.7,0.7,13.5-2.6,16.8,1.4c2.8,3.3,1,10.7,1,16.3
	C571.9,491.9,571.9,500.1,571.9,508.2z"/>
<path class="st0" d="M692.3,526.7v-26.1c-1-12.6-10.4-21.8-23-22.3c-8.3-0.2-16.3-0.2-24.6,0c-14,0.2-24.2,10-24.4,23.9
	c-0.2,15.9-0.2,32,0,47.8c0.2,14.2,10.4,24.2,24.6,24.4c7.8,0.2,15.4,0.2,23.2,0c14-0.2,23.9-9.7,24.2-23.9
	C692.5,542.5,692.3,534.8,692.3,526.7z M668.3,521v5.7c0,6.4-0.2,12.8,0,19.2c0.2,3.5-0.7,4.7-4.5,4.7c-19.7,0.7-19.7,0.7-19.7-18.7
	c0-8.3,0.2-16.6,0-24.6c0-3.5,1-5.2,4.7-4.7c6.4,0.5,14.5-2.6,18.5,1.2C670.9,506.8,667.9,515.1,668.3,521L668.3,521z"/>
</svg>
