<svg id="Layer_1" data-name="Layer 1" xmlns="http://www.w3.org/2000/svg" viewBox="0 0 623.5 769.07"><defs><style>.cls-1{fill:#fff;}</style></defs><path class="cls-1" d="M563.12,819.92c5.64-3.44,11.25-6.82,16.82-10.25a27.14,27.14,0,0,1,8.44-3.52c12.15-2.67,24.46,5.8,26.41,17.82,1.53,9.46-1.74,16.95-9.44,22.56-.57.41-1.17.76-1.77,1.12q-14.19,8.46-28.37,16.93A23.48,23.48,0,0,1,560,867.79a21,21,0,0,1-8.28-2.73c-27.16-16-54.25-32.07-79.36-51.26a564.87,564.87,0,0,1-88.52-83.93,559.35,559.35,0,0,1-117.46-232.6q-5.46-23-8.95-46.38c-1.55-10.48-2.77-21-3.73-31.57-1.78-19.47-2.38-39-2.36-58.53q.08-97.53,0-195.07a25,25,0,0,1,.76-7.46c2.55-8.27,7.88-13.75,16.33-15.73,5-1.17,10.16-1.73,15.26-2.53q15.08-2.34,30.17-4.65L349,130l29.77-4.55,30.17-4.66q14.88-2.28,29.77-4.56c10.06-1.54,20.11-3.11,30.17-4.65s19.84-3,29.77-4.56l30.17-4.65c6.33-1,12.68-1.91,19-2.94a33.85,33.85,0,0,1,5.41-.45c6.56,0,13.12.07,19.67,0A54.57,54.57,0,0,1,582,100c15.44,2.33,30.86,4.79,46.29,7.16s30.88,4.67,46.31,7,30.85,4.83,46.28,7.2c13.64,2.1,27.3,4.11,40.94,6.21,15.43,2.37,30.85,4.82,46.28,7.19s30.6,4.68,45.9,7c5.08.76,9.73,2.39,13.54,6a21.12,21.12,0,0,1,6.82,13.07,50.34,50.34,0,0,1,.42,6.25q0,101.52,0,203c0,14-.46,27.91-1.56,41.82a523.52,523.52,0,0,1-8.83,64.19c-.67,3.28-1.25,6.57-2,9.84A22.31,22.31,0,0,1,819,487.6a22.51,22.51,0,0,1-.38-10.76c2.19-10.51,4.29-21,5.81-31.66,1.1-7.73,2-15.49,3-23.23,1.06-8.59,1.68-17.23,2.07-25.86q.63-13.8.64-27.62.09-90.42,0-180.84c0-1.48.73-3.36-.57-4.36-1-.76-2.61-.72-4-1q-16.29-2.74-32.58-5.46-18.78-3.12-37.54-6.23-16.31-2.72-32.58-5.47l-38.36-6.4-37.13-6.17q-19.17-3.21-38.36-6.42c-12.51-2.08-25.06-4-37.52-6.28a45.94,45.94,0,0,0-16.94,0c-12.75,2.34-25.56,4.34-38.35,6.47l-37.12,6.17-37.55,6.22-38.35,6.41-37.13,6.18-33,5.51-35.48,5.91c-1.66.28-1.75.4-1.81,2.23,0,1,0,1.95,0,2.93q0,89.58,0,179.17c0,14.66.55,29.3,1.77,43.9A513.54,513.54,0,0,0,537,804.08c8,5,16.18,9.89,24.28,14.82C561.82,819.26,562.44,819.56,563.12,819.92Z" transform="translate(-251.29 -98.91)"/><path class="cls-1" d="M873.62,666.52a147.41,147.41,0,0,0-8.38-38.27c-14.75-40.08-41.64-69.07-80.27-87.12a152.71,152.71,0,0,0-52.72-13.68,155.76,155.76,0,0,0-83,16.42c-.82.42-1.55,1.14-2.66.88a10,10,0,0,1-.86-4c-1-7.76-1.88-15.51-2.85-23.26-1.26-10.1-2.57-20.19-3.84-30.29-1-8.16-2.08-16.32-3.06-24.48-.25-2.07-.77-4.26-.34-6.21s2.59-2.78,4-4.14c26.35-25.94,37.73-57.29,33.87-94.06-1.87-17.81-8.21-34.07-18.17-48.89a111,111,0,0,0-111.78-47.27C516.48,267,494,280,476.82,301.3c-21.72,26.95-29.33,57.8-22.93,91.84,4.47,23.78,16,43.8,33.67,60.3a13.32,13.32,0,0,0,1.91,1.62c1.28.82,1.39,2,1.2,3.3-.08.55-.13,1.1-.2,1.66-1,7.6-2,15.2-3,22.81-1.26,10-2.45,19.93-3.71,29.89-1.53,12-3.11,24.06-4.66,36.09-1.64,12.86-3.29,25.72-4.87,38.59a31.25,31.25,0,0,0-.25,6.26c.71,8.74,4.79,15.3,12.9,19.06a25.49,25.49,0,0,0,11,2.09q37.89-.07,75.77,0h4.25a4.29,4.29,0,0,1,.11.93c-.64,1.54-1.26,3.09-1.94,4.62A153.84,153.84,0,0,0,563.81,667a108.24,108.24,0,0,0-.7,19.22c.4,5.42.76,10.86,1.41,16.25.74,6.23,1.61,12.48,3.62,18.44,2.8,8.31,5.87,16.54,9,24.75a54.93,54.93,0,0,0,5.3,10.87c3.58,5.49,7.1,11,10.71,16.48a81.3,81.3,0,0,0,15.24,17.7,65.24,65.24,0,0,1,5.35,5.3,112,112,0,0,0,8.73,8.42,39.23,39.23,0,0,1,3,2.87,21.76,21.76,0,0,0,10.58,6.41,15,15,0,0,1,3.81,1.63,156.5,156.5,0,0,0,105.56,19.34,155.63,155.63,0,0,0,112.11-83.05C871.09,724.86,876.24,696.43,873.62,666.52Zm-273-95.84c-7,0-14,0-20.93,0H526.49c-1,0-2,0-2.93,0-1.68,0-1.93-.3-1.72-2q1.36-11.2,2.78-22.42,1.49-12,3-24.08t3-24.08l2.82-22.83c1-8.3,2-16.62,3.1-24.91a24.92,24.92,0,0,0-2.4-15.43,24.28,24.28,0,0,0-8.19-8.78,65.54,65.54,0,0,1-24.67-30.41c-15.51-38.59,6.22-79.1,43.65-89.48,39.5-11,75.78,14.65,83.36,50.29A67.42,67.42,0,0,1,602,424.81c-1.13.81-2.31,1.57-3.4,2.42-6.66,5.19-9.93,12-9.19,20.42.56,6.39,1.45,12.74,2.23,19.11,1,8,2,16.06,3,24.08s2,16.05,3,24.08c1,7.75,1.89,15.5,2.85,23.25,1,8.17,2,16.33,3,24.49.31,2.48.55,5,.81,7.4C603.12,571.06,601.8,570.67,600.59,570.68ZM769.83,780.91a107.76,107.76,0,0,1-37.76,11.51c-26.62,3-51.29-2.72-73.92-16.9-14.82-9.28-26.33-21.86-35.19-36.88a107.92,107.92,0,0,1-14.78-44.92c-3.13-32.87,6.47-61.63,28.51-86.26,16.76-18.72,37.85-29.6,62.36-33.8,32.46-5.56,62,1.8,88.41,21.46,1.63,1.21,3,2.87,5.39,2.88,1.14,0,1.84,1.18,2.64,1.93a107.16,107.16,0,0,1,30.14,48.4,102.46,102.46,0,0,1,4.51,32.59A111.06,111.06,0,0,1,769.83,780.91Z" transform="translate(-251.29 -98.91)"/><path class="cls-1" d="M712.63,688.51c1.08-.89,1.43-2.28,2-3.49q14-27.81,27.9-55.63a33.39,33.39,0,0,1,2.18-4,22.49,22.49,0,0,1,23.36-9.55,22,22,0,0,1,17.16,17.44,22.64,22.64,0,0,1-1.93,14.66c-2.18,4.36-4.33,8.73-6.51,13.09Q758.44,697.79,740,734.58c-.56,1.13-1.08,2.27-1.72,3.35-4.16,7-10.18,10.76-18.49,10.87A22.24,22.24,0,0,1,703,741.85c-14.64-14.74-29.38-29.37-44-44.09a22,22,0,0,1,29.66-32.55c.95.81,1.82,1.72,2.71,2.61q9.33,9.3,18.67,18.6C710.73,687.17,711.31,688.18,712.63,688.51Z" transform="translate(-251.29 -98.91)"/></svg>