<?xml version="1.0" encoding="utf-8"?>
<!-- Generator: Adobe Illustrator 24.1.0, SVG Export Plug-In . SVG Version: 6.00 Build 0)  -->
<svg version="1.1" id="Layer_1" xmlns="http://www.w3.org/2000/svg" xmlns:xlink="http://www.w3.org/1999/xlink" x="0px" y="0px"
	 viewBox="0 0 1067.8 1067.8" style="enable-background:new 0 0 1067.8 1067.8;" xml:space="preserve">
<style type="text/css">
	.st0{fill:#FFFFFF;}
</style>
<path class="st0" d="M566.7,767.4c10.3,0,22.5-3.3,30.5,0.9c7.6,4.2,11.1,16.1,16.3,24.8c10.9,18.1,9.6,28.5-5.6,43.7
	c-11.1,11.1-21.9,22.1-33,33c-11.4,11.2-23.2,12.7-36.8,4.7c-10.9-6.3-22-12.9-32.6-19.6c-3.8-2.4-6.9-2.4-10.9-0.4
	c-8.2,4-16.7,7.5-25.4,10.5c-5.1,1.6-7.1,4.3-8.3,9.4c-2.5,11.6-5.6,22.9-8.5,34.3c-4.2,16.2-13.8,24-30.3,24h-50.3
	c-16.5,0-26.1-7.8-30.3-24c-2.9-11.8-6-23.4-8.7-35.2c-0.9-4.2-2.7-6.9-7.3-8.3c-9.2-3.3-18.2-7-27-11.3c-3.4-1.6-6-1.6-9.4,0.4
	c-11.1,6.9-22.1,13.4-33.4,20c-13.8,8-25.4,6.5-36.8-4.7c-12.1-12-24.1-23.9-36.1-36.1c-11.1-11.4-12.7-23-4.7-36.8
	c6.4-10.9,12.9-22,19.6-32.7c2.5-3.8,2.4-6.9,0.4-10.9c-4-8.3-7.4-16.9-10.5-25.4c-1.6-4.5-3.8-7.1-8.5-8
	c-11.8-2.5-23.6-5.6-35.2-8.7c-16.1-4.2-24-13.8-24-30.3v-50.3c0-16.1,7.6-26.1,23.2-29.9c12-3.1,23.9-6.2,36.1-8.9
	c4.4-0.9,6.9-2.7,8.3-7.3c3.3-9.2,7.1-18.2,11.3-27c1.6-3.5,1.6-6-0.4-9.4c-6.9-11.1-13.4-22.2-19.9-33.4c-8-13.8-6.4-25.4,4.7-36.8
	c12-12.1,23.9-24.1,36.1-36.1c11.4-11.1,23-12.7,36.8-4.7c11.2,6.5,22.3,13.1,33.4,20c3.3,2,6,2,9.4,0.4c7.4-3.6,15.1-7.4,23-9.6
	s10.9-6.5,12.3-14.1c2-10.5,4.9-20.7,7.6-31c4.2-16.3,13.8-23.9,30.3-23.9c8,0,18.9-2.9,23.4,1.3c5.3,4.7,1.3,15.8,1.6,23.9
	c0.4,6.3,0.4,12.7,0,19c-0.4,4.5,3.3,11.4-5.6,12.1c-0.7,0-1.1,2.9-1.5,4.5c-2.7,10.5-5.6,21.2-8.2,31.7
	c-2.9,11.8-9.8,19.4-21.6,22.3c-18.2,4.4-35.6,11.6-51.5,21.4c-10,6-20.3,5.6-30.3-0.2c-9.4-5.6-18.9-11.1-28.1-17.1
	c-4.2-2.7-6.5-2.4-10.1,1.1c-4,3.8-2.9,6.4-0.6,10.2c5.6,9.1,11.1,18.1,16.5,27.4c6.4,10.7,6.5,21.2,0,31.7
	c-9.4,15.2-16.3,31.8-20.5,49.2c-2.9,12.3-10.5,20.1-23,23c-10.9,2.5-21.6,5.8-32.6,8.2c-4.5,0.9-4.5,3.5-4.4,6.7s-1.3,6.7,4.2,7.8
	c11.1,2.2,21.8,5.6,32.7,8.2c12.5,2.9,20.3,10.5,23.2,22.9c4.1,17.4,10.9,34,20.3,49.2c6.7,10.9,6.5,21.8-0.2,32.5
	c-5.8,9.3-10.9,19-17.1,28.1c-3.1,4.5-0.5,6.3,2,9.3c2.7,3.1,4.9,3.6,8.7,1.3c9.4-6.2,19.2-11.6,28.8-17.4c10.3-6.2,20.9-6.3,31,0
	c15.5,9.6,32.4,16.6,50.1,20.9c12.3,2.9,20,10.7,22.7,23.2c2.4,10.3,5.6,20.5,7.8,31c0.9,4.7,2.9,6,7.4,5.8c4.2-0.2,6.7-0.4,7.6-5.6
	c2.2-11.1,5.3-21.8,8.2-32.7c2.9-11.4,9.8-18.7,21.2-21.6c18.2-4.4,35.6-11.6,51.5-21.4c10-6.2,20.3-5.8,30.3,0.2
	c9.6,5.8,19.4,11.2,28.8,17.4c4.2,2.7,6.3,1.6,9.3-1.5s4-5.3,1.3-9.3c-6.3-9.6-12-19.6-17.8-29.6c-3.1-5.1-2.7-7.6,4.3-7.3
	c8.3,0.5,16.7,0.2,25,0.2L566.7,767.4z"/>
<path class="st0" d="M396.9,573.4v1.8c0,7.4,2,15.8-0.5,22.3c-2.7,6.9-12.3,3.8-18.7,6.2c-23.2,9.3-38.3,32.5-35.9,57.3
	c2.4,25.6,22.1,46.3,48.6,49.7c5.6,0.7,6.9,2.2,6.7,7.6c-0.4,14.1-0.4,28.3,0,42.5c0.2,4.9-1.3,6.2-6.2,6
	c-61-1.5-112.8-62.8-104.1-123.3c7.6-53.3,46.1-91.2,98.9-98C397,544,397,544,397,555.3v18.1L396.9,573.4z"/>
<path class="st0" d="M895.8,242.9c0-19.4-11.2-30.7-30.7-30.7c-24.5,0-49.2-0.2-73.7,0.2c-5.1,0-7.3-0.9-6.7-6.5
	c0.4-6.9,0.4-13.8,0.2-20.9c-0.4-16.1-11.8-28.1-27.8-28.1c-64.6-0.2-129.2-0.2-193.9,0c-15.6,0-27.2,11.8-27.6,27.4
	c-0.2,6.9-0.5,14,0.2,20.7c0.5,6.4-2,7.4-7.6,7.3c-23.6-0.4-47.3-0.2-70.9-0.2c-21.8,0-32.3,10.5-32.3,32.3v462.4
	c0,20.7,10.9,31.7,31.2,31.7h408.7c20.1,0,31.2-10.9,31.2-30.8C895.8,553,895.7,398.1,895.8,242.9z M611.7,212.3H661
	c20.9,0,41.5,0.2,62.4-0.2c4.9,0,6.2,1.3,6.2,6.2c0.2,21.6,0.4,21.6-20.9,21.6c-37,0-73.8-0.2-110.8,0.2c-5.6,0-7.1-1.4-7.1-7.1
	C590.8,212.3,590.7,212.3,611.7,212.3z M831.7,683.7c-114.3-0.4-228.6-0.4-342.8,0c-6.9,0-9.1-1.1-9.1-8.7
	c0.4-66.8,0.2-133.3,0.2-200.1c0-66,0.2-132.2-0.2-198.3c0-6.9,1.1-9.4,8.7-9.1c13.8,0.7,27.8,0.4,41.5,0.2c3.8,0,5.1,0.7,6,4.9
	c3.3,14.9,13.8,22.9,29.2,22.9h189.6c16,0,25.8-7.4,29.6-23.4c0.9-3.8,2.4-4.4,5.6-4.4c15.1,0.2,29.9,0.2,45,0c4,0,6,0.9,5.3,5.3
	v3.5c0,132.8,0.1,265.6,0.2,398.3C840.5,681.7,839.2,683.7,831.7,683.7L831.7,683.7z"/>
<path class="st0" d="M660.3,350.9c-84,0-152.4,68.4-152.4,152.3s68.4,152.4,152.4,152.4s152.4-68.4,152.4-152.4
	C812.7,419.4,744.3,350.9,660.3,350.9z M660.7,600.3c-53.2,0.2-97-43.2-97.4-96.3c-0.4-53.5,43.3-97.6,97-97.6
	c53.1,0,96.9,43.5,97,96.9S713.8,600.1,660.7,600.3z"/>
<path class="st0" d="M703.3,572.7c-8.9,0-15.8-2.9-21.2-8.3c-6.2-6.2-12.3-12.2-18.3-18.3c-2.5-2.7-4.2-2.7-6.9,0
	c-6,6.3-12,12.3-18.3,18.3c-11.8,11.3-28.5,11.3-39.5,0.2s-10.7-27.6,0.7-39.5c5.8-6,11.6-12,17.8-17.8c3.1-2.9,3.1-4.7,0-7.4
	c-6-5.4-11.6-11.3-17.2-17c-12-12.3-12.5-28.8-1.5-40.1c11.4-11.7,28.1-11.1,40.8,1.2c5.6,5.4,11.2,10.9,16.5,16.5
	c3.1,3.3,5.1,3.6,8.2,0.2c5.3-5.8,10.9-11.1,16.5-16.5c12.5-12.3,29.4-12.9,40.8-1.5c11.4,11.6,10.7,28.1-1.8,40.8
	c-5.4,5.6-10.9,11.3-16.5,16.5c-3.1,2.9-3.1,4.5,0,7.4c6.7,6.4,13.4,12.7,19.4,19.6c7.8,8.7,9.3,19,4.4,29.8
	C722,566.9,713.5,571.8,703.3,572.7z"/>
</svg>
