<svg id="Layer_1" data-name="Layer 1" xmlns="http://www.w3.org/2000/svg" viewBox="0 0 643.38 784.23"><defs><style>.cls-1{fill:#fff;}</style></defs><path class="cls-1" d="M521.85,705.32c1.15-1.54,1.91-2.52,2.63-3.54q29-40.69,58-81.41A108.16,108.16,0,0,1,597.59,603c7.94-7.24,16.92-12.49,27.68-14.25a58.9,58.9,0,0,1,23.39,1c4.12,1,8.23,2.08,12.24,3.43q64.71,21.92,127.45,49A105.82,105.82,0,0,1,816,659c15.8,13.73,24.55,31.1,26.84,51.85a126.81,126.81,0,0,1,.31,22.13c-.3,4.7-.34,9.43-.33,14.14,0,11.32.19,22.65.22,34,0,9.27,0,18.55-1.27,27.77-1.39,10-3.79,19.72-8.31,28.83A58.55,58.55,0,0,1,805,865.5c-9.2,4.31-19,6.5-29,7.67a184.44,184.44,0,0,1-21.66.9q-232.8,0-465.58,0c-12.14,0-24.18-.89-36-3.8A77.5,77.5,0,0,1,236,864.14c-14.46-7.38-23.9-19.06-29.27-34.22a110,110,0,0,1-5.62-28.1,301.72,301.72,0,0,1-.48-32.53c.34-12.73.43-25.46-.26-38.19a145.31,145.31,0,0,1-.11-16,77.84,77.84,0,0,1,14.07-41.38,87.15,87.15,0,0,1,23.44-22.3A137.07,137.07,0,0,1,259.42,640c34.76-15,70.22-28.17,106-40.48,11.13-3.83,22.21-7.83,33.62-10.8a72.68,72.68,0,0,1,15.79-2.49,34.5,34.5,0,0,1,23.57,8A68.75,68.75,0,0,1,449.3,605.3c4,5.06,7.9,10.18,11.67,15.41q29.19,40.56,58.3,81.19C520,702.91,520.76,703.88,521.85,705.32Z" transform="translate(-200.07 -89.88)"/><path class="cls-1" d="M676.35,322.69c.82,29.23-3.91,57-11.94,84.29a233,233,0,0,1-34.69,71.24,210.13,210.13,0,0,1-29.46,33c-16,14.43-34.44,24.24-55.56,28.37-38,7.42-71.72-1.67-100.5-27.68-17.38-15.7-31.67-34-43.56-54.2A239.62,239.62,0,0,1,371.74,380c-4.36-23-5.4-46.18-4.33-69.48a236.84,236.84,0,0,1,2.67-28.15c5.46-32.47,21.67-57.87,49.88-75.29,10.37-6.41,21.66-10.65,33.27-14.17a312.43,312.43,0,0,1,43.55-10.08,204.23,204.23,0,0,1,45.14-2c36.47,2.57,68.48,16.22,96.47,39.52,16,13.3,26.15,30.32,31.55,50.28a177,177,0,0,1,4.95,27.8C675.76,306.72,675.83,315.05,676.35,322.69Z" transform="translate(-200.07 -89.88)"/><path class="cls-1" d="M756.28,309.63a76.51,76.51,0,0,1,15.41,2.07c16.66,4.12,30.31,12.77,40,27.07a56.4,56.4,0,0,1-2.22,67.28c-10.39,13.32-24.15,21.23-40.63,24.59a61.52,61.52,0,0,1-10.28,1.23c-1.56.05-2.61.43-3.21,2.1a23.1,23.1,0,0,1-10.76,12.64c-1.67.94-2,2.16-1.95,3.85a54.7,54.7,0,0,1-.7,11.27,42.92,42.92,0,0,1-3.6,11.17c-8.29,16.25-17.35,32-28.4,46.62a125.81,125.81,0,0,1-50.63,39.68c-12.38,5.45-25.19,9.67-38,13.89a287.44,287.44,0,0,1-37.88,9.49c-1.24.23-2.46.55-3.68.83-2,.46-4.16.56-5.89,1.5s-1.76,3.19-2.63,4.83c-4,7.47-10.32,11.77-18.47,13.27a31.11,31.11,0,0,1-19.32-2.47,24.41,24.41,0,0,1-3.66-42.48c9.54-6.59,23.63-7.47,34.05.17a12,12,0,0,1,1.84,1.48c1.12,1.21,2.41,1.2,3.88.86,4-.91,8-1.76,12-2.61,10.29-2.17,20.69-3.83,30.87-6.53a306.89,306.89,0,0,0,37.42-12.71,80.5,80.5,0,0,0,34.08-26c5.64-7.37,10.81-15.06,15.87-22.83,3.52-5.4,7-10.85,10.5-16.23a34.09,34.09,0,0,0,5.82-20c0-.63,0-1.26,0-1.89,0-1.72.24-3.55-.24-5.14s-2.5-2.25-3.76-3.4C707,438.55,704,432.91,704,425.85c0-.15,0-.31,0-.47q-.51-46-1-92a119.77,119.77,0,0,1,.94-18.83,31.19,31.19,0,0,1,2.91-9.88,15.19,15.19,0,0,1,4.76-5.78c2.28-1.53,2.35-3.33,1.8-5.67-1.44-6.12-2.9-12.23-4.89-18.19a186,186,0,0,0-49.4-77.47,214,214,0,0,0-28.51-23.16,209.67,209.67,0,0,0-56.69-26.12,125.65,125.65,0,0,0-16.63-3.27,232.89,232.89,0,0,0-37.1-2.86c-30.53.25-59.93,6-87.85,18.61a179.7,179.7,0,0,0-46.63,30.72c-21.7,19.65-36.57,43.73-46.84,70.88a200.74,200.74,0,0,0-9,31.68,4.07,4.07,0,0,0,1.57,4.45c5.69,4.93,8.21,11.27,8.2,18.78,0,35.85-.11,71.69,0,107.54.07,16.16-13.2,25-24.37,25.67-7,.41-13.4-1.15-19-5.51a23,23,0,0,1-7.81-10.42,3.59,3.59,0,0,0-3.77-2.73,63.32,63.32,0,0,1-18-3.22,66.19,66.19,0,0,1-31.33-20.89A56.78,56.78,0,0,1,222,365.27a54.73,54.73,0,0,1,11.47-29c10.83-14.12,25.27-22.3,42.66-25.48a45.32,45.32,0,0,1,9.36-1c1.51.05,2.17-.64,2.68-2a23.65,23.65,0,0,1,10-12.12,2.8,2.8,0,0,0,1.46-3.09c-3.08-32.46,4-62.74,19.87-91.07,12.15-21.65,28.25-40,47.41-55.67,28.54-23.38,60.92-39.11,96.59-48.22a245,245,0,0,1,73.83-7.39,231,231,0,0,1,107.19,32.31,211.41,211.41,0,0,1,62.87,56.18,184.37,184.37,0,0,1,33,72.31,154.81,154.81,0,0,1,3.44,39.35c0,.94-.05,1.89-.13,2.83a2,2,0,0,0,1,2c.79.53,1.59,1,2.34,1.59a23.88,23.88,0,0,1,7.88,9.8C755.34,307.55,755.79,308.54,756.28,309.63Z" transform="translate(-200.07 -89.88)"/></svg>