<?xml version="1.0" encoding="utf-8"?>
<!-- Generator: Adobe Illustrator 24.1.0, SVG Export Plug-In . SVG Version: 6.00 Build 0)  -->
<svg version="1.1" id="Layer_1" xmlns="http://www.w3.org/2000/svg" xmlns:xlink="http://www.w3.org/1999/xlink" x="0px" y="0px"
	 viewBox="0 0 1067.8 1067.8" style="enable-background:new 0 0 1067.8 1067.8;" xml:space="preserve">
<style type="text/css">
	.st0{fill:#FFFFFF;}
</style>
<path class="st0" d="M610.9,588.5c-4.8,27.2,8.5,40.9,28.4,49.8c26.7,11.9,54.6,21.2,80.2,35c26.1,14,50.9,30.4,74,49
	c27,22,33.2,53.4,29.1,87c-3.1,24.9-18.1,42.8-40.1,51.3c-29.5,11.3-60.2,22.6-91.3,26.6c-112.1,14.2-224.5,16.2-336.2-4.3
	c-24.4-4.6-47.9-13-69.7-25.1c-44.9-25-54.4-79.4-22.4-119.9c10.2-12.9,22.9-25.3,37-33.6c38.1-22.4,77.7-42.5,116.7-63.3
	c4.3-2.3,9.1-3.5,13.5-5.5c33.1-14.9,40-39.9,17.6-69c-27.4-35.5-50.3-73-60.9-117.1c-9.1-38-10.8-76.2-1-114.1
	c18.7-72.6,77.8-113.8,158.5-111.5c73.1,2.1,127.9,48.7,142,121.3c10.1,51.7,1.8,101.2-19.3,148.9c-5,11.3-27.4,16.1-40.9,13.5
	c-20.8-4-42.5-7.1-63.5-5.8c-21.4,1.3-35.8,21.9-35.7,43.6s14.6,40.2,36.5,43.1C578.3,590,593.6,588.5,610.9,588.5z"/>
<path class="st0" d="M712.5,450.8c0-14.1-1.4-28.3,0.5-42.1c1.3-9.6,5.1-20.6,11.6-27.2c7.7-7.7,8.9-14.7,7.8-24.3
	c-11.1-96.8-98.4-172.9-198.5-172.8c-99.9,0.1-187.4,76.9-197.9,173.4c-1,8.8-0.4,15.5,7.1,23c6.9,6.9,11.7,18.5,12.3,28.4
	c1.7,25.3,0.9,50.9,0.5,76.3c-0.4,23.8-17.2,40.1-40,40c-22.1-0.1-38.7-15.9-39.4-38.9c-0.7-26-0.8-52,0.2-77.9
	c0.3-8.1,2.8-18.9,8.3-23.6c12.2-10.2,13.9-22.6,16-36.8c15.9-110.8,113-197,224.6-199.9c115.6-3.1,216.3,75.3,239.1,186.4
	c1.5,7.4,1.5,15.3,3.8,22.3c2.8,8.1,7.7,15.4,11.2,23.3c4.3,9.6,10.9,19.2,11.5,29.2c1.7,25.3,1.2,50.9,0.4,76.3
	c-0.9,29.2-24.4,45-53,37.6c-5.3-1.4-12.1,0.2-17.5,2.1c-23.8,8.4-47.4,17.4-71.1,26.2c-12.3,4.5-24.3,11.1-36.9,12.7
	c-17.2,2.2-35.2,2.4-52.3-0.4c-5.3-0.9-12.4-14.5-11.7-21.5s9.4-18.4,15.7-19.2c18.1-2.3,37.2-7,54.8,5.2
	c12.5,8.7,87.6-14,92.7-27.8c2.1-5.6,0-12.8-0.1-19.2C712.4,471.4,712.5,461.1,712.5,450.8L712.5,450.8z"/>
</svg>
