<svg id="Layer_1" data-name="Layer 1" xmlns="http://www.w3.org/2000/svg" viewBox="0 0 698.65 724.86"><defs><style>.cls-1{fill:#fff;}</style></defs><path class="cls-1" d="M646.76,294.42v3.94q0,23.73,0,47.45a27.28,27.28,0,0,0,.14,3.84,13.24,13.24,0,0,0,12.83,11.56c2.84.14,5.69,0,8.54.05,1.86,0,3.71-.06,5.56,0a13.1,13.1,0,0,1,1.91,25.93,7,7,0,0,1-1.26.24c-7.54.21-15.18.94-22.57-.76-15.28-3.52-25.3-13-30-28A42.23,42.23,0,0,1,620.38,346q0-32.7,0-65.4c0-5.84.8-5-4.9-5q-137.64,0-275.29,0c-1.42,0-2.85,0-4.27.06a12.93,12.93,0,0,0-11.79,10.59c-.15,1.12-.26,2.26-.33,3.39s0,2,0,3q0,279.14,0,558.27a49.49,49.49,0,0,0,.2,6,12.79,12.79,0,0,0,12.64,11.58c1.28,0,2.56,0,3.85,0H715.8c1.42,0,2.85,0,4.27,0a12.82,12.82,0,0,0,12.28-12c.14-1.7.1-3.42.1-5.13q0-68.82,0-137.64a45.86,45.86,0,0,1,.21-5.11,13.11,13.11,0,0,1,26.09,1.12c0,1.14,0,2.28,0,3.42q0,70.11,0,140.21a45.06,45.06,0,0,1-1.92,14.32,39.67,39.67,0,0,1-36.69,27.2c-1.28,0-2.57,0-3.85,0H339.77a57.34,57.34,0,0,1-10.21-.69c-17.83-3.22-31.4-19.22-32-36.75-.05-1.7-.06-3.41-.06-5.12q0-281.05,0-562.12c0-7,1.05-13.64,4.44-19.76,7.34-13.25,18.58-20.42,33.78-21.23,1.56-.08,3.13,0,4.7,0H629.81c1.42,0,2.85,0,4.27,0a12.51,12.51,0,0,1,8.49,3.49c.84.78,1.64,1.59,2.44,2.4L752.94,363c.81.81,1.63,1.6,2.39,2.45a12.59,12.59,0,0,1,3.44,8.51c0,1.14,0,2.28,0,3.42v106c0,1.28,0,2.56,0,3.84a13.11,13.11,0,0,1-26,1.67,31.34,31.34,0,0,1-.34-6q0-49.15,0-98.32c0-5.95.63-4.14-3.34-8.12Q689.68,337,650.2,297.62C649.32,296.74,648.38,295.92,646.76,294.42Z" transform="translate(-218.35 -170.06)"/><path class="cls-1" d="M218.36,492.61q0-141.28,0-282.57c0-14.51,6.35-25.73,18.37-33.74,6.34-4.22,13.47-6,21-6.23,1,0,2,0,3,0H554a14.29,14.29,0,0,1,10.33,4.37q12.67,12.72,25.4,25.39A13.21,13.21,0,0,1,593.92,211a12.46,12.46,0,0,1-7.57,10.59A12.59,12.59,0,0,1,573,220.18a26.07,26.07,0,0,1-3.14-2.9c-6.26-6.23-12.55-12.44-18.72-18.76a6.62,6.62,0,0,0-5.24-2.14c-16.39.09-32.77.05-49.16.05H261.65c-1.42,0-2.85-.06-4.27,0a13.19,13.19,0,0,0-12.61,13.11c0,1.14,0,2.28,0,3.42V773c0,1.14,0,2.28,0,3.42a13.18,13.18,0,0,0,11.78,13c.85.12,1.71.1,2.56.18a13.23,13.23,0,0,1,12,12.83A13.08,13.08,0,0,1,260,815.59c-4.89.78-9.65-.16-14.28-1.68a39.55,39.55,0,0,1-27.34-37.45c0-1.57,0-3.14,0-4.7Z" transform="translate(-218.35 -170.06)"/><path class="cls-1" d="M459.82,730.16c-7.69,0-15.39,0-23.08,0a44.54,44.54,0,0,1-13.07-1.7c-9.65-3-16.63-9.1-21.39-17.86A48.8,48.8,0,0,1,397,694a124.65,124.65,0,0,1-.6-25.61,39.27,39.27,0,0,1,38.76-37c3.85,0,7.7,0,11.54,0,2.26,0,2.33-.1,2.35-2.5,0-3.7-.06-7.41.05-11.11a12.87,12.87,0,0,1,9.14-12.1,13,13,0,0,1,16.55,8.77,17.26,17.26,0,0,1,.68,5.06q-.06,4.92,0,9.83c0,1.78.27,2,1.93,2,3.71,0,7.41,0,11.12,0a37.72,37.72,0,0,1,24.18,8.24c10.14,8,15.3,18.55,15.32,31.47a12.8,12.8,0,0,1-10.6,12.66,13.09,13.09,0,0,1-14.77-8.2,12.88,12.88,0,0,1-.78-4.18c-.35-8.52-6.55-13.86-15.23-13.68-16.38.35-32.77.1-49.15.1a16.49,16.49,0,0,0-5.51.53c-5.18,1.78-8.74,5.4-9.09,10.79-.5,7.79-.86,15.66.6,23.43a17,17,0,0,0,2.51,6.3,10.15,10.15,0,0,0,6.87,4.64,32,32,0,0,0,6,.44h48.73a44.15,44.15,0,0,1,12.68,1.52A35.37,35.37,0,0,1,521,721.54a48.39,48.39,0,0,1,6.7,21.4,190,190,0,0,1,.28,22.64c-.54,16.28-13.21,33.8-34,36.72-3.78.53-7.68.16-11.52.35-2.23.11-4.52-.58-6.69.45-.67,2.08-.23,4.22-.31,6.34s.1,4.56-.06,6.83a13.16,13.16,0,0,1-26.28.4c-.19-3.41-.05-6.84-.07-10.26,0-.71,0-1.42,0-2.14,0-1-.41-1.62-1.49-1.63l-3,0c-3.42,0-6.84.06-10.26,0-18.46-.37-34.79-14.83-37.44-33.14a41,41,0,0,1-.57-5.94,13.17,13.17,0,0,1,26.31-1.07,18.27,18.27,0,0,0,.69,4.63c1.65,5.65,7.33,9.26,11.66,9.13,1,0,2,0,3,0h48.3c1.14,0,2.28,0,3.42-.06a12.84,12.84,0,0,0,11.71-10.15,14.86,14.86,0,0,0,.41-2.95c0-6.41.31-12.83-.46-19.22a20.56,20.56,0,0,0-2.55-8.08,10.13,10.13,0,0,0-7.81-5.32,38.57,38.57,0,0,0-4.68-.3C477.49,730.15,468.65,730.17,459.82,730.16Z" transform="translate(-218.35 -170.06)"/><path class="cls-1" d="M481.6,486.36H400c-1.57,0-3.14,0-4.7-.09a13.06,13.06,0,0,1-12.08-12.2c-.49-7.52,5.36-13.13,10.82-13.76a37.79,37.79,0,0,1,4.25-.31H565.77a35.73,35.73,0,0,1,4.25.31c5.65.69,11.29,6.39,10.82,13.76a13,13,0,0,1-12.09,12.2c-1.56.12-3.13.09-4.7.09Z" transform="translate(-218.35 -170.06)"/><path class="cls-1" d="M481.6,578.61H400c-1.42,0-2.85,0-4.27-.05a13.08,13.08,0,0,1-1.67-26,23.17,23.17,0,0,1,4.24-.33q83.73,0,167.44,0a24.2,24.2,0,0,1,5.09.49,13.09,13.09,0,0,1-2.11,25.79c-1.56.11-3.13.08-4.7.08Z" transform="translate(-218.35 -170.06)"/><path class="cls-1" d="M481.6,394.08h-82c-1.42,0-2.85,0-4.27-.06a13,13,0,0,1-12.11-12.59c-.28-7.09,5.41-13.06,11.68-13.45,1.27-.08,2.56-.12,3.84-.12q83.29,0,166.61,0,1.92,0,3.84.12c6.35.4,12,6.43,11.69,13.44A13,13,0,0,1,568.75,394c-1.41.09-2.84.06-4.27.06Z" transform="translate(-218.35 -170.06)"/><path class="cls-1" d="M916.11,492.48a29,29,0,0,0-8.29-14.18Q893.42,464,879.1,449.59c-.81-.8-1.61-1.63-2.49-2.34-9.24-7.45-19.42-9-30.44-4.59-4,1.6-7.27,4.36-10.32,7.42q-42.74,42.8-85.54,85.53a36.59,36.59,0,0,1-2.77,2.66c-1.34,1.11-2.47,1.07-3.84-.07-.87-.73-1.64-1.58-2.45-2.38L695.9,490.49c-1-1-2-2-3-3-5.63-5.09-12.21-7.71-19-7.62A28.6,28.6,0,0,0,655.21,486a37.34,37.34,0,0,0-3.16,2.87q-14.37,14.34-28.71,28.71c-.91.91-1.82,1.82-2.64,2.8-6.22,7.55-8.09,16.14-6,25.63,1.28,5.74,4.38,10.4,8.51,14.53Q673.45,610.7,723.6,660.89c1,1,2,2,3.09,3a28.57,28.57,0,0,0,26,6.2c5.89-1.36,10.6-4.61,14.82-8.83q69.94-70,139.92-140a40,40,0,0,0,3.18-3.46C916.55,510.27,918.26,501.79,916.11,492.48Zm-28,10.85-56.23,56.2q-40.8,40.8-81.62,81.58c-.8.81-1.63,1.59-2.43,2.4a2.68,2.68,0,0,1-1.88.9,3.16,3.16,0,0,1-2.33-.87l-2.14-2.09-97.64-97.59c-.91-.91-1.85-1.79-2.67-2.77a2.7,2.7,0,0,1,0-3.85,22.14,22.14,0,0,1,1.77-1.86l26.58-26.6c.31-.3.6-.61.91-.9,2.4-2.25,3.29-2.28,5.7.08,3.66,3.59,7.26,7.24,10.89,10.87q18.59,18.58,37.17,37.18a30,30,0,0,0,12,7.88c10.79,3.45,20.5,1.41,29.07-6,1.19-1,2.26-2.17,3.36-3.28L853.22,470a40.43,40.43,0,0,1,3.15-2.86,2.12,2.12,0,0,1,2.77,0,22.06,22.06,0,0,1,2.23,2q13.46,13.44,26.9,26.89C891.44,499.23,891.41,500,888.09,503.33Z" transform="translate(-218.35 -170.06)"/></svg>