<?xml version="1.0" encoding="utf-8"?>
<!-- Generator: Adobe Illustrator 24.1.0, SVG Export Plug-In . SVG Version: 6.00 Build 0)  -->
<svg version="1.1" id="Layer_1" xmlns="http://www.w3.org/2000/svg" xmlns:xlink="http://www.w3.org/1999/xlink" x="0px" y="0px"
	 viewBox="0 0 1078.3 1078.3" style="enable-background:new 0 0 1078.3 1078.3;" xml:space="preserve">
<style type="text/css">
	.st0{fill:#FFFFFF;}
</style>
<path class="st0" d="M875,315.1c-13.1-81.8-84.3-139.8-167.7-136.7C627,181.3,559,246.3,553,327c-1,12.4-4.5,14.1-15.5,14.1
	c-94.8-0.5-189.7-0.2-284.5-0.2c-45.4,0-69.5,24.1-69.5,69.3v349.7c0,44.9,24.4,69.3,69.5,69.3h513.6c46.3,0,70.2-23.9,70.2-70
	V459.6c-0.2-7.1,2.1-14.1,6.7-19.6C871.2,402.8,882.2,361.2,875,315.1z M795.7,766.2c0,14.6-7.9,22-23.2,22.2
	c-25.8,0.2-51.6,0-77.4,0H253.2c-23.9,0-29.6-5.7-29.6-29.4V410.6c0-22.9,6-29.1,28.7-29.1h292.8c6.9,0,11.9,0,14.8,8.8
	c33,97,135.4,139.7,228.1,95.3c2.5-1.3,5-2.4,7.6-3.3C795.9,578.1,795.9,672,795.7,766.2L795.7,766.2z M713.5,462.7
	c-66.9-0.5-121.1-55.4-121.1-122.3c0.2-67.4,55.4-122,123-121.6c66.9,0.5,121.1,55.2,121.1,122.3
	C836.3,408.5,781.1,463.1,713.5,462.7z"/>
<path class="st0" d="M653.3,666.2h-76c-16,0-25.1-7.4-25.3-19.8s9.1-20.5,24.6-20.8h154.6c14.8,0,23.9,7.6,24.1,19.8
	c0.2,12.7-9.1,20.5-24.6,20.8L653.3,666.2z"/>
<path class="st0" d="M635.9,726.4h-73.1c-15,0-23.9-7.6-23.7-19.8c0.2-11.7,8.8-19.1,23.2-19.1c49.4-0.2,99.1-0.2,148.6,0
	c15,0,23.9,7.7,23.7,19.8s-9.1,19.1-24.4,19.1H635.9z"/>
<path class="st0" d="M572.3,584.8c-11.2,0.1-20.2-8.9-20.3-20.1s8.9-20.2,20.1-20.3s20.2,8.9,20.3,20.1c0,0,0,0,0,0v0.7
	C591.9,575.9,583.2,584.5,572.3,584.8z"/>
<path class="st0" d="M673.6,564.5c0.1,11.2-8.9,20.2-20.1,20.3s-20.2-8.9-20.3-20.1c-0.1-11.1,8.9-20.2,20-20.3h0.7
	C664.9,544.6,673.7,553.5,673.6,564.5z"/>
<path class="st0" d="M734.8,544.2c11.2,0,20.3,9.1,20.3,20.3s-9.1,20.3-20.3,20.3c-11.2,0-20.3-9.1-20.3-20.3l0,0v-0.7
	C715.1,552.9,723.9,544.4,734.8,544.2z"/>
<path class="st0" d="M795.7,299.3c0.2,6.9-3.1,12.2-7.6,16.7c-25.8,25.8-51.6,51.8-77.6,77.6c-11,11-21.7,10.8-33-0.2
	c-12.2-11.9-24.4-24.1-36.3-36.3c-9.8-10-10.5-21.5-2.4-30.1c8.4-8.8,20.5-8.4,31,1.4c6.2,6,12.7,11.7,18.2,18.2
	c4.8,5.7,7.9,4.5,12.7-0.2c19.6-20.1,39.7-39.7,59.2-59.5c6.7-6.9,14.6-9.1,23.4-5.5C791.1,284.8,795.2,291.2,795.7,299.3z"/>
<path class="st0" d="M467.7,689.4c0-33.2-12.2-60.7-38-81.7c-5.5-4.5-5.5-6.9-1.2-12.4c27.5-35.6,24.1-81.9-7.9-111.1
	c-31-28.5-78.6-28.6-109.6-0.2c-32,29.1-35.6,75.7-8.1,111.1c5,6.5,3.6,8.8-1.9,13.4C283.8,622,272.8,640,267.3,661
	c-5.5,20.3-3.1,41.3-3.1,61.9c0,17.2,7.4,24.4,24.8,24.4c25.3,0.2,50.6,0,75.7,0c26.3,0,52.3,0.2,78.6,0
	c16.5-0.2,23.6-7.4,23.9-24.1C467.7,712.1,467.7,700.9,467.7,689.4z M366.2,503.6c22.5,0,40.4,18.4,40.4,40.8s-18.4,40.4-40.9,40.4
	s-40.4-18.4-40.4-40.8v-0.2C325.8,521.4,343.9,503.6,366.2,503.6L366.2,503.6z M409,706.8h-43.5c-17.2,0-34.4-0.2-51.6,0.2
	c-6.9,0.2-9.1-1.4-9.3-8.8c-0.7-32.7,11.2-55.7,36.1-67.1c40.6-18.6,85,10.8,86.2,57.1C427.6,706.8,427.6,706.8,409,706.8z"/>
</svg>
