<?xml version="1.0" encoding="utf-8"?>
<!-- Generator: Adobe Illustrator 24.1.0, SVG Export Plug-In . SVG Version: 6.00 Build 0)  -->
<svg version="1.1" id="Layer_1" xmlns="http://www.w3.org/2000/svg" xmlns:xlink="http://www.w3.org/1999/xlink" x="0px" y="0px"
	 viewBox="0 0 1077.1 1077.1" style="enable-background:new 0 0 1077.1 1077.1;" xml:space="preserve">
<style type="text/css">
	.st0{fill:#FFFFFF;}
</style>
<path class="st0" d="M923.9,582.9c-2.1-14.7-8.5-23.9-20.3-32.3c-36-25.1-75-42.3-118.4-48.8c-6.1-0.9-7.4-3-7.4-8.7
	c0.1-71.7-0.7-143.4,0.5-215.1c0.5-36.3-25.6-59.7-57.9-58.2c-28.6,1.3-57.5,0.3-86.3,0.4c-3.7,0-6-0.5-7.9-4.4
	c-6.9-14.3-19.8-21.1-35.5-19.1c-10.5,1.2-20.8,3-31.1,5.3c-5.3,1.3-6.6-0.3-7.5-5.1c-6.3-31.7-37.2-52.3-68.9-46
	c-23.4,4.7-41.6,23.1-46.1,46.5c-0.9,5.1-2.6,5.6-7.1,4.7c-10.8-2.2-21.7-4.2-32.7-5.5c-14.5-1.7-27.5,5.2-33.8,18.5
	c-2.1,4.2-4.4,5.3-8.9,5.3c-29.3-0.3-58.4-0.1-87.7-0.1c-4.7-0.2-9.3,0.1-13.9,0.9c-25.6,5.2-41.6,25.6-41.6,53v564.3
	c0,30.8,21.7,53.7,51.4,53.7c154.7,0.1,309.4,0.1,464.1-0.1c6.5,0,13.3,1.3,19.4-1c24.5-9.6,48.1-21,69-37.2
	C903.9,784.6,939.8,694.3,923.9,582.9z M629.6,255c0.4-14.3,0.1-14.3,14.7-14.3h79.5c20.9,0.1,33.4,12.4,33.4,33.3
	c0.1,35.8,0,71.7,0,107.5c0,36.8-0.1,73.6,0.1,110.5c0,5.7-1.4,6.9-6.9,6.6c-14.2-0.8-14.2-0.5-14.2-14.3V277.4
	c0-13.3-2.5-15.9-15.8-15.9c-28,0-56-0.1-83.9,0.1C631.4,261.6,629.5,260.7,629.6,255L629.6,255z M379.8,264.9
	c0.5-10.3,0.1-20.6,0.1-31c0.1-13.7,6-18.7,19.5-16.6c13,2.1,26,4.6,39,6.9c13.7,2.5,17.6-0.8,17.7-14.3
	c0.3-22.8,16.8-39.9,38.4-39.8s38,17.2,38.1,40.1c0.1,13.1,4.2,16.5,17.3,14.2c12.5-2.2,25.1-4.6,37.6-6.8
	c15.6-2.7,21.5,2.2,21.5,18.1c0,10-0.3,20.2,0.1,30.2c0.3,5.3-1.7,6.4-6.6,6.4c-36-0.3-72.1-0.1-108.3-0.1
	c-35.8,0-71.7-0.1-107.5,0.1C381.1,272.2,379.5,270.6,379.8,264.9z M371.7,292.7c22.4-0.1,44.6,0,67,0c58.7,0,117.4,0,176,0.1
	c6.9,0,12.9-0.6,14.8-8.7c0.8-3,3-2,4.8-2c25.5,0,51.1,0,76.6-0.1c4,0,4.8,1.3,4.8,4.9c-0.1,69-0.1,138,0,207c0,4.6-1.6,5.9-5.7,6.1
	c-19.5,1.9-38.8,6.1-57.3,12.6c-4.9,1.7-10,2.5-15.1,2.5c-50.9-0.1-101.6-0.1-152.5,0c-2,0-3.9-0.1-5.9,0
	c-7.4,0.5-11.7,4.4-11.6,10.7s4.2,9.9,12,9.9c37.6,0.1,75.1,0.1,112.7,0h8.7c-11.2,7.8-20.7,14.8-30.6,21.5c-5.2,3.5-9.2,7.4-9.4,14
	c-0.1,4.6-2.7,4.7-6.4,4.7c-24.1-0.1-48.2-0.1-72.2,0c-2.9,0-6,0-8.7,1c-4.3,1.6-6.5,5.1-6.2,9.8s2.6,7.9,7.2,9.1
	c2.7,0.5,5.4,0.8,8.1,0.7c22.6,0,45.2,0.1,67.8,0c4.7,0,6.4,0.8,5.9,6.1c-2.7,21.7-2.3,43.7,1,65.3c0.8,4.9-1.4,4.9-5.2,4.9
	c-23.5-0.1-47.1,0-70.7-0.1c-3.5,0-6.9,0-9.8,2.2c-3.6,2.5-5.1,7.1-3.6,11.2c1.4,4.7,4.9,7.2,9.9,7.2H557c2.7,0,5.1-0.1,5.8,3.6
	c2.7,12.1,6.9,24,11.3,36.3h-91.9c-9.9,0-14.6,3.5-14.6,10.5s4.4,10,14.2,10h95.8c3.6,0,6.2,0.4,8.2,4.3
	c13.1,25.6,30.2,49,50.7,69.2c0.5,0.6,0.9,1.2,1.3,1.8c-1.7,1.8-3.8,0.9-5.5,0.9c-117.4,0-234.8,0.1-352.1,0.3c-6.1,0-7-2-7-7.4
	c0.1-178,0.1-356,0-534.1c0-5.3,1-6.9,6.8-6.9c24.5,0.4,49.1,0.3,73.6,0.1c3.5,0,5.7,0.4,6.9,4.4
	C362.1,291.5,366.6,292.7,371.7,292.7L371.7,292.7z M567.4,871.5H266.8c-22.8,0-35-12.1-35-34.9V275.3c0-22.5,12.1-34.6,34.3-34.6
	c28.8,0,57.5,0.1,86.3-0.1c5.2,0,7.1,0.8,7,6.6c-0.4,14.3-0.1,14.3-14.7,14.3h-78c-10.8,0-13.9,3.3-13.9,14v561.3
	c0,10.8,3.3,13.9,15,13.9c129,0,257.9,0,386.7-0.1c6.1,0,11.2,1.2,16.1,5.1c7.2,5.5,14.8,10,23.8,15.9L567.4,871.5z M846.2,797.1
	c-27.3,32.7-61.5,56-100.8,71.8c-3.1,1.3-5.5,0.9-8.3-0.3C649.7,831.3,596.5,766.2,579,672.8c-5.9-31.2-4.3-62.6,2-93.7
	c0.5-2.8,2.1-5.3,4.4-7c46.6-35.3,98.4-53.1,178.5-53.3c35.7,0,87.8,18.5,134.3,53.6c2.2,1.6,3.6,4,4,6.6
	C917,660.3,899.5,733.5,846.2,797.1z"/>
<path class="st0" d="M569.1,418.5h85.3c2.4-0.1,4.9,0,7.3,0.3c5,0.8,7.8,3.9,8.2,9s-1.7,8.7-6.4,10.3c-2.8,0.8-5.8,1.2-8.7,1H482.7
	c-2,0.1-3.9,0-5.9-0.3c-5.9-1-9.2-4.6-9-10.7s3.9-9.2,9.9-9.6c2.5-0.1,4.9-0.1,7.4-0.1L569.1,418.5z"/>
<path class="st0" d="M569.1,378.5h-85.4c-2.4,0.1-4.9,0-7.3-0.3c-5.3-0.8-8.3-4.2-8.6-9.5c-0.3-5.7,2.6-9.2,8.2-10.4
	c1.9-0.4,3.9-0.5,5.9-0.4h173.6c2.2-0.1,4.4,0.1,6.5,0.5c5.2,1.2,7.9,4.7,7.8,10s-3,8.7-8.2,9.6c-2.4,0.3-4.9,0.5-7.3,0.4
	L569.1,378.5z"/>
<path class="st0" d="M509.4,206.1c0.2,8.2-6.4,15-14.6,15.2s-15-6.4-15.2-14.6c-0.2-8.2,6.4-15,14.6-15.2
	C502.4,191.4,509.2,197.9,509.4,206.1z"/>
<path class="st0" d="M333.7,465c29.7,0.1,59.5,0.1,89.1,0c13.4,0,22.3-8.5,22.4-22c0.3-29.7,0.3-59.5,0-89.1
	c-0.1-13.4-9.1-21.7-22.6-21.9c-14.7-0.1-29.4,0-44.2,0s-29.4-0.1-44.2,0c-13.4,0.1-22.3,8.7-22.4,22c-0.1,29.7-0.1,59.5,0,89.1
	C312,456.1,320.8,464.9,333.7,465z M332.3,357.9c0-4,0.9-5.5,5.2-5.3c27.2,0.1,54.5,0.1,81.7,0c4.9,0,5.5,1.8,5.5,6
	c-0.1,26.7-0.1,53.4,0,80.3c0,4.5-1.2,5.9-5.7,5.9c-13.5-0.3-26.9-0.1-40.5-0.1s-26.9-0.1-40.5,0.1c-4.4,0.1-5.9-1-5.7-5.7
	C332.5,411.9,332.4,384.9,332.3,357.9L332.3,357.9z"/>
<path class="st0" d="M333.7,622.4c29.7,0.1,59.5,0.1,89.1,0c13.4,0,22.3-8.5,22.4-22c0.3-29.7,0.3-59.5,0-89.1
	c-0.1-13.4-9.1-21.7-22.6-21.9c-14.7-0.1-29.4,0-44.2,0s-29.4-0.1-44.2,0c-13.4,0.1-22.3,8.7-22.4,22c-0.1,29.7-0.1,59.5,0,89.1
	C312,613.6,320.8,622.4,333.7,622.4z M332.3,515.3c0-4,0.9-5.5,5.2-5.3c27.2,0.1,54.5,0.3,81.7,0c4.9,0,5.5,1.8,5.5,6
	c-0.1,26.8-0.1,53.5,0,80.3c0,4.5-1.2,5.8-5.7,5.8c-13.5-0.3-26.9-0.1-40.5-0.1s-26.9-0.1-40.5,0.1c-4.4,0.1-5.9-1-5.7-5.7
	C332.5,569.3,332.4,542.3,332.3,515.3L332.3,515.3z"/>
<path class="st0" d="M333.7,779.9c29.7,0.1,59.5,0.1,89.1,0c13.4,0,22.3-8.6,22.4-22c0.3-29.7,0.3-59.5,0-89.1
	c-0.1-13.4-9.1-21.7-22.6-21.9c-14.7-0.1-29.4,0-44.2,0s-29.4-0.1-44.2,0c-13.4,0.1-22.3,8.7-22.4,22c-0.1,29.7-0.1,59.5,0,89.1
	C312,771.2,320.8,779.9,333.7,779.9z M332.3,672.8c0-4,0.9-5.5,5.2-5.3c27.2,0.1,54.5,0.1,81.7,0c4.9,0,5.5,1.8,5.5,6
	c-0.1,26.8-0.1,53.5,0,80.3c0,4.5-1.2,5.8-5.7,5.8c-13.5-0.3-26.9-0.1-40.5-0.1s-26.9-0.1-40.5,0.1c-4.4,0.1-5.9-1-5.7-5.7
	C332.5,726.8,332.4,699.9,332.3,672.8L332.3,672.8z"/>
<path class="st0" d="M883.2,594.1c-0.8-5.2-3.5-8.7-7.8-11.7c-40.2-28.1-85-41.9-133.8-42.4c-48.9,0.5-93.7,14.3-133.9,42.3
	c-4.4,2.8-7.3,7.4-7.9,12.5c-3.3,22-4.2,44-0.9,66.1c12.5,85.1,57.9,146,135.2,183.5c5.1,2.5,9.5,2.3,14.7,0.1
	C844.3,801.9,900.6,697,883.2,594.1z M818,765.6c-19.3,24.1-43.2,42.7-70.7,56.6c-4.2,2.1-7.4,2.2-11.6,0
	c-66-34.6-105-88.6-116.3-162.5c-1.4-9.5-1.4-19.1-2-28.4c0.5-9.6,0.5-18.9,2-28.2c0.3-2.9,1.9-5.4,4.4-6.9
	c67.3-47.1,168-47.1,235.3-0.1c3.9,2.7,4.5,6.1,4.9,10C870.3,665.4,855.2,718.7,818,765.6L818,765.6z"/>
<path class="st0" d="M368.2,401.1c8.6-8.7,16.5-16.9,24.6-25c1.5-1.6,3.1-3.1,4.8-4.5c4.8-3.6,9.6-3.6,13.8,0.8s4.4,9.5,0.3,13.8
	c-12.7,13.1-25.7,26.1-38.9,39c-5.1,5-11.8,4-15.7-2.1c-4.7-7.4-9.1-15.1-13.3-22.8c-3-5.6-1.2-11.2,4-13.8s10-1.4,13.5,3.4
	C363.8,393,365.7,396.7,368.2,401.1z"/>
<path class="st0" d="M414.6,537.2c-0.6,3.2-2.2,6.2-4.5,8.5c-11.8,11.7-23.5,23.5-35.4,35.3c-7,6.9-13.5,6.1-18.6-2.1
	c-4-6.7-7.9-13.4-11.7-20.3c-3.3-6.1-1.8-11.7,3.4-14.7s10.7-1.3,14.4,4.4c6.4,9.6,6.4,9.6,14.5,1.6c6.8-6.8,13.5-13.5,20.3-20.2
	c3.5-3.4,7.7-4.2,12.1-1.8C412.8,529.8,414.4,533.3,414.6,537.2z"/>
<path class="st0" d="M368.2,716c9.2-9.4,17.8-18.1,26.5-26.8c6-6,12.1-6.8,16.7-2.3c4.9,4.8,4.4,10.4-1.7,16.7
	c-11.6,11.7-23.2,23.3-34.9,34.9c-7.3,7.2-13.7,6.4-19-2.5c-3.9-6.5-7.8-13-11.3-19.7c-3.3-6.1-2-11.7,3.3-14.7
	c5-2.9,10.9-1.2,14.4,4.3C364,708.7,365.7,712,368.2,716z"/>
<path class="st0" d="M835.4,623.3c-3.5-11.6-11.6-18.9-23.3-21.1c-12-2.3-22.4,1.4-30.2,10.9c-18.3,22.8-36.4,45.5-55.3,69.1
	c-4.3-5.7-8.1-10.9-11.8-16c-11.3-15-30.1-18.1-44-7.5s-16.3,28.9-5.5,43.7c11.5,15.9,23.2,31.6,34.9,47.4
	c13.1,17.7,35.9,18.7,49.7,1.8c27.1-33.3,53.7-66.9,80.4-100.6C837,642.9,838.4,633.4,835.4,623.3z M814.4,637.8
	c-0.8,1.3-1.6,2.5-2.5,3.7c-25.4,31.6-50.7,63.2-75.8,94.8c-2.9,3.5-5.7,6.8-10.8,6.8c-3.5-0.3-6.7-2.3-8.6-5.2
	c-11.6-15.9-23.3-31.6-34.9-47.5c-4.2-5.7-3.5-11.5,1.2-15s10.8-2.5,15.2,3.4c6.3,8.2,12.1,16.7,18.3,24.8s12.8,8.3,19.3,0.3
	l59.3-74.2c1.2-1.6,2.4-3,3.8-4.4c4.2-3.9,9-4.2,13.3-0.7S817.2,632.8,814.4,637.8L814.4,637.8z"/>
</svg>
