<svg id="Layer_1" data-name="Layer 1" xmlns="http://www.w3.org/2000/svg" xmlns:xlink="http://www.w3.org/1999/xlink" viewBox="0 0 676.42 676.42"><defs><style>.cls-1{fill:#fefefe;stroke-miterlimit:10;stroke-width:12.35px;stroke:url(#linear-gradient);}.cls-2{fill:#0072ba;}.cls-3{fill:#4fc3a0;}</style><linearGradient id="linear-gradient" y1="338.21" x2="676.42" y2="338.21" gradientUnits="userSpaceOnUse"><stop offset="0" stop-color="#0072ba"/><stop offset="1" stop-color="#4fc3a0"/></linearGradient></defs><circle class="cls-1" cx="338.21" cy="338.21" r="332.04"/><path class="cls-2" d="M550.93,198.48c9.39,2.5,18.22,5.86,25.85,12.36,21.06,17.92,21.11,53.92-.17,71.63-22.87,19-52.77,15.77-70.9-7.73-19-24.58-6.74-63.85,22.84-73.29,3.3-1,6.64-2,10-3Z" transform="translate(-220.29 -122.35)"/><path class="cls-2" d="M587.16,421.33h6.24c20.84,0,41.68-.06,62.52,0,12.24.05,20.93,6.5,23,16.71,2.71,13.57-7.64,25.64-22.33,25.72-21.16.13-42.32,0-63.48,0h-5.56v18.85H593c24.66,0,49.32.16,74-.06,13.72-.12,23.18,5.72,29.35,18,20.6,40.86,41.46,81.58,62.16,122.38,7.25,14.29,4.18,29.17-7.51,37.52-14.62,10.43-33.57,5.8-42.14-10.57-8.26-15.76-16.17-31.7-24.23-47.56-10-19.68-20.12-39.32-30-59.09-1.6-3.21-3.45-4.13-6.91-4.12-33.09.14-66.18.09-99.27.08-10.43,0-20.17-2.31-28.63-8.74-11.71-8.89-17.42-20.94-17.47-35.42-.16-45.66-.34-91.33,0-137,.29-35.77,37.44-52.84,63.82-37.42,14.35,8.4,20.75,22,20.94,38.35.22,18.77,0,37.54,0,56.32Z" transform="translate(-220.29 -122.35)"/><path class="cls-3" d="M473.91,396.41c0,14.33.1,28.46-.16,42.59,0,1.29-2.07,3-3.55,3.72-29.74,15.25-48.95,38.94-57,71.41-14.67,59.43,27.15,120.62,87.53,129.41,53.75,7.83,102.1-25.08,117.1-72.22.88-2.77,2.39-3.2,5-3.66,9.19-1.57,14.68,1.61,17.85,10.62,2.35,6.68,6.46,12.73,9.43,19.23a7.77,7.77,0,0,1,.16,6c-25.14,48.43-64.55,77-119,82.75-64.9,6.82-125-29.3-151.42-89.55-34.86-79.53,9.21-175.15,92.31-200.27A8.84,8.84,0,0,1,473.91,396.41Z" transform="translate(-220.29 -122.35)"/></svg>