<svg id="Layer_1" data-name="Layer 1" xmlns="http://www.w3.org/2000/svg" xmlns:xlink="http://www.w3.org/1999/xlink" viewBox="0 0 777.93 777.93"><defs><style>.cls-1,.cls-5{fill:#fefefe;}.cls-1{stroke-miterlimit:10;stroke-width:14.2px;stroke:url(#linear-gradient);}.cls-2{fill:#8f93a9;}.cls-3{fill:#0072ba;}.cls-4{fill:#4fc3a0;}</style><linearGradient id="linear-gradient" y1="388.97" x2="777.93" y2="388.97" gradientUnits="userSpaceOnUse"><stop offset="0" stop-color="#0072ba"/><stop offset="1" stop-color="#4fc3a0"/></linearGradient></defs><circle class="cls-1" cx="388.97" cy="388.97" r="381.87"/><path class="cls-2" d="M504.06,742.63l0-1.16c2.12-2.1,4.87-1.79,7.46-1.79q115.45-.1,230.92-.07a21.69,21.69,0,0,1,5,.61c1,.54.82,1.53.92,2.41Z" transform="translate(-183.96 -57.1)"/><path class="cls-3" d="M747.5,740.22c-1.53,2.13-3.8,1.23-5.73,1.23q-118.83.06-237.67,0c-3.44-12.9-6.33-26-11.42-38.35a134.35,134.35,0,0,0-23.83-38.8c-4.43-5-7.59-5.47-13.34-2.2-23.78,13.52-49.07,22.85-76.21,26.77-8.21,1.19-16.52,1.5-24.72-.51-10.82-2.65-16.3-9.35-16.87-20.42-.56-10.75,2.16-20.9,5.55-30.93,3.49-10.33,1.82-13.31-8.92-15.85-15.13-3.57-17.06-7.74-10-21.56,4.83-9.43,4.47-11-3.95-17.32-12.74-9.54-13.38-14.36-3.46-26.76,2-2.5,4.22-4.81,6.33-7.22,5-5.71,4.16-11.15-2.59-14.76-7.15-3.81-14.29-7.62-20.62-12.74-14.09-11.4-16.55-22-8.48-38.21,6.17-12.37,14.86-23.09,23.05-34.13,8.52-11.5,16.77-23.21,25.4-34.63,3.84-5.08,3.72-9.53.61-15-12.61-22.14-19.9-45.93-19.78-71.57.21-45.77,20.5-81.35,56.52-108.46,32.26-24.26,69.25-37.54,108.45-45.26A302.94,302.94,0,0,1,575.29,169a211.4,211.4,0,0,1,39.79,7.69,84.58,84.58,0,0,0-18.35,45.93c-8.3-12-17.42-16.42-28-13.63-6.29,1.65-11,5.47-14.56,10.91-4.09,6.23-8.82,6.75-14.62,2-25.26-20.74-57.88-17.63-77.92,7.71-3.91,4.94-8.17,4.86-13.5,3.67A38.57,38.57,0,0,0,405.66,253c-3,5.78-3,5.83,3.25,6.27a36.85,36.85,0,0,1,17.58,5.55c5.32,3.4,6.82,7.94,4.14,12.33s-7.21,5.18-12.77,2c-10.15-5.84-20.11-4-29.48,1.49-8,4.66-11.75,12.35-10.86,21.5,1,10.56,6.77,18.56,15.65,24.29,2.55,1.65,5.16,3.21,5.78,6.54s0,6.05-2.62,8.18-5.68,2.82-8.93,1.19a39.11,39.11,0,0,1-12.95-9.87c-2.77-3.37-3.59-2.17-5.16.87-17.24,33.39-.42,76.21,35,89.06a66.16,66.16,0,0,0,37.25,2.4c2.92-.63,4.54-1.57,3.2-4.87A12,12,0,0,1,444,416c-.2-4.6-2.37-6.89-6.82-8.8-15.27-6.59-22.53-19.27-24.53-35.3-.65-5.26,2.31-9.19,7-9.9,4.93-.74,8.87,2.32,9.64,8,1.09,8.17,3.81,15.33,11,20.07a32.67,32.67,0,0,0,3.21,1.63c1.44-6.58,3.08-12.7,5.92-18.43,3.13-6.34,7.54-8.59,12.37-6.16,4.59,2.31,5.55,6.9,2.75,13.11-14.22,31.61,2.66,66.59,36.09,74.32,15.76,3.64,30.39.38,43.23-9.4,4.54-3.46,8.62-4.06,14.09-2.64,12.76,3.33,25.78,2.42,38.72.71,1.87-.25,3.71-.82,5.57-.91,4.86-.23,8,2.23,8.9,6.89.82,4.49-1.46,7.88-5.71,9.18a54.36,54.36,0,0,1-16.71,2.53c-3.36-.05-3.76,1.41-3,4.16,2.87,9.84,8.34,17.6,17.52,22.54,8.15,4.38,17,7.18,25.47,10.7,18.94,7.83,33.07,20.71,41.4,39.56,1.28,2.9,2.84,4.12,5.91,3.75a35.83,35.83,0,0,1,4.52,0c11.47,0,11.26,0,9.56-11.75-3-21.16-10.74-40.24-24.14-57-4.7-5.87-3.24-11.11,3.89-14.42,14.35-6.66,24.59-17.11,30.26-31.95a19.29,19.29,0,0,0,.79-2.69,4.62,4.62,0,0,0-.21-1.43c-13.73.38-26.87-2.2-38.87-9.31a58.42,58.42,0,0,1-6.11-4.07c-4.11-3.19-4.94-8.13-2.16-11.92,2.63-3.58,7.4-4.5,11.58-1.69,6.48,4.35,13.27,7.75,21,9.19,15.14,2.82,28.57-.83,41.08-9.65,8.85-6.25,16.23-14,23.8-21.55,2.38-2.38,4.54-5,6.79-7.47l1.31.67c0,7,.25,14.09,0,21.12-1.78,43.79-12.49,85.62-29.39,125.79-19,45.07-21.2,91.2-11.4,138.49C724.7,682.51,735.32,711.61,747.5,740.22Z" transform="translate(-183.96 -57.1)"/><path class="cls-4" d="M676.38,164.1c18.33,0,32.71,5.65,45,16.72,6.45,5.81,9.47,5.85,15.94.07,19.91-17.79,48.08-22.31,71.61-10.5,24.74,12.41,37,33.12,36.48,60.73-.32,17.55-7.85,32.3-20.24,44.66q-46.21,46.14-92.3,92.41c-2.53,2.53-3.87,2.84-6.58.11-31.35-31.57-63-62.78-94.2-94.52-18.07-18.4-23.1-40.85-15.4-65.23S642,170,666.89,164.88A64.43,64.43,0,0,1,676.38,164.1Z" transform="translate(-183.96 -57.1)"/><path class="cls-4" d="M565.7,353c3.41-8.32,6.57-15.55,9.34-22.93,1.71-4.53,4.85-6.66,9.41-6.69,13.2-.1,26.39-.2,39.58,0,6.19.11,10,3.84,9.85,8.65s-4,7.94-10.3,8c-9.62.05-19.24.26-28.84-.1-4.26-.16-6.37,1.17-7.87,5.16-4,10.75-8.5,21.33-12.75,32-1.55,3.9-3.62,7.09-8.4,7.15-5,.06-7.2-3-8.83-7.24-9.49-24.78-19.13-49.51-28.72-74.24-.39-1-.85-2-1.77-4.18-2.24,5-4.11,9.12-5.92,13.25-3.18,7.24-6.41,14.46-9.45,21.75-1.9,4.57-5,6.6-10,6.53-13-.18-26,0-39-.07-6.58,0-10-2.84-10-8.1s3.26-8.42,9.77-8.57c10.17-.24,20.36-.29,30.53,0,3.89.11,5.69-1.31,7.13-4.72,6.16-14.57,12.59-29,18.82-43.54,1.75-4.08,4-7.52,8.9-7.37s7,3.59,8.61,7.76q13.5,35.34,27.19,70.59C563.64,348,564.45,349.88,565.7,353Z" transform="translate(-183.96 -57.1)"/><path class="cls-5" d="M721.22,279.27c-.43-4.9,2.18-11.74-1-15-3.45-3.51-10.37-.86-15.77-1.13-4.32-.21-8.67.1-13-.13-4.86-.25-7.63-2.94-7.81-7.9s2.73-8.17,7.92-8.33c8.29-.24,16.59-.24,24.88-.06,3.67.08,4.93-1.12,4.79-4.87-.27-7.72-.13-15.46-.06-23.18.06-5.91,3.11-9.65,7.85-9.89,4.91-.24,8.67,3.6,8.84,9.66q.35,11.86,0,23.75c-.09,3.45,1.05,4.62,4.51,4.53,7.73-.2,15.46-.13,23.18,0,6.26.07,10,3.33,9.92,8.31s-3.88,8-10.17,8.09c-7.73.06-15.46.13-23.18,0-3.18-.07-4.33,1-4.25,4.2.19,7.16.09,14.33,0,21.49a25,25,0,0,1-.51,5.6c-1.06,4.44-4.15,6.89-8.6,6.52s-7.32-3.1-7.55-7.74S721.22,284.12,721.22,279.27Z" transform="translate(-183.96 -57.1)"/></svg>