<svg id="Layer_1" data-name="Layer 1" xmlns="http://www.w3.org/2000/svg" xmlns:xlink="http://www.w3.org/1999/xlink" viewBox="0 0 727.14 727.14"><defs><style>.cls-1{fill:#fefefe;stroke-miterlimit:10;stroke-width:13.28px;stroke:url(#linear-gradient);}.cls-2{fill:#0f7985;}.cls-3{fill:#4fc3a0;}.cls-4{fill:#27969c;}.cls-5{fill:#1b8b94;}.cls-6{fill:#fcfdfd;}.cls-7{fill:#fbfcfc;}.cls-8{fill:#0072ba;}.cls-9{fill:#1ab0ac;}.cls-10{fill:#edf2f6;}.cls-11{fill:#74d4d0;}</style><linearGradient id="linear-gradient" y1="363.57" x2="727.14" y2="363.57" gradientUnits="userSpaceOnUse"><stop offset="0" stop-color="#0072ba"/><stop offset="1" stop-color="#4fc3a0"/></linearGradient></defs><circle class="cls-1" cx="363.57" cy="363.57" r="356.93"/><path class="cls-2" d="M743.32,731.4c-4.58-13.31-11.21-25.78-15.12-39.45-6-20.85-10.94-41.94-16.2-63-4.92-19.67-12.81-38.24-19.88-57.12-1.13-3-2.7-5.94-2.75-9.3,1.62-1.77,3.81-2,6-2,19-.14,38-.22,57.08,0a11.22,11.22,0,0,1,3.8.71c2.51,1.07,3.51,3.38,3.74,5.72,2.49,25.17,14.43,47.61,20.64,71.7,3.58,13.86,7.11,27.73,9.33,41.89.48,3.1.55,6-.81,8.89C775.46,705.23,760.54,719.57,743.32,731.4Z" transform="translate(-177.48 -102.16)"/><path class="cls-3" d="M789.12,689.51a326.56,326.56,0,0,0-20.86-82.25c-5.7-14.53-7.73-29.62-10.9-44.59,2.38-2.53,5.56-2.19,8.55-2.19q43-.12,86.07,0c3.2,0,7.15-1,8.87,3.33-8.42,24.93-18.44,49.14-32,71.78C817.31,654.86,804.35,673,789.12,689.51Z" transform="translate(-177.48 -102.16)"/><path class="cls-2" d="M681.79,769.1c-25.72,12.75-52.94,20.87-81.08,26.1a224,224,0,0,1-30.87,4c-.91,0-1.67.28-2,1.27H556.13a7.12,7.12,0,0,0-6.54,0H528.67a10.06,10.06,0,0,0-7.84,0h-9.15c-8.32-1.54-16.82-1-25.16-2.3A329.38,329.38,0,0,1,416.76,779c-3.36-1.33-7.15-2.21-9.33-5.63a9.54,9.54,0,0,1-.78-4.46c1.7-26.18.69-52.88,11-77.69,7.88-19,15.77-38.23,28.14-55,5.69-7.7,5.78-16.14,4.82-24.89-.71-6.53-3.08-12.66-5.12-18.86-2.51-7.64-5.42-15.16-7.37-23-.71-2.83-2-6,1.59-8.15,3.16-1.17,6.44-.92,9.69-.92q96.2,0,192.39,0c3.24,0,6.53-.24,9.69.81,3.48,1.69,2.61,4.6,1.91,7.34a203.51,203.51,0,0,1-7,21.74c-3.65,9.59-6.44,19.34-6.16,29.82a30,30,0,0,0,5.35,16.43c25.46,38,40.57,79.17,37.86,125.69C683.31,764.67,683.44,767.09,681.79,769.1Z" transform="translate(-177.48 -102.16)"/><path class="cls-4" d="M520.83,800.49c2.62-2.06,5.23-1.91,7.84,0Z" transform="translate(-177.48 -102.16)"/><path class="cls-5" d="M549.59,800.49c2.18-1.91,4.36-2,6.54,0Z" transform="translate(-177.48 -102.16)"/><path class="cls-3" d="M239.67,318.12c16.41-31.43,36.16-60.48,61.13-85.81q74.85-75.94,179.63-95.8a15,15,0,0,1,2.6-.06c1.78,1.7,1.66,4,1.65,6.11,0,9.59-.06,19.15,1.87,28.62.75,3.66.2,6.7-4.87,5.86-4.18-.69-4.83,2.05-4.55,5.21.59,6.56,3.2,12.66,8.13,16.66,8.91,7.23,12,16.88,13.37,27.42,1.65,12.43,6.06,23.53,14.55,32.88a10.86,10.86,0,0,1,2.81,7.14c.36,10.46.26,20.89-1.67,31.24-1.38,7.44-5.94,11.92-12.77,14.38a140,140,0,0,1-27.31,6.32c-3.88.57-7.68,1.55-11.57,2-.85.07-2,.3-2.46-.33-4.12-6.09-7.94-4.78-11.77.28-.36.47-1.15.53-1.78.74a38.14,38.14,0,0,1-8.46.54q-93.87,0-187.74-.08C246.72,321.43,242,323.15,239.67,318.12Z" transform="translate(-177.48 -102.16)"/><path class="cls-3" d="M448.75,320c.45-3.53,1.91-6.46,5.76-6.86,3.51-.37,4.68,2.3,5.5,5.21.13.46,1.47.58,2.25.85a214.3,214.3,0,0,1,27.28-1.72c35.07.08,70.15,0,105.22,0,8.92,0,17.85-.27,25,.64-9-.09-19.38-2.76-29.64-5.93-7.67-2.37-11.72-7.67-13.32-15.41-2.17-10.59-1.61-21.25-1.44-31.91a10.07,10.07,0,0,1,4.65-8.23c8.52-6.07,12-14.52,12.29-24.7.37-13.38,3.76-25.72,12.56-36.28,3.67-4.42,5.25-10,6.64-15.52.62-2.48,2.22-5.5.18-7.47-2.55-2.44-4.4,1.62-6.84,1.88-1.39.21-2.13-.6-2.66-1.73a187.42,187.42,0,0,1,5.06-34.94C709.74,160.27,785.75,218,836.43,309.61c1.58,2.84,3.18,5.67,4.77,8.51-.42,2.94-2.88,2.86-4.94,3.19a47.61,47.61,0,0,1-7.17.23c-20.9,0-41.79.06-62.69,0-101.86-.36-203.7,2.32-305.55,1.25C456.72,322.73,452,324.25,448.75,320Z" transform="translate(-177.48 -102.16)"/><path class="cls-2" d="M604.39,174.18c2.28-2.36,3.89-7.1,7.77-5.44,4.81,2.06,2.41,6.72,1.53,10.4-1.57,6.58-3.31,13.24-7.82,18.44-8.45,9.72-11.52,21.32-11.6,33.65-.07,12.12-4.58,21.39-14.61,28-2.4,1.58-2.78,3.65-2.7,6.16.31,9.54-.43,19.07,1.21,28.61,1.92,11.13,4.45,14.46,15.34,17.52s22,4.66,33,7.71H462.26c9.39-3.36,19.4-3.69,29-6,23.44-5.71,20.1-10.2,22.85-28.09.69-4.47.05-9.13.24-13.69.25-5.59-1.36-9.53-5.41-14.21A51.78,51.78,0,0,1,497.22,230c-1-7.32-1.84-14.64-5.48-21.27a13.82,13.82,0,0,0-4.51-5.46c-6.7-4.26-9.67-11.08-11.69-18.22-2.67-9.49,0-11.94,10.14-9-3.09-13.27-3.33-26.42-2.65-39.62,13.51-3.58,27.41-4.42,41.25-5.08a342,342,0,0,1,77.9,5.17c1.7.32,3.35.92,5,1.38,1,11.94-2.49,23.36-4.13,35a1.27,1.27,0,0,0-.09,1.58C603.51,175.07,604,174.45,604.39,174.18Z" transform="translate(-177.48 -102.16)"/><path class="cls-3" d="M681.79,769.1c.37-25.9-.24-51.85-9.49-76.36-7.34-19.46-16.16-38.46-28.52-55.41-6.69-9.18-6.15-19.18-4.42-29.31,2.39-14,9.21-26.62,12.39-40.37.39-1.68.76-3.36,1.13-5a5.28,5.28,0,0,1,4-1.82c10.42-.18,20.85-1,31.23.51,3,1.27,3.36,4.32,4.45,6.86,13.32,31.13,22.48,63.54,30.16,96.45,4.7,20.14,10,40.13,19.48,58.73,1.26,2.45,2.59,5.14,1.07,8.07C727.25,745,709.06,755.27,690.55,765,687.71,766.54,684.71,767.75,681.79,769.1Z" transform="translate(-177.48 -102.16)"/><path class="cls-6" d="M860.85,563.84c-.67-1.51-2.05-1.39-3.32-1.39l-100.17.22-68-.1-36.49,0c-3.68-.09-7.37-.26-11.06-.26H446.23c-2.6,0-5.2.17-7.8.25-2.1,1.93-4.74,2-7.35,2-9.75,0-19.51.22-29.27-.11q-33.93.4-67.86,0c-36.05.39-72.09.07-108.14.19a45.08,45.08,0,0,1-5.79-.82c-2.15-2.35-.79-5.23-1.17-7.86L336.66,556c2.08-2,4.73-2,7.32-2,19.67,0,39.34-.27,59,.12,11.45-.31,22.91-.13,34.37-.08q108.24-.28,216.49,0c11.46.08,22.92-.26,34.38.11,19.7-.37,39.39-.12,59.09-.12,2.58,0,5.25-.05,7.32,2l108.7.08C861.37,558.26,863,561.65,860.85,563.84Z" transform="translate(-177.48 -102.16)"/><path class="cls-7" d="M843.74,324.62c-2.14,2.29-4.92,1.27-7.4,1.28q-63.2.23-126.38.29c-2.58,2.18-5.73,1.86-8.74,1.86q-155.57.06-311.13,0c-3,0-6.16.32-8.73-1.88L237.16,326c-2.06-3.54,1.17-5.38,2.51-7.83,1.85,2.86,4.75,1.53,7.13,1.54q96.4.12,192.81.08c3.05,0,6.1.17,9.14.26,3.18,1.2,6.42.19,9.61.2q84.63.12,169.25,0,103.56-.15,207.12-.58c2.17,0,4.87,1.25,6.47-1.54A7.72,7.72,0,0,1,843.74,324.62Z" transform="translate(-177.48 -102.16)"/><path class="cls-3" d="M401.94,562.58h36.49c2.24,12.69,7.46,24.46,11.25,36.68,3.08,9.9,4.6,19.87,1.87,30.1-2,7.39-8.57,11.91-11.66,18.64-9.94,21.64-23.24,41.91-26.81,66.11-1.23,8.35-2.58,16.71-3.19,25.12-.82,11.25-1,22.55-1.41,33.83a284.86,284.86,0,0,1-63-35.53c-1.64-4.41.62-8.2,2.41-11.75,9.69-19.22,15.56-39.72,20.51-60.49,7.83-32.87,16.2-65.54,30.08-96.5C399.48,566.62,400.05,564.24,401.94,562.58Z" transform="translate(-177.48 -102.16)"/><path class="cls-8" d="M381.36,326.17c20.9.06,41.8.16,62.71.15q132.95,0,265.89-.13c10.62,4,16.44,12.36,20.11,22.57,6.4,17.77,8.29,36.4,10.4,55,4.27,37.46,4.68,75.13,6.33,112.73.44,10.12,3.47,19.65,5.94,29.33.85,3.33,2.54,6.53,1.9,10.14l-66.21,0c-3.56-6.33-3-13.43-3.35-20.23-1.1-23.27-2.93-46.46-6.87-69.44-1.49-8.7-4.13-16.94-10.24-23.64-1.15-1.26-2.42-3.13-4.23-2.56s-1.79,2.81-2.06,4.5a155.57,155.57,0,0,0,.19,48.78c3,19.33.3,38.15-4,56.91-.54,2.36-1.26,4.66-3.79,5.74l-216.8,0c-3.67-1.84-3.86-5.5-4.69-8.85-5.37-21.87-5.32-43.87-1.89-66,1.92-12.39.11-24.74-1.14-37.06-.17-1.66-.28-3.81-2.31-4.27s-3,1.43-4.09,2.75a47.22,47.22,0,0,0-9.27,19.93c-3.4,15.56-4.8,31.38-6.11,47.2-1.12,13.63-1.72,27.31-2.76,41-.15,2-.35,3.93-2.1,5.26l-66.23.05c-.71-3.85,1-7.3,2-10.77a150.12,150.12,0,0,0,6.63-44.37,1007.11,1007.11,0,0,1,7-110.75c1.8-15.1,4.13-30.17,10.05-44.4C366.14,336.62,372,329.76,381.36,326.17Z" transform="translate(-177.48 -102.16)"/><path class="cls-2" d="M401.94,562.58c-2.87,12.11-8.39,23.24-12.86,34.74-7.35,18.9-11.58,38.64-16.2,58.26-6.49,27.54-15,54.35-26.86,80.08a11.58,11.58,0,0,0-.52,1.88c-16.32-10.87-30.87-23.82-44.4-38-3-6.67-.59-13.35.39-19.86a344.67,344.67,0,0,1,20.67-75.36c4.3-10.87,6.13-22.16,8.33-33.46.58-3,.95-6.06,3.46-8.24Z" transform="translate(-177.48 -102.16)"/><path class="cls-3" d="M334,562.66c-2.62,22.3-10.64,43.07-17.72,64.15-7.93,23.61-13.48,47.81-15.13,72.78-37.29-38.34-64.14-82.93-80.18-134a11.49,11.49,0,0,0-.9-1.74c.83-1.82,2.51-1.42,3.95-1.42Z" transform="translate(-177.48 -102.16)"/><path class="cls-9" d="M604.39,174.18l-1.7,3.41c-1.27-2.08-.88-3.45.38-4.68Z" transform="translate(-177.48 -102.16)"/><path class="cls-10" d="M654.05,556c5.94-20,9-40.21,6-61.08a179.1,179.1,0,0,1,.33-55.27c.83-5.05,2.8-4.85,5.75-2.09a43.27,43.27,0,0,1,12.82,23c4.95,23.06,6.24,46.53,7.85,70,.59,8.46,1.07,16.93,1.6,25.4Z" transform="translate(-177.48 -102.16)"/><path class="cls-10" d="M402.89,555.9c1.58-24.1,2.37-48.26,5.58-72.23,1.78-13.32,2.44-27,10.41-38.65C421.5,441.2,424,435,429,436.31c3.39.93,2.38,7.59,3,11.77,3,19.86-.56,39.49-1.83,59.23-1.06,16.6,2.14,32.83,7.13,48.68Z" transform="translate(-177.48 -102.16)"/><path class="cls-10" d="M632.33,490.76c1.44-12.45,4.77-24.83.89-37.44-.53-1.74.06-3.88.36-5.8,1.67-10.68,2.41-21.26-3.54-31-1-1.65-.76-3.34-.71-5.06.38-14-6.52-26.37-8.6-39.82-.41-2.72-3.74-4.46-3.32-7.6.92-6.86-2.93-11-8-14.56-2.72-1.91-5.87-2.95-6.17-7.48-.23-3.47-4.15-3.83-7.29-4.08s-3.05,2.11-3.62,4.22c-2.75,10.3-10.6,15.66-19.65,20.67.72-7-1.91-12.92-6.5-15.08-5-2.34-7.37,2.31-10.75,4.23a29.78,29.78,0,0,0-3.63,2.77c-4.79,3.79-9.6,3.5-14.38,0-1.76-1.28-3.31-2.87-5.16-4-2.79-1.7-5.14-5.39-9.17-3a13.87,13.87,0,0,0-6.9,10.56c-.2,1.63.32,3.35.66,6.37-9.87-6-19.07-10.84-22.14-21.76-.72-2.57-.56-5.39-4.4-5-3.39.32-6.57,1-7.37,5.05-.28,1.43.28,3.07-1.48,4-7.53,4-9.83,10.49-12.93,18.45-3.88,10-4.62,20.52-8.7,30.34s-4.48,20.85-6.52,31.27c-2.95,15.07.42,30.95-1.58,46.44a10.76,10.76,0,0,0,.75,3.82,61.84,61.84,0,0,1,1.43,26.43c-1.58,8.9-.11,17.37,2.49,25.7,3.71,11.86,13.61,17.73,25.84,15.74A38.59,38.59,0,0,0,499,538.3c13-9.44,20.25-22.61,24.08-37.74,1.8-7.08,5.88-12.68,10.19-18,5.2-6.4,10.14-6.88,17.05-2.31s10.53,11.49,12.8,19c2.73,9,5.88,17.77,11.38,25.49,7.32,10.25,16.41,18,29.27,20.26,11.86,2.1,21.86-3,25.89-13.74,3.5-9.3,4.84-19,2.88-28.86A37.51,37.51,0,0,1,632.33,490.76ZM482.86,357.55c3.28-2.8,5.15-3.18,8.25.52a71.61,71.61,0,0,0,34.38,22.61c5.3,1.63,7.06,4.18,5,10.06-14.19-2.32-27.89-6.11-40.11-14.14a40.38,40.38,0,0,1-8.55-8C478.44,364.54,478.6,361.17,482.86,357.55ZM474,373.71c14,17.93,33.3,24,53.66,27.58,5.29.95,3.51,4.44,3.81,7.3.24,2.23.21,4.19-3,4.54-19.32,2.08-36.7-1.23-50.2-16.74C472.58,389.91,470.9,383,474,373.71Zm5.95,38.8c13.94,9.75,29.41,13.51,46.34,11.69,2-.21,5.07-1.76,5.81,2,.65,3.3-.15,5.5-3.73,7.13-13.09,5.93-26.45,6.32-40.12,2.9a21.72,21.72,0,0,1-15.48-13.72,54.53,54.53,0,0,1-4.25-19.12C472.85,406.9,476.24,409.92,479.94,412.51Zm-20.71,18.8c.48-2,.58-4,2.13-5.39,19.36,26.23,43.45,28,70.61,15.28,1.63,11.95,1.63,11.95-9,15.29-9.53,3-19.23,5.3-28.92,7.7C475.24,468.82,455.35,447.27,459.23,431.31ZM479.69,539c-10.45-.3-15.95-7.5-19.4-16.8,6.32,4.6,10.71,12,19.95,11.8,8.49-.23,14.44-6,21.76-9C496.2,532.36,489.91,539.29,479.69,539Zm-19.41-30.18c5.36,4.33,10.09,9.72,17.4,10.59,6.95.82,13.4-1.65,20.14-2.88C485,533,468.77,529.78,460.28,508.81Zm23.56,3c-7.1,0-14.77-6-20.47-16.6,16.23,8.32,31.3,4.63,46.54-2C505,502.64,491.92,511.82,483.84,511.84ZM532,471c-6.38,3.13-12.08,7.63-18.15,11.43a62,62,0,0,1-27.54,9.14c-9.77.92-24.25-8.43-27.48-17.63-1.24-3.54-1.52-7.13,1-10.4,18.25,13.23,37.3,12,56.79,3.72,3.79-1.61,7.47-3.56,11.37-4.8,1.66-.53,4.53-3.68,5.58.61C534.21,465.67,536.92,468.56,532,471Zm29.21-90.21c14.08-4.72,26.31-12.32,35.64-24.08,1.83-2.3,3.45-2.14,5.42-.45,2.94,2.53,6.78,4.75,4.36,9.58a25.54,25.54,0,0,1-7.11,8.38c-11,8.82-24.15,12.49-37.51,15.66-3.11.74-4.6-.36-4.11-3.63C557.63,383.56,558.26,381.74,561.19,380.76Zm-1.12,20.48a41.29,41.29,0,0,1,5.73-1.2c18-3.8,34.45-10.6,47.09-26.24,3.17,10,.65,17-5.52,23.78-12.67,13.82-28.39,17.51-46.2,15.58-2.23-.24-4.07-.84-3.55-3.43C558.2,406.84,555.54,402.87,560.07,401.24Zm-2.64,25.19c.44-4,3.71-2.31,5.6-2.12,20.92,2.07,38.15-5.86,54-19.83,2.17,17.22-7.36,30-23.62,32.85-10.93,1.9-21.47,1.35-32-2.71C556.86,432.86,557,429.9,557.43,426.43Zm-.36,16.9c1.53-1.82,2.79-.12,3.95.47,11.65,5.92,23.84,5.94,36.22,3.24,10.23-2.23,18-8.33,24.42-16.34,1.16-1.45,1.64-3.59,4.24-4.2a19.64,19.64,0,0,1,1.49,14.32c-3.76,15.45-20.13,25.94-35.65,23.05a226.55,226.55,0,0,1-31.35-8.63C556.88,454.05,554.76,446.1,557.07,443.33Zm19.62,50.33c15.69,5.68,30.4,10.12,46.77,1.38C611.42,517.24,593.37,516.46,576.69,493.66Zm33,45.25c-8.25,1.59-19.65-4.71-24.82-14.35,7.34,3.49,12.94,8.86,20.75,9.4,8.7.6,13.56-5.49,19.32-11C624.31,530.63,617.54,537.4,609.74,538.91ZM608.17,527c-10.5,2.19-15.53-6-21.57-12.21,6.67,2.71,13.31,4.87,20.58,4.76,7.43-.12,12.39-4.92,18-10.11C624.35,517.6,617,525.12,608.17,527Zm19.33-52c-5.66,9.41-13.75,15.49-24.3,16.81-11.93-.91-22.43-4.05-31.88-10.38-4.52-3-9.15-5.87-13.58-9-2-1.4-5.88-1.25-3.29-6.28,2.33-4.55,4.31-4.16,7.79-2.5,8.63,4.11,17.25,8.22,27,9.19,12.65,1.27,24.81.5,35.2-7.94,2.33-1.89,3.07-1.38,3.91,1.27A10.64,10.64,0,0,1,627.5,474.93Z" transform="translate(-177.48 -102.16)"/><path class="cls-11" d="M628.37,506.37a6.89,6.89,0,0,1-1.3,2,.78.78,0,0,1-1.22-.81,12,12,0,0,1,1.42-2.66Z" transform="translate(-177.48 -102.16)"/></svg>