<svg id="Layer_1" data-name="Layer 1" xmlns="http://www.w3.org/2000/svg" xmlns:xlink="http://www.w3.org/1999/xlink" viewBox="0 0 842.84 842.84"><defs><style>.cls-1{fill:#fefefe;stroke-miterlimit:10;stroke-width:15.39px;stroke:url(#linear-gradient);}.cls-2{fill:#4fc3a0;}.cls-3{fill:#0072ba;}.cls-4{fill:#7f5da3;}</style><linearGradient id="linear-gradient" y1="421.42" x2="842.84" y2="421.42" gradientUnits="userSpaceOnUse"><stop offset="0" stop-color="#0072ba"/><stop offset="1" stop-color="#4fc3a0"/></linearGradient></defs><circle class="cls-1" cx="421.42" cy="421.42" r="413.73"/><path class="cls-2" d="M693.88,296.68q.21,9,.4,17.91V478.36q-.06,10.38-.11,20.77c-3.94,3.65-8.78,1.95-13.19,1.95q-146.68.19-293.37.15c-.25-20.33-.65-40.67-.71-61-.12-38.79.05-77.58-.12-116.36-.08-16.91.37-33.75,3-50.47,5.38-15.81,10.78-31.62,19.12-46.21l26.86-33c19.6-15.11,40.52-27.79,64.59-34.53a181,181,0,0,1,80.75.13c23,7.61,44.12,18.59,62.28,34.84a235.33,235.33,0,0,1,30,36.75l15.74,37.83Q691.52,283,693.88,296.68Z" transform="translate(-133.9 -94.84)"/><path class="cls-3" d="M606.49,805.72c4.64,4.33,10.25,6.93,16.14,9l22.78,9.55-15.84,13.92-21.68,13.4L574,863.52c-28.71,4.58-57.07,3.34-85-5.17l-24.95-11.17-14.14-9.06-19.29-16c-1.62-4.13-4.95-6.75-8.28-9.37q-4.44-5.84-8.89-11.65l-9.79-15.95q-3.62-8.05-7.24-16.1-3.33-10.54-6.64-21.1c.06-4.66-.28-9.25-2.46-13.5l-1.21-57.63c.23-42.83,0-85.66.12-128.49,0-8.61-3.74-17.31.58-25.83,20.68-.17,41.36-.49,62-.5q116.7-.09,233.4.1c4.25,0,10.53-3.09,12,4.74,2.65,3.8,3.27,7.52-.39,11.09-21.19.55-42.35,1-62.48,9.11a54.79,54.79,0,0,0-11,5.52c-8.74,7.62-19.68,12.05-28.42,19.66-7.53,6.36-14.17,13.62-21,20.68a138,138,0,0,0-15.84,22.83,53.91,53.91,0,0,0-7,15.76c-2.14,6.34-4.56,12.58-5.79,19.19-1.62,5.73-1.94,11.67-3,17.49a86.09,86.09,0,0,0-.06,30.83c1,4.6,1,9.36,2.23,13.94a81.24,81.24,0,0,0,6.5,20.71c3,9.92,8.16,18.76,14.06,27.2,5.6,10.73,16.92,17,22.12,28-5.45,12-17.72,11.56-27.74,15.26-14.14.55-28.34,1.93-42.2-2.34a163.3,163.3,0,0,1-27.71-14.62c-6.38-5.21-11.94-11.29-17.71-17.16a102.33,102.33,0,0,1-10.61-16.78A104.85,104.85,0,0,1,450,727.54c-1.14-4.42-.65-9-1.49-13.47-.66-3.5-2-6.88-6.07-7.1-4.57-.25-6.63,3.13-7.62,7-1.54,6-.35,12,1,17.89.91,7.65,3.49,14.83,6.18,22,2.69,7.48,6.91,14.12,11.37,20.62a57.53,57.53,0,0,0,11.72,14.23,118,118,0,0,0,19.23,14.39c34.24,19.78,69.11,20.88,104.6,3.57C594.73,805.26,600.24,798,606.49,805.72Z" transform="translate(-133.9 -94.84)"/><path class="cls-4" d="M384.88,540.65l0-13.82,1.92-4.37q-.36,77.16-.71,154.32l-.81,0c-.16-1.54-.32-3.08-.49-4.62v-30q0-8.07,0-16.15,0-10.38,0-20.76V591.39q0-5.76,0-11.53,0-6.92,0-13.84t0-13.83Z" transform="translate(-133.9 -94.84)"/><path class="cls-2" d="M805.16,683.66q-.21,5.77-.43,11.53c-2.33,4.26-2.24,8.93-2.29,13.58q-3.39,10.54-6.79,21.09-4.8,9.15-9.61,18.28l-9.92,13.57-8.58,9.47-16.42,13.68L730.93,796.3c-29.95,11.83-60.5,12.67-91.5,4.9a30.1,30.1,0,0,1-5.07-2.28c-12.19-.62-21-8.33-30.63-14.44-9.76-7.76-19.23-15.81-26.57-26-6.22-7.94-10.65-16.92-15.12-25.88-3.77-8.64-6.12-17.73-8.55-26.81a38.89,38.89,0,0,1-1-9.37c.05-9.11-.11-18.22.06-27.32.25-7.5,2.79-14.53,4.53-21.72,1.06-5.1,3.69-9.63,5.27-14.55a79.25,79.25,0,0,1,7.54-14.54,217.68,217.68,0,0,1,16.12-21.76,192.79,192.79,0,0,1,25.09-21c14.05-9.49,29.3-15.53,46.42-16.22,7.43-.39,14.94.16,22.19-2.1,19.27,2,38.19,5.37,56,13.49l27.37,18.55,15.42,16.41q6.51,10.21,13,20.41l6.9,16.15,4.44,16.15L805,672.13C805,676,805.1,679.82,805.16,683.66Z" transform="translate(-133.9 -94.84)"/><path class="cls-3" d="M592.57,236.32c-14.46-10-30.12-16.37-48-17-6.78-.24-15.11-.49-14.28-10.63.77-9.45,8.25-9.91,15.51-9.12,25.53,2.81,49.42,9.49,67.27,29.74C608.22,237.4,599.21,233.39,592.57,236.32Z" transform="translate(-133.9 -94.84)"/><path class="cls-3" d="M640.8,268.46c6,11.87,7.51,24.67,7.92,37.74.2,6.46-1.5,11.92-8.64,12.51-7.3.62-11.69-4.1-11.91-11.08-.36-11.57-3.15-22.59-6-33.66C625.57,264.57,629.59,263.38,640.8,268.46Z" transform="translate(-133.9 -94.84)"/><path class="cls-3" d="M640.8,268.46c-6.42,1.1-14.48-3.34-18.61,5.51-7.66-14.29-16.4-27.73-29.62-37.65,4.56-9,14.68-1.74,20.52-7A78.56,78.56,0,0,1,640.8,268.46Z" transform="translate(-133.9 -94.84)"/><path class="cls-3" d="M670.08,693.21c-19.54-.13-39.09-.33-58.63-.37-7.63,0-14.35-1.59-14.5-10.76-.16-9.84,7.28-10.15,14.57-10.13q24.15.06,48.29,0c3.73,0,7.77,1,10.87-2.24,17.66-2.41,16.4-15.33,15.55-28-.28-6.79-.23-13.57,0-20.35,0-5-.67-10.11,3.49-14,3.17,16.28.87,32.71,1.36,49.07.55,18-1.92,15.43,16.24,15.59q20.1.18,40.2,0c7.18,0,15.12-.21,15.28,9.36.18,10.21-7.51,11.7-16.06,11.6-18.37-.24-36.75-.06-55.13,0a13.29,13.29,0,0,1-3.45,2.29C681.88,696.78,675.8,696.66,670.08,693.21Z" transform="translate(-133.9 -94.84)"/><path class="cls-3" d="M689.52,693l2.07-.17q-.23,28.23-.43,56.46c0,3.87.06,7.8-2.44,11-2.85,3.68-6.84,4.86-11.32,4-5-1-6.92-4.59-7-9.23-.05-6.9.2-13.8.33-20.71.59-.47,1.18-1.24,1.83-1.28,13.66-.73,14.79-9.8,13.64-20.42C686.3,706,684.75,699,689.52,693Z" transform="translate(-133.9 -94.84)"/><path class="cls-3" d="M689.24,642.12c.09,3,.31,6.06.25,9.09-.39,20.17,3.54,18.76-18.81,18.48l.09-27.55C676.92,638,683.08,637.5,689.24,642.12Z" transform="translate(-133.9 -94.84)"/><path class="cls-3" d="M689.7,607.28q-.23,7.05-.46,14.12c-6.16,4.62-12.32,4.14-18.47,0-.15-3.74-.45-7.48-.42-11.22,0-5.78,2.1-10.82,8.37-11.54C684.57,597.94,688.78,600.92,689.7,607.28Z" transform="translate(-133.9 -94.84)"/><path class="cls-3" d="M689.52,693q-.13,10.32-.28,20.64c-6.15,4.64-12.31,4.16-18.46,0q-.35-10.21-.7-20.44Z" transform="translate(-133.9 -94.84)"/><path class="cls-3" d="M670.78,713.65h18.47c0,.37.09.75.09,1.12.44,24,1.36,19.09-18.57,19.64Q670.77,724,670.78,713.65Z" transform="translate(-133.9 -94.84)"/><path class="cls-3" d="M670.77,621.38l18.48,0q0,10.36,0,20.72l-18.47,0Z" transform="translate(-133.9 -94.84)"/></svg>