<svg id="Layer_1" data-name="Layer 1" xmlns="http://www.w3.org/2000/svg" xmlns:xlink="http://www.w3.org/1999/xlink" viewBox="0 0 880.37 880.37"><defs><style>.cls-1{fill:#fefefe;stroke-miterlimit:10;stroke-width:16.07px;stroke:url(#linear-gradient);}.cls-2{fill:#4fc3a0;}.cls-3{fill:#515151;}.cls-4{fill:#646464;}.cls-5{fill:#0072ba;}</style><linearGradient id="linear-gradient" y1="440.19" x2="880.37" y2="440.19" gradientUnits="userSpaceOnUse"><stop offset="0" stop-color="#0072ba"/><stop offset="1" stop-color="#4fc3a0"/></linearGradient></defs><circle class="cls-1" cx="440.19" cy="440.19" r="432.15"/><path class="cls-2" d="M204.11,378.09c2.89-8.68,3-17.87,4.91-26.74,9.06-42.2,27.91-78.76,61.42-106.79,26.83-22.44,58.06-34.45,92.75-37.7,67.78-6.35,118.3,24,159,75,3.19,4,4.28,5.15,8.06.29,25.68-33,56.89-58.69,97.85-70.13,72.77-20.31,166.48,8.32,204,101.89,21.42,53.46,22.36,107.64,2.16,162-1.64,4.42-3.85,5.36-8.14,5.35-65.22-.12-130.45,0-195.67-.19-4.6,0-6.9,1.26-9,5.51-15.16,31-30.65,61.81-46,92.67-.92,1.85-1.93,3.66-3.26,6.18-35.84-87.24-71.39-173.78-107.34-261.32-1.64,2.54-2.87,4.3-3.94,6.15q-42.31,72.67-84.5,145.44c-2.4,4.17-5,5.63-9.82,5.61q-69.82-.33-139.67,0c-5.18,0-7.26-1.63-8.82-6.28-5.07-15.09-9.53-30.31-11.87-46.11-.33-2.24.42-5.07-2-6.76v-6.29a1.64,1.64,0,0,0,0-2.52V388.16a1.64,1.64,0,0,0,0-2.52Z" transform="translate(-90.77 -16.77)"/><path class="cls-3" d="M204.11,385.64c1.63.84,1.35,1.68,0,2.52Z" transform="translate(-90.77 -16.77)"/><path class="cls-4" d="M204.11,413.33c1.35.84,1.77,1.68,0,2.52Z" transform="translate(-90.77 -16.77)"/><path class="cls-5" d="M243.21,526.81c2.18-1.22,4.5-.59,6.7-.59q71.43-.08,142.85.08c4.54,0,7-1.25,9.31-5.27,17-29.6,34.21-59,51.38-88.49,1.25-2.15,2.59-4.23,4.26-6.94L568.27,694.75c14-28.15,27.57-55.42,41.15-82.7q20.12-40.44,40.23-80.9c1.43-2.88,2.57-5.11,6.75-5.09,50.13.19,100.26.12,150.4.14.8,0,1.6.17,3.06.34a254.43,254.43,0,0,1-16,26.4c-37,55.3-82.49,103-131.57,147.48a1275.73,1275.73,0,0,1-123.71,98.87c-10,7-14.72,7-24.94-.19-71.42-50.54-137.91-106.75-196.7-171.74-26.62-29.43-50.87-60.69-71.08-95C244.82,530.69,243.16,529.18,243.21,526.81Z" transform="translate(-90.77 -16.77)"/></svg>