<svg id="Layer_1" data-name="Layer 1" xmlns="http://www.w3.org/2000/svg" xmlns:xlink="http://www.w3.org/1999/xlink" viewBox="0 0 717.1 717.1"><defs><style>.cls-1{fill:#fefefe;stroke-miterlimit:10;stroke-width:13.09px;stroke:url(#linear-gradient);}.cls-2{fill:#0072ba;}.cls-3{fill:#4fc3a0;}</style><linearGradient id="linear-gradient" y1="358.55" x2="717.1" y2="358.55" gradientUnits="userSpaceOnUse"><stop offset="0" stop-color="#0072ba"/><stop offset="1" stop-color="#4fc3a0"/></linearGradient></defs><circle class="cls-1" cx="358.55" cy="358.55" r="352"/><path class="cls-2" d="M606.59,550.34c0,8.42.32,16.85-.1,25.25a39.6,39.6,0,0,0,4.08,19.06q28.26,61.19,56.12,122.55c4.69,10.27,3.94,12.39-6.26,17.21q-33.27,15.72-66.58,31.34c-11.45,5.36-15.63,2.69-15.82-10.13-.14-9.41.34-18.76,3.71-27.73,2-5.24,4.28-10.71,9.24-13.34,5.78-3,5.79-6.06,2.51-10.8-13-18.8-16.16-39.89-17.57-62.43-1.21-19.38,2.07-36.17,11.33-52.8,6.88-12.37,12.21-25.61,18.24-38.45Z" transform="translate(-184.7 -138.43)"/><path class="cls-3" d="M446,429.18c-3.49,2.95-6.58,5.6-9.71,8.21-10.19,8.46-15.56,19.31-15.07,32.55.19,5.24-1.42,6.7-6.46,6.52-9.38-.34-18.81.43-28.15-.26-7.83-.57-10.23,1.6-10.2,9.85.32,88.09.2,176.18.2,264.27,0,3.87,0,7.74-.06,11.6-.13,5.21-2.63,8.49-8.08,8.36-5-.11-7.31-3.31-7.49-8.12-.11-2.75-.07-5.52-.07-8.28q0-134.21.15-268.42c0-7.18-1.62-10-9.1-9.24a103.42,103.42,0,0,1-19-.13c-13.87-1.22-23.22-11.43-23-24.54.21-12.74,9.49-23.23,23.11-23.45,36.71-.59,73.44-.27,110.17-.25C443.91,427.85,444.6,428.48,446,429.18Z" transform="translate(-184.7 -138.43)"/><path class="cls-2" d="M503.91,186.73a54.47,54.47,0,0,1,.6,108.94c-29.86.27-55-24.79-54.93-54.71A54.59,54.59,0,0,1,503.91,186.73Z" transform="translate(-184.7 -138.43)"/><path class="cls-2" d="M606.78,424.58a13.17,13.17,0,0,1-.84-3.71c-2.76-27.45-6.17-54.83-9.11-82.26-3.18-29.69-26.94-49.76-56.26-47.25-27.26,2.34-47.43,26.71-45.24,55.4,1.25,16.49,3.19,32.95,5.33,49.37.8,6.17-.82,10.11-5.79,14-16.06,12.62-31.66,25.82-47.5,38.72-5.59,4.55-9.45,10-10,17.38-.81,11.8,3.45,21.25,13.82,27.12,11.13,6.3,22.27,4.51,31.62-3.39,20.24-17.09,41.36-33.34,59.5-52.63,8.12-8.63,16.18-11,27.61-8.94-1.33,4.7-4.46,7.51-7,10.62-15.82,19-36,33.39-54.15,49.86a14.52,14.52,0,0,0-5.28,9.66c-3.47,26.81-7.66,53.53-10.81,80.37-1.5,12.75-5.42,25.3-2.72,38.54,6.63,32.42,12.55,65,19.12,97.39,1.16,5.73-.09,7.56-5.74,6.94-13.76-1.52-23.2,5.56-30.51,16.1a118,118,0,0,0-9.06,15.74c-5.68,11.72-2.75,16.26,10.42,16.36q39.75.32,79.51.44c12,.06,13.69-1.43,13.07-13.31-1.85-35.56-3.52-71.14-6-106.66-2.56-37-2.92-37,12.93-70.31.12-.25.23-.51.34-.76,14.78-32,31.22-63.39,36.71-98.82a4.78,4.78,0,0,1,1.84-3.54Z" transform="translate(-184.7 -138.43)"/><path class="cls-3" d="M746.63,427.75c-43.32,0-86.63-.09-129.94.11l3,48.52c27.38,0,54.75.26,82.12-.2,7.53-.13,9,2.24,9,9.33q-.36,133.35-.16,266.71c0,3,0,6.07,0,9.11,0,5.1,2,8.79,7.51,8.94,6,.16,8.12-3.71,8.14-9.16,0-2.49,0-5,0-7.46V496.05c0-19.65,0-19.65,19.87-19.69s31-8.72,31.13-24.14S766.29,427.75,746.63,427.75Z" transform="translate(-184.7 -138.43)"/></svg>