<svg id="Layer_1" data-name="Layer 1" xmlns="http://www.w3.org/2000/svg" xmlns:xlink="http://www.w3.org/1999/xlink" viewBox="0 0 879.37 879.37"><defs><style>.cls-1{fill:#fefefe;stroke-miterlimit:10;stroke-width:16.05px;stroke:url(#linear-gradient);}.cls-2{fill:#4fc3a0;}.cls-3{fill:#0072ba;}</style><linearGradient id="linear-gradient" y1="439.68" x2="879.37" y2="439.68" gradientUnits="userSpaceOnUse"><stop offset="0" stop-color="#0072ba"/><stop offset="1" stop-color="#4fc3a0"/></linearGradient></defs><circle class="cls-1" cx="439.68" cy="439.68" r="431.66"/><path class="cls-2" d="M644.32,577.22c.5-2.34-1.59-7.27,2-9.28,3.08-1.7,6.18,2.07,9.06,3.73q113.15,65.24,226.23,130.58c1.09.63,2.19,1.24,3.29,1.87,4.21,2.42,9.17,5,5.62,10.81-3.3,5.39-7.7,2-11.48-.21Q829.91,686.35,780.74,658c-4.1-2.37-8.32-4.54-12.31-7.08-4.26-2.71-8.38-3.14-13.44-2-36,8.44-91.72-19.39-106.89-53A37.69,37.69,0,0,1,644.32,577.22Z" transform="translate(-146.3 -69.2)"/><path class="cls-3" d="M587.2,559.46c-15.77-.15-27.63-7.85-37.26-19.58-3.55-4.32-3.12-8.93,1.06-12.64,3.89-3.45,8.12-3.07,12,.28,1.66,1.44,3.06,3.2,4.66,4.72,12.77,12.16,26.53,12.13,39.4-.1,1.37-1.3,2.6-2.76,4-4.07,4-3.8,8.41-4.55,12.66-.72s4.1,8.12.9,12.71C616.87,551.17,601,559.5,587.2,559.46Z" transform="translate(-146.3 -69.2)"/><path class="cls-3" d="M540.27,735.08c12.56.46,25.82,8.15,36.67,20.58,4,4.54,4.06,9.33-.56,13.33-4.28,3.71-8.86,3-12.66-1-4.84-5.07-9.93-9.75-16.6-12.25-10.2-3.83-19.79-3.65-28,4.71-4.67,4.79-10,7.84-15.37,1.78-5.25-5.9-1.67-11.12,3.05-15.53C515,739.05,524.64,734.87,540.27,735.08Z" transform="translate(-146.3 -69.2)"/><path class="cls-3" d="M634.2,735.09c16.6-.25,26.87,4.59,35.33,13.45,4.22,4.42,5.57,9.5.82,14.21-4.41,4.38-9,3-13.4-.8-13.26-11.26-26.3-11.23-39.77-.08-2.18,1.8-4.09,3.92-6.11,5.92-4.24,4.2-9,5-13.35.76s-3.31-8.92.34-13.47C607.37,743.47,623.87,735.16,634.2,735.09Z" transform="translate(-146.3 -69.2)"/><path class="cls-3" d="M510.31,446.91A29.41,29.41,0,0,1,482,421.28c-.7-6.09,1.19-11,7.67-12.08,6-1,9.64,2.65,10.41,8.43.88,6.6,4,10.74,10.84,10.74s9.78-4.31,10.75-10.85c.83-5.67,4.43-9.44,10.52-8.31,6.44,1.19,8.29,6.11,7.58,12.19C538.05,435.81,525,447.12,510.31,446.91Z" transform="translate(-146.3 -69.2)"/><path class="cls-3" d="M662.9,446.91c-14.7-.35-27.6-12.78-28-26.84-.18-5.83,1.86-10.13,7.92-10.93,5.57-.74,9,2.43,10,7.85,1.13,6.58,3.78,11.66,11.33,11.39s9.77-5.48,10.82-12.05c.79-5,4.42-7.73,9.49-7.23,5.61.54,8,4.29,8.17,9.76C693,433.88,678.88,447.29,662.9,446.91Z" transform="translate(-146.3 -69.2)"/><path class="cls-2" d="M596.55,353.17c0,2.19.12,4.39,0,6.58-.4,6.15-3.3,10.41-9.88,10-6-.36-8.57-4.49-8.56-10.31,0-4.07-.05-8.15,0-12.22.08-6.14,2.56-10.47,9.29-10.48,6.27,0,8.61,4.27,9.12,9.84C596.71,348.77,596.54,351,596.55,353.17Z" transform="translate(-146.3 -69.2)"/><path class="cls-2" d="M596.57,305.34c0,1.88,0,3.76,0,5.63-.17,6.37-2.38,11.38-9.67,11.16-6.68-.2-8.88-4.85-8.82-10.94,0-3.75,0-7.5,0-11.26,0-6.08,2.29-10.59,9-10.69s9,4.51,9.41,10.47C596.66,301.58,596.56,303.47,596.57,305.34Z" transform="translate(-146.3 -69.2)"/><path class="cls-2" d="M596.43,401.35a55.3,55.3,0,0,1-.06,7.51c-.73,5.33-3.85,8.82-9.35,8.6s-8.58-3.6-8.85-9.11c-.22-4.38-.08-8.77-.08-13.16,0-6.1,2.28-10.7,8.95-10.87s9.13,4.45,9.5,10.45c.13,2.19,0,4.39,0,6.58Z" transform="translate(-146.3 -69.2)"/><path class="cls-2" d="M578.13,445.38c.09-4.19-1.52-13.29,9-13.38,10.37-.08,9.43,8.82,9.45,16.06,0,12.31-3,17.95-9.66,17C576.7,463.68,578.05,455.48,578.13,445.38Z" transform="translate(-146.3 -69.2)"/><path class="cls-2" d="M633.07,472.83c-.15,5-1.7,7.74-4.61,9.32-3.22,1.75-6.91,1.93-9.73-.53a110.62,110.62,0,0,1-12.59-12.56c-3.13-3.77-2.89-8.29.73-11.88s8.1-4,11.81-.56C624.29,461.82,630.93,466.35,633.07,472.83Z" transform="translate(-146.3 -69.2)"/><path class="cls-2" d="M679.94,521.93c6.08-.29,20.27,13.73,20.16,19.92-.12,6.62-6.73,11.13-12.48,7.89a42.14,42.14,0,0,1-15.17-15C669.07,529.1,673.43,522.25,679.94,521.93Z" transform="translate(-146.3 -69.2)"/><path class="cls-2" d="M666.73,508.22a9.38,9.38,0,0,1-4.42,7.42c-3.24,2.05-6.78,2.29-9.62-.19a135.63,135.63,0,0,1-13.3-13.18c-2.39-2.75-2.28-6.45-.31-9.7a8.4,8.4,0,0,1,7.84-4.25C652.51,488.43,666.57,502.24,666.73,508.22Z" transform="translate(-146.3 -69.2)"/><path class="cls-2" d="M483.77,550.83c-6.71.36-11.8-7.13-8.33-13a46.47,46.47,0,0,1,14.34-14.63c5.79-3.9,13.44.84,13.45,7.65C503.25,536.17,489.26,550.54,483.77,550.83Z" transform="translate(-146.3 -69.2)"/><path class="cls-2" d="M570.45,461.67c0,7.64-13.89,21.5-19.72,21.59a8.23,8.23,0,0,1-7.86-4.38c-1.74-3.23-2-6.9.63-9.77a179.15,179.15,0,0,1,12.71-12.7c2.85-2.58,6.32-2.62,9.69-.63C568.84,457.52,570.4,460.1,570.45,461.67Z" transform="translate(-146.3 -69.2)"/><path class="cls-2" d="M527.53,488.35c7-.2,11.88,7.18,8,13.19a45.18,45.18,0,0,1-14.74,14.53c-6,3.5-13.41-1.94-12.82-8.78C508.42,502,522.37,488.5,527.53,488.35Z" transform="translate(-146.3 -69.2)"/><path class="cls-3" d="M854.67,791.12a93.15,93.15,0,0,0-21.73-31.86c-22.12-21.5-49.36-33.68-78.23-42.71-22.93-7.18-46.6-11.34-70.19-15.62-6.18-1.12-8.42-3.49-8-9.81.55-8.5-1-17.26.39-25.55,2.62-15.05-6-21.42-18.48-27.09,0,23.34-.23,45.94.14,68.54.11,6.5,5.5,8.19,11.24,9.41,29.61,6.27,59.74,10.37,88.44,20.53,25.27,8.94,49,20.51,67,41.19,3.21,3.67,6.67,7.29,8,12.7H341.45a13.12,13.12,0,0,1,.9-3.16,72.14,72.14,0,0,1,4.83-7c16.69-20.6,39.23-32.38,63.36-41.64,30.25-11.61,62.3-15.92,93.78-22.43,9-1.85,12.08-6.13,11.93-14.84-.32-19.59-.1-39.19-.1-58.79,0-13.57.1-13.76,12.4-7.67,41.6,20.6,82.56,19.83,123-3.3-10.5-13.62-10.43-13.41-26-8-14.31,5-28.88,10.13-44.32,8-33.93-4.64-63.61-19-87.67-43.21C437.21,532.16,422.16,464,442.06,388c16.59-63.31,68.23-103.49,136.07-109.19,59.7-5,120.44,28.55,144.74,84.39,31.18,71.62,22.77,140.47-22.22,204.63-1.53,2.18-7.35,5.17-1.19,7.72,4.75,2,8.77,11.44,15.61,3A150.27,150.27,0,0,0,733.44,550a40.86,40.86,0,0,1,13.22-15.54C861.84,450.49,868.1,296,760.22,203c-99.61-85.84-260.86-82.2-355.6,9-53.68,51.66-77.24,114.7-63.48,189.08,10.5,56.81,42.19,100.61,88.24,134.48a35,35,0,0,1,10.88,12.66C453,573,469.75,594.55,491.69,611.84c4.64,3.66,6.7,7.42,6.58,13.5-.42,19.9-.16,39.82-.16,59.74,0,13.86,0,13.88-13.22,16.65-5.25,1.11-10.52,2.14-15.78,3.15-35.17,6.73-69.71,15.33-100.81,34-20.71,12.45-37.95,28.22-47.94,50.88-5.54,12.58-3.79,19.86,13,19.79,104-.44,208-.22,312-.22q98.63,0,197.25,0C856.84,809.36,860.08,804.45,854.67,791.12ZM756.81,373.64c10.45-17,15.17-36.53,18.21-56.25,1-6.79,3.5-12.1,11.24-10.62,7,1.35,7.73,6.79,6.76,13.25-4.85,32.29-16.6,61.69-36.22,89.79C754.12,396.67,749.12,386.14,756.81,373.64Zm-51.32-81c3.94-11.95,4.5-24.69,4.86-37.26.19-6.63,1.55-12.65,9.35-12.52s9.18,6.23,8.79,12.85c-.14,2.51,0,5,0,7.54-.75,16.45-4.14,32.39-8.6,48.15-1.56,5.53-2.44,8.5-8.51,2.53C704.77,307.47,702.49,301.76,705.49,292.65Zm-127.57-40c.55-12.91.21-25.87.13-38.8,0-6.35,1.49-11.7,9-11.89s9.47,5.05,9.55,11.39c.09,6.95,0,13.89,0,20.83,0,5.37-.45,10.78.11,16.08.85,8-1.17,11.34-10.16,10.62C580.29,260.37,577.62,259.62,577.92,252.63Zm-123.31-9.76c7-.18,9.64,4.66,9.66,11.28,0,13.88,1.39,27.68,5.35,41,2.08,6.95,1.26,11.91-4.59,16.29-2.42,1.82-4.12,4.59-7.26,8.19-8.41-22.4-11.29-43.79-11.95-65.57C445.63,248,448.07,243,454.61,242.87Zm-36,168a211.18,211.18,0,0,1-37.4-92.38c-.94-6.13,1.1-10.87,7.69-11.88,6.2-.95,9.62,3,10.4,8.56,3.28,23.7,11.31,45.66,22.16,66.92C426,391,418.73,399.39,418.57,410.89Z" transform="translate(-146.3 -69.2)"/></svg>