<svg id="Layer_1" data-name="Layer 1" xmlns="http://www.w3.org/2000/svg" xmlns:xlink="http://www.w3.org/1999/xlink" viewBox="0 0 890.11 890.11"><defs><style>.cls-1{fill:#fefefe;stroke-miterlimit:10;stroke-width:16.25px;stroke:url(#linear-gradient);}.cls-2{fill:#0072ba;}.cls-3{fill:#4fc3a0;}</style><linearGradient id="linear-gradient" y1="445.05" x2="890.11" y2="445.05" gradientUnits="userSpaceOnUse"><stop offset="0" stop-color="#0072ba"/><stop offset="1" stop-color="#4fc3a0"/></linearGradient></defs><circle class="cls-1" cx="445.05" cy="445.05" r="436.93"/><path class="cls-2" d="M347.77,586.84c24.14.13,46.23,8.77,68.45,16.75,47.11,16.93,92.7,37.67,139.16,56.24,24.43,9.76,24.32,33.09,12.06,53-3.17,5.16-8,3.53-12.67,2-40-13.33-80-26.65-120.14-39.66-5-1.62-12.3-7.14-15.17,1.78-2.63,8.16,5.86,8.26,10.76,9.9q59.08,19.8,118.3,39.22c18.93,6.23,29.7,1.43,34.93-18,2.95-10.94,8.95-16.54,18.4-21.54,49.29-26,98.26-52.65,147.31-79.12,19.34-10.44,39.11-5.54,48.93,12.28,10.5,19.05,4,38.22-15.53,49.49-69,39.78-138.1,79.58-206.71,120.11-21,12.43-41.85,15-65.07,7.87-46.33-14.23-92.92-27.6-139.46-41.12a16.48,16.48,0,0,1-10.66-8.25q-37.83-66-76.11-131.73c-2.94-5-3-7.35,2.69-10.46C313.39,591.19,327,586.7,347.77,586.84Z" transform="translate(-90.51 -72.08)"/><path class="cls-2" d="M362.37,775.56c-.42,2.78-2.84,3.38-4.65,4.43-16.9,9.74-33.93,19.25-50.71,29.19-4.66,2.77-6.69,2-9.37-2.62Q248.33,721.15,198.58,636c-2.21-3.8-3-6,1.82-8.76,17.3-9.67,34.33-19.82,51.36-30,3.8-2.26,6.05-3,8.8,1.82q49.63,86.31,99.66,172.4C361,772.86,361.69,774.27,362.37,775.56Z" transform="translate(-90.51 -72.08)"/><path class="cls-3" d="M776.65,227.31c-47.3-47-121.51-47-170,.11-7.89,7.66-16,15.13-24,22.69-9.48-6.35-16.75-15.14-25-22.81-38.68-35.92-82.9-44.72-131.89-25.57-44.43,17.37-74.82,63.36-75.51,113.64,0,30.79,10.85,59.43,33.85,82.67q93.15,94.08,187,187.49c8.49,8.49,13.86,8.41,22.48-.22,61.92-62,124.19-123.68,185.55-186.25C826.45,350.77,824.8,275.18,776.65,227.31ZM639.81,426.62c-7.73.34-18-3.59-22.46,1.83-3.76,4.56-1.06,14.43-1.27,21.95-.52,19.16-14.8,33.88-33.25,34.34-18.8.46-34.27-14.08-35.58-33.19-.56-8.1,3.48-18.83-1.89-23.53-4.55-4-15-1.12-22.81-1.56-18.89-1-33.16-15.27-33.43-33.14-.29-19,12.7-33.48,32-35.51,3.43-.36,6.91-.41,10.37-.43,15.71-.08,15.71-.06,15.73-16.23,0-26.41,13.15-41.8,35.46-41.61,17.83.16,32.19,14,33.42,32,.58,8.4-3.63,19.56,1.9,24.41,4.76,4.18,15.65,1.07,23.78,1.76,19.89,1.67,34,17.28,33.34,36.43C674.47,412,659.29,425.77,639.81,426.62Z" transform="translate(-90.51 -72.08)"/><path class="cls-3" d="M559.39,436.17c-.29-23.63,3.56-22-22.51-22-4.72,0-9.47.1-14.17-.32-13.05-1.19-21.16-10-20.74-22.28s9-21,21.77-21.61a239.91,239.91,0,0,1,24.58,0c8,.44,11.69-2.35,11.17-10.79-.5-8.17-.3-16.39,0-24.58.42-13.08,9.39-21.95,22.11-22.22,12.21-.26,21.22,8.07,22,21.07.53,9.11.27,18.28.23,27.42,0,6.19,2.49,9.28,9.08,9.06q13.23-.42,26.47,0c13.25.42,23.4,10.15,23.68,22.27.26,11.33-9.65,21-22.9,21.79a203.46,203.46,0,0,1-24.57.1c-9.24-.59-12.44,3.36-11.86,12.22a217.37,217.37,0,0,1,0,22.69c-.56,14-9.81,23.32-22.31,22.95-13-.39-21.64-9.56-22-23.43C559.3,444.37,559.39,440.27,559.39,436.17Z" transform="translate(-90.51 -72.08)"/></svg>