<svg id="Layer_1" data-name="Layer 1" xmlns="http://www.w3.org/2000/svg" xmlns:xlink="http://www.w3.org/1999/xlink" viewBox="0 0 853.76 853.76"><defs><style>.cls-1{fill:#fefefe;stroke-miterlimit:10;stroke-width:15.59px;stroke:url(#linear-gradient);}.cls-2{fill:#0072ba;}.cls-3{fill:#202020;}.cls-4{fill:#1f1f1f;}.cls-5{fill:#4fc3a0;}</style><linearGradient id="linear-gradient" y1="426.88" x2="853.76" y2="426.88" gradientUnits="userSpaceOnUse"><stop offset="0" stop-color="#0072ba"/><stop offset="1" stop-color="#4fc3a0"/></linearGradient></defs><circle class="cls-1" cx="426.88" cy="426.88" r="419.09"/><path class="cls-2" d="M564,215.15c1.63,2.41,4.11,1,6.14,1.22,5.68.55,9,3.22,9.92,9,2,12.74,4.17,25.46,6.19,38.2C587.78,273,590,275.68,599,277.62a252,252,0,0,1,82.36,33.94c9,5.69,11.29,5.6,19.88-.53,10.33-7.39,20.71-14.71,31-22.22,4.89-3.58,9.27-3.43,13.85.5a343.21,343.21,0,0,1,37.83,37.76c4.08,4.8,4.27,9.31.55,14.39-7.86,10.74-15.43,21.71-23.34,32.41-4.07,5.51-4.19,10.6-.46,16.36a251.61,251.61,0,0,1,35.22,84.44c1.9,8.78,4.72,11,13.62,12.41,12.75,2,25.46,4.21,38.21,6.12,5.79.87,8.65,4.06,9.21,9.71a280.42,280.42,0,0,1,0,54.66c-.56,5.66-3.42,8.89-9.18,9.77-12.54,1.93-25.05,4.12-37.59,6.06-9.73,1.5-12.35,3.61-14.41,13.08a251.73,251.73,0,0,1-34.39,82.81c-5,7.84-4.88,10.73.55,18.35,7.49,10.5,14.93,21.05,22.56,31.45,3.73,5.08,3.56,9.55-.53,14.37A350.5,350.5,0,0,1,746,771.22c-4.55,4-9,4.06-13.85.51-10.76-7.85-21.72-15.41-32.43-23.32-5.69-4.21-10.9-4.35-16.89-.46A248.8,248.8,0,0,1,599,783c-9.08,1.94-11.2,4.58-12.7,14-2,12.74-4.19,25.46-6.17,38.2-.71,4.6-3.05,8-7.6,8.46-17.66,1.88-35.36,2.58-53.9.17,16.25-14.46,27.06-31.41,32.44-51.76a107.25,107.25,0,0,0,3.17-32.29c-.17-3.89.88-5.22,5-5.5,101.77-7,186.17-81.73,205.19-181.53,23-120.5-55-237.57-174.81-262.52-10-2.09-20.16-3.77-30.43-4-3.53-.07-5.08-.88-4.91-4.86,1.36-32.77-9.3-60.75-34-82.84-2.67-2.4,1.13-2.17.69-3.39h3.7c.82.9,1.92.56,2.93.64h3.15c1.26-.17,2.65.44,3.76-.64h11.08a9.39,9.39,0,0,0,7.39,0h4.92a2.81,2.81,0,0,0,3.69,0Z" transform="translate(-96.59 -112.04)"/><path class="cls-3" d="M228,520.4c2.1,2.47,1.77,4.93,0,7.39Z" transform="translate(-96.59 -112.04)"/><path class="cls-4" d="M228,532.71c1.77,2.46,2.1,4.93,0,7.39Z" transform="translate(-96.59 -112.04)"/><path class="cls-5" d="M554.29,704c0-8,.12-16,0-24-.07-3,.74-4.16,4-4.55,65.33-7.71,115.18-53.06,128.52-116.74,16.08-76.8-34.81-154.62-112-171.19a112.09,112.09,0,0,0-16.37-2.45c-3.82-.24-4.13-2-4.11-5.07.11-15.59.2-31.17,0-46.75-.06-4.13,1.07-5.16,5.12-4.79,22.8,2.1,45,6.84,65.71,16.66,71.74,34,113.1,90.42,120,169.73,9.19,106.23-66.61,199.94-172.72,215.6-5.75.85-13.16,4.12-17,.54-2.82-2.63-.86-10.43-1-15.93C554.24,711.39,554.29,707.7,554.29,704Z" transform="translate(-96.59 -112.04)"/><path class="cls-2" d="M554.29,529.76c0-39,.11-77.95-.12-116.92,0-5.17,1.38-6,6.14-5.19,56.45,9.45,96.33,49.07,105.52,105,10.16,62-33.05,124.81-95.05,138.18-5.19,1.12-11.9,4.41-15.33,1.76s-1.09-10-1.11-15.19Q554.2,583.6,554.29,529.76Z" transform="translate(-96.59 -112.04)"/><path class="cls-5" d="M531.93,607.83q0-156.29,0-312.55c0-36.52-22.93-67.11-57.21-77.15-3.84-1.13-8-.91-11.59-3h-2.46a24.67,24.67,0,0,1-12.31,0h-6.15c-4.3,1.32-8.87.82-13.21,2-30.91,8.8-55.62,41.36-56.21,73.41-.27,14.75,3.24,28.33,9.46,41.53,2.83,6,.85,11.48-4,13.73s-10,.1-13.21-5.62a91.63,91.63,0,0,1-9.26-24.68c-2-8.63-2.91-9.43-11-6.19-22.34,9-37.72,24.91-46.09,47.48A75.09,75.09,0,0,0,295,396.19c1.12,6.51,2.48,7.26,8.77,5.72,5.38-1.32,10.79-2.54,16.25-3.41A115.81,115.81,0,0,1,339,396.75c6.07,0,10.28,4,10.67,9.06.41,5.23-3,8.94-9.32,10.28a32.84,32.84,0,0,1-5.51.52c-34.5,1.45-62.19,16.49-83.67,43-13.42,16.55-21.55,35.58-23.1,57.1v3.69a9.48,9.48,0,0,1,0,7.39v4.92a9.48,9.48,0,0,1,0,7.39v3.69c1.5.62,1.06,2,1.24,3.16,2.22,14.08,6.54,27.5,14,39.67,21.59,35.28,53,54.17,94.5,56,9.25.42,14.33,4.81,14,11.92s-5.89,11.14-15,10.72c-11.9-.54-23.67-2.14-35-5.89-3.16-1-4.12-.49-4.79,2.83-7.57,37.1,14.94,76.2,50.95,88.52,3.68,1.26,5.27,1.49,5.95-3.21a84.57,84.57,0,0,1,8.14-25c4.78-9.75,10.54-13,17.41-9.52,6.52,3.28,7.25,9.46,2.94,19.07-13.1,29.27-10.81,57.43,9.1,82.64S438.3,849.62,470.09,843c36.52-7.65,61.7-39.5,61.81-77.64C532,712.83,531.93,660.33,531.93,607.83Zm-181.36-10c-24.92.07-48.46-19.27-53.62-44.13-.67-3.19-1.63-6.38-1.25-8.85-.19-9.07,3.91-14.28,10.7-14.53,6.59-.23,11,4.45,11.61,12.28,1.37,18,13,30.3,30.93,32.5,1.22.15,2.45.24,3.66.41,6.43.89,10.74,5.63,10.47,11.48C362.77,593.34,357.64,597.79,350.57,597.81Zm24.26-67.59c-6.45.31-10.95-4.13-11.68-11.51-2-20-12.8-31-32.73-33.39-8.24-1-13-5.67-12.36-12.24.64-6.77,6.11-10.73,14.18-10.28,29,1.63,52.78,25.86,53.27,54.27C385.64,524.73,381.44,529.91,374.83,530.22Zm69.47-269.8a55.81,55.81,0,0,1,53.53,53c.38,8.6-3.14,13.55-10,14.09-7.22.56-11.8-4.16-12.35-12.75-1.13-17.67-14.31-30.83-32-31.94-8.3-.52-13-4.83-12.75-11.77S436,260.14,444.3,260.42Zm-25.81,67.43c6.47-.48,11.54,3.74,12,11.13.69,11.08,4.73,20.2,13.62,27a33.06,33.06,0,0,0,18.13,6.72c8.9.61,13.54,4.78,13.22,11.89S470,395.32,461.09,395c-28.46-1.06-52.31-25.51-53-54.35C407.88,333.46,412.05,328.34,418.49,327.85Zm.13,393.54c-6.47-.35-10.7-5.4-10.57-12.61.54-29.47,25.28-54.11,54.75-54.54,7.4-.11,12.3,3.9,12.66,10.37.38,6.77-4.23,11.45-11.84,12-19.19,1.48-30.89,13-32.89,32.31C429.85,717.39,425.58,721.78,418.62,721.39ZM497.82,736c-1.32,28.65-25.2,52.16-53.69,52.86-8.14.2-12.9-3.43-13.35-10.19-.48-7.09,4.08-11.61,12.24-12.14,17.91-1.17,31.32-14.23,32.43-31.58.56-8.71,5-13.64,11.9-13.31S498.22,727.28,497.82,736ZM487.67,563.84c-7.2.48-11.66-4.23-12.21-12.89-1.11-17.57-14.35-30.68-32.11-31.82-8.24-.52-12.89-4.92-12.61-11.9s5.27-10.78,13.69-10.48a55.81,55.81,0,0,1,53.41,53.12C498.21,558.48,494.65,563.37,487.67,563.84Z" transform="translate(-96.59 -112.04)"/></svg>